<svg width="1920" height="188" viewBox="0 0 1920 188" fill="none" xmlns="http://www.w3.org/2000/svg">
<path d="M1824.84 130.247C1818.26 130.247 1812.98 124.991 1812.55 118.019L1811.86 105.973C1811.84 105.548 1812.16 105.182 1812.59 105.157C1813.08 105.113 1813.38 105.459 1813.4 105.883L1814.1 117.928C1814.47 124.071 1819.09 128.706 1824.84 128.706C1830.76 128.706 1835.58 123.889 1835.58 117.973V105.234C1835.58 104.808 1835.93 104.462 1836.35 104.462C1836.78 104.462 1837.13 104.808 1837.13 105.234V117.973C1837.13 124.741 1831.62 130.247 1824.84 130.247Z" fill="#22366C"/>
<path d="M1549.89 163.37C1543.11 163.37 1537.6 157.864 1537.6 151.095V87.862C1537.6 87.4346 1537.95 87.0901 1538.37 87.0901C1538.8 87.0901 1539.14 87.4346 1539.14 87.862V151.095C1539.14 157.012 1543.96 161.828 1549.89 161.828C1555.76 161.828 1560.48 157.104 1560.63 151.075L1560.86 140.424C1560.87 140.002 1561.21 139.668 1561.63 139.668H1561.65C1562.08 139.676 1562.42 140.028 1562.4 140.455L1562.17 151.112C1562 157.987 1556.61 163.37 1549.89 163.37Z" fill="#22366C"/>
<path d="M1515.19 102.918C1514.77 102.918 1514.42 102.572 1514.42 102.145V82.6893C1514.42 75.9625 1519.9 70.4908 1526.63 70.4908C1533.32 70.4908 1538.83 75.9578 1538.91 82.6809L1539.14 93.4035C1539.16 93.829 1538.82 94.1829 1538.39 94.1931C1538.02 94.1522 1537.61 93.8635 1537.6 93.437L1537.37 82.707C1537.29 76.8173 1532.48 72.0357 1526.63 72.0357C1520.75 72.0357 1515.96 76.8145 1515.96 82.6893V102.145C1515.96 102.572 1515.62 102.918 1515.19 102.918Z" fill="#22366C"/>
<path d="M1836.28 116.736C1835.85 116.736 1835.51 116.392 1835.51 115.964V100.988C1835.51 94.2192 1840.98 88.7122 1847.72 88.7122C1854.41 88.7122 1859.92 94.2136 1860 100.978C1860.01 101.405 1859.66 101.754 1859.24 101.76H1859.23C1858.81 101.76 1858.46 101.42 1858.46 100.996C1858.38 95.0741 1853.57 90.2561 1847.72 90.2561C1841.83 90.2561 1837.05 95.0703 1837.05 100.988V115.964C1837.05 116.392 1836.71 116.736 1836.28 116.736Z" fill="#22366C"/>
<path d="M1503.68 112.488H0.771441C0.344177 112.488 0 112.144 0 111.717C0 111.291 0.344177 110.946 0.771441 110.946H1503.68C1509.6 110.946 1514.42 106.131 1514.42 100.214C1514.42 99.7877 1514.76 99.4413 1515.19 99.4413C1515.62 99.4413 1515.96 99.7877 1515.96 100.214C1515.96 106.983 1510.45 112.488 1503.68 112.488Z" fill="#22366C"/>
<path d="M1859.4 109H1919.97C1919.99 109 1920 108.644 1920 108.203C1920 107.762 1919.99 107.406 1919.97 107.406H1859.4C1860.72 109 1859.96 101.74 1859.04 96.3167C1859.04 95.876 1858.78 94.9995 1858.2 94.9995C1857.64 94.9995 1858.45 96.1144 1858.45 96.5551C1858.36 103.534 1859.12 109 1859.4 109Z" fill="#22366C"/>
<path d="M1562.48 90.5643H1627.32V77.2075H1562.48V90.5643ZM1628.09 92.1082H1561.71C1561.28 92.1082 1560.94 91.7618 1560.94 91.3354V76.4355C1560.94 76.0081 1561.28 75.6645 1561.71 75.6645H1628.09C1628.52 75.6645 1628.86 76.0081 1628.86 76.4355V91.3354C1628.86 91.7618 1628.52 92.1082 1628.09 92.1082Z" fill="#22366C"/>
<path d="M1558.5 97.1254H1627.32V92.1082H1553.95L1558.5 97.1254ZM1628.09 98.6693H1558.16C1557.94 98.6693 1557.73 98.5771 1557.58 98.416L1551.63 91.854C1551.43 91.6287 1551.37 91.3028 1551.5 91.0234C1551.62 90.7431 1551.9 90.5643 1552.2 90.5643H1628.09C1628.52 90.5643 1628.86 90.9089 1628.86 91.3354V97.8983C1628.86 98.3257 1628.52 98.6693 1628.09 98.6693Z" fill="#22366C"/>
<path d="M1628.09 187.688C1627.67 187.688 1627.32 187.345 1627.32 186.917V107.934H1562.48V146.615C1562.48 147.041 1562.14 147.385 1561.71 147.385C1561.28 147.385 1560.94 147.041 1560.94 146.615V107.165C1560.94 106.737 1561.28 106.393 1561.71 106.393H1628.09C1628.52 106.393 1628.86 106.737 1628.86 107.165V186.917C1628.86 187.345 1628.52 187.688 1628.09 187.688Z" fill="#22366C"/>
<path d="M1656.69 91.0281C1656.26 91.0281 1655.91 90.6807 1655.91 90.2552V76.4355C1655.91 76.0081 1656.26 75.6645 1656.69 75.6645C1657.11 75.6645 1657.46 76.0081 1657.46 76.4355V90.2552C1657.46 90.6807 1657.11 91.0281 1656.69 91.0281Z" fill="#22366C"/>
<path d="M1663.79 91.2581C1663.37 91.2581 1663.02 90.9117 1663.02 90.4871V76.6665C1663.02 76.24 1663.37 75.8945 1663.79 75.8945C1664.22 75.8945 1664.57 76.24 1664.57 76.6665V90.4871C1664.57 90.9117 1664.22 91.2581 1663.79 91.2581Z" fill="#22366C"/>
<path d="M1576.55 106.699C1576.12 106.699 1575.78 106.355 1575.78 105.928V99.1331C1575.78 98.7066 1576.12 98.3602 1576.55 98.3602C1576.98 98.3602 1577.32 98.7066 1577.32 99.1331V105.928C1577.32 106.355 1576.98 106.699 1576.55 106.699Z" fill="#22366C"/>
<path d="M1583.74 106.853C1583.31 106.853 1582.96 106.509 1582.96 106.082V99.2122C1582.96 98.7857 1583.31 98.4402 1583.74 98.4402C1584.17 98.4402 1584.51 98.7857 1584.51 99.2122V106.082C1584.51 106.509 1584.17 106.853 1583.74 106.853Z" fill="#22366C"/>
<path d="M1712.94 101.991C1712.08 101.991 1711.4 102.633 1711.4 103.456C1711.4 104.28 1712.08 104.922 1712.94 104.922C1713.75 104.922 1714.41 104.266 1714.41 103.456C1714.41 102.646 1713.75 101.991 1712.94 101.991ZM1712.94 106.466C1711.21 106.466 1709.85 105.144 1709.85 103.456C1709.85 101.768 1711.21 100.445 1712.94 100.445C1714.6 100.445 1715.95 101.795 1715.95 103.456C1715.95 105.116 1714.6 106.466 1712.94 106.466Z" fill="#22366C"/>
<path d="M1591.31 106.082C1590.88 106.082 1590.54 105.738 1590.54 105.311V98.4393C1590.54 98.0128 1590.88 97.6664 1591.31 97.6664C1591.74 97.6664 1592.08 98.0128 1592.08 98.4393V105.311C1592.08 105.738 1591.74 106.082 1591.31 106.082Z" fill="#22366C"/>
<path d="M1598.42 106.236C1597.99 106.236 1597.65 105.892 1597.65 105.465V98.5911C1597.65 98.1665 1597.99 97.8192 1598.42 97.8192C1598.85 97.8192 1599.19 98.1665 1599.19 98.5911V105.465C1599.19 105.892 1598.85 106.236 1598.42 106.236Z" fill="#22366C"/>
<path d="M1605.53 106.312C1605.1 106.312 1604.76 105.968 1604.76 105.541V98.7475C1604.76 98.3211 1605.1 97.9756 1605.53 97.9756C1605.95 97.9756 1606.3 98.3211 1606.3 98.7475V105.541C1606.3 105.968 1605.95 106.312 1605.53 106.312Z" fill="#22366C"/>
<path d="M1612.64 106.466C1612.21 106.466 1611.87 106.122 1611.87 105.696V98.8257C1611.87 98.3983 1612.21 98.0529 1612.64 98.0529C1613.06 98.0529 1613.41 98.3983 1613.41 98.8257V105.696C1613.41 106.122 1613.06 106.466 1612.64 106.466Z" fill="#22366C"/>
<path d="M1620.44 106.466C1620.01 106.466 1619.67 106.122 1619.67 105.696V98.8257C1619.67 98.3983 1620.01 98.0529 1620.44 98.0529C1620.87 98.0529 1621.21 98.3983 1621.21 98.8257V105.696C1621.21 106.122 1620.87 106.466 1620.44 106.466Z" fill="#22366C"/>
<path d="M1562.48 75.6645H1627.32V71.1846H1562.48V75.6645ZM1628.09 77.2075H1561.71C1561.28 77.2075 1560.94 76.862 1560.94 76.4356V70.4145C1560.94 69.9871 1561.28 69.6417 1561.71 69.6417H1628.09C1628.52 69.6417 1628.86 69.9871 1628.86 70.4145V76.4356C1628.86 76.862 1628.52 77.2075 1628.09 77.2075Z" fill="#22366C"/>
<path d="M1612.41 187.688C1611.98 187.688 1611.64 187.345 1611.64 186.917V114.032H1576.86V186.917C1576.86 187.345 1576.51 187.688 1576.08 187.688C1575.66 187.688 1575.31 187.345 1575.31 186.917V113.263C1575.31 112.835 1575.66 112.491 1576.08 112.491H1612.41C1612.83 112.491 1613.18 112.835 1613.18 113.263V186.917C1613.18 187.345 1612.83 187.688 1612.41 187.688Z" fill="#22366C"/>
<path d="M1713.87 187.688C1713.45 187.688 1713.1 187.345 1713.1 186.917V138.354C1713.1 119.069 1701.9 103.381 1688.14 103.381C1674.33 103.381 1663.1 119.069 1663.1 138.354V186.917C1663.1 187.345 1662.75 187.688 1662.33 187.688C1661.9 187.688 1661.55 187.345 1661.55 186.917V138.354C1661.55 118.219 1673.48 101.837 1688.14 101.837C1702.75 101.837 1714.64 118.219 1714.64 138.354V186.917C1714.64 187.345 1714.3 187.688 1713.87 187.688Z" fill="#22366C"/>
<path d="M1661.48 101.991C1660.64 101.991 1659.93 102.663 1659.93 103.456C1659.93 104.252 1660.64 104.922 1661.48 104.922C1662.29 104.922 1662.95 104.266 1662.95 103.456C1662.95 102.646 1662.29 101.991 1661.48 101.991ZM1661.48 106.466C1659.8 106.466 1658.39 105.09 1658.39 103.456C1658.39 101.824 1659.8 100.445 1661.48 100.445C1663.14 100.445 1664.49 101.795 1664.49 103.456C1664.49 105.116 1663.14 106.466 1661.48 106.466Z" fill="#22366C"/>
<path d="M1632.03 71.2629H1632.03L1625.46 71.1846C1625.03 71.18 1624.69 70.8299 1624.69 70.4024C1624.7 69.9825 1625.05 69.6417 1625.47 69.6417H1625.47L1632.04 69.7189C1632.47 69.7227 1632.81 70.0737 1632.8 70.4993C1632.8 70.923 1632.45 71.2629 1632.03 71.2629ZM1727.32 71.2629H1647.41C1646.99 71.2629 1646.64 70.9174 1646.64 70.4909C1646.64 70.0635 1646.99 69.7189 1647.41 69.7189H1727.32C1727.74 69.7189 1728.09 70.0635 1728.09 70.4909C1728.09 70.9174 1727.74 71.2629 1727.32 71.2629ZM1747.25 71.2629H1742.31C1741.88 71.2629 1741.54 70.9174 1741.54 70.4909C1741.54 70.0635 1741.88 69.7189 1742.31 69.7189H1747.25C1747.68 69.7189 1748.02 70.0635 1748.02 70.4909C1748.02 70.9174 1747.68 71.2629 1747.25 71.2629Z" fill="#22366C"/>
<path d="M1746.48 92.1082H1629.02C1628.59 92.1082 1628.25 91.7618 1628.25 91.3354C1628.25 90.9089 1628.59 90.5643 1629.02 90.5643H1746.48C1746.91 90.5643 1747.25 90.9089 1747.25 91.3354C1747.25 91.7618 1746.91 92.1082 1746.48 92.1082Z" fill="#22366C"/>
<path d="M1675.15 91.0281C1674.73 91.0281 1674.38 90.6807 1674.38 90.2552V76.4355C1674.38 76.0081 1674.73 75.6645 1675.15 75.6645C1675.58 75.6645 1675.93 76.0081 1675.93 76.4355V90.2552C1675.93 90.6807 1675.58 91.0281 1675.15 91.0281Z" fill="#22366C"/>
<path d="M1682.26 91.2581C1681.84 91.2581 1681.49 90.9117 1681.49 90.4871V76.6665C1681.49 76.24 1681.84 75.8945 1682.26 75.8945C1682.69 75.8945 1683.03 76.24 1683.03 76.6665V90.4871C1683.03 90.9117 1682.69 91.2581 1682.26 91.2581Z" fill="#22366C"/>
<path d="M1693.63 91.0281C1693.2 91.0281 1692.85 90.6807 1692.85 90.2552V76.4355C1692.85 76.0081 1693.2 75.6645 1693.63 75.6645C1694.05 75.6645 1694.39 76.0081 1694.39 76.4355V90.2552C1694.39 90.6807 1694.05 91.0281 1693.63 91.0281Z" fill="#22366C"/>
<path d="M1700.81 91.2581C1700.39 91.2581 1700.04 90.9117 1700.04 90.4871V76.6665C1700.04 76.24 1700.39 75.8945 1700.81 75.8945C1701.24 75.8945 1701.58 76.24 1701.58 76.6665V90.4871C1701.58 90.9117 1701.24 91.2581 1700.81 91.2581Z" fill="#22366C"/>
<path d="M1712.17 91.0281C1711.74 91.0281 1711.4 90.6807 1711.4 90.2552V76.4355C1711.4 76.0081 1711.74 75.6645 1712.17 75.6645C1712.6 75.6645 1712.94 76.0081 1712.94 76.4355V90.2552C1712.94 90.6807 1712.6 91.0281 1712.17 91.0281Z" fill="#22366C"/>
<path d="M1719.28 91.2581C1718.85 91.2581 1718.51 90.9117 1718.51 90.4871V76.6665C1718.51 76.24 1718.85 75.8945 1719.28 75.8945C1719.71 75.8945 1720.05 76.24 1720.05 76.6665V90.4871C1720.05 90.9117 1719.71 91.2581 1719.28 91.2581Z" fill="#22366C"/>
<path d="M1742.15 42.6187H1632.19C1631.76 42.6187 1631.42 42.2723 1631.42 41.8468C1631.42 41.4194 1631.76 41.0748 1632.19 41.0748H1742.15C1742.58 41.0748 1742.93 41.4194 1742.93 41.8468C1742.93 42.2723 1742.58 42.6187 1742.15 42.6187Z" fill="#22366C"/>
<path d="M1653.75 187.688C1653.32 187.688 1652.98 187.345 1652.98 186.917V94.8869C1652.98 94.4613 1653.32 94.114 1653.75 94.114C1654.18 94.114 1654.52 94.4613 1654.52 94.8869V186.917C1654.52 187.345 1654.18 187.688 1653.75 187.688Z" fill="#22366C"/>
<path d="M1726.7 32.2724H1648.42C1647.99 32.2724 1647.65 31.9279 1647.65 31.5005C1647.65 31.074 1647.99 30.7285 1648.42 30.7285H1726.7C1727.13 30.7285 1727.47 31.074 1727.47 31.5005C1727.47 31.9279 1727.13 32.2724 1726.7 32.2724Z" fill="#22366C"/>
<path d="M1647.18 76.5119C1646.75 76.5119 1646.41 76.1673 1646.41 75.7399V19.3802C1646.41 12.4326 1643.33 6.56338 1639.68 6.56338C1636.04 6.56338 1632.96 12.4326 1632.96 19.3802V75.7399C1632.96 76.1673 1632.61 76.5119 1632.19 76.5119C1631.76 76.5119 1631.42 76.1673 1631.42 75.7399V19.3802C1631.42 11.4605 1635.12 5.01855 1639.68 5.01855C1644.24 5.01855 1647.95 11.4605 1647.95 19.3802V75.7399C1647.95 76.1673 1647.6 76.5119 1647.18 76.5119Z" fill="#22366C"/>
<path d="M1646.79 19.0702H1632.34C1631.92 19.0702 1631.57 18.7247 1631.57 18.2982C1631.57 17.8726 1631.92 17.5262 1632.34 17.5262H1646.79C1647.22 17.5262 1647.56 17.8726 1647.56 18.2982C1647.56 18.7247 1647.22 19.0702 1646.79 19.0702Z" fill="#22366C"/>
<path d="M1639.45 5.86871C1639.02 5.86871 1638.68 5.52231 1638.68 5.09489V0.926926C1638.68 0.499514 1639.02 0.154053 1639.45 0.154053C1639.88 0.154053 1640.22 0.499514 1640.22 0.926926V5.09489C1640.22 5.52231 1639.88 5.86871 1639.45 5.86871Z" fill="#22366C"/>
<path d="M1628.09 108.551C1627.67 108.551 1627.32 108.206 1627.32 107.78V97.2036C1627.32 96.7772 1627.67 96.4308 1628.09 96.4308C1628.52 96.4308 1628.86 96.7772 1628.86 97.2036V107.78C1628.86 108.206 1628.52 108.551 1628.09 108.551Z" fill="#22366C"/>
<path d="M1746.25 95.5061H1628.79C1628.36 95.5061 1628.02 95.1597 1628.02 94.7333C1628.02 94.3068 1628.36 93.9613 1628.79 93.9613H1746.25C1746.68 93.9613 1747.02 94.3068 1747.02 94.7333C1747.02 95.1597 1746.68 95.5061 1746.25 95.5061Z" fill="#22366C"/>
<path d="M1745.71 77.2075H1628.32C1627.9 77.2075 1627.55 76.862 1627.55 76.4355C1627.55 76.0081 1627.9 75.6645 1628.32 75.6645H1745.71C1746.14 75.6645 1746.48 76.0081 1746.48 76.4355C1746.48 76.862 1746.14 77.2075 1745.71 77.2075Z" fill="#22366C"/>
<path d="M1653.75 106.236H1628.79C1628.36 106.236 1628.02 105.892 1628.02 105.465C1628.02 105.039 1628.36 104.692 1628.79 104.692H1653.75C1654.18 104.692 1654.52 105.039 1654.52 105.465C1654.52 105.892 1654.18 106.236 1653.75 106.236Z" fill="#22366C"/>
<path d="M1653.75 173.174H1628.79C1628.36 173.174 1628.02 172.831 1628.02 172.404C1628.02 171.977 1628.36 171.633 1628.79 171.633H1653.75C1654.18 171.633 1654.52 171.977 1654.52 172.404C1654.52 172.831 1654.18 173.174 1653.75 173.174Z" fill="#22366C"/>
<path d="M1721.68 187.688C1721.25 187.688 1720.9 187.345 1720.9 186.917V94.7333C1720.9 94.3068 1721.25 93.9613 1721.68 93.9613C1722.1 93.9613 1722.45 94.3068 1722.45 94.7333V186.917C1722.45 187.345 1722.1 187.688 1721.68 187.688Z" fill="#22366C"/>
<path d="M1746.63 107.315H1721.75C1721.33 107.315 1720.98 106.972 1720.98 106.546C1720.98 106.12 1721.33 105.774 1721.75 105.774H1746.63C1747.06 105.774 1747.41 106.12 1747.41 106.546C1747.41 106.972 1747.06 107.315 1746.63 107.315Z" fill="#22366C"/>
<path d="M1746.63 174.332H1721.75C1721.33 174.332 1720.98 173.989 1720.98 173.561C1720.98 173.135 1721.33 172.791 1721.75 172.791H1746.63C1747.06 172.791 1747.41 173.135 1747.41 173.561C1747.41 173.989 1747.06 174.332 1746.63 174.332Z" fill="#22366C"/>
<path d="M1561.87 106.853C1561.44 106.853 1561.1 106.509 1561.1 106.082V99.2122C1561.1 98.7857 1561.44 98.4402 1561.87 98.4402C1562.29 98.4402 1562.64 98.7857 1562.64 99.2122V106.082C1562.64 106.509 1562.29 106.853 1561.87 106.853Z" fill="#22366C"/>
<path d="M1568.97 106.93C1568.55 106.93 1568.2 106.585 1568.2 106.158V99.3659C1568.2 98.9394 1568.55 98.5948 1568.97 98.5948C1569.4 98.5948 1569.75 98.9394 1569.75 99.3659V106.158C1569.75 106.585 1569.4 106.93 1568.97 106.93Z" fill="#22366C"/>
<path d="M1606.07 187.688C1605.64 187.688 1605.3 187.345 1605.3 186.917V135.652C1605.3 127.309 1600.34 120.519 1594.24 120.519C1588.15 120.519 1583.19 127.309 1583.19 135.652V186.917C1583.19 187.345 1582.85 187.688 1582.42 187.688C1581.99 187.688 1581.65 187.345 1581.65 186.917V135.652C1581.65 126.456 1587.3 118.976 1594.24 118.976C1601.19 118.976 1606.84 126.456 1606.84 135.652V186.917C1606.84 187.345 1606.5 187.688 1606.07 187.688Z" fill="#22366C"/>
<path d="M1643.09 42.2332C1642.66 42.2332 1642.31 41.8877 1642.31 41.4603V27.0996C1642.31 25.0901 1641.11 23.3935 1639.68 23.3935C1638.28 23.3935 1637.13 25.0557 1637.13 27.0996V41.4603C1637.13 41.8877 1636.79 42.2332 1636.36 42.2332C1635.93 42.2332 1635.59 41.8877 1635.59 41.4603V27.0996C1635.59 24.1552 1637.39 21.8487 1639.68 21.8487C1641.99 21.8487 1643.86 24.2046 1643.86 27.0996V41.4603C1643.86 41.8877 1643.51 42.2332 1643.09 42.2332Z" fill="#22366C"/>
<path d="M1747.1 90.5643H1812.01V77.2075H1747.1V90.5643ZM1812.79 92.1082H1746.33C1745.9 92.1082 1745.56 91.7618 1745.56 91.3354V76.4355C1745.56 76.0081 1745.9 75.6645 1746.33 75.6645H1812.79C1813.21 75.6645 1813.56 76.0081 1813.56 76.4355V91.3354C1813.56 91.7618 1813.21 92.1082 1812.79 92.1082Z" fill="#22366C"/>
<path d="M1747.1 97.1254H1815.92L1820.53 92.1082H1747.1V97.1254ZM1816.26 98.6693H1746.33C1745.9 98.6693 1745.56 98.3257 1745.56 97.8983V91.3354C1745.56 90.9089 1745.9 90.5643 1746.33 90.5643H1822.29C1822.6 90.5643 1822.87 90.745 1823 91.0262C1823.12 91.3046 1823.07 91.6324 1822.86 91.8587L1816.83 98.4198C1816.68 98.5781 1816.48 98.6693 1816.26 98.6693Z" fill="#22366C"/>
<path d="M1746.33 187.688C1745.9 187.688 1745.56 187.345 1745.56 186.917V107.165C1745.56 106.737 1745.9 106.393 1746.33 106.393H1812.79C1813.21 106.393 1813.56 106.737 1813.56 107.165C1813.56 107.589 1813.21 107.934 1812.79 107.934H1747.1V186.917C1747.1 187.345 1746.75 187.688 1746.33 187.688Z" fill="#22366C"/>
<path d="M1797.87 106.699C1797.45 106.699 1797.1 106.355 1797.1 105.928V99.1331C1797.1 98.7066 1797.45 98.3602 1797.87 98.3602C1798.3 98.3602 1798.64 98.7066 1798.64 99.1331V105.928C1798.64 106.355 1798.3 106.699 1797.87 106.699Z" fill="#22366C"/>
<path d="M1790.76 106.853C1790.34 106.853 1789.99 106.509 1789.99 106.082V99.2122C1789.99 98.7857 1790.34 98.4402 1790.76 98.4402C1791.19 98.4402 1791.53 98.7857 1791.53 99.2122V106.082C1791.53 106.509 1791.19 106.853 1790.76 106.853Z" fill="#22366C"/>
<path d="M1783.19 106.082C1782.76 106.082 1782.42 105.738 1782.42 105.311V98.4393C1782.42 98.0128 1782.76 97.6664 1783.19 97.6664C1783.62 97.6664 1783.96 98.0128 1783.96 98.4393V105.311C1783.96 105.738 1783.62 106.082 1783.19 106.082Z" fill="#22366C"/>
<path d="M1776.08 106.236C1775.65 106.236 1775.31 105.892 1775.31 105.465V98.5911C1775.31 98.1665 1775.65 97.8192 1776.08 97.8192C1776.51 97.8192 1776.85 98.1665 1776.85 98.5911V105.465C1776.85 105.892 1776.51 106.236 1776.08 106.236Z" fill="#22366C"/>
<path d="M1768.97 106.312C1768.54 106.312 1768.2 105.968 1768.2 105.541V98.7475C1768.2 98.3211 1768.54 97.9756 1768.97 97.9756C1769.4 97.9756 1769.74 98.3211 1769.74 98.7475V105.541C1769.74 105.968 1769.4 106.312 1768.97 106.312Z" fill="#22366C"/>
<path d="M1761.78 106.466C1761.36 106.466 1761.01 106.122 1761.01 105.696V98.8257C1761.01 98.3983 1761.36 98.0529 1761.78 98.0529C1762.21 98.0529 1762.55 98.3983 1762.55 98.8257V105.696C1762.55 106.122 1762.21 106.466 1761.78 106.466Z" fill="#22366C"/>
<path d="M1753.98 106.466C1753.55 106.466 1753.21 106.122 1753.21 105.696V98.8257C1753.21 98.3983 1753.55 98.0529 1753.98 98.0529C1754.4 98.0529 1754.75 98.3983 1754.75 98.8257V105.696C1754.75 106.122 1754.4 106.466 1753.98 106.466Z" fill="#22366C"/>
<path d="M1747.1 75.6645H1812.01V71.1846H1747.1V75.6645ZM1812.79 77.2075H1746.33C1745.9 77.2075 1745.56 76.862 1745.56 76.4356V70.4145C1745.56 69.9871 1745.9 69.6417 1746.33 69.6417H1812.79C1813.21 69.6417 1813.56 69.9871 1813.56 70.4145V76.4356C1813.56 76.862 1813.21 77.2075 1812.79 77.2075Z" fill="#22366C"/>
<path d="M1797.18 187.688C1796.75 187.688 1796.4 187.345 1796.4 186.917V114.032H1761.63V186.917C1761.63 187.345 1761.28 187.688 1760.85 187.688C1760.43 187.688 1760.08 187.345 1760.08 186.917V113.263C1760.08 112.835 1760.43 112.491 1760.85 112.491H1797.18C1797.6 112.491 1797.95 112.835 1797.95 113.263V186.917C1797.95 187.345 1797.6 187.688 1797.18 187.688Z" fill="#22366C"/>
<path d="M1746.33 108.551C1745.9 108.551 1745.56 108.206 1745.56 107.78V97.2036C1745.56 96.7772 1745.9 96.4308 1746.33 96.4308C1746.75 96.4308 1747.1 96.7772 1747.1 97.2036V107.78C1747.1 108.206 1746.75 108.551 1746.33 108.551Z" fill="#22366C"/>
<path d="M1812.55 106.853C1812.13 106.853 1811.78 106.509 1811.78 106.082V99.2122C1811.78 98.7857 1812.13 98.4402 1812.55 98.4402C1812.98 98.4402 1813.33 98.7857 1813.33 99.2122V106.082C1813.33 106.509 1812.98 106.853 1812.55 106.853Z" fill="#22366C"/>
<path d="M1805.44 106.93C1805.02 106.93 1804.67 106.585 1804.67 106.158V99.3659C1804.67 98.9394 1805.02 98.5948 1805.44 98.5948C1805.87 98.5948 1806.22 98.9394 1806.22 99.3659V106.158C1806.22 106.585 1805.87 106.93 1805.44 106.93Z" fill="#22366C"/>
<path d="M1790.84 187.688C1790.41 187.688 1790.07 187.345 1790.07 186.917V135.652C1790.07 127.309 1785.11 120.519 1779.02 120.519C1772.92 120.519 1767.96 127.309 1767.96 135.652V186.917C1767.96 187.345 1767.62 187.688 1767.19 187.688C1766.76 187.688 1766.42 187.345 1766.42 186.917V135.652C1766.42 126.456 1772.07 118.976 1779.02 118.976C1785.96 118.976 1791.61 126.456 1791.61 135.652V186.917C1791.61 187.345 1791.26 187.688 1790.84 187.688Z" fill="#22366C"/>
<path d="M1742.15 76.049C1741.73 76.049 1741.38 75.7027 1741.38 75.2752V19.1474C1741.38 12.2007 1738.34 6.33058 1734.73 6.33058C1731.09 6.33058 1728.01 12.2007 1728.01 19.1474V75.2752C1728.01 75.7027 1727.67 76.049 1727.24 76.049C1726.81 76.049 1726.47 75.7027 1726.47 75.2752V19.1474C1726.47 11.2286 1730.18 4.78668 1734.73 4.78668C1739.33 4.78668 1742.93 11.0945 1742.93 19.1474V75.2752C1742.93 75.7027 1742.58 76.049 1742.15 76.049Z" fill="#22366C"/>
<path d="M1742.08 18.8392H1727.55C1727.12 18.8392 1726.78 18.4937 1726.78 18.0663C1726.78 17.6398 1727.12 17.2944 1727.55 17.2944H1742.08C1742.5 17.2944 1742.85 17.6398 1742.85 18.0663C1742.85 18.4937 1742.5 18.8392 1742.08 18.8392Z" fill="#22366C"/>
<path d="M1734.97 5.71417C1734.54 5.71417 1734.2 5.36777 1734.2 4.94129V0.771465C1734.2 0.344984 1734.54 -0.000488281 1734.97 -0.000488281C1735.39 -0.000488281 1735.74 0.344984 1735.74 0.771465V4.94129C1735.74 5.36777 1735.39 5.71417 1734.97 5.71417Z" fill="#22366C"/>
<path d="M1738.06 42.0005C1737.63 42.0005 1737.29 41.6559 1737.29 41.2285V26.8678C1737.29 24.8258 1736.14 23.1627 1734.73 23.1627C1733.31 23.1627 1732.11 24.8593 1732.11 26.8678V41.2285C1732.11 41.6559 1731.76 42.0005 1731.34 42.0005C1730.91 42.0005 1730.56 41.6559 1730.56 41.2285V26.8678C1730.56 23.9728 1732.43 21.6188 1734.73 21.6188C1737.03 21.6188 1738.83 23.9244 1738.83 26.8678V41.2285C1738.83 41.6559 1738.48 42.0005 1738.06 42.0005Z" fill="#22366C"/>
<path d="M1654.29 42.0004C1653.86 42.0004 1653.52 41.6559 1653.52 41.2285V31.7323C1653.52 31.3058 1653.86 30.9603 1654.29 30.9603C1654.72 30.9603 1655.06 31.3058 1655.06 31.7323V41.2285C1655.06 41.6559 1654.72 42.0004 1654.29 42.0004Z" fill="#22366C"/>
<path d="M1661.48 42.2332C1661.05 42.2332 1660.71 41.8877 1660.71 41.4603V31.8859C1660.71 31.4594 1661.05 31.113 1661.48 31.113C1661.91 31.113 1662.25 31.4594 1662.25 31.8859V41.4603C1662.25 41.8877 1661.91 42.2332 1661.48 42.2332Z" fill="#22366C"/>
<path d="M1668.97 42.3868C1668.55 42.3868 1668.2 42.0414 1668.2 41.614V32.1178C1668.2 31.6904 1668.55 31.3458 1668.97 31.3458C1669.4 31.3458 1669.74 31.6904 1669.74 32.1178V41.614C1669.74 42.0414 1669.4 42.3868 1668.97 42.3868Z" fill="#22366C"/>
<path d="M1676.08 42.6187C1675.66 42.6187 1675.31 42.2723 1675.31 41.8468V32.2724C1675.31 31.8468 1675.66 31.5004 1676.08 31.5004C1676.51 31.5004 1676.86 31.8468 1676.86 32.2724V41.8468C1676.86 42.2723 1676.51 42.6187 1676.08 42.6187Z" fill="#22366C"/>
<path d="M1683.65 42.3105C1683.23 42.3105 1682.88 41.9641 1682.88 41.5376V31.9642C1682.88 31.5386 1683.23 31.1922 1683.65 31.1922C1684.08 31.1922 1684.43 31.5386 1684.43 31.9642V41.5376C1684.43 41.9641 1684.08 42.3105 1683.65 42.3105Z" fill="#22366C"/>
<path d="M1690.77 42.4642C1690.34 42.4642 1689.99 42.1178 1689.99 41.6913V32.196C1689.99 31.7695 1690.34 31.4241 1690.77 31.4241C1691.19 31.4241 1691.54 31.7695 1691.54 32.196V41.6913C1691.54 42.1178 1691.19 42.4642 1690.77 42.4642Z" fill="#22366C"/>
<path d="M1698.34 42.3105C1697.91 42.3105 1697.57 41.9641 1697.57 41.5376V32.0405C1697.57 31.614 1697.91 31.2686 1698.34 31.2686C1698.77 31.2686 1699.11 31.614 1699.11 32.0405V41.5376C1699.11 41.9641 1698.77 42.3105 1698.34 42.3105Z" fill="#22366C"/>
<path d="M1705.45 42.5424C1705.02 42.5424 1704.68 42.196 1704.68 41.7695V32.196C1704.68 31.7695 1705.02 31.4241 1705.45 31.4241C1705.88 31.4241 1706.22 31.7695 1706.22 32.196V41.7695C1706.22 42.196 1705.88 42.5424 1705.45 42.5424Z" fill="#22366C"/>
<path d="M1713.02 42.0777C1712.59 42.0777 1712.25 41.7322 1712.25 41.3057V31.8096C1712.25 31.3821 1712.59 31.0367 1713.02 31.0367C1713.45 31.0367 1713.79 31.3821 1713.79 31.8096V41.3057C1713.79 41.7322 1713.45 42.0777 1713.02 42.0777Z" fill="#22366C"/>
<path d="M1720.13 42.3105C1719.7 42.3105 1719.36 41.9641 1719.36 41.5376V31.9642C1719.36 31.5386 1719.7 31.1922 1720.13 31.1922C1720.56 31.1922 1720.9 31.5386 1720.9 31.9642V41.5376C1720.9 41.9641 1720.56 42.3105 1720.13 42.3105Z" fill="#22366C"/>
<path d="M1653.75 148.313H1628.79C1628.36 148.313 1628.02 147.969 1628.02 147.541C1628.02 147.115 1628.36 146.77 1628.79 146.77H1653.75C1654.18 146.77 1654.52 147.115 1654.52 147.541C1654.52 147.969 1654.18 148.313 1653.75 148.313Z" fill="#22366C"/>
<path d="M1746.63 149.395H1721.75C1721.33 149.395 1720.98 149.051 1720.98 148.623C1720.98 148.196 1721.33 147.852 1721.75 147.852H1746.63C1747.06 147.852 1747.41 148.196 1747.41 148.623C1747.41 149.051 1747.06 149.395 1746.63 149.395Z" fill="#22366C"/>
<path d="M1653.75 123.374H1628.79C1628.36 123.374 1628.02 123.03 1628.02 122.604C1628.02 122.178 1628.36 121.832 1628.79 121.832H1653.75C1654.18 121.832 1654.52 122.178 1654.52 122.604C1654.52 123.03 1654.18 123.374 1653.75 123.374Z" fill="#22366C"/>
<path d="M1746.63 124.535H1721.75C1721.33 124.535 1720.98 124.19 1720.98 123.764C1720.98 123.337 1721.33 122.993 1721.75 122.993H1746.63C1747.06 122.993 1747.41 123.337 1747.41 123.764C1747.41 124.19 1747.06 124.535 1746.63 124.535Z" fill="#22366C"/>
</svg>
