<svg width="72" height="73" viewBox="0 0 72 73" fill="none" xmlns="http://www.w3.org/2000/svg">
<rect y="-0.000488281" width="72" height="73" rx="4" fill="white"/>
<path d="M7 45.2656V46.6406V66.0088H18.7412V45.2656H7Z" fill="#22366C"/>
<path d="M22.5386 39.7334V41.1084V66.0088H34.2744V39.7334H22.5386ZM25.2886 42.4834H31.5244V63.2588H25.2886V42.4834Z" fill="#059345"/>
<path d="M37.8193 32.8101V34.1851V66.0088H49.5552V32.8101H37.8193Z" fill="#22366C"/>
<path d="M53.2236 27.2778V28.6528V66.0088H64.9648V27.2778H53.2236ZM55.9736 30.0278H62.2148V63.2588H55.9736V30.0278Z" fill="#059345"/>
<path d="M20.8467 7.99023C13.2739 7.99023 7.10742 14.1569 7.10742 21.7295C7.10742 29.3021 13.2739 35.4741 20.8467 35.4741C28.4195 35.4741 34.5913 29.3021 34.5913 21.7295C34.5913 14.1569 28.4195 7.99023 20.8467 7.99023Z" fill="#22366C"/>
<path d="M23.4548 18.1995V18.5395H26.0348V19.8595H23.3548C23.2348 20.7795 22.9681 21.4995 22.5548 22.0195C22.1548 22.5395 21.5681 22.9128 20.7948 23.1395C20.0348 23.3662 19.0214 23.4795 17.7548 23.4795V25.0595C17.7548 26.8595 18.5414 27.7595 20.1148 27.7595C21.6614 27.7595 22.4348 26.8928 22.4348 25.1595H24.1148C24.1014 26.4928 23.7481 27.4995 23.0548 28.1795C22.3614 28.8595 21.3748 29.1995 20.0948 29.1995C18.7748 29.1995 17.7681 28.8328 17.0748 28.0995C16.3948 27.3662 16.0548 26.3395 16.0548 25.0195V22.1995C17.5748 22.1995 18.6948 22.1528 19.4148 22.0595C20.1481 21.9528 20.6814 21.7395 21.0148 21.4195C21.3481 21.0862 21.5614 20.5662 21.6548 19.8595H15.1548V18.5395H21.7348V18.1795V16.3795H15.1548V15.0395H26.0348V16.3795H23.4548V18.1995Z" fill="#F7F7F7"/>
</svg>
