<svg width="72" height="73" viewBox="0 0 72 73" fill="none" xmlns="http://www.w3.org/2000/svg">
<rect y="-0.000488281" width="72" height="73" rx="4" fill="white"/>
<path d="M29.9855 21.136L29.9856 21.136C30.4952 21.5063 30.8744 22.0284 31.069 22.6275C31.2635 23.2265 31.2635 23.8716 31.0689 24.4706C31.0688 24.4707 31.0688 24.4708 31.0688 24.4709L29.9414 27.9432L29.9413 27.9433C29.8772 28.1406 29.8773 28.3532 29.9414 28.5506C30.0055 28.7479 30.1305 28.9199 30.2984 29.0419C30.4663 29.1638 30.6684 29.2295 30.876 29.2295C31.0834 29.2295 31.2856 29.1639 31.4535 29.0419L29.9855 21.136ZM29.9855 21.136L27.0318 18.9899C26.8639 18.8679 26.7389 18.6959 26.6748 18.4985C26.6107 18.3011 26.6107 18.0885 26.6748 17.8912C26.7389 17.6938 26.8639 17.5218 27.0318 17.3998C27.1997 17.2779 27.4019 17.2122 27.6094 17.2122H27.6095H31.2601C31.2602 17.2122 31.2602 17.2122 31.2603 17.2122C31.8902 17.2122 32.5039 17.0129 33.0136 16.6427C33.5233 16.2725 33.9027 15.7504 34.0974 15.1513L34.0974 15.1512L35.2258 11.6786L35.2258 11.6785C35.2899 11.4812 35.4149 11.3092 35.5828 11.1872C35.7507 11.0652 35.9528 10.9995 36.1604 10.9995C36.3679 10.9995 36.5701 11.0652 36.7379 11.1872C36.9058 11.3092 37.0308 11.4812 37.0949 11.6785L37.0949 11.6787L38.2235 15.1513L38.2235 15.1513C38.4183 15.7503 38.7976 16.2723 39.3071 16.6425C39.8167 17.0127 40.4303 17.2121 41.0601 17.2122H41.0603H44.7107C44.9182 17.2122 45.1204 17.2779 45.2883 17.3998C45.4562 17.5218 45.5812 17.6938 45.6453 17.8912C45.7094 18.0885 45.7094 18.3011 45.6453 18.4985C45.5812 18.6959 45.4562 18.8679 45.2883 18.9899L42.3345 21.1359L42.3343 21.136C41.8248 21.5063 41.4456 22.0284 41.251 22.6275C41.0565 23.2266 41.0565 23.8718 41.2512 24.4709L41.2512 24.4709L42.38 27.9433C42.4441 28.1406 42.444 28.3532 42.3799 28.5506C42.3158 28.7479 42.1908 28.9199 42.0229 29.0419C41.8551 29.1638 41.6529 29.2295 41.4454 29.2295C41.2378 29.2295 41.0357 29.1639 40.8678 29.0419L37.9138 26.8959C37.9138 26.8959 37.9137 26.8958 37.9137 26.8958C37.4042 26.5256 36.7905 26.3262 36.1607 26.3262C35.5308 26.3262 34.9171 26.5256 34.4076 26.8958C34.4076 26.8958 34.4075 26.8959 34.4075 26.8959L31.4535 29.0419L29.9855 21.136Z" stroke="#059345" stroke-width="2"/>
<path d="M41.5988 50.5743C41.388 50.4837 41.2083 50.3332 41.0821 50.1415C40.9559 49.9497 40.8887 49.7253 40.8888 49.4957C40.8873 49.3317 40.9195 49.1692 40.9835 49.0182C41.0474 48.8671 41.1418 48.7309 41.2606 48.6178C41.3331 48.5487 41.4025 48.4806 41.4545 48.4258C41.8222 48.0387 42.1466 47.6126 42.422 47.1551C43.1463 45.9465 43.5053 44.554 43.4558 43.1458C43.4063 41.7376 42.9503 40.3738 42.1429 39.219C41.3355 38.0642 40.2112 37.1677 38.9056 36.6377C37.6 36.1077 36.1689 35.9668 34.785 36.232C33.3748 36.479 32.0715 37.1445 31.0445 38.1421C30.0176 39.1397 29.3147 40.4232 29.027 41.8257C28.7611 43.0334 28.8064 44.2887 29.1585 45.4741C29.5106 46.6594 30.1581 47.7359 31.0401 48.6025C31.1598 48.716 31.2556 48.8522 31.3219 49.0032C31.3882 49.1542 31.4237 49.3169 31.4263 49.4818V49.4879C31.4284 49.7193 31.3622 49.9462 31.2359 50.1401C31.1096 50.3341 30.9288 50.4864 30.7163 50.5779C27.8074 51.7829 25.4877 54.0815 24.2563 56.9793C23.3906 58.9639 22.9564 61.1097 22.9823 63.2746V64.8346C22.9823 65.1692 23.0482 65.5004 23.1763 65.8095C23.3043 66.1186 23.492 66.3994 23.7286 66.6359C23.9652 66.8724 24.246 67.06 24.5552 67.188C24.8643 67.3159 25.1956 67.3817 25.5301 67.3816H46.7911C47.4665 67.3816 48.1143 67.1132 48.5918 66.6356C49.0694 66.158 49.3377 65.5103 49.3377 64.8348V63.2591C49.3636 61.095 48.9286 58.9502 48.0616 56.9671C46.8279 54.0719 44.5073 51.7764 41.5988 50.5743Z" fill="#22366C"/>
<path d="M65.0422 53.4493C63.8088 50.5542 61.4884 48.2587 58.5801 47.0566C58.3694 46.9658 58.1898 46.8153 58.0636 46.6236C57.9374 46.4319 57.8702 46.2075 57.8701 45.978C57.8687 45.814 57.9009 45.6514 57.9649 45.5004C58.0289 45.3493 58.1232 45.2131 58.242 45.1C58.3145 45.0308 58.3841 44.9628 58.4358 44.9079C58.8036 44.521 59.1281 44.0952 59.4034 43.6379C60.1278 42.4292 60.4869 41.0368 60.4375 39.6285C60.388 38.2203 59.9321 36.8565 59.1247 35.7016C58.3173 34.5468 57.1929 33.6502 55.8873 33.1202C54.5817 32.5902 53.1505 32.4494 51.7666 32.7147C50.3564 32.9616 49.053 33.6271 48.0261 34.6247C46.9992 35.6223 46.2962 36.9059 46.0086 38.3084C45.7427 39.516 45.788 40.7714 46.14 41.9567C46.4921 43.1421 47.1395 44.2185 48.0215 45.0852C48.1413 45.1986 48.2371 45.3348 48.3034 45.4858C48.3697 45.6368 48.4052 45.7995 48.4077 45.9644V45.9707C48.41 46.2021 48.3437 46.429 48.2174 46.623C48.0911 46.8169 47.9103 46.9692 47.6977 47.0607C46.536 47.5366 45.4574 48.1944 44.5024 49.0094C47.1818 50.598 49.2889 52.9946 50.5212 55.8553C51.5497 58.187 52.0667 60.712 52.0373 63.2603V63.8646H63.7717C64.4472 63.8646 65.0949 63.5963 65.5725 63.1187C66.0501 62.6411 66.3185 61.9934 66.3185 61.318V59.7414C66.3444 57.5772 65.9093 55.4323 65.0422 53.4493Z" fill="#22366C"/>
<path d="M27.8203 49.0086C26.8635 48.1917 25.7823 47.5327 24.6177 47.0566C24.4069 46.9658 24.2273 46.8153 24.1011 46.6236C23.975 46.4319 23.9077 46.2074 23.9077 45.9779C23.9062 45.8139 23.9385 45.6513 24.0025 45.5003C24.0665 45.3493 24.1609 45.213 24.2798 45.0999C24.352 45.0308 24.4216 44.9627 24.4736 44.9078C24.8412 44.5209 25.1656 44.0951 25.4409 43.6378C26.1653 42.4292 26.5245 41.0367 26.475 39.6285C26.4256 38.2202 25.9697 36.8564 25.1623 35.7015C24.3549 34.5467 23.2305 33.6501 21.9249 33.1201C20.6192 32.5901 19.1881 32.4493 17.8042 32.7147C16.3939 32.9616 15.0906 33.6271 14.0637 34.6247C13.0367 35.6223 12.3337 36.9058 12.0461 38.3084C11.7803 39.516 11.8255 40.7713 12.1776 41.9567C12.5297 43.142 13.1771 44.2185 14.0591 45.0851C14.1788 45.1986 14.2747 45.3348 14.341 45.4857C14.4073 45.6367 14.4428 45.7995 14.4453 45.9643V45.9707C14.4475 46.2021 14.3813 46.429 14.2549 46.6229C14.1286 46.8168 13.9478 46.9691 13.7353 47.0607C10.8264 48.2656 8.50676 50.5642 7.27529 53.462C6.40955 55.4465 5.97523 57.5923 6.00109 59.7572V61.3179C6.00108 61.6524 6.06694 61.9835 6.19491 62.2925C6.32289 62.6015 6.51047 62.8822 6.74694 63.1187C6.98342 63.3552 7.26416 63.5428 7.57313 63.6707C7.88211 63.7987 8.21326 63.8646 8.54769 63.8645H20.2831V63.2753C20.2539 60.7271 20.7697 58.2021 21.7958 55.8695C23.0272 53.0025 25.1366 50.6003 27.8203 49.0086Z" fill="#22366C"/>
</svg>
