<svg width="222" height="442" viewBox="0 0 222 442" fill="none" xmlns="http://www.w3.org/2000/svg">
<g opacity="0.5">
<path fill-rule="evenodd" clip-rule="evenodd" d="M29.2041 36.2364C24.0113 39.171 18.7955 42.0772 13.7295 45.2209C5.91154 50.0751 2.0141 57.476 0.864853 66.3964C0.538132 68.9324 0.80719 71.5476 0.857147 74.1252C0.864838 74.3831 1.21846 74.7855 1.48752 74.8597C2.73671 75.2095 4.01666 75.4678 5.20819 75.741C5.46187 73.4721 5.57332 71.3032 5.96538 69.1876C7.50284 60.9276 11.5809 54.2893 18.2996 49.0896C25.1106 43.8145 32.5903 39.6976 40.0893 35.5738C43.4025 33.7507 46.7811 32.0472 50.0943 30.2226C50.9898 29.7295 51.405 29.8329 51.9469 30.7281C54.2916 34.584 56.8207 38.3277 59.1 42.2202C62.1441 47.4241 65.2267 52.6257 67.9057 58.0191C70.4771 63.1923 72.5681 68.6364 72.6834 74.5314C72.7295 76.8987 72.2645 79.2941 71.857 81.6472C71.5342 83.5294 71.096 85.4209 70.4387 87.2097C69.7853 88.9886 68.7936 90.644 67.8558 92.5501C69.4009 93.0121 70.7193 93.4068 72.1376 93.8308C74.2593 89.6435 77.2231 85.9336 78.3205 81.1225C79.8276 74.5153 79.1492 68.2863 76.1158 62.3575C73.8673 57.9665 71.269 53.75 68.7629 49.4939C65.123 43.3068 61.3985 37.1677 57.7585 30.9794C56.1211 28.1947 54.599 25.3408 53.1884 22.8148C45.2744 27.2396 37.2181 31.7044 29.2041 36.2364ZM9.32857 73.9726C9.73984 76.0555 10.5816 77.724 12.6879 78.7502C18.5149 81.5853 23.3194 85.6054 26.5865 91.8332C26.6826 91.0676 26.7941 90.7051 26.7633 90.355C26.5865 88.3859 26.3482 86.4218 26.183 84.4515C25.9254 81.4116 24.8531 78.6791 22.9312 76.3491C18.5264 71.0149 14.7981 65.299 12.4957 58.5661C10.3587 63.5621 8.23697 68.4312 9.32857 73.9726ZM27.4667 64.6148C25.887 60.2035 24.5302 55.7091 23.158 51.2251C22.8505 50.2108 22.9005 49.0869 22.7506 47.6732C20.4636 49.5535 18.292 51.3558 16.1049 53.1392C13.3375 55.3939 13.8833 58.425 15.1479 60.8208C17.6693 65.5865 20.7826 70.039 23.6846 74.5995C24.6532 76.1173 25.7217 77.5695 26.7979 79.1269C29.7306 74.3912 29.2502 69.5835 27.4667 64.6148ZM29.6499 97.2101C30.115 99.8023 30.6262 102.387 31.099 104.882C34.0663 101.32 37.2488 97.7209 40.1777 93.9273C44.079 88.8733 45.6011 83.2046 43.5447 76.9533C43.1027 75.6165 42.2341 74.365 41.3423 73.25C40.5198 72.2245 39.3859 71.8059 37.9599 72.3694C32.3981 74.5687 29.7921 78.9701 28.6698 84.543C27.8011 88.8621 28.8927 93.0225 29.6499 97.2101ZM25.5103 134.534C28.4315 134.283 30.3879 132.515 31.5487 129.976C32.179 128.595 32.3443 127.002 32.721 125.506C32.4596 120.394 28.6083 117.234 23.5923 118.22C21.167 118.695 20.1484 120.761 19.126 122.634C17.6308 125.387 17.4694 128.335 19.053 131.103C20.4367 133.519 22.6622 134.779 25.5103 134.534ZM22.716 110.306C19.2874 110.775 15.8589 111.576 12.5764 112.661C9.07487 113.818 6.87248 116.585 4.80844 119.631C1.68739 124.236 1.25688 129.381 0.895584 134.608C0.876358 134.929 1.5298 135.474 1.97182 135.624C6.57651 137.188 11.1005 138.94 14.0716 143.066C15.3938 144.904 16.3163 147.028 17.5232 149.206C18.5033 145.885 19.4643 142.631 20.4213 139.376C20.5559 138.914 20.602 138.41 20.8134 137.989C21.5322 136.567 21.4015 135.624 19.914 134.594C15.1748 131.314 14.3176 122.834 19.0376 118.146C23.3656 113.845 30.4264 115.153 33.2207 119.067C35.8344 122.729 36.5646 128.168 32.425 132.571C30.5263 134.588 28.3777 135.999 25.5757 136.238C24.2342 136.352 23.7422 137.044 23.4501 138.369C22.6084 142.233 21.5514 146.051 20.529 150.071C22.7698 148.747 24.6801 147.477 26.7134 146.448C30.0266 144.771 33.6012 144.987 37.1642 145.336C37.2834 145.348 37.391 145.411 37.5102 145.436C42.1956 146.411 42.1956 146.411 44.1904 141.984C46.439 136.997 47.0809 131.874 45.8817 126.471C44.9438 122.241 42.1802 119.371 39.1745 116.642C37.8446 115.433 36.3302 114.422 34.8734 113.356C31.2373 110.693 27.0862 109.708 22.716 110.306ZM1.88727 168.873C0.353653 172.868 0.411316 172.89 4.63548 174.321C5.57718 172.365 6.34972 170.323 7.47975 168.502C9.37083 165.461 11.9422 164.766 15.6552 165.977C18.0959 166.773 19.6795 169.179 19.6103 172.224C19.5642 174.253 19.3336 176.278 19.1875 178.304C20.4636 178.499 21.7051 178.689 23.1849 178.916C24.1458 176.404 24.9491 173.754 24.2611 171.01C23.2656 167.062 21.5398 163.62 17.3964 161.873C10.4432 158.938 3.82831 163.811 1.88727 168.873ZM7.51822 177.353C8.76741 179.411 9.21709 181.957 10.0319 184.335C11.3811 181.614 13.7411 179.696 16.7314 178.516C16.9313 178.437 17.1658 178.209 17.2157 178.009C17.8884 175.273 18.6687 172.528 17.4617 169.741C16.6085 167.769 14.875 167.064 12.9339 167.002C11.0428 166.942 9.65141 168.066 8.68282 169.613C8.1447 170.472 7.86412 171.491 7.37981 172.388C6.45349 174.09 6.3882 175.496 7.51822 177.353ZM7.29526 188.395C3.62459 188.974 0.622696 192.864 0.81488 196.64C0.834091 196.978 0.91481 197.473 1.14159 197.615C3.52464 199.105 3.70528 201.702 4.49323 204.137C6.33049 202.377 7.69504 200.21 10.4932 200.218C10.7469 200.218 11.0467 199.792 11.2427 199.507C13.4528 196.247 12.7648 191.209 9.68216 188.875C9.09407 188.428 8.06015 188.275 7.29526 188.395ZM1.13388 243.821C0.91095 243.965 0.837952 244.462 0.822571 244.801C0.630386 248.561 3.64766 252.434 7.30681 253.065C9.40544 253.428 10.4509 251.88 11.4233 250.463C13.0415 248.104 12.8455 244.032 11.1159 241.762C10.9429 241.536 10.7354 241.271 10.4894 241.178C6.9532 239.864 6.94933 239.871 4.49323 237.298C3.71297 239.739 3.49004 242.316 1.13388 243.821ZM6.61493 265.554C6.45734 265.729 6.43814 266.174 6.54193 266.41C7.51053 268.582 8.22543 270.951 9.6053 272.833C10.9544 274.675 13.1722 274.926 15.3285 273.838C17.2619 272.864 18.0806 271.193 18.0267 269.113C17.9845 267.618 17.7923 266.124 17.5963 264.638C17.4579 263.595 16.9352 263.036 15.8743 262.439C13.9909 261.38 12.4419 259.716 10.7968 258.257C10.3817 257.887 10.1242 257.338 9.5246 256.491C9.51691 260.125 8.81349 263.099 6.61493 265.554ZM4.59317 267.026C4.24339 267.187 3.76682 267.413 3.28636 267.623C0.661148 268.766 0.845642 268.72 1.54518 271.638C2.63293 276.184 9.01338 281.133 13.6949 280.424C17.062 279.914 20.0524 278.834 22.0126 275.797C24.7839 271.499 25.1797 267.382 23.1388 262.504C21.7358 262.71 20.4406 262.901 19.176 263.087C19.3259 265.167 19.5604 267.244 19.6103 269.325C19.6795 272.291 17.9806 274.756 15.5322 275.474C11.8077 276.566 9.2709 275.866 7.49515 272.954C6.37665 271.121 5.58867 269.087 4.59317 267.026ZM18.2574 312.315C17.5309 316.078 19.2567 320.89 21.9473 322.5C24.7185 324.163 27.3361 322.908 29.8498 321.845C32.4981 320.724 32.4673 318.209 32.4596 315.812C32.4558 311.444 30.1611 308.037 26.5789 307.083C22.9197 306.109 18.9761 308.589 18.2574 312.315ZM1.98337 305.829C1.54518 305.973 0.887894 306.499 0.903275 306.819C1.01089 308.915 1.27612 311.003 1.48752 313.094C1.96028 317.799 4.4433 321.557 7.26068 325.121C9.17097 327.537 11.9077 328.829 14.7712 329.594C17.6501 330.364 20.6404 330.814 23.6116 331.153C28.5814 331.721 32.8248 329.812 36.653 326.835C39.9048 324.309 43.1027 321.676 44.8439 317.821C45.5972 316.154 46.1276 314.312 46.3583 312.498C47.127 306.496 45.3704 301.034 42.307 295.952C42.0687 295.556 41.1155 295.401 40.5159 295.446C37.5525 295.664 34.5929 296.215 31.6294 296.214C28.3431 296.212 25.4834 294.672 22.8466 292.774C22.174 292.289 21.4937 291.809 20.5059 291.103C21.6205 295.655 22.593 299.86 23.7346 304.02C23.8729 304.523 24.8723 305.007 25.5334 305.113C30.411 305.891 33.7396 308.728 34.8273 313.358C36.3302 319.767 32.9478 325.969 25.003 325.814C20.2599 325.72 17.8884 322.727 16.4278 319.204C14.9595 315.66 15.5745 311.823 18.0921 308.594C18.461 308.121 18.7763 307.478 19.2721 307.257C21.6552 306.194 21.2938 304.605 20.5904 302.58C19.4335 299.241 18.5918 295.791 17.4771 291.892C17.0581 292.846 16.7929 293.396 16.5738 293.965C13.9871 300.724 8.36766 303.732 1.98337 305.829ZM32.9478 365.513C34.343 366.847 36.038 367.9 37.6985 368.912C39.259 369.862 40.6235 369.196 41.6344 367.866C44.4057 364.223 44.9399 360.09 44.0905 355.714C43.1834 351.046 40.3276 347.441 37.4179 343.904C35.3347 341.372 33.1015 338.965 31.0836 336.667C30.2226 341.222 29.0157 345.995 28.493 350.841C27.9126 356.237 28.7582 361.495 32.9478 365.513ZM18.8877 373.566C16.7776 376.833 14.652 380.127 14.3176 384.244C14.1869 385.862 14.7481 386.873 15.8128 387.815C18.0498 389.786 20.2983 391.743 22.8005 393.934C22.9427 387.707 25.199 382.499 27.2861 377.252C28.6467 373.825 29.3655 370.326 28.6198 366.689C28.3046 365.144 27.5167 363.694 26.9133 362.119C24.1228 366.071 21.3669 369.728 18.8877 373.566ZM12.0998 362.98C9.53612 364.236 9.02492 366.932 9.13254 369.352C9.26323 372.371 10.0128 375.38 10.6892 378.352C11.0313 379.847 11.8039 381.242 12.2382 382.318C14.3445 378.521 16.4047 374.55 18.7263 370.739C20.1907 368.333 22.0664 366.18 23.7269 363.892C25.4527 361.518 26.1099 358.821 26.2022 355.912C26.2637 353.961 26.5596 352.017 26.7518 350.07C23.1849 356.002 18.1497 360.018 12.0998 362.98ZM6.0845 372.992C5.68092 370.63 5.48491 368.233 5.18126 365.702C4.10504 365.934 2.87122 366.112 1.71043 366.503C1.32991 366.631 0.922485 367.304 0.899429 367.748C0.795654 369.658 0.591949 371.612 0.868698 373.483C1.32994 376.614 1.90648 379.762 2.84048 382.779C5.03137 389.844 10.2818 394.383 16.3893 397.931C24.7839 402.812 33.336 407.421 41.8074 412.176C45.6318 414.32 49.4178 416.527 53.0308 418.598C55.6445 414.186 58.3658 409.531 61.1486 404.903C65.0307 398.446 69.0473 392.062 72.8333 385.543C75.7122 380.585 78.2636 375.453 79.0028 369.629C79.4763 365.901 79.0681 362.222 77.7451 358.793C76.2618 354.953 74.2516 351.318 72.4336 347.508C70.6962 348.024 69.374 348.416 67.9365 348.843C68.071 349.28 68.0902 349.73 68.317 350.015C70.9076 353.275 71.392 357.314 72.2452 361.147C73.5252 366.9 72.3029 372.464 70.2235 377.894C66.5028 387.592 60.8296 396.221 55.5061 405.042C54.3607 406.941 53.0962 408.766 51.9546 410.673C51.4703 411.48 51.1359 411.772 50.1442 411.222C45.724 408.778 41.177 406.56 36.7953 404.046C31.6217 401.083 26.4212 398.116 21.5091 394.748C17.2426 391.82 13.1222 388.514 10.4547 383.944C9.10945 381.646 8.30231 379.032 7.29912 376.545C6.83018 375.384 6.29591 374.21 6.0845 372.992ZM109.648 410.404C113.247 396.086 116.791 381.988 120.39 367.671C117.361 367.671 114.785 367.619 112.214 367.719C111.76 367.737 111.036 368.318 110.933 368.756C108.668 378.348 106.454 387.953 104.28 397.566C103.731 399.991 103.657 400.103 101.207 399.342C92.9929 396.793 84.7813 394.233 76.5616 391.697C75.3009 391.308 74.0172 390.836 72.7218 390.747C72.0876 390.705 71.1575 391.301 70.7808 391.881C69.5662 393.745 68.5476 395.736 67.26 398.027C81.1514 403.024 95.4105 406.256 109.648 410.404ZM80.7712 368.889C80.7958 369.182 81.0683 369.583 81.3324 369.706C83.386 370.665 85.4662 371.569 87.7982 372.605C88.0173 370.293 88.1687 368.431 88.3797 366.576C88.5081 365.445 88.1141 364.814 87.1059 364.149C84.8585 362.666 82.7895 360.913 80.6409 359.279C80.4141 359.106 80.142 358.993 80.0106 358.919C80.2573 362.248 80.4906 365.571 80.7712 368.889ZM77.3842 380.65C76.0043 383.202 74.5015 385.977 72.9179 388.902C82.8226 391.927 92.5666 394.91 102.355 397.9C104.66 387.934 106.945 378.056 109.268 368.009C105.975 367.839 102.923 367.682 99.818 367.522C99.0174 372.347 98.2237 377.198 97.4007 382.041C97.2201 383.106 96.8196 384.148 96.7281 385.216C96.5828 386.911 95.7964 387.269 94.3001 386.727C88.7506 384.717 83.1923 382.733 77.3842 380.65ZM95.0239 385.366C95.6596 382.107 96.2796 379.136 96.8085 376.149C97.2063 373.9 97.4357 371.622 97.8378 369.376C98.0792 368.027 98.0111 367.269 96.2911 367.103C94.2759 366.91 92.3045 366.267 90.2973 365.815C89.8238 368.679 89.3698 371.426 88.8636 374.489C87.1413 373.89 85.8402 373.485 84.5757 372.987C83.2915 372.48 82.0438 371.881 80.6617 371.271C79.8334 373.828 79.0289 376.311 78.1402 379.051C83.6685 381.119 89.1784 383.179 95.0239 385.366ZM121.922 365.805C128.201 365.72 134.479 365.569 140.758 365.521C142.234 365.509 143.712 365.8 145.119 365.945C145.119 358.403 145.047 350.884 145.146 343.368C145.205 338.814 145.845 334.251 145.654 329.716C145.374 323.016 145.818 316.099 142.734 309.857C140.157 304.641 136.575 300.199 131.158 297.538C129.376 296.663 127.7 295.57 126.131 294.665C125.024 295.674 123.952 296.649 122.8 297.699C124.811 299.11 126.915 300.235 128.577 301.822C133.089 306.13 137.027 310.814 138.512 317.189C140.078 323.909 140.611 330.689 140.541 337.547C140.476 344.08 140.378 350.614 140.264 357.147C140.248 358.043 140.118 358.95 139.916 359.822C139.844 360.133 139.439 360.517 139.122 360.59C138.365 360.764 137.57 360.83 136.789 360.84C128.511 360.949 120.231 361.168 111.954 361.093C105.398 361.033 98.889 360.25 92.7211 357.846C89.3875 356.548 86.3791 354.678 84.0552 351.821C83.2008 350.77 81.8859 350.094 81.0299 349.044C79.6354 347.332 78.4458 345.454 77.024 343.44C75.989 344.624 75.0742 345.67 73.8634 347.056C75.9966 350.202 78.0507 353.912 80.7581 357.059C84.8977 361.871 90.3042 364.723 96.707 365.491C102.092 366.136 107.465 366.42 112.896 365.88C115.877 365.583 118.912 365.846 121.922 365.805ZM146.599 317.656C146.692 318.045 147.466 318.598 147.844 318.541C153.356 317.71 158.855 316.788 164.791 315.816C162.588 309.921 160.518 304.38 158.44 298.82C155.72 299.68 153.268 300.457 150.74 301.256C151.765 303.864 152.78 306.448 153.995 309.538C150.777 310.041 148.022 310.473 145.248 310.907C145.669 313.091 146.06 315.391 146.599 317.656ZM147.017 341.018C161.269 337.447 175.411 333.903 189.803 330.297C185.649 316.047 182.371 301.828 177.435 287.878C174.771 289.413 172.334 290.817 169.819 292.265C170.472 294.74 170.986 297.018 171.674 299.242C173.99 306.724 176.379 314.183 178.716 321.659C179.551 324.329 179.505 324.268 176.734 324.889C169.877 326.426 163.033 328.032 156.186 329.616C153.611 330.212 151.047 330.859 148.464 331.412C147.507 331.617 146.991 332.001 147.006 333.051C147.042 335.552 147.017 338.053 147.017 341.018ZM165.044 317.25C159.026 318.323 153.02 319.463 147.156 320.554V329.947C157.392 327.594 167.308 325.315 177.287 323.022C174.323 313.32 171.339 303.553 168.297 293.592C165.401 295.141 162.691 296.59 159.908 298.078C161.321 301.766 162.752 305.399 164.103 309.062C164.896 311.212 165.592 313.399 166.274 315.588C166.593 316.613 166.104 317.061 165.044 317.25ZM138.356 300.662C139.373 301.968 140.5 303.363 141.566 304.803C142.316 305.815 143.078 306.839 143.658 307.949C144.103 308.8 144.569 309.234 145.573 309.098C147.572 308.829 149.583 308.638 151.931 308.377C150.913 306.063 150.026 303.978 149.058 301.932C148.933 301.669 148.391 301.502 148.026 301.469C144.818 301.178 141.608 300.928 138.356 300.662ZM179.306 284.854C185.634 281.147 191.886 277.309 197.952 273.66C193.198 265.281 188.278 256.583 183.331 247.901C180.645 243.189 178.081 238.396 175.16 233.833C170.302 226.247 162.921 222.666 154.221 221.551C152.642 221.348 150.99 221.762 149.37 221.803C148.307 221.829 146.592 221.272 146.3 221.717C145.519 222.908 145.348 224.499 144.898 226.058C146.827 226.171 148.567 226.146 150.269 226.392C159.92 227.784 167.449 232.683 172.969 240.614C175.857 244.765 178.517 249.082 181.124 253.418C183.267 256.984 185.198 260.68 187.188 264.337C188.362 266.493 189.522 268.661 190.554 270.885C190.741 271.289 190.462 272.297 190.094 272.516C180.894 277.996 171.771 283.622 162.373 288.746C157.363 291.478 151.817 293.28 145.999 293.396C143.524 293.446 141.043 292.624 138.548 292.347C134.865 291.938 131.582 290.558 128.304 288.298C127.812 289.928 127.4 291.295 126.998 292.627C133.06 297.04 139.617 300.032 147.34 299.777C151.284 299.647 155.019 298.619 158.413 296.777C165.458 292.952 172.387 288.908 179.306 284.854ZM202.195 237.219C207.37 232.224 212.513 227.196 217.698 222.211C218.659 221.287 219.035 220.482 217.926 219.402C213.249 214.844 208.636 210.221 203.927 205.696C198.503 200.485 193.003 195.353 187.363 190.022C185.957 192.535 184.635 194.76 183.483 197.071C183.258 197.524 183.474 198.541 183.857 198.9C190.946 205.538 198.077 212.129 205.232 218.696C207.281 220.577 207.285 220.839 205.214 222.736C200.271 227.262 195.371 231.835 190.452 236.387C188.335 238.345 186.259 240.35 184.076 242.232C183.167 243.016 182.992 243.732 183.566 244.726C184.769 246.812 185.958 248.906 187.4 251.429C192.462 246.57 197.339 241.906 202.195 237.219ZM175.505 220.701C173.438 219.22 171.659 217.911 169.832 216.671C169.564 216.49 169.017 216.502 168.699 216.645C165.65 218.018 162.622 219.437 159.813 220.739C162.774 222.03 166.05 223.458 169.564 224.989C171.303 223.734 173.28 222.307 175.505 220.701ZM190.296 220.722C185.484 216.756 180.926 213 176.271 209.165C174.328 211.33 172.641 213.21 170.892 215.16C172.609 216.532 174.355 217.955 176.131 219.339C177.359 220.298 177.297 221.169 176.102 222.101C174.356 223.462 172.637 224.859 170.891 226.254C172.659 228.226 174.374 230.139 176.261 232.242C180.851 228.475 185.392 224.747 190.296 220.722ZM190.964 222.156C186.389 225.975 181.847 229.833 177.254 233.711C178.859 236.29 180.506 238.938 182.221 241.696C189.722 234.696 197.152 227.764 204.709 220.712C197.242 213.74 189.809 206.799 182.234 199.726C180.572 202.389 178.905 205.059 177.207 207.778C180.848 210.765 184.472 213.724 188.078 216.706C189.193 217.629 190.302 218.567 191.329 219.583C192.289 220.533 191.925 221.355 190.964 222.156ZM191.222 179.607C193.477 175.561 195.799 171.553 197.996 167.695C193.692 165.164 189.08 162.495 184.51 159.754C177.995 155.846 171.574 151.776 164.986 147.994C161.761 146.141 158.291 144.691 154.863 143.22C149.267 140.818 143.493 141.073 137.925 143.057C134.111 144.415 130.572 146.545 126.862 148.354C127.37 150.016 127.801 151.425 128.231 152.831C130.428 151.821 132.418 150.691 134.547 149.968C142.278 147.342 149.908 147.487 157.573 150.612C166.67 154.322 174.958 159.445 183.262 164.572C185.504 165.956 187.688 167.441 189.977 168.741C190.977 169.309 191.077 169.742 190.533 170.713C186.441 178.008 182.368 185.313 178.355 192.652C175.287 198.263 171.444 203.27 166.799 207.64C163.683 210.572 159.978 212.364 155.824 213.582C152.328 214.607 148.911 215.518 144.924 215.207C145.327 216.82 145.66 218.151 145.974 219.408C154.434 220.619 162.286 219.334 169.119 214.162C173.212 211.062 176.08 206.807 178.586 202.377C182.859 194.822 186.995 187.189 191.222 179.607ZM189.883 111.146C175.496 107.532 161.352 103.98 147.049 100.387V109.662C153.783 111.239 160.33 112.797 166.889 114.301C170.463 115.12 174.053 115.875 177.645 116.609C179.018 116.89 179.417 117.485 178.97 118.893C176.399 126.991 173.893 135.109 171.384 143.226C171.011 144.433 170.909 145.752 170.381 146.877C169.551 148.642 170.349 149.562 171.748 150.338C173.542 151.331 175.338 152.32 177.753 153.653C181.815 139.417 185.803 125.444 189.883 111.146ZM165.464 128.44C163.816 133.402 161.854 138.261 159.962 143.341C162.629 144.779 165.367 146.256 168.292 147.833C171.329 137.897 174.298 128.187 177.292 118.395C167.402 116.115 157.491 113.83 147.221 111.464V120.949C152.202 121.812 157.51 122.667 162.792 123.666C167.288 124.517 166.89 124.148 165.464 128.44ZM146.501 124C146.149 126.177 145.665 128.332 145.243 130.456C147.974 130.902 150.726 131.353 153.992 131.887C152.828 134.846 151.834 137.373 150.768 140.084C153.203 140.897 155.674 141.721 158.423 142.639C160.508 137.059 162.578 131.52 164.77 125.655C160.705 124.944 157.01 124.291 153.313 123.656C151.66 123.372 150.004 123.105 148.344 122.87C147.454 122.744 146.697 122.79 146.501 124ZM138.359 140.7C141.598 140.464 144.742 140.244 147.883 139.994C148.263 139.964 148.853 139.873 148.969 139.631C149.972 137.535 150.887 135.397 151.967 132.962C149.439 132.742 147.309 132.536 145.174 132.392C144.813 132.368 144.277 132.495 144.089 132.75C142.147 135.376 140.258 138.042 138.359 140.7ZM138.306 140.776C138.298 140.845 138.29 140.809 138.306 140.776V140.776ZM50.2211 113.234C52.7656 111.572 55.6637 110.772 58.7924 110.852C63.6854 110.977 66.5182 114.596 67.6021 119.447C68.5246 123.588 67.998 127.694 66.4183 131.775C68.8475 132.507 71.0153 133.161 73.3676 133.87C75.1895 129.837 76.4079 125.805 75.939 121.316C75.4201 116.376 74.1517 111.81 71.1306 107.735C67.7981 103.238 63.2703 101.944 58.0929 102.642C55.0295 103.053 51.9815 103.892 49.0603 104.909C44.5172 106.491 41.3231 109.851 38.5287 113.762C40.2661 115.376 41.9842 116.97 43.6254 118.496C45.824 116.719 47.8842 114.763 50.2211 113.234ZM47.5921 125.443C49.1064 124.247 50.5709 122.956 52.1698 121.862C53.9341 120.656 55.9751 119.914 57.9199 121.254C59.7649 122.528 59.6919 124.751 59.6073 126.705C59.5343 128.412 58.9962 130.101 58.6541 131.865C60.6682 131.73 62.6861 131.594 64.7693 131.454C66.2799 127.285 67.1639 122.968 65.6572 118.629C63.5547 112.588 60.0148 111.528 53.5382 113.475C49.8714 114.578 47.4076 117.351 44.9515 120.045C45.8509 121.882 46.7349 123.691 47.5921 125.443ZM54.084 134.13C55.4831 133.304 56.7323 132.457 56.9321 130.69C57.1435 128.813 57.6048 126.919 57.4894 125.061C57.3741 123.108 55.9558 122.423 54.1301 123.018C50.5017 124.2 48.0571 127.604 47.9803 131.353C47.9303 133.849 47.6882 136.342 47.569 138.248C49.4639 137.042 51.7355 135.518 54.084 134.13ZM62.713 156.699C65.0615 159.679 68.4785 160.226 72.0492 158.357C74.8282 156.902 76.2734 154.384 77.0302 151.542C77.3142 150.477 77.0029 148.919 76.3618 148.008C74.9012 145.926 73.283 143.806 70.2811 143.47C66.7949 144.141 63.8469 145.766 62.1826 149.087C60.8988 151.648 60.8065 154.283 62.713 156.699ZM44.5325 148.394C47.0578 150.867 49.2487 153.737 50.1519 157.108C51.0052 160.294 50.9668 163.718 51.332 167.163C54.2416 164.402 57.3357 161.512 60.3453 158.538C60.6643 158.223 60.7296 157.321 60.5259 156.859C57.647 150.272 60.9026 141.658 70.5771 141.013C73.7673 140.799 76.4233 142.867 78.0899 145.62C80.3892 149.418 79.8349 154.337 77.0125 157.507C74.1286 160.748 68.6168 162.443 64.1006 160.238C63.2127 159.805 62.6361 159.883 62.0634 160.484C59.1691 163.504 56.3056 166.549 53.2845 169.739C55.7214 169.739 57.9084 169.575 60.057 169.791C61.7674 169.962 63.6201 170.266 65.073 171.098C67.6675 172.583 70.0774 174.424 72.4144 176.299C73.2984 177.007 73.825 177.16 74.709 176.488C76.6308 175.036 78.7617 173.826 80.5244 172.209C84.3247 168.723 86.7066 164.317 87.4888 159.235C87.7816 157.332 87.4342 155.231 86.9487 153.331C85.9175 149.295 84.4673 145.372 82.0304 141.94C79.4336 138.283 75.5085 136.501 71.4534 135.093C69.0281 134.251 66.4798 133.699 63.9429 133.265C60.968 132.756 58.2621 133.86 55.6061 135.101C50.594 137.44 47.0616 141.268 44.2865 145.947C43.6792 146.969 43.6715 147.55 44.5325 148.394ZM27.0593 154.366C30.5186 150.682 36.876 150.156 40.439 153.116C43.7945 155.905 45.0014 159.772 43.9982 163.879C43.2295 167.019 41.5307 169.932 40.2315 172.987C41.2654 173.601 42.553 174.368 43.8483 175.14C50.5824 169.662 51.0706 159.569 46.5735 153.669C44.6978 151.203 43.2103 148.438 39.9394 147.621C32.2559 145.7 26.2944 146.619 20.8364 152.728C19.1491 154.621 18.3957 157.35 17.1773 159.767C18.2151 160.321 18.9608 160.686 19.6718 161.108C20.3406 161.504 20.971 161.96 21.2285 162.132C23.1734 159.499 24.8684 156.698 27.0593 154.366ZM25.4911 168.757C26.8018 166.104 28.0087 163.279 29.5615 160.659C30.7338 158.678 33.1976 157.881 34.835 158.482C37.4064 159.425 38.6325 162.001 37.3833 164.692C36.4109 166.789 34.9234 168.652 33.6281 170.594C33.1745 171.271 32.6095 171.873 31.9638 172.673C33.974 172.574 35.6998 172.498 37.4218 172.392C37.6332 172.379 37.9099 172.261 38.0367 172.099C40.9695 168.37 43.341 164.484 42.3032 159.379C40.7888 151.921 32.6441 151.709 28.5199 155.224C25.9485 157.416 24.4226 160.229 23.1811 163.258C23.0504 163.581 23.0773 164.075 23.231 164.391C23.9613 165.897 24.7646 167.369 25.4911 168.757ZM35.2078 165.589C36.5185 163.294 36.2303 160.999 34.7505 160.219C33.3629 159.49 31.5179 160.322 30.238 162.601C28.1932 166.236 26.7057 170.079 26.771 174.517C30.3572 172.136 33.1553 169.193 35.2078 165.589ZM27.263 182.953C28.666 181.905 29.9882 180.773 31.4449 179.85C36.2995 176.773 39.5127 178.747 41.8689 182.706C42.9336 184.498 42.5069 186.746 41.3192 188.582C40.2469 190.246 39.0207 191.814 37.8061 193.504C38.8286 194.364 39.7933 195.176 40.7542 195.984C44.7055 193.984 47.2192 188.452 46.6311 183.287C46.1891 179.403 41.9073 174.775 38.0752 174.273C32.6634 173.565 28.0471 174.99 24.6839 179.912C25.5257 180.902 26.3752 181.904 27.263 182.953ZM14.2561 196.149C17.0466 194.16 19.864 193.853 22.8697 194.649C23.2541 194.749 23.9575 194.508 24.1804 194.191C27.1439 190.02 28.0164 186.133 24.4687 182.285C21.7628 179.349 17.2311 179.12 14.1447 181.976C12.8878 183.14 11.8961 184.638 10.9967 186.114C10.7315 186.552 10.9737 187.61 11.358 188.084C13.8141 191.133 14.1754 192.15 14.2561 196.149ZM8.24463 214.382C7.71037 215.015 7.29526 215.748 6.52269 216.876C11.3311 216.829 15.2747 215.849 18.0998 212.201C18.511 211.667 18.8493 210.425 18.5764 210.149C18.0421 209.607 17.0159 209.203 16.2548 209.286C12.7879 209.659 10.3779 211.849 8.24463 214.382ZM4.08968 214.051C7.60277 211.708 10.4663 209.163 11.3695 205.036C11.4964 204.456 11.5963 203.799 11.4503 203.248C11.1697 202.212 10.5278 201.432 9.34396 202.159C8.37537 202.754 7.38368 203.403 6.63417 204.239C4.86609 206.218 3.62843 211.073 4.08968 214.051ZM11.4233 236.828C11.0121 233.386 8.78659 231.009 6.27284 228.881C5.65018 228.351 4.90836 227.956 3.83598 227.246C3.87827 231.936 4.82765 235.842 8.35997 238.669C8.93266 239.126 10.2703 239.552 10.5278 239.286C11.0928 238.704 11.5194 237.631 11.4233 236.828ZM15.3746 231.962C16.0127 232.109 16.7007 232.166 17.3503 232.11C18.6264 231.999 19.1645 231.092 18.5034 229.992C17.8922 228.977 17.2042 227.848 16.251 227.234C13.4374 225.422 10.3625 224.249 6.53038 224.567C8.90192 228.096 11.3119 231.023 15.3746 231.962ZM26.6288 252.641C26.3021 251.742 26.1752 250.762 25.7832 249.899C24.3149 246.657 24.2996 246.924 20.8211 247.071C18.6494 247.163 16.4393 246.342 14.21 245.923C14.5943 248.802 13.1568 251.357 11.0889 253.684C10.8506 253.955 10.7123 254.571 10.8506 254.886C12.5342 258.72 15.9319 262.269 21.1208 261.203C24.0997 260.59 27.7281 255.679 26.6288 252.641ZM31.6486 266.748C35.3078 267.593 38.8478 267.781 42.1495 265.277C49.2449 259.895 47.2231 250.131 41.5537 245.819C41.2654 245.599 40.4698 245.757 40.0893 246.009C39.2937 246.532 38.6172 247.237 37.7793 247.962C38.8516 249.383 39.9586 250.735 40.931 252.177C42.9835 255.211 42.653 258.102 40.539 260.577C37.7139 263.891 34.0432 263.341 31.6448 261.712C30.1573 260.706 28.7582 259.575 27.2861 258.475C26.4712 259.417 25.6103 260.409 24.6186 261.557C26.452 263.955 28.566 266.036 31.6486 266.748ZM29.3463 268.816C28.6044 268.147 27.755 267.598 26.7441 266.833C26.8594 271.774 28.32 276.004 30.9568 279.827C31.7255 280.945 32.8747 281.69 34.3584 281.257C35.9497 280.794 36.5416 279.125 35.7152 277.013C34.4084 273.671 31.9523 271.169 29.3463 268.816ZM22.9927 277.756C24.8569 282.145 26.894 286.481 31.9407 287.986C37.7946 289.732 41.9419 286.375 42.5223 280.719C42.9835 276.227 40.7312 272.718 38.0944 269.403C37.933 269.201 37.5986 269.047 37.3372 269.03C35.6614 268.924 33.9817 268.862 32.0791 268.776C33.5973 270.766 35.0272 272.472 36.2571 274.311C36.9106 275.291 37.4487 276.461 37.6485 277.613C38.1136 280.319 37.1373 282.054 34.9734 282.915C33.3283 283.568 30.8491 282.791 29.6384 280.855C28.4046 278.883 27.509 276.695 26.502 274.585C26.1752 273.903 25.9562 273.169 25.6602 272.38C24.7454 274.087 23.8921 275.665 23.0542 277.252C22.9812 277.394 22.9351 277.619 22.9927 277.756ZM44.7285 290.43C48.8143 285.464 50.8015 279.907 48.7413 273.637C47.8535 270.928 45.8932 268.571 44.3749 265.983C42.5069 267.075 41.1655 267.859 40.2007 268.422C41.4691 271.385 43.072 274.306 43.9752 277.43C45.505 282.727 41.8266 289.201 37.1796 289.906C32.229 290.657 28.1048 289.089 25.1029 285.064C23.7461 283.247 22.7237 281.181 21.5245 279.185C20.3137 279.89 18.9454 280.685 17.5732 281.485C19.0953 289.981 26.6134 294.718 33.0592 294.573C35.0733 294.527 37.1027 294.376 39.0899 294.046C41.4345 293.657 43.2142 292.272 44.7285 290.43ZM61.1371 288.724C61.0641 292.874 66.1684 297.915 70.3926 297.865C73.1485 297.832 77.237 293.66 77.2085 290.907C77.1639 286.675 72.2106 281.761 68.071 281.845C64.6425 281.915 61.1986 285.333 61.1371 288.724ZM61.2255 308.072C63.2165 308.422 65.4381 308.052 67.4483 307.57C71.5111 306.596 75.4316 305.11 78.8544 302.657C82.4924 300.051 84.2982 296.135 85.6761 292.062C86.5006 289.625 87.0879 287.081 87.4953 284.54C87.9596 281.64 86.9226 278.962 85.7137 276.357C83.386 271.342 79.5693 267.795 74.8858 265.015C73.7904 264.363 73.1946 264.399 72.2683 265.28C69.1819 268.215 65.7648 270.796 61.46 271.466C58.8886 271.866 56.2057 271.539 53.1423 271.539C56.2595 274.824 59.1384 277.862 62.0211 280.9C62.6938 281.612 63.351 281.515 64.2312 281.121C70.9153 278.131 79.469 282.418 79.6712 291.39C79.7723 295.866 73.5713 301.483 68.2555 300.129C61.7559 298.474 58.6349 292.107 59.761 286.973C59.9263 286.213 60.107 285.401 60.5144 284.763C61.0487 283.922 60.8642 283.303 60.2531 282.72C57.2319 279.833 54.1916 276.964 51.0168 273.956C51.0168 276.341 51.2397 278.5 50.9514 280.589C50.6747 282.575 50.1827 284.666 49.2103 286.388C47.8073 288.882 45.8586 291.066 44.2135 293.432C43.9483 293.813 43.8215 294.585 44.029 294.954C47.8535 301.812 53.3076 306.675 61.2255 308.072ZM57.7701 314.62C57.5202 312.912 57.1974 311.156 56.5132 309.593C56.1058 308.665 55.0103 307.966 54.0994 307.347C51.797 305.78 49.4255 304.314 47.5883 303.135C47.6997 305.398 47.8996 308.439 47.9841 311.483C48.0687 314.398 52.4235 318.668 55.337 318.588C56.8783 318.545 58.0776 316.755 57.7701 314.62ZM53.984 328.118C60.9756 330.161 65.0307 327.906 66.253 320.043C66.8065 316.476 66.1492 313.645 64.6886 309.862C63.7124 309.862 62.6899 309.916 61.6752 309.847C60.672 309.777 59.6765 309.581 58.9155 309.475C59.123 311.946 59.5112 314.357 59.4805 316.763C59.4305 320.089 56.9244 321.763 53.8995 320.353C51.6125 319.287 49.61 317.612 47.4691 316.202C46.7272 317.734 45.8663 319.514 44.9707 321.366C47.4383 324.211 50.125 326.991 53.984 328.118ZM55.1525 338.458C57.7508 338.954 60.5336 338.749 63.2049 338.53C68.3439 338.108 71.0037 334.47 73.1677 330.329C75.5854 325.705 76.4886 320.746 75.8313 315.625C75.4777 312.885 74.4207 310.234 73.6559 307.46C71.0037 308.264 68.8359 308.922 66.8872 309.513C67.2485 312.617 67.7174 315.625 67.9173 318.65C68.1633 322.389 66.7757 325.639 64.2812 328.379C62.2402 330.624 59.4536 330.604 56.7592 330.372C52.6311 330.016 49.1565 328.172 46.2891 325.187C45.4935 324.357 44.7093 323.519 43.9022 322.67C42.0649 324.372 40.3468 325.96 38.5826 327.596C42.4608 333.785 48.2224 337.134 55.1525 338.458ZM106.215 330.304C108.45 330.168 109.606 329.04 109.725 326.779C110.005 321.442 107.826 317.209 103.838 313.807C100.07 310.592 95.4313 309.218 90.8685 307.673C88.8221 306.981 86.8104 306.186 84.5399 305.348C86.8507 310.99 88.7003 316.758 91.5058 322.015C94.498 327.622 99.5232 330.71 106.215 330.304ZM101.806 341.984C101.283 338.611 100.042 335.588 97.8816 333.004C96.875 331.8 95.4905 330.912 94.1448 329.769C93.7527 332.949 93.2131 335.771 93.1001 338.609C92.9283 342.929 92.9068 347.268 93.1297 351.583C93.2089 353.118 94.0018 354.715 94.8017 356.091C95.8664 357.924 98.0396 357.717 99.7907 358.133C101.871 358.627 104.024 358.815 106.247 359.152C103.349 353.771 102.714 347.834 101.806 341.984ZM124.581 359.05C119.105 357.36 115.913 353.119 113.015 348.603C110.443 344.594 109.178 340.054 108.008 335.493C107.652 334.104 106.901 333.359 105.341 333.334C103.614 333.307 101.892 333.015 99.7588 332.796C103.847 337.832 103.38 343.842 104.726 349.34C105.04 350.62 105.236 351.936 105.64 353.185C106.931 357.179 109.933 359.091 113.921 359.329C117.522 359.543 121.146 359.373 124.753 359.373C124.733 359.332 124.69 359.084 124.581 359.05ZM133.401 340.064C129.322 335.715 124.219 332.878 118.415 331.421C116.798 331.015 115.123 330.684 113.464 330.633C111.173 330.563 109.736 331.823 110.058 334.074C110.519 337.311 111.247 340.583 112.412 343.631C114.453 348.971 117.725 353.62 122.775 356.477C126.325 358.485 130.365 359.34 134.547 359.049C135.741 358.966 136.945 359.036 138.258 359.036C138.839 351.983 138.375 345.368 133.401 340.064ZM138.239 332.3C137.744 328.531 134.77 326.777 131.369 325.966C128.398 325.258 125.34 324.921 122.337 324.337C118.873 323.664 115.334 323.16 112.212 320.342C112.405 322.904 112.343 324.924 112.805 326.816C112.994 327.593 114.226 328.422 115.135 328.669C121.045 330.277 126.81 332.149 131.593 336.192C134.648 338.774 137.521 341.505 138.585 345.609C138.76 345.573 138.935 345.537 139.111 345.501C138.844 341.097 138.813 336.663 138.239 332.3ZM132.112 314.016C128.054 313.632 123.946 313.551 119.869 313.683C116.409 313.795 112.965 314.377 109.402 314.764C111.295 318.64 114.636 320.792 118.627 321.797C122.914 322.878 127.337 323.41 131.655 324.382C133.976 324.904 136.202 325.848 138.609 326.649C137.97 323.42 137.501 320.087 136.606 316.873C136.046 314.86 133.853 314.181 132.112 314.016ZM121.863 301.975C120.083 301.445 118.406 301.472 116.731 302.615C112.921 305.218 108.781 307.136 104.169 307.831C102.424 308.094 100.656 308.204 98.7065 308.403C104.658 311.5 110.305 313.856 117.239 312.291C122.684 311.062 128.47 311.205 134.349 312.755C130.886 308.038 127.537 303.664 121.863 301.975ZM126.021 267.885C123.036 260.928 118.849 255.038 111.148 252.412C110.148 254.169 109.141 255.941 108.178 257.635C110.26 259.688 112.587 261.564 114.389 263.854C117.538 267.859 119.287 272.557 119.768 277.64C119.96 279.665 119.923 281.748 119.689 283.77C118.904 290.542 114.169 293.941 108.454 296.24C101.026 299.228 93.5748 299.181 86.2473 295.615C85.1503 297.472 84.1144 299.226 83.0267 301.067C86.5755 303.932 90.4714 305.861 95.0711 306.315C100.509 306.852 105.8 306.423 110.793 304.077C115.759 301.744 120.137 298.542 123.752 294.412C126.65 291.102 127.092 286.798 127.519 282.721C128.04 277.741 128.059 272.636 126.021 267.885ZM147.489 273.382C144.496 270.097 140.784 268.195 136.156 268.337C139.226 274.964 141.635 281.87 146.12 287.713C148.331 290.593 150.342 291.257 153.923 290.261C154.499 290.101 155.079 289.943 155.636 289.73C157.427 289.046 159.208 288.337 161.24 287.541C155.432 283.815 151.88 278.203 147.489 273.382ZM158.406 272.735C155.838 270.865 153.551 268.596 151.23 266.41C150.05 265.298 149.031 264.744 147.434 265.699C146.008 266.551 144.392 267.086 142.672 267.844C143.996 268.631 145.366 269.134 146.307 270.069C148.563 272.308 150.605 274.761 152.755 277.108C154.581 279.1 156.279 281.25 158.326 282.985C160.208 284.58 162.474 285.613 165.159 284.779C169.614 283.394 173.469 280.905 177.776 278.336C170.133 279.4 164.002 276.809 158.406 272.735ZM169.877 256.347C164.453 255.902 159.325 256.675 154.336 258.634C151.102 259.904 150.416 262.202 152.566 264.906C157.881 271.587 164.566 276.18 173.272 276.814C179.09 277.238 184.15 274.788 188.842 271.267C185.046 262.955 179.57 257.144 169.877 256.347ZM167.4 246.058C164.324 246.835 161.378 248.117 158.331 249.026C155.472 249.879 152.567 250.592 149.654 251.235C148.888 251.404 148.017 251.089 147.016 250.976C148.362 252.864 149.519 254.539 150.734 256.172C151.569 257.293 152.692 257.044 153.832 256.719C158.411 255.415 163.036 254.313 167.84 254.563C171.88 254.774 175.86 255.39 179.481 257.367C180.419 257.878 181.26 258.567 182.474 259.002C181.183 256.805 179.941 254.578 178.585 252.421C177.692 251.001 176.703 249.63 175.638 248.333C173.45 245.667 170.461 245.284 167.4 246.058ZM159.706 235.912C155.009 238.586 150.533 241.647 145.981 244.57C144.567 245.478 143.189 246.443 141.647 247.482C146.754 250.561 151.702 249.773 156.764 247.951C161.006 246.424 165.332 245.122 169.651 243.821C170.654 243.519 171.782 243.626 173.396 243.504C170.833 240.652 168.736 237.76 166.072 235.553C164.288 234.074 161.572 234.849 159.706 235.912ZM142.233 233.136C139.253 238.975 135.32 243.87 129.044 247.232C135.921 247.308 141.845 246.329 147.003 241.731C151.335 237.868 156.439 234.912 162.461 233.268C156.699 230.876 151.222 228.309 145.066 230.606C143.947 231.023 142.777 232.071 142.233 233.136ZM115.969 251.827C119.577 254.835 123.114 258.011 126.887 260.877C132.303 264.992 138.305 266.54 144.852 263.777C149.77 261.701 149.797 258.781 145.867 254.497C140.548 248.697 133.774 248.406 126.654 249.73C123.064 250.399 119.486 251.135 115.969 251.827ZM143.612 217.167C142.218 211.092 139.566 205.536 135.276 200.976C131.225 196.669 126.2 193.777 120.35 192.686C117.754 192.202 115.043 192.344 112.175 192.191C112.175 194.408 112.096 196.271 112.239 198.117C112.269 198.503 113.091 199.087 113.594 199.139C122.571 200.08 129.006 204.97 133.711 212.306C137.308 217.913 137.198 223.761 133.576 229.339C129.236 236.023 123.325 240.579 115.301 242.076C112.142 242.665 112.157 242.745 112.156 245.948C112.156 246.912 112.156 247.876 112.156 248.894C120.44 250.041 127.25 247.363 133.265 242.271C139.142 237.295 142.128 230.627 143.836 223.357C144.293 221.41 144.068 219.156 143.612 217.167ZM144.339 197.721C141.697 195.566 138.595 194.521 135.118 194.514C133.214 194.511 131.31 194.154 128.917 193.906C129.582 194.391 129.86 194.634 130.174 194.817C135.127 197.689 138.956 201.692 141.32 206.864C142.915 210.356 145.57 211.551 149.042 211.682C153.706 211.859 157.874 210.12 162.3 208.201C155.361 205.899 149.698 202.092 144.339 197.721ZM153.939 192.589C149.686 191.25 145.697 191.643 141.467 194.001C146.539 197.371 151.342 200.584 156.169 203.76C158.57 205.34 161.248 206.337 164.095 206.44C165.099 206.477 166.357 205.688 167.123 204.908C169.21 202.781 171.098 200.457 173.33 197.908C166.1 197.838 160.204 194.563 153.939 192.589ZM179.746 183.91C172.739 187.405 165.428 187.562 157.965 185.767C156.333 185.375 154.742 184.778 153.094 184.519C152.375 184.406 151.274 184.662 150.841 185.171C149.496 186.749 148.389 188.529 146.95 190.571C150.709 189.59 153.832 190.728 156.957 191.828C160.079 192.927 163.145 194.217 166.322 195.117C171.489 196.58 174.498 195.37 177.404 190.878C179.191 188.116 180.836 185.263 182.266 182.174C181.429 182.759 180.65 183.459 179.746 183.91ZM174.53 164.466C171.376 164.339 168.018 165.549 164.994 166.762C160 168.768 155.855 172.102 152.611 176.446C150.488 179.288 151.125 181.515 154.418 182.824C161.291 185.559 168.3 186.004 175.439 183.951C180.72 182.432 183.909 178.461 186.799 174.185C187.601 172.998 188.123 171.624 188.835 170.214C184.589 166.675 179.727 164.676 174.53 164.466ZM156.422 160.139C153.794 162.963 151.475 166.074 148.818 168.868C147.111 170.662 145.041 172.111 143.104 173.741C144.806 174.503 146.734 175.529 148.781 176.184C149.375 176.373 150.409 175.622 151.069 175.089C154.391 172.406 157.499 169.43 160.982 166.982C164.88 164.244 169.466 163.055 174.199 162.638C175.173 162.552 176.186 162.918 177.182 163.075C177.256 162.917 177.33 162.759 177.405 162.602C174.064 160.86 170.762 159.037 167.372 157.396C162.783 155.174 159.554 156.775 156.422 160.139ZM145.998 154.017C143.361 158.386 141.039 162.949 138.666 167.473C137.751 169.218 137.065 171.084 136.194 173.079C141.65 173.188 145.481 170.454 148.83 166.605C152.11 162.836 155.544 159.199 158.952 155.544C159.513 154.942 160.293 154.543 161.261 153.84C158.64 152.879 156.24 151.863 153.759 151.121C150.258 150.076 147.934 150.811 145.998 154.017ZM115.924 189.58C119.402 190.26 122.992 190.933 126.569 191.667C131.186 192.614 135.731 192.744 140.212 190.942C143.415 189.654 145.907 187.54 147.612 184.601C149.43 181.469 148.882 179.648 145.63 178.014C141.386 175.882 136.984 175.704 132.514 177.394C127.825 179.167 124.266 182.531 120.588 185.742C119.018 187.113 117.37 188.395 115.924 189.58ZM88.9444 154.234C89.9925 153.954 91.0687 153.656 92.1499 153.378C96.0409 152.376 99.9437 152.325 103.679 153.854C109.916 156.406 111.155 161.092 108.798 167.872C108.176 169.66 107.156 171.383 105.998 172.891C104.873 174.357 103.337 175.507 101.979 176.799C103.75 178.709 105.341 180.426 106.978 182.191C113.744 177.712 117.193 171.309 118.112 163.447C118.318 161.687 118.237 159.865 118.067 158.094C117.551 152.729 114.008 149.74 109.549 147.496C104.892 145.153 99.9422 144.245 94.8232 144.934C92.1334 145.295 89.5351 146.344 86.815 147.105C87.5879 149.692 88.2371 151.868 88.9444 154.234ZM91.2767 172.696C92.12 172.636 93.112 172.317 93.7186 171.767C94.9577 170.643 96.2077 169.41 97.0175 167.977C97.6022 166.942 98.0607 165.085 97.5303 164.362C96.8738 163.468 95.1246 162.983 93.8677 163.019C92.1723 163.068 90.2385 163.403 88.8828 164.318C87.4995 165.253 86.6658 167.02 85.6407 168.458C84.4684 170.103 83.3503 171.787 82.4509 173.101C85.0542 172.992 88.171 172.92 91.2767 172.696ZM99.8449 166.461C98.9455 168.432 97.4611 170.142 96.1815 171.928C95.9175 172.297 95.4136 172.495 94.912 172.847C96.8884 173.89 98.5123 174.78 100.175 175.59C100.447 175.722 101.02 175.637 101.233 175.428C103.812 172.89 106.26 170.29 107.564 166.766C109.645 161.14 106.858 155.834 100.923 154.715C96.9318 153.962 93.019 154.495 89.3475 156.005C89.1861 158.099 89.0308 160.111 88.8763 162.112C90.4772 161.777 92.0865 161.308 93.7274 161.14C94.8978 161.02 96.1543 161.134 97.2939 161.438C99.7696 162.099 100.917 164.114 99.8449 166.461ZM86.1931 196.189C86.2257 198.629 88.2779 201.373 90.6859 202.197C94.2916 203.432 99.1742 202.126 101.563 199.18C102.068 198.558 102.602 197.6 102.487 196.901C102.124 194.678 101.768 192.36 100.831 190.349C99.7496 188.027 97.2389 188.331 95.3782 188.283C89.8741 188.283 86.1327 191.613 86.1931 196.189ZM51.0129 178.946C55.2832 176.447 59.6726 175.456 64.4119 177.756C68.8282 179.899 70.1428 183.956 69.1127 188.526C67.9788 193.554 64.2966 196.257 59.9494 198.305C59.5689 198.485 59.1845 198.657 58.8078 198.848C58.6618 198.923 58.5311 199.038 58.4312 199.11C59.2422 200.48 60.034 201.819 60.8335 203.169C69.7699 201.497 74.1325 193.54 73.9211 187.699C73.848 185.671 73.6943 183.63 73.3599 181.63C73.0293 179.629 72.1261 177.804 70.3849 176.639C67.9942 175.034 65.6841 173.06 63.0282 172.147C57.3203 170.187 51.8739 171.031 47.2462 175.274C46.6811 175.795 46.1084 176.312 45.5703 176.802C46.389 178.198 47.1424 179.49 47.9918 180.941C48.9527 180.302 49.9521 179.568 51.0129 178.946ZM59.2691 189.671C60.4875 188.773 61.2947 187.435 60.3953 185.899C59.5035 184.379 57.9622 184.434 56.5516 184.984C52.2045 186.677 49.1641 189.911 46.6235 193.768C51.3089 193.696 55.5484 192.407 59.2691 189.671ZM60.2761 191.015C57.6509 192.661 54.7566 193.874 52.0315 195.248C53.3729 195.962 54.895 196.788 56.4401 197.58C56.6708 197.699 57.0282 197.762 57.255 197.67C60.7027 196.272 63.8738 194.507 66.1646 191.425C67.7674 189.267 68.3209 184.051 66.499 181.645C64.6118 179.155 60.6182 177.549 57.1051 178.275C53.9494 178.926 51.2897 180.54 48.8528 182.564C48.6068 182.769 48.3647 183.123 48.3377 183.425C48.2109 185.097 48.1494 186.775 48.0495 188.795C49.4024 187.684 50.5286 186.639 51.7739 185.773C53.05 184.885 54.3915 184.039 55.8098 183.412C58.2774 182.32 60.6874 183.035 61.8328 185.004C62.9513 186.936 62.4747 189.637 60.2761 191.015ZM42.4416 201.526C44.5249 201.382 46.6081 201.16 48.699 201.112C51.5702 201.046 53.9917 202.693 54.7528 205.072C55.9366 208.759 55.2794 211.327 52.389 213.132C50.521 214.297 48.4415 215.122 46.389 216.133C46.8387 217.318 47.3154 218.588 47.7804 219.823C54.3069 219.105 57.77 215.582 59.3728 210.501C60.6989 206.306 59.4843 202.135 55.8751 199.312C51.6586 196.01 46.9194 195.169 41.8266 197.623C42.0457 199.019 42.2417 200.259 42.4416 201.526ZM37.3103 210.089C37.0143 210.416 36.5954 210.632 35.8728 211.164C39.4858 211.049 42.3109 212.011 44.7862 214.017C45.0514 214.233 45.6433 214.292 45.97 214.155C47.961 213.326 50.0751 212.656 51.8393 211.474C53.7842 210.173 54.0917 207.991 53.2345 205.655C52.5696 203.842 50.7708 202.67 48.503 202.697C47.1231 202.713 45.7318 202.801 44.3673 203.004C43.1911 203.18 42.407 203.678 41.6998 204.954C40.6312 206.886 38.8285 208.414 37.3103 210.089ZM23.1926 219.676C23.2695 219.801 23.5001 219.852 23.6692 219.897C27.1362 220.815 32.4789 216.346 32.4481 212.776C32.4289 210.436 27.7435 207.506 25.2105 208.181C24.1074 208.474 23.012 208.788 21.9319 209.149C21.0287 209.45 20.7365 210.127 20.3368 211.033C19.5873 212.728 18.2381 214.162 17.112 215.686C16.9851 215.861 16.693 215.916 16.2625 216.137C19.0684 216.982 21.6936 217.255 23.1926 219.676ZM20.06 222.284C20.6635 222.001 21.4168 221.227 21.4053 220.693C21.3938 220.139 20.6481 219.374 20.0408 219.092C15.6552 217.052 11.677 218.717 7.26839 220.683C11.7039 222.759 15.6859 224.35 20.06 222.284ZM31.8216 230.419C32.2828 229.851 32.4558 228.817 32.352 228.053C31.8677 224.415 27.7281 221.23 24.0113 221.518C23.7269 221.54 23.3041 221.579 23.1926 221.76C21.6897 224.182 19.0184 224.38 16.6507 225.224C18.2689 227.001 20.4867 228.329 20.5059 231.116C20.5097 231.373 20.8941 231.685 21.167 231.875C24.4072 234.125 29.3002 233.509 31.8216 230.419ZM45.8201 220.226C45.6126 215.34 39.2629 211.212 34.7927 213.123C34.3238 213.324 33.9586 214.03 33.7703 214.579C32.6979 217.644 31.3411 219.242 28.2931 220.711C31.2181 222.021 33.0323 224.037 33.7357 226.896C34.0163 228.051 34.662 228.397 35.6767 228.564C41.104 229.457 46.0392 225.412 45.8201 220.226ZM45.9432 238.531C46.9041 238.525 47.865 238.678 48.8221 238.665C51.3166 238.63 52.9001 237.268 53.6112 234.615C54.0917 232.83 53.0539 230.43 51.2012 229.42C49.8329 228.676 48.3685 228.105 46.9271 227.509C45.9508 227.106 45.159 227.349 44.1328 227.85C41.6728 229.051 39.0054 229.826 36.8875 230.603C38.1175 231.995 40.1239 233.589 41.1963 235.667C42.3224 237.85 43.76 238.546 45.9432 238.531ZM55.0526 242.762C58.5926 240.586 60.5259 235.774 59.565 231.758C58.1544 225.857 54.1109 222.465 47.8227 221.52C47.3307 222.794 46.8618 224.015 46.3698 225.29C48.2301 226.182 50.1942 226.942 51.97 228.012C55.2409 229.981 55.9212 232.267 54.8104 236.226C54.1147 238.694 50.9976 240.687 48.2993 240.373C46.3967 240.152 44.4864 240.017 42.4492 239.831C42.2609 241.056 42.0611 242.332 41.8343 243.77C46.4121 245.986 50.7784 245.392 55.0526 242.762ZM54.7413 255.668C55.4946 256.138 56.3671 256.514 57.2358 256.68C58.535 256.929 60.0647 256.79 60.4145 255.35C60.6451 254.385 60.28 252.861 59.5958 252.161C56.9168 249.424 53.2192 248.674 49.683 247.714C48.6529 247.435 47.5382 247.462 46.1507 247.316C48.5145 250.963 51.3896 253.572 54.7413 255.668ZM61.9289 256.299C60.8949 258.263 58.9501 259.015 55.8982 257.962C53.8611 257.26 52.1237 255.679 50.2865 254.444C49.5946 253.981 48.9988 253.384 48.3185 252.816C47.4037 256.354 48.4031 258.873 51.2973 260.67C54.453 262.628 57.7124 263.85 61.5445 262.966C68.6745 261.321 69.0243 253.714 65.7495 249.475C63.6086 246.703 60.6336 245.145 57.4818 243.861C57.182 243.74 56.74 243.694 56.4748 243.828C54.9258 244.599 53.4113 245.434 52.0238 246.175C54.7336 247.529 57.5702 248.724 60.1647 250.312C62.3824 251.668 62.9436 254.365 61.9289 256.299ZM68.1979 241.686C66.2184 239.977 63.4932 239.128 61.0679 237.865C60.007 239.657 59.2153 240.994 58.6502 241.95C61.2947 243.913 64.1582 245.609 66.4836 247.856C70.5386 251.765 70.4656 259.1 66.5413 262.299C62.9628 265.217 58.8155 265.659 54.5875 264.11C52.2506 263.253 50.1173 261.833 47.8842 260.663C47.1693 261.876 46.389 263.207 45.6049 264.539C51.1974 271.292 61.0987 271.712 66.9333 267.342C69.4509 265.456 72.2645 263.971 73.1254 260.625C74.9857 253.401 74.094 246.77 68.1979 241.686ZM90.9392 252.314C92.3068 252.859 93.8189 253.041 95.2656 253.389C100.354 253.137 103.639 249.012 102.499 244.095C101.957 241.757 99.9199 240.822 98.1176 239.802C94.4065 237.702 88.7237 238.334 86.6608 243.207C85.2906 246.444 87.1221 250.793 90.9392 252.314ZM61.41 210.314C64.0659 210.314 66.5413 210.1 68.9666 210.361C73.2945 210.824 77.5133 214.624 78.5627 218.4C79.9952 223.554 76.0966 228.471 72.0492 230.185C69.1011 231.435 65.9801 231.613 62.8168 231.138C62.4209 231.078 62.0096 231.13 61.5253 231.13C61.4599 231.48 61.4254 231.598 61.4215 231.718C61.237 236.444 61.4484 236.701 66.2645 236.768C73.0601 236.863 78.131 233.954 81.1244 227.805C82.1349 225.729 83.4414 223.444 83.4026 221.276C83.2953 215.267 80.3991 210.507 75.3817 207.107C71.4188 204.419 67.0832 204.102 62.5631 205.174C62.1211 205.279 61.5022 205.818 61.46 206.208C61.3216 207.508 61.41 208.832 61.41 210.314ZM56.8937 219.159C55.7406 219.467 54.6682 220.065 53.1769 220.692C57.8777 222.848 62.294 224.167 67.1178 223.373C68.5669 223.135 69.6661 222.395 69.7353 220.82C69.8045 219.136 68.6591 218.36 67.1716 218.029C63.6239 217.239 60.2531 218.259 56.8937 219.159ZM62.9474 216.24C64.8347 216.186 66.7796 216.352 68.613 216.782C70.285 217.174 71.6072 219.232 71.5072 220.772C71.3766 222.712 70.2312 224.002 68.5092 224.717C66.0723 225.728 63.5663 225.429 61.0641 224.915C59.9571 224.687 58.8424 224.525 57.6086 224.312C58.6157 225.924 59.5228 227.398 60.4568 228.854C60.6067 229.087 60.868 229.38 61.1063 229.406C65.5188 229.898 69.8775 230.177 73.7058 227.181C79.1031 222.957 77.9077 216.151 71.9531 213.064C68.54 211.294 64.8462 211.506 61.1755 212.05C60.8527 212.098 60.5298 212.52 60.3146 212.841C59.419 214.188 58.5618 215.564 57.5932 217.08C59.4113 216.777 61.1755 216.291 62.9474 216.24ZM115.211 208.968C120 210.765 123.718 213.737 125.356 218.797C126.471 222.245 124.723 224.971 122.714 227.367C120.182 230.385 116.867 232.355 112.909 233.105C112.039 233.27 111.198 233.598 110.343 233.85C110.781 235.852 111.258 237.706 111.567 239.588C111.722 240.538 112.072 240.762 112.991 240.67C117.784 240.185 122.023 238.529 125.823 235.462C130.309 231.843 133.55 227.517 134.605 221.797C134.83 220.577 134.586 219.159 134.191 217.952C131.049 208.343 124.16 202.964 114.502 200.83C113.707 200.654 112.838 200.806 111.845 200.806C111.364 202.939 110.864 205.154 110.32 207.562C111.919 208.014 113.611 208.368 115.211 208.968ZM104.249 216.165C103.105 216.148 101.959 217.337 100.786 217.922C98.7368 218.944 96.6655 219.923 95.1949 220.634C97.6418 221.94 100.628 223.612 103.697 225.111C104.348 225.428 105.394 225.337 106.107 225.053C108.127 224.247 110.169 223.404 112.006 222.261C113.17 221.536 113.066 220.23 112.092 219.166C109.983 216.86 107.134 216.211 104.249 216.165ZM112.816 217.134C116.074 219.156 116.062 222.294 112.777 224.319C110.826 225.522 108.598 226.275 106.485 227.235C107.324 228.548 108.295 230.11 109.323 231.634C109.486 231.877 109.938 232.124 110.196 232.072C114.961 231.115 119.376 229.477 122.262 225.236C125.16 220.979 124.459 218.265 120.47 214.049C117.791 211.218 114.07 210.091 110.311 209.324C110.016 209.264 109.504 209.533 109.318 209.803C108.302 211.286 107.356 212.817 106.51 214.138C108.647 215.134 110.864 215.922 112.816 217.134ZM91.7444 278.143C93.0397 278.428 94.4715 278.385 95.7945 278.181C97.7551 277.879 98.3905 276.589 97.7079 274.747C96.8342 272.391 95.2095 270.621 93.1512 269.278C92.5485 268.885 91.6875 268.797 90.9327 268.745C87.8335 268.533 84.7298 268.39 82.4274 268.265C83.5544 269.975 85.3132 272.133 86.4875 274.572C87.6248 276.936 89.5839 277.669 91.7444 278.143ZM107.55 270.897C109.689 274.126 110.36 277.829 109.597 281.627C108.855 285.313 103.737 288.59 98.9928 288.633C97.3016 288.648 95.5881 288.705 93.9246 288.466C92.2749 288.229 90.6755 287.644 88.9663 287.189C88.2756 289.452 87.616 291.613 86.8953 293.975C90.4753 295.871 94.2909 296.937 98.2871 296.696C102.181 296.461 106.03 295.824 109.608 293.917C114.224 291.457 117.764 288.351 118.143 282.725C118.81 272.846 115.099 265.056 107.046 259.173C105.372 260.965 103.778 262.672 102.26 264.296C104.043 266.492 106.001 268.559 107.55 270.897ZM96.4483 280.11C95.1453 280.204 93.8169 280.249 92.5255 280.099C91.2971 279.957 90.1017 279.533 88.7506 279.198C88.914 280.232 89.1315 281.211 89.2073 282.2C89.2849 283.217 89.2245 284.245 89.2245 285.386C93.5118 286.997 97.8908 287.728 102.383 286.258C107.162 284.694 108.903 281.555 107.877 276.186C107.29 273.113 105.75 270.452 103.499 268.243C102.598 267.36 101.67 266.504 100.733 265.614C98.8525 266.541 97.0852 267.412 95.2022 268.34C96.1293 269.333 97.2078 270.273 98.0088 271.409C98.7975 272.526 99.474 273.786 99.8999 275.082C100.805 277.835 99.3433 279.901 96.4483 280.11ZM75.4393 255.339C75.1434 257.452 74.8205 259.564 74.636 261.687C74.5975 262.14 74.9742 262.848 75.3701 263.087C81.4093 266.724 87.9242 268.187 94.8128 266.429C97.0506 265.857 99.2292 264.438 101.028 262.923C103.129 261.154 104.891 258.94 106.614 256.772C110.433 251.964 111.334 246.441 110.049 240.552C109.45 237.806 108.716 235.06 107.717 232.438C106.561 229.399 104.017 227.571 101.415 225.696C96.7808 222.357 91.4808 222.007 86.1477 221.571C85.8275 221.544 85.241 221.982 85.1549 222.305C83.1731 229.725 79.3783 235.553 71.5418 238.208C75.6853 239.437 79.8218 240.705 83.9922 241.841C84.4496 241.965 85.2914 241.479 85.6523 241.032C88.816 237.108 92.8891 235.796 97.7282 236.78C101.379 237.523 104.695 241.714 105.108 245.328C105.427 248.111 104.62 250.42 103.052 252.532C100.3 256.238 93.5014 257.047 89.6208 254.229C86.8807 252.239 84.8393 249.803 84.5288 246.27C84.4019 244.825 83.5851 244.348 82.2172 244.067C78.804 243.368 75.4355 242.455 72.0454 241.635C71.7071 241.553 71.3612 241.519 70.6655 241.405C71.5764 242.779 72.326 243.89 73.0601 245.011C75.1203 248.161 75.9582 251.592 75.4393 255.339ZM28.2931 256.069C28.2431 256.526 28.4661 257.221 28.812 257.479C30.384 258.664 31.96 259.89 33.6935 260.802C35.8305 261.927 37.587 261.486 39.236 259.81C40.785 258.237 41.2155 256.444 40.1354 254.39C39.2245 252.656 37.983 251.087 36.8145 249.5C36.5685 249.168 35.9535 248.838 35.5922 248.91C32.2905 249.559 29.3309 248.616 26.4174 247.119C28.0471 249.964 28.639 252.902 28.2931 256.069ZM26.0369 243.479C25.9254 243.862 26.1599 244.583 26.4789 244.826C30.0535 247.55 34.5121 248.762 38.3097 245.291C41.3846 242.48 41.6114 237.78 38.6287 234.674C37.5179 233.519 36.1303 232.59 34.7428 231.772C34.27 231.494 33.1899 231.624 32.7633 231.997C30.4917 233.985 27.9933 235.234 24.5302 234.857C26.525 237.775 26.9132 240.519 26.0369 243.479ZM30.5532 194.404C29.8229 194.682 29.1041 194.993 28.4084 195.34C25.7948 196.64 25.8332 196.642 26.379 199.574C26.8364 202.008 26.0791 204.202 24.534 206.627C28.0779 206.124 30.6032 207.481 32.8786 209.536C33.163 209.796 33.7011 210.018 34.047 209.937C38.7324 208.84 41.865 203.21 40.2661 198.75C39.2936 196.051 35.0118 192.698 30.5532 194.404ZM26.575 194.161C29.4808 192.653 32.4135 192.01 35.5883 192.489C35.9727 192.547 36.5839 192.24 36.8222 191.91C38.0214 190.266 39.2898 188.642 40.2315 186.851C41.2347 184.929 40.6889 182.937 39.1014 181.455C37.5486 180.004 35.7344 179.468 33.8203 180.524C32.1022 181.474 30.5109 182.669 28.9119 183.826C28.566 184.077 28.1932 184.663 28.247 185.034C28.7121 188.247 28.0856 191.233 26.575 194.161ZM70.9499 199.463C70.8808 199.542 70.8961 199.692 70.8039 200.108C75.0857 199.075 79.1757 198.149 83.2166 197.039C83.7739 196.886 84.3493 195.867 84.4619 195.175C85.2679 190.206 88.176 186.943 92.911 185.855C97.8232 184.726 103.197 186.637 104.824 192.363C107.029 200.126 99.8342 205.902 93.2323 204.843C89.9818 204.321 87.5622 202.69 85.5346 200.234C85.2206 199.854 84.5564 199.375 84.2028 199.473C79.9983 200.645 75.8237 201.918 71.5803 203.181C73.7904 204.445 75.9812 205.451 77.8912 206.843C81.8916 209.759 83.5675 214.191 85.1176 218.666C85.2787 219.131 85.7922 219.871 86.0662 219.839C89.4583 219.442 93.0036 219.418 96.1858 218.342C104.722 215.455 109.5 209.283 110.143 200.225C110.353 197.267 110.493 194.14 109.762 191.324C109.047 188.568 107.455 185.91 105.753 183.569C103.487 180.455 100.886 177.479 97.199 175.929C95.4005 175.173 93.4518 174.609 91.52 174.368C85.7053 173.646 80.4176 175.418 75.4508 178.28C75.028 178.523 74.586 179.362 74.6898 179.791C76.454 186.935 76.0581 193.636 70.9499 199.463ZM120.073 143.369C115.375 139.574 110.419 136.329 104.343 135.34C96.6117 134.08 89.3425 135.031 83.0278 140.36C84.0875 142.144 85.1557 143.942 85.9467 145.273C89.9687 144.467 93.7074 143.131 97.4576 143.098C103.926 143.04 110.016 144.76 115.163 149.131C119.355 152.69 120.103 157.374 119.96 162.376C119.832 166.858 118.517 171.162 116.132 174.86C114.017 178.141 111.08 180.893 108.346 184.063C109.098 185.394 110.129 187.217 111.148 189.021C121.307 185.795 128.129 173.151 127.646 164.381C127.478 161.318 127.196 158.261 126.911 155.206C126.447 150.221 123.909 146.466 120.073 143.369ZM119.763 129.443C117.078 129.316 114.414 128.766 111.73 128.521C109.265 128.296 106.997 128.977 104.804 130.15C102.902 131.167 100.861 131.924 98.497 132.966C100.685 133.211 102.525 133.359 104.346 133.633C108.524 134.261 112.371 135.827 115.774 138.287C118.35 140.149 120.946 140.038 123.599 138.861C128.291 136.781 131.277 132.861 134.393 128.628C129.265 130.047 124.498 129.667 119.763 129.443ZM121.376 118.938C117.81 119.471 114.675 120.882 111.974 123.186C110.906 124.097 110.158 125.382 108.907 126.943C115.645 127.319 121.813 127.827 127.986 127.92C130.177 127.954 132.403 127.045 134.576 126.437C135.876 126.073 136.596 125.138 136.838 123.707C137.347 120.704 138.019 117.729 138.68 114.463C133.051 117.387 127.183 118.07 121.376 118.938ZM118.133 111.891C112.851 113.475 112.867 113.525 112.368 119.021C112.322 119.531 112.261 120.041 112.169 120.909C117.943 116.561 124.758 117.236 130.954 115.601C136.009 114.267 137.992 112.165 138.663 107.081C138.787 106.145 138.858 105.197 138.867 104.253C138.894 101.482 138.876 98.7111 138.876 95.7242C134.751 104.97 127.063 109.213 118.133 111.891ZM105.406 89.1292C104.7 91.7229 104.33 94.4112 103.87 97.0671C103.184 101.029 102.755 105.067 99.7473 108.565C102.246 108.357 104.381 108.349 106.424 107.911C107.08 107.771 107.742 106.565 107.977 105.728C109.638 99.7854 111.475 93.9326 115.587 89.1327C118.146 86.1458 120.805 83.2504 124.894 82.2637C124.861 82.0542 124.828 81.8451 124.795 81.636C120.694 81.9009 116.59 82.1376 112.492 82.4382C108.34 82.7422 106.382 85.5358 105.406 89.1292ZM92.8138 99.8434C92.9352 103.657 93.6497 107.453 94.1187 111.376C98.0165 109.447 100.152 106.052 101.201 101.982C102.054 98.6699 102.399 95.2299 103.166 91.8917C103.911 88.6457 104.905 85.4566 105.8 82.2038C102.776 82.7968 99.3745 83.1151 96.2661 84.2417C94.9781 84.7083 93.7151 86.8146 93.4879 88.3321C92.9194 92.1219 92.6919 96.0101 92.8138 99.8434ZM87.1959 129.333C86.4379 131.534 85.633 133.718 84.8347 135.95C89.3287 134.291 93.8166 132.75 98.2133 130.982C104.101 128.615 108.144 124.447 109.61 118.158C109.941 116.74 109.736 115.145 109.525 113.667C109.278 111.926 107.973 111.179 106.309 111.053C100.813 110.639 96.5213 112.946 93.0644 117.031C90.0348 120.61 88.6868 125.008 87.1959 129.333ZM92.0066 86.4575C87.4242 89.961 82.9248 93.217 81.3266 98.984C80.8239 100.798 80.8327 102.413 81.9942 104.088C85.7268 109.472 87.6621 115.471 87.5714 122.388C90.724 116.298 93.2777 110.665 91.686 103.655C90.4464 98.1968 90.7178 92.4086 92.0066 86.4575ZM138.394 82.67C132.405 81.7667 126.759 82.3241 121.839 85.4997C117.341 88.4028 114.256 92.7753 112.393 97.7978C111.296 100.756 110.481 103.885 110.059 107.008C109.696 109.697 111.108 111 113.86 110.791C119.649 110.352 124.788 108.077 129.52 104.769C136.226 100.081 138.796 93.5206 138.4 85.5631C138.353 84.6076 138.394 83.6478 138.394 82.67ZM125.021 179.563C129.825 175.743 135.279 173.297 137.154 166.923C138.597 162.019 142.871 154.14 146.853 150.598C141 150.872 137.94 151.642 133.912 153.918C130.932 155.602 129.099 157.816 129.308 161.607C129.651 167.818 129.204 171.377 125.021 179.563ZM129.307 280.321C129.189 283.228 130.473 285.125 132.664 286.704C136.83 289.702 141.637 290.482 146.892 290.917C142.08 285.869 139.319 280.066 136.942 274.052C135.556 270.546 133.686 267.529 130.232 265.631C128.477 264.667 126.947 263.292 125.564 262.284C126.62 265.429 127.997 268.684 128.759 272.076C129.357 274.737 129.417 277.577 129.307 280.321ZM91.7087 336.671C92.1357 333.419 92.7357 330.229 91.4131 327.101C90.3146 324.501 89.0431 321.974 88.0707 319.891C87.1897 323.488 86.3568 327.527 85.1683 331.459C84.6229 333.262 83.5552 334.986 82.4163 336.516C80.1805 339.521 80.9695 342.335 82.4524 345.274C84.573 349.478 88.3067 352.038 91.9716 354.967C90.704 348.744 90.9185 342.686 91.7087 336.671ZM52.5658 348.001C58.4811 349.108 64.3389 348.239 70.0275 346.46C71.4842 346.005 72.9871 345.195 74.071 344.139C79.4486 338.89 83.9522 333.002 85.3263 325.392C86.5778 318.461 86.14 311.707 81.8605 305.688C81.4089 305.053 80.9995 304.387 80.4975 303.623C78.5853 304.754 76.8307 305.791 75.3278 306.68C76.0735 309.81 76.9422 312.748 77.453 315.748C78.1629 319.917 77.3419 323.997 76.0466 327.96C74.9896 331.206 73.1908 334.02 70.8923 336.577C68.6245 339.1 65.7187 340.096 62.5477 340.376C52.1814 341.295 43.856 337.53 37.6101 329.196C37.5025 329.054 37.3756 328.928 37.1796 328.705C35.3577 329.732 33.5359 330.758 31.6333 331.83C35.5538 341.266 42.9144 346.196 52.5658 348.001ZM54.895 358.305C60.4529 360.04 65.5996 363.003 70.1658 367.471C69.9314 363.509 69.4663 359.954 67.925 356.618C67.3984 355.475 66.7488 354.374 66.0416 353.332C64.4849 351.046 62.4708 349.702 59.5074 349.917C53.15 350.378 47.1308 349.214 41.5729 345.82C45.0284 351.039 48.2455 356.226 54.895 358.305ZM66.9564 382.061C68.1633 378.494 69.6969 375.284 70.2273 371.921C70.5694 369.741 68.5707 367.919 66.7219 366.56C62.2748 363.286 57.3703 360.873 52.2429 358.867C50.7439 358.28 49.314 357.51 47.6382 356.723C47.569 362.901 50.8976 366.949 55.3486 370.426C59.5689 373.725 63.793 377.048 66.9564 382.061ZM45.5895 371.723C48.5722 375.257 51.7048 378.713 54.28 382.533C56.713 386.143 57.8316 390.394 58.0122 394.798C58.0507 395.782 57.7893 396.782 57.6048 398.231C58.1467 397.493 58.5157 397.097 58.7579 396.636C60.3914 393.557 62.098 390.517 63.5817 387.369C65.4228 383.448 63.9161 380.158 61.041 377.46C58.0122 374.619 54.6682 372.115 51.6587 369.257C49.9137 367.598 48.5568 365.53 47.0002 363.616C46.389 365.031 45.824 366.701 44.9669 368.205C44.1328 369.671 44.6325 370.588 45.5895 371.723ZM37.295 397.443C38.9554 402.021 42.7183 404.834 46.585 407.432C47.7727 408.232 49.1526 408.743 50.5978 409.466C54.1839 404.646 56.5247 399.461 56.1673 393.515C56.0135 390.947 55.091 388.345 54.1225 385.92C52.1391 380.954 48.8989 376.829 44.6978 373.527C41.4038 370.936 39.286 371.505 37.7793 375.38C34.9542 382.66 34.6121 390.063 37.295 397.443ZM28.4737 378.69C27.5128 381.284 26.4789 383.863 25.714 386.519C23.6884 393.53 26.3136 395.579 30.5724 398.477C33.0554 400.16 35.7191 401.575 38.5979 402.862C38.0944 402.209 37.4794 401.613 37.1028 400.894C34.3776 395.694 33.2553 390.151 34.1086 384.332C34.6198 380.835 35.4731 377.387 36.1803 373.918C36.4147 372.777 36.2841 371.897 35.1387 371.173C33.5359 370.155 32.0714 368.909 30.1765 367.479C31.1835 371.72 29.7652 375.188 28.4737 378.69ZM12.734 239.829C12.5688 240.29 12.7955 241.035 13.0877 241.493C15.1017 244.657 18.3573 246.123 21.8896 245.13C22.9351 244.836 24.1573 243.644 24.484 242.608C25.5564 239.206 23.6884 235.267 20.529 233.552C20.2253 233.386 19.7564 233.158 19.5219 233.274C17.0005 234.514 14.629 233.493 12.0576 232.777C12.8493 235.22 13.5873 237.424 12.734 239.829ZM12.0191 208.689C14.529 207.819 16.8582 207.105 19.3412 208.057C19.6718 208.183 20.233 208.062 20.5367 207.843C23.8307 205.45 25.6295 202.739 24.4264 198.599C24.1458 197.624 22.9043 196.517 21.8896 196.236C18.3534 195.253 14.7673 196.911 12.957 200.087C12.7186 200.509 12.5995 201.171 12.7494 201.613C13.5566 204.011 12.8801 206.226 12.0191 208.689ZM65.342 93.7751C58.3197 92.4774 51.3781 92.4928 44.8592 95.8072C38.9246 98.8256 33.901 102.846 31.7601 109.651C33.5243 110.651 35.3462 111.683 36.876 112.548C39.2475 110.27 41.3231 107.881 43.7869 105.999C47.5229 103.142 51.8893 101.515 56.5939 101.058C58.7233 100.851 60.9065 100.899 63.0474 101.071C68.9205 101.544 72.1453 105.54 74.7244 110.232C76.8307 114.059 77.4353 118.32 77.7205 122.58C77.9734 126.366 76.8422 129.965 75.447 133.459C75.3163 133.785 75.1895 134.111 75.0203 134.537C76.8691 135.635 78.6588 136.697 80.4349 137.751C87.8439 129.144 87.4403 114.99 81.1537 105.94C79.3395 103.329 77.3289 100.843 75.274 98.4113C72.7065 95.3667 69.055 94.4608 65.342 93.7751ZM52.6349 84.1306C49.5562 85.3386 46.9002 87.1352 45.1898 90.1812C44.1443 92.0454 42.7068 93.6905 41.3538 95.5608C43.8599 94.5207 46.1738 93.4549 48.5645 92.5908C52.0891 91.3174 55.7944 91.1718 59.4689 91.4573C62.9667 91.7295 64.9807 89.863 66.645 87.2132C68.4785 84.2978 69.4086 81.0864 69.8237 77.6994C69.9813 76.4083 70.1581 75.1191 70.3311 73.7923C65.2767 78.7256 59.073 81.6064 52.6349 84.1306ZM54.3915 71.7652C51.3243 74.1628 49.2564 77.1763 48.0072 80.7678C47.6036 81.9259 47.7035 83.2588 47.5729 84.5119C47.7151 84.6664 47.8573 84.8213 47.9995 84.9758C54.1301 81.6956 60.3107 78.5039 66.3529 75.0684C67.7328 74.2828 68.7283 72.7257 69.7353 71.3977C70.5463 70.3276 70.3311 69.0861 69.8699 67.8389C68.8744 65.1552 67.9865 62.4328 66.9449 59.404C63.5471 64.7182 58.9308 68.2213 54.3915 71.7652ZM49.7253 65.3413C48.307 66.9033 46.8464 68.4316 45.3858 69.9525C44.4979 70.8738 44.1905 71.7506 44.8862 73.0174C45.7471 74.5841 46.3506 76.2918 47.2654 78.392C49.4678 72.424 54.7028 69.8756 58.6695 66.0996C60.0609 64.774 61.5599 63.5136 62.7283 62.0058C64.9231 59.1722 64.7194 56.0112 63.2165 52.964C61.6214 49.7414 59.8187 46.6235 58.0122 43.2826C57.8623 45.7675 57.943 47.9914 57.5548 50.1312C56.5016 55.9712 53.6919 60.9726 49.7253 65.3413ZM35.6575 56.3072C35.9074 59.8483 37.0528 63.3745 38.1482 66.793C39.0015 69.4663 41.3192 70.2808 43.4409 68.7149C51.0475 63.1085 56.0558 55.8121 56.1557 46.1057C56.2134 40.883 53.8957 36.1991 50.6555 32.0733C39.1207 36.9571 34.8235 44.3807 35.6575 56.3072ZM30.1534 73.8803C32.179 72.4367 33.9663 71.4027 35.4154 70.0163C36.0035 69.4555 36.1265 68.0864 35.9919 67.1524C35.3539 62.7045 34.074 58.2943 33.9395 53.8434C33.778 48.4784 34.7389 43.1473 38.4634 38.8032C38.5249 38.734 38.4865 38.583 38.5364 37.9311C34.785 40.4025 31.222 42.5757 27.8588 45.0195C25.0452 47.0613 24.4841 50.1354 25.3258 53.3087C26.1753 56.502 27.3745 59.6043 28.4776 62.7257C29.7229 66.2419 31.245 69.6977 30.1534 73.8803ZM145.144 106.215C144.971 98.1349 144.848 90.0525 144.798 81.9704C144.785 79.8257 145.1 77.679 145.257 75.6453H122.592C120.168 75.6457 117.744 75.6895 115.321 75.633C113.641 75.5938 111.965 75.339 110.285 75.3202C107.16 75.284 104.024 75.2018 100.913 75.4189C98.4093 75.5938 95.9271 76.1381 93.4503 76.5963C88.9494 77.4288 85.4881 80.1247 82.0361 82.9125C78.1168 86.0774 76.5924 90.8078 73.9826 94.5849C75.0088 95.7172 75.9774 96.7881 77.0421 97.9619C78.445 95.9521 79.5808 93.8857 81.1248 92.1911C86.5056 86.2838 92.9594 82.4974 101.089 81.2709C107.632 80.2835 114.166 80.3569 120.701 80.2031C126.656 80.0628 132.625 80.5883 138.589 80.7689C139.589 80.7993 139.983 81.0972 139.993 82.133C140.006 83.6928 140.241 85.2506 140.267 86.8108C140.382 93.7512 140.6 100.694 140.509 107.633C140.409 115.175 139.835 122.731 136.453 129.629C135.189 132.207 132.999 134.338 131.185 136.636C130.335 137.711 129.489 138.84 128.437 139.694C126.717 141.09 124.831 142.28 122.786 143.718C123.976 144.755 125.066 145.705 126.235 146.725C130.015 144.184 134.654 142.468 137.997 138.64C142.298 133.715 144.732 128.144 145.123 121.644C145.31 118.53 145.639 115.418 145.677 112.303C145.703 110.277 145.188 108.248 145.144 106.215ZM84.8059 58.0537C88.0211 56.8768 91.2617 55.7675 94.4884 54.6213C95.8103 54.1516 96.4541 54.5007 96.6943 55.9908C97.1721 58.952 97.902 61.8712 98.4086 64.8282C98.9148 67.7793 99.2749 70.7554 99.7185 73.8584C102.876 73.7177 105.986 73.5786 109.265 73.4322C106.955 63.4221 104.667 53.5063 102.359 43.5078C92.6258 46.4836 82.8848 49.4616 72.9332 52.505C74.4515 55.3424 75.8967 58.0472 77.423 60.8973C79.9079 59.9367 82.3421 58.9551 84.8059 58.0537ZM80.0094 82.4709C81.568 81.2298 83.0086 79.4748 84.8559 78.7368C88.7848 77.1666 88.5969 74.2632 88.0838 71.043C87.9892 70.4503 87.8785 69.8599 87.7059 68.8701C85.4524 69.8745 83.2761 70.8123 81.1418 71.8378C80.89 71.9585 80.7854 72.5512 80.7528 72.9371C80.4879 76.0877 80.2569 79.2407 80.0094 82.4709ZM80.6624 70.1224C82.1649 69.4521 83.6828 68.7936 85.1845 68.1014C88.4166 66.6116 88.8037 66.7496 89.5009 70.1777C89.8572 71.932 89.9533 73.7389 90.172 75.5642C92.4348 75.1053 94.6583 74.7167 96.8396 74.1605C97.2901 74.046 97.9531 73.2492 97.892 72.8668C97.0283 67.4707 96.0582 62.0915 95.103 56.71C95.0861 56.6154 94.9393 56.5439 94.5949 56.2161C89.2288 58.2186 83.7178 60.2754 78.1302 62.3601C79.0231 65.0964 79.8045 67.4914 80.6624 70.1224ZM109.54 30.9606C95.3917 34.9868 81.3812 38.9742 67.064 43.0477C68.4823 45.5503 69.5931 47.5367 70.727 49.507C71.3689 50.614 72.1376 50.9891 73.5405 50.5482C82.7845 47.6409 92.0631 44.8427 101.335 42.0226C103.636 41.3231 103.743 41.4561 104.27 43.8084C105.691 50.1454 107.161 56.4713 108.617 62.8002C109.345 65.9678 110.119 69.125 110.801 72.3021C111.005 73.2473 111.287 73.8261 112.396 73.8015C114.799 73.7485 117.204 73.785 120.041 73.785C117.328 59.2418 113.111 45.3797 109.54 30.9606ZM1.60284 0.955943C8.26004 7.79917 15.0402 14.524 21.6898 21.3769C24.9261 24.7143 28.0163 28.2016 31.0644 31.7128C31.8293 32.5903 32.3712 32.5127 33.2092 32.048C35.4769 30.7896 37.7946 29.6246 40.0393 28.3254C44.3634 25.8209 49.0488 23.8991 52.7464 20.3706C53.6227 19.5361 54.2493 20.1073 54.6105 21.0967C57.2627 28.3738 62.1249 34.4107 65.8955 41.0617C66.08 41.393 66.8987 41.6552 67.2984 41.5353C74.4438 39.3928 81.5476 37.1039 88.7095 35.0164C95.5216 33.0312 102.392 31.2481 109.233 29.3609C110.226 29.0868 110.812 29.2702 111.088 30.3871C111.809 33.3064 112.629 36.2007 113.395 39.1088C114.776 44.3546 116.238 49.5812 117.497 54.8562C118.907 60.7616 120.141 66.7089 121.418 72.6454C121.64 73.6797 122.197 73.9926 123.2 73.9764C125.865 73.9341 128.533 74.0091 131.199 73.9645C135.987 73.8842 140.779 73.8473 145.558 73.5821C147.102 73.4963 147.353 73.8803 147.182 75.2556C146.884 77.641 146.563 80.0432 146.55 82.4398C146.529 86.8968 146.749 91.3547 146.819 95.813C146.865 98.8245 146.838 98.7818 149.768 99.4817C157.071 101.226 164.374 102.973 171.657 104.798C177.836 106.346 183.985 108.015 190.154 109.602C191.17 109.863 191.845 110.241 191.481 111.447C191.012 113.003 190.537 114.557 190.101 116.122C188.403 122.212 186.773 128.321 185.017 134.395C183.212 140.639 181.344 146.867 179.368 153.059C179.031 154.113 179.113 154.588 180.013 155.082C186.658 158.73 192.605 163.623 199.868 166.17C200.916 166.538 201.09 167.258 200.344 168.135C200.033 168.501 199.677 168.844 199.437 169.254C195.818 175.446 192.195 181.635 188.657 187.873C188.446 188.246 188.762 189.221 189.147 189.58C192.191 192.425 195.401 195.097 198.39 197.998C205.542 204.941 212.597 211.984 219.698 218.98C221.456 220.713 221.461 220.696 219.627 222.502C213.169 228.86 206.753 235.261 200.246 241.568C196.732 244.974 193.131 248.299 189.424 251.491C188.34 252.426 188.169 253.07 188.903 254.153C189.17 254.547 189.334 255.008 189.581 255.416C193.208 261.39 195.674 268.062 200.404 273.377C201.181 274.249 200.793 274.919 199.765 275.287C192.462 277.894 186.438 282.78 179.786 286.546C179.438 286.742 179.132 287.553 179.249 287.947C181.456 295.392 183.804 302.796 185.965 310.254C187.722 316.323 189.259 322.456 190.916 328.554C191.68 331.366 191.693 331.31 188.988 332.017C181.601 333.947 174.248 336.014 166.837 337.853C160.604 339.398 154.304 340.676 148.054 342.156C147.566 342.272 146.907 343.031 146.882 343.519C146.711 346.827 146.578 350.146 146.647 353.457C146.738 357.783 147.019 362.105 147.238 366.427C147.297 367.58 146.999 368.198 145.674 367.832C144.869 367.61 144.022 367.421 143.193 367.417C136.425 367.384 129.655 367.418 122.887 367.377C121.798 367.37 121.597 367.988 121.427 368.806C120.438 373.58 119.595 378.39 118.406 383.118C116.084 392.342 113.534 401.509 111.162 410.723C110.8 412.129 110.175 412.287 108.967 411.941C104.111 410.542 99.2346 409.22 94.3823 407.813C85.4259 405.215 76.4848 402.563 67.5214 399.995C67.0256 399.853 66.0454 400.114 65.8263 400.495C62.0596 407.079 57.255 413.083 54.6029 420.293C54.0763 421.727 53.4382 421.681 52.362 420.747C51.0014 419.571 49.5792 418.406 48.0225 417.514C43.5716 414.962 39.0515 412.518 34.5237 410.096C31.9753 408.736 31.9446 408.801 30.0843 411.099C29.8921 411.334 29.6653 411.541 29.4577 411.757C24.3764 417.019 19.3105 422.288 14.2177 427.535C9.96275 431.913 5.65402 436.233 1.42601 440.634C0.895584 441.191 0.449738 441.468 3.05176e-05 441.464V438.893C0.680359 438.897 1.36453 438.209 2.75209 436.821C8.34845 431.213 14.0255 425.678 19.5411 419.99C23.2733 416.138 26.7826 412.076 30.6262 407.855C28.0741 406.472 25.8217 405.196 23.5078 404.035C23.1273 403.846 22.2893 403.973 22.0011 404.277C17.4502 409.104 12.9531 413.982 8.44452 418.848C6.09988 421.373 3.72835 423.876 1.42601 426.439C0.914795 427.012 0.461258 427.304 3.05176e-05 427.3V425.302L0.00387573 425.305C6.98778 417.833 13.9333 410.411 21.0171 402.836C18.3189 401.16 15.6398 399.499 12.9454 397.827C9.97816 401.429 7.0416 405.007 4.08968 408.57C3.16721 409.681 2.24086 410.796 1.23767 411.833C0.822556 412.264 0.411301 412.472 3.05176e-05 412.468V410.65C1.19925 409.35 2.36388 408.182 3.41704 406.917C5.73091 404.135 7.97174 401.29 10.2664 398.492C11.1543 397.412 11.7308 396.601 10.0704 395.506C8.42912 394.418 7.09155 392.869 5.56947 391.478C4.1281 393.28 2.7175 395.006 1.353 396.766C0.880234 397.378 0.438202 397.658 3.05176e-05 397.65V396.14C1.52211 394.014 2.82126 392.235 4.07043 390.421C4.23572 390.182 4.28568 389.706 4.16653 389.444C2.74823 386.362 1.28766 383.298 0.00772095 380.589L3.05176e-05 380.612V364.718C1.84114 364.693 3.67072 364.33 5.53104 363.753C10.8545 362.099 15.686 359.596 19.8179 355.882C22.9659 353.056 24.976 349.39 26.7441 345.587C28.6198 341.543 28.5007 337.284 28.2739 332.884H22.0049C21.5206 334.91 21.167 337.041 20.4943 339.066C17.3579 348.542 11.0082 354.718 1.22998 356.977C0.814865 357.072 0.407455 357.128 3.05176e-05 357.154V355.303C2.84818 355.33 5.3965 354.183 7.81799 352.673C14.0409 348.79 18.2958 343.33 19.6449 335.919C19.8371 334.864 19.9678 333.799 20.1523 332.551C17.7385 332.002 15.5245 331.499 13.1414 330.957C12.8647 331.982 12.5764 333.012 12.3074 334.046C11.0928 338.664 8.74817 342.484 4.46634 344.844C2.91351 345.702 1.42987 346.164 3.05176e-05 346.236V344.612C2.32544 344.651 4.47017 343.299 6.80327 340.938C9.46692 338.243 10.6046 334.716 11.3234 331.077C11.3964 330.711 11.039 330.086 10.6969 329.84C9.28627 328.831 7.80263 327.922 6.57266 327.121C5.56946 329.297 4.78923 331.591 3.52852 333.581C2.55608 335.112 1.27997 335.876 3.05176e-05 335.875V333.483C0.557358 333.45 1.14545 333.155 1.69894 332.616C3.88213 330.483 4.5663 327.689 4.5394 324.861C4.52402 323.593 3.22868 322.358 2.58679 321.072C1.63358 319.155 0.749557 317.207 0.0692291 315.767C0.0461731 315.81 0.0230865 315.857 3.05176e-05 315.901V304.012C5.06596 304.001 9.25171 301.444 12.465 297.663C15.9012 293.625 16.8698 288.806 15.6744 283.558C15.4169 282.429 15.0556 282 13.9256 282.081C12.8493 282.158 11.7654 282.098 10.6123 282.098C10.6123 284.1 10.6508 285.838 10.6085 287.574C10.4586 293.71 6.72641 297.866 2.21013 299.239C1.46831 299.465 0.726471 299.566 3.05176e-05 299.566V297.799C2.98654 297.795 5.87697 295.932 7.50284 292.944C9.4016 289.445 9.24782 285.635 8.67513 281.833C8.63284 281.545 8.29077 281.242 8.01402 281.059C6.61494 280.131 5.19278 279.241 3.63995 278.248C3.94745 280.14 4.43945 281.932 4.48558 283.736C4.53171 285.622 4.36256 287.574 3.89365 289.396C3.47853 291.012 1.57208 292.144 3.05176e-05 292.121V290.325L0.00772095 290.325C0.814896 290.33 1.91801 289.393 2.35619 288.58C2.86739 287.635 2.9904 286.368 2.94427 285.256C2.78284 281.5 1.94876 277.879 0.29985 274.476C0.269089 274.415 0.180679 274.378 3.05176e-05 274.305V266.528C0.172989 266.531 0.345947 266.533 0.522751 266.527C4.14348 266.397 7.46054 262.937 7.63351 259.329C7.66426 258.675 7.85645 258.028 7.87566 257.374C7.91409 256.027 7.83722 254.836 6.0999 254.389C3.28635 253.667 1.25691 251.884 0.0154114 248.942L3.05176e-05 248.979V242.108L0.0269165 242.111C0.588089 242.095 1.35684 241.328 1.63358 240.709C3.59384 236.33 2.09866 232.363 3.05176e-05 228.024V213.351C0.0153961 213.387 0.0346222 213.422 0.0500031 213.458C1.90648 209.158 3.62845 205.339 1.75275 201.087C1.42989 200.354 0.638092 199.829 0.0615387 199.207L3.05176e-05 199.265V192.391L0.0269165 192.443C1.29147 189.435 3.47853 187.772 6.38432 186.864C6.94165 186.689 7.63351 185.9 7.69118 185.337C7.9756 182.495 7.29527 178.587 4.71234 176.556C3.30942 175.451 1.64896 174.928 3.05176e-05 174.938V167.178C0.215271 167.207 0.430496 167.235 0.649582 167.264C1.4183 163.835 2.32544 160.427 2.8943 156.965C3.11723 155.607 2.84433 154.019 2.30621 152.74C1.99104 151.99 0.845627 151.213 3.05176e-05 151.13V149.237C0.0615234 149.237 0.126862 149.234 0.18837 149.237C1.83728 149.315 3.75526 150.661 4.02817 152.536C4.36641 154.861 4.26262 157.261 4.2088 159.625C4.1819 160.796 3.83597 161.96 3.6284 163.161C5.11591 162.214 6.69182 161.484 7.8795 160.346C8.55598 159.696 8.77892 158.397 8.88269 157.358C9.34778 152.8 8.68285 148.603 4.86995 145.428C3.30943 144.129 1.62973 143.586 3.05176e-05 143.606V141.869C2.12556 141.808 4.01663 142.675 5.71553 143.967C9.05951 146.504 10.5893 150.018 10.6123 154.197C10.6239 155.82 10.6162 157.442 10.6162 159.319C11.9 159.319 13.276 159.39 14.6328 159.27C14.9749 159.24 15.4438 158.649 15.5514 158.235C17.7039 150.232 13.5796 142.4 7.09923 139.596C5.02367 138.697 2.87509 137.41 0.730331 137.347C0.484329 137.339 0.242172 137.344 3.05176e-05 137.349V125.429L0.0500031 125.521C0.995529 123.623 2.07175 121.085 3.49774 118.761C4.45096 117.207 4.96219 115.716 4.28186 114.063C3.54004 112.256 2.70979 110.447 1.62973 108.83C1.18387 108.16 0.60733 107.884 3.05176e-05 107.928V105.516C1.31456 105.52 2.62909 106.399 3.71301 108.15C4.88916 110.052 5.61562 112.231 6.55347 114.304C7.98715 113.353 9.67451 112.234 11.458 111.052C10.3164 105.193 8.29846 99.9314 2.21397 97.2951C1.43372 96.9564 0.69957 96.8062 3.05176e-05 96.7931V95.108C2.61371 95.0346 4.7892 96.4975 6.81096 98.1991C9.72444 100.651 11.6309 103.871 12.3574 107.701C12.538 108.636 12.8839 109.539 13.153 110.472C15.5284 109.912 17.7807 109.381 20.0754 108.839C19.4489 99.466 14.6636 92.8676 7.0685 88.2098C4.68159 86.7458 2.32159 86.0931 3.05176e-05 86.1185V84.3858C2.89813 84.3397 5.51567 85.4493 7.92947 86.8246C13.5143 90.0017 17.7538 94.6118 20.0254 100.737C20.7711 102.748 21.1132 104.92 21.5206 107.042C21.732 108.136 22.028 108.777 23.3309 108.684C24.9414 108.568 26.5711 108.656 28.1355 108.656C29.3847 100.491 26.7557 93.7082 21.7551 87.6956C16.7391 81.6687 9.91666 78.706 2.55606 76.8791C1.7489 76.6789 0.880219 76.6182 3.05176e-05 76.6447V60.8285L0.0115662 60.8511C1.26076 58.1813 2.6752 55.2002 4.03201 52.1922C4.19345 51.8312 4.1973 51.2116 3.98973 50.9015C2.79436 49.1088 1.5106 47.373 0.0231171 45.2863L3.05176e-05 45.3178V43.7019C0.641922 43.6942 1.27995 44.5425 2.77898 46.2541C3.80139 47.4241 4.60857 48.7836 5.47723 50.0001C7.46823 48.2113 9.3862 46.4847 11.5617 44.531C7.71422 39.8675 3.97437 35.3328 0.00772095 30.5178L3.05176e-05 30.5255V28.8439C0.430511 28.8408 0.853333 29.1095 1.2646 29.5992C5.13901 34.2066 9.01721 38.8143 12.9992 43.547C15.5591 41.9627 18.2382 40.3038 21.0133 38.5864C13.9448 31.0194 7.02623 23.6158 0.0115662 16.1107L3.05176e-05 16.1222V14.0643C0.545822 14.0632 1.08777 14.5821 2.04868 15.6271C6.58418 20.5689 11.162 25.4719 15.7244 30.3895C17.6885 32.5092 19.6949 34.5929 21.6013 36.7645C22.3009 37.5625 22.862 37.9157 23.8806 37.3084C25.9985 36.0481 28.1663 34.8796 30.8568 33.3698C20.4828 22.6791 10.3702 12.259 0.0115662 1.58284L3.05176e-05 1.59437V2.7313e-05C0.495865 -0.00343197 0.984024 0.321741 1.60284 0.955943Z" fill="url(#paint0_linear_1049_9665)"/>
</g>
<defs>
<linearGradient id="paint0_linear_1049_9665" x1="-247.981" y1="220.731" x2="238.029" y2="220.731" gradientUnits="userSpaceOnUse">
<stop stop-color="#BC945C"/>
<stop offset="0.2" stop-color="#A17A48"/>
<stop offset="0.3" stop-color="#9E7645"/>
<stop offset="0.5" stop-color="#DEAF70"/>
<stop offset="0.6" stop-color="#FAC883"/>
<stop offset="0.7" stop-color="#EEBC7B"/>
<stop offset="1" stop-color="#966F41"/>
</linearGradient>
</defs>
</svg>
