<svg width="221" height="442" viewBox="0 0 221 442" fill="none" xmlns="http://www.w3.org/2000/svg">
<g opacity="0.5">
<path fill-rule="evenodd" clip-rule="evenodd" d="M191.806 36.2364C196.998 39.171 202.214 42.0772 207.28 45.2209C215.098 50.0751 218.996 57.476 220.145 66.3964C220.472 68.9324 220.203 71.5476 220.153 74.1252C220.145 74.3831 219.791 74.7855 219.522 74.8597C218.273 75.2095 216.993 75.4678 215.802 75.741C215.548 73.4721 215.436 71.3032 215.044 69.1876C213.507 60.9276 209.429 54.2893 202.71 49.0896C195.899 43.8145 188.419 39.6976 180.92 35.5738C177.607 33.7507 174.229 32.0472 170.915 30.2226C170.02 29.7295 169.605 29.8329 169.063 30.7281C166.718 34.584 164.189 38.3277 161.91 42.2202C158.866 47.4241 155.783 52.6257 153.104 58.0191C150.533 63.1923 148.442 68.6364 148.326 74.5314C148.28 76.8987 148.745 79.2941 149.153 81.6472C149.476 83.5294 149.914 85.4209 150.571 87.2097C151.224 88.9886 152.216 90.644 153.154 92.5501C151.609 93.0121 150.29 93.4068 148.872 93.8308C146.75 89.6435 143.787 85.9336 142.689 81.1225C141.182 74.5153 141.861 68.2863 144.894 62.3575C147.143 57.9665 149.741 53.75 152.247 49.4939C155.887 43.3068 159.611 37.1677 163.251 30.9794C164.889 28.1947 166.411 25.3408 167.821 22.8148C175.735 27.2396 183.792 31.7044 191.806 36.2364ZM211.681 73.9726C211.27 76.0555 210.428 77.724 208.322 78.7502C202.495 81.5853 197.69 85.6054 194.423 91.8332C194.327 91.0676 194.216 90.7051 194.246 90.355C194.423 88.3859 194.662 86.4218 194.827 84.4515C195.084 81.4116 196.157 78.6791 198.079 76.3491C202.483 71.0149 206.212 65.299 208.514 58.5661C210.651 63.5621 212.773 68.4312 211.681 73.9726ZM193.543 64.6148C195.123 60.2035 196.48 55.7091 197.852 51.2251C198.159 50.2108 198.109 49.0869 198.259 47.6732C200.546 49.5535 202.718 51.3558 204.905 53.1392C207.672 55.3939 207.126 58.425 205.862 60.8208C203.34 65.5865 200.227 70.039 197.325 74.5995C196.357 76.1173 195.288 77.5695 194.212 79.1269C191.279 74.3912 191.76 69.5835 193.543 64.6148ZM191.36 97.2101C190.895 99.8023 190.384 102.387 189.911 104.882C186.943 101.32 183.761 97.7209 180.832 93.9273C176.931 88.8733 175.409 83.2046 177.465 76.9533C177.907 75.6165 178.776 74.365 179.667 73.25C180.49 72.2245 181.624 71.8059 183.05 72.3694C188.612 74.5687 191.218 78.9701 192.34 84.543C193.209 88.8621 192.117 93.0225 191.36 97.2101ZM195.499 134.534C192.578 134.283 190.622 132.515 189.461 129.976C188.831 128.595 188.665 127.002 188.289 125.506C188.55 120.394 192.401 117.234 197.417 118.22C199.843 118.695 200.861 120.761 201.884 122.634C203.379 125.387 203.54 128.335 201.957 131.103C200.573 133.519 198.348 134.779 195.499 134.534ZM198.294 110.306C201.722 110.775 205.151 111.576 208.433 112.661C211.935 113.818 214.137 116.585 216.201 119.631C219.322 124.236 219.753 129.381 220.114 134.608C220.133 134.929 219.48 135.474 219.038 135.624C214.433 137.188 209.909 138.94 206.938 143.066C205.616 144.904 204.693 147.028 203.487 149.206C202.506 145.885 201.546 142.631 200.588 139.376C200.454 138.914 200.408 138.41 200.196 137.989C199.478 136.567 199.608 135.624 201.096 134.594C205.835 131.314 206.692 122.834 201.972 118.146C197.644 113.845 190.583 115.153 187.789 119.067C185.175 122.729 184.445 128.168 188.585 132.571C190.484 134.588 192.632 135.999 195.434 136.238C196.776 136.352 197.268 137.044 197.56 138.369C198.401 142.233 199.458 146.051 200.481 150.071C198.24 148.747 196.33 147.477 194.296 146.448C190.983 144.771 187.409 144.987 183.846 145.336C183.726 145.348 183.619 145.411 183.5 145.436C178.814 146.411 178.814 146.411 176.819 141.984C174.571 136.997 173.929 131.874 175.128 126.471C176.066 122.241 178.83 119.371 181.835 116.642C183.165 115.433 184.68 114.422 186.136 113.356C189.772 110.693 193.924 109.708 198.294 110.306ZM219.122 168.873C220.656 172.868 220.598 172.89 216.374 174.321C215.433 172.365 214.66 170.323 213.53 168.502C211.639 165.461 209.068 164.766 205.355 165.977C202.914 166.773 201.33 169.179 201.399 172.224C201.446 174.253 201.676 176.278 201.822 178.304C200.546 178.499 199.305 178.689 197.825 178.916C196.864 176.404 196.061 173.754 196.749 171.01C197.744 167.062 199.47 163.62 203.613 161.873C210.567 158.938 217.181 163.811 219.122 168.873ZM213.492 177.353C212.242 179.411 211.793 181.957 210.978 184.335C209.629 181.614 207.269 179.696 204.278 178.516C204.078 178.437 203.844 178.209 203.794 178.009C203.121 175.273 202.341 172.528 203.548 169.741C204.401 167.769 206.135 167.064 208.076 167.002C209.967 166.942 211.358 168.066 212.327 169.613C212.865 170.472 213.146 171.491 213.63 172.388C214.556 174.09 214.622 175.496 213.492 177.353ZM213.715 188.395C217.385 188.974 220.387 192.864 220.195 196.64C220.176 196.978 220.095 197.473 219.868 197.615C217.485 199.105 217.304 201.702 216.517 204.137C214.679 202.377 213.315 200.21 210.517 200.218C210.263 200.218 209.963 199.792 209.767 199.507C207.557 196.247 208.245 191.209 211.328 188.875C211.916 188.428 212.95 188.275 213.715 188.395ZM219.876 243.821C220.099 243.965 220.172 244.462 220.187 244.801C220.379 248.561 217.362 252.434 213.703 253.065C211.604 253.428 210.559 251.88 209.586 250.463C207.968 248.104 208.164 244.032 209.894 241.762C210.067 241.536 210.274 241.271 210.52 241.178C214.057 239.864 214.06 239.871 216.517 237.298C217.297 239.739 217.52 242.316 219.876 243.821ZM214.395 265.554C214.552 265.729 214.572 266.174 214.468 266.41C213.499 268.582 212.784 270.951 211.404 272.833C210.055 274.675 207.838 274.926 205.681 273.838C203.748 272.864 202.929 271.193 202.983 269.113C203.025 267.618 203.217 266.124 203.413 264.638C203.552 263.595 204.075 263.036 205.135 262.439C207.019 261.38 208.568 259.716 210.213 258.257C210.628 257.887 210.886 257.338 211.485 256.491C211.493 260.125 212.196 263.099 214.395 265.554ZM216.417 267.026C216.766 267.187 217.243 267.413 217.723 267.623C220.349 268.766 220.164 268.72 219.465 271.638C218.377 276.184 211.996 281.133 207.315 280.424C203.948 279.914 200.957 278.834 198.997 275.797C196.226 271.499 195.83 267.382 197.871 262.504C199.274 262.71 200.569 262.901 201.834 263.087C201.684 265.167 201.449 267.244 201.399 269.325C201.33 272.291 203.029 274.756 205.478 275.474C209.202 276.566 211.739 275.866 213.515 272.954C214.633 271.121 215.421 269.087 216.417 267.026ZM202.752 312.315C203.479 316.078 201.753 320.89 199.063 322.5C196.291 324.163 193.674 322.908 191.16 321.845C188.512 320.724 188.542 318.209 188.55 315.812C188.554 311.444 190.849 308.037 194.431 307.083C198.09 306.109 202.034 308.589 202.752 312.315ZM219.026 305.829C219.465 305.973 220.122 306.499 220.106 306.819C219.999 308.915 219.734 311.003 219.522 313.094C219.049 317.799 216.566 321.557 213.749 325.121C211.839 327.537 209.102 328.829 206.239 329.594C203.36 330.364 200.369 330.814 197.398 331.153C192.428 331.721 188.185 329.812 184.357 326.835C181.105 324.309 177.907 321.676 176.166 317.821C175.413 316.154 174.882 314.312 174.652 312.498C173.883 306.496 175.639 301.034 178.703 295.952C178.941 295.556 179.894 295.401 180.494 295.446C183.457 295.664 186.417 296.215 189.38 296.214C192.667 296.212 195.526 294.672 198.163 292.774C198.836 292.289 199.516 291.809 200.504 291.103C199.389 295.655 198.417 299.86 197.275 304.02C197.137 304.523 196.137 305.007 195.476 305.113C190.599 305.891 187.27 308.728 186.182 313.358C184.68 319.767 188.062 325.969 196.007 325.814C200.75 325.72 203.121 322.727 204.582 319.204C206.05 315.66 205.435 311.823 202.918 308.594C202.549 308.121 202.234 307.478 201.738 307.257C199.355 306.194 199.716 304.605 200.419 302.58C201.576 299.241 202.418 295.791 203.533 291.892C203.952 292.846 204.217 293.396 204.436 293.965C207.023 300.724 212.642 303.732 219.026 305.829ZM188.062 365.513C186.667 366.847 184.972 367.9 183.311 368.912C181.751 369.862 180.386 369.196 179.375 367.866C176.604 364.223 176.07 360.09 176.919 355.714C177.826 351.046 180.682 347.441 183.592 343.904C185.675 341.372 187.908 338.965 189.926 336.667C190.787 341.222 191.994 345.995 192.517 350.841C193.097 356.237 192.252 361.495 188.062 365.513ZM202.122 373.566C204.232 376.833 206.358 380.127 206.692 384.244C206.823 385.862 206.262 386.873 205.197 387.815C202.96 389.786 200.711 391.743 198.209 393.934C198.067 387.707 195.811 382.499 193.724 377.252C192.363 373.825 191.644 370.326 192.39 366.689C192.705 365.144 193.493 363.694 194.097 362.119C196.887 366.071 199.643 369.728 202.122 373.566ZM208.91 362.98C211.474 364.236 211.985 366.932 211.877 369.352C211.747 372.371 210.997 375.38 210.321 378.352C209.978 379.847 209.206 381.242 208.772 382.318C206.665 378.521 204.605 374.55 202.283 370.739C200.819 368.333 198.943 366.18 197.283 363.892C195.557 361.518 194.9 358.821 194.808 355.912C194.746 353.961 194.45 352.017 194.258 350.07C197.825 356.002 202.86 360.018 208.91 362.98ZM214.925 372.992C215.329 370.63 215.525 368.233 215.829 365.702C216.905 365.934 218.139 366.112 219.299 366.503C219.68 366.631 220.087 367.304 220.11 367.748C220.214 369.658 220.418 371.612 220.141 373.483C219.68 376.614 219.103 379.762 218.169 382.779C215.978 389.844 210.728 394.383 204.62 397.931C196.226 402.812 187.674 407.421 179.202 412.176C175.378 414.32 171.592 416.527 167.979 418.598C165.365 414.186 162.644 409.531 159.861 404.903C155.979 398.446 151.962 392.062 148.176 385.543C145.298 380.585 142.746 375.453 142.007 369.629C141.533 365.901 141.942 362.222 143.265 358.793C144.748 354.953 146.758 351.318 148.576 347.508C150.314 348.024 151.636 348.416 153.073 348.843C152.939 349.28 152.92 349.73 152.693 350.015C150.102 353.275 149.618 357.314 148.765 361.147C147.485 366.9 148.707 372.464 150.786 377.894C154.507 387.592 160.18 396.221 165.504 405.042C166.649 406.941 167.914 408.766 169.055 410.673C169.539 411.48 169.874 411.772 170.866 411.222C175.286 408.778 179.833 406.56 184.215 404.046C189.388 401.083 194.589 398.116 199.501 394.748C203.767 391.82 207.888 388.514 210.555 383.944C211.9 381.646 212.707 379.032 213.711 376.545C214.18 375.384 214.714 374.21 214.925 372.992ZM111.362 410.404C107.762 396.086 104.219 381.988 100.62 367.671C103.649 367.671 106.225 367.619 108.796 367.719C109.25 367.737 109.974 368.318 110.077 368.756C112.341 378.348 114.556 387.953 116.73 397.566C117.279 399.991 117.353 400.103 119.802 399.342C128.017 396.793 136.228 394.233 144.448 391.697C145.709 391.308 146.993 390.836 148.288 390.747C148.922 390.705 149.852 391.301 150.229 391.881C151.444 393.745 152.462 395.736 153.75 398.027C139.858 403.024 125.599 406.256 111.362 410.404ZM140.239 368.889C140.214 369.182 139.941 369.583 139.677 369.706C137.624 370.665 135.544 371.569 133.212 372.605C132.993 370.293 132.841 368.431 132.63 366.576C132.502 365.445 132.896 364.814 133.904 364.149C136.151 362.666 138.22 360.913 140.369 359.279C140.596 359.106 140.868 358.993 140.999 358.919C140.752 362.248 140.519 365.571 140.239 368.889ZM143.626 380.65C145.005 383.202 146.508 385.977 148.092 388.902C138.187 391.927 128.443 394.91 118.655 397.9C116.35 387.934 114.065 378.056 111.742 368.009C115.035 367.839 118.087 367.682 121.192 367.522C121.992 372.347 122.786 377.198 123.609 382.041C123.79 383.106 124.19 384.148 124.282 385.216C124.427 386.911 125.213 387.269 126.71 386.727C132.259 384.717 137.817 382.733 143.626 380.65ZM125.986 385.366C125.35 382.107 124.73 379.136 124.201 376.149C123.803 373.9 123.574 371.622 123.172 369.376C122.931 368.027 122.999 367.269 124.719 367.103C126.734 366.91 128.705 366.267 130.712 365.815C131.186 368.679 131.64 371.426 132.146 374.489C133.868 373.89 135.17 373.485 136.434 372.987C137.718 372.48 138.966 371.881 140.348 371.271C141.176 373.828 141.981 376.311 142.87 379.051C137.341 381.119 131.831 383.179 125.986 385.366ZM99.0881 365.805C92.8091 365.72 86.5309 365.569 80.2519 365.521C78.7759 365.509 77.2977 365.8 75.8909 365.945C75.8909 358.403 75.9624 350.884 75.864 343.368C75.8048 338.814 75.1652 334.251 75.3555 329.716C75.636 323.016 75.1917 316.099 78.2759 309.857C80.8527 304.641 84.4349 300.199 89.8522 297.538C91.6341 296.663 93.3095 295.57 94.8793 294.665C95.9862 295.674 97.0575 296.649 98.2098 297.699C96.1988 299.11 94.0952 300.235 92.4324 301.822C87.9204 306.13 83.9825 310.814 82.4973 317.189C80.9318 323.909 80.3991 330.689 80.4683 337.547C80.5336 344.08 80.6316 350.614 80.7458 357.147C80.7616 358.043 80.8922 358.95 81.094 359.822C81.1655 360.133 81.5706 360.517 81.8874 360.59C82.645 360.764 83.4394 360.83 84.2208 360.84C92.4989 360.949 100.779 361.168 109.056 361.093C115.612 361.033 122.121 360.25 128.289 357.846C131.622 356.548 134.631 354.678 136.955 351.821C137.809 350.77 139.124 350.094 139.98 349.044C141.374 347.332 142.564 345.454 143.986 343.44C145.021 344.624 145.936 345.67 147.146 347.056C145.013 350.202 142.959 353.912 140.252 357.059C136.112 361.871 130.706 364.723 124.303 365.491C118.918 366.136 113.544 366.42 108.114 365.88C105.133 365.583 102.098 365.846 99.0881 365.805ZM74.4103 317.656C74.3177 318.045 73.5439 318.598 73.1657 318.541C67.6535 317.71 62.1552 316.788 56.2187 315.816C58.4215 309.921 60.4921 304.38 62.5696 298.82C65.2901 299.68 67.7416 300.457 70.2699 301.256C69.2448 303.864 68.2297 306.448 67.0151 309.538C70.233 310.041 72.9881 310.473 75.7613 310.907C75.3408 313.091 74.9496 315.391 74.4103 317.656ZM73.9925 341.018C59.7406 337.447 45.5983 333.903 31.2065 330.297C35.3611 316.047 38.639 301.828 43.575 287.878C46.2383 289.413 48.6756 290.817 51.1912 292.265C50.5382 294.74 50.0239 297.018 49.3355 299.242C47.0197 306.724 44.6309 314.183 42.2935 321.659C41.4583 324.329 41.5044 324.268 44.2753 324.889C51.1332 326.426 57.9764 328.032 64.8239 329.616C67.3991 330.212 69.9624 330.859 72.5458 331.412C73.5024 331.617 74.019 332.001 74.0036 333.051C73.9675 335.552 73.9925 338.053 73.9925 341.018ZM55.9662 317.25C61.9842 318.323 67.9895 319.463 73.8541 320.554V329.947C63.6173 327.594 53.7023 325.315 43.7226 323.022C46.6865 313.32 49.6703 303.553 52.7125 293.592C55.6083 295.141 58.3185 296.59 61.1021 298.078C59.6884 301.766 58.2578 305.399 56.9067 309.062C56.1134 311.212 55.4177 313.399 54.7358 315.588C54.4164 316.613 54.9061 317.061 55.9662 317.25ZM82.6538 300.662C81.6371 301.968 80.5102 303.363 79.4436 304.803C78.694 305.815 77.9322 306.839 77.3515 307.949C76.9064 308.8 76.4405 309.234 75.4369 309.098C73.4375 308.829 71.4272 308.638 69.0788 308.377C70.097 306.063 70.9837 303.978 71.9519 301.932C72.0768 301.669 72.6192 301.502 72.9839 301.469C76.1915 301.178 79.402 300.928 82.6538 300.662ZM41.7035 284.854C35.3754 281.147 29.1237 277.309 23.058 273.66C27.8122 265.281 32.7313 256.583 37.6793 247.901C40.3648 243.189 42.9285 238.396 45.8497 233.833C50.7073 226.247 58.089 222.666 66.7887 221.551C68.3681 221.348 70.0197 221.762 71.6402 221.803C72.703 221.829 74.418 221.272 74.7101 221.717C75.4908 222.908 75.6622 224.499 76.1119 226.058C74.1828 226.171 72.4424 226.146 70.7408 226.392C61.0902 227.784 53.5612 232.683 48.0409 240.614C45.1528 244.765 42.4926 249.082 39.8859 253.418C37.7423 256.984 35.8116 260.68 33.8214 264.337C32.6479 266.493 31.4879 268.661 30.4555 270.885C30.2683 271.289 30.5481 272.297 30.916 272.516C40.1154 277.996 49.239 283.622 58.6367 288.746C63.6466 291.478 69.1929 293.28 75.0103 293.396C77.4856 293.446 79.9667 292.624 82.4616 292.347C86.145 291.938 89.4282 290.558 92.7053 288.298C93.1977 289.928 93.6101 291.295 94.0118 292.627C87.9496 297.04 81.3923 300.032 73.6696 299.777C69.7261 299.647 65.9908 298.619 62.5972 296.777C55.5514 292.952 48.6229 288.908 41.7035 284.854ZM18.815 237.219C13.6395 232.224 8.49635 227.196 3.31204 222.211C2.35074 221.287 1.97483 220.482 3.08373 219.402C7.76068 214.844 12.3742 210.221 17.0831 205.696C22.5072 200.485 28.0067 195.353 33.6473 190.022C35.0529 192.535 36.3751 194.76 37.5263 197.071C37.7515 197.524 37.5363 198.541 37.1523 198.9C30.0642 205.538 22.9323 212.129 15.7781 218.696C13.7283 220.577 13.7245 220.839 15.7958 222.736C20.7384 227.262 25.639 231.835 30.5581 236.387C32.6744 238.345 34.7512 240.35 36.9336 242.232C37.8426 243.016 38.0175 243.732 37.4436 244.726C36.2406 246.812 35.0513 248.906 33.6096 251.429C28.5479 246.57 23.6707 241.906 18.815 237.219ZM45.5045 220.701C47.5716 219.22 49.3509 217.911 51.1774 216.671C51.4457 216.49 51.993 216.502 52.3113 216.645C55.36 218.018 58.3873 219.437 61.1966 220.739C58.2359 222.03 54.9599 223.458 51.446 224.989C49.7068 223.734 47.7296 222.307 45.5045 220.701ZM30.7134 220.722C35.526 216.756 40.0842 213 44.7393 209.165C46.6815 211.33 48.3688 213.21 50.1181 215.16C48.4011 216.532 46.6546 217.955 44.8792 219.339C43.6511 220.298 43.7126 221.169 44.9076 222.101C46.6538 223.462 48.3723 224.859 50.1185 226.254C48.3504 228.226 46.6357 230.139 44.7493 232.242C40.1584 228.475 35.6175 224.747 30.7134 220.722ZM30.0458 222.156C34.6205 225.975 39.1625 229.833 43.7553 233.711C42.151 236.29 40.504 238.938 38.7885 241.696C31.2873 234.696 23.8583 227.764 16.3013 220.712C23.7675 213.74 31.2008 206.799 38.7755 199.726C40.4378 202.389 42.1044 205.059 43.8026 207.778C40.1615 210.765 36.5373 213.724 32.932 216.706C31.8165 217.629 30.7076 218.567 29.6806 219.583C28.7212 220.533 29.0848 221.355 30.0458 222.156ZM29.7882 179.607C27.5332 175.561 25.2108 171.553 23.0134 167.695C27.3175 165.164 31.9299 162.495 36.4996 159.754C43.015 155.846 49.4362 151.776 56.0234 147.994C59.249 146.141 62.7183 144.691 66.1468 143.22C71.7432 140.818 77.5167 141.073 83.085 143.057C86.8987 144.415 90.4376 146.545 94.1482 148.354C93.6397 150.016 93.2088 151.425 92.7787 152.831C90.5817 151.821 88.5914 150.691 86.4632 149.968C78.7313 147.342 71.1013 147.487 63.4367 150.612C54.3396 154.322 46.0519 159.445 37.7477 164.572C35.5057 165.956 33.3217 167.441 31.0328 168.741C30.0331 169.309 29.9324 169.742 30.4766 170.713C34.5686 178.008 38.6413 185.313 42.6545 192.652C45.7229 198.263 49.5657 203.27 54.2112 207.64C57.3272 210.572 61.0321 212.364 65.1859 213.582C68.6814 214.607 72.0991 215.518 76.0861 215.207C75.6826 216.82 75.3493 218.151 75.0353 219.408C66.5762 220.619 58.7236 219.334 51.8911 214.162C47.7977 211.062 44.9299 206.807 42.4242 202.377C38.1512 194.822 34.0143 187.189 29.7882 179.607ZM31.1266 111.146C45.5138 107.532 59.6576 103.98 73.9606 100.387V109.662C67.2269 111.239 60.68 112.797 54.1212 114.301C50.547 115.12 46.957 115.875 43.3644 116.609C41.9914 116.89 41.5932 117.485 42.0402 118.893C44.6109 126.991 47.117 135.109 49.6257 143.226C49.9989 144.433 50.1004 145.752 50.6293 146.877C51.4583 148.642 50.6612 149.562 49.2617 150.338C47.4679 151.331 45.6713 152.32 43.2564 153.653C39.1944 139.417 35.207 125.444 31.1266 111.146ZM55.5453 128.44C57.1938 133.402 59.156 138.261 61.0479 143.341C58.3811 144.779 55.6429 146.256 52.7175 147.833C49.6803 137.897 46.7114 128.187 43.718 118.395C53.6077 116.115 63.5189 113.83 73.7884 111.464V120.949C68.8082 121.812 63.4993 122.667 58.2182 123.666C53.7223 124.517 54.1193 124.148 55.5453 128.44ZM74.5083 124C74.8612 126.177 75.3451 128.332 75.7671 130.456C73.0362 130.902 70.2838 131.353 67.0174 131.887C68.1821 134.846 69.176 137.373 70.2423 140.084C67.8069 140.897 65.3362 141.721 62.5872 142.639C60.5021 137.059 58.4319 131.52 56.2402 125.655C60.3049 124.944 63.9994 124.291 67.697 123.656C69.3498 123.372 71.0056 123.105 72.6661 122.87C73.5555 122.744 74.3123 122.79 74.5083 124ZM82.6511 140.7C79.4113 140.464 76.2676 140.244 73.1265 139.994C72.7464 139.964 72.1564 139.873 72.0407 139.631C71.0379 137.535 70.1223 135.397 69.043 132.962C71.5706 132.742 73.7012 132.536 75.8355 132.392C76.1965 132.368 76.7326 132.495 76.921 132.75C78.8632 135.376 80.752 138.042 82.6511 140.7ZM82.7034 140.776C82.7118 140.845 82.7195 140.809 82.7034 140.776V140.776ZM170.789 113.234C168.244 111.572 165.346 110.772 162.217 110.852C157.324 110.977 154.492 114.596 153.408 119.447C152.485 123.588 153.012 127.694 154.591 131.775C152.162 132.507 149.995 133.161 147.642 133.87C145.82 129.837 144.602 125.805 145.071 121.316C145.59 116.376 146.858 111.81 149.879 107.735C153.212 103.238 157.739 101.944 162.917 102.642C165.98 103.053 169.028 103.892 171.949 104.909C176.493 106.491 179.687 109.851 182.481 113.762C180.744 115.376 179.026 116.97 177.384 118.496C175.186 116.719 173.126 114.763 170.789 113.234ZM173.418 125.443C171.903 124.247 170.439 122.956 168.84 121.862C167.076 120.656 165.035 119.914 163.09 121.254C161.245 122.528 161.318 124.751 161.402 126.705C161.475 128.412 162.014 130.101 162.356 131.865C160.342 131.73 158.324 131.594 156.24 131.454C154.73 127.285 153.846 122.968 155.353 118.629C157.455 112.588 160.995 111.528 167.472 113.475C171.138 114.578 173.602 117.351 176.058 120.045C175.159 121.882 174.275 123.691 173.418 125.443ZM166.926 134.13C165.527 133.304 164.277 132.457 164.078 130.69C163.866 128.813 163.405 126.919 163.52 125.061C163.636 123.108 165.054 122.423 166.88 123.018C170.508 124.2 172.953 127.604 173.03 131.353C173.079 133.849 173.322 136.342 173.441 138.248C171.546 137.042 169.274 135.518 166.926 134.13ZM158.297 156.699C155.948 159.679 152.531 160.226 148.961 158.357C146.182 156.902 144.736 154.384 143.98 151.542C143.696 150.477 144.007 148.919 144.648 148.008C146.109 145.926 147.727 143.806 150.729 143.47C154.215 144.141 157.163 145.766 158.827 149.087C160.111 151.648 160.203 154.283 158.297 156.699ZM176.477 148.394C173.952 150.867 171.761 153.737 170.858 157.108C170.005 160.294 170.043 163.718 169.678 167.163C166.768 164.402 163.674 161.512 160.664 158.538C160.345 158.223 160.28 157.321 160.484 156.859C163.363 150.272 160.107 141.658 150.433 141.013C147.242 140.799 144.586 142.867 142.92 145.62C140.621 149.418 141.175 154.337 143.997 157.507C146.881 160.748 152.393 162.443 156.909 160.238C157.797 159.805 158.374 159.883 158.946 160.484C161.841 163.504 164.704 166.549 167.725 169.739C165.288 169.739 163.101 169.575 160.953 169.791C159.242 169.962 157.39 170.266 155.937 171.098C153.342 172.583 150.932 174.424 148.595 176.299C147.711 177.007 147.185 177.16 146.301 176.488C144.379 175.036 142.248 173.826 140.485 172.209C136.685 168.723 134.303 164.317 133.521 159.235C133.228 157.332 133.576 155.231 134.061 153.331C135.092 149.295 136.542 145.372 138.979 141.94C141.576 138.283 145.501 136.501 149.556 135.093C151.982 134.251 154.53 133.699 157.067 133.265C160.042 132.756 162.748 133.86 165.404 135.101C170.416 137.44 173.948 141.268 176.723 145.947C177.331 146.969 177.338 147.55 176.477 148.394ZM193.95 154.366C190.491 150.682 184.134 150.156 180.571 153.116C177.215 155.905 176.008 159.772 177.012 163.879C177.78 167.019 179.479 169.932 180.778 172.987C179.744 173.601 178.457 174.368 177.161 175.14C170.427 169.662 169.939 159.569 174.436 153.669C176.312 151.203 177.799 148.438 181.07 147.621C188.754 145.7 194.715 146.619 200.173 152.728C201.861 154.621 202.614 157.35 203.832 159.767C202.795 160.321 202.049 160.686 201.338 161.108C200.669 161.504 200.039 161.96 199.781 162.132C197.836 159.499 196.141 156.698 193.95 154.366ZM195.519 168.757C194.208 166.104 193.001 163.279 191.448 160.659C190.276 158.678 187.812 157.881 186.175 158.482C183.603 159.425 182.377 162.001 183.626 164.692C184.599 166.789 186.086 168.652 187.382 170.594C187.835 171.271 188.4 171.873 189.046 172.673C187.036 172.574 185.31 172.498 183.588 172.392C183.377 172.379 183.1 172.261 182.973 172.099C180.04 168.37 177.669 164.484 178.707 159.379C180.221 151.921 188.366 151.709 192.49 155.224C195.061 157.416 196.587 160.229 197.829 163.258C197.959 163.581 197.932 164.075 197.779 164.391C197.048 165.897 196.245 167.369 195.519 168.757ZM185.802 165.589C184.491 163.294 184.78 160.999 186.259 160.219C187.647 159.49 189.492 160.322 190.772 162.601C192.817 166.236 194.304 170.079 194.239 174.517C190.653 172.136 187.854 169.193 185.802 165.589ZM193.747 182.953C192.344 181.905 191.022 180.773 189.565 179.85C184.71 176.773 181.497 178.747 179.141 182.706C178.076 184.498 178.503 186.746 179.691 188.582C180.763 190.246 181.989 191.814 183.204 193.504C182.181 194.364 181.216 195.176 180.256 195.984C176.304 193.984 173.791 188.452 174.379 183.287C174.821 179.403 179.102 174.775 182.935 174.273C188.346 173.565 192.963 174.99 196.326 179.912C195.484 180.902 194.635 181.904 193.747 182.953ZM206.754 196.149C203.963 194.16 201.146 193.853 198.14 194.649C197.756 194.749 197.052 194.508 196.829 194.191C193.866 190.02 192.993 186.133 196.541 182.285C199.247 179.349 203.779 179.12 206.865 181.976C208.122 183.14 209.114 184.638 210.013 186.114C210.278 186.552 210.036 187.61 209.652 188.084C207.196 191.133 206.834 192.15 206.754 196.149ZM212.765 214.382C213.299 215.015 213.715 215.748 214.487 216.876C209.679 216.829 205.735 215.849 202.91 212.201C202.499 211.667 202.161 210.425 202.433 210.149C202.968 209.607 203.994 209.203 204.755 209.286C208.222 209.659 210.632 211.849 212.765 214.382ZM216.92 214.051C213.407 211.708 210.544 209.163 209.64 205.036C209.513 204.456 209.413 203.799 209.559 203.248C209.84 202.212 210.482 201.432 211.666 202.159C212.634 202.754 213.626 203.403 214.376 204.239C216.144 206.218 217.381 211.073 216.92 214.051ZM209.586 236.828C209.998 233.386 212.223 231.009 214.737 228.881C215.36 228.351 216.101 227.956 217.174 227.246C217.132 231.936 216.182 235.842 212.65 238.669C212.077 239.126 210.74 239.552 210.482 239.286C209.917 238.704 209.49 237.631 209.586 236.828ZM205.635 231.962C204.997 232.109 204.309 232.166 203.66 232.11C202.383 231.999 201.845 231.092 202.506 229.992C203.118 228.977 203.806 227.848 204.759 227.234C207.572 225.422 210.647 224.249 214.479 224.567C212.108 228.096 209.698 231.023 205.635 231.962ZM194.381 252.641C194.708 251.742 194.835 250.762 195.227 249.899C196.695 246.657 196.71 246.924 200.189 247.071C202.36 247.163 204.57 246.342 206.8 245.923C206.415 248.802 207.853 251.357 209.921 253.684C210.159 253.955 210.298 254.571 210.159 254.886C208.476 258.72 205.078 262.269 199.889 261.203C196.91 260.59 193.282 255.679 194.381 252.641ZM189.361 266.748C185.702 267.593 182.162 267.781 178.86 265.277C171.765 259.895 173.787 250.131 179.456 245.819C179.744 245.599 180.54 245.757 180.92 246.009C181.716 246.532 182.393 247.237 183.231 247.962C182.158 249.383 181.051 250.735 180.079 252.177C178.026 255.211 178.357 258.102 180.471 260.577C183.296 263.891 186.967 263.341 189.365 261.712C190.853 260.706 192.252 259.575 193.724 258.475C194.539 259.417 195.4 260.409 196.391 261.557C194.558 263.955 192.444 266.036 189.361 266.748ZM191.663 268.816C192.405 268.147 193.255 267.598 194.266 266.833C194.15 271.774 192.69 276.004 190.053 279.827C189.284 280.945 188.135 281.69 186.651 281.257C185.06 280.794 184.468 279.125 185.295 277.013C186.601 273.671 189.058 271.169 191.663 268.816ZM198.017 277.756C196.153 282.145 194.116 286.481 189.069 287.986C183.215 289.732 179.068 286.375 178.487 280.719C178.026 276.227 180.279 272.718 182.915 269.403C183.077 269.201 183.411 269.047 183.673 269.03C185.348 268.924 187.028 268.862 188.931 268.776C187.412 270.766 185.983 272.472 184.753 274.311C184.099 275.291 183.561 276.461 183.361 277.613C182.896 280.319 183.872 282.054 186.036 282.915C187.681 283.568 190.161 282.791 191.371 280.855C192.605 278.883 193.501 276.695 194.508 274.585C194.835 273.903 195.054 273.169 195.35 272.38C196.264 274.087 197.118 275.665 197.956 277.252C198.029 277.394 198.075 277.619 198.017 277.756ZM176.281 290.43C172.195 285.464 170.208 279.907 172.268 273.637C173.156 270.928 175.117 268.571 176.635 265.983C178.503 267.075 179.844 267.859 180.809 268.422C179.541 271.385 177.938 274.306 177.035 277.43C175.505 282.727 179.183 289.201 183.83 289.906C188.781 290.657 192.905 289.089 195.907 285.064C197.264 283.247 198.286 281.181 199.485 279.185C200.696 279.89 202.064 280.685 203.437 281.485C201.915 289.981 194.396 294.718 187.951 294.573C185.936 294.527 183.907 294.376 181.92 294.046C179.575 293.657 177.796 292.272 176.281 290.43ZM159.873 288.724C159.946 292.874 154.841 297.915 150.617 297.865C147.861 297.832 143.773 293.66 143.801 290.907C143.846 286.675 148.799 281.761 152.939 281.845C156.367 281.915 159.811 285.333 159.873 288.724ZM159.784 308.072C157.793 308.422 155.572 308.052 153.561 307.57C149.499 306.596 145.578 305.11 142.155 302.657C138.517 300.051 136.712 296.135 135.334 292.062C134.509 289.625 133.922 287.081 133.514 284.54C133.05 281.64 134.087 278.962 135.296 276.357C137.624 271.342 141.44 267.795 146.124 265.015C147.219 264.363 147.815 264.399 148.741 265.28C151.828 268.215 155.245 270.796 159.55 271.466C162.121 271.866 164.804 271.539 167.867 271.539C164.75 274.824 161.871 277.862 158.989 280.9C158.316 281.612 157.659 281.515 156.779 281.121C150.094 278.131 141.541 282.418 141.339 291.39C141.238 295.866 147.438 301.483 152.754 300.129C159.254 298.474 162.375 292.107 161.249 286.973C161.083 286.213 160.903 285.401 160.495 284.763C159.961 283.922 160.146 283.303 160.757 282.72C163.778 279.833 166.818 276.964 169.993 273.956C169.993 276.341 169.77 278.5 170.058 280.589C170.335 282.575 170.827 284.666 171.8 286.388C173.202 288.882 175.151 291.066 176.796 293.432C177.061 293.813 177.188 294.585 176.981 294.954C173.156 301.812 167.702 306.675 159.784 308.072ZM163.24 314.62C163.49 312.912 163.812 311.156 164.497 309.593C164.904 308.665 165.999 307.966 166.91 307.347C169.213 305.78 171.584 304.314 173.422 303.135C173.31 305.398 173.11 308.439 173.026 311.483C172.941 314.398 168.586 318.668 165.673 318.588C164.131 318.545 162.932 316.755 163.24 314.62ZM167.026 328.118C160.034 330.161 155.979 327.906 154.757 320.043C154.203 316.476 154.861 313.645 156.321 309.862C157.297 309.862 158.32 309.916 159.335 309.847C160.338 309.777 161.333 309.581 162.094 309.475C161.887 311.946 161.499 314.357 161.529 316.763C161.579 320.089 164.085 321.763 167.11 320.353C169.397 319.287 171.4 317.612 173.541 316.202C174.283 317.734 175.143 319.514 176.039 321.366C173.571 324.211 170.885 326.991 167.026 328.118ZM165.857 338.458C163.259 338.954 160.476 338.749 157.805 338.53C152.666 338.108 150.006 334.47 147.842 330.329C145.424 325.705 144.521 320.746 145.178 315.625C145.532 312.885 146.589 310.234 147.354 307.46C150.006 308.264 152.174 308.922 154.123 309.513C153.761 312.617 153.292 315.625 153.092 318.65C152.846 322.389 154.234 325.639 156.729 328.379C158.77 330.624 161.556 330.604 164.251 330.372C168.379 330.016 171.853 328.172 174.721 325.187C175.516 324.357 176.3 323.519 177.108 322.67C178.945 324.372 180.663 325.96 182.427 327.596C178.549 333.785 172.787 337.134 165.857 338.458ZM114.795 330.304C112.56 330.168 111.404 329.04 111.285 326.779C111.005 321.442 113.184 317.209 117.172 313.807C120.94 310.592 125.578 309.218 130.141 307.673C132.188 306.981 134.199 306.186 136.47 305.348C134.159 310.99 132.309 316.758 129.504 322.015C126.512 327.622 121.487 330.71 114.795 330.304ZM119.203 341.984C119.727 338.611 120.968 335.588 123.128 333.004C124.135 331.8 125.519 330.912 126.865 329.769C127.257 332.949 127.797 335.771 127.91 338.609C128.081 342.929 128.103 347.268 127.88 351.583C127.801 353.118 127.008 354.715 126.208 356.091C125.143 357.924 122.97 357.717 121.219 358.133C119.139 358.627 116.986 358.815 114.763 359.152C117.661 353.771 118.296 347.834 119.203 341.984ZM96.4283 359.05C101.905 357.36 105.097 353.119 107.995 348.603C110.567 344.594 111.832 340.054 113.001 335.493C113.358 334.104 114.109 333.359 115.669 333.334C117.395 333.307 119.117 333.015 121.251 332.796C117.163 337.832 117.629 343.842 116.284 349.34C115.97 350.62 115.773 351.936 115.369 353.185C114.079 357.179 111.077 359.091 107.089 359.329C103.488 359.543 99.8633 359.373 96.2564 359.373C96.2768 359.332 96.3195 359.084 96.4283 359.05ZM87.609 340.064C91.6875 335.715 96.7903 332.878 102.595 331.421C104.212 331.015 105.887 330.684 107.546 330.633C109.837 330.563 111.274 331.823 110.952 334.074C110.491 337.311 109.762 340.583 108.598 343.631C106.556 348.971 103.285 353.62 98.2348 356.477C94.6852 358.485 90.6451 359.34 86.4624 359.049C85.269 358.966 84.0648 359.036 82.7514 359.036C82.1706 351.983 82.6346 345.368 87.609 340.064ZM82.7706 332.3C83.2661 328.531 86.2399 326.777 89.6411 325.966C92.6119 325.258 95.6699 324.921 98.6729 324.337C102.137 323.664 105.676 323.16 108.798 320.342C108.605 322.904 108.667 324.924 108.205 326.816C108.015 327.593 106.784 328.422 105.875 328.669C99.9652 330.277 94.2001 332.149 89.4167 336.192C86.3614 338.774 83.489 341.505 82.4251 345.609C82.2498 345.573 82.0745 345.537 81.8989 345.501C82.166 341.097 82.1968 336.663 82.7706 332.3ZM88.8978 314.016C92.9555 313.632 97.064 313.551 101.141 313.683C104.601 313.795 108.045 314.377 111.608 314.764C109.715 318.64 106.373 320.792 102.383 321.797C98.096 322.878 93.6731 323.41 89.3552 324.382C87.034 324.904 84.8081 325.848 82.4005 326.649C83.0393 323.42 83.509 320.087 84.4034 316.873C84.9638 314.86 87.157 314.181 88.8978 314.016ZM99.1465 301.975C100.927 301.445 102.603 301.472 104.279 302.615C108.089 305.218 112.228 307.136 116.84 307.831C118.586 308.094 120.354 308.204 122.303 308.403C116.352 311.5 110.705 313.856 103.77 312.291C98.3255 311.062 92.5397 311.205 86.6608 312.755C90.1235 308.038 93.4733 303.664 99.1465 301.975ZM94.9892 267.885C97.9734 260.928 102.161 255.038 109.862 252.412C110.862 254.169 111.869 255.941 112.832 257.635C110.75 259.688 108.422 261.564 106.621 263.854C103.472 267.859 101.723 272.557 101.241 277.64C101.049 279.665 101.086 281.748 101.321 283.77C102.105 290.542 106.841 293.941 112.556 296.24C119.984 299.228 127.435 299.181 134.763 295.615C135.859 297.472 136.895 299.226 137.983 301.067C134.434 303.932 130.538 305.861 125.939 306.315C120.501 306.852 115.21 306.423 110.217 304.077C105.251 301.744 100.873 298.542 97.2577 294.412C94.36 291.102 93.918 286.798 93.4909 282.721C92.9701 277.741 92.9509 272.636 94.9892 267.885ZM73.5209 273.382C76.5135 270.097 80.2261 268.195 84.8535 268.337C81.7836 274.964 79.3748 281.87 74.8896 287.713C72.6791 290.593 70.6674 291.257 67.0866 290.261C66.5105 290.101 65.9312 289.943 65.3735 289.73C63.5831 289.046 61.8016 288.337 59.7698 287.541C65.5776 283.815 69.1295 278.203 73.5209 273.382ZM62.6034 272.735C65.1713 270.865 67.4587 268.596 69.7799 266.41C70.9595 265.298 71.9784 264.744 73.5759 265.699C75.0018 266.551 76.6173 267.086 78.3374 267.844C77.014 268.631 75.6441 269.134 74.7024 270.069C72.447 272.308 70.4048 274.761 68.2547 277.108C66.429 279.1 64.7309 281.25 62.6833 282.985C60.8019 284.58 58.536 285.613 55.8512 284.779C51.3953 283.394 47.5409 280.905 43.2341 278.336C50.8768 279.4 57.0082 276.809 62.6034 272.735ZM51.1328 256.347C56.5569 255.902 61.6848 256.675 66.6738 258.634C69.9083 259.904 70.5939 262.202 68.4434 264.906C63.1288 271.587 56.4439 276.18 47.7373 276.814C41.9196 277.238 36.8598 274.788 32.1682 271.267C35.9642 262.955 41.4403 257.144 51.1328 256.347ZM53.6096 246.058C56.6857 246.835 59.6315 248.117 62.6791 249.026C65.538 249.879 68.443 250.592 71.3561 251.235C72.1214 251.404 72.9931 251.089 73.9936 250.976C72.6476 252.864 71.4903 254.539 70.2753 256.172C69.4409 257.293 68.3174 257.044 67.1773 256.719C62.5992 255.415 57.9741 254.313 53.1699 254.563C49.1295 254.774 45.1502 255.39 41.5291 257.367C40.5912 257.878 39.7502 258.567 38.5356 259.002C39.8263 256.805 41.0686 254.578 42.4246 252.421C43.3175 251.001 44.3069 249.63 45.3716 248.333C47.5597 245.667 50.5486 245.284 53.6096 246.058ZM61.3042 235.912C66.0004 238.586 70.4763 241.647 75.0291 244.57C76.4432 245.478 77.8204 246.443 79.3632 247.482C74.2558 250.561 69.3075 249.773 64.2454 247.951C60.0035 246.424 55.6779 245.122 51.3592 243.821C50.3556 243.519 49.2279 243.626 47.6139 243.504C50.1769 240.652 52.274 237.76 54.938 235.553C56.7215 234.074 59.4378 234.849 61.3042 235.912ZM78.7763 233.136C81.7571 238.975 85.6899 243.87 91.9658 247.232C85.0887 247.308 79.1649 246.329 74.0071 241.731C69.6749 237.868 64.5709 234.912 58.5487 233.268C64.3107 230.876 69.7876 228.309 75.9439 230.606C77.0628 231.023 78.2328 232.071 78.7763 233.136ZM105.04 251.827C101.432 254.835 97.8954 258.011 94.1232 260.877C88.7068 264.992 82.7045 266.54 76.158 263.777C71.2397 261.701 71.2132 258.781 75.1425 254.497C80.4621 248.697 87.2358 248.406 94.3562 249.73C97.9461 250.399 101.523 251.135 105.04 251.827ZM77.398 217.167C78.7917 211.092 81.4434 205.536 85.7337 200.976C89.7849 196.669 94.8097 193.777 100.66 192.686C103.255 192.202 105.967 192.344 108.835 192.191C108.835 194.408 108.914 196.271 108.771 198.117C108.741 198.503 107.918 199.087 107.415 199.139C98.4389 200.08 92.0042 204.97 87.2985 212.306C83.7016 217.913 83.8119 223.761 87.4337 229.339C91.774 236.023 97.6844 240.579 105.709 242.076C108.867 242.665 108.852 242.745 108.854 245.948C108.854 246.912 108.854 247.876 108.854 248.894C100.57 250.041 93.7596 247.363 87.7447 242.271C81.8681 237.295 78.882 230.627 77.1739 223.357C76.7169 221.41 76.9417 219.156 77.398 217.167ZM76.6704 197.721C79.3125 195.566 82.4147 194.521 85.8917 194.514C87.7958 194.511 89.6996 194.154 92.093 193.906C91.4277 194.391 91.1498 194.634 90.8361 194.817C85.8824 197.689 82.0538 201.692 79.6899 206.864C78.0944 210.356 75.4396 211.551 71.9673 211.682C67.3038 211.859 63.1357 210.12 58.7094 208.201C65.6491 205.899 71.3116 202.092 76.6704 197.721ZM67.0709 192.589C71.3239 191.25 75.3128 191.643 79.5424 194.001C74.4703 197.371 69.6676 200.584 64.8404 203.76C62.4397 205.34 59.7622 206.337 56.9152 206.44C55.9112 206.477 54.6528 205.688 53.8868 204.908C51.7993 202.781 49.9117 200.457 47.68 197.908C54.9096 197.838 60.8053 194.563 67.0709 192.589ZM41.2642 183.91C48.2704 187.405 55.5818 187.562 63.0446 185.767C64.6763 185.375 66.2679 184.778 67.9161 184.519C68.6348 184.406 69.7361 184.662 70.1692 185.171C71.5137 186.749 72.6211 188.529 74.0602 190.571C70.3003 189.59 67.1773 190.728 64.0525 191.828C60.9306 192.927 57.8649 194.217 54.6878 195.117C49.5211 196.58 46.512 195.37 43.6054 190.878C41.8189 188.116 40.1738 185.263 38.7436 182.174C39.5807 182.759 40.3602 183.459 41.2642 183.91ZM46.4793 164.466C49.6334 164.339 52.9916 165.549 56.0154 166.762C61.0098 168.768 65.1552 172.102 68.3988 176.446C70.5221 179.288 69.8844 181.515 66.5916 182.824C59.7187 185.559 52.7094 186.004 45.5706 183.951C40.2895 182.432 37.1012 178.461 34.2107 174.185C33.4089 172.998 32.8866 171.624 32.1748 170.214C36.4204 166.675 41.2827 164.676 46.4793 164.466ZM64.5875 160.139C67.2154 162.963 69.535 166.074 72.1914 168.868C73.8987 170.662 75.9685 172.111 77.9061 173.741C76.2041 174.503 74.2754 175.529 72.2283 176.184C71.6348 176.373 70.6009 175.622 69.9409 175.089C66.6189 172.406 63.5105 169.43 60.0278 166.982C56.1299 164.244 51.5441 163.055 46.811 162.638C45.837 162.552 44.8234 162.918 43.8279 163.075C43.7537 162.917 43.6796 162.759 43.605 162.602C46.9459 160.86 50.2476 159.037 53.6377 157.396C58.227 155.174 61.4557 156.775 64.5875 160.139ZM75.0114 154.017C77.649 158.386 79.9705 162.949 82.3436 167.473C83.2591 169.218 83.9449 171.084 84.8158 173.079C79.3602 173.188 75.5292 170.454 72.1798 166.605C68.9 162.836 65.4661 159.199 62.0576 155.544C61.4964 154.942 60.7169 154.543 59.7483 153.84C62.3697 152.879 64.7693 151.863 67.2507 151.121C70.7515 150.076 73.0758 150.811 75.0114 154.017ZM105.086 189.58C101.608 190.26 98.0176 190.933 94.4403 191.667C89.8237 192.614 85.2786 192.744 80.7973 190.942C77.5944 189.654 75.1029 187.54 73.3975 184.601C71.5798 181.469 72.1276 179.648 75.3797 178.014C79.6238 175.882 84.0256 175.704 88.4961 177.394C93.185 179.167 96.7434 182.531 100.421 185.742C101.992 187.113 103.64 188.395 105.086 189.58ZM132.065 154.234C131.017 153.954 129.941 153.656 128.86 153.378C124.969 152.376 121.066 152.325 117.33 153.854C111.093 156.406 109.855 161.092 112.212 167.872C112.834 169.66 113.854 171.383 115.012 172.891C116.137 174.357 117.673 175.507 119.031 176.799C117.26 178.709 115.668 180.426 114.031 182.191C107.266 177.712 103.817 171.309 102.898 163.447C102.691 161.687 102.773 159.865 102.943 158.094C103.459 152.729 107.001 149.74 111.461 147.496C116.118 145.153 121.068 144.245 126.187 144.934C128.876 145.295 131.475 146.344 134.195 147.105C133.422 149.692 132.773 151.868 132.065 154.234ZM129.733 172.696C128.89 172.636 127.898 172.317 127.291 171.767C126.052 170.643 124.802 169.41 123.992 167.977C123.408 166.942 122.949 165.085 123.479 164.362C124.136 163.468 125.885 162.983 127.142 163.019C128.838 163.068 130.771 163.403 132.127 164.318C133.51 165.253 134.344 167.02 135.369 168.458C136.541 170.103 137.659 171.787 138.559 173.101C135.956 172.992 132.839 172.92 129.733 172.696ZM121.165 166.461C122.064 168.432 123.549 170.142 124.828 171.928C125.092 172.297 125.596 172.495 126.098 172.847C124.121 173.89 122.497 174.78 120.835 175.59C120.563 175.722 119.989 175.637 119.777 175.428C117.198 172.89 114.749 170.29 113.446 166.766C111.364 161.14 114.152 155.834 120.087 154.715C124.078 153.962 127.991 154.495 131.662 156.005C131.824 158.099 131.979 160.111 132.133 162.112C130.533 161.777 128.923 161.308 127.282 161.14C126.112 161.02 124.855 161.134 123.716 161.438C121.24 162.099 120.093 164.114 121.165 166.461ZM134.817 196.189C134.784 198.629 132.732 201.373 130.324 202.197C126.718 203.432 121.836 202.126 119.447 199.18C118.942 198.558 118.408 197.6 118.522 196.901C118.886 194.678 119.241 192.36 120.179 190.349C121.26 188.027 123.771 188.331 125.632 188.283C131.136 188.283 134.877 191.613 134.817 196.189ZM169.997 178.946C165.727 176.447 161.337 175.456 156.598 177.756C152.182 179.899 150.867 183.956 151.897 188.526C153.031 193.554 156.713 196.257 161.06 198.305C161.441 198.485 161.825 198.657 162.202 198.848C162.348 198.923 162.479 199.038 162.579 199.11C161.768 200.48 160.976 201.819 160.176 203.169C151.24 201.497 146.877 193.54 147.089 187.699C147.162 185.671 147.315 183.63 147.65 181.63C147.98 179.629 148.884 177.804 150.625 176.639C153.016 175.034 155.326 173.06 157.982 172.147C163.689 170.187 169.136 171.031 173.764 175.274C174.329 175.795 174.901 176.312 175.439 176.802C174.621 178.198 173.867 179.49 173.018 180.941C172.057 180.302 171.058 179.568 169.997 178.946ZM161.741 189.671C160.522 188.773 159.715 187.435 160.615 185.899C161.506 184.379 163.048 184.434 164.458 184.984C168.805 186.677 171.846 189.911 174.386 193.768C169.701 193.696 165.461 192.407 161.741 189.671ZM160.734 191.015C163.359 192.661 166.253 193.874 168.978 195.248C167.637 195.962 166.115 196.788 164.57 197.58C164.339 197.699 163.982 197.762 163.755 197.67C160.307 196.272 157.136 194.507 154.845 191.425C153.242 189.267 152.689 184.051 154.511 181.645C156.398 179.155 160.392 177.549 163.905 178.275C167.06 178.926 169.72 180.54 172.157 182.564C172.403 182.769 172.645 183.123 172.672 183.425C172.799 185.097 172.86 186.775 172.96 188.795C171.607 187.684 170.481 186.639 169.236 185.773C167.96 184.885 166.618 184.039 165.2 183.412C162.732 182.32 160.322 183.035 159.177 185.004C158.058 186.936 158.535 189.637 160.734 191.015ZM178.568 201.526C176.485 201.382 174.402 201.16 172.311 201.112C169.44 201.046 167.018 202.693 166.257 205.072C165.073 208.759 165.73 211.327 168.621 213.132C170.489 214.297 172.568 215.122 174.621 216.133C174.171 217.318 173.694 218.588 173.229 219.823C166.703 219.105 163.24 215.582 161.637 210.501C160.311 206.306 161.525 202.135 165.135 199.312C169.351 196.01 174.09 195.169 179.183 197.623C178.964 199.019 178.768 200.259 178.568 201.526ZM183.699 210.089C183.995 210.416 184.414 210.632 185.137 211.164C181.524 211.049 178.699 212.011 176.224 214.017C175.958 214.233 175.366 214.292 175.04 214.155C173.049 213.326 170.935 212.656 169.17 211.474C167.226 210.173 166.918 207.991 167.775 205.655C168.44 203.842 170.239 202.67 172.507 202.697C173.887 202.713 175.278 202.801 176.643 203.004C177.819 203.18 178.603 203.678 179.31 204.954C180.379 206.886 182.181 208.414 183.699 210.089ZM197.817 219.676C197.74 219.801 197.51 219.852 197.341 219.897C193.874 220.815 188.531 216.346 188.562 212.776C188.581 210.436 193.266 207.506 195.799 208.181C196.902 208.474 197.998 208.788 199.078 209.149C199.981 209.45 200.273 210.127 200.673 211.033C201.422 212.728 202.772 214.162 203.898 215.686C204.025 215.861 204.317 215.916 204.747 216.137C201.941 216.982 199.316 217.255 197.817 219.676ZM200.95 222.284C200.346 222.001 199.593 221.227 199.604 220.693C199.616 220.139 200.362 219.374 200.969 219.092C205.355 217.052 209.333 218.717 213.741 220.683C209.306 222.759 205.324 224.35 200.95 222.284ZM189.188 230.419C188.727 229.851 188.554 228.817 188.658 228.053C189.142 224.415 193.282 221.23 196.998 221.518C197.283 221.54 197.706 221.579 197.817 221.76C199.32 224.182 201.991 224.38 204.359 225.224C202.741 227.001 200.523 228.329 200.504 231.116C200.5 231.373 200.116 231.685 199.843 231.875C196.603 234.125 191.71 233.509 189.188 230.419ZM175.19 220.226C175.397 215.34 181.747 211.212 186.217 213.123C186.686 213.324 187.051 214.03 187.239 214.579C188.312 217.644 189.669 219.242 192.717 220.711C189.792 222.021 187.977 224.037 187.274 226.896C186.993 228.051 186.348 228.397 185.333 228.564C179.906 229.457 174.971 225.412 175.19 220.226ZM175.067 238.531C174.106 238.525 173.145 238.678 172.188 238.665C169.693 238.63 168.11 237.268 167.399 234.615C166.918 232.83 167.956 230.43 169.809 229.42C171.177 228.676 172.641 228.105 174.083 227.509C175.059 227.106 175.851 227.349 176.877 227.85C179.337 229.051 182.004 229.826 184.122 230.603C182.892 231.995 180.886 233.589 179.814 235.667C178.687 237.85 177.25 238.546 175.067 238.531ZM165.957 242.762C162.417 240.586 160.484 235.774 161.445 231.758C162.855 225.857 166.899 222.465 173.187 221.52C173.679 222.794 174.148 224.015 174.64 225.29C172.78 226.182 170.816 226.942 169.04 228.012C165.769 229.981 165.089 232.267 166.199 236.226C166.895 238.694 170.012 240.687 172.71 240.373C174.613 240.152 176.523 240.017 178.561 239.831C178.749 241.056 178.949 242.332 179.175 243.77C174.598 245.986 170.231 245.392 165.957 242.762ZM166.268 255.668C165.515 256.138 164.643 256.514 163.774 256.68C162.475 256.929 160.945 256.79 160.595 255.35C160.365 254.385 160.73 252.861 161.414 252.161C164.093 249.424 167.791 248.674 171.327 247.714C172.357 247.435 173.472 247.462 174.859 247.316C172.495 250.963 169.62 253.572 166.268 255.668ZM159.081 256.299C160.115 258.263 162.06 259.015 165.112 257.962C167.149 257.26 168.886 255.679 170.723 254.444C171.415 253.981 172.011 253.384 172.691 252.816C173.606 256.354 172.607 258.873 169.712 260.67C166.557 262.628 163.297 263.85 159.465 262.966C152.335 261.321 151.985 253.714 155.26 249.475C157.401 246.703 160.376 245.145 163.528 243.861C163.828 243.74 164.27 243.694 164.535 243.828C166.084 244.599 167.598 245.434 168.986 246.175C166.276 247.529 163.44 248.724 160.845 250.312C158.627 251.668 158.066 254.365 159.081 256.299ZM152.812 241.686C154.791 239.977 157.517 239.128 159.942 237.865C161.003 239.657 161.795 240.994 162.36 241.95C159.715 243.913 156.852 245.609 154.526 247.856C150.471 251.765 150.544 259.1 154.469 262.299C158.047 265.217 162.194 265.659 166.422 264.11C168.759 263.253 170.892 261.833 173.126 260.663C173.841 261.876 174.621 263.207 175.405 264.539C169.812 271.292 159.911 271.712 154.076 267.342C151.559 265.456 148.745 263.971 147.884 260.625C146.024 253.401 146.916 246.77 152.812 241.686ZM130.071 252.314C128.703 252.859 127.191 253.041 125.744 253.389C120.656 253.137 117.37 249.012 118.51 244.095C119.052 241.757 121.09 240.822 122.892 239.802C126.603 237.702 132.286 238.334 134.349 243.207C135.719 246.444 133.888 250.793 130.071 252.314ZM159.6 210.314C156.944 210.314 154.469 210.1 152.043 210.361C147.715 210.824 143.496 214.624 142.447 218.4C141.015 223.554 144.913 228.471 148.961 230.185C151.909 231.435 155.03 231.613 158.193 231.138C158.589 231.078 159 231.13 159.484 231.13C159.55 231.48 159.584 231.598 159.588 231.718C159.773 236.444 159.561 236.701 154.745 236.768C147.95 236.863 142.879 233.954 139.885 227.805C138.875 225.729 137.568 223.444 137.607 221.276C137.714 215.267 140.611 210.507 145.628 207.107C149.591 204.419 153.927 204.102 158.447 205.174C158.889 205.279 159.508 205.818 159.55 206.208C159.688 207.508 159.6 208.832 159.6 210.314ZM164.116 219.159C165.269 219.467 166.342 220.065 167.833 220.692C163.132 222.848 158.716 224.167 153.892 223.373C152.443 223.135 151.344 222.395 151.274 220.82C151.205 219.136 152.351 218.36 153.838 218.029C157.386 217.239 160.757 218.259 164.116 219.159ZM158.062 216.24C156.175 216.186 154.23 216.352 152.397 216.782C150.725 217.174 149.403 219.232 149.503 220.772C149.633 222.712 150.779 224.002 152.501 224.717C154.937 225.728 157.443 225.429 159.946 224.915C161.053 224.687 162.167 224.525 163.401 224.312C162.394 225.924 161.487 227.398 160.553 228.854C160.403 229.087 160.142 229.38 159.903 229.406C155.491 229.898 151.132 230.177 147.304 227.181C141.907 222.957 143.102 216.151 149.057 213.064C152.47 211.294 156.164 211.506 159.834 212.05C160.157 212.098 160.48 212.52 160.695 212.841C161.591 214.188 162.448 215.564 163.417 217.08C161.598 216.777 159.834 216.291 158.062 216.24ZM105.798 208.968C101.01 210.765 97.2919 213.737 95.6541 218.797C94.5387 222.245 96.2864 224.971 98.2955 227.367C100.828 230.385 104.143 232.355 108.1 233.105C108.971 233.27 109.812 233.598 110.666 233.85C110.229 235.852 109.752 237.706 109.443 239.588C109.288 240.538 108.937 240.762 108.018 240.67C103.225 240.185 98.987 238.529 95.1864 235.462C90.7005 231.843 87.4599 227.517 86.4048 221.797C86.1796 220.577 86.4236 219.159 86.8184 217.952C89.9609 208.343 96.8495 202.964 106.507 200.83C107.303 200.654 108.172 200.806 109.165 200.806C109.646 202.939 110.146 205.154 110.689 207.562C109.091 208.014 107.399 208.368 105.798 208.968ZM116.76 216.165C117.904 216.148 119.05 217.337 120.224 217.922C122.273 218.944 124.344 219.923 125.815 220.634C123.368 221.94 120.382 223.612 117.312 225.111C116.662 225.428 115.615 225.337 114.903 225.053C112.883 224.247 110.84 223.404 109.004 222.261C107.84 221.536 107.944 220.23 108.918 219.166C111.027 216.86 113.876 216.211 116.76 216.165ZM108.193 217.134C104.935 219.156 104.947 222.294 108.232 224.319C110.184 225.522 112.412 226.275 114.525 227.235C113.686 228.548 112.715 230.11 111.687 231.634C111.523 231.877 111.072 232.124 110.813 232.072C106.049 231.115 101.634 229.477 98.7475 225.236C95.8502 220.979 96.5505 218.265 100.54 214.049C103.218 211.218 106.94 210.091 110.699 209.324C110.993 209.264 111.506 209.533 111.692 209.803C112.708 211.286 113.654 212.817 114.5 214.138C112.363 215.134 110.146 215.922 108.193 217.134ZM129.265 278.143C127.97 278.428 126.538 278.385 125.215 278.181C123.255 277.879 122.619 276.589 123.302 274.747C124.176 272.391 125.8 270.621 127.859 269.278C128.461 268.885 129.322 268.797 130.077 268.745C133.176 268.533 136.28 268.39 138.582 268.265C137.455 269.975 135.697 272.133 134.522 274.572C133.385 276.936 131.426 277.669 129.265 278.143ZM113.46 270.897C111.321 274.126 110.649 277.829 111.413 281.627C112.155 285.313 117.273 288.59 122.017 288.633C123.708 288.648 125.422 288.705 127.085 288.466C128.735 288.229 130.334 287.644 132.044 287.189C132.734 289.452 133.394 291.613 134.114 293.975C130.534 295.871 126.719 296.937 122.723 296.696C118.829 296.461 114.98 295.824 111.402 293.917C106.786 291.457 103.246 288.351 102.866 282.725C102.2 272.846 105.911 265.056 113.964 259.173C115.638 260.965 117.232 262.672 118.749 264.296C116.967 266.492 115.008 268.559 113.46 270.897ZM124.561 280.11C125.864 280.204 127.193 280.249 128.484 280.099C129.713 279.957 130.908 279.533 132.259 279.198C132.096 280.232 131.878 281.211 131.803 282.2C131.725 283.217 131.785 284.245 131.785 285.386C127.498 286.997 123.119 287.728 118.627 286.258C113.848 284.694 112.107 281.555 113.132 276.186C113.719 273.113 115.26 270.452 117.511 268.243C118.412 267.36 119.339 266.504 120.277 265.614C122.157 266.541 123.925 267.412 125.808 268.34C124.88 269.333 123.802 270.273 123.001 271.409C122.212 272.526 121.536 273.786 121.11 275.082C120.205 277.835 121.666 279.901 124.561 280.11ZM145.57 255.339C145.866 257.452 146.189 259.564 146.374 261.687C146.412 262.14 146.036 262.848 145.64 263.087C139.6 266.724 133.086 268.187 126.197 266.429C123.959 265.857 121.781 264.438 119.982 262.923C117.88 261.154 116.119 258.94 114.396 256.772C110.577 251.964 109.675 246.441 110.96 240.552C111.56 237.806 112.294 235.06 113.292 232.438C114.449 229.399 116.993 227.571 119.594 225.696C124.229 222.357 129.529 222.007 134.862 221.571C135.182 221.544 135.769 221.982 135.855 222.305C137.837 229.725 141.631 235.553 149.468 238.208C145.324 239.437 141.188 240.705 137.018 241.841C136.56 241.965 135.718 241.479 135.357 241.032C132.194 237.108 128.121 235.796 123.282 236.78C119.631 237.523 116.315 241.714 115.901 245.328C115.583 248.111 116.389 250.42 117.958 252.532C120.71 256.238 127.508 257.047 131.389 254.229C134.129 252.239 136.17 249.803 136.481 246.27C136.608 244.825 137.425 244.348 138.793 244.067C142.206 243.368 145.574 242.455 148.964 241.635C149.303 241.553 149.649 241.519 150.344 241.405C149.433 242.779 148.684 243.89 147.95 245.011C145.889 248.161 145.052 251.592 145.57 255.339ZM192.717 256.069C192.767 256.526 192.544 257.221 192.198 257.479C190.626 258.664 189.05 259.89 187.316 260.802C185.179 261.927 183.423 261.486 181.774 259.81C180.225 258.237 179.794 256.444 180.874 254.39C181.785 252.656 183.027 251.087 184.195 249.5C184.441 249.168 185.056 248.838 185.418 248.91C188.719 249.559 191.679 248.616 194.592 247.119C192.963 249.964 192.371 252.902 192.717 256.069ZM194.973 243.479C195.084 243.862 194.85 244.583 194.531 244.826C190.956 247.55 186.498 248.762 182.7 245.291C179.625 242.48 179.398 237.78 182.381 234.674C183.492 233.519 184.879 232.59 186.267 231.772C186.74 231.494 187.82 231.624 188.246 231.997C190.518 233.985 193.016 235.234 196.48 234.857C194.485 237.775 194.097 240.519 194.973 243.479ZM190.457 194.404C191.187 194.682 191.906 194.993 192.601 195.34C195.215 196.64 195.177 196.642 194.631 199.574C194.173 202.008 194.931 204.202 196.476 206.627C192.932 206.124 190.407 207.481 188.131 209.536C187.847 209.796 187.309 210.018 186.963 209.937C182.277 208.84 179.145 203.21 180.744 198.75C181.716 196.051 185.998 192.698 190.457 194.404ZM194.435 194.161C191.529 192.653 188.596 192.01 185.421 192.489C185.037 192.547 184.426 192.24 184.188 191.91C182.988 190.266 181.72 188.642 180.778 186.851C179.775 184.929 180.321 182.937 181.908 181.455C183.461 180.004 185.275 179.468 187.189 180.524C188.908 181.474 190.499 182.669 192.098 183.826C192.444 184.077 192.817 184.663 192.763 185.034C192.298 188.247 192.924 191.233 194.435 194.161ZM150.06 199.463C150.129 199.542 150.114 199.692 150.206 200.108C145.924 199.075 141.834 198.149 137.793 197.039C137.236 196.886 136.66 195.867 136.548 195.175C135.742 190.206 132.834 186.943 128.099 185.855C123.187 184.726 117.812 186.637 116.186 192.363C113.981 200.126 121.176 205.902 127.777 204.843C131.028 204.321 133.448 202.69 135.475 200.234C135.789 199.854 136.453 199.375 136.807 199.473C141.012 200.645 145.186 201.918 149.429 203.181C147.219 204.445 145.029 205.451 143.119 206.843C139.118 209.759 137.442 214.191 135.892 218.666C135.731 219.131 135.218 219.871 134.944 219.839C131.552 219.442 128.006 219.418 124.824 218.342C116.288 215.455 111.51 209.283 110.867 200.225C110.657 197.267 110.516 194.14 111.247 191.324C111.963 188.568 113.555 185.91 115.257 183.569C117.523 180.455 120.124 177.479 123.811 175.929C125.609 175.173 127.558 174.609 129.49 174.368C135.304 173.646 140.592 175.418 145.559 178.28C145.982 178.523 146.424 179.362 146.32 179.791C144.556 186.935 144.952 193.636 150.06 199.463ZM100.937 143.369C105.635 139.574 110.591 136.329 116.667 135.34C124.398 134.08 131.667 135.031 137.982 140.36C136.922 142.144 135.854 143.942 135.063 145.273C131.041 144.467 127.302 143.131 123.552 143.098C117.084 143.04 110.993 144.76 105.847 149.131C101.655 152.69 100.907 157.374 101.05 162.376C101.178 166.858 102.493 171.162 104.877 174.86C106.993 178.141 109.93 180.893 112.664 184.063C111.912 185.394 110.881 187.217 109.862 189.021C99.7023 185.795 92.881 173.151 93.3637 164.381C93.5321 161.318 93.8142 158.261 94.0986 155.206C94.5629 150.221 97.1005 146.466 100.937 143.369ZM101.246 129.443C103.932 129.316 106.595 128.766 109.28 128.521C111.745 128.296 114.013 128.977 116.206 130.15C118.108 131.167 120.149 131.924 122.513 132.966C120.325 133.211 118.485 133.359 116.664 133.633C112.485 134.261 108.639 135.827 105.236 138.287C102.66 140.149 100.064 140.038 97.4111 138.861C92.7192 136.781 89.733 132.861 86.617 128.628C91.7448 130.047 96.5113 129.667 101.246 129.443ZM99.6339 118.938C103.2 119.471 106.335 120.882 109.036 123.186C110.104 124.097 110.852 125.382 112.103 126.943C105.364 127.319 99.1972 127.827 93.0239 127.92C90.8327 127.954 88.6072 127.045 86.434 126.437C85.1337 126.073 84.4138 125.138 84.1716 123.707C83.6631 120.704 82.9912 117.729 82.3301 114.463C87.9588 117.387 93.8269 118.07 99.6339 118.938ZM102.876 111.891C108.159 113.475 108.143 113.525 108.641 119.021C108.688 119.531 108.749 120.041 108.841 120.909C103.067 116.561 96.2515 117.236 90.0555 115.601C85.0003 114.267 83.0174 112.165 82.3463 107.081C82.2229 106.145 82.1514 105.197 82.1426 104.253C82.1161 101.482 82.1333 98.7111 82.1333 95.7242C86.2587 104.97 93.9464 109.213 102.876 111.891ZM115.604 89.1292C116.31 91.7229 116.68 94.4112 117.14 97.0671C117.825 101.029 118.254 105.067 121.262 108.565C118.763 108.357 116.629 108.349 114.586 107.911C113.93 107.771 113.267 106.565 113.033 105.728C111.372 99.7854 109.535 93.9326 105.423 89.1327C102.864 86.1458 100.204 83.2504 96.1158 82.2637C96.1488 82.0542 96.1819 81.8451 96.215 81.636C100.316 81.9009 104.42 82.1376 108.518 82.4382C112.67 82.7422 114.628 85.5358 115.604 89.1292ZM128.196 99.8434C128.075 103.657 127.36 107.453 126.891 111.376C122.993 109.447 120.858 106.052 119.809 101.982C118.955 98.6699 118.61 95.2299 117.844 91.8917C117.099 88.6457 116.105 85.4566 115.21 82.2038C118.234 82.7968 121.635 83.1151 124.744 84.2417C126.032 84.7083 127.295 86.8146 127.522 88.3321C128.09 92.1219 128.318 96.0101 128.196 99.8434ZM133.814 129.333C134.572 131.534 135.377 133.718 136.175 135.95C131.681 134.291 127.193 132.75 122.796 130.982C116.909 128.615 112.866 124.447 111.4 118.158C111.069 116.74 111.274 115.145 111.485 113.667C111.732 111.926 113.037 111.179 114.701 111.053C120.197 110.639 124.488 112.946 127.945 117.031C130.975 120.61 132.323 125.008 133.814 129.333ZM129.003 86.4575C133.586 89.961 138.085 93.217 139.683 98.984C140.186 100.798 140.177 102.413 139.016 104.088C135.283 109.472 133.348 115.471 133.438 122.388C130.286 116.298 127.732 110.665 129.324 103.655C130.563 98.1968 130.292 92.4086 129.003 86.4575ZM82.6157 82.67C88.6049 81.7667 94.2505 82.3241 99.1707 85.4997C103.669 88.4028 106.753 92.7753 108.617 97.7978C109.714 100.756 110.528 103.885 110.95 107.008C111.314 109.697 109.902 111 107.15 110.791C101.361 110.352 96.2219 108.077 91.4899 104.769C84.7839 100.081 82.2137 93.5206 82.6096 85.5631C82.6572 84.6076 82.6157 83.6478 82.6157 82.67ZM95.9889 179.563C91.1851 175.743 85.731 173.297 83.8553 166.923C82.4128 162.019 78.1383 154.14 74.157 150.598C80.0101 150.872 83.07 151.642 87.0978 153.918C90.0778 155.602 91.9112 157.816 91.7021 161.607C91.3593 167.818 91.8055 171.377 95.9889 179.563ZM91.7033 280.321C91.8205 283.228 90.5371 285.125 88.3458 286.704C84.1797 289.702 79.3728 290.482 74.1178 290.917C78.9293 285.869 81.6906 280.066 84.0679 274.052C85.4535 270.546 87.3242 267.529 90.7777 265.631C92.5327 264.667 94.0629 263.292 95.4454 262.284C94.39 265.429 93.0124 268.684 92.2506 272.076C91.6529 274.737 91.5926 277.577 91.7033 280.321ZM129.301 336.671C128.874 333.419 128.274 330.229 129.597 327.101C130.695 324.501 131.967 321.974 132.939 319.891C133.82 323.488 134.653 327.527 135.841 331.459C136.387 333.262 137.455 334.986 138.593 336.516C140.829 339.521 140.04 342.335 138.557 345.274C136.437 349.478 132.703 352.038 129.038 354.967C130.306 348.744 130.091 342.686 129.301 336.671ZM168.444 348.001C162.529 349.108 156.671 348.239 150.982 346.46C149.526 346.005 148.023 345.195 146.939 344.139C141.561 338.89 137.058 333.002 135.683 325.392C134.432 318.461 134.87 311.707 139.149 305.688C139.601 305.053 140.01 304.387 140.512 303.623C142.424 304.754 144.179 305.791 145.682 306.68C144.936 309.81 144.068 312.748 143.557 315.748C142.847 319.917 143.668 323.997 144.963 327.96C146.02 331.206 147.819 334.02 150.117 336.577C152.385 339.1 155.291 340.096 158.462 340.376C168.828 341.295 177.154 337.53 183.4 329.196C183.507 329.054 183.634 328.928 183.83 328.705C185.652 329.732 187.474 330.758 189.377 331.83C185.456 341.266 178.095 346.196 168.444 348.001ZM166.115 358.305C160.557 360.04 155.41 363.003 150.844 367.471C151.078 363.509 151.544 359.954 153.085 356.618C153.611 355.475 154.261 354.374 154.968 353.332C156.525 351.046 158.539 349.702 161.502 349.917C167.86 350.378 173.879 349.214 179.437 345.82C175.981 351.039 172.764 356.226 166.115 358.305ZM154.053 382.061C152.847 378.494 151.313 375.284 150.782 371.921C150.44 369.741 152.439 367.919 154.288 366.56C158.735 363.286 163.639 360.873 168.767 358.867C170.266 358.28 171.696 357.51 173.372 356.723C173.441 362.901 170.112 366.949 165.661 370.426C161.441 373.725 157.217 377.048 154.053 382.061ZM175.42 371.723C172.438 375.257 169.305 378.713 166.73 382.533C164.297 386.143 163.178 390.394 162.998 394.798C162.959 395.782 163.221 396.782 163.405 398.231C162.863 397.493 162.494 397.097 162.252 396.636C160.618 393.557 158.912 390.517 157.428 387.369C155.587 383.448 157.094 380.158 159.969 377.46C162.998 374.619 166.342 372.115 169.351 369.257C171.096 367.598 172.453 365.53 174.01 363.616C174.621 365.031 175.186 366.701 176.043 368.205C176.877 369.671 176.377 370.588 175.42 371.723ZM183.715 397.443C182.054 402.021 178.291 404.834 174.425 407.432C173.237 408.232 171.857 408.743 170.412 409.466C166.826 404.646 164.485 399.461 164.843 393.515C164.996 390.947 165.919 388.345 166.887 385.92C168.871 380.954 172.111 376.829 176.312 373.527C179.606 370.936 181.724 371.505 183.231 375.38C186.056 382.66 186.398 390.063 183.715 397.443ZM192.536 378.69C193.497 381.284 194.531 383.863 195.296 386.519C197.321 393.53 194.696 395.579 190.437 398.477C187.954 400.16 185.291 401.575 182.412 402.862C182.915 402.209 183.53 401.613 183.907 400.894C186.632 395.694 187.755 390.151 186.901 384.332C186.39 380.835 185.537 377.387 184.829 373.918C184.595 372.777 184.726 371.897 185.871 371.173C187.474 370.155 188.938 368.909 190.833 367.479C189.826 371.72 191.245 375.188 192.536 378.69ZM208.276 239.829C208.441 240.29 208.214 241.035 207.922 241.493C205.908 244.657 202.652 246.123 199.12 245.13C198.075 244.836 196.852 243.644 196.526 242.608C195.453 239.206 197.321 235.267 200.481 233.552C200.784 233.386 201.253 233.158 201.488 233.274C204.009 234.514 206.381 233.493 208.952 232.777C208.16 235.22 207.422 237.424 208.276 239.829ZM208.991 208.689C206.481 207.819 204.152 207.105 201.669 208.057C201.338 208.183 200.777 208.062 200.473 207.843C197.179 205.45 195.38 202.739 196.583 198.599C196.864 197.624 198.105 196.517 199.12 196.236C202.656 195.253 206.242 196.911 208.053 200.087C208.291 200.509 208.41 201.171 208.26 201.613C207.453 204.011 208.13 206.226 208.991 208.689ZM155.668 93.7751C162.69 92.4774 169.632 92.4928 176.151 95.8072C182.085 98.8256 187.109 102.846 189.25 109.651C187.485 110.651 185.664 111.683 184.134 112.548C181.762 110.27 179.687 107.881 177.223 105.999C173.487 103.142 169.12 101.515 164.416 101.058C162.286 100.851 160.103 100.899 157.962 101.071C152.089 101.544 148.864 105.54 146.285 110.232C144.179 114.059 143.574 118.32 143.289 122.58C143.036 126.366 144.168 129.965 145.563 133.459C145.693 133.785 145.82 134.111 145.989 134.537C144.141 135.635 142.351 136.697 140.575 137.751C133.166 129.144 133.569 114.99 139.856 105.94C141.67 103.329 143.681 100.843 145.736 98.4113C148.303 95.3667 151.955 94.4608 155.668 93.7751ZM168.375 84.1306C171.454 85.3386 174.11 87.1352 175.82 90.1812C176.865 92.0454 178.303 93.6905 179.656 95.5608C177.15 94.5207 174.836 93.4549 172.445 92.5908C168.921 91.3174 165.215 91.1718 161.541 91.4573C158.043 91.7295 156.029 89.863 154.365 87.2132C152.531 84.2978 151.601 81.0864 151.186 77.6994C151.028 76.4083 150.852 75.1191 150.679 73.7923C155.733 78.7256 161.937 81.6064 168.375 84.1306ZM166.618 71.7652C169.686 74.1628 171.753 77.1763 173.003 80.7678C173.406 81.9259 173.306 83.2588 173.437 84.5119C173.295 84.6664 173.152 84.8213 173.01 84.9758C166.88 81.6956 160.699 78.5039 154.657 75.0684C153.277 74.2828 152.281 72.7257 151.274 71.3977C150.463 70.3276 150.679 69.0861 151.14 67.8389C152.135 65.1552 153.023 62.4328 154.065 59.404C157.463 64.7182 162.079 68.2213 166.618 71.7652ZM171.284 65.3413C172.703 66.9033 174.163 68.4316 175.624 69.9525C176.512 70.8738 176.819 71.7506 176.124 73.0174C175.263 74.5841 174.659 76.2918 173.744 78.392C171.542 72.424 166.307 69.8756 162.34 66.0996C160.949 64.774 159.45 63.5136 158.281 62.0058C156.087 59.1722 156.29 56.0112 157.793 52.964C159.388 49.7414 161.191 46.6235 162.998 43.2826C163.147 45.7675 163.067 47.9914 163.455 50.1312C164.508 55.9712 167.318 60.9726 171.284 65.3413ZM185.352 56.3072C185.102 59.8483 183.957 63.3745 182.862 66.793C182.008 69.4663 179.691 70.2808 177.569 68.7149C169.962 63.1085 164.954 55.8121 164.854 46.1057C164.796 40.883 167.114 36.1991 170.354 32.0733C181.889 36.9571 186.186 44.3807 185.352 56.3072ZM190.856 73.8803C188.831 72.4367 187.043 71.4027 185.594 70.0163C185.006 69.4555 184.883 68.0864 185.018 67.1524C185.656 62.7045 186.936 58.2943 187.07 53.8434C187.232 48.4784 186.271 43.1473 182.546 38.8032C182.485 38.734 182.523 38.583 182.473 37.9311C186.225 40.4025 189.788 42.5757 193.151 45.0195C195.965 47.0613 196.526 50.1354 195.684 53.3087C194.835 56.502 193.635 59.6043 192.532 62.7257C191.287 66.2419 189.765 69.6977 190.856 73.8803ZM75.8659 106.215C76.0389 98.1349 76.1619 90.0525 76.2114 81.9704C76.2249 79.8257 75.9093 77.679 75.7533 75.6453H98.4181C100.842 75.6457 103.266 75.6895 105.688 75.633C107.369 75.5938 109.045 75.339 110.725 75.3202C113.85 75.284 116.986 75.2018 120.097 75.4189C122.6 75.5938 125.083 76.1381 127.56 76.5963C132.06 77.4288 135.522 80.1247 138.974 82.9125C142.893 86.0774 144.417 90.8078 147.027 94.5849C146.001 95.7172 145.032 96.7881 143.968 97.9619C142.565 95.9521 141.429 93.8857 139.885 92.1911C134.504 86.2838 128.05 82.4974 119.921 81.2709C113.378 80.2835 106.844 80.3569 100.309 80.2031C94.3542 80.0628 88.385 80.5883 82.4205 80.7689C81.4211 80.7993 81.0268 81.0972 81.0172 82.133C81.0037 83.6928 80.7692 85.2506 80.7431 86.8108C80.6278 93.7512 80.4095 100.694 80.501 107.633C80.6005 115.175 81.1747 122.731 84.5572 129.629C85.8209 132.207 88.0107 134.338 89.8249 136.636C90.6743 137.711 91.5207 138.84 92.5727 139.694C94.2924 141.09 96.1792 142.28 98.224 143.718C97.034 144.755 95.944 145.705 94.7751 146.725C90.9953 144.184 86.3556 142.468 83.0132 138.64C78.7117 133.715 76.2775 128.144 75.887 121.644C75.6999 118.53 75.3712 115.418 75.3324 112.303C75.307 110.277 75.8221 108.248 75.8659 106.215ZM136.204 58.0537C132.989 56.8768 129.748 55.7675 126.521 54.6213C125.2 54.1516 124.556 54.5007 124.315 55.9908C123.838 58.952 123.108 61.8712 122.601 64.8282C122.095 67.7793 121.735 70.7554 121.291 73.8584C118.134 73.7177 115.023 73.5786 111.745 73.4322C114.055 63.4221 116.343 53.5063 118.651 43.5078C128.384 46.4836 138.125 49.4616 148.077 52.505C146.558 55.3424 145.113 58.0472 143.587 60.8973C141.102 59.9367 138.668 58.9551 136.204 58.0537ZM141 82.4709C139.442 81.2298 138.001 79.4748 136.154 78.7368C132.225 77.1666 132.413 74.2632 132.926 71.043C133.021 70.4503 133.131 69.8599 133.304 68.8701C135.557 69.8745 137.734 70.8123 139.868 71.8378C140.12 71.9585 140.224 72.5512 140.257 72.9371C140.522 76.0877 140.753 79.2407 141 82.4709ZM140.347 70.1224C138.845 69.4521 137.327 68.7936 135.825 68.1014C132.593 66.6116 132.206 66.7496 131.509 70.1777C131.153 71.932 131.056 73.7389 130.838 75.5642C128.575 75.1053 126.351 74.7167 124.17 74.1605C123.72 74.046 123.057 73.2492 123.118 72.8668C123.981 67.4707 124.952 62.0915 125.907 56.71C125.924 56.6154 126.07 56.5439 126.415 56.2161C131.781 58.2186 137.292 60.2754 142.88 62.3601C141.987 65.0964 141.205 67.4914 140.347 70.1224ZM111.47 30.9606C125.618 34.9868 139.629 38.9742 153.946 43.0477C152.527 45.5503 151.417 47.5367 150.283 49.507C149.641 50.614 148.872 50.9891 147.469 50.5482C138.225 47.6409 128.947 44.8427 119.675 42.0226C117.374 41.3231 117.267 41.4561 116.74 43.8084C115.319 50.1454 113.849 56.4713 112.393 62.8002C111.664 65.9678 110.891 69.125 110.209 72.3021C110.005 73.2473 109.723 73.8261 108.613 73.8015C106.211 73.7485 103.806 73.785 100.969 73.785C103.682 59.2418 107.899 45.3797 111.47 30.9606ZM219.407 0.955943C212.75 7.79917 205.97 14.524 199.32 21.3769C196.084 24.7143 192.993 28.2016 189.945 31.7128C189.181 32.5903 188.639 32.5127 187.801 32.048C185.533 30.7896 183.215 29.6246 180.97 28.3254C176.646 25.8209 171.961 23.8991 168.263 20.3706C167.387 19.5361 166.761 20.1073 166.399 21.0967C163.747 28.3738 158.885 34.4107 155.114 41.0617C154.93 41.393 154.111 41.6552 153.711 41.5353C146.566 39.3928 139.462 37.1039 132.3 35.0164C125.488 33.0312 118.618 31.2481 111.777 29.3609C110.784 29.0868 110.197 29.2702 109.921 30.3871C109.2 33.3064 108.381 36.2007 107.615 39.1088C106.234 44.3546 104.772 49.5812 103.513 54.8562C102.103 60.7616 100.869 66.7089 99.5916 72.6454C99.3694 73.6797 98.8132 73.9926 97.8101 73.9764C95.1445 73.9341 92.4766 74.0091 89.811 73.9645C85.023 73.8842 80.2307 73.8473 75.4519 73.5821C73.9075 73.4963 73.657 73.8803 73.828 75.2556C74.1255 77.641 74.4472 80.0432 74.4595 82.4398C74.4807 86.8968 74.2612 91.3547 74.1912 95.813C74.1443 98.8245 74.172 98.7818 71.2416 99.4817C63.9391 101.226 56.6361 102.973 49.3532 104.798C43.1741 106.346 37.0251 108.015 30.8556 109.602C29.8393 109.863 29.1644 110.241 29.5284 111.447C29.9977 113.003 30.4724 114.557 30.9083 116.122C32.6064 122.212 34.2369 128.321 35.993 134.395C37.798 140.639 39.6657 146.867 41.6421 153.059C41.9784 154.113 41.8973 154.588 40.9963 155.082C34.3518 158.73 28.4045 163.623 21.142 166.17C20.0942 166.538 19.9201 167.258 20.6657 168.135C20.9763 168.501 21.333 168.844 21.5724 169.254C25.1916 175.446 28.8146 181.635 32.3523 187.873C32.5637 188.246 32.2474 189.221 31.863 189.58C28.8193 192.425 25.6083 195.097 22.6202 197.998C15.468 204.941 8.41257 211.984 1.31181 218.98C-0.44666 220.713 -0.451274 220.696 1.38292 222.502C7.84063 228.86 14.2568 235.261 20.7637 241.568C24.278 244.974 27.8787 248.299 31.5855 251.491C32.6702 252.426 32.8405 253.07 32.1063 254.153C31.84 254.547 31.6759 255.008 31.4283 255.416C27.8015 261.39 25.3358 268.062 20.6054 273.377C19.829 274.249 20.2168 274.919 21.245 275.287C28.5479 277.894 34.5717 282.78 41.2242 286.546C41.5713 286.742 41.8781 287.553 41.7612 287.947C39.5542 295.392 37.2053 302.796 35.0452 310.254C33.2875 316.323 31.7512 322.456 30.0942 328.554C29.3297 331.366 29.317 331.31 32.0214 332.017C39.4089 333.947 46.7622 336.014 54.1723 337.853C60.4056 339.398 66.7053 340.676 72.9559 342.156C73.444 342.272 74.1028 343.031 74.1278 343.519C74.2988 346.827 74.4322 350.146 74.3626 353.457C74.2716 357.783 73.9906 362.105 73.7719 366.427C73.7131 367.58 74.0106 368.198 75.3355 367.832C76.1411 367.61 76.9875 367.421 77.8166 367.417C84.5852 367.384 91.3543 367.418 98.1229 367.377C99.2115 367.37 99.4132 367.988 99.5824 368.806C100.572 373.58 101.415 378.39 102.603 383.118C104.926 392.342 107.476 401.509 109.848 410.723C110.209 412.129 110.835 412.287 112.043 411.941C116.898 410.542 121.775 409.22 126.627 407.813C135.584 405.215 144.525 402.563 153.488 399.995C153.984 399.853 154.964 400.114 155.183 400.495C158.95 407.079 163.755 413.083 166.407 420.293C166.933 421.727 167.572 421.681 168.648 420.747C170.008 419.571 171.431 418.406 172.987 417.514C177.438 414.962 181.958 412.518 186.486 410.096C189.034 408.736 189.065 408.801 190.926 411.099C191.118 411.334 191.344 411.541 191.552 411.757C196.633 417.019 201.699 422.288 206.792 427.535C211.047 431.913 215.356 436.233 219.584 440.634C220.114 441.191 220.56 441.468 221.01 441.464V438.893C220.329 438.897 219.645 438.209 218.258 436.821C212.661 431.213 206.984 425.678 201.469 419.99C197.736 416.138 194.227 412.076 190.384 407.855C192.936 406.472 195.188 405.196 197.502 404.035C197.882 403.846 198.72 403.973 199.009 404.277C203.56 409.104 208.057 413.982 212.565 418.848C214.91 421.373 217.281 423.876 219.584 426.439C220.095 427.012 220.549 427.304 221.01 427.3V425.302L221.006 425.305C214.022 417.833 207.076 410.411 199.993 402.836C202.691 401.16 205.37 399.499 208.064 397.827C211.032 401.429 213.968 405.007 216.92 408.57C217.843 409.681 218.769 410.796 219.772 411.833C220.187 412.264 220.598 412.472 221.01 412.468V410.65C219.811 409.35 218.646 408.182 217.593 406.917C215.279 404.135 213.038 401.29 210.743 398.492C209.855 397.412 209.279 396.601 210.939 395.506C212.581 394.418 213.918 392.869 215.44 391.478C216.882 393.28 218.292 395.006 219.657 396.766C220.13 397.378 220.572 397.658 221.01 397.65V396.14C219.488 394.014 218.189 392.235 216.939 390.421C216.774 390.182 216.724 389.706 216.843 389.444C218.262 386.362 219.722 383.298 221.002 380.589L221.01 380.612V364.718C219.169 364.693 217.339 364.33 215.479 363.753C210.155 362.099 205.324 359.596 201.192 355.882C198.044 353.056 196.034 349.39 194.266 345.587C192.39 341.543 192.509 337.284 192.736 332.884H199.005C199.489 334.91 199.843 337.041 200.515 339.066C203.652 348.542 210.002 354.718 219.78 356.977C220.195 357.072 220.602 357.128 221.01 357.154V355.303C218.162 355.33 215.613 354.183 213.192 352.673C206.969 348.79 202.714 343.33 201.365 335.919C201.173 334.864 201.042 333.799 200.857 332.551C203.271 332.002 205.485 331.499 207.868 330.957C208.145 331.982 208.433 333.012 208.702 334.046C209.917 338.664 212.262 342.484 216.543 344.844C218.096 345.702 219.58 346.164 221.01 346.236V344.612C218.684 344.651 216.54 343.299 214.206 340.938C211.543 338.243 210.405 334.716 209.686 331.077C209.613 330.711 209.971 330.086 210.313 329.84C211.723 328.831 213.207 327.922 214.437 327.121C215.44 329.297 216.221 331.591 217.481 333.581C218.454 335.112 219.73 335.876 221.01 335.875V333.483C220.452 333.45 219.864 333.155 219.311 332.616C217.128 330.483 216.443 327.689 216.47 324.861C216.486 323.593 217.781 322.358 218.423 321.072C219.376 319.155 220.26 317.207 220.941 315.767C220.964 315.81 220.987 315.857 221.01 315.901V304.012C215.944 304.001 211.758 301.444 208.545 297.663C205.109 293.625 204.14 288.806 205.335 283.558C205.593 282.429 205.954 282 207.084 282.081C208.16 282.158 209.244 282.098 210.397 282.098C210.397 284.1 210.359 285.838 210.401 287.574C210.551 293.71 214.283 297.866 218.8 299.239C219.541 299.465 220.283 299.566 221.01 299.566V297.799C218.023 297.795 215.133 295.932 213.507 292.944C211.608 289.445 211.762 285.635 212.335 281.833C212.377 281.545 212.719 281.242 212.996 281.059C214.395 280.131 215.817 279.241 217.37 278.248C217.062 280.14 216.57 281.932 216.524 283.736C216.478 285.622 216.647 287.574 217.116 289.396C217.531 291.012 219.438 292.144 221.01 292.121V290.325L221.002 290.325C220.195 290.33 219.092 289.393 218.654 288.58C218.142 287.635 218.019 286.368 218.065 285.256C218.227 281.5 219.061 277.879 220.71 274.476C220.741 274.415 220.829 274.378 221.01 274.305V266.528C220.837 266.531 220.664 266.533 220.487 266.527C216.866 266.397 213.549 262.937 213.376 259.329C213.346 258.675 213.153 258.028 213.134 257.374C213.096 256.027 213.173 254.836 214.91 254.389C217.723 253.667 219.753 251.884 220.994 248.942L221.01 248.979V242.108L220.983 242.111C220.422 242.095 219.653 241.328 219.376 240.709C217.416 236.33 218.911 232.363 221.01 228.024V213.351C220.994 213.387 220.975 213.422 220.96 213.458C219.103 209.158 217.381 205.339 219.257 201.087C219.58 200.354 220.372 199.829 220.948 199.207L221.01 199.265V192.391L220.983 192.443C219.718 189.435 217.531 187.772 214.625 186.864C214.068 186.689 213.376 185.9 213.319 185.337C213.034 182.495 213.714 178.587 216.297 176.556C217.7 175.451 219.361 174.928 221.01 174.938V167.178C220.794 167.207 220.579 167.235 220.36 167.264C219.591 163.835 218.684 160.427 218.115 156.965C217.893 155.607 218.165 154.019 218.704 152.74C219.019 151.99 220.164 151.213 221.01 151.13V149.237C220.948 149.237 220.883 149.234 220.821 149.237C219.172 149.315 217.255 150.661 216.982 152.536C216.643 154.861 216.747 157.261 216.801 159.625C216.828 160.796 217.174 161.96 217.381 163.161C215.894 162.214 214.318 161.484 213.13 160.346C212.454 159.696 212.231 158.397 212.127 157.358C211.662 152.8 212.327 148.603 216.14 145.428C217.7 144.129 219.38 143.586 221.01 143.606V141.869C218.884 141.808 216.993 142.675 215.294 143.967C211.95 146.504 210.42 150.018 210.397 154.197C210.386 155.82 210.394 157.442 210.394 159.319C209.11 159.319 207.734 159.39 206.377 159.27C206.035 159.24 205.566 158.649 205.458 158.235C203.306 150.232 207.43 142.4 213.911 139.596C215.986 138.697 218.135 137.41 220.279 137.347C220.525 137.339 220.768 137.344 221.01 137.349V125.429L220.96 125.521C220.014 123.623 218.938 121.085 217.512 118.761C216.559 117.207 216.048 115.716 216.728 114.063C217.47 112.256 218.3 110.447 219.38 108.83C219.826 108.16 220.402 107.884 221.01 107.928V105.516C219.695 105.52 218.381 106.399 217.297 108.15C216.121 110.052 215.394 112.231 214.456 114.304C213.023 113.353 211.335 112.234 209.552 111.052C210.693 105.193 212.711 99.9314 218.796 97.2951C219.576 96.9564 220.31 96.8062 221.01 96.7931V95.108C218.396 95.0346 216.221 96.4975 214.199 98.1991C211.285 100.651 209.379 103.871 208.652 107.701C208.472 108.636 208.126 109.539 207.857 110.472C205.481 109.912 203.229 109.381 200.934 108.839C201.561 99.466 206.346 92.8676 213.941 88.2098C216.328 86.7458 218.688 86.0931 221.01 86.1185V84.3858C218.112 84.3397 215.494 85.4493 213.08 86.8246C207.495 90.0017 203.256 94.6118 200.984 100.737C200.239 102.748 199.897 104.92 199.489 107.042C199.278 108.136 198.982 108.777 197.679 108.684C196.068 108.568 194.439 108.656 192.874 108.656C191.625 100.491 194.254 93.7082 199.255 87.6956C204.271 81.6687 211.093 78.706 218.454 76.8791C219.261 76.6789 220.13 76.6182 221.01 76.6447V60.8285L220.998 60.8511C219.749 58.1813 218.335 55.2002 216.978 52.1922C216.816 51.8312 216.812 51.2116 217.02 50.9015C218.215 49.1088 219.499 47.373 220.987 45.2863L221.01 45.3178V43.7019C220.368 43.6942 219.73 44.5425 218.231 46.2541C217.208 47.4241 216.401 48.7836 215.533 50.0001C213.542 48.2113 211.624 46.4847 209.448 44.531C213.296 39.8675 217.035 35.3328 221.002 30.5178L221.01 30.5255V28.8439C220.579 28.8408 220.156 29.1095 219.745 29.5992C215.871 34.2066 211.993 38.8143 208.011 43.547C205.451 41.9627 202.772 40.3038 199.996 38.5864C207.065 31.0194 213.984 23.6158 220.998 16.1107L221.01 16.1222V14.0643C220.464 14.0632 219.922 14.5821 218.961 15.6271C214.426 20.5689 209.848 25.4719 205.285 30.3895C203.321 32.5092 201.315 34.5929 199.408 36.7645C198.709 37.5625 198.148 37.9157 197.129 37.3084C195.011 36.0481 192.843 34.8796 190.153 33.3698C200.527 22.6791 210.64 12.259 220.998 1.58284L221.01 1.59437V2.7313e-05C220.514 -0.00343197 220.026 0.321741 219.407 0.955943Z" fill="url(#paint0_linear_1049_9675)"/>
</g>
<defs>
<linearGradient id="paint0_linear_1049_9675" x1="468.99" y1="220.731" x2="-17.0197" y2="220.731" gradientUnits="userSpaceOnUse">
<stop stop-color="#BC945C"/>
<stop offset="0.2" stop-color="#A17A48"/>
<stop offset="0.3" stop-color="#9E7645"/>
<stop offset="0.5" stop-color="#DEAF70"/>
<stop offset="0.6" stop-color="#FAC883"/>
<stop offset="0.7" stop-color="#EEBC7B"/>
<stop offset="1" stop-color="#966F41"/>
</linearGradient>
</defs>
</svg>
