<svg width="80" height="67" viewBox="0 0 80 67" fill="none" xmlns="http://www.w3.org/2000/svg">
<g id="Inverted Commas">
<path id="Vector" fill-rule="evenodd" clip-rule="evenodd" d="M28.7577 0.593937C11.6773 11.5634 2.18834 24.3305 0.290877 38.8958C-2.66304 61.5707 17.6146 72.6694 27.889 62.6972C38.1635 52.7254 32.0046 40.0678 24.5648 36.608C17.1251 33.1479 12.5754 34.353 13.3691 29.7296C14.1627 25.106 24.7472 12.2869 34.0461 6.31693C34.6631 5.79231 34.8978 4.77437 34.3038 4.0023C33.913 3.49423 33.1466 2.49822 32.0046 1.01388C31.0059 -0.284083 30.0492 -0.235522 28.7577 0.593937Z" fill="#EFEFEF"/>
<path id="Vector_2" fill-rule="evenodd" clip-rule="evenodd" d="M73.7254 0.593937C56.6452 11.5634 47.1562 24.3305 45.2586 38.8958C42.3048 61.5707 62.5825 72.6694 72.8569 62.6972C83.1314 52.7254 76.9725 40.0678 69.5327 36.608C62.093 33.1479 57.5431 34.353 58.337 29.7296C59.1306 25.106 69.7151 12.2869 79.014 6.31693C79.6309 5.79231 79.8657 4.77437 79.2714 4.0023C78.8809 3.49423 78.1145 2.49822 76.9725 1.01388C75.9738 -0.284083 75.0171 -0.235522 73.7254 0.593937Z" fill="#EFEFEF"/>
</g>
</svg>
