<svg width="87" height="73" viewBox="0 0 87 73" fill="none" xmlns="http://www.w3.org/2000/svg">
<g id="Inverted Commas">
<path id="Vector" fill-rule="evenodd" clip-rule="evenodd" d="M55.7968 72.3556C74.3297 60.4533 84.6256 46.6005 86.6844 30.7965C89.8895 6.19346 67.8875 -5.84905 56.7393 4.97107C45.5912 15.7909 52.2738 29.5249 60.3462 33.279C68.4186 37.0332 73.3552 35.7257 72.494 40.7422C71.6329 45.759 60.1483 59.6682 50.0586 66.1459C49.3892 66.7151 49.1345 67.8196 49.7791 68.6574C50.2031 69.2086 51.0347 70.2893 52.2738 71.8999C53.3574 73.3082 54.3955 73.2555 55.7968 72.3556Z" fill="#EFEFEF"/>
<path id="Vector_2" fill-rule="evenodd" clip-rule="evenodd" d="M7.00538 72.3556C25.5381 60.4533 35.834 46.6005 37.8929 30.7965C41.0979 6.19346 19.0959 -5.84905 7.94771 4.97107C-3.20047 15.7909 3.48219 29.5249 11.5546 33.279C19.627 37.0332 24.5638 35.7257 23.7024 40.7422C22.8413 45.759 11.3567 59.6682 1.26702 66.1459C0.597622 66.7151 0.342911 67.8196 0.987698 68.6574C1.41148 69.2086 2.24306 70.2893 3.48219 71.8999C4.56577 73.3082 5.60383 73.2555 7.00538 72.3556Z" fill="#EFEFEF"/>
</g>
</svg>
