<svg width="250" height="250" viewBox="0 0 203 405" fill="none" xmlns="http://www.w3.org/2000/svg">
<g opacity="0.5">
<path fill-rule="evenodd" clip-rule="evenodd" d="M175.79 371.018C180.549 368.331 185.33 365.67 189.972 362.792C197.138 358.348 200.71 351.572 201.763 343.404C202.062 341.082 201.816 338.688 201.77 336.328C201.763 336.092 201.439 335.723 201.192 335.655C200.047 335.335 198.874 335.099 197.782 334.849C197.55 336.926 197.448 338.912 197.088 340.849C195.679 348.411 191.942 354.489 185.784 359.25C179.542 364.08 172.687 367.849 165.814 371.625C162.777 373.294 159.681 374.854 156.644 376.524C155.823 376.976 155.443 376.881 154.946 376.061C152.797 372.531 150.479 369.103 148.39 365.539C145.6 360.775 142.775 356.012 140.32 351.074C137.963 346.338 136.047 341.353 135.941 335.956C135.899 333.789 136.325 331.595 136.699 329.441C136.994 327.718 137.396 325.986 137.998 324.348C138.597 322.719 139.506 321.204 140.366 319.459C138.95 319.036 137.741 318.674 136.441 318.286C134.497 322.12 131.781 325.516 130.775 329.921C129.394 335.971 130.015 341.674 132.795 347.102C134.856 351.123 137.238 354.983 139.534 358.88C142.87 364.545 146.284 370.165 149.62 375.831C151.121 378.381 152.516 380.994 153.808 383.307C161.062 379.255 168.445 375.168 175.79 371.018ZM194.006 336.468C193.629 334.561 192.858 333.033 190.927 332.093C185.587 329.498 181.183 325.817 178.189 320.115C178.101 320.816 177.999 321.148 178.027 321.468C178.189 323.271 178.407 325.069 178.559 326.873C178.795 329.657 179.778 332.158 181.539 334.292C185.576 339.176 188.993 344.409 191.103 350.574C193.062 345.999 195.006 341.541 194.006 336.468ZM177.382 345.035C178.83 349.074 180.074 353.189 181.331 357.295C181.613 358.223 181.567 359.252 181.705 360.547C183.801 358.825 185.791 357.175 187.795 355.542C190.332 353.478 189.832 350.703 188.673 348.509C186.362 344.146 183.508 340.069 180.849 335.894C179.961 334.504 178.982 333.174 177.995 331.748C175.307 336.084 175.748 340.486 177.382 345.035ZM175.381 315.192C174.955 312.819 174.487 310.452 174.053 308.167C171.334 311.429 168.417 314.724 165.733 318.198C162.157 322.825 160.762 328.015 162.647 333.739C163.052 334.963 163.848 336.108 164.665 337.129C165.419 338.068 166.458 338.451 167.765 337.936C172.863 335.922 175.251 331.892 176.28 326.79C177.076 322.835 176.075 319.026 175.381 315.192ZM179.175 281.019C176.498 281.249 174.705 282.867 173.641 285.192C173.063 286.457 172.912 287.915 172.567 289.285C172.806 293.965 176.336 296.858 180.933 295.956C183.156 295.521 184.09 293.63 185.027 291.914C186.397 289.394 186.545 286.694 185.094 284.16C183.825 281.948 181.786 280.795 179.175 281.019ZM181.736 303.201C184.879 302.772 188.021 302.039 191.029 301.045C194.238 299.986 196.257 297.453 198.149 294.664C201.009 290.448 201.404 285.737 201.735 280.952C201.752 280.657 201.154 280.158 200.748 280.021C196.528 278.589 192.382 276.985 189.659 273.207C188.447 271.525 187.602 269.58 186.496 267.585C185.597 270.627 184.717 273.606 183.839 276.586C183.716 277.009 183.674 277.47 183.48 277.856C182.821 279.158 182.941 280.021 184.304 280.964C188.648 283.967 189.433 291.731 185.108 296.024C181.141 299.961 174.67 298.763 172.109 295.18C169.713 291.828 169.044 286.847 172.838 282.817C174.578 280.97 176.547 279.677 179.115 279.459C180.345 279.354 180.796 278.721 181.064 277.508C181.835 273.97 182.804 270.474 183.741 266.794C181.687 268.006 179.936 269.169 178.073 270.11C175.036 271.646 171.76 271.449 168.495 271.129C168.385 271.118 168.287 271.06 168.177 271.038C163.883 270.145 163.883 270.145 162.055 274.198C159.994 278.764 159.406 283.454 160.505 288.401C161.365 292.274 163.897 294.902 166.652 297.401C167.871 298.508 169.259 299.433 170.594 300.409C173.927 302.847 177.731 303.749 181.736 303.201ZM200.826 249.579C202.231 245.921 202.179 245.901 198.307 244.591C197.444 246.382 196.736 248.252 195.7 249.919C193.967 252.703 191.611 253.34 188.208 252.231C185.971 251.502 184.519 249.299 184.583 246.511C184.625 244.654 184.836 242.799 184.97 240.944C183.801 240.765 182.663 240.591 181.307 240.384C180.426 242.684 179.69 245.11 180.32 247.622C181.233 251.237 182.814 254.389 186.612 255.988C192.984 258.675 199.047 254.213 200.826 249.579ZM195.665 241.815C194.52 239.931 194.108 237.6 193.361 235.422C192.125 237.914 189.962 239.669 187.221 240.75C187.038 240.823 186.823 241.031 186.777 241.214C186.161 243.72 185.446 246.232 186.552 248.785C187.334 250.59 188.923 251.235 190.702 251.292C192.435 251.347 193.71 250.318 194.598 248.902C195.091 248.115 195.348 247.182 195.792 246.36C196.641 244.802 196.701 243.515 195.665 241.815ZM195.869 231.705C199.234 231.175 201.985 227.614 201.809 224.156C201.791 223.847 201.717 223.393 201.509 223.264C199.325 221.899 199.16 219.521 198.438 217.292C196.754 218.904 195.503 220.888 192.939 220.881C192.706 220.88 192.431 221.27 192.252 221.532C190.226 224.516 190.857 229.129 193.682 231.266C194.221 231.675 195.168 231.815 195.869 231.705ZM201.516 180.958C201.721 180.827 201.788 180.372 201.802 180.061C201.978 176.619 199.213 173.072 195.859 172.494C193.935 172.163 192.977 173.579 192.086 174.877C190.603 177.037 190.783 180.765 192.368 182.843C192.526 183.05 192.717 183.293 192.942 183.378C196.183 184.582 196.187 184.575 198.438 186.931C199.153 184.696 199.357 182.336 201.516 180.958ZM196.493 161.06C196.637 160.9 196.655 160.492 196.56 160.277C195.672 158.288 195.017 156.119 193.752 154.396C192.516 152.709 190.483 152.479 188.507 153.475C186.735 154.368 185.985 155.898 186.034 157.801C186.073 159.17 186.249 160.538 186.429 161.899C186.555 162.854 187.034 163.366 188.007 163.912C189.733 164.882 191.153 166.405 192.66 167.741C193.041 168.08 193.277 168.582 193.826 169.358C193.833 166.031 194.478 163.308 196.493 161.06ZM198.346 159.712C198.666 159.565 199.103 159.358 199.544 159.166C201.95 158.119 201.781 158.161 201.139 155.49C200.142 151.328 194.295 146.796 190.004 147.445C186.918 147.912 184.178 148.901 182.381 151.682C179.841 155.617 179.478 159.387 181.349 163.853C182.635 163.664 183.822 163.489 184.981 163.319C184.843 161.415 184.628 159.513 184.583 157.607C184.519 154.892 186.076 152.635 188.32 151.978C191.734 150.978 194.059 151.619 195.686 154.284C196.711 155.963 197.434 157.825 198.346 159.712ZM185.823 118.247C186.488 114.801 184.907 110.396 182.441 108.922C179.901 107.399 177.502 108.548 175.198 109.521C172.771 110.548 172.799 112.85 172.806 115.045C172.81 119.044 174.913 122.163 178.196 123.037C181.55 123.929 185.164 121.659 185.823 118.247ZM200.738 124.185C201.139 124.053 201.742 123.571 201.728 123.279C201.629 121.36 201.386 119.448 201.192 117.534C200.759 113.226 198.483 109.785 195.901 106.522C194.15 104.31 191.642 103.127 189.018 102.426C186.379 101.721 183.639 101.31 180.916 100.999C176.361 100.479 172.472 102.227 168.963 104.952C165.983 107.265 163.052 109.676 161.456 113.205C160.766 114.732 160.28 116.419 160.068 118.079C159.364 123.574 160.974 128.575 163.781 133.229C164 133.591 164.873 133.733 165.423 133.692C168.139 133.492 170.851 132.988 173.567 132.989C176.579 132.99 179.2 134.4 181.617 136.138C182.233 136.582 182.857 137.022 183.762 137.668C182.74 133.5 181.849 129.65 180.803 125.841C180.676 125.381 179.76 124.938 179.154 124.841C174.684 124.128 171.633 121.531 170.636 117.292C169.259 111.424 172.359 105.745 179.64 105.888C183.987 105.973 186.161 108.714 187.5 111.94C188.845 115.184 188.282 118.697 185.974 121.654C185.636 122.086 185.347 122.676 184.893 122.877C182.709 123.851 183.04 125.306 183.684 127.16C184.745 130.217 185.516 133.375 186.538 136.946C186.922 136.072 187.165 135.568 187.366 135.047C189.736 128.86 194.887 126.105 200.738 124.185ZM172.359 69.5403C171.08 68.3181 169.527 67.3542 168.005 66.428C166.575 65.5581 165.324 66.1683 164.398 67.3852C161.858 70.7214 161.368 74.5048 162.147 78.5114C162.978 82.7858 165.595 86.0864 168.262 89.3247C170.171 91.6427 172.218 93.8468 174.067 95.9509C174.857 91.78 175.963 87.4106 176.442 82.9733C176.974 78.0328 176.199 73.2186 172.359 69.5403ZM185.245 62.167C187.179 59.1754 189.127 56.1594 189.433 52.3904C189.553 50.9089 189.039 49.9834 188.063 49.1211C186.013 47.3158 183.952 45.5246 181.659 43.5187C181.529 49.2197 179.461 53.9881 177.548 58.7918C176.301 61.9295 175.642 65.1329 176.326 68.4628C176.614 69.8778 177.336 71.2049 177.89 72.647C180.447 69.0286 182.973 65.6805 185.245 62.167ZM191.466 71.8588C193.816 70.7094 194.284 68.2407 194.186 66.025C194.066 63.2608 193.379 60.5056 192.759 57.7853C192.445 56.4163 191.737 55.1389 191.339 54.1535C189.409 57.6304 187.521 61.2658 185.393 64.7554C184.051 66.9576 182.332 68.9291 180.81 71.024C179.228 73.1978 178.626 75.6669 178.541 78.3305C178.485 80.1168 178.214 81.8968 178.038 83.6792C181.307 78.2478 185.921 74.5713 191.466 71.8588ZM196.979 62.6921C197.349 64.8546 197.529 67.0495 197.807 69.3669C198.793 69.1543 199.924 68.9917 200.988 68.6334C201.337 68.5166 201.71 67.9001 201.731 67.4939C201.826 65.7446 202.013 63.9562 201.759 62.2423C201.337 59.376 200.808 56.4938 199.952 53.7312C197.944 47.263 193.132 43.1069 187.535 39.8587C179.841 35.3894 172.003 31.17 164.239 26.8168C160.734 24.8531 157.264 22.8331 153.953 20.9362C151.557 24.9762 149.063 29.2379 146.513 33.475C142.955 39.3872 139.274 45.2325 135.804 51.2009C133.165 55.7406 130.827 60.4387 130.149 65.7713C129.715 69.1849 130.09 72.5535 131.302 75.6929C132.662 79.2082 134.504 82.5369 136.17 86.0248C137.762 85.5525 138.974 85.1936 140.292 84.8022C140.168 84.4025 140.151 83.9907 139.943 83.7296C137.569 80.745 137.125 77.0467 136.343 73.537C135.17 68.2699 136.29 63.1756 138.196 58.2041C141.606 49.3252 146.805 41.4248 151.684 33.3483C152.734 31.6098 153.893 29.9382 154.939 28.1927C155.383 27.4537 155.689 27.1863 156.598 27.6895C160.649 29.9277 164.817 31.9582 168.833 34.2598C173.574 36.973 178.34 39.6898 182.842 42.7726C186.753 45.4542 190.529 48.4806 192.974 52.6649C194.207 54.7694 194.947 57.1624 195.866 59.4393C196.296 60.5021 196.785 61.5768 196.979 62.6921ZM102.063 28.4391C98.7643 41.5479 95.5167 54.4562 92.2184 67.5644C94.9943 67.5644 97.3552 67.6115 99.7112 67.52C100.127 67.5038 100.791 66.9717 100.886 66.5709C102.961 57.7888 104.99 48.9945 106.983 40.1931C107.486 37.9725 107.554 37.8704 109.799 38.5672C117.328 40.9004 124.853 43.2441 132.387 45.5668C133.542 45.9222 134.719 46.3551 135.906 46.4361C136.487 46.4748 137.34 45.9292 137.685 45.3979C138.798 43.6911 139.732 41.8682 140.912 39.7707C128.18 35.1959 115.112 32.2363 102.063 28.4391ZM128.529 66.4491C128.506 66.181 128.256 65.8139 128.014 65.7013C126.132 64.8226 124.226 63.9952 122.088 63.0464C121.888 65.1639 121.749 66.8679 121.555 68.5662C121.438 69.6023 121.799 70.1801 122.723 70.7889C124.783 72.147 126.679 73.7517 128.648 75.2477C128.856 75.4057 129.105 75.5095 129.226 75.5775C129 72.5292 128.786 69.4872 128.529 66.4491ZM131.633 55.6808C132.898 53.3441 134.275 50.8033 135.726 48.1252C126.649 45.3556 117.718 42.6248 108.747 39.8869C106.635 49.0121 104.54 58.0563 102.411 67.2547C105.429 67.4102 108.227 67.5545 111.072 67.7009C111.806 63.2833 112.534 58.8411 113.288 54.4069C113.453 53.4321 113.82 52.4784 113.904 51.5001C114.037 49.9482 114.758 49.6209 116.129 50.1171C121.216 51.9576 126.31 53.7735 131.633 55.6808ZM115.466 51.3629C114.883 54.3471 114.315 57.0674 113.831 59.8018C113.466 61.8612 113.256 63.9463 112.887 66.0029C112.666 67.2381 112.728 67.9321 114.305 68.0838C116.152 68.2608 117.958 68.8495 119.798 69.2634C120.232 66.6416 120.648 64.1265 121.112 61.322C122.691 61.8703 123.883 62.2409 125.042 62.6973C126.219 63.1608 127.362 63.7091 128.629 64.2683C129.388 61.927 130.126 59.654 130.94 57.1448C125.873 55.2515 120.823 53.3653 115.466 51.3629ZM90.8142 69.2725C85.0596 69.3503 79.3056 69.489 73.5509 69.533C72.1982 69.5432 70.8433 69.2771 69.554 69.1448C69.554 76.0494 69.6195 82.9336 69.5294 89.8156C69.4751 93.9848 68.8889 98.163 69.0633 102.315C69.3205 108.45 68.9132 114.782 71.7399 120.497C74.1015 125.273 77.3846 129.34 82.3495 131.776C83.9827 132.577 85.5182 133.578 86.9569 134.407C87.9714 133.483 88.9532 132.59 90.0093 131.629C88.1662 130.337 86.2383 129.307 84.7143 127.854C80.579 123.909 76.97 119.621 75.6088 113.784C74.174 107.631 73.6858 101.424 73.7492 95.1454C73.8091 89.1632 73.8989 83.1809 74.0035 77.1994C74.018 76.3791 74.1378 75.549 74.3227 74.7501C74.3882 74.4658 74.7595 74.1142 75.0498 74.0477C75.7441 73.8883 76.4723 73.8274 77.1884 73.8182C84.7753 73.7183 92.3639 73.5181 99.9497 73.587C105.958 73.6419 111.924 74.3584 117.577 76.5593C120.632 77.7484 123.389 79.4598 125.519 82.0763C126.302 83.0384 127.507 83.6571 128.292 84.6185C129.57 86.1856 130.66 87.9054 131.963 89.7491C132.912 88.6655 133.75 87.708 134.86 86.4386C132.905 83.5582 131.022 80.1615 128.541 77.28C124.747 72.8747 119.792 70.2632 113.924 69.5604C108.988 68.9692 104.064 68.7091 99.0866 69.2039C96.3541 69.4759 93.5729 69.2353 90.8142 69.2725ZM68.1971 113.356C68.1122 113.001 67.403 112.494 67.0564 112.546C62.0045 113.307 56.9653 114.152 51.5244 115.041C53.5433 120.439 55.441 125.512 57.345 130.603C59.8384 129.815 62.0852 129.104 64.4024 128.372C63.4629 125.984 62.5326 123.619 61.4194 120.79C64.3686 120.328 66.8937 119.934 69.4353 119.536C69.0499 117.536 68.6913 115.43 68.1971 113.356ZM67.8141 91.9669C54.7523 95.2362 41.7909 98.4812 28.6008 101.783C32.4085 114.829 35.4127 127.849 39.9365 140.621C42.3774 139.216 44.6112 137.93 46.9168 136.604C46.3183 134.338 45.8469 132.253 45.216 130.217C43.0936 123.366 40.9042 116.536 38.762 109.691C37.9965 107.247 38.0388 107.303 40.5783 106.734C46.8635 105.327 53.1354 103.857 59.4111 102.406C61.7713 101.861 64.1206 101.268 66.4882 100.762C67.365 100.574 67.8385 100.223 67.8244 99.2617C67.7912 96.9718 67.8141 94.6815 67.8141 91.9669ZM51.293 113.729C56.8085 112.746 62.3124 111.702 67.6873 110.704L67.6873 102.103C58.3053 104.258 49.2181 106.344 40.0718 108.444C42.7881 117.327 45.5228 126.269 48.3111 135.389C50.9651 133.971 53.4489 132.644 56.0001 131.282C54.7044 127.906 53.3933 124.579 52.155 121.225C51.4279 119.257 50.7903 117.254 50.1654 115.25C49.8727 114.311 50.3214 113.902 51.293 113.729ZM75.7522 128.916C74.8205 127.72 73.7876 126.443 72.81 125.125C72.1231 124.198 71.4249 123.261 70.8926 122.244C70.4847 121.465 70.0578 121.068 69.138 121.192C67.3055 121.439 65.4631 121.613 63.3107 121.853C64.2439 123.971 65.0566 125.88 65.944 127.753C66.0584 127.994 66.5555 128.147 66.8898 128.177C69.8295 128.443 72.772 128.673 75.7522 128.916ZM38.2213 143.389C32.4215 146.784 26.6918 150.298 21.1327 153.638C25.4899 161.31 29.9983 169.274 34.533 177.223C36.9944 181.537 39.344 185.926 42.0212 190.103C46.4732 197.049 53.2386 200.327 61.2119 201.348C62.6594 201.534 64.1731 201.155 65.6583 201.118C66.6323 201.093 68.2041 201.604 68.4718 201.196C69.1873 200.106 69.3444 198.649 69.7566 197.221C67.9885 197.119 66.3935 197.141 64.834 196.916C55.9891 195.642 49.0889 191.156 44.0295 183.894C41.3826 180.094 38.9445 176.141 36.5554 172.171C34.5908 168.906 32.8213 165.523 30.9973 162.174C29.9218 160.2 28.8587 158.216 27.9125 156.179C27.7409 155.809 27.9974 154.887 28.3345 154.686C36.7657 149.668 45.1276 144.517 53.7406 139.826C58.3321 137.325 63.4153 135.675 68.747 135.569C71.0156 135.523 73.2895 136.276 75.5761 136.529C78.9519 136.904 81.961 138.167 84.9644 140.236C85.4157 138.744 85.7937 137.492 86.1618 136.273C80.6058 132.232 74.5961 129.493 67.5183 129.726C63.904 129.845 60.4806 130.786 57.3704 132.473C50.9129 135.975 44.5629 139.678 38.2213 143.389ZM17.2439 187.003C12.5006 191.576 7.78689 196.18 3.03547 200.744C2.15444 201.59 1.80992 202.327 2.82622 203.316C7.11265 207.489 11.341 211.722 15.6566 215.864C20.6279 220.636 25.6681 225.335 30.8377 230.216C32.126 227.915 33.3378 225.877 34.3928 223.761C34.5993 223.347 34.402 222.416 34.0501 222.087C27.5539 216.01 21.0175 209.975 14.4607 203.962C12.582 202.24 12.5785 202 14.4769 200.263C19.0067 196.119 23.4982 191.932 28.0065 187.765C29.9461 185.972 31.8494 184.136 33.8496 182.413C34.6828 181.695 34.843 181.04 34.3171 180.13C33.2145 178.22 32.1246 176.303 30.8032 173.992C26.1641 178.442 21.6942 182.712 17.2439 187.003ZM41.7049 202.127C43.5994 203.483 45.2301 204.681 46.9041 205.816C47.15 205.982 47.6516 205.971 47.9433 205.84C50.7375 204.583 53.512 203.283 56.0867 202.092C53.3732 200.91 50.3708 199.602 47.1503 198.2C45.5563 199.349 43.7442 200.656 41.7049 202.127ZM28.1488 202.107C32.5596 205.738 36.7372 209.177 41.0035 212.689C42.7836 210.707 44.33 208.985 45.9332 207.2C44.3596 205.943 42.7589 204.641 41.1318 203.373C40.0063 202.496 40.0626 201.698 41.1578 200.845C42.7582 199.599 44.3332 198.319 45.9336 197.042C44.3131 195.237 42.7417 193.485 41.0127 191.559C36.8052 195.009 32.6435 198.422 28.1488 202.107ZM27.5369 200.794C31.7297 197.298 35.8925 193.765 40.1017 190.215C38.6314 187.853 37.1219 185.429 35.5497 182.904C28.6748 189.313 21.8661 195.66 14.9401 202.116C21.783 208.5 28.5955 214.855 35.5377 221.33C37.0613 218.892 38.5887 216.448 40.1451 213.958C36.808 211.224 33.4864 208.514 30.1821 205.784C29.1599 204.94 28.1435 204.081 27.2023 203.15C26.323 202.281 26.6563 201.528 27.5369 200.794ZM27.3009 239.751C25.2342 243.456 23.1057 247.125 21.0918 250.658C25.0365 252.975 29.2638 255.419 33.4519 257.929C39.4233 261.506 45.3083 265.233 51.3455 268.695C54.3018 270.392 57.4814 271.72 60.6236 273.067C65.7527 275.266 71.0441 275.032 76.1475 273.216C79.6427 271.972 82.8861 270.022 86.2869 268.366C85.8208 266.844 85.4259 265.554 85.0317 264.267C83.0182 265.191 81.1941 266.226 79.2436 266.888C72.1573 269.293 65.1644 269.16 58.1398 266.299C49.8022 262.902 42.2066 258.211 34.5957 253.517C32.541 252.25 30.5393 250.891 28.4416 249.7C27.5253 249.18 27.433 248.784 27.9318 247.895C31.6821 241.215 35.4148 234.527 39.0928 227.807C41.905 222.67 45.427 218.086 49.6846 214.084C52.5404 211.4 55.9359 209.76 59.7429 208.645C62.9465 207.706 66.0789 206.872 69.733 207.157C69.3631 205.68 69.0577 204.461 68.7699 203.311C61.0171 202.202 53.8202 203.378 47.5582 208.114C43.8066 210.951 41.1783 214.847 38.8818 218.904C34.9656 225.821 31.1741 232.81 27.3009 239.751ZM28.5275 302.433C41.7134 305.741 54.6762 308.994 67.7849 312.283L67.7849 303.792C61.6135 302.347 55.6133 300.921 49.6021 299.544C46.3264 298.794 43.0362 298.103 39.7435 297.431C38.4852 297.174 38.1202 296.629 38.5299 295.339C40.8859 287.926 43.1827 280.493 45.482 273.061C45.824 271.956 45.917 270.748 46.4017 269.718C47.1616 268.102 46.431 267.26 45.1484 266.549C43.5043 265.64 41.8578 264.735 39.6445 263.515C35.9217 276.548 32.2672 289.342 28.5275 302.433ZM50.9073 286.599C52.4182 282.055 54.2165 277.607 55.9504 272.955C53.5063 271.639 50.9968 270.287 48.3156 268.843C45.532 277.94 42.8111 286.83 40.0676 295.795C49.1315 297.883 58.2151 299.975 67.6271 302.142L67.6271 293.457C63.0627 292.667 58.1972 291.884 53.357 290.97C49.2365 290.191 49.6004 290.529 50.9073 286.599ZM68.2869 290.664C68.6103 288.671 69.0538 286.698 69.4406 284.753C66.9377 284.344 64.4151 283.932 61.4215 283.443C62.4889 280.733 63.3999 278.42 64.3771 275.937C62.1451 275.193 59.8807 274.438 57.3612 273.598C55.4502 278.707 53.5528 283.778 51.5442 289.149C55.2695 289.799 58.6555 290.397 62.0443 290.979C63.5591 291.238 65.0767 291.483 66.5985 291.698C67.4136 291.814 68.1073 291.772 68.2869 290.664ZM75.7498 275.374C72.7805 275.59 69.8993 275.791 67.0205 276.02C66.6721 276.048 66.1314 276.13 66.0253 276.352C65.1063 278.272 64.2672 280.229 63.278 282.458C65.5945 282.659 67.5472 282.848 69.5033 282.98C69.8341 283.003 70.3255 282.886 70.4981 282.652C72.2781 280.248 74.0092 277.807 75.7498 275.374ZM75.7977 275.304C75.8054 275.241 75.8125 275.274 75.7977 275.304V275.304ZM156.528 300.521C154.196 302.042 151.54 302.775 148.672 302.702C144.188 302.588 141.592 299.274 140.598 294.833C139.753 291.041 140.235 287.282 141.683 283.545C139.457 282.875 137.47 282.277 135.314 281.627C133.644 285.319 132.528 289.011 132.957 293.121C133.433 297.644 134.596 301.825 137.364 305.555C140.419 309.673 144.568 310.857 149.313 310.219C152.121 309.842 154.914 309.075 157.592 308.143C161.756 306.695 164.683 303.618 167.244 300.038C165.652 298.56 164.077 297.101 162.573 295.703C160.558 297.33 158.67 299.121 156.528 300.521ZM158.937 289.343C157.549 290.438 156.207 291.62 154.742 292.621C153.125 293.725 151.254 294.405 149.472 293.178C147.781 292.011 147.848 289.976 147.925 288.187C147.992 286.624 148.486 285.078 148.799 283.463C146.953 283.587 145.104 283.711 143.194 283.839C141.81 287.656 141 291.609 142.381 295.581C144.308 301.112 147.552 302.082 153.488 300.3C156.848 299.291 159.107 296.752 161.358 294.285C160.533 292.603 159.723 290.947 158.937 289.343ZM152.988 281.389C151.705 282.146 150.56 282.921 150.377 284.538C150.183 286.257 149.761 287.991 149.866 289.692C149.972 291.48 151.272 292.108 152.945 291.563C156.271 290.48 158.511 287.364 158.582 283.931C158.627 281.646 158.849 279.364 158.959 277.619C157.222 278.723 155.14 280.118 152.988 281.389ZM145.079 260.725C142.927 257.997 139.795 257.496 136.522 259.207C133.976 260.539 132.651 262.845 131.957 265.447C131.697 266.422 131.982 267.848 132.57 268.682C133.909 270.589 135.392 272.53 138.143 272.837C141.338 272.223 144.04 270.735 145.565 267.695C146.742 265.35 146.826 262.937 145.079 260.725ZM161.742 268.329C159.427 266.065 157.419 263.437 156.591 260.35C155.809 257.434 155.844 254.299 155.51 251.145C152.843 253.673 150.007 256.319 147.249 259.041C146.957 259.33 146.897 260.156 147.084 260.579C149.722 266.609 146.738 274.496 137.872 275.087C134.948 275.283 132.514 273.39 130.986 270.869C128.879 267.391 129.387 262.888 131.974 259.985C134.617 257.018 139.668 255.467 143.807 257.485C144.621 257.881 145.15 257.81 145.674 257.26C148.327 254.495 150.951 251.707 153.72 248.786C151.487 248.786 149.482 248.936 147.513 248.739C145.946 248.582 144.248 248.304 142.916 247.542C140.538 246.182 138.33 244.497 136.188 242.78C135.378 242.131 134.895 241.992 134.085 242.607C132.323 243.937 130.37 245.045 128.755 246.525C125.272 249.716 123.089 253.75 122.372 258.404C122.104 260.145 122.422 262.069 122.867 263.809C123.812 267.505 125.141 271.096 127.375 274.238C129.755 277.587 133.352 279.218 137.068 280.507C139.291 281.279 141.627 281.784 143.952 282.181C146.678 282.647 149.158 281.636 151.593 280.5C156.186 278.358 159.424 274.854 161.967 270.57C162.524 269.634 162.531 269.102 161.742 268.329ZM177.756 262.861C174.585 266.234 168.759 266.716 165.493 264.006C162.418 261.453 161.312 257.912 162.231 254.152C162.936 251.276 164.493 248.609 165.683 245.812C164.736 245.25 163.556 244.548 162.369 243.841C156.197 248.857 155.749 258.097 159.871 263.5C161.59 265.757 162.953 268.289 165.951 269.037C172.993 270.796 178.457 269.954 183.459 264.361C185.005 262.628 185.696 260.129 186.813 257.916C185.861 257.409 185.178 257.075 184.526 256.688C183.913 256.326 183.336 255.908 183.1 255.751C181.317 258.162 179.764 260.726 177.756 262.861ZM179.193 249.686C177.992 252.114 176.886 254.701 175.462 257.099C174.388 258.913 172.13 259.643 170.629 259.093C168.273 258.229 167.149 255.871 168.294 253.407C169.185 251.487 170.548 249.781 171.735 248.003C172.151 247.383 172.669 246.833 173.261 246.1C171.418 246.19 169.837 246.26 168.259 246.357C168.065 246.369 167.811 246.477 167.695 246.625C165.007 250.04 162.834 253.597 163.785 258.271C165.173 265.1 172.637 265.294 176.417 262.076C178.774 260.069 180.172 257.493 181.31 254.72C181.43 254.424 181.405 253.972 181.264 253.682C180.595 252.304 179.859 250.956 179.193 249.686ZM170.288 252.586C169.086 254.687 169.351 256.788 170.707 257.502C171.978 258.17 173.669 257.408 174.842 255.322C176.717 251.993 178.08 248.475 178.02 244.411C174.733 246.592 172.169 249.286 170.288 252.586ZM177.569 236.688C176.283 237.647 175.071 238.683 173.736 239.528C169.287 242.346 166.342 240.539 164.183 236.914C163.207 235.273 163.598 233.215 164.686 231.534C165.669 230.011 166.793 228.575 167.906 227.027C166.969 226.24 166.085 225.497 165.204 224.757C161.583 226.588 159.279 231.653 159.818 236.381C160.223 239.938 164.147 244.176 167.66 244.635C172.62 245.283 176.85 243.978 179.933 239.472C179.161 238.565 178.383 237.648 177.569 236.688ZM189.49 224.606C186.932 226.427 184.35 226.708 181.595 225.98C181.243 225.887 180.599 226.108 180.394 226.398C177.678 230.217 176.879 233.776 180.13 237.299C182.61 239.988 186.763 240.197 189.592 237.583C190.744 236.517 191.653 235.145 192.477 233.793C192.72 233.392 192.498 232.424 192.146 231.99C189.895 229.198 189.564 228.267 189.49 224.606ZM194.999 207.912C195.489 207.332 195.869 206.661 196.578 205.629C192.171 205.671 188.556 206.569 185.967 209.909C185.59 210.398 185.28 211.535 185.53 211.787C186.02 212.284 186.961 212.654 187.658 212.578C190.835 212.236 193.044 210.231 194.999 207.912ZM198.807 208.215C195.588 210.36 192.963 212.69 192.135 216.469C192.019 217 191.928 217.601 192.061 218.106C192.319 219.055 192.907 219.769 193.992 219.103C194.88 218.558 195.788 217.964 196.475 217.199C198.096 215.387 199.23 210.942 198.807 208.215ZM192.086 187.361C192.463 190.513 194.503 192.689 196.807 194.637C197.377 195.123 198.057 195.484 199.04 196.134C199.001 191.84 198.131 188.264 194.894 185.675C194.369 185.257 193.143 184.867 192.907 185.11C192.389 185.644 191.998 186.626 192.086 187.361ZM188.465 191.817C187.88 191.682 187.249 191.629 186.654 191.681C185.485 191.782 184.991 192.612 185.597 193.62C186.157 194.549 186.788 195.583 187.662 196.145C190.24 197.804 193.058 198.878 196.57 198.587C194.397 195.356 192.188 192.676 188.465 191.817ZM178.15 172.883C178.45 173.706 178.566 174.603 178.925 175.393C180.271 178.362 180.285 178.117 183.473 177.983C185.463 177.899 187.489 178.65 189.532 179.034C189.18 176.397 190.497 174.059 192.393 171.928C192.611 171.68 192.738 171.116 192.611 170.828C191.068 167.317 187.954 164.068 183.198 165.044C180.468 165.605 177.143 170.101 178.15 172.883ZM173.55 159.967C170.196 159.193 166.952 159.021 163.926 161.314C157.423 166.241 159.276 175.181 164.472 179.129C164.736 179.331 165.465 179.186 165.814 178.956C166.543 178.476 167.163 177.831 167.931 177.167C166.948 175.866 165.934 174.628 165.042 173.308C163.161 170.53 163.464 167.883 165.402 165.617C167.991 162.582 171.355 163.087 173.553 164.577C174.916 165.499 176.199 166.534 177.548 167.542C178.295 166.679 179.084 165.771 179.993 164.719C178.312 162.524 176.375 160.619 173.55 159.967ZM175.66 158.074C176.34 158.686 177.118 159.188 178.045 159.889C177.939 155.365 176.6 151.492 174.184 147.992C173.479 146.969 172.426 146.286 171.066 146.682C169.608 147.107 169.065 148.635 169.823 150.569C171.02 153.628 173.271 155.919 175.66 158.074ZM181.483 149.888C179.774 145.87 177.907 141.899 173.282 140.522C167.917 138.923 164.116 141.997 163.584 147.175C163.161 151.288 165.225 154.501 167.642 157.536C167.79 157.721 168.096 157.862 168.336 157.878C169.872 157.975 171.411 158.031 173.155 158.11C171.764 156.288 170.453 154.726 169.326 153.042C168.727 152.145 168.234 151.074 168.051 150.02C167.624 147.542 168.519 145.953 170.502 145.165C172.01 144.567 174.282 145.278 175.392 147.051C176.523 148.857 177.344 150.859 178.267 152.791C178.566 153.416 178.767 154.088 179.038 154.811C179.876 153.247 180.658 151.802 181.426 150.35C181.493 150.22 181.536 150.014 181.483 149.888ZM161.562 138.284C157.817 142.831 155.996 147.919 157.884 153.66C158.698 156.14 160.494 158.298 161.886 160.667C163.598 159.667 164.827 158.949 165.712 158.434C164.549 155.721 163.08 153.047 162.252 150.187C160.85 145.337 164.221 139.41 168.48 138.764C173.018 138.076 176.798 139.512 179.549 143.197C180.792 144.86 181.729 146.752 182.828 148.58C183.938 147.935 185.192 147.207 186.45 146.474C185.055 138.695 178.164 134.358 172.257 134.491C170.411 134.533 168.551 134.671 166.73 134.973C164.581 135.33 162.95 136.598 161.562 138.284ZM146.523 139.846C146.59 136.047 141.912 131.431 138.041 131.477C135.515 131.507 131.768 135.327 131.794 137.848C131.835 141.722 136.374 146.221 140.168 146.144C143.311 146.081 146.467 142.951 146.523 139.846ZM146.442 122.132C144.618 121.811 142.581 122.15 140.739 122.592C137.016 123.483 133.422 124.843 130.285 127.089C126.951 129.476 125.296 133.061 124.033 136.79C123.278 139.021 122.739 141.35 122.366 143.677C121.941 146.332 122.891 148.784 123.999 151.169C126.132 155.761 129.63 159.008 133.923 161.554C134.927 162.15 135.473 162.117 136.322 161.311C139.15 158.624 142.282 156.261 146.227 155.647C148.584 155.281 151.043 155.58 153.851 155.58C150.994 152.573 148.355 149.791 145.713 147.01C145.097 146.358 144.494 146.446 143.688 146.808C137.562 149.545 129.722 145.62 129.537 137.405C129.444 133.307 135.127 128.164 139.999 129.404C145.956 130.919 148.817 136.749 147.785 141.449C147.633 142.145 147.467 142.888 147.094 143.473C146.604 144.243 146.774 144.809 147.334 145.343C150.102 147.987 152.889 150.613 155.799 153.368C155.799 151.184 155.594 149.207 155.859 147.295C156.112 145.476 156.563 143.562 157.454 141.985C158.74 139.702 160.526 137.702 162.034 135.536C162.277 135.187 162.393 134.48 162.203 134.142C158.698 127.863 153.699 123.411 146.442 122.132ZM149.609 116.136C149.838 117.7 150.134 119.308 150.761 120.739C151.135 121.588 152.139 122.228 152.973 122.795C155.084 124.23 157.257 125.572 158.941 126.652C158.839 124.58 158.656 121.796 158.578 119.008C158.501 116.339 154.509 112.43 151.839 112.504C150.427 112.543 149.327 114.181 149.609 116.136ZM153.079 103.778C146.671 101.907 142.955 103.972 141.835 111.171C141.327 114.437 141.93 117.029 143.268 120.492C144.163 120.492 145.1 120.443 146.03 120.507C146.95 120.571 147.862 120.75 148.559 120.847C148.369 118.585 148.013 116.377 148.042 114.174C148.087 111.129 150.384 109.596 153.157 110.888C155.253 111.864 157.088 113.397 159.05 114.688C159.73 113.285 160.519 111.656 161.34 109.96C159.078 107.355 156.616 104.81 153.079 103.778ZM152.008 94.3106C149.627 93.8563 147.076 94.0442 144.628 94.2448C139.918 94.6316 137.481 97.9621 135.497 101.754C133.282 105.987 132.454 110.528 133.056 115.216C133.38 117.725 134.349 120.152 135.05 122.692C137.481 121.956 139.467 121.353 141.253 120.813C140.922 117.97 140.493 115.216 140.309 112.446C140.084 109.023 141.356 106.047 143.642 103.539C145.512 101.483 148.066 101.502 150.536 101.714C154.319 102.04 157.504 103.729 160.132 106.462C160.861 107.221 161.579 107.989 162.319 108.766C164.003 107.208 165.578 105.754 167.195 104.256C163.64 98.5896 158.36 95.5226 152.008 94.3106ZM105.21 101.777C103.161 101.901 102.102 102.934 101.993 105.004C101.736 109.89 103.733 113.766 107.388 116.881C110.841 119.824 115.093 121.082 119.275 122.497C121.15 123.13 122.994 123.858 125.075 124.625C122.957 119.46 121.262 114.179 118.69 109.366C115.948 104.232 111.342 101.405 105.21 101.777ZM109.25 91.0825C109.729 94.1706 110.867 96.9387 112.847 99.3043C113.77 100.407 115.039 101.22 116.272 102.267C116.631 99.3546 117.126 96.7712 117.229 94.1724C117.387 90.2175 117.406 86.2447 117.202 82.2941C117.13 80.8882 116.403 79.426 115.67 78.1665C114.694 76.4886 112.702 76.6779 111.097 76.2968C109.191 75.8442 107.217 75.6721 105.18 75.3642C107.836 80.2907 108.418 85.726 109.25 91.0825ZM88.3765 75.4571C93.3957 77.0048 96.3213 80.8872 98.9771 85.0222C101.335 88.6926 102.494 92.8495 103.566 97.0253C103.892 98.2975 104.581 98.9795 106.011 99.002C107.593 99.0267 109.171 99.2945 111.127 99.4947C107.38 94.8842 107.807 89.3814 106.574 84.3472C106.287 83.1753 106.106 81.9711 105.736 80.827C104.554 77.1702 101.802 75.4195 98.1468 75.2023C94.8463 75.0059 91.5248 75.1611 88.2191 75.1611C88.2377 75.1995 88.2768 75.4261 88.3765 75.4571ZM80.2937 92.8407C84.0316 96.8226 88.7084 99.4194 94.028 100.754C95.5104 101.125 97.0456 101.429 98.5656 101.475C100.666 101.539 101.982 100.386 101.688 98.3249C101.265 95.3611 100.597 92.3649 99.5298 89.5749C97.6589 84.6851 94.6603 80.4293 90.0322 77.8135C86.779 75.9744 83.0763 75.1918 79.2429 75.4585C78.1491 75.5342 77.0454 75.4701 75.8417 75.4701C75.3094 81.9278 75.7346 87.9842 80.2937 92.8407ZM75.8593 99.949C76.3134 103.4 79.0389 105.005 82.1561 105.748C84.8788 106.397 87.6815 106.705 90.4338 107.239C93.6085 107.856 96.8518 108.317 99.7133 110.897C99.5361 108.552 99.5936 106.702 99.1701 104.97C98.9961 104.258 97.8678 103.5 97.0347 103.273C91.6181 101.802 86.3344 100.088 81.9504 96.3856C79.1502 94.0217 76.5177 91.521 75.5426 87.7636C75.382 87.7967 75.2213 87.8294 75.0604 87.8625C75.3052 91.8944 75.3334 95.9544 75.8593 99.949ZM81.4748 116.689C85.1938 117.041 88.9592 117.116 92.6957 116.994C95.8665 116.892 99.0229 116.359 102.288 116.004C100.554 112.456 97.4912 110.486 93.8339 109.565C89.905 108.576 85.8515 108.089 81.894 107.199C79.7667 106.721 77.7267 105.856 75.5201 105.123C76.1055 108.08 76.536 111.131 77.3557 114.074C77.8694 115.917 79.8794 116.538 81.4748 116.689ZM90.8678 127.714C92.4995 128.199 94.0361 128.175 95.5717 127.127C99.0634 124.745 102.857 122.989 107.084 122.352C108.684 122.112 110.305 122.011 112.091 121.828C106.637 118.993 101.461 116.836 95.1056 118.269C90.1154 119.394 84.8126 119.263 79.4246 117.844C82.5983 122.163 85.6683 126.167 90.8678 127.714ZM87.0576 158.926C89.7927 165.296 93.6307 170.688 100.689 173.093C101.605 171.484 102.528 169.862 103.41 168.311C101.502 166.43 99.3692 164.713 97.7184 162.617C94.8319 158.95 93.2291 154.648 92.7877 149.994C92.6119 148.14 92.6457 146.233 92.8606 144.382C93.5796 138.182 97.9199 135.069 103.158 132.965C109.965 130.229 116.794 130.272 123.51 133.537C124.515 131.836 125.465 130.231 126.462 128.545C123.209 125.922 119.638 124.156 115.423 123.74C110.439 123.249 105.59 123.642 101.014 125.789C96.4622 127.926 92.4502 130.857 89.1367 134.638C86.481 137.669 86.0759 141.609 85.6845 145.343C85.2072 149.902 85.1896 154.576 87.0576 158.926ZM67.3819 153.893C70.1247 156.901 73.5273 158.642 77.7683 158.512C74.9547 152.445 72.747 146.122 68.6364 140.772C66.6105 138.135 64.7667 137.527 61.4849 138.439C60.9569 138.586 60.426 138.73 59.9148 138.925C58.274 139.552 56.6412 140.2 54.7791 140.93C60.1019 144.341 63.3572 149.479 67.3819 153.893ZM57.376 154.486C59.7295 156.197 61.8259 158.274 63.9533 160.277C65.0344 161.294 65.9683 161.801 67.4323 160.928C68.7392 160.147 70.2198 159.657 71.7962 158.964C70.5834 158.243 69.3279 157.782 68.4648 156.927C66.3977 154.876 64.5261 152.63 62.5555 150.482C60.8822 148.658 59.3258 146.689 57.4493 145.101C55.7249 143.641 53.6483 142.694 51.1877 143.458C47.1038 144.726 43.5712 147.005 39.624 149.357C46.6286 148.383 52.248 150.755 57.376 154.486ZM46.8632 169.49C51.8345 169.897 56.5341 169.189 61.1066 167.396C64.0709 166.233 64.6994 164.129 62.7284 161.654C57.8576 155.537 51.7309 151.332 43.7513 150.751C38.4193 150.362 33.782 152.606 29.4822 155.829C32.9612 163.44 37.98 168.761 46.8632 169.49ZM49.1333 178.91C51.9525 178.199 54.6523 177.025 57.4454 176.193C60.0656 175.412 62.7281 174.759 65.3979 174.17C66.0993 174.015 66.8982 174.304 67.8152 174.407C66.5816 172.679 65.5209 171.145 64.4074 169.65C63.6426 168.624 62.6129 168.852 61.5681 169.149C57.3722 170.343 53.1333 171.352 48.7302 171.123C45.0272 170.93 41.3801 170.366 38.0614 168.556C37.2018 168.088 36.4311 167.457 35.3179 167.059C36.5008 169.07 37.6393 171.11 38.8822 173.084C39.7005 174.384 40.6072 175.64 41.583 176.827C43.5885 179.268 46.3278 179.619 49.1333 178.91ZM56.1854 188.199C60.4894 185.751 64.5916 182.949 68.7642 180.272C70.0602 179.441 71.3224 178.557 72.7364 177.606C68.0555 174.787 63.5203 175.508 58.8809 177.177C54.9933 178.575 51.0288 179.767 47.0707 180.959C46.1509 181.235 45.1174 181.137 43.6382 181.249C45.9871 183.859 47.9091 186.507 50.3507 188.529C51.9852 189.883 54.4747 189.173 56.1854 188.199ZM72.1985 190.742C74.9304 185.396 78.5348 180.914 84.2867 177.836C77.9839 177.766 72.5547 178.662 67.8275 182.872C63.8571 186.408 59.1793 189.116 53.6599 190.621C58.9408 192.81 63.9603 195.161 69.6026 193.058C70.6281 192.676 71.7004 191.716 72.1985 190.742ZM96.2695 173.628C92.9628 170.874 89.7212 167.966 86.264 165.342C81.2998 161.574 75.7987 160.157 69.7989 162.687C65.2912 164.588 65.2669 167.261 68.8681 171.184C73.7436 176.494 79.9516 176.76 86.4775 175.548C89.7677 174.936 93.0463 174.262 96.2695 173.628ZM70.9353 205.362C72.2126 210.925 74.6429 216.011 78.575 220.187C82.2879 224.13 86.8932 226.778 92.2551 227.776C94.6336 228.219 97.1185 228.089 99.7472 228.23C99.7472 226.2 99.8197 224.494 99.6883 222.804C99.6608 222.451 98.9073 221.916 98.4462 221.868C90.2193 221.007 84.3219 216.529 80.0091 209.813C76.7125 204.679 76.8136 199.325 80.1331 194.218C84.1109 188.098 89.5278 183.927 96.8825 182.556C99.7771 182.017 99.7633 181.944 99.7644 179.011C99.7647 178.129 99.7644 177.246 99.7644 176.313C92.1726 175.264 85.9307 177.715 80.418 182.378C75.0322 186.933 72.2954 193.038 70.7299 199.695C70.3111 201.477 70.5171 203.541 70.9353 205.362ZM70.2684 223.166C72.6899 225.14 75.5331 226.096 78.7198 226.102C80.4649 226.106 82.2097 226.432 84.4033 226.659C83.7935 226.215 83.5388 225.993 83.2514 225.826C78.7113 223.196 75.2023 219.531 73.0359 214.795C71.5736 211.598 69.1405 210.504 65.958 210.384C61.6839 210.222 57.8639 211.814 53.8072 213.571C60.1674 215.679 65.3571 219.164 70.2684 223.166ZM61.4705 227.865C65.3683 229.092 69.0242 228.731 72.9006 226.573C68.252 223.487 63.8504 220.546 59.4262 217.637C57.226 216.191 54.772 215.278 52.1628 215.183C51.2426 215.15 50.0893 215.872 49.3872 216.587C47.4741 218.534 45.7441 220.662 43.6988 222.996C50.3246 223.059 55.7281 226.058 61.4705 227.865ZM37.8187 235.811C44.2399 232.612 50.9408 232.468 57.7804 234.111C59.2758 234.47 60.7346 235.016 62.2451 235.254C62.9039 235.358 63.9131 235.123 64.3101 234.657C65.5424 233.212 66.5573 231.582 67.8762 229.713C64.4303 230.611 61.5681 229.569 58.7041 228.562C55.843 227.555 53.0332 226.374 50.1214 225.551C45.3861 224.212 42.6282 225.319 39.9643 229.432C38.327 231.96 36.8193 234.573 35.5085 237.401C36.2757 236.866 36.9901 236.225 37.8187 235.811ZM42.5983 253.614C45.489 253.73 48.5668 252.623 51.3381 251.511C55.9155 249.675 59.7148 246.622 62.6876 242.646C64.6335 240.043 64.0491 238.005 61.0312 236.806C54.7322 234.302 48.3082 233.894 41.7655 235.774C36.9253 237.165 34.0032 240.801 31.3541 244.716C30.6193 245.802 30.1406 247.061 29.4882 248.351C33.3794 251.592 37.8356 253.422 42.5983 253.614ZM59.1944 257.575C61.6029 254.99 63.7289 252.141 66.1634 249.584C67.7282 247.941 69.6252 246.614 71.401 245.122C69.8411 244.424 68.0734 243.485 66.1972 242.886C65.6533 242.712 64.7057 243.399 64.1009 243.887C61.0562 246.345 58.2074 249.069 55.0155 251.31C51.4431 253.817 47.2402 254.906 42.9023 255.288C42.0096 255.366 41.0807 255.032 40.1683 254.888C40.1003 255.032 40.0323 255.177 39.964 255.321C43.0259 256.916 46.0519 258.585 49.159 260.087C53.3651 262.122 56.3241 260.656 59.1944 257.575ZM68.748 263.181C71.1653 259.18 73.293 255.003 75.4679 250.861C76.307 249.263 76.9355 247.555 77.7337 245.728C72.7336 245.628 69.2225 248.131 66.1528 251.655C63.1469 255.107 59.9998 258.436 56.8758 261.783C56.3615 262.334 55.6471 262.699 54.7594 263.343C57.1619 264.223 59.3611 265.153 61.6353 265.832C64.8438 266.789 66.974 266.116 68.748 263.181ZM96.3114 230.62C93.1234 229.998 89.8332 229.381 86.5546 228.709C82.3235 227.843 78.1579 227.723 74.0508 229.373C71.1153 230.553 68.8319 232.488 67.2689 235.179C65.603 238.046 66.1049 239.713 69.0855 241.209C72.9753 243.161 77.0095 243.325 81.1067 241.777C85.4041 240.154 88.6654 237.074 92.0363 234.134C93.4757 232.879 94.9862 231.706 96.3114 230.62ZM121.038 262.982C120.077 263.239 119.091 263.511 118.1 263.766C114.534 264.684 110.957 264.73 107.533 263.33C101.817 260.993 100.682 256.704 102.843 250.496C103.413 248.859 104.347 247.281 105.408 245.9C106.439 244.558 107.847 243.505 109.092 242.323C107.469 240.574 106.01 239.002 104.51 237.385C98.3095 241.486 95.1479 247.349 94.3056 254.547C94.1168 256.159 94.1911 257.826 94.3472 259.448C94.8199 264.361 98.0668 267.097 102.154 269.152C106.422 271.297 110.959 272.128 115.65 271.497C118.115 271.166 120.497 270.206 122.99 269.51C122.281 267.141 121.686 265.149 121.038 262.982ZM118.9 246.078C118.128 246.134 117.218 246.426 116.662 246.929C115.527 247.958 114.381 249.087 113.639 250.4C113.103 251.347 112.683 253.047 113.169 253.709C113.771 254.528 115.374 254.972 116.526 254.939C118.08 254.894 119.852 254.587 121.094 253.749C122.362 252.893 123.126 251.275 124.066 249.959C125.14 248.453 126.165 246.911 126.989 245.708C124.603 245.808 121.747 245.873 118.9 246.078ZM111.048 251.787C111.872 249.983 113.232 248.417 114.405 246.782C114.647 246.444 115.109 246.263 115.569 245.94C113.757 244.986 112.269 244.171 110.745 243.429C110.496 243.308 109.97 243.386 109.775 243.577C107.412 245.901 105.168 248.281 103.973 251.508C102.065 256.66 104.62 261.517 110.06 262.542C113.717 263.232 117.304 262.743 120.668 261.36C120.816 259.444 120.959 257.601 121.1 255.77C119.633 256.076 118.158 256.505 116.654 256.659C115.582 256.769 114.43 256.665 113.386 256.386C111.117 255.781 110.066 253.936 111.048 251.787ZM123.56 224.569C123.53 222.335 121.649 219.822 119.442 219.068C116.137 217.938 111.662 219.133 109.473 221.83C109.01 222.401 108.521 223.278 108.626 223.918C108.959 225.952 109.285 228.074 110.144 229.916C111.135 232.042 113.436 231.763 115.141 231.807C120.186 231.808 123.615 228.759 123.56 224.569ZM155.802 240.356C151.888 242.645 147.866 243.551 143.522 241.446C139.474 239.484 138.27 235.769 139.214 231.586C140.253 226.981 143.628 224.507 147.612 222.631C147.961 222.467 148.313 222.309 148.658 222.135C148.792 222.066 148.912 221.961 149.003 221.895C148.26 220.64 147.534 219.414 146.802 218.179C138.611 219.709 134.613 226.994 134.807 232.342C134.874 234.2 135.015 236.068 135.321 237.899C135.624 239.731 136.452 241.402 138.048 242.469C140.239 243.938 142.356 245.746 144.79 246.581C150.021 248.376 155.013 247.603 159.254 243.718C159.772 243.241 160.297 242.768 160.79 242.319C160.04 241.042 159.35 239.858 158.571 238.53C157.69 239.115 156.774 239.787 155.802 240.356ZM148.235 230.537C147.119 231.359 146.379 232.584 147.203 233.99C148.021 235.382 149.433 235.331 150.726 234.828C154.71 233.278 157.497 230.317 159.825 226.786C155.531 226.851 151.645 228.032 148.235 230.537ZM147.312 229.307C149.719 227.799 152.371 226.688 154.869 225.431C153.639 224.777 152.244 224.02 150.828 223.296C150.617 223.187 150.289 223.129 150.081 223.213C146.921 224.493 144.015 226.109 141.916 228.931C140.447 230.907 139.939 235.682 141.609 237.885C143.339 240.165 146.999 241.636 150.219 240.971C153.111 240.374 155.549 238.897 157.782 237.044C158.007 236.857 158.229 236.532 158.254 236.255C158.37 234.724 158.427 233.188 158.518 231.339C157.278 232.356 156.246 233.313 155.105 234.106C153.935 234.919 152.706 235.693 151.406 236.268C149.144 237.268 146.936 236.612 145.886 234.81C144.861 233.041 145.298 230.568 147.312 229.307ZM163.658 219.682C161.749 219.814 159.839 220.018 157.923 220.062C155.291 220.122 153.072 218.615 152.375 216.436C151.29 213.061 151.892 210.709 154.541 209.056C156.253 207.99 158.159 207.235 160.04 206.309C159.628 205.224 159.191 204.061 158.765 202.93C152.783 203.588 149.609 206.813 148.14 211.465C146.925 215.306 148.038 219.125 151.346 221.71C155.21 224.733 159.554 225.503 164.221 223.256C164.021 221.978 163.841 220.842 163.658 219.682ZM168.361 211.842C168.632 211.543 169.016 211.345 169.678 210.858C166.367 210.964 163.778 210.083 161.509 208.247C161.266 208.048 160.723 207.995 160.424 208.12C158.599 208.879 156.662 209.493 155.045 210.575C153.262 211.766 152.981 213.763 153.766 215.902C154.376 217.562 156.024 218.635 158.103 218.61C159.367 218.596 160.642 218.516 161.893 218.329C162.971 218.169 163.69 217.712 164.338 216.544C165.317 214.776 166.969 213.376 168.361 211.842ZM181.3 203.065C181.229 202.95 181.018 202.904 180.863 202.863C177.685 202.022 172.789 206.114 172.817 209.382C172.834 211.525 177.129 214.208 179.45 213.59C180.461 213.321 181.465 213.034 182.455 212.703C183.283 212.427 183.551 211.808 183.917 210.978C184.604 209.426 185.84 208.113 186.872 206.718C186.989 206.558 187.256 206.507 187.651 206.305C185.079 205.532 182.673 205.281 181.3 203.065ZM184.171 200.677C183.618 200.936 182.927 201.645 182.938 202.134C182.948 202.641 183.632 203.341 184.188 203.599C188.208 205.467 191.854 203.943 195.894 202.143C191.829 200.242 188.179 198.786 184.171 200.677ZM173.391 193.229C172.968 193.749 172.81 194.696 172.905 195.395C173.349 198.726 177.143 201.642 180.549 201.379C180.81 201.358 181.197 201.323 181.3 201.156C182.677 198.939 185.125 198.758 187.295 197.986C185.812 196.358 183.78 195.143 183.762 192.591C183.758 192.355 183.406 192.07 183.156 191.895C180.186 189.836 175.702 190.4 173.391 193.229ZM160.561 202.562C160.752 207.035 166.571 210.814 170.668 209.064C171.098 208.881 171.432 208.234 171.605 207.732C172.588 204.925 173.831 203.463 176.625 202.117C173.944 200.918 172.281 199.072 171.637 196.454C171.38 195.397 170.788 195.08 169.858 194.927C164.884 194.109 160.361 197.813 160.561 202.562ZM160.449 185.801C159.568 185.807 158.687 185.667 157.81 185.679C155.524 185.711 154.073 186.958 153.421 189.387C152.981 191.021 153.932 193.219 155.63 194.143C156.884 194.825 158.226 195.347 159.547 195.893C160.442 196.262 161.167 196.04 162.108 195.581C164.362 194.482 166.807 193.772 168.748 193.06C167.621 191.786 165.782 190.326 164.799 188.424C163.767 186.426 162.45 185.788 160.449 185.801ZM152.1 181.928C148.855 183.92 147.084 188.326 147.964 192.003C149.257 197.405 152.963 200.511 158.726 201.376C159.177 200.21 159.607 199.092 160.058 197.924C158.353 197.108 156.553 196.412 154.925 195.433C151.927 193.63 151.304 191.537 152.322 187.912C152.959 185.653 155.816 183.828 158.289 184.115C160.033 184.318 161.784 184.441 163.651 184.611C163.823 183.49 164.007 182.321 164.214 181.005C160.019 178.976 156.017 179.52 152.1 181.928ZM152.385 170.112C151.695 169.681 150.895 169.337 150.099 169.185C148.908 168.957 147.506 169.085 147.186 170.403C146.974 171.286 147.309 172.682 147.936 173.323C150.391 175.829 153.78 176.515 157.021 177.394C157.965 177.65 158.987 177.625 160.258 177.758C158.092 174.419 155.457 172.031 152.385 170.112ZM145.798 169.534C146.745 167.736 148.528 167.047 151.325 168.011C153.192 168.654 154.784 170.101 156.468 171.232C157.102 171.656 157.648 172.203 158.272 172.723C159.11 169.483 158.194 167.177 155.542 165.532C152.649 163.739 149.662 162.621 146.15 163.43C139.615 164.936 139.295 171.901 142.296 175.782C144.258 178.32 146.985 179.746 149.873 180.922C150.148 181.033 150.553 181.075 150.796 180.952C152.216 180.246 153.604 179.482 154.876 178.803C152.392 177.563 149.792 176.469 147.415 175.015C145.382 173.774 144.868 171.304 145.798 169.534ZM140.052 182.913C141.866 184.478 144.364 185.255 146.587 186.412C147.559 184.771 148.285 183.547 148.803 182.672C146.379 180.874 143.755 179.321 141.623 177.264C137.907 173.685 137.974 166.969 141.57 164.04C144.85 161.369 148.651 160.964 152.526 162.382C154.668 163.167 156.623 164.467 158.67 165.538C159.325 164.428 160.04 163.209 160.759 161.99C155.633 155.806 146.559 155.422 141.211 159.423C138.904 161.15 136.325 162.509 135.536 165.573C133.831 172.187 134.648 178.258 140.052 182.913ZM119.21 173.182C117.956 172.683 116.571 172.516 115.245 172.198C110.581 172.429 107.57 176.206 108.615 180.708C109.112 182.848 110.979 183.705 112.631 184.638C116.032 186.56 121.24 185.983 123.131 181.521C124.387 178.557 122.708 174.575 119.21 173.182ZM146.273 211.637C143.839 211.637 141.57 211.832 139.348 211.594C135.381 211.17 131.515 207.69 130.553 204.234C129.24 199.514 132.813 195.013 136.522 193.443C139.224 192.299 142.085 192.136 144.984 192.571C145.347 192.625 145.724 192.578 146.168 192.578C146.228 192.258 146.259 192.15 146.263 192.04C146.432 187.712 146.238 187.477 141.824 187.416C135.596 187.329 130.948 189.992 128.205 195.622C127.279 197.523 126.081 199.615 126.117 201.6C126.215 207.102 128.87 211.46 133.468 214.573C137.1 217.034 141.074 217.325 145.216 216.343C145.622 216.247 146.189 215.753 146.227 215.396C146.354 214.206 146.273 212.994 146.273 211.637ZM150.412 203.538C151.469 203.256 152.452 202.708 153.819 202.135C149.511 200.161 145.463 198.953 141.042 199.68C139.714 199.898 138.707 200.575 138.643 202.018C138.58 203.56 139.629 204.27 140.993 204.573C144.244 205.296 147.334 204.362 150.412 203.538ZM144.864 206.211C143.135 206.26 141.352 206.108 139.672 205.714C138.139 205.356 136.928 203.471 137.019 202.062C137.139 200.285 138.189 199.104 139.767 198.45C142 197.524 144.297 197.798 146.59 198.269C147.605 198.477 148.626 198.625 149.757 198.82C148.834 197.345 148.003 195.995 147.147 194.662C147.01 194.448 146.77 194.18 146.552 194.156C142.508 193.706 138.513 193.451 135.004 196.193C130.058 200.061 131.153 206.292 136.611 209.119C139.739 210.739 143.124 210.546 146.488 210.047C146.784 210.004 147.08 209.617 147.277 209.323C148.098 208.089 148.884 206.83 149.771 205.442C148.105 205.719 146.488 206.165 144.864 206.211ZM96.9642 212.869C92.5753 211.224 89.1681 208.502 87.6671 203.869C86.6448 200.713 88.2466 198.217 90.0879 196.023C92.4086 193.26 95.4473 191.456 99.074 190.77C99.8722 190.618 100.643 190.319 101.426 190.087C101.025 188.254 100.588 186.557 100.305 184.834C100.162 183.964 99.8412 183.759 98.9989 183.844C94.6061 184.287 90.7216 185.804 87.2384 188.611C83.127 191.925 80.157 195.886 79.19 201.123C78.9836 202.24 79.2073 203.539 79.5691 204.643C82.4492 213.441 88.7626 218.366 97.6141 220.32C98.3433 220.481 99.1395 220.341 100.05 220.341C100.491 218.389 100.949 216.361 101.447 214.156C99.9821 213.742 98.4311 213.418 96.9642 212.869ZM107.011 206.279C108.059 206.295 109.11 205.206 110.185 204.671C112.063 203.735 113.962 202.839 115.309 202.188C113.067 200.992 110.33 199.461 107.517 198.089C106.92 197.798 105.962 197.882 105.309 198.142C103.457 198.88 101.585 199.652 99.9018 200.699C98.8351 201.362 98.9309 202.557 99.8232 203.532C101.756 205.643 104.367 206.238 107.011 206.279ZM99.1592 205.392C96.1734 203.541 96.1843 200.668 99.1951 198.814C100.983 197.713 103.025 197.023 104.962 196.144C104.193 194.942 103.303 193.512 102.361 192.116C102.211 191.894 101.798 191.668 101.561 191.716C97.1935 192.592 93.1474 194.091 90.5022 197.974C87.8467 201.872 88.4886 204.357 92.1451 208.217C94.5998 210.809 98.0105 211.841 101.455 212.543C101.726 212.598 102.195 212.352 102.366 212.104C103.297 210.747 104.164 209.345 104.939 208.136C102.981 207.223 100.949 206.502 99.1592 205.392ZM118.472 149.534C117.285 149.273 115.972 149.312 114.76 149.499C112.963 149.775 112.381 150.957 113.006 152.643C113.807 154.8 115.296 156.421 117.182 157.65C117.735 158.01 118.524 158.091 119.216 158.138C122.056 158.332 124.901 158.463 127.011 158.578C125.978 157.013 124.366 155.037 123.29 152.804C122.247 150.639 120.452 149.968 118.472 149.534ZM103.986 156.168C102.026 153.212 101.41 149.822 102.11 146.344C102.79 142.969 107.481 139.969 111.829 139.929C113.379 139.915 114.949 139.864 116.474 140.083C117.986 140.3 119.451 140.835 121.018 141.252C121.651 139.18 122.255 137.201 122.916 135.038C119.635 133.303 116.138 132.326 112.475 132.547C108.907 132.762 105.379 133.345 102.1 135.092C97.8695 137.344 94.6248 140.188 94.2771 145.339C93.6662 154.383 97.0671 161.516 104.448 166.902C105.982 165.262 107.443 163.699 108.834 162.212C107.2 160.201 105.405 158.309 103.986 156.168ZM114.161 147.733C115.355 147.647 116.572 147.606 117.756 147.743C118.882 147.873 119.977 148.261 121.216 148.568C121.066 147.621 120.866 146.725 120.797 145.819C120.726 144.888 120.781 143.947 120.781 142.903C116.852 141.427 112.839 140.758 108.722 142.104C104.341 143.536 102.746 146.41 103.686 151.326C104.224 154.139 105.636 156.576 107.699 158.598C108.524 159.407 109.375 160.191 110.234 161.005C111.957 160.156 113.577 159.359 115.303 158.51C114.453 157.6 113.465 156.739 112.73 155.7C112.008 154.677 111.388 153.523 110.997 152.337C110.168 149.816 111.507 147.924 114.161 147.733ZM133.415 170.413C133.687 168.478 133.983 166.545 134.152 164.601C134.187 164.186 133.842 163.537 133.479 163.318C127.944 159.989 121.973 158.65 115.66 160.259C113.609 160.783 111.612 162.082 109.963 163.469C108.037 165.089 106.423 167.116 104.844 169.101C101.344 173.503 100.518 178.559 101.695 183.951C102.244 186.465 102.917 188.979 103.832 191.38C104.892 194.162 107.224 195.836 109.608 197.553C113.856 200.611 118.713 200.931 123.601 201.33C123.895 201.354 124.432 200.953 124.511 200.658C126.327 193.865 129.805 188.528 136.987 186.097C133.19 184.972 129.399 183.812 125.577 182.771C125.157 182.658 124.386 183.102 124.055 183.512C121.156 187.104 117.423 188.306 112.988 187.405C109.642 186.725 106.603 182.887 106.224 179.579C105.932 177.03 106.671 174.916 108.109 172.982C110.631 169.59 116.861 168.848 120.418 171.429C122.929 173.251 124.8 175.481 125.085 178.716C125.201 180.039 125.95 180.476 127.203 180.733C130.332 181.373 133.419 182.209 136.526 182.96C136.836 183.035 137.153 183.066 137.791 183.17C136.956 181.912 136.269 180.895 135.596 179.868C133.708 176.985 132.94 173.843 133.415 170.413ZM176.625 169.745C176.671 169.326 176.466 168.689 176.149 168.453C174.709 167.368 173.264 166.246 171.676 165.411C169.717 164.381 168.107 164.785 166.596 166.319C165.176 167.759 164.782 169.401 165.771 171.281C166.606 172.869 167.744 174.306 168.815 175.759C169.041 176.063 169.604 176.365 169.935 176.299C172.961 175.704 175.674 176.568 178.344 177.938C176.85 175.334 176.308 172.644 176.625 169.745ZM178.693 181.272C178.795 180.921 178.58 180.261 178.288 180.038C175.012 177.544 170.925 176.434 167.445 179.612C164.627 182.186 164.419 186.49 167.152 189.333C168.17 190.39 169.442 191.242 170.714 191.99C171.147 192.245 172.137 192.125 172.528 191.784C174.61 189.964 176.9 188.82 180.074 189.165C178.245 186.494 177.89 183.982 178.693 181.272ZM174.554 226.204C175.223 225.949 175.882 225.665 176.519 225.347C178.915 224.156 178.879 224.154 178.379 221.47C177.96 219.241 178.654 217.233 180.07 215.012C176.822 215.473 174.508 214.231 172.422 212.349C172.162 212.111 171.668 211.908 171.351 211.982C167.057 212.986 164.186 218.141 165.652 222.224C166.543 224.695 170.467 227.766 174.554 226.204ZM178.2 226.426C175.536 227.807 172.849 228.395 169.939 227.957C169.587 227.904 169.026 228.185 168.808 228.487C167.709 229.992 166.546 231.479 165.683 233.119C164.764 234.878 165.264 236.702 166.719 238.059C168.142 239.388 169.805 239.879 171.559 238.912C173.134 238.041 174.592 236.948 176.058 235.888C176.375 235.659 176.717 235.122 176.667 234.782C176.241 231.841 176.815 229.107 178.2 226.426ZM137.53 221.572C137.593 221.5 137.579 221.362 137.664 220.981C133.739 221.927 129.991 222.775 126.288 223.791C125.777 223.931 125.249 224.864 125.146 225.498C124.407 230.047 121.742 233.034 117.403 234.031C112.901 235.065 107.975 233.315 106.484 228.072C104.464 220.965 111.057 215.676 117.108 216.646C120.087 217.124 122.305 218.617 124.163 220.866C124.451 221.214 125.06 221.652 125.384 221.562C129.237 220.489 133.063 219.324 136.952 218.168C134.927 217.01 132.919 216.089 131.168 214.814C127.502 212.144 125.966 208.087 124.545 203.99C124.398 203.564 123.927 202.886 123.676 202.915C120.567 203.28 117.318 203.301 114.401 204.286C106.578 206.929 102.199 212.58 101.609 220.874C101.417 223.582 101.288 226.445 101.958 229.023C102.614 231.547 104.073 233.98 105.633 236.124C107.71 238.975 110.093 241.7 113.473 243.119C115.121 243.811 116.907 244.328 118.677 244.548C124.007 245.209 128.853 243.586 133.405 240.966C133.792 240.743 134.197 239.975 134.102 239.583C132.485 233.041 132.848 226.907 137.53 221.572ZM92.5087 272.93C96.8141 276.404 101.356 279.375 106.925 280.282C114.011 281.434 120.673 280.564 126.461 275.685C125.489 274.052 124.51 272.406 123.785 271.187C120.099 271.924 116.673 273.147 113.236 273.178C107.308 273.231 101.725 271.657 97.0086 267.655C93.1671 264.396 92.4812 260.108 92.6123 255.528C92.7296 251.424 93.935 247.484 96.1202 244.097C98.0591 241.093 100.751 238.574 103.256 235.671C102.567 234.453 101.623 232.783 100.688 231.132C91.3772 234.086 85.1254 245.662 85.5679 253.692C85.7222 256.496 85.9808 259.295 86.2414 262.092C86.667 266.656 88.9927 270.094 92.5087 272.93ZM92.7923 285.681C95.2539 285.797 97.6948 286.3 100.155 286.525C102.415 286.731 104.493 286.107 106.503 285.033C108.246 284.102 110.117 283.409 112.283 282.455C110.278 282.23 108.592 282.095 106.922 281.844C103.093 281.269 99.5678 279.835 96.4485 277.583C94.0876 275.878 91.7087 275.98 89.2773 277.057C84.9772 278.962 82.2404 282.551 79.3845 286.426C84.0841 285.127 88.4526 285.475 92.7923 285.681ZM91.3145 295.299C94.5829 294.811 97.4563 293.519 99.9314 291.409C100.91 290.575 101.596 289.398 102.743 287.969C96.5665 287.625 90.9143 287.159 85.2565 287.074C83.2482 287.044 81.2086 287.876 79.2168 288.433C78.0251 288.766 77.3653 289.621 77.1434 290.932C76.6773 293.681 76.0615 296.406 75.4556 299.395C80.6143 296.718 85.9924 296.093 91.3145 295.299ZM94.2863 301.75C99.1275 300.3 99.1131 300.254 99.57 295.223C99.6126 294.755 99.6682 294.288 99.7524 293.494C94.461 297.475 88.2145 296.857 82.5359 298.354C77.9028 299.575 76.0855 301.5 75.4704 306.154C75.3573 307.011 75.2918 307.879 75.2837 308.744C75.2594 311.28 75.2753 313.818 75.2753 316.552C79.0562 308.087 86.102 304.202 94.2863 301.75ZM105.951 322.591C106.598 320.216 106.937 317.755 107.359 315.323C107.987 311.696 108.38 307.998 111.137 304.796C108.847 304.986 106.89 304.994 105.018 305.394C104.416 305.523 103.81 306.627 103.595 307.393C102.072 312.834 100.389 318.193 96.62 322.587C94.275 325.322 91.8373 327.973 88.0902 328.877C88.1205 329.068 88.1508 329.26 88.1811 329.451C91.9398 329.209 95.7006 328.992 99.4569 328.717C103.262 328.438 105.056 325.881 105.951 322.591ZM117.492 312.781C117.38 309.289 116.726 305.814 116.296 302.222C112.723 303.988 110.767 307.097 109.805 310.823C109.023 313.855 108.706 317.005 108.004 320.061C107.321 323.033 106.41 325.953 105.59 328.931C108.361 328.388 111.479 328.097 114.328 327.066C115.508 326.638 116.666 324.71 116.874 323.32C117.395 319.851 117.603 316.291 117.492 312.781ZM122.641 285.781C123.335 283.766 124.073 281.766 124.805 279.723C120.686 281.242 116.573 282.653 112.543 284.272C107.147 286.438 103.442 290.254 102.098 296.013C101.795 297.31 101.983 298.771 102.176 300.124C102.403 301.718 103.599 302.403 105.123 302.517C110.161 302.896 114.094 300.785 117.262 297.045C120.039 293.767 121.274 289.741 122.641 285.781ZM118.231 325.037C122.431 321.829 126.555 318.848 128.02 313.568C128.48 311.907 128.472 310.428 127.408 308.894C123.987 303.965 122.213 298.472 122.296 292.14C119.407 297.715 117.067 302.873 118.525 309.291C119.661 314.289 119.413 319.588 118.231 325.037ZM75.7174 328.505C81.2064 329.332 86.3806 328.821 90.89 325.914C95.0123 323.256 97.8396 319.252 99.5474 314.654C100.553 311.946 101.299 309.08 101.686 306.221C102.019 303.759 100.725 302.566 98.2028 302.757C92.8976 303.16 88.1874 305.243 83.8506 308.271C77.7045 312.563 75.3489 318.57 75.7117 325.856C75.7554 326.731 75.7174 327.609 75.7174 328.505ZM87.9739 239.791C83.5712 243.289 78.5725 245.528 76.8534 251.365C75.5314 255.854 71.6138 263.069 67.9649 266.312C73.3293 266.06 76.1337 265.355 79.8252 263.272C82.5563 261.73 84.2367 259.702 84.045 256.231C83.7308 250.545 84.1398 247.286 87.9739 239.791ZM84.0461 147.54C84.1535 144.878 82.9773 143.141 80.969 141.696C77.1507 138.95 72.7452 138.236 67.929 137.839C72.3387 142.46 74.8694 147.774 77.0482 153.28C78.3182 156.49 80.0327 159.252 83.1978 160.99C84.8063 161.872 86.2087 163.131 87.4758 164.054C86.5085 161.175 85.2459 158.195 84.5477 155.089C83.9999 152.653 83.9446 150.052 84.0461 147.54ZM118.504 95.947C118.113 98.9242 117.563 101.845 118.775 104.709C119.782 107.089 120.947 109.403 121.839 111.311C122.646 108.017 123.41 104.319 124.499 100.719C124.999 99.0678 125.977 97.4902 127.021 96.0892C129.07 93.3376 128.347 90.7609 126.988 88.0701C125.044 84.2208 121.622 81.8771 118.264 79.1951C119.425 84.893 119.229 90.4396 118.504 95.947ZM154.379 85.5733C148.958 84.5601 143.589 85.3555 138.375 86.9845C137.04 87.4008 135.663 88.1426 134.669 89.1097C129.741 93.9151 125.613 99.3064 124.354 106.274C123.207 112.619 123.608 118.804 127.53 124.314C127.944 124.896 128.319 125.506 128.78 126.205C130.532 125.17 132.14 124.22 133.518 123.406C132.834 120.541 132.038 117.85 131.57 115.103C130.919 111.286 131.672 107.551 132.859 103.923C133.828 100.951 135.476 98.3739 137.583 96.0333C139.661 93.7233 142.324 92.8114 145.231 92.5546C154.731 91.7135 162.361 95.1601 168.086 102.791C168.185 102.921 168.301 103.037 168.48 103.241C170.15 102.301 171.82 101.361 173.564 100.379C169.971 91.7395 163.225 87.2259 154.379 85.5733ZM152.244 76.1398C147.15 74.5506 142.434 71.8384 138.249 67.7473C138.463 71.3745 138.89 74.6294 140.302 77.6837C140.785 78.7303 141.38 79.7385 142.028 80.6926C143.455 82.7858 145.301 84.016 148.017 83.8193C153.844 83.3974 159.36 84.4633 164.454 87.5704C161.287 82.7921 158.339 78.043 152.244 76.1398ZM141.19 54.3893C140.084 57.6551 138.678 60.5936 138.192 63.6732C137.879 65.6693 139.71 67.3366 141.405 68.581C145.481 71.5786 149.976 73.788 154.675 75.6246C156.049 76.1623 157.359 76.8676 158.895 77.5879C158.959 71.9313 155.908 68.2249 151.829 65.0418C147.961 62.0217 144.089 58.9783 141.19 54.3893ZM160.773 63.8541C158.039 60.6182 155.168 57.4545 152.808 53.9564C150.578 50.652 149.553 46.7598 149.387 42.7269C149.352 41.8259 149.592 40.9109 149.761 39.5842C149.264 40.2599 148.926 40.6224 148.704 41.0447C147.207 43.8635 145.643 46.6471 144.283 49.5293C142.596 53.1189 143.976 56.1313 146.611 58.6017C149.387 61.2024 152.452 63.4951 155.21 66.1123C156.81 67.6312 158.053 69.5245 159.48 71.2767C160.04 69.9813 160.558 68.4522 161.343 67.0755C162.108 65.733 161.65 64.8929 160.773 63.8541ZM168.375 40.3057C166.853 36.1144 163.404 33.5383 159.86 31.1594C158.772 30.4274 157.507 29.9593 156.183 29.2977C152.896 33.7108 150.751 38.4581 151.078 43.9022C151.219 46.253 152.065 48.6355 152.952 50.8561C154.77 55.4028 157.74 59.1789 161.59 62.2025C164.609 64.5744 166.55 64.0536 167.931 60.5056C170.52 53.8403 170.834 47.0625 168.375 40.3057ZM176.459 57.4756C177.34 55.1002 178.288 52.7388 178.989 50.3071C180.845 43.8882 178.439 42.0125 174.536 39.359C172.26 37.8176 169.819 36.5226 167.181 35.3437C167.642 35.9419 168.206 36.4874 168.551 37.1455C171.048 41.9069 172.077 46.9815 171.295 52.3095C170.827 55.5119 170.044 58.6686 169.396 61.8443C169.181 62.8895 169.301 63.6947 170.351 64.3577C171.82 65.2896 173.162 66.4308 174.899 67.7399C173.976 63.8566 175.276 60.6816 176.459 57.4756ZM190.885 184.614C191.036 184.191 190.828 183.509 190.561 183.09C188.715 180.193 185.731 178.85 182.494 179.76C181.536 180.029 180.415 181.12 180.116 182.069C179.133 185.184 180.845 188.79 183.741 190.36C184.019 190.513 184.449 190.721 184.664 190.615C186.975 189.48 189.148 190.415 191.505 191.07C190.779 188.833 190.103 186.815 190.885 184.614ZM191.54 213.124C189.24 213.921 187.105 214.574 184.829 213.703C184.526 213.588 184.012 213.699 183.734 213.899C180.715 216.09 179.066 218.572 180.169 222.362C180.426 223.256 181.564 224.269 182.494 224.526C185.735 225.426 189.021 223.909 190.681 221C190.899 220.614 191.008 220.008 190.871 219.603C190.131 217.408 190.751 215.379 191.54 213.124ZM142.67 318.337C149.106 319.525 155.468 319.511 161.442 316.476C166.881 313.713 171.485 310.032 173.447 303.801C171.831 302.885 170.161 301.941 168.759 301.149C166.585 303.235 164.683 305.422 162.425 307.145C159.001 309.76 154.999 311.251 150.687 311.669C148.736 311.859 146.735 311.814 144.773 311.657C139.39 311.224 136.434 307.566 134.071 303.269C132.14 299.765 131.586 295.864 131.325 291.964C131.093 288.498 132.13 285.203 133.408 282.003C133.528 281.705 133.644 281.406 133.799 281.016C132.105 280.011 130.465 279.039 128.837 278.074C122.047 285.954 122.416 298.913 128.178 307.199C129.841 309.59 131.684 311.866 133.567 314.092C135.92 316.88 139.267 317.709 142.67 318.337ZM154.316 327.167C157.137 326.061 159.572 324.416 161.139 321.627C162.097 319.921 163.415 318.414 164.655 316.702C162.358 317.654 160.237 318.63 158.046 319.421C154.816 320.587 151.42 320.721 148.052 320.459C144.847 320.21 143.001 321.919 141.475 324.345C139.795 327.014 138.943 329.954 138.562 333.056C138.418 334.238 138.256 335.418 138.097 336.633C142.729 332.116 148.415 329.478 154.316 327.167ZM152.706 338.489C155.517 336.293 157.412 333.534 158.557 330.246C158.927 329.186 158.835 327.965 158.955 326.818C158.825 326.677 158.694 326.535 158.564 326.393C152.945 329.397 147.281 332.319 141.743 335.464C140.478 336.184 139.566 337.609 138.643 338.825C137.9 339.805 138.097 340.942 138.52 342.084C139.432 344.541 140.246 347.033 141.201 349.806C144.315 344.941 148.545 341.733 152.706 338.489ZM156.982 344.37C158.282 342.94 159.621 341.541 160.959 340.148C161.773 339.305 162.055 338.502 161.417 337.342C160.628 335.908 160.075 334.344 159.237 332.421C157.218 337.886 152.42 340.219 148.785 343.676C147.51 344.89 146.136 346.044 145.065 347.424C143.054 350.019 143.24 352.913 144.618 355.703C146.08 358.653 147.732 361.508 149.387 364.567C149.525 362.292 149.451 360.255 149.807 358.296C150.772 352.949 153.347 348.37 156.982 344.37ZM169.875 352.642C169.646 349.4 168.597 346.171 167.593 343.041C166.811 340.594 164.686 339.848 162.742 341.282C155.771 346.415 151.18 353.095 151.089 361.982C151.036 366.764 153.16 371.052 156.13 374.83C166.701 370.358 170.64 363.561 169.875 352.642ZM174.92 336.552C173.064 337.874 171.425 338.821 170.097 340.09C169.558 340.603 169.446 341.857 169.569 342.712C170.154 346.784 171.327 350.822 171.45 354.898C171.598 359.81 170.717 364.691 167.304 368.668C167.248 368.731 167.283 368.87 167.237 369.466C170.675 367.204 173.941 365.214 177.023 362.976C179.602 361.107 180.116 358.292 179.344 355.387C178.566 352.463 177.467 349.623 176.456 346.765C175.314 343.546 173.92 340.382 174.92 336.552ZM69.5311 306.947C69.6897 314.345 69.8024 321.745 69.8478 329.145C69.8602 331.109 69.5709 333.074 69.4279 334.936L90.2003 334.936C92.4213 334.936 94.6435 334.896 96.8635 334.947C98.4036 334.983 99.9398 335.217 101.48 335.234C104.343 335.267 107.217 335.342 110.069 335.143C112.363 334.983 114.638 334.485 116.908 334.066C121.033 333.303 124.206 330.835 127.369 328.282C130.962 325.385 132.359 321.054 134.751 317.596C133.81 316.559 132.922 315.578 131.946 314.504C130.661 316.344 129.62 318.236 128.205 319.787C123.273 325.196 117.358 328.663 109.908 329.786C103.911 330.69 97.9224 330.622 91.9334 330.763C86.4757 330.892 81.0049 330.411 75.5384 330.245C74.6225 330.217 74.2611 329.945 74.2523 328.996C74.2399 327.568 74.025 326.142 74.0011 324.713C73.8954 318.359 73.6953 312.002 73.7792 305.649C73.8704 298.744 74.3967 291.825 77.4967 285.51C78.6549 283.15 80.6618 281.199 82.3246 279.095C83.1031 278.11 83.8788 277.076 84.8429 276.295C86.419 275.017 88.1483 273.927 90.0224 272.611C88.9317 271.661 87.9327 270.791 86.8614 269.857C83.3972 272.184 79.1449 273.755 76.0816 277.26C72.1393 281.769 69.9084 286.87 69.5505 292.821C69.379 295.672 69.0778 298.521 69.0422 301.373C69.0189 303.229 69.491 305.086 69.5311 306.947ZM124.831 351.043C121.884 352.12 118.914 353.136 115.957 354.185C114.745 354.615 114.155 354.296 113.935 352.931C113.497 350.22 112.828 347.547 112.364 344.84C111.9 342.138 111.57 339.413 111.164 336.572C108.27 336.701 105.419 336.828 102.415 336.962C104.531 346.127 106.628 355.206 108.743 364.361C117.664 361.636 126.592 358.909 135.712 356.123C134.321 353.525 132.996 351.049 131.597 348.439C129.32 349.319 127.089 350.217 124.831 351.043ZM129.227 328.687C127.798 329.823 126.478 331.43 124.785 332.106C121.184 333.543 121.356 336.202 121.827 339.15C121.913 339.693 122.015 340.233 122.173 341.139C124.238 340.22 126.233 339.361 128.189 338.422C128.42 338.312 128.516 337.769 128.546 337.416C128.788 334.531 129 331.644 129.227 328.687ZM128.628 339.993C127.251 340.607 125.86 341.209 124.484 341.843C121.522 343.207 121.167 343.081 120.528 339.942C120.201 338.336 120.113 336.682 119.913 335.01C117.839 335.431 115.801 335.786 113.802 336.296C113.389 336.4 112.782 337.13 112.838 337.48C113.629 342.421 114.518 347.346 115.394 352.273C115.409 352.36 115.544 352.425 115.859 352.725C120.777 350.892 125.828 349.009 130.949 347.1C130.131 344.594 129.415 342.402 128.628 339.993ZM102.162 375.848C115.129 372.162 127.97 368.511 141.091 364.782C139.792 362.49 138.773 360.672 137.734 358.868C137.146 357.854 136.441 357.511 135.156 357.914C126.684 360.576 118.18 363.138 109.682 365.72C107.574 366.361 107.475 366.239 106.992 364.085C105.69 358.283 104.343 352.491 103.008 346.697C102.341 343.797 101.632 340.906 101.006 337.997C100.819 337.132 100.561 336.602 99.5442 336.624C97.3422 336.673 95.1384 336.639 92.5383 336.639C95.0246 349.955 98.8897 362.647 102.162 375.848ZM201.087 403.32C194.985 397.055 188.771 390.897 182.677 384.623C179.711 381.567 176.879 378.375 174.085 375.16C173.384 374.356 172.887 374.427 172.119 374.853C170.041 376.005 167.917 377.072 165.86 378.261C161.896 380.554 157.602 382.314 154.213 385.544C153.41 386.308 152.836 385.786 152.505 384.88C150.074 378.217 145.618 372.69 142.162 366.6C141.993 366.297 141.243 366.057 140.877 366.167C134.328 368.128 127.817 370.224 121.253 372.135C115.01 373.953 108.713 375.585 102.444 377.313C101.534 377.564 100.996 377.396 100.743 376.374C100.082 373.701 99.3315 371.051 98.6294 368.388C97.3637 363.585 96.0233 358.8 94.8696 353.97C93.5775 348.563 92.4463 343.118 91.2757 337.683C91.0721 336.736 90.5624 336.449 89.643 336.464C87.2 336.503 84.7549 336.434 82.3119 336.475C77.9236 336.549 73.5315 336.582 69.1517 336.825C67.7363 336.904 67.5066 336.552 67.6634 335.293C67.9361 333.109 68.2309 330.91 68.2422 328.715C68.2616 324.635 68.0604 320.553 67.9963 316.471C67.9533 313.714 67.9787 313.753 65.293 313.112C58.6002 311.515 51.907 309.915 45.2322 308.245C39.5691 306.828 33.9335 305.299 28.2792 303.847C27.3478 303.607 26.7292 303.261 27.0628 302.157C27.4929 300.733 27.928 299.31 28.3274 297.877C29.8838 292.301 31.3781 286.707 32.9876 281.147C34.6419 275.429 36.3536 269.727 38.165 264.058C38.4732 263.093 38.3989 262.658 37.5731 262.205C31.4834 258.866 26.0328 254.386 19.3766 252.054C18.4163 251.717 18.2567 251.058 18.9401 250.254C19.2248 249.919 19.5517 249.605 19.7711 249.23C23.0881 243.561 26.4086 237.894 29.6509 232.183C29.8447 231.842 29.5548 230.949 29.2025 230.62C26.4129 228.015 23.47 225.569 20.7314 222.913C14.1764 216.556 7.7101 210.107 1.20226 203.702C-0.409382 202.115 -0.41361 202.131 1.26743 200.478C7.18592 194.657 13.0664 188.795 19.03 183.021C22.2508 179.903 25.5508 176.859 28.9481 173.936C29.9423 173.08 30.0983 172.49 29.4255 171.498C29.1813 171.138 29.0309 170.715 28.8041 170.342C25.48 164.872 23.2202 158.764 18.8848 153.897C18.1732 153.099 18.5287 152.485 19.471 152.149C26.1641 149.762 31.6849 145.288 37.782 141.841C38.1001 141.661 38.3812 140.918 38.2742 140.558C36.2514 133.741 34.0987 126.962 32.1189 120.134C30.508 114.577 29.1 108.962 27.5813 103.379C26.8807 100.804 26.869 100.855 29.3476 100.208C36.1182 98.4407 42.8575 96.5481 49.649 94.8653C55.3617 93.4499 61.1355 92.2801 66.8641 90.9252C67.3115 90.8193 67.9152 90.1243 67.9381 89.677C68.0949 86.648 68.2171 83.6092 68.1534 80.5778C68.0699 76.6177 67.8124 72.6604 67.6119 68.7028C67.5581 67.647 67.8307 67.0815 69.045 67.4166C69.7833 67.6203 70.559 67.7927 71.3189 67.7966C77.5224 67.8269 83.7262 67.7956 89.9297 67.8336C90.9273 67.8396 91.1123 67.274 91.2673 66.5251C92.174 62.154 92.9465 57.7501 94.0361 53.4216C96.1645 44.9756 98.5015 36.5824 100.675 28.147C101.007 26.859 101.58 26.7147 102.688 27.0314C107.137 28.3124 111.607 29.523 116.054 30.811C124.263 33.19 132.457 35.6182 140.672 37.969C141.127 38.0992 142.025 37.8599 142.226 37.5115C145.678 31.4832 150.081 25.9863 152.512 19.3843C152.995 18.0716 153.579 18.1139 154.566 18.969C155.813 20.0459 157.116 21.1122 158.543 21.9286C162.622 24.2654 166.765 26.5035 170.915 28.7206C173.25 29.9664 173.278 29.9065 174.983 27.8021C175.159 27.5874 175.367 27.3974 175.558 27.2003C180.215 22.3826 184.857 17.5578 189.525 12.7542C193.425 8.74586 197.374 4.79033 201.249 0.760908C201.735 0.250623 202.143 -0.00276425 202.556 0.000745231L202.556 2.35508C201.932 2.35158 201.305 2.98152 200.033 4.25194C194.904 9.38637 189.701 14.4539 184.646 19.6623C181.226 23.1885 178.009 26.9082 174.487 30.7723C176.826 32.0392 178.89 33.2075 181.011 34.2703C181.359 34.4427 182.127 34.3266 182.392 34.0486C186.562 29.6285 190.684 25.1628 194.816 20.7075C196.965 18.3954 199.139 16.1044 201.249 13.7572C201.717 13.2328 202.133 12.9653 202.556 12.9688L202.556 14.7988L202.552 14.7953C196.151 21.6365 189.786 28.432 183.293 35.3683C185.766 36.9026 188.222 38.4229 190.691 39.9537C193.411 36.6563 196.102 33.38 198.807 30.1177C199.653 29.1007 200.502 28.0802 201.421 27.13C201.802 26.7358 202.179 26.5458 202.556 26.5493L202.556 28.2138C201.456 29.4033 200.389 30.4731 199.424 31.6309C197.303 34.1788 195.249 36.783 193.146 39.345C192.333 40.3338 191.804 41.0764 193.326 42.0793C194.83 43.0753 196.056 44.4935 197.451 45.7674C198.772 44.1169 200.065 42.5368 201.316 40.925C201.749 40.3655 202.154 40.1086 202.556 40.1156L202.556 41.4987C201.161 43.4448 199.97 45.0741 198.825 46.7352C198.674 46.9534 198.628 47.3897 198.737 47.629C200.037 50.4514 201.375 53.2561 202.548 55.7371L202.556 55.716L202.556 70.2674C200.868 70.2903 199.191 70.6228 197.486 71.1517C192.607 72.6653 188.179 74.9574 184.392 78.358C181.507 80.9456 179.665 84.3018 178.045 87.7833C176.326 91.4865 176.435 95.3854 176.643 99.4141L182.388 99.4141C182.832 97.5592 183.156 95.6085 183.772 93.7546C186.647 85.0785 192.467 79.4239 201.428 77.3553C201.809 77.2684 202.182 77.217 202.556 77.1931L202.556 78.8883C199.945 78.8633 197.61 79.9138 195.39 81.2961C189.687 84.8511 185.787 89.8497 184.551 96.6354C184.375 97.601 184.255 98.5766 184.086 99.7189C186.298 100.222 188.327 100.682 190.511 101.179C190.765 100.24 191.029 99.2969 191.276 98.3503C192.389 94.1227 194.538 90.6247 198.462 88.4639C199.885 87.6788 201.245 87.2551 202.556 87.19L202.556 88.6765C200.424 88.6406 198.459 89.8789 196.32 92.0404C193.879 94.5077 192.836 97.7372 192.178 101.069C192.111 101.404 192.438 101.976 192.752 102.201C194.045 103.125 195.404 103.958 196.532 104.69C197.451 102.699 198.166 100.598 199.322 98.7761C200.213 97.3744 201.382 96.6748 202.556 96.6762L202.556 98.8658C202.045 98.8964 201.506 99.166 200.998 99.6594C198.998 101.613 198.371 104.171 198.395 106.76C198.409 107.921 199.596 109.051 200.185 110.23C201.058 111.984 201.869 113.768 202.492 115.086C202.513 115.047 202.534 115.004 202.556 114.964L202.556 125.849C197.913 125.858 194.076 128.2 191.131 131.662C187.982 135.359 187.094 139.771 188.19 144.576C188.426 145.61 188.757 146.002 189.793 145.928C190.779 145.858 191.773 145.913 192.829 145.913C192.829 144.08 192.794 142.488 192.833 140.899C192.97 135.281 196.391 131.476 200.53 130.219C201.21 130.012 201.89 129.92 202.556 129.92L202.556 131.537C199.818 131.541 197.169 133.247 195.679 135.982C193.939 139.186 194.08 142.675 194.605 146.156C194.644 146.419 194.957 146.696 195.211 146.864C196.493 147.713 197.796 148.529 199.22 149.438C198.938 147.706 198.487 146.064 198.445 144.413C198.402 142.686 198.557 140.899 198.987 139.231C199.367 137.751 201.115 136.715 202.556 136.736L202.556 138.38L202.548 138.38C201.809 138.376 200.798 139.234 200.396 139.978C199.928 140.843 199.815 142.003 199.857 143.022C200.005 146.46 200.77 149.775 202.281 152.891C202.309 152.948 202.39 152.981 202.556 153.048L202.556 160.168C202.397 160.165 202.239 160.164 202.076 160.17C198.758 160.288 195.718 163.456 195.559 166.76C195.531 167.358 195.355 167.951 195.338 168.549C195.302 169.782 195.373 170.873 196.965 171.283C199.544 171.944 201.404 173.576 202.541 176.27L202.556 176.236L202.556 182.527L202.531 182.524C202.017 182.538 201.312 183.241 201.058 183.808C199.262 187.817 200.632 191.449 202.556 195.422L202.556 208.856C202.541 208.823 202.524 208.791 202.51 208.758C200.808 212.695 199.23 216.191 200.949 220.085C201.245 220.756 201.971 221.237 202.499 221.805L202.556 221.753L202.556 228.046L202.531 227.998C201.372 230.753 199.368 232.275 196.704 233.107C196.194 233.267 195.559 233.989 195.507 234.505C195.246 237.107 195.869 240.685 198.237 242.545C199.523 243.556 201.044 244.036 202.556 244.026L202.556 251.131C202.358 251.105 202.161 251.079 201.96 251.052C201.256 254.192 200.424 257.312 199.903 260.482C199.699 261.725 199.949 263.179 200.442 264.35C200.731 265.037 201.781 265.748 202.556 265.824L202.556 267.557C202.499 267.558 202.439 267.56 202.383 267.557C200.872 267.486 199.114 266.254 198.864 264.536C198.554 262.408 198.649 260.211 198.698 258.046C198.723 256.974 199.04 255.909 199.23 254.809C197.867 255.676 196.423 256.344 195.334 257.386C194.714 257.982 194.51 259.17 194.415 260.122C193.988 264.295 194.598 268.138 198.092 271.044C199.522 272.234 201.062 272.731 202.556 272.713L202.556 274.303C200.608 274.359 198.874 273.565 197.317 272.382C194.253 270.059 192.851 266.842 192.829 263.016C192.819 261.53 192.826 260.045 192.826 258.326C191.649 258.326 190.388 258.261 189.145 258.371C188.831 258.399 188.401 258.94 188.303 259.319C186.33 266.647 190.11 273.817 196.049 276.385C197.951 277.207 199.921 278.385 201.886 278.443C202.112 278.451 202.334 278.446 202.556 278.442L202.556 289.355L202.51 289.271C201.643 291.009 200.657 293.333 199.35 295.46C198.476 296.883 198.008 298.248 198.631 299.762C199.311 301.416 200.072 303.072 201.062 304.553C201.471 305.166 201.999 305.419 202.556 305.379L202.556 307.587C201.351 307.583 200.146 306.779 199.153 305.175C198.075 303.434 197.409 301.439 196.549 299.541C195.235 300.411 193.689 301.437 192.054 302.519C193.101 307.883 194.95 312.7 200.526 315.114C201.242 315.424 201.914 315.562 202.556 315.574L202.556 317.117C200.16 317.184 198.166 315.844 196.313 314.286C193.643 312.042 191.896 309.094 191.23 305.587C191.064 304.731 190.747 303.904 190.501 303.05C188.324 303.562 186.26 304.049 184.156 304.544C184.731 313.127 189.116 319.168 196.077 323.432C198.265 324.773 200.428 325.37 202.556 325.347L202.556 326.934C199.899 326.976 197.5 325.96 195.288 324.701C190.17 321.792 186.284 317.571 184.202 311.963C183.519 310.121 183.205 308.132 182.832 306.19C182.638 305.188 182.367 304.601 181.173 304.687C179.697 304.792 178.203 304.712 176.769 304.712C175.625 312.188 178.034 318.398 182.617 323.903C187.214 329.421 193.467 332.134 200.213 333.807C200.953 333.99 201.749 334.045 202.556 334.021L202.556 348.502L202.545 348.481C201.4 350.926 200.104 353.655 198.86 356.409C198.712 356.74 198.709 357.307 198.899 357.591C199.995 359.232 201.171 360.822 202.534 362.732L202.556 362.703L202.556 364.183C201.967 364.19 201.383 363.413 200.009 361.846C199.072 360.775 198.332 359.53 197.536 358.416C195.711 360.054 193.953 361.635 191.959 363.424C195.486 367.694 198.913 371.845 202.549 376.254L202.556 376.247L202.556 377.786C202.161 377.789 201.774 377.543 201.397 377.095C197.846 372.877 194.291 368.658 190.642 364.325C188.296 365.775 185.84 367.294 183.297 368.866C189.775 375.795 196.116 382.573 202.545 389.445L202.556 389.434L202.556 391.318C202.055 391.319 201.559 390.844 200.678 389.887C196.521 385.363 192.326 380.874 188.144 376.371C186.344 374.431 184.505 372.523 182.758 370.535C182.117 369.804 181.603 369.481 180.669 370.037C178.728 371.191 176.741 372.26 174.275 373.643C183.783 383.431 193.051 392.971 202.545 402.746L202.556 402.736L202.556 404.195C202.101 404.198 201.654 403.901 201.087 403.32Z" fill="url(#paint0_linear_1179_8815)"/>
</g>
<defs>
<linearGradient id="paint0_linear_1179_8815" x1="429.83" y1="202.099" x2="-15.5986" y2="202.099" gradientUnits="userSpaceOnUse">
<stop stop-color="#BC945C"/>
<stop offset="0.2" stop-color="#A17A48"/>
<stop offset="0.3" stop-color="#9E7645"/>
<stop offset="0.5" stop-color="#DEAF70"/>
<stop offset="0.6" stop-color="#FAC883"/>
<stop offset="0.7" stop-color="#EEBC7B"/>
<stop offset="1" stop-color="#966F41"/>
</linearGradient>
</defs>
</svg>
