<svg width="26" height="39" viewBox="0 0 26 39" fill="none" xmlns="http://www.w3.org/2000/svg">
<path d="M20.278 34.175C21.1721 32.8076 21.4681 30.9627 21.6497 29.3023C21.7569 28.3219 21.7175 27.3568 21.5973 26.3754C21.2119 23.2307 19.7506 20.8758 19.1106 19.7554C17.9772 17.7716 16.6289 15.9143 15.0866 14.2195C14.9079 14.0266 14.8157 13.8948 14.7567 14.3167C14.4877 16.1724 13.966 17.9811 13.1792 19.6835C12.6683 20.7888 12.1279 21.8593 11.6409 22.9588C10.974 24.4646 10.6928 25.8047 10.6368 26.1248C10.1842 28.7109 10.677 31.425 12.0111 33.6947C12.7551 35.1107 14.4641 36.1159 16.1021 36.1228C17.907 36.1305 19.548 35.2913 20.278 34.175ZM17.988 29.6563C17.7328 28.9233 17.3691 28.2281 16.9262 27.6196C17.3367 27.1719 17.5387 26.6799 17.5974 26.1675C18.7731 26.8186 19.1023 28.8157 17.988 29.6563ZM18.9302 28.6952C19.5687 29.8385 19.6077 31.3816 18.3925 32.1346C18.4111 31.4118 18.3024 30.6749 18.0883 29.9662C18.5533 29.6616 18.8238 29.2023 18.9302 28.6952ZM16.7324 27.3663C16.6337 27.2426 16.5339 27.1209 16.4272 27.0076C16.2031 26.7695 16.1284 26.8917 16.0066 27.0264C15.8846 27.1616 15.7716 27.3025 15.6641 27.446C14.1055 25.9605 15.1721 23.6684 15.8148 21.9762C16.6681 23.5323 18.1205 25.7618 16.7324 27.3663ZM15.4823 27.7024C15.0467 28.3477 14.7427 29.0561 14.5706 29.7909C14.1083 29.3225 13.8479 28.7617 13.8192 28.099C13.7886 27.3943 14.012 26.8886 14.6661 26.3523C14.7945 26.8391 15.0492 27.2966 15.4823 27.7024ZM14.4947 30.1659C14.3625 30.9396 14.3749 31.7354 14.5341 32.5125C13.415 31.9709 12.7968 30.0372 13.7277 29.0956C13.9007 29.4828 14.1872 29.8547 14.4947 30.1659ZM14.6302 32.9117C14.7476 33.3419 15.2082 34.7138 16.2693 35.4809C15.7989 35.3753 15.3385 35.1077 14.9399 34.8728C13.4766 34.0105 13.4178 32.4774 13.5126 32.019C13.7668 32.3822 14.1343 32.7096 14.6302 32.9117ZM14.967 32.9833C14.3725 31.0143 14.8196 28.8462 16.226 27.2492C17.6396 28.8293 18.479 31.2933 17.9019 33.3726C17.8273 33.6414 17.3764 34.7892 16.7504 35.4926C15.6596 34.8382 15.0583 33.2861 14.967 32.9833ZM18.3675 32.5277C18.6442 32.3767 18.9801 32.1058 19.128 31.9383C19.2229 32.4889 19.2176 33.0788 19.0081 33.6052C18.9124 33.8454 18.4661 34.9247 17.0684 35.5799C18.0866 34.3852 18.3027 33.2247 18.3675 32.5277ZM17.7092 35.5532C18.3529 35.1673 18.6771 34.8108 19.0984 34.1614C19.3113 34.1315 19.9599 34.0437 20.0118 34.0367C19.26 34.9437 18.5573 35.2919 17.7092 35.5532ZM20.1486 33.821C19.7532 33.8783 19.4815 33.9024 19.1856 33.96C19.2027 33.9288 19.371 33.5853 19.471 33.0831C19.4782 33.0821 20.2737 32.8176 20.6641 32.6862C20.5316 33.066 20.3267 33.4997 20.1486 33.821ZM20.7384 32.4649C20.7188 32.4582 19.4919 32.8611 19.4919 32.8611C19.509 32.5487 19.4772 32.2074 19.395 31.8133C19.9625 31.5783 20.5255 31.3332 21.0847 31.0789C20.9966 31.5455 20.8854 32.0073 20.7384 32.4649ZM21.1292 30.8312C20.5404 31.1006 19.9469 31.3588 19.3487 31.6068C19.3486 31.6062 19.3485 31.6056 19.3484 31.605C19.5615 31.2398 19.6619 30.8232 19.6723 30.3934C19.9352 30.1787 21.0776 29.5612 21.3284 29.3789C21.2735 29.8684 21.2116 30.3522 21.1292 30.8312ZM21.3577 29.0974C21.0417 29.3365 19.8879 29.985 19.6685 30.1361C19.6514 29.8364 19.5703 29.3753 19.4398 29.0726C20.0996 28.4948 20.7462 27.9027 21.3806 27.2968C21.4193 27.8832 21.4157 28.4854 21.3577 29.0974ZM21.36 27.0312C20.7054 27.6593 20.0372 28.2724 19.3553 28.8706C19.2494 28.6348 19.1136 28.3828 18.9817 28.1959C18.982 28.1512 18.98 28.1063 18.9781 28.0615C19.6986 27.0869 20.3832 26.0873 21.0337 25.0642C21.1845 25.6892 21.2998 26.3486 21.36 27.0312ZM20.9646 24.789C20.3264 25.8002 19.6533 26.7875 18.9467 27.7515C18.8948 27.4192 18.785 27.0931 18.622 26.8005C19.2398 25.5505 19.8268 24.2861 20.3839 23.0076C20.5974 23.5553 20.7981 24.1533 20.9646 24.789ZM20.2761 22.7373C19.7133 24.0371 19.1182 25.3219 18.4928 26.5923C18.4081 26.4687 18.2041 26.1615 17.8752 25.9721C18.4221 24.2919 18.9306 22.5997 19.4022 20.8965C19.6728 21.3954 19.9824 22.0192 20.2761 22.7373ZM19.2603 20.6398C18.779 22.3909 18.2569 24.1302 17.6954 25.8571C17.6683 25.8415 17.6413 25.8267 17.6145 25.8128C17.6111 25.2996 17.4859 24.7729 17.2962 24.2539C17.6606 22.5341 18.0003 20.8092 18.316 19.0798C18.6179 19.4966 19.1499 20.4436 19.2603 20.6398ZM18.153 18.8214C17.8451 20.5196 17.5127 22.213 17.1578 23.9019C17.0088 23.5475 16.8353 23.1989 16.6548 22.8632C16.7941 21.0183 16.9639 19.1762 17.1633 17.3371C17.5043 17.8241 17.8328 18.32 18.153 18.8214ZM16.9856 17.0864C16.9835 17.0929 16.6135 20.7217 16.4736 22.5337C16.3078 22.2375 15.9557 21.6327 15.9401 21.6099C15.788 19.2994 15.5123 17.0009 15.1167 14.7202C15.7841 15.4757 16.4023 16.2686 16.9856 17.0864ZM14.9564 15.0089C15.3193 17.1531 15.5753 19.3128 15.7229 21.4831C15.6142 21.6698 15.4956 21.9428 15.4469 22.0703C15.029 20.8502 14.0085 18.4731 14.0056 18.4686C14.4185 17.3433 14.7441 16.1887 14.9564 15.0089ZM13.9034 18.7385C14.4269 19.8969 15.3268 22.3262 15.3457 22.3364C15.2082 22.6982 15.0673 23.0755 14.9436 23.4594C14.404 22.3993 13.8305 21.3582 13.2211 20.337C13.3415 20.086 13.7869 19.0442 13.9034 18.7385ZM13.113 20.561C13.7302 21.6007 14.3122 22.6599 14.8562 23.7403C14.8562 23.7403 14.8566 23.7408 14.8569 23.741C14.7484 24.1082 14.6605 24.4792 14.6098 24.8468C13.896 23.8651 12.4654 21.8999 12.4643 21.8983C12.6928 21.4174 12.9165 20.9656 13.113 20.561ZM11.72 23.5801C11.923 23.0743 12.1438 22.5799 12.3635 22.1113C13.1011 23.1255 13.8388 24.1398 14.5765 25.1542C14.5535 25.4508 14.5585 25.7437 14.6016 26.0287C14.4941 26.0958 14.3986 26.1651 14.3121 26.2362C13.4673 25.3396 11.7246 23.5835 11.72 23.5801ZM11.6384 23.7861C12.4929 24.6347 13.3328 25.4974 14.1586 26.3742C13.9167 26.6126 13.7673 26.8717 13.6658 27.1496C12.8456 26.4362 12.0315 25.7159 11.2237 24.9884C11.3434 24.586 11.4842 24.1831 11.6384 23.7861ZM11.16 25.2099C11.9637 25.9331 13.595 27.3617 13.5977 27.3637C13.4477 27.7768 13.5091 28.2868 13.5625 28.5662C12.6446 28.0133 11.706 27.4312 10.8213 26.8259C10.9128 26.0375 11.09 25.4631 11.16 25.2099ZM10.8229 27.0825C11.7202 27.6911 12.6454 28.2556 13.574 28.8145C13.3093 29.0637 13.14 29.3762 13.0508 29.7165C12.4727 29.3565 11.4481 28.8239 10.7905 28.3858C10.776 27.9514 10.7851 27.5161 10.8229 27.0825ZM10.8022 28.6479C11.491 29.0855 12.2335 29.4632 13.0058 29.9257C12.9563 30.2303 12.9678 30.5508 13.0288 30.8653C12.3702 30.5673 11.6915 30.3254 10.992 30.142C10.895 29.6491 10.8311 29.1497 10.8022 28.6479ZM11.0409 30.371C11.7454 30.5613 12.4285 30.8108 13.0901 31.1203C13.1418 31.301 13.2082 31.478 13.2918 31.6458C13.2553 31.7589 13.2266 31.8729 13.2051 31.9871C12.6029 31.7996 11.9674 31.7221 11.3702 31.5521C11.2388 31.1646 11.1283 30.7704 11.0409 30.371ZM11.458 31.8008C12.0269 31.9099 12.6146 32.0088 13.1748 32.1935C13.1345 32.5604 13.1699 32.9263 13.275 33.2707C12.8507 33.1947 11.9835 32.9692 11.9693 32.9726C11.776 32.5918 11.6046 32.2007 11.458 31.8008ZM12.9245 34.4288C12.9129 34.4285 12.4017 33.9116 12.0931 33.2105C12.5089 33.3292 12.9295 33.4253 13.3559 33.4973C13.4017 33.6095 13.5729 34.0844 13.9914 34.4942C13.663 34.4543 13.2564 34.4342 12.9245 34.4288ZM13.1647 34.6442C13.5119 34.6571 13.894 34.6859 14.2378 34.7388C14.3784 34.8642 14.5295 34.9802 14.6916 35.0852C15.1019 35.3512 15.5843 35.6277 16.0796 35.76C15.0469 35.7148 14.22 35.5368 13.1647 34.6442Z" fill="#22366C"/>
<path d="M17.6965 38.6914C19.2768 38.2764 20.4405 37.7325 21.5974 36.7317C22.2734 36.1469 22.6731 35.707 22.9413 35.3319C24.8671 32.8277 25.4873 29.7442 25.7202 28.4037C25.9687 26.9733 26.0516 25.4581 25.9692 23.9564C25.9082 22.8457 25.7627 20.3758 24.7552 17.2852C24.0033 14.9788 23.3312 13.7402 22.7793 12.6493C22.4102 11.9198 21.6608 10.7421 20.6145 9.37869C19.2663 7.66593 17.7093 6.11755 16.0305 4.73228C15.1849 4.03436 12.3478 1.78807 8.60474 0.586445C7.78134 0.322113 6.94164 0.0902863 6.07573 0.0220268C5.39036 -0.0321861 4.61536 0.0162227 3.90077 0.139159C3.75764 0.149027 3.4402 0.228198 3.2883 0.265926C2.55892 0.447023 3.193 0.457007 3.42114 0.518185C3.75279 0.606992 4.40269 0.903944 4.65025 1.03977C5.94785 1.75208 6.9607 2.62088 7.74564 3.88937C8.45041 5.02865 8.9588 6.5018 9.22576 7.80605C9.7397 10.3161 9.55741 13.0055 8.9789 15.5068C8.66042 16.8843 7.98846 18.4255 7.94895 18.5191C7.37726 19.8792 6.73152 21.2137 6.25351 22.5983C5.91758 23.5713 5.69094 24.582 5.56676 25.604C5.40376 26.9429 5.42594 28.3075 5.67211 29.6348C6.11616 32.03 7.28438 34.2265 8.92507 36.0037C11.6292 38.933 14.8482 39.4393 17.6965 38.6914ZM16.8098 38.5723C16.6327 38.1481 16.5731 37.7084 16.6328 37.2543C17.0962 37.5022 17.5515 37.6126 17.9942 37.6197C18.0502 37.8357 18.149 38.0353 18.2814 38.2139C17.6512 38.4244 16.9667 38.5436 16.8098 38.5723ZM20.435 37.1966C19.7558 37.6378 19.1126 37.9245 18.5811 38.1136C18.4681 37.9972 18.3685 37.7705 18.3144 37.6067C18.5342 37.5858 19.4344 37.4752 20.086 36.8604C20.1971 36.9778 20.3138 37.0897 20.435 37.1966ZM22.2125 35.6841C21.7145 36.2277 21.2015 36.665 20.7022 37.0155C20.564 36.8982 20.4321 36.7744 20.3077 36.6428C20.5829 36.3356 20.7815 35.9607 20.8602 35.5235C20.8739 35.5263 20.9985 35.4944 21.1758 35.4165C21.5164 35.5279 21.8616 35.6176 22.2125 35.6841ZM18.8071 37.0897C18.0056 37.3058 17.3473 37.2406 16.5979 36.7545C16.4013 36.627 16.2775 36.5665 16.177 36.6617C14.9269 37.8451 12.4598 37.4198 12.2432 35.5553C12.2016 35.3455 12.2646 35.2176 12.0757 35.185C11.6184 35.1059 11.2626 34.9366 10.8948 34.6646C10.8964 34.6634 10.8979 34.662 10.8995 34.6607C10.1989 34.0759 9.6809 32.9117 10.1192 32.1078C10.2288 31.9068 10.1021 31.8121 10.0168 31.775C8.6856 31.1942 8.12916 28.9647 9.27786 27.9557C9.48464 27.774 9.43462 27.6678 9.29681 27.5398C8.44429 26.7477 8.26131 25.4582 8.86731 24.5859C9.06935 24.2951 9.22784 24.1505 9.8417 23.7963C10.1163 23.6663 10.0681 23.611 9.97027 23.4703C9.5164 22.818 9.24679 22.1142 9.46096 21.3191C9.6742 20.5279 10.31 19.9283 11.1026 19.7632C11.3486 19.7119 11.4854 19.6822 11.2599 19.3174C10.4215 17.961 11.2343 16.2298 12.8012 15.9826C12.9407 15.9606 13.1159 15.9084 12.9674 15.5835C12.6865 14.9689 12.479 14.3686 12.6136 13.6836C12.7245 13.1194 13.0012 12.5998 13.2711 12.0986C13.6412 11.4114 14.0124 10.7088 14.0964 9.94252C14.526 10.536 15.1431 10.9521 15.7454 11.3965C16.7247 12.119 17.3773 13.0633 17.3236 14.3183C17.3072 14.6365 17.1524 14.709 17.3868 14.7193C18.815 14.7821 19.8394 15.9609 19.6738 17.4039C19.6608 17.5181 19.5128 17.8022 19.7907 17.8027C20.434 17.8039 21.0554 18.328 21.3618 18.857C21.7029 19.4459 21.7849 20.2546 21.4351 20.8415C21.3149 21.0477 21.3601 21.1384 21.5616 21.1788C23.1585 21.4987 23.7307 23.3847 22.6406 24.5737C22.4961 24.7314 22.7019 24.7682 22.844 24.9006C23.8911 25.8005 24.0905 27.4115 22.9685 28.3584C22.7725 28.5211 22.6827 28.5803 22.8441 28.7395C23.795 29.678 23.519 31.2084 22.3635 31.7938C22.12 31.9118 22.0171 31.9393 22.1245 32.1252C22.5013 32.7771 22.464 33.5461 22.1012 34.1214C21.7709 34.6449 21.3649 34.9217 20.7059 35.2045C20.5568 35.2684 20.4801 35.2826 20.4598 35.4121C20.3222 36.2912 19.6002 36.876 18.8071 37.0897ZM22.4563 35.4082C22.1541 35.359 21.8559 35.2935 21.5618 35.2091C22.333 34.771 22.613 34.083 22.7223 33.6403C23.0831 33.6301 23.4613 33.5451 23.7929 33.4132C23.3831 34.1941 22.9289 34.8518 22.4563 35.4082ZM23.9922 32.9995C23.641 33.147 23.1173 33.2973 22.7774 33.3125C22.8145 32.926 22.7547 32.525 22.5897 32.1432C22.7301 32.0684 22.8578 31.9815 22.975 31.8863C23.5259 31.8292 24.0608 31.71 24.5832 31.5289C24.4137 32.0153 24.2169 32.513 23.9922 32.9995ZM24.7116 31.147C24.2767 31.3299 23.7408 31.4585 23.3321 31.5244C23.6774 31.0859 23.8456 30.5424 23.8189 29.9958C24.3017 29.8774 24.7563 29.696 25.1864 29.4481C25.0672 29.9535 24.9103 30.536 24.7116 31.147ZM25.2816 29.0251C24.8496 29.3193 24.2654 29.5655 23.7835 29.6855C23.7143 29.3129 23.5523 28.9481 23.2924 28.625C23.3983 28.5287 23.4907 28.4258 23.5759 28.3195C24.1181 28.1639 25.172 27.7578 25.5467 27.4093C25.5308 27.8597 25.3548 28.6835 25.2816 29.0251ZM25.5907 26.9838C24.9349 27.5532 24.2091 27.7616 23.8721 27.8603C24.1323 27.3346 24.1932 26.7457 24.0736 26.1824C24.6464 25.952 25.1816 25.6581 25.6834 25.2981C25.6764 25.8647 25.6436 26.4278 25.5907 26.9838ZM25.6848 24.9136C25.6766 24.9179 25.0167 25.4551 23.9905 25.8793C23.6931 25.012 23.116 24.5956 23.1309 24.5739C24.0139 24.1462 24.8612 23.6585 25.5756 22.8821C25.6404 23.5581 25.6841 24.7989 25.6848 24.9136ZM25.5354 22.4932C25.5275 22.4989 24.8484 23.3842 23.449 24.0641C23.6781 23.4862 23.6661 22.8613 23.4563 22.3094C24.1582 21.8555 24.7641 21.2961 25.2682 20.6348C25.3865 21.2973 25.4727 21.9237 25.5354 22.4932ZM25.1895 20.2127C24.6809 20.9351 24.0616 21.536 23.3259 22.0213C23.0716 21.5458 22.6597 21.1488 22.1223 20.9214C23.2178 20.1999 24.0868 19.2026 24.658 18.0182C24.8773 18.7654 25.0516 19.5057 25.1895 20.2127ZM24.5126 17.5877C23.9677 18.8604 23.0816 19.9151 21.9375 20.6697C22.1692 20.0421 22.0727 19.3658 21.7729 18.7577C22.6342 17.7414 23.2817 16.5847 23.7048 15.3243C24.0375 16.0266 24.5151 17.5818 24.5126 17.5877ZM23.5224 14.878C23.1334 16.1992 22.4841 17.411 21.6099 18.468C21.3637 18.0849 21.0057 17.7463 20.528 17.5415C21.4931 15.9137 22.0651 14.099 22.1917 12.2112C22.7421 13.1438 23.155 13.999 23.5224 14.878ZM21.9058 11.7404C21.8416 13.7557 21.2726 15.712 20.2318 17.4361C20.1851 17.4229 20.1375 17.4108 20.0889 17.4001C20.1481 16.6763 19.9449 15.9975 19.5578 15.4599C20.2972 13.7228 20.6861 11.8725 20.7135 9.98768C21.1899 10.5827 21.6916 11.3962 21.9058 11.7404ZM20.4041 9.5801C20.4331 11.5077 20.0687 13.4065 19.3354 15.1852C19.0171 14.8439 18.613 14.5824 18.1491 14.4358C18.8415 12.2167 19.0281 9.88216 18.6863 7.58212C19.2911 8.21886 19.8651 8.88485 20.4041 9.5801ZM18.3226 7.2075C18.7411 9.54864 18.5528 12.126 17.8492 14.3591C17.8116 14.3516 17.7739 14.3444 17.7357 14.3384C17.7677 13.4145 17.4832 12.5284 16.8718 11.8324C17.0681 9.56988 16.8015 7.30722 16.0836 5.15867C16.8643 5.80423 17.6125 6.48741 18.3226 7.2075ZM15.6357 4.79822C16.4467 7.00493 16.7419 9.3081 16.5828 11.5362C16.2353 11.21 15.8813 10.9675 15.4961 10.6712C15.1129 7.50828 13.9817 4.80356 12.1921 2.48134C13.6746 3.31915 14.9127 4.2302 15.6357 4.79822ZM4.67682 0.33082C6.57268 0.161216 7.90506 0.703346 8.62092 0.914858C9.60512 1.20577 10.5745 1.62705 11.4773 2.095C13.4842 4.48188 14.7542 7.40497 15.1474 10.3918C14.8628 10.1526 14.5588 9.86521 14.2277 9.48293C13.9223 8.74508 13.4946 7.80222 13.1061 7.13599C11.2237 3.90759 8.30914 1.34519 4.67682 0.33082ZM8.06251 3.82239C7.17233 2.3872 5.93468 1.33614 4.4839 0.601536C8.82411 1.76636 12.1255 5.19988 13.8428 9.31809C13.803 9.83979 13.6372 10.3441 13.4261 10.8284C12.4132 8.87823 10.8729 6.90126 9.00143 5.81851C8.75087 5.11839 8.4399 4.43068 8.06251 3.82239ZM9.15772 6.27926C10.9399 7.4247 12.4105 9.40225 13.2611 11.185C13.0472 11.628 12.8114 12.0533 12.6173 12.458C11.8842 11.209 10.9268 10.1299 9.7769 9.25273C9.70458 8.10683 9.35641 6.90265 9.15772 6.27926ZM9.81444 9.67889C10.8718 10.5313 11.8954 11.723 12.4676 12.7921C12.2174 13.4011 12.1453 13.9612 12.2224 14.531C11.4599 13.3929 9.83073 12.0388 9.81929 12.0327C9.86977 11.2473 9.87185 10.4599 9.81444 9.67889ZM9.79018 12.4227C10.3146 12.8526 12.0924 14.4739 12.5306 15.6148C12.1016 15.7192 11.7287 15.9175 11.4239 16.1803C10.8634 15.4968 10.2345 14.8839 9.535 14.3441C9.64856 13.7092 9.73554 13.0673 9.79018 12.4227ZM9.47008 14.6904C10.1082 15.1973 10.6839 15.7645 11.2003 16.3983C10.8323 16.8025 10.6016 17.3144 10.5395 17.8589C10.0777 17.3516 9.57855 16.8849 9.03943 16.4592C9.12954 16.1668 9.41255 14.9858 9.47008 14.6904ZM8.27933 18.5006C8.51799 17.9338 8.74336 17.3616 8.93685 16.7771C9.49469 17.226 10.1685 17.8448 10.5271 18.2964C10.5474 18.6699 10.6465 19.0489 10.8386 19.4113C10.5491 19.5034 10.2792 19.6375 10.0385 19.8089C9.50635 19.2986 8.91906 18.8642 8.27933 18.5006ZM8.15665 18.7885C8.75157 19.1282 9.29623 19.5348 9.79445 20.0056C9.4762 20.2949 9.12931 20.8188 9.01922 21.3915C8.52607 21.0094 8.01283 20.6575 7.47787 20.3357C7.70371 19.8198 7.9344 19.3059 8.15665 18.7885ZM7.35312 20.6223C7.91892 20.9628 8.45896 21.341 8.9759 21.7522C8.94806 22.384 9.165 22.9802 9.51478 23.5336C9.42468 23.5756 9.34001 23.6223 9.25869 23.6716C8.46173 23.0607 7.69643 22.4681 6.73579 22.1462C6.92605 21.6323 7.13548 21.1257 7.35312 20.6223ZM6.63032 22.4389C7.52454 22.7437 8.24803 23.2902 8.99069 23.8593C8.59827 24.1753 8.33917 24.5865 8.20702 25.0356C7.57837 24.6 6.89301 24.2764 6.15751 24.0642C6.28585 23.5139 6.44376 22.9707 6.63032 22.4389ZM6.09063 24.3678C6.82705 24.5793 7.51206 24.9151 8.13355 25.3649C8.04957 25.9125 8.1421 26.4938 8.40132 27.0162C7.60644 26.5247 6.75462 26.1523 5.84896 25.9018C5.90222 25.3869 5.98331 24.8745 6.09063 24.3678ZM5.81997 26.2166C6.83618 26.5004 8.31364 27.1787 8.90797 27.738C8.62738 28.027 8.44244 28.3801 8.34183 28.7605C7.61961 28.3946 6.61796 28.129 5.79721 28.0297C5.76406 27.4258 5.77122 26.8198 5.81997 26.2166ZM6.10795 30.1824C6.04812 29.9332 5.85509 28.97 5.8172 28.345C6.63483 28.4422 7.55538 28.7037 8.27794 29.0784C8.21395 29.5389 8.26524 30.0231 8.41321 30.4741C7.7416 30.2951 6.82659 30.1919 6.10795 30.1824ZM6.18096 30.4845C6.93171 30.497 7.85573 30.626 8.55657 30.8369C8.79973 31.355 9.18013 31.8005 9.67316 32.0692C9.637 32.1473 9.5871 32.1897 9.56388 32.2717C8.38826 31.9318 7.56948 32.0014 6.67295 31.9451C6.479 31.4696 6.31323 30.9821 6.18096 30.4845ZM7.60182 33.7726C7.27849 33.2594 7.05289 32.8212 6.80788 32.2658C7.69585 32.3251 8.54178 32.2772 9.52622 32.6237C9.48937 33.0104 9.57185 33.4183 9.73611 33.8003C9.35375 33.7406 8.44094 33.6427 7.60182 33.7726ZM7.79127 34.083C8.73828 33.9323 9.55221 34.0779 9.91055 34.1461C10.0454 34.3762 10.3578 34.8585 10.8092 35.1123C10.0165 35.0491 9.1315 35.219 8.72303 35.3111C8.40316 34.9355 8.06124 34.4871 7.79127 34.083ZM8.95153 35.5707C9.36219 35.4872 10.975 35.2326 11.8269 35.556C11.8519 35.837 11.922 36.0921 12.0268 36.3213C11.055 36.4733 10.3942 36.9205 10.3869 36.9272C9.88883 36.5424 9.40782 36.0914 8.95153 35.5707ZM10.6531 37.1252C11.2927 36.7246 12.1783 36.6159 12.1872 36.6134C12.3818 36.9101 12.6432 37.1501 12.9444 37.3318C12.6753 37.5117 12.4137 37.7537 12.2197 38.0214C11.6863 37.7867 11.1615 37.4898 10.6531 37.1252ZM12.5272 38.1498C12.7292 37.8831 12.976 37.6623 13.266 37.4979C13.7342 37.7006 14.2675 37.7777 14.7893 37.7227C14.4354 38.1793 14.318 38.6119 14.3165 38.6228C13.7176 38.5377 13.118 38.3817 12.5272 38.1498ZM15.2816 37.6298C15.6529 37.5266 16.036 37.324 16.3403 37.0693C16.2572 37.5824 16.3068 38.1455 16.4938 38.6234C15.8828 38.7091 15.2577 38.7246 14.6295 38.661C14.771 38.2711 14.9883 37.9214 15.2816 37.6298Z" fill="#22366C"/>
<path d="M0.0610808 3.12899C-0.15794 3.87729 0.22546 4.63941 0.996881 4.81493C1.60092 4.95238 2.42733 4.63256 2.57404 3.86742C2.69776 3.22256 2.32949 2.5568 1.7035 2.36421C1.04586 2.16187 0.26543 2.43061 0.0610808 3.12899ZM1.45052 2.62715C1.95013 2.70365 2.33723 3.13445 2.29865 3.66648C2.2514 4.31912 1.58359 4.63047 1.05799 4.53992C0.768158 4.49 0.341783 4.15428 0.294653 3.66311C0.228693 2.97494 0.807203 2.52847 1.45052 2.62715Z" fill="#22366C"/>
<path d="M16.141 29.6436C15.4154 30.9046 15.4591 32.4745 16.2714 33.6757C16.4955 34.0071 16.5194 33.9425 16.6108 33.8162C17.4936 32.5947 17.2676 31.0498 16.5964 29.7782C16.3848 29.3774 16.2819 29.3988 16.141 29.6436ZM16.4887 33.4359C15.8179 32.3759 15.7701 31.0536 16.3332 29.9435C16.908 31.0316 17.1469 32.351 16.4887 33.4359Z" fill="#22366C"/>
</svg>
