<svg width="20" height="30" viewBox="0 0 26 39" fill="none" xmlns="http://www.w3.org/2000/svg">
<path d="M20.278 4.82501C21.1721 6.19241 21.4681 8.03727 21.6497 9.69767C21.7569 10.6781 21.7175 11.6432 21.5973 12.6246C21.2119 15.7693 19.7506 18.1242 19.1106 19.2446C17.9772 21.2284 16.6289 23.0857 15.0866 24.7805C14.9079 24.9734 14.8157 25.1052 14.7567 24.6833C14.4877 22.8276 13.966 21.0189 13.1792 19.3165C12.6683 18.2112 12.1279 17.1407 11.6409 16.0412C10.974 14.5354 10.6928 13.1953 10.6368 12.8752C10.1842 10.2891 10.677 7.57501 12.0111 5.30526C12.7551 3.88934 14.4641 2.88414 16.1021 2.87718C17.907 2.86951 19.548 3.70871 20.278 4.82501ZM17.988 9.34372C17.7328 10.0767 17.3691 10.7719 16.9262 11.3804C17.3367 11.8281 17.5387 12.3201 17.5974 12.8325C18.7731 12.1814 19.1023 10.1843 17.988 9.34372ZM18.9302 10.3048C19.5687 9.16146 19.6077 7.61843 18.3925 6.86537C18.4111 7.58825 18.3024 8.32505 18.0883 9.03377C18.5533 9.33838 18.8238 9.79774 18.9302 10.3048ZM16.7324 11.6337C16.6337 11.7574 16.5339 11.8791 16.4272 11.9924C16.2031 12.2305 16.1284 12.1083 16.0066 11.9736C15.8846 11.8384 15.7716 11.6975 15.6641 11.554C14.1055 13.0395 15.1721 15.3316 15.8148 17.0238C16.6681 15.4677 18.1205 13.2382 16.7324 11.6337ZM15.4823 11.2976C15.0467 10.6523 14.7427 9.94389 14.5706 9.20906C14.1083 9.67747 13.8479 10.2383 13.8192 10.901C13.7886 11.6057 14.012 12.1114 14.6661 12.6477C14.7945 12.1609 15.0492 11.7034 15.4823 11.2976ZM14.4947 8.8341C14.3625 8.06037 14.3749 7.26459 14.5341 6.4875C13.415 7.02905 12.7968 8.96284 13.7277 9.90443C13.9007 9.51716 14.1872 9.14533 14.4947 8.8341ZM14.6302 6.08828C14.7476 5.65806 15.2082 4.28625 16.2693 3.51914C15.7989 3.62466 15.3385 3.89225 14.9399 4.12721C13.4766 4.98951 13.4178 6.52256 13.5126 6.98099C13.7668 6.61775 14.1343 6.29039 14.6302 6.08828ZM14.967 6.01665C14.3725 7.98573 14.8196 10.1538 16.226 11.7508C17.6396 10.1707 18.479 7.70665 17.9019 5.62741C17.8273 5.35855 17.3764 4.21079 16.7504 3.50742C15.6596 4.1618 15.0583 5.71389 14.967 6.01665ZM18.3675 6.47229C18.6442 6.62332 18.9801 6.89415 19.128 7.06167C19.2229 6.51107 19.2176 5.92123 19.0081 5.39477C18.9124 5.15459 18.4661 4.07532 17.0684 3.42012C18.0866 4.61478 18.3027 5.7753 18.3675 6.47229ZM17.7092 3.44682C18.3529 3.8327 18.6771 4.1892 19.0984 4.83859C19.3113 4.86854 19.9599 4.95631 20.0118 4.96327C19.26 4.05628 18.5573 3.70813 17.7092 3.44682ZM20.1486 5.17896C19.7532 5.12173 19.4815 5.09759 19.1856 5.04001C19.2027 5.07124 19.371 5.41473 19.471 5.91693C19.4782 5.91786 20.2737 6.18242 20.6641 6.31384C20.5316 5.93399 20.3267 5.50029 20.1486 5.17896ZM20.7384 6.5351C20.7188 6.54183 19.4919 6.13889 19.4919 6.13889C19.509 6.45128 19.4772 6.79258 19.395 7.1867C19.9625 7.42166 20.5255 7.66684 21.0847 7.92107C20.9966 7.45451 20.8854 6.99271 20.7384 6.5351ZM21.1292 8.1688C20.5404 7.89936 19.9469 7.64118 19.3487 7.39322C19.3486 7.3938 19.3485 7.39438 19.3484 7.39496C19.5615 7.76017 19.6619 8.17681 19.6723 8.60656C19.9352 8.82133 21.0776 9.4388 21.3284 9.62105C21.2735 9.13163 21.2116 8.64778 21.1292 8.1688ZM21.3577 9.90257C21.0417 9.66354 19.8879 9.01496 19.6685 8.86393C19.6514 9.16355 19.5703 9.62465 19.4398 9.92741C20.0996 10.5052 20.7462 11.0973 21.3806 11.7032C21.4193 11.1168 21.4157 10.5146 21.3577 9.90257ZM21.36 11.9688C20.7054 11.3407 20.0372 10.7276 19.3553 10.1294C19.2494 10.3652 19.1136 10.6172 18.9817 10.8041C18.982 10.8488 18.98 10.8937 18.9781 10.9385C19.6986 11.9131 20.3832 12.9127 21.0337 13.9358C21.1845 13.3108 21.2998 12.6514 21.36 11.9688ZM20.9646 14.211C20.3264 13.1998 19.6533 12.2125 18.9467 11.2485C18.8948 11.5808 18.785 11.9069 18.622 12.1995C19.2398 13.4495 19.8268 14.7139 20.3839 15.9924C20.5974 15.4447 20.7981 14.8467 20.9646 14.211ZM20.2761 16.2627C19.7133 14.9629 19.1182 13.6781 18.4928 12.4077C18.4081 12.5313 18.2041 12.8385 17.8752 13.0279C18.4221 14.7081 18.9306 16.4003 19.4022 18.1035C19.6728 17.6046 19.9824 16.9808 20.2761 16.2627ZM19.2603 18.3602C18.779 16.6091 18.2569 14.8698 17.6954 13.1429C17.6683 13.1585 17.6413 13.1733 17.6145 13.1872C17.6111 13.7004 17.4859 14.2271 17.2962 14.7461C17.6606 16.4659 18.0003 18.1908 18.316 19.9202C18.6179 19.5034 19.1499 18.5564 19.2603 18.3602ZM18.153 20.1786C17.8451 18.4804 17.5127 16.787 17.1578 15.0981C17.0088 15.4525 16.8353 15.8011 16.6548 16.1368C16.7941 17.9817 16.9639 19.8238 17.1633 21.6629C17.5043 21.1759 17.8328 20.68 18.153 20.1786ZM16.9856 21.9136C16.9835 21.9071 16.6135 18.2783 16.4736 16.4663C16.3078 16.7625 15.9557 17.3673 15.9401 17.3901C15.788 19.7006 15.5123 21.9991 15.1167 24.2798C15.7841 23.5243 16.4023 22.7314 16.9856 21.9136ZM14.9564 23.9911C15.3193 21.8469 15.5753 19.6872 15.7229 17.5169C15.6142 17.3302 15.4956 17.0572 15.4469 16.9297C15.029 18.1498 14.0085 20.5269 14.0056 20.5314C14.4185 21.6567 14.7441 22.8113 14.9564 23.9911ZM13.9034 20.2615C14.4269 19.1031 15.3268 16.6738 15.3457 16.6636C15.2082 16.3018 15.0673 15.9245 14.9436 15.5406C14.404 16.6007 13.8305 17.6418 13.2211 18.663C13.3415 18.914 13.7869 19.9558 13.9034 20.2615ZM13.113 18.439C13.7302 17.3993 14.3122 16.3401 14.8562 15.2597C14.8562 15.2597 14.8566 15.2592 14.8569 15.259C14.7484 14.8918 14.6605 14.5208 14.6098 14.1532C13.896 15.1349 12.4654 17.1001 12.4643 17.1017C12.6928 17.5826 12.9165 18.0344 13.113 18.439ZM11.72 15.4199C11.923 15.9257 12.1438 16.4201 12.3635 16.8887C13.1011 15.8745 13.8388 14.8602 14.5765 13.8458C14.5535 13.5492 14.5585 13.2563 14.6016 12.9713C14.4941 12.9042 14.3986 12.8349 14.3121 12.7638C13.4673 13.6604 11.7246 15.4165 11.72 15.4199ZM11.6384 15.2139C12.4929 14.3653 13.3328 13.5026 14.1586 12.6258C13.9167 12.3874 13.7673 12.1283 13.6658 11.8504C12.8456 12.5638 12.0315 13.2841 11.2237 14.0116C11.3434 14.414 11.4842 14.8169 11.6384 15.2139ZM11.16 13.7901C11.9637 13.0669 13.595 11.6383 13.5977 11.6363C13.4477 11.2232 13.5091 10.7132 13.5625 10.4338C12.6446 10.9867 11.706 11.5688 10.8213 12.1741C10.9128 12.9625 11.09 13.5369 11.16 13.7901ZM10.8229 11.9175C11.7202 11.3089 12.6454 10.7444 13.574 10.1855C13.3093 9.93635 13.14 9.62384 13.0508 9.28347C12.4727 9.64346 11.4481 10.1761 10.7905 10.6142C10.776 11.0486 10.7851 11.4839 10.8229 11.9175ZM10.8022 10.3521C11.491 9.91452 12.2335 9.53677 13.0058 9.07428C12.9563 8.76967 12.9678 8.44915 13.0288 8.13467C12.3702 8.43267 11.6915 8.67459 10.992 8.85801C10.895 9.35092 10.8311 9.85033 10.8022 10.3521ZM11.0409 8.62897C11.7454 8.4387 12.4285 8.18923 13.0901 7.87974C13.1418 7.69899 13.2082 7.52196 13.2918 7.35421C13.2553 7.24114 13.2266 7.12714 13.2051 7.01292C12.6029 7.2004 11.9674 7.27794 11.3702 7.44789C11.2388 7.83539 11.1283 8.22963 11.0409 8.62897ZM11.458 7.19923C12.0269 7.09011 12.6146 6.9912 13.1748 6.80651C13.1345 6.43956 13.1699 6.07365 13.275 5.72933C12.8507 5.80526 11.9835 6.03081 11.9693 6.02745C11.776 6.40822 11.6046 6.79931 11.458 7.19923ZM12.9245 4.57124C12.9129 4.57148 12.4017 5.08841 12.0931 5.78947C12.5089 5.67083 12.9295 5.57471 13.3559 5.50273C13.4017 5.39047 13.5729 4.91556 13.9914 4.50577C13.663 4.5457 13.2564 4.56579 12.9245 4.57124ZM13.1647 4.35579C13.5119 4.3429 13.894 4.31411 14.2378 4.26117C14.3784 4.1358 14.5295 4.01983 14.6916 3.91477C15.1019 3.64881 15.5843 3.37229 16.0796 3.23995C15.0469 3.28523 14.22 3.46319 13.1647 4.35579Z" fill="#22366C"/>
<path d="M17.6965 0.308621C19.2768 0.723633 20.4405 1.26751 21.5974 2.2683C22.2734 2.85315 22.6731 3.293 22.9413 3.66808C24.8671 6.17232 25.4873 9.25584 25.7202 10.5963C25.9687 12.0267 26.0516 13.5419 25.9692 15.0436C25.9082 16.1543 25.7627 18.6242 24.7552 21.7148C24.0033 24.0212 23.3312 25.2598 22.7793 26.3507C22.4102 27.0802 21.6608 28.2579 20.6145 29.6213C19.2663 31.3341 17.7093 32.8824 16.0305 34.2677C15.1849 34.9656 12.3478 37.2119 8.60474 38.4136C7.78134 38.6779 6.94164 38.9097 6.07573 38.978C5.39036 39.0322 4.61536 38.9838 3.90077 38.8608C3.75764 38.851 3.4402 38.7718 3.2883 38.7341C2.55892 38.553 3.193 38.543 3.42114 38.4818C3.75279 38.393 4.40269 38.0961 4.65025 37.9602C5.94785 37.2479 6.9607 36.3791 7.74564 35.1106C8.45041 33.9713 8.9588 32.4982 9.22576 31.194C9.7397 28.6839 9.55741 25.9945 8.9789 23.4932C8.66042 22.1157 7.98846 20.5745 7.94895 20.4809C7.37726 19.1208 6.73152 17.7863 6.25351 16.4017C5.91758 15.4287 5.69094 14.418 5.56676 13.396C5.40376 12.0571 5.42594 10.6925 5.67211 9.3652C6.11616 6.96996 7.28438 4.77347 8.92507 2.99628C11.6292 0.0670439 14.8482 -0.439331 17.6965 0.308621ZM16.8098 0.427727C16.6327 0.85191 16.5731 1.29165 16.6328 1.74567C17.0962 1.49782 17.5515 1.38742 17.9942 1.38034C18.0502 1.1643 18.149 0.964749 18.2814 0.786087C17.6512 0.575623 16.9667 0.456398 16.8098 0.427727ZM20.435 1.80336C19.7558 1.36223 19.1126 1.0755 18.5811 0.886391C18.4681 1.00283 18.3685 1.22954 18.3144 1.39334C18.5342 1.41424 19.4344 1.52475 20.086 2.13955C20.1971 2.02219 20.3138 1.91028 20.435 1.80336ZM22.2125 3.31587C21.7145 2.77235 21.2015 2.33505 20.7022 1.98446C20.564 2.10183 20.4321 2.22557 20.3077 2.35722C20.5829 2.66439 20.7815 3.03935 20.8602 3.47653C20.8739 3.47375 20.9985 3.50555 21.1758 3.58345C21.5164 3.47212 21.8616 3.38239 22.2125 3.31587ZM18.8071 1.91028C18.0056 1.69424 17.3473 1.75937 16.5979 2.24554C16.4013 2.37301 16.2775 2.43349 16.177 2.3383C14.9269 1.1549 12.4598 1.58025 12.2432 3.44473C12.2016 3.6545 12.2646 3.78243 12.0757 3.81505C11.6184 3.8941 11.2626 4.06336 10.8948 4.33535C10.8964 4.33663 10.8979 4.33802 10.8995 4.3393C10.1989 4.92415 9.6809 6.08827 10.1192 6.89218C10.2288 7.09324 10.1021 7.18786 10.0168 7.225C8.6856 7.80579 8.12916 10.0353 9.27786 11.0443C9.48464 11.226 9.43462 11.3322 9.29681 11.4602C8.44429 12.2523 8.26131 13.5418 8.86731 14.4141C9.06935 14.7049 9.22784 14.8495 9.8417 15.2037C10.1163 15.3337 10.0681 15.389 9.97027 15.5297C9.5164 16.182 9.24679 16.8858 9.46096 17.6809C9.6742 18.4721 10.31 19.0717 11.1026 19.2368C11.3486 19.2881 11.4854 19.3178 11.2599 19.6826C10.4215 21.039 11.2343 22.7702 12.8012 23.0174C12.9407 23.0394 13.1159 23.0916 12.9674 23.4165C12.6865 24.0311 12.479 24.6314 12.6136 25.3164C12.7245 25.8806 13.0012 26.4002 13.2711 26.9014C13.6412 27.5886 14.0124 28.2912 14.0964 29.0575C14.526 28.464 15.1431 28.0479 15.7454 27.6035C16.7247 26.881 17.3773 25.9367 17.3236 24.6817C17.3072 24.3635 17.1524 24.291 17.3868 24.2807C18.815 24.2179 19.8394 23.0391 19.6738 21.5961C19.6608 21.4819 19.5128 21.1978 19.7907 21.1973C20.434 21.1961 21.0554 20.672 21.3618 20.143C21.7029 19.5541 21.7849 18.7454 21.4351 18.1585C21.3149 17.9523 21.3601 17.8616 21.5616 17.8212C23.1585 17.5013 23.7307 15.6153 22.6406 14.4263C22.4961 14.2686 22.7019 14.2318 22.844 14.0994C23.8911 13.1995 24.0905 11.5885 22.9685 10.6416C22.7725 10.4789 22.6827 10.4197 22.8441 10.2605C23.795 9.32201 23.519 7.79162 22.3635 7.20619C22.12 7.08825 22.0171 7.06074 22.1245 6.87477C22.5013 6.22293 22.464 5.45385 22.1012 4.87864C21.7709 4.35508 21.3649 4.07834 20.7059 3.79554C20.5568 3.73158 20.4801 3.71742 20.4598 3.58786C20.3222 2.70885 19.6002 2.124 18.8071 1.91028ZM22.4563 3.59181C22.1541 3.64103 21.8559 3.70651 21.5618 3.7909C22.333 4.22902 22.613 4.91695 22.7223 5.35971C23.0831 5.36992 23.4613 5.4549 23.7929 5.58677C23.3831 4.80585 22.9289 4.14822 22.4563 3.59181ZM23.9922 6.00051C23.641 5.85296 23.1173 5.70274 22.7774 5.68754C22.8145 6.07399 22.7547 6.47496 22.5897 6.85677C22.7301 6.93165 22.8578 7.01848 22.975 7.11367C23.5259 7.17079 24.0608 7.29001 24.5832 7.47111C24.4137 6.9847 24.2169 6.48703 23.9922 6.00051ZM24.7116 7.85304C24.2767 7.67008 23.7408 7.54146 23.3321 7.47564C23.6774 7.9141 23.8456 8.45762 23.8189 9.00416C24.3017 9.12257 24.7563 9.30402 25.1864 9.55186C25.0672 9.04654 24.9103 8.46401 24.7116 7.85304ZM25.2816 9.97489C24.8496 9.68072 24.2654 9.4345 23.7835 9.31446C23.7143 9.68711 23.5523 10.0519 23.2924 10.375C23.3983 10.4713 23.4907 10.5742 23.5759 10.6805C24.1181 10.8361 25.172 11.2422 25.5467 11.5907C25.5308 11.1403 25.3548 10.3165 25.2816 9.97489ZM25.5907 12.0162C24.9349 11.4468 24.2091 11.2384 23.8721 11.1397C24.1323 11.6654 24.1932 12.2543 24.0736 12.8176C24.6464 13.048 25.1816 13.3419 25.6834 13.7019C25.6764 13.1353 25.6436 12.5722 25.5907 12.0162ZM25.6848 14.0864C25.6766 14.0821 25.0167 13.5449 23.9905 13.1207C23.6931 13.988 23.116 14.4044 23.1309 14.4261C24.0139 14.8538 24.8612 15.3415 25.5756 16.1179C25.6404 15.4419 25.6841 14.2011 25.6848 14.0864ZM25.5354 16.5068C25.5275 16.5011 24.8484 15.6158 23.449 14.9359C23.6781 15.5138 23.6661 16.1387 23.4563 16.6906C24.1582 17.1445 24.7641 17.7039 25.2682 18.3652C25.3865 17.7027 25.4727 17.0763 25.5354 16.5068ZM25.1895 18.7873C24.6809 18.0649 24.0616 17.464 23.3259 16.9787C23.0716 17.4542 22.6597 17.8512 22.1223 18.0786C23.2178 18.8001 24.0868 19.7974 24.658 20.9818C24.8773 20.2346 25.0516 19.4943 25.1895 18.7873ZM24.5126 21.4123C23.9677 20.1396 23.0816 19.0849 21.9375 18.3303C22.1692 18.9579 22.0727 19.6342 21.7729 20.2423C22.6342 21.2586 23.2817 22.4153 23.7048 23.6757C24.0375 22.9734 24.5151 21.4182 24.5126 21.4123ZM23.5224 24.122C23.1334 22.8008 22.4841 21.589 21.6099 20.532C21.3637 20.9151 21.0057 21.2537 20.528 21.4585C21.4931 23.0863 22.0651 24.901 22.1917 26.7888C22.7421 25.8562 23.155 25.001 23.5224 24.122ZM21.9058 27.2596C21.8416 25.2443 21.2726 23.288 20.2318 21.5639C20.1851 21.5771 20.1375 21.5892 20.0889 21.5999C20.1481 22.3237 19.9449 23.0025 19.5578 23.5401C20.2972 25.2772 20.6861 27.1275 20.7135 29.0123C21.1899 28.4173 21.6916 27.6038 21.9058 27.2596ZM20.4041 29.4199C20.4331 27.4923 20.0687 25.5935 19.3354 23.8148C19.0171 24.1561 18.613 24.4176 18.1491 24.5642C18.8415 26.7833 19.0281 29.1178 18.6863 31.4179C19.2911 30.7811 19.8651 30.1151 20.4041 29.4199ZM18.3226 31.7925C18.7411 29.4514 18.5528 26.874 17.8492 24.6409C17.8116 24.6484 17.7739 24.6556 17.7357 24.6616C17.7677 25.5855 17.4832 26.4716 16.8718 27.1676C17.0681 29.4301 16.8015 31.6928 16.0836 33.8413C16.8643 33.1958 17.6125 32.5126 18.3226 31.7925ZM15.6357 34.2018C16.4467 31.9951 16.7419 29.6919 16.5828 27.4638C16.2353 27.79 15.8813 28.0325 15.4961 28.3288C15.1129 31.4917 13.9817 34.1964 12.1921 36.5187C13.6746 35.6809 14.9127 34.7698 15.6357 34.2018ZM4.67682 38.6692C6.57268 38.8388 7.90506 38.2967 8.62092 38.0851C9.60512 37.7942 10.5745 37.3729 11.4773 36.905C13.4842 34.5181 14.7542 31.595 15.1474 28.6082C14.8628 28.8474 14.5588 29.1348 14.2277 29.5171C13.9223 30.2549 13.4946 31.1978 13.1061 31.864C11.2237 35.0924 8.30914 37.6548 4.67682 38.6692ZM8.06251 35.1776C7.17233 36.6128 5.93468 37.6639 4.4839 38.3985C8.82411 37.2336 12.1255 33.8001 13.8428 29.6819C13.803 29.1602 13.6372 28.6559 13.4261 28.1716C12.4132 30.1218 10.8729 32.0987 9.00143 33.1815C8.75087 33.8816 8.4399 34.5693 8.06251 35.1776ZM9.15772 32.7207C10.9399 31.5753 12.4105 29.5977 13.2611 27.815C13.0472 27.372 12.8114 26.9467 12.6173 26.542C11.8842 27.791 10.9268 28.8701 9.7769 29.7473C9.70458 30.8932 9.35641 32.0973 9.15772 32.7207ZM9.81444 29.3211C10.8718 28.4687 11.8954 27.277 12.4676 26.2079C12.2174 25.5989 12.1453 25.0388 12.2224 24.469C11.4599 25.6071 9.83073 26.9612 9.81929 26.9673C9.86977 27.7527 9.87185 28.5401 9.81444 29.3211ZM9.79018 26.5773C10.3146 26.1474 12.0924 24.5261 12.5306 23.3852C12.1016 23.2808 11.7287 23.0825 11.4239 22.8197C10.8634 23.5032 10.2345 24.1161 9.535 24.6559C9.64856 25.2908 9.73554 25.9327 9.79018 26.5773ZM9.47008 24.3096C10.1082 23.8027 10.6839 23.2355 11.2003 22.6017C10.8323 22.1975 10.6016 21.6856 10.5395 21.1411C10.0777 21.6484 9.57855 22.1151 9.03943 22.5408C9.12954 22.8332 9.41255 24.0142 9.47008 24.3096ZM8.27933 20.4994C8.51799 21.0662 8.74336 21.6384 8.93685 22.2229C9.49469 21.774 10.1685 21.1552 10.5271 20.7036C10.5474 20.3301 10.6465 19.9511 10.8386 19.5887C10.5491 19.4966 10.2792 19.3625 10.0385 19.1911C9.50635 19.7014 8.91906 20.1358 8.27933 20.4994ZM8.15665 20.2115C8.75157 19.8718 9.29623 19.4652 9.79445 18.9944C9.4762 18.7051 9.12931 18.1812 9.01922 17.6085C8.52607 17.9906 8.01283 18.3425 7.47787 18.6643C7.70371 19.1802 7.9344 19.6941 8.15665 20.2115ZM7.35312 18.3777C7.91892 18.0372 8.45896 17.659 8.9759 17.2478C8.94806 16.616 9.165 16.0198 9.51478 15.4664C9.42468 15.4244 9.34001 15.3777 9.25869 15.3284C8.46173 15.9393 7.69643 16.5319 6.73579 16.8538C6.92605 17.3677 7.13548 17.8743 7.35312 18.3777ZM6.63032 16.5611C7.52454 16.2563 8.24803 15.7098 8.99069 15.1407C8.59827 14.8247 8.33917 14.4135 8.20702 13.9644C7.57837 14.4 6.89301 14.7236 6.15751 14.9358C6.28585 15.4861 6.44376 16.0293 6.63032 16.5611ZM6.09063 14.6322C6.82705 14.4207 7.51206 14.0849 8.13355 13.6351C8.04957 13.0875 8.1421 12.5062 8.40132 11.9838C7.60644 12.4753 6.75462 12.8477 5.84896 13.0982C5.90222 13.6131 5.98331 14.1255 6.09063 14.6322ZM5.81997 12.7834C6.83618 12.4996 8.31364 11.8213 8.90797 11.262C8.62738 10.973 8.44244 10.6199 8.34183 10.2395C7.61961 10.6054 6.61796 10.871 5.79721 10.9703C5.76406 11.5742 5.77122 12.1802 5.81997 12.7834ZM6.10795 8.81761C6.04812 9.06685 5.85509 10.03 5.8172 10.655C6.63483 10.5578 7.55538 10.2963 8.27794 9.9216C8.21395 9.46109 8.26524 8.97688 8.41321 8.52588C7.7416 8.70489 6.82659 8.80809 6.10795 8.81761ZM6.18096 8.51555C6.93171 8.50301 7.85573 8.37404 8.55657 8.16311C8.79973 7.64501 9.18013 7.19946 9.67316 6.93084C9.637 6.85271 9.5871 6.81034 9.56388 6.72826C8.38826 7.06817 7.56948 6.99863 6.67295 7.05494C6.479 7.53043 6.31323 8.01788 6.18096 8.51555ZM7.60182 5.22737C7.27849 5.74059 7.05289 6.17882 6.80788 6.73419C7.69585 6.67486 8.54178 6.72281 9.52622 6.37629C9.48937 5.9896 9.57185 5.58167 9.73611 5.19974C9.35375 5.25941 8.44094 5.35727 7.60182 5.22737ZM7.79127 4.91695C8.73828 5.06775 9.55221 4.92206 9.91055 4.85391C10.0454 4.62383 10.3578 4.14148 10.8092 3.88772C10.0165 3.95087 9.1315 3.78103 8.72303 3.68886C8.40316 4.06452 8.06124 4.51285 7.79127 4.91695ZM8.95153 3.42929C9.36219 3.51276 10.975 3.76745 11.8269 3.44403C11.8519 3.16298 11.922 2.90794 12.0268 2.67867C11.055 2.52671 10.3942 2.07954 10.3869 2.0728C9.88883 2.45763 9.40782 2.90863 8.95153 3.42929ZM10.6531 1.87476C11.2927 2.27538 12.1783 2.38415 12.1872 2.38659C12.3818 2.08987 12.6432 1.84992 12.9444 1.66824C12.6753 1.4883 12.4137 1.24626 12.2197 0.978562C11.6863 1.21329 11.1615 1.51024 10.6531 1.87476ZM12.5272 0.850171C12.7292 1.11694 12.976 1.33774 13.266 1.50212C13.7342 1.29943 14.2675 1.22234 14.7893 1.27725C14.4354 0.820683 14.318 0.388142 14.3165 0.377228C13.7176 0.462319 13.118 0.618344 12.5272 0.850171ZM15.2816 1.37024C15.6529 1.47345 16.036 1.67601 16.3403 1.93071C16.2572 1.4176 16.3068 0.854462 16.4938 0.376648C15.8828 0.29086 15.2577 0.275418 14.6295 0.339036C14.771 0.728856 14.9883 1.07863 15.2816 1.37024Z" fill="#22366C"/>
<path d="M0.0610808 35.871C-0.15794 35.1227 0.22546 34.3606 0.996881 34.1851C1.60092 34.0476 2.42733 34.3674 2.57404 35.1326C2.69776 35.7774 2.32949 36.4432 1.7035 36.6358C1.04586 36.8381 0.26543 36.5694 0.0610808 35.871ZM1.45052 36.3729C1.95013 36.2964 2.33723 35.8656 2.29865 35.3335C2.2514 34.6809 1.58359 34.3695 1.05799 34.4601C0.768158 34.51 0.341783 34.8457 0.294653 35.3369C0.228693 36.0251 0.807203 36.4715 1.45052 36.3729Z" fill="#22366C"/>
<path d="M16.141 9.35638C15.4154 8.09543 15.4591 6.52546 16.2714 5.3243C16.4955 4.99287 16.5194 5.05753 16.6108 5.18384C17.4936 6.40531 17.2676 7.9502 16.5964 9.22183C16.3848 9.62256 16.2819 9.6012 16.141 9.35638ZM16.4887 5.56414C15.8179 6.62413 15.7701 7.94638 16.3332 9.05652C16.908 7.96843 17.1469 6.64898 16.4887 5.56414Z" fill="#22366C"/>
</svg>
