<svg width="20" height="30" viewBox="0 0 26 39" fill="none" xmlns="http://www.w3.org/2000/svg">
<path d="M5.72203 34.175C4.82793 32.8076 4.53186 30.9627 4.35027 29.3023C4.24307 28.3219 4.28246 27.3568 4.40271 26.3754C4.78808 23.2307 6.24937 20.8758 6.88945 19.7554C8.02279 17.7716 9.3711 15.9143 10.9134 14.2195C11.0921 14.0266 11.1843 13.8948 11.2433 14.3167C11.5123 16.1724 12.034 17.9811 12.8208 19.6835C13.3317 20.7888 13.8721 21.8593 14.3591 22.9588C15.026 24.4646 15.3072 25.8047 15.3632 26.1248C15.8158 28.7109 15.323 31.425 13.9889 33.6947C13.2449 35.1107 11.5359 36.1159 9.89786 36.1228C8.09302 36.1305 6.45199 35.2913 5.72203 34.175ZM8.01204 29.6563C8.26722 28.9233 8.63087 28.2281 9.07376 27.6196C8.66333 27.1719 8.46129 26.6799 8.40261 26.1675C7.22687 26.8186 6.89765 28.8157 8.01204 29.6563ZM7.06977 28.6952C6.43131 29.8385 6.39226 31.3816 7.6075 32.1346C7.58891 31.4118 7.69761 30.6749 7.91166 29.9662C7.4467 29.6616 7.17616 29.2023 7.06977 28.6952ZM9.2676 27.3663C9.36625 27.2426 9.46606 27.1209 9.5728 27.0076C9.7969 26.7695 9.87164 26.8917 9.9934 27.0264C10.1154 27.1616 10.2284 27.3025 10.3359 27.446C11.8945 25.9605 10.8279 23.6684 10.1852 21.9762C9.33194 23.5323 7.87955 25.7618 9.2676 27.3663ZM10.5177 27.7024C10.9533 28.3477 11.2573 29.0561 11.4294 29.7909C11.8917 29.3225 12.1521 28.7617 12.1808 28.099C12.2114 27.3943 11.988 26.8886 11.3339 26.3523C11.2055 26.8391 10.9508 27.2966 10.5177 27.7024ZM11.5053 30.1659C11.6375 30.9396 11.6251 31.7354 11.4659 32.5125C12.585 31.9709 13.2032 30.0372 12.2723 29.0956C12.0993 29.4828 11.8128 29.8547 11.5053 30.1659ZM11.3698 32.9117C11.2524 33.3419 10.7918 34.7138 9.73071 35.4809C10.2011 35.3753 10.6615 35.1077 11.0601 34.8728C12.5234 34.0105 12.5822 32.4774 12.4874 32.019C12.2332 32.3822 11.8657 32.7096 11.3698 32.9117ZM11.033 32.9833C11.6275 31.0143 11.1804 28.8462 9.77403 27.2492C8.36044 28.8293 7.52098 31.2933 8.0981 33.3726C8.17273 33.6414 8.62359 34.7892 9.24958 35.4926C10.3404 34.8382 10.9417 33.2861 11.033 32.9833ZM7.63246 32.5277C7.35579 32.3767 7.01987 32.1058 6.87201 31.9383C6.77705 32.4889 6.78237 33.0788 6.99191 33.6052C7.08756 33.8454 7.53392 34.9247 8.93156 35.5799C7.91339 34.3852 7.69726 33.2247 7.63246 32.5277ZM8.29079 35.5532C7.64713 35.1673 7.32287 34.8108 6.90158 34.1614C6.68868 34.1315 6.04005 34.0437 5.98818 34.0367C6.73997 34.9437 7.44266 35.2919 8.29079 35.5532ZM5.85141 33.821C6.24683 33.8783 6.51852 33.9024 6.81436 33.96C6.79727 33.9288 6.62896 33.5853 6.52904 33.0831C6.52176 33.0821 5.72631 32.8176 5.33586 32.6862C5.46836 33.066 5.67329 33.4997 5.85141 33.821ZM5.26158 32.4649C5.28122 32.4582 6.50813 32.8611 6.50813 32.8611C6.49103 32.5487 6.5228 32.2074 6.60505 31.8133C6.03751 31.5783 5.47448 31.3332 4.91526 31.0789C5.0034 31.5455 5.11464 32.0073 5.26158 32.4649ZM4.87079 30.8312C5.45958 31.1006 6.05311 31.3588 6.65125 31.6068C6.65137 31.6062 6.65148 31.6056 6.6516 31.605C6.43847 31.2398 6.33809 30.8232 6.32769 30.3934C6.06477 30.1787 4.92243 29.5612 4.67164 29.3789C4.72651 29.8684 4.78843 30.3522 4.87079 30.8312ZM4.64229 29.0974C4.95835 29.3365 6.11213 29.985 6.3315 30.1361C6.3486 29.8364 6.42969 29.3753 6.56023 29.0726C5.90039 28.4948 5.25384 27.9027 4.61942 27.2968C4.58072 27.8832 4.58431 28.4854 4.64229 29.0974ZM4.63999 27.0312C5.29462 27.6593 5.96277 28.2724 6.64467 28.8706C6.7506 28.6348 6.88645 28.3828 7.01825 28.1959C7.01802 28.1512 7.01998 28.1063 7.02195 28.0615C6.30135 27.0869 5.6168 26.0873 4.96632 25.0642C4.81546 25.6892 4.70017 26.3486 4.63999 27.0312ZM5.0354 24.789C5.67363 25.8002 6.34675 26.7875 7.05325 27.7515C7.10523 27.4192 7.21498 27.0931 7.37797 26.8005C6.76019 25.5505 6.17324 24.2861 5.6161 23.0076C5.40263 23.5553 5.20186 24.1533 5.0354 24.789ZM5.72388 22.7373C6.28668 24.0371 6.88183 25.3219 7.50724 26.5923C7.59191 26.4687 7.79591 26.1615 8.12479 25.9721C7.57793 24.2919 7.06943 22.5997 6.59777 20.8965C6.32723 21.3954 6.01764 22.0192 5.72388 22.7373ZM6.73974 20.6398C7.22098 22.3909 7.74312 24.1302 8.30465 25.8571C8.33168 25.8415 8.35871 25.8267 8.38551 25.8128C8.38886 25.2996 8.51408 24.7729 8.70376 24.2539C8.33942 22.5341 7.99968 20.8092 7.68398 19.0798C7.38213 19.4966 6.85006 20.4436 6.73974 20.6398ZM7.84697 18.8214C8.15494 20.5196 8.48728 22.213 8.84215 23.9019C8.99117 23.5475 9.16467 23.1989 9.34523 22.8632C9.20591 21.0183 9.0361 19.1762 8.83672 17.3371C8.49571 17.8241 8.16718 18.32 7.84697 18.8214ZM9.01439 17.0864C9.01647 17.0929 9.38647 20.7217 9.52636 22.5337C9.69224 22.2375 10.0443 21.6327 10.0599 21.6099C10.212 19.2994 10.4877 17.0009 10.8833 14.7202C10.2159 15.4757 9.59775 16.2686 9.01439 17.0864ZM11.0436 15.0089C10.6807 17.1531 10.4247 19.3128 10.2771 21.4831C10.3858 21.6698 10.5044 21.9428 10.5531 22.0703C10.971 20.8502 11.9915 18.4731 11.9944 18.4686C11.5815 17.3433 11.2559 16.1887 11.0436 15.0089ZM12.0966 18.7385C11.5731 19.8969 10.6732 22.3262 10.6543 22.3364C10.7918 22.6982 10.9327 23.0755 11.0564 23.4594C11.596 22.3993 12.1695 21.3582 12.7789 20.337C12.6585 20.086 12.2131 19.0442 12.0966 18.7385ZM12.887 20.561C12.2698 21.6007 11.6878 22.6599 11.1438 23.7403C11.1438 23.7403 11.1434 23.7408 11.1431 23.741C11.2516 24.1082 11.3395 24.4792 11.3902 24.8468C12.104 23.8651 13.5346 21.8999 13.5357 21.8983C13.3072 21.4174 13.0835 20.9656 12.887 20.561ZM14.28 23.5801C14.077 23.0743 13.8562 22.5799 13.6365 22.1113C12.8989 23.1255 12.1612 24.1398 11.4235 25.1542C11.4465 25.4508 11.4415 25.7437 11.3984 26.0287C11.5059 26.0958 11.6014 26.1651 11.6879 26.2362C12.5327 25.3396 14.2754 23.5835 14.28 23.5801ZM14.3616 23.7861C13.5071 24.6347 12.6672 25.4974 11.8414 26.3742C12.0833 26.6126 12.2327 26.8717 12.3342 27.1496C13.1544 26.4362 13.9685 25.7159 14.7763 24.9884C14.6566 24.586 14.5158 24.1831 14.3616 23.7861ZM14.84 25.2099C14.0363 25.9331 12.405 27.3617 12.4023 27.3637C12.5523 27.7768 12.4909 28.2868 12.4375 28.5662C13.3554 28.0133 14.294 27.4312 15.1787 26.8259C15.0872 26.0375 14.91 25.4631 14.84 25.2099ZM15.1771 27.0825C14.2798 27.6911 13.3546 28.2556 12.426 28.8145C12.6907 29.0637 12.86 29.3762 12.9492 29.7165C13.5273 29.3565 14.5519 28.8239 15.2095 28.3858C15.224 27.9514 15.2149 27.5161 15.1771 27.0825ZM15.1978 28.6479C14.509 29.0855 13.7665 29.4632 12.9942 29.9257C13.0437 30.2303 13.0322 30.5508 12.9712 30.8653C13.6298 30.5673 14.3085 30.3254 15.008 30.142C15.105 29.6491 15.1689 29.1497 15.1978 28.6479ZM14.9591 30.371C14.2546 30.5613 13.5715 30.8108 12.9099 31.1203C12.8582 31.301 12.7918 31.478 12.7082 31.6458C12.7447 31.7589 12.7734 31.8729 12.7949 31.9871C13.3971 31.7996 14.0326 31.7221 14.6298 31.5521C14.7612 31.1646 14.8717 30.7704 14.9591 30.371ZM14.542 31.8008C13.9731 31.9099 13.3854 32.0088 12.8252 32.1935C12.8655 32.5604 12.8301 32.9263 12.725 33.2707C13.1493 33.1947 14.0165 32.9692 14.0307 32.9726C14.224 32.5918 14.3954 32.2007 14.542 31.8008ZM13.0755 34.4288C13.0871 34.4285 13.5983 33.9116 13.9069 33.2105C13.4911 33.3292 13.0705 33.4253 12.6441 33.4973C12.5983 33.6095 12.4271 34.0844 12.0086 34.4942C12.337 34.4543 12.7436 34.4342 13.0755 34.4288ZM12.8353 34.6442C12.4881 34.6571 12.106 34.6859 11.7622 34.7388C11.6216 34.8642 11.4705 34.9802 11.3084 35.0852C10.8981 35.3512 10.4157 35.6277 9.92039 35.76C10.9531 35.7148 11.78 35.5368 12.8353 34.6442Z" fill="#22366C"/>
<path d="M8.30348 38.6914C6.72321 38.2764 5.55949 37.7325 4.40259 36.7317C3.72658 36.1469 3.32689 35.707 3.05866 35.3319C1.13288 32.8277 0.512665 29.7442 0.279782 28.4037C0.0313047 26.9733 -0.0516366 25.4581 0.0308426 23.9564C0.0918356 22.8457 0.237271 20.3758 1.24481 17.2852C1.99671 14.9788 2.66879 13.7402 3.22073 12.6493C3.58981 11.9198 4.33917 10.7421 5.38552 9.37869C6.73372 7.66593 8.29066 6.11755 9.96947 4.73228C10.8151 4.03436 13.6522 1.78807 17.3953 0.586445C18.2187 0.322113 19.0584 0.0902863 19.9243 0.0220268C20.6096 -0.0321861 21.3846 0.0162227 22.0992 0.139159C22.2424 0.149027 22.5598 0.228198 22.7117 0.265926C23.4411 0.447023 22.807 0.457007 22.5789 0.518185C22.2472 0.606992 21.5973 0.903944 21.3498 1.03977C20.0522 1.75208 19.0393 2.62088 18.2544 3.88937C17.5496 5.02865 17.0412 6.5018 16.7742 7.80605C16.2603 10.3161 16.4426 13.0055 17.0211 15.5068C17.3396 16.8843 18.0115 18.4255 18.051 18.5191C18.6227 19.8792 19.2685 21.2137 19.7465 22.5983C20.0824 23.5713 20.3091 24.582 20.4332 25.604C20.5962 26.9429 20.5741 28.3075 20.3279 29.6348C19.8838 32.03 18.7156 34.2265 17.0749 36.0037C14.3708 38.933 11.1518 39.4393 8.30348 38.6914ZM9.19019 38.5723C9.36728 38.1481 9.42689 37.7084 9.36717 37.2543C8.90383 37.5022 8.44846 37.6126 8.0058 37.6197C7.94977 37.8357 7.851 38.0353 7.71862 38.2139C8.34877 38.4244 9.03332 38.5436 9.19019 38.5723ZM5.56504 37.1966C6.24416 37.6378 6.88736 37.9245 7.41885 38.1136C7.53195 37.9972 7.63152 37.7705 7.68558 37.6067C7.46575 37.5858 6.56564 37.4752 5.91401 36.8604C5.80289 36.9778 5.68621 37.0897 5.56504 37.1966ZM3.78746 35.6841C4.28545 36.2277 4.79846 36.665 5.29784 37.0155C5.436 36.8982 5.56792 36.7744 5.69234 36.6428C5.41706 36.3356 5.21849 35.9607 5.13982 35.5235C5.12607 35.5263 5.00154 35.4944 4.82423 35.4165C4.48357 35.5279 4.1384 35.6176 3.78746 35.6841ZM7.1929 37.0897C7.99436 37.3058 8.65269 37.2406 9.40205 36.7545C9.59866 36.627 9.7225 36.5665 9.823 36.6617C11.0731 37.8451 13.5402 37.4198 13.7568 35.5553C13.7984 35.3455 13.7354 35.2176 13.9243 35.185C14.3816 35.1059 14.7374 34.9366 15.1052 34.6646C15.1036 34.6634 15.1021 34.662 15.1005 34.6607C15.8011 34.0759 16.3191 32.9117 15.8808 32.1078C15.7712 31.9068 15.8979 31.8121 15.9832 31.775C17.3144 31.1942 17.8708 28.9647 16.7221 27.9557C16.5154 27.774 16.5654 27.6678 16.7032 27.5398C17.5557 26.7477 17.7387 25.4582 17.1327 24.5859C16.9306 24.2951 16.7722 24.1505 16.1583 23.7963C15.8837 23.6663 15.9319 23.611 16.0297 23.4703C16.4836 22.818 16.7532 22.1142 16.539 21.3191C16.3258 20.5279 15.69 19.9283 14.8974 19.7632C14.6514 19.7119 14.5146 19.6822 14.7401 19.3174C15.5785 17.961 14.7657 16.2298 13.1988 15.9826C13.0593 15.9606 12.8841 15.9084 13.0326 15.5835C13.3135 14.9689 13.521 14.3686 13.3864 13.6836C13.2755 13.1194 12.9988 12.5998 12.7289 12.0986C12.3588 11.4114 11.9876 10.7088 11.9036 9.94252C11.474 10.536 10.8569 10.9521 10.2546 11.3965C9.27533 12.119 8.62266 13.0633 8.67637 14.3183C8.69278 14.6365 8.84757 14.709 8.61318 14.7193C7.18505 14.7821 6.16064 15.9609 6.32618 17.4039C6.33923 17.5181 6.48721 17.8022 6.20927 17.8027C5.56596 17.8039 4.94459 18.328 4.63824 18.857C4.29712 19.4459 4.2151 20.2546 4.56489 20.8415C4.68514 21.0477 4.63986 21.1384 4.4384 21.1788C2.84149 21.4987 2.26933 23.3847 3.35935 24.5737C3.50386 24.7314 3.29813 24.7682 3.15604 24.9006C2.10888 25.8005 1.9095 27.4115 3.03151 28.3584C3.22755 28.5211 3.3173 28.5803 3.15593 28.7395C2.20499 29.678 2.48096 31.2084 3.63648 31.7938C3.87999 31.9118 3.98291 31.9393 3.87548 32.1252C3.49867 32.7771 3.53598 33.5461 3.89882 34.1214C4.22908 34.6449 4.63512 34.9217 5.29415 35.2045C5.44317 35.2684 5.51987 35.2826 5.5402 35.4121C5.67778 36.2912 6.39976 36.876 7.1929 37.0897ZM3.54372 35.4082C3.84591 35.359 4.14406 35.2935 4.43817 35.2091C3.66697 34.771 3.38696 34.083 3.27768 33.6403C2.91692 33.6301 2.53872 33.5451 2.20707 33.4132C2.61692 34.1941 3.07114 34.8518 3.54372 35.4082ZM2.0078 32.9995C2.35897 33.147 2.88273 33.2973 3.22258 33.3125C3.1855 32.926 3.24534 32.525 3.4103 32.1432C3.26994 32.0684 3.14218 31.9815 3.02505 31.8863C2.47414 31.8292 1.93918 31.71 1.41682 31.5289C1.58628 32.0153 1.78312 32.513 2.0078 32.9995ZM1.28836 31.147C1.72328 31.3299 2.25917 31.4585 2.66787 31.5244C2.32259 31.0859 2.15439 30.5424 2.18108 29.9958C1.69833 29.8774 1.24366 29.696 0.813586 29.4481C0.9328 29.9535 1.08967 30.536 1.28836 31.147ZM0.7184 29.0251C1.15043 29.3193 1.7346 29.5655 2.21654 29.6855C2.28574 29.3129 2.44769 28.9481 2.7076 28.625C2.60168 28.5287 2.50926 28.4258 2.42413 28.3195C1.88189 28.1639 0.828026 27.7578 0.453289 27.4093C0.46923 27.8597 0.645162 28.6835 0.7184 29.0251ZM0.409276 26.9838C1.06507 27.5532 1.79086 27.7616 2.12794 27.8603C1.86768 27.3346 1.8068 26.7457 1.92636 26.1824C1.35363 25.952 0.818438 25.6581 0.316632 25.2981C0.323563 25.8647 0.356369 26.4278 0.409276 26.9838ZM0.315245 24.9136C0.323447 24.9179 0.983281 25.4551 2.00953 25.8793C2.30688 25.012 2.884 24.5956 2.8691 24.5739C1.98609 24.1462 1.13877 23.6585 0.424409 22.8821C0.359604 23.5581 0.315939 24.7989 0.315245 24.9136ZM0.464609 22.4932C0.472464 22.4989 1.15159 23.3842 2.55096 24.0641C2.32189 23.4862 2.33391 22.8613 2.54369 22.3094C1.8418 21.8555 1.23592 21.2961 0.731799 20.6348C0.61351 21.2973 0.527335 21.9237 0.464609 22.4932ZM0.810467 20.2127C1.31909 20.9351 1.93838 21.536 2.6741 22.0213C2.92836 21.5458 3.34029 21.1488 3.87768 20.9214C2.78223 20.1999 1.91319 19.2026 1.34196 18.0182C1.12271 18.7654 0.948394 19.5057 0.810467 20.2127ZM1.4874 17.5877C2.03229 18.8604 2.91842 19.9151 4.0625 20.6697C3.83078 20.0421 3.92735 19.3658 4.22712 18.7577C3.36582 17.7414 2.71835 16.5847 2.29521 15.3243C1.96252 16.0266 1.48486 17.5818 1.4874 17.5877ZM2.47761 14.878C2.86656 16.1992 3.51588 17.411 4.39011 18.468C4.63628 18.0849 4.99426 17.7463 5.47204 17.5415C4.5069 15.9137 3.93486 14.099 3.80825 12.2112C3.25793 13.1438 2.84495 13.999 2.47761 14.878ZM4.09416 11.7404C4.15838 13.7557 4.72742 15.712 5.76823 17.4361C5.8149 17.4229 5.86249 17.4108 5.91112 17.4001C5.85186 16.6763 6.05506 15.9975 6.44216 15.4599C5.70285 13.7228 5.3139 11.8725 5.28652 9.98768C4.81013 10.5827 4.30844 11.3962 4.09416 11.7404ZM5.59588 9.5801C5.56688 11.5077 5.93134 13.4065 6.66464 15.1852C6.98289 14.8439 7.38697 14.5824 7.85089 14.4358C7.15848 12.2167 6.97192 9.88216 7.31373 7.58212C6.70889 8.21886 6.13488 8.88485 5.59588 9.5801ZM7.67738 7.2075C7.25886 9.54864 7.44716 12.126 8.15077 14.3591C8.18843 14.3516 8.22609 14.3444 8.26432 14.3384C8.23233 13.4145 8.51684 12.5284 9.12816 11.8324C8.9319 9.56988 9.19851 7.30722 9.91645 5.15867C9.13567 5.80423 8.38746 6.48741 7.67738 7.2075ZM10.3643 4.79822C9.55326 7.00493 9.25812 9.3081 9.41718 11.5362C9.76466 11.21 10.1187 10.9675 10.5039 10.6712C10.8871 7.50828 12.0183 4.80356 13.8079 2.48134C12.3254 3.31915 11.0873 4.2302 10.3643 4.79822ZM21.3232 0.33082C19.4273 0.161216 18.0949 0.703346 17.3791 0.914858C16.3949 1.20577 15.4255 1.62705 14.5227 2.095C12.5158 4.48188 11.2458 7.40497 10.8526 10.3918C11.1372 10.1526 11.4412 9.86521 11.7723 9.48293C12.0777 8.74508 12.5054 7.80222 12.8939 7.13599C14.7763 3.90759 17.6909 1.34519 21.3232 0.33082ZM17.9375 3.82239C18.8277 2.3872 20.0653 1.33614 21.5161 0.601536C17.1759 1.76636 13.8745 5.19988 12.1572 9.31809C12.197 9.83979 12.3628 10.3441 12.5739 10.8284C13.5868 8.87823 15.1271 6.90126 16.9986 5.81851C17.2491 5.11839 17.5601 4.43068 17.9375 3.82239ZM16.8423 6.27926C15.0601 7.4247 13.5895 9.40225 12.7389 11.185C12.9528 11.628 13.1886 12.0533 13.3827 12.458C14.1158 11.209 15.0732 10.1299 16.2231 9.25273C16.2954 8.10683 16.6436 6.90265 16.8423 6.27926ZM16.1856 9.67889C15.1282 10.5313 14.1046 11.723 13.5324 12.7921C13.7826 13.4011 13.8547 13.9612 13.7776 14.531C14.5401 13.3929 16.1693 12.0388 16.1807 12.0327C16.1302 11.2473 16.1281 10.4599 16.1856 9.67889ZM16.2098 12.4227C15.6854 12.8526 13.9076 14.4739 13.4694 15.6148C13.8984 15.7192 14.2713 15.9175 14.5761 16.1803C15.1366 15.4968 15.7655 14.8839 16.465 14.3441C16.3514 13.7092 16.2645 13.0673 16.2098 12.4227ZM16.5299 14.6904C15.8918 15.1973 15.3161 15.7645 14.7997 16.3983C15.1677 16.8025 15.3984 17.3144 15.4605 17.8589C15.9223 17.3516 16.4214 16.8849 16.9606 16.4592C16.8705 16.1668 16.5874 14.9858 16.5299 14.6904ZM17.7207 18.5006C17.482 17.9338 17.2566 17.3616 17.0631 16.7771C16.5053 17.226 15.8315 17.8448 15.4729 18.2964C15.4526 18.6699 15.3535 19.0489 15.1614 19.4113C15.4509 19.5034 15.7208 19.6375 15.9615 19.8089C16.4936 19.2986 17.0809 18.8642 17.7207 18.5006ZM17.8433 18.7885C17.2484 19.1282 16.7038 19.5348 16.2055 20.0056C16.5238 20.2949 16.8707 20.8188 16.9808 21.3915C17.4739 21.0094 17.9872 20.6575 18.5221 20.3357C18.2963 19.8198 18.0656 19.3059 17.8433 18.7885ZM18.6469 20.6223C18.0811 20.9628 17.541 21.341 17.0241 21.7522C17.0519 22.384 16.835 22.9802 16.4852 23.5336C16.5753 23.5756 16.66 23.6223 16.7413 23.6716C17.5383 23.0607 18.3036 22.4681 19.2642 22.1462C19.074 21.6323 18.8645 21.1257 18.6469 20.6223ZM19.3697 22.4389C18.4755 22.7437 17.752 23.2902 17.0093 23.8593C17.4017 24.1753 17.6608 24.5865 17.793 25.0356C18.4216 24.6 19.107 24.2764 19.8425 24.0642C19.7141 23.5139 19.5562 22.9707 19.3697 22.4389ZM19.9094 24.3678C19.173 24.5793 18.4879 24.9151 17.8665 25.3649C17.9504 25.9125 17.8579 26.4938 17.5987 27.0162C18.3936 26.5247 19.2454 26.1523 20.151 25.9018C20.0978 25.3869 20.0167 24.8745 19.9094 24.3678ZM20.18 26.2166C19.1638 26.5004 17.6864 27.1787 17.092 27.738C17.3726 28.027 17.5576 28.3801 17.6582 28.7605C18.3804 28.3946 19.382 28.129 20.2028 28.0297C20.2359 27.4258 20.2288 26.8198 20.18 26.2166ZM19.892 30.1824C19.9519 29.9332 20.1449 28.97 20.1828 28.345C19.3652 28.4422 18.4446 28.7037 17.7221 29.0784C17.7861 29.5389 17.7348 30.0231 17.5868 30.4741C18.2584 30.2951 19.1734 30.1919 19.892 30.1824ZM19.819 30.4845C19.0683 30.497 18.1443 30.626 17.4434 30.8369C17.2003 31.355 16.8199 31.8005 16.3268 32.0692C16.363 32.1473 16.4129 32.1897 16.4361 32.2717C17.6117 31.9318 18.4305 32.0014 19.327 31.9451C19.521 31.4696 19.6868 30.9821 19.819 30.4845ZM18.3982 33.7726C18.7215 33.2594 18.9471 32.8212 19.1921 32.2658C18.3041 32.3251 17.4582 32.2772 16.4738 32.6237C16.5106 33.0104 16.4281 33.4183 16.2639 33.8003C16.6462 33.7406 17.5591 33.6427 18.3982 33.7726ZM18.2087 34.083C17.2617 33.9323 16.4478 34.0779 16.0895 34.1461C15.9546 34.3762 15.6422 34.8585 15.1908 35.1123C15.9835 35.0491 16.8685 35.219 17.277 35.3111C17.5968 34.9355 17.9388 34.4871 18.2087 34.083ZM17.0485 35.5707C16.6378 35.4872 15.025 35.2326 14.1731 35.556C14.1481 35.837 14.078 36.0921 13.9732 36.3213C14.945 36.4733 15.6058 36.9205 15.6131 36.9272C16.1112 36.5424 16.5922 36.0914 17.0485 35.5707ZM15.3469 37.1252C14.7073 36.7246 13.8217 36.6159 13.8128 36.6134C13.6182 36.9101 13.3568 37.1501 13.0556 37.3318C13.3247 37.5117 13.5863 37.7537 13.7803 38.0214C14.3137 37.7867 14.8385 37.4898 15.3469 37.1252ZM13.4728 38.1498C13.2708 37.8831 13.024 37.6623 12.734 37.4979C12.2658 37.7006 11.7325 37.7777 11.2107 37.7227C11.5646 38.1793 11.682 38.6119 11.6835 38.6228C12.2824 38.5377 12.882 38.3817 13.4728 38.1498ZM10.7184 37.6298C10.3471 37.5266 9.96404 37.324 9.65966 37.0693C9.74283 37.5824 9.69315 38.1455 9.50625 38.6234C10.1172 38.7091 10.7423 38.7246 11.3705 38.661C11.229 38.2711 11.0117 37.9214 10.7184 37.6298Z" fill="#22366C"/>
<path d="M25.9389 3.12899C26.1579 3.87729 25.7745 4.63941 25.0031 4.81493C24.3991 4.95238 23.5727 4.63256 23.426 3.86742C23.3022 3.22256 23.6705 2.5568 24.2965 2.36421C24.9541 2.16187 25.7346 2.43061 25.9389 3.12899ZM24.5495 2.62715C24.0499 2.70365 23.6628 3.13445 23.7014 3.66648C23.7486 4.31912 24.4164 4.63047 24.942 4.53992C25.2318 4.49 25.6582 4.15428 25.7053 3.66311C25.7713 2.97494 25.1928 2.52847 24.5495 2.62715Z" fill="#22366C"/>
<path d="M9.85902 29.6436C10.5846 30.9046 10.5409 32.4745 9.7286 33.6757C9.5045 34.0071 9.48058 33.9425 9.38921 33.8162C8.50643 32.5947 8.73238 31.0498 9.40365 29.7782C9.61516 29.3774 9.71809 29.3988 9.85902 29.6436ZM9.51131 33.4359C10.1821 32.3759 10.2299 31.0536 9.6668 29.9435C9.09198 31.0316 8.8531 32.351 9.51131 33.4359Z" fill="#22366C"/>
</svg>
