<svg width="1682" height="358" viewBox="0 0 1682 358" fill="none" xmlns="http://www.w3.org/2000/svg">
<path d="M907.695 353.431C904.871 353.431 902.592 351.17 902.389 348.172L902.142 343.51C902.116 343.05 902.469 342.661 902.923 342.635C903.423 342.635 903.773 342.963 903.797 343.417L904.045 348.07C904.19 350.209 905.725 351.772 907.695 351.772C909.742 351.772 911.345 350.164 911.345 348.114V343.219C911.345 342.761 911.715 342.39 912.174 342.39C912.631 342.39 913 342.761 913 343.219V348.114C913 351.048 910.62 353.431 907.695 353.431Z" fill="#23366C"/>
<path d="M773.558 344.294C771.044 344.294 769 342.211 769 339.645V319.047C769 318.588 769.37 318.217 769.827 318.217C770.286 318.217 770.655 318.588 770.655 319.047V339.645C770.655 341.293 771.958 342.635 773.558 342.635C775.159 342.635 776.46 341.293 776.46 339.645L776.544 336.224C776.555 335.764 776.856 335.428 777.39 335.415C777.848 335.424 778.208 335.804 778.197 336.263L778.115 339.665C778.115 342.211 776.071 344.294 773.558 344.294Z" fill="#23366C"/>
<path d="M777.288 340.059H777.263C776.805 340.044 776.446 339.662 776.46 339.205L776.956 323.758C776.961 323.519 777.069 323.305 777.237 323.159C777.106 323.005 777.033 322.805 777.04 322.589L777.62 306.812C777.626 306.619 777.7 306.439 777.82 306.302C777.691 306.153 777.618 305.96 777.62 305.749L777.703 300.187C777.709 299.73 778.078 299.368 778.531 299.368H778.542C779 299.373 779.366 299.75 779.358 300.21L779.276 305.772C779.272 305.975 779.198 306.159 779.077 306.302C779.207 306.456 779.284 306.656 779.276 306.874L778.695 322.653C778.687 322.89 778.579 323.099 778.414 323.245C778.542 323.395 778.619 323.596 778.61 323.809L778.115 339.255C778.101 339.705 777.734 340.059 777.288 340.059ZM786.158 351.852C785.712 351.852 785.346 351.498 785.332 351.048L784.5 323.809C784.492 323.593 784.569 323.395 784.697 323.245C784.532 323.097 784.424 322.883 784.418 322.643L784.003 306.866C783.997 306.65 784.072 306.453 784.203 306.302C784.083 306.162 784.01 305.983 784.003 305.786L783.839 300.224C783.825 299.764 784.182 299.379 784.64 299.368C785.118 299.406 785.482 299.713 785.494 300.173L785.658 305.735C785.667 305.951 785.59 306.15 785.459 306.302C785.579 306.441 785.653 306.624 785.658 306.82L786.073 322.597C786.079 322.811 786.005 323.008 785.877 323.159C786.042 323.307 786.15 323.519 786.155 323.758L786.987 350.997C787 351.455 786.642 351.838 786.184 351.852H786.158Z" fill="#23366C"/>
<path d="M778.531 299.864C778.169 299.864 777.837 299.628 777.734 299.263C777.348 297.897 777.684 295.914 779.904 294.803C780.314 294.597 780.811 294.766 781.015 295.176C781.22 295.586 781.052 296.086 780.643 296.29C778.994 297.114 779.219 298.425 779.327 298.807C779.452 299.249 779.198 299.707 778.758 299.833C778.681 299.856 778.605 299.864 778.531 299.864Z" fill="#23366C"/>
<path d="M780.188 296.375C779.841 296.375 779.517 296.157 779.403 295.809C779.259 295.375 779.488 294.908 779.92 294.761C779.951 294.749 780.487 294.549 780.893 294.085C781.191 293.738 781.719 293.701 782.062 294.007C782.406 294.309 782.44 294.834 782.139 295.179C781.43 295.988 780.55 296.302 780.449 296.333C780.365 296.364 780.277 296.375 780.188 296.375Z" fill="#23366C"/>
<path d="M782.923 296.375C782.798 296.375 782.673 296.35 782.554 296.29C782.366 296.197 781.41 295.706 780.927 295.216C780.606 294.891 780.606 294.366 780.933 294.042C781.253 293.723 781.784 293.721 782.105 294.048C782.321 294.264 782.931 294.62 783.293 294.803C783.702 295.008 783.87 295.51 783.665 295.918C783.517 296.207 783.228 296.375 782.923 296.375Z" fill="#23366C"/>
<path d="M780.188 296.375C779.878 296.375 779.579 296.203 779.437 295.9C779.243 295.487 779.42 294.991 779.835 294.795C779.909 294.758 781.657 293.959 783.17 294.826C783.569 295.054 783.706 295.561 783.477 295.96C783.249 296.358 782.747 296.493 782.346 296.268C781.589 295.832 780.552 296.29 780.541 296.299C780.427 296.353 780.308 296.375 780.188 296.375Z" fill="#23366C"/>
<path d="M784.665 299.864C784.609 299.864 784.549 299.86 784.492 299.847C784.046 299.75 783.76 299.308 783.856 298.861C784.214 297.182 782.49 296.299 782.473 296.29C782.065 296.086 781.897 295.586 782.102 295.176C782.306 294.766 782.801 294.597 783.213 294.803C784.214 295.304 785.977 296.872 785.476 299.209C785.394 299.599 785.051 299.864 784.665 299.864Z" fill="#23366C"/>
<path d="M781.516 294.631C781.058 294.631 780.606 294.176 780.606 293.717C780.606 293.258 781.058 292.887 781.516 292.887C781.974 292.887 782.425 293.258 782.425 293.717C782.425 294.176 781.974 294.631 781.516 294.631Z" fill="#23366C"/>
<path d="M781.515 294.962C781.058 294.962 780.521 294.509 780.521 294.051C780.521 293.825 780.612 293.608 780.771 293.453C780.927 293.303 781.3 293.138 781.515 293.138C781.735 293.138 782.11 293.306 782.267 293.464C782.422 293.62 782.508 293.831 782.508 294.051C782.508 294.509 781.974 294.962 781.515 294.962Z" fill="#23366C"/>
<path d="M780.853 294.467C780.853 294.843 781.137 295.129 781.515 295.129C781.891 295.129 782.175 294.843 782.175 294.467L781.515 294.543L781.518 294.467H781.513L781.515 294.543L780.853 294.467ZM781.515 295.378C781.058 295.378 780.521 294.926 780.521 294.467C780.521 293.924 780.976 293.47 781.515 293.47C782.054 293.47 782.508 293.924 782.508 294.467C782.508 294.926 781.974 295.378 781.515 295.378Z" fill="#23366C"/>
<path d="M781.515 294.467C781.058 294.467 780.688 294.096 780.688 293.637V293.303C780.688 292.845 781.058 292.475 781.515 292.475C781.974 292.475 782.343 292.845 782.343 293.303V293.637C782.343 294.096 781.974 294.467 781.515 294.467Z" fill="#23366C"/>
<path d="M823.879 312.985C823.604 312.985 823.333 312.848 823.176 312.594C813.845 297.553 825.275 289.972 832.839 284.96C835.86 282.956 838.467 281.229 839.113 279.621C839.28 279.2 839.757 278.983 840.19 279.163C840.614 279.333 840.819 279.817 840.648 280.243C839.809 282.329 837.003 284.19 833.753 286.344C825.889 291.557 816.103 298.046 824.581 311.718C824.823 312.108 824.706 312.62 824.316 312.858C824.18 312.944 824.029 312.985 823.879 312.985Z" fill="#23366C"/>
<path d="M855.881 312.985C855.731 312.985 855.58 312.944 855.444 312.858C855.053 312.62 854.937 312.108 855.178 311.718C863.658 298.046 853.871 291.557 846.007 286.344C842.757 284.19 839.951 282.329 839.113 280.243C838.942 279.817 839.147 279.333 839.57 279.163C839.996 278.983 840.48 279.195 840.648 279.621C841.292 281.229 843.901 282.956 846.919 284.96C854.485 289.973 865.915 297.553 856.584 312.594C856.427 312.848 856.157 312.985 855.881 312.985Z" fill="#23366C"/>
<path d="M856.046 317.386H824.376C823.919 317.386 823.549 317.014 823.549 316.556C823.549 316.097 823.919 315.728 824.376 315.728H856.046C856.503 315.728 856.873 316.097 856.873 316.556C856.873 317.014 856.503 317.386 856.046 317.386Z" fill="#23366C"/>
<path d="M823.961 357.169C823.503 357.169 823.134 356.799 823.134 356.34V312.322C823.134 311.861 823.503 311.491 823.961 311.491C824.419 311.491 824.788 311.861 824.788 312.322V356.34C824.788 356.799 824.419 357.169 823.961 357.169Z" fill="#23366C"/>
<path d="M858.036 308.666H821.892C821.433 308.666 821.064 308.295 821.064 307.835C821.064 307.376 821.433 307.006 821.892 307.006H858.036C858.493 307.006 858.863 307.376 858.863 307.835C858.863 308.295 858.493 308.666 858.036 308.666Z" fill="#23366C"/>
<path d="M855.881 313.15H855.878L823.958 313.071C823.501 313.071 823.131 312.697 823.134 312.238C823.134 311.783 823.503 311.413 823.961 311.413H823.964L855.884 311.491C856.342 311.491 856.711 311.866 856.708 312.324C856.708 312.78 856.339 313.15 855.881 313.15Z" fill="#23366C"/>
<path d="M856.046 357.169C855.588 357.169 855.218 356.799 855.218 356.34V312.322C855.218 311.861 855.588 311.491 856.046 311.491C856.503 311.491 856.873 311.861 856.873 312.322V356.34C856.873 356.799 856.503 357.169 856.046 357.169Z" fill="#23366C"/>
<path d="M828.852 357.084C828.396 357.084 828.026 356.717 828.024 356.26L827.859 331.598C827.859 323.522 837.847 319.557 839.852 318.845C840.284 318.69 840.753 318.916 840.909 319.351C841.059 319.783 840.835 320.258 840.404 320.411C839.288 320.808 829.513 324.489 829.513 331.592L829.678 356.249C829.681 356.708 829.315 357.081 828.858 357.084H828.852Z" fill="#23366C"/>
<path d="M851.485 357.5H851.482C851.025 357.5 850.656 357.127 850.659 356.669L850.741 331.589C850.821 324.182 840.313 320.565 839.863 320.414C839.431 320.27 839.198 319.8 839.343 319.363C839.491 318.928 839.956 318.684 840.392 318.842C840.884 319.007 852.489 323.005 852.396 331.6L852.314 356.673C852.314 357.133 851.943 357.5 851.485 357.5Z" fill="#23366C"/>
<path d="M851.114 289.844C844.943 285.774 836.818 285.276 829.985 288.889L829.212 287.419C836.564 283.528 845.357 284.05 852.023 288.459L851.114 289.844Z" fill="#23366C"/>
<path d="M839.88 280.761C839.422 280.761 839.052 280.391 839.052 279.933V275.697C839.052 275.238 839.422 274.868 839.88 274.868C840.339 274.868 840.707 275.238 840.707 275.697V279.933C840.707 280.391 840.339 280.761 839.88 280.761Z" fill="#23366C"/>
<path d="M812.274 317.471C811.994 317.471 811.721 317.331 811.564 317.075C808.563 312.151 812.339 309.622 814.593 308.109C815.267 307.659 816.106 307.097 816.227 306.787C816.395 306.356 816.891 306.148 817.3 306.317C817.726 306.485 817.936 306.967 817.768 307.39C817.459 308.188 816.6 308.765 815.514 309.491C812.756 311.337 810.962 312.899 812.98 316.208C813.219 316.599 813.095 317.112 812.705 317.351C812.572 317.434 812.421 317.471 812.274 317.471Z" fill="#23366C"/>
<path d="M821.723 317.471C821.572 317.471 821.422 317.431 821.282 317.345C820.896 317.102 820.78 316.59 821.021 316.199C823.093 312.875 821.282 311.316 818.501 309.469C817.464 308.784 816.571 308.192 816.239 307.419C816.057 306.997 816.247 306.51 816.668 306.328C817.09 306.142 817.579 306.336 817.757 306.758C817.897 307.077 818.738 307.636 819.412 308.083C821.695 309.596 825.516 312.127 822.426 317.084C822.27 317.334 821.999 317.471 821.723 317.471Z" fill="#23366C"/>
<path d="M810.781 317.722C810.38 317.722 810.026 317.431 809.961 317.023C809.89 316.57 810.198 316.146 810.65 316.072C814.593 315.439 818.832 315.439 823.247 316.072C823.703 316.135 824.015 316.556 823.95 317.008C823.888 317.463 823.484 317.771 823.014 317.712C818.764 317.112 814.695 317.102 810.911 317.712C810.869 317.719 810.823 317.722 810.781 317.722Z" fill="#23366C"/>
<path d="M820.02 310.52C819.159 309.944 818.172 309.662 816.999 309.662C816.069 309.662 815.196 309.881 814.408 310.309L813.618 308.85C815.929 307.596 818.903 307.776 820.942 309.14L820.02 310.52Z" fill="#23366C"/>
<path d="M816.999 307.919C816.54 307.919 816.171 307.547 816.171 307.088V305.846C816.171 305.387 816.54 305.017 816.999 305.017C817.456 305.017 817.826 305.387 817.826 305.846V307.088C817.826 307.547 817.456 307.919 816.999 307.919Z" fill="#23366C"/>
<path d="M811.278 324.777C810.82 324.777 810.451 324.407 810.451 323.948V316.807C810.451 316.347 810.82 315.977 811.278 315.977C811.735 315.977 812.106 316.347 812.106 316.807V323.948C812.106 324.407 811.735 324.777 811.278 324.777Z" fill="#23366C"/>
<path d="M807.215 325.524C806.795 325.524 806.433 325.205 806.39 324.777C806.345 324.322 806.678 323.914 807.133 323.869L813.766 323.208L823.714 323.206C824.172 323.206 824.541 323.576 824.541 324.034C824.541 324.494 824.172 324.864 823.714 324.864H813.849L807.297 325.522C807.27 325.524 807.24 325.524 807.215 325.524Z" fill="#23366C"/>
<path d="M807.215 328.516C806.798 328.516 806.438 328.204 806.39 327.781C806.339 327.326 806.669 326.913 807.122 326.86L813.754 326.113L823.714 326.11C824.172 326.11 824.541 326.482 824.541 326.941C824.541 327.4 824.172 327.769 823.714 327.769H813.849L807.309 328.513C807.274 328.516 807.243 328.516 807.215 328.516Z" fill="#23366C"/>
<path d="M807.133 357.169C806.674 357.169 806.305 356.799 806.305 356.34V324.78C806.305 324.322 806.674 323.951 807.133 323.951C807.59 323.951 807.959 324.322 807.959 324.78V356.34C807.959 356.799 807.59 357.169 807.133 357.169Z" fill="#23366C"/>
<path d="M810.781 342.549C810.323 342.549 809.952 342.179 809.952 341.72V334.413C809.952 330.922 814.726 329.474 814.775 329.46C815.207 329.332 815.673 329.583 815.805 330.025C815.932 330.463 815.682 330.925 815.241 331.057C815.204 331.064 811.607 332.224 811.607 334.413V341.72C811.607 342.179 811.238 342.549 810.781 342.549Z" fill="#23366C"/>
<path d="M819.153 342.549H819.145C818.687 342.547 818.32 342.172 818.326 341.711L818.408 334.405C818.408 332.365 815.117 331.173 814.737 331.044C814.305 330.893 814.076 330.423 814.223 329.988C814.374 329.556 814.835 329.332 815.278 329.471C816.401 329.859 820.063 331.356 820.063 334.413L819.98 341.729C819.977 342.185 819.605 342.549 819.153 342.549Z" fill="#23366C"/>
<path d="M823.299 342.549H807.88C807.423 342.549 807.054 342.179 807.054 341.72C807.054 341.261 807.423 340.891 807.88 340.891H823.299C823.756 340.891 824.126 341.261 824.126 341.72C824.126 342.179 823.756 342.549 823.299 342.549Z" fill="#23366C"/>
<path d="M810.781 356.502C810.323 356.502 809.952 356.133 809.952 355.674V348.948C809.952 345.745 814.584 344.385 814.78 344.331C815.233 344.191 815.682 344.459 815.805 344.901C815.929 345.343 815.676 345.801 815.236 345.927C814.294 346.195 811.607 347.327 811.607 348.948V355.674C811.607 356.133 811.238 356.502 810.781 356.502Z" fill="#23366C"/>
<path d="M819.153 356.502H819.142C818.685 356.497 818.32 356.121 818.326 355.663L818.408 348.936C818.408 347.612 816.518 346.506 814.746 345.918C814.314 345.772 814.078 345.303 814.22 344.867C814.366 344.434 814.82 344.198 815.27 344.34C816.71 344.818 820.063 346.226 820.063 348.948L819.98 355.684C819.974 356.137 819.605 356.502 819.153 356.502Z" fill="#23366C"/>
<path d="M785.579 300.446H777.536C777.078 300.446 776.709 300.075 776.709 299.616C776.709 299.157 777.078 298.787 777.536 298.787H785.579C786.036 298.787 786.406 299.157 786.406 299.616C786.406 300.075 786.036 300.446 785.579 300.446Z" fill="#23366C"/>
<path d="M786.241 307.091H777.202C776.746 307.091 776.375 306.721 776.375 306.263C776.375 305.803 776.746 305.432 777.202 305.432H786.241C786.699 305.432 787.069 305.803 787.069 306.263C787.069 306.721 786.699 307.091 786.241 307.091Z" fill="#23366C"/>
<path d="M786.99 324.116H776.293C775.835 324.116 775.465 323.746 775.465 323.288C775.465 322.828 775.835 322.457 776.293 322.457H786.99C787.446 322.457 787.816 322.828 787.816 323.288C787.816 323.746 787.446 324.116 786.99 324.116Z" fill="#23366C"/>
<path d="M800.585 357.335C800.136 357.335 799.765 356.974 799.757 356.522L799.507 343.647C799.501 343.457 799.561 343.282 799.666 343.14C799.519 342.994 799.427 342.792 799.424 342.569L799.177 330.03C799.174 329.882 799.208 329.74 799.276 329.617C799.163 329.481 799.095 329.306 799.092 329.118L798.762 316.334C798.756 316.155 798.808 315.989 798.899 315.853C798.817 315.729 798.768 315.581 798.762 315.425L798.595 310.938C798.578 310.479 798.933 310.095 799.39 310.079C799.828 310.064 800.232 310.417 800.249 310.876L800.417 315.363C800.426 315.542 800.375 315.712 800.28 315.853C800.363 315.977 800.414 316.128 800.417 316.287L800.746 329.073C800.753 329.223 800.715 329.365 800.647 329.491C800.761 329.629 800.829 329.805 800.832 329.997L801.079 342.535C801.085 342.726 801.025 342.9 800.92 343.042C801.068 343.189 801.159 343.39 801.162 343.613L801.412 356.488C801.42 356.947 801.06 357.325 800.601 357.335H800.585ZM793.038 357.335H793.013C792.555 357.32 792.197 356.936 792.211 356.48L792.627 343.604C792.632 343.407 792.707 343.231 792.823 343.09C792.695 342.94 792.618 342.741 792.627 342.524L793.042 329.985C793.047 329.799 793.113 329.629 793.22 329.495C793.152 329.365 793.115 329.217 793.121 329.064L793.622 316.279C793.628 316.12 793.676 315.974 793.758 315.853C793.668 315.716 793.619 315.552 793.622 315.378L793.704 310.893C793.713 310.441 794.079 310.079 794.532 310.079H794.545C795.004 310.087 795.368 310.462 795.359 310.922L795.276 315.408C795.273 315.573 795.225 315.725 795.141 315.853C795.234 315.991 795.286 316.163 795.276 316.342L794.776 329.126C794.771 329.312 794.702 329.481 794.597 329.615C794.665 329.74 794.702 329.884 794.696 330.042L794.282 342.581C794.276 342.775 794.202 342.954 794.086 343.09C794.213 343.243 794.289 343.441 794.282 343.654L793.867 356.532C793.853 356.981 793.486 357.335 793.038 357.335Z" fill="#23366C"/>
<path d="M794.449 310.825C794.052 310.825 793.702 310.54 793.634 310.138C793.361 308.553 794.008 307.243 795.461 306.444C795.854 306.229 796.365 306.37 796.588 306.775C796.807 307.176 796.659 307.681 796.258 307.903C795.43 308.357 795.115 308.979 795.266 309.853C795.345 310.306 795.04 310.736 794.591 310.813C794.543 310.822 794.494 310.825 794.449 310.825Z" fill="#23366C"/>
<path d="M795.86 308.004C795.498 308.004 795.166 307.767 795.064 307.402C794.938 306.963 795.189 306.507 795.624 306.379C795.652 306.367 796.001 306.242 796.303 305.889C796.601 305.535 797.122 305.495 797.471 305.795C797.821 306.094 797.861 306.619 797.565 306.967C796.926 307.719 796.169 307.95 796.087 307.972C796.01 307.995 795.933 308.004 795.86 308.004Z" fill="#23366C"/>
<path d="M798.094 308.004C797.992 308.004 797.886 307.987 797.787 307.946C797.616 307.877 796.735 307.505 796.289 306.947C796.001 306.59 796.059 306.065 796.416 305.781C796.773 305.495 797.299 305.546 797.58 305.91C797.701 306.06 798.139 306.3 798.402 306.401C798.824 306.573 799.033 307.055 798.865 307.481C798.734 307.807 798.424 308.004 798.094 308.004Z" fill="#23366C"/>
<path d="M797.929 308.004C797.776 308.004 797.622 307.963 797.483 307.875C796.997 307.558 796.231 307.919 796.223 307.921C795.813 308.112 795.317 307.946 795.118 307.539C794.918 307.128 795.084 306.636 795.49 306.431C796.073 306.139 797.338 305.814 798.375 306.473C798.759 306.721 798.873 307.234 798.629 307.622C798.47 307.869 798.202 308.004 797.929 308.004Z" fill="#23366C"/>
<path d="M799.504 310.825C799.458 310.825 799.41 310.822 799.362 310.813C798.91 310.733 798.609 310.304 798.689 309.853C798.913 308.567 797.656 307.925 797.645 307.919C797.235 307.713 797.068 307.214 797.272 306.804C797.474 306.393 797.974 306.229 798.385 306.431C799.207 306.84 800.667 308.145 800.321 310.138C800.249 310.543 799.899 310.825 799.504 310.825Z" fill="#23366C"/>
<path d="M797.02 306.59H796.934C796.476 306.59 796.027 306.219 796.027 305.761C796.027 305.302 796.476 304.851 796.934 304.851C797.392 304.851 797.847 305.302 797.847 305.761C797.847 306.219 797.477 306.59 797.02 306.59Z" fill="#23366C"/>
<path d="M796.934 306.922C796.724 306.922 796.357 306.761 796.203 306.619C796.035 306.462 795.942 306.242 795.942 306.012C795.942 305.553 796.476 305.096 796.934 305.096C797.392 305.096 797.847 305.553 797.847 306.012C797.847 306.469 797.392 306.922 796.934 306.922Z" fill="#23366C"/>
<path d="M796.934 307.257C796.396 307.257 795.942 306.801 795.942 306.263C795.942 306.043 796.027 305.831 796.183 305.675C796.339 305.518 796.715 305.347 796.934 305.347C797.33 305.347 797.6 305.584 797.699 305.683C797.847 305.84 797.929 306.046 797.929 306.263C797.929 306.801 797.474 307.257 796.934 307.257Z" fill="#23366C"/>
<path d="M796.934 306.51C796.476 306.51 796.107 306.139 796.107 305.681V305.344C796.107 304.886 796.476 304.515 796.934 304.515C797.392 304.515 797.761 304.886 797.761 305.344V305.681C797.761 306.139 797.392 306.51 796.934 306.51Z" fill="#23366C"/>
<path d="M800.17 311.241H793.702C793.244 311.241 792.874 310.87 792.874 310.412C792.874 309.953 793.244 309.582 793.702 309.582H800.17C800.628 309.582 800.997 309.953 800.997 310.412C800.997 310.87 800.628 311.241 800.17 311.241Z" fill="#23366C"/>
<path d="M800.749 316.725H793.369C792.911 316.725 792.542 316.353 792.542 315.894C792.542 315.437 792.911 315.065 793.369 315.065H800.749C801.207 315.065 801.577 315.437 801.577 315.894C801.577 316.353 801.207 316.725 800.749 316.725Z" fill="#23366C"/>
<path d="M801.33 330.427H792.624C792.166 330.427 791.797 330.056 791.797 329.598C791.797 329.138 792.166 328.768 792.624 328.768H801.33C801.788 328.768 802.157 329.138 802.157 329.598C802.157 330.056 801.788 330.427 801.33 330.427Z" fill="#23366C"/>
<path d="M801.58 343.963H791.879C791.421 343.963 791.052 343.593 791.052 343.134C791.052 342.675 791.421 342.305 791.879 342.305H801.58C802.038 342.305 802.407 342.675 802.407 343.134C802.407 343.593 802.038 343.963 801.58 343.963Z" fill="#23366C"/>
<path d="M903.052 345.708C902.615 345.708 902.251 345.368 902.225 344.928L901.976 340.605C901.96 340.318 902.094 340.056 902.307 339.894C902.114 339.748 901.985 339.521 901.976 339.26L901.396 323.814C901.389 323.578 901.48 323.359 901.633 323.203C901.494 323.058 901.406 322.866 901.396 322.653L900.814 306.874C900.806 306.678 900.869 306.496 900.977 306.351C900.828 306.202 900.735 306 900.732 305.772L900.65 300.21C900.641 299.75 901.008 299.373 901.465 299.368H901.477C901.929 299.368 902.299 299.73 902.304 300.187L902.386 305.749C902.389 305.938 902.331 306.114 902.225 306.254C902.369 306.396 902.461 306.593 902.469 306.812L903.052 322.589C903.061 322.826 902.97 323.045 902.817 323.203C902.955 323.344 903.043 323.539 903.052 323.751L903.631 339.198C903.642 339.48 903.512 339.737 903.302 339.894C903.489 340.035 903.618 340.254 903.631 340.509L903.88 344.83C903.905 345.289 903.555 345.681 903.1 345.708H903.052ZM893.934 357.335H893.912C893.456 357.323 893.096 356.942 893.106 356.483L893.518 340.534C893.524 340.272 893.652 340.041 893.849 339.894C893.641 339.737 893.51 339.487 893.518 339.208L893.934 323.761C893.94 323.544 894.028 323.347 894.17 323.203C894.017 323.045 893.926 322.828 893.934 322.594L894.432 306.818C894.437 306.621 894.511 306.441 894.631 306.302C894.5 306.15 894.423 305.951 894.432 305.735L894.596 300.173C894.611 299.713 894.977 299.406 895.449 299.368C895.908 299.379 896.265 299.764 896.251 300.224L896.086 305.786C896.08 305.983 896.007 306.162 895.887 306.302C896.018 306.453 896.094 306.653 896.086 306.869L895.59 322.647C895.584 322.863 895.492 323.058 895.352 323.203C895.505 323.356 895.598 323.573 895.59 323.806L895.173 339.252C895.168 339.514 895.039 339.746 894.844 339.894C895.051 340.05 895.182 340.301 895.173 340.581L894.761 356.528C894.75 356.978 894.384 357.335 893.934 357.335Z" fill="#23366C"/>
<path d="M901.56 299.864C901.482 299.864 901.406 299.856 901.329 299.833C900.889 299.705 900.636 299.246 900.763 298.804C900.812 298.641 901.173 297.185 899.439 296.285C899.033 296.074 898.872 295.572 899.083 295.164C899.293 294.758 899.793 294.597 900.2 294.809C902.563 296.036 902.665 298.188 902.356 299.266C902.251 299.63 901.92 299.864 901.56 299.864Z" fill="#23366C"/>
<path d="M899.819 296.375C899.719 296.375 899.622 296.358 899.526 296.324C899.441 296.29 898.676 295.988 897.906 295.222C897.582 294.897 897.582 294.369 897.903 294.045C898.227 293.723 898.752 293.723 899.077 294.042C899.594 294.56 900.111 294.769 900.117 294.772C900.541 294.94 900.752 295.419 900.59 295.846C900.461 296.173 900.148 296.375 899.819 296.375Z" fill="#23366C"/>
<path d="M897.085 296.375C896.78 296.375 896.49 296.207 896.342 295.918C896.138 295.51 896.306 295.008 896.713 294.803C897.077 294.62 897.687 294.264 897.903 294.048C898.227 293.721 898.756 293.723 899.074 294.042C899.402 294.366 899.402 294.891 899.08 295.216C898.596 295.706 897.642 296.197 897.454 296.29C897.338 296.35 897.21 296.375 897.085 296.375Z" fill="#23366C"/>
<path d="M899.819 296.375C899.703 296.375 899.583 296.353 899.47 296.299C899.427 296.282 898.42 295.834 897.662 296.268C897.26 296.493 896.757 296.358 896.529 295.96C896.303 295.561 896.439 295.054 896.836 294.826C898.347 293.959 900.098 294.758 900.172 294.795C900.587 294.991 900.763 295.487 900.57 295.9C900.426 296.203 900.128 296.375 899.819 296.375Z" fill="#23366C"/>
<path d="M895.342 299.864C894.946 299.864 894.596 299.582 894.526 299.18C894.014 296.287 896.672 294.868 896.785 294.809C897.193 294.597 897.692 294.758 897.903 295.164C898.113 295.569 897.954 296.071 897.55 296.282C897.461 296.333 895.862 297.223 896.158 298.889C896.238 299.339 895.935 299.773 895.487 299.853C895.439 299.861 895.39 299.864 895.342 299.864Z" fill="#23366C"/>
<path d="M898.573 294.631C898.116 294.631 897.582 294.176 897.582 293.717C897.582 293.258 897.951 292.887 898.409 292.887H898.658C899.118 292.887 899.487 293.258 899.487 293.717C899.487 294.176 899.033 294.631 898.573 294.631Z" fill="#23366C"/>
<path d="M898.491 294.962C898.033 294.962 897.582 294.509 897.582 294.051C897.582 293.591 898.033 293.138 898.491 293.138C898.707 293.138 899.08 293.303 899.237 293.453C899.395 293.608 899.487 293.825 899.487 294.051C899.487 294.509 898.95 294.962 898.491 294.962Z" fill="#23366C"/>
<path d="M897.833 294.467C897.833 294.843 898.116 295.129 898.491 295.129C898.871 295.129 899.155 294.843 899.155 294.467L898.491 294.543L898.494 294.467H898.488L898.491 294.543L897.833 294.467ZM898.491 295.378C898.033 295.378 897.499 294.926 897.499 294.467C897.499 293.924 897.954 293.47 898.491 293.47C899.033 293.47 899.487 293.924 899.487 294.467C899.487 294.926 898.95 295.378 898.491 295.378Z" fill="#23366C"/>
<path d="M898.491 294.467C898.033 294.467 897.665 294.096 897.665 293.637V293.303C897.665 292.845 898.033 292.475 898.491 292.475C898.95 292.475 899.319 292.845 899.319 293.303V293.637C899.319 294.096 898.95 294.467 898.491 294.467Z" fill="#23366C"/>
<path d="M867.652 317.471C867.504 317.471 867.353 317.434 867.22 317.351C866.829 317.112 866.705 316.599 866.943 316.208C868.963 312.899 867.169 311.337 864.41 309.491C863.324 308.765 862.466 308.188 862.157 307.39C861.989 306.967 862.199 306.485 862.626 306.317C863.045 306.145 863.528 306.362 863.697 306.787C863.82 307.097 864.658 307.659 865.332 308.109C867.586 309.622 871.361 312.151 868.36 317.075C868.203 317.331 867.931 317.471 867.652 317.471Z" fill="#23366C"/>
<path d="M858.201 317.471C857.925 317.471 857.655 317.334 857.499 317.084C854.409 312.127 858.229 309.596 860.513 308.083C861.185 307.636 862.028 307.077 862.167 306.758C862.35 306.336 862.85 306.142 863.256 306.328C863.678 306.51 863.867 307.001 863.686 307.419C863.35 308.192 862.458 308.784 861.425 309.469C858.642 311.313 856.832 312.875 858.904 316.199C859.145 316.59 859.028 317.102 858.642 317.345C858.503 317.431 858.352 317.471 858.201 317.471Z" fill="#23366C"/>
<path d="M869.228 317.722C869.185 317.722 869.142 317.719 869.099 317.712C865.24 317.102 861.258 317.102 856.904 317.716C856.458 317.771 856.034 317.46 855.969 317.006C855.907 316.553 856.222 316.135 856.677 316.069C861.184 315.442 865.332 315.439 869.354 316.072C869.806 316.143 870.117 316.567 870.046 317.02C869.98 317.431 869.628 317.722 869.228 317.722Z" fill="#23366C"/>
<path d="M859.904 310.52L858.983 309.14C861.036 307.764 864.336 307.67 866.336 308.866L865.488 310.293C864.032 309.425 861.431 309.493 859.904 310.52Z" fill="#23366C"/>
<path d="M862.927 307.919C862.469 307.919 862.099 307.547 862.099 307.088V305.846C862.099 305.387 862.469 305.017 862.927 305.017C863.384 305.017 863.754 305.387 863.754 305.846V307.088C863.754 307.547 863.384 307.919 862.927 307.919Z" fill="#23366C"/>
<path d="M868.647 324.777C868.189 324.777 867.819 324.407 867.819 323.948V316.807C867.819 316.347 868.189 315.977 868.647 315.977C869.105 315.977 869.474 316.347 869.474 316.807V323.948C869.474 324.407 869.105 324.777 868.647 324.777Z" fill="#23366C"/>
<path d="M872.875 325.444C872.847 325.444 872.815 325.444 872.784 325.441L866.069 324.696L856.051 324.777H856.046C855.591 324.777 855.221 324.41 855.218 323.954C855.213 323.495 855.583 323.122 856.04 323.119L866.154 323.04L872.967 323.788C873.42 323.841 873.748 324.25 873.698 324.706C873.651 325.131 873.292 325.444 872.875 325.444Z" fill="#23366C"/>
<path d="M872.875 328.351C872.85 328.351 872.82 328.351 872.792 328.349L866.077 327.682L856.046 327.685C855.588 327.685 855.218 327.315 855.218 326.855C855.218 326.397 855.588 326.025 856.046 326.025H866.159L872.957 326.697C873.412 326.742 873.746 327.149 873.699 327.605C873.657 328.033 873.295 328.351 872.875 328.351Z" fill="#23366C"/>
<path d="M872.957 357.005C872.499 357.005 872.131 356.634 872.131 356.174V324.696C872.131 324.237 872.499 323.865 872.957 323.865C873.415 323.865 873.784 324.237 873.784 324.696V356.174C873.784 356.634 873.415 357.005 872.957 357.005Z" fill="#23366C"/>
<path d="M869.145 342.549C868.686 342.549 868.316 342.179 868.316 341.72V334.413C868.316 332.224 864.72 331.064 864.683 331.057C864.243 330.925 863.993 330.463 864.121 330.025C864.251 329.583 864.709 329.332 865.15 329.46C865.199 329.474 869.972 330.922 869.972 334.413V341.72C869.972 342.179 869.602 342.549 869.145 342.549Z" fill="#23366C"/>
<path d="M860.771 342.549C860.314 342.549 859.944 342.179 859.944 341.72V334.413C859.847 331.364 863.52 329.859 864.647 329.471C865.089 329.332 865.554 329.556 865.702 329.988C865.849 330.423 865.62 330.893 865.186 331.044C864.812 331.173 861.536 332.355 861.598 334.388V341.72C861.598 342.179 861.229 342.549 860.771 342.549Z" fill="#23366C"/>
<path d="M872.957 342.801H856.708C856.251 342.801 855.881 342.428 855.881 341.971C855.881 341.513 856.251 341.142 856.708 341.142H872.957C873.415 341.142 873.784 341.513 873.784 341.971C873.784 342.428 873.415 342.801 872.957 342.801Z" fill="#23366C"/>
<path d="M869.145 356.502C868.686 356.502 868.316 356.133 868.316 355.674V348.948C868.316 347.327 865.63 346.195 864.689 345.927C864.249 345.801 863.996 345.343 864.121 344.901C864.243 344.459 864.689 344.191 865.144 344.331C865.341 344.385 869.972 345.745 869.972 348.948V355.674C869.972 356.133 869.602 356.502 869.145 356.502Z" fill="#23366C"/>
<path d="M860.771 356.502C860.313 356.502 859.944 356.133 859.944 355.674V348.948C859.849 346.237 863.208 344.822 864.655 344.34C865.104 344.198 865.559 344.434 865.705 344.867C865.847 345.303 865.611 345.772 865.178 345.918C863.418 346.503 861.553 347.596 861.598 348.92V355.674C861.598 356.133 861.229 356.502 860.771 356.502Z" fill="#23366C"/>
<path d="M902.472 300.446H894.514C894.056 300.446 893.686 300.075 893.686 299.616C893.686 299.157 894.056 298.787 894.514 298.787H902.472C902.93 298.787 903.299 299.157 903.299 299.616C903.299 300.075 902.93 300.446 902.472 300.446Z" fill="#23366C"/>
<path d="M902.888 307.091H893.849C893.391 307.091 893.022 306.721 893.022 306.263C893.022 305.803 893.391 305.432 893.849 305.432H902.888C903.344 305.432 903.714 305.803 903.714 306.263C903.714 306.721 903.344 307.091 902.888 307.091Z" fill="#23366C"/>
<path d="M903.8 324.116H893.103C892.647 324.116 892.278 323.746 892.278 323.288C892.278 322.828 892.647 322.457 893.103 322.457H903.8C904.258 322.457 904.628 322.828 904.628 323.288C904.628 323.746 904.258 324.116 903.8 324.116Z" fill="#23366C"/>
<path d="M904.792 340.806H892.771C892.313 340.806 891.943 340.435 891.943 339.977C891.943 339.517 892.313 339.147 892.771 339.147H904.792C905.249 339.147 905.62 339.517 905.62 339.977C905.62 340.435 905.249 340.806 904.792 340.806Z" fill="#23366C"/>
<path d="M879.426 357.335H879.405C878.948 357.323 878.587 356.942 878.597 356.485L878.927 343.61C878.93 343.41 879.005 343.231 879.125 343.09C878.996 342.94 878.923 342.744 878.927 342.53L879.26 329.991C879.263 329.831 879.314 329.681 879.396 329.553C879.306 329.415 879.255 329.247 879.26 329.07L879.675 316.285C879.681 316.123 879.729 315.977 879.811 315.853C879.722 315.716 879.673 315.552 879.675 315.378L879.758 310.893C879.767 310.441 880.132 310.079 880.586 310.079H880.6C881.058 310.087 881.42 310.462 881.413 310.922L881.33 315.408C881.327 315.573 881.279 315.725 881.194 315.853C881.284 315.991 881.335 316.16 881.33 316.337L880.915 329.121C880.91 329.283 880.862 329.429 880.78 329.553C880.87 329.691 880.92 329.856 880.915 330.035L880.582 342.576C880.577 342.771 880.505 342.951 880.385 343.09C880.515 343.243 880.589 343.438 880.582 343.65L880.252 356.525C880.241 356.978 879.875 357.335 879.426 357.335ZM887.05 357.335C886.605 357.335 886.237 356.981 886.223 356.532L885.812 343.654C885.805 343.465 885.862 343.285 885.968 343.143C885.825 342.998 885.732 342.801 885.726 342.581L885.313 330.042C885.307 329.861 885.359 329.694 885.449 329.553C885.366 329.43 885.319 329.287 885.313 329.126L884.815 316.342C884.807 316.163 884.858 315.991 884.952 315.853C884.867 315.725 884.818 315.573 884.815 315.408L884.733 310.922C884.725 310.462 885.088 310.087 885.546 310.079H885.56C886.013 310.079 886.38 310.441 886.388 310.893L886.47 315.378C886.473 315.552 886.425 315.716 886.334 315.853C886.417 315.974 886.465 316.12 886.47 316.279L886.968 329.064C886.976 329.245 886.925 329.415 886.831 329.553C886.914 329.681 886.962 329.825 886.968 329.985L887.38 342.524C887.386 342.717 887.329 342.897 887.224 343.04C887.367 343.184 887.46 343.382 887.465 343.604L887.878 356.48C887.893 356.938 887.535 357.32 887.075 357.335H887.05Z" fill="#23366C"/>
<path d="M885.561 310.825C885.473 310.825 885.385 310.813 885.3 310.782C884.865 310.64 884.63 310.17 884.777 309.733C884.862 309.473 885.044 308.579 883.767 307.909C883.359 307.698 883.203 307.197 883.417 306.789C883.63 306.379 884.131 306.222 884.534 306.439C886.607 307.525 886.65 309.352 886.345 310.258C886.232 310.605 885.908 310.825 885.561 310.825Z" fill="#23366C"/>
<path d="M884.233 308.004C884.157 308.004 884.082 307.995 884.006 307.972C883.924 307.95 883.167 307.719 882.528 306.969C882.229 306.621 882.269 306.097 882.616 305.797C882.959 305.498 883.485 305.538 883.784 305.886C884.099 306.257 884.469 306.379 884.472 306.379C884.903 306.518 885.151 306.978 885.018 307.413C884.91 307.77 884.585 308.004 884.233 308.004Z" fill="#23366C"/>
<path d="M881.995 308.004C881.68 308.004 881.375 307.821 881.239 307.51C881.054 307.091 881.242 306.602 881.66 306.416C881.892 306.311 882.352 306.06 882.57 305.84C882.894 305.515 883.417 305.515 883.742 305.84C884.066 306.165 884.066 306.69 883.742 307.015C883.232 307.525 882.422 307.892 882.331 307.932C882.223 307.981 882.11 308.004 881.995 308.004Z" fill="#23366C"/>
<path d="M884.233 308.004C884.112 308.004 883.986 307.979 883.866 307.919C883.841 307.903 883.09 307.558 882.605 307.875C882.226 308.12 881.711 308.012 881.461 307.619C881.216 307.231 881.33 306.719 881.717 306.473C882.746 305.809 884.017 306.139 884.602 306.431C885.012 306.636 885.18 307.134 884.975 307.544C884.83 307.835 884.538 308.004 884.233 308.004Z" fill="#23366C"/>
<path d="M880.586 310.825C880.204 310.825 879.861 310.559 879.775 310.173C879.337 308.154 880.855 306.837 881.723 306.424C882.127 306.229 882.626 306.401 882.826 306.818C883.022 307.228 882.849 307.725 882.439 307.921C882.3 307.993 881.131 308.614 881.396 309.819C881.493 310.266 881.208 310.708 880.762 310.808C880.702 310.819 880.642 310.825 880.586 310.825Z" fill="#23366C"/>
<path d="M883.238 306.59H883.156C882.698 306.59 882.246 306.219 882.246 305.761C882.246 305.302 882.698 304.851 883.156 304.851C883.612 304.851 884.066 305.302 884.066 305.761C884.066 306.219 883.696 306.59 883.238 306.59Z" fill="#23366C"/>
<path d="M883.156 306.922C882.94 306.922 882.57 306.758 882.417 306.61C882.255 306.453 882.164 306.237 882.164 306.012C882.164 305.553 882.698 305.096 883.156 305.096C883.612 305.096 884.066 305.553 884.066 306.012C884.066 306.237 883.975 306.453 883.813 306.61C883.659 306.758 883.371 306.922 883.156 306.922Z" fill="#23366C"/>
<path d="M883.156 307.257C882.619 307.257 882.164 306.801 882.164 306.263C882.164 306.046 882.246 305.84 882.394 305.683C882.551 305.524 882.931 305.347 883.156 305.347C883.667 305.347 884.066 305.749 884.066 306.263C884.066 306.721 883.612 307.257 883.156 307.257Z" fill="#23366C"/>
<path d="M883.156 306.51C882.698 306.51 882.328 306.139 882.328 305.681V305.344C882.328 304.886 882.698 304.515 883.156 304.515C883.612 304.515 883.984 304.886 883.984 305.344V305.681C883.984 306.139 883.612 306.51 883.156 306.51Z" fill="#23366C"/>
<path d="M886.306 311.241H879.84C879.383 311.241 879.013 310.87 879.013 310.412C879.013 309.953 879.383 309.582 879.84 309.582H886.306C886.763 309.582 887.133 309.953 887.133 310.412C887.133 310.87 886.763 311.241 886.306 311.241Z" fill="#23366C"/>
<path d="M886.639 316.725H879.343C878.886 316.725 878.515 316.353 878.515 315.894C878.515 315.437 878.886 315.065 879.343 315.065H886.639C887.095 315.065 887.465 315.437 887.465 315.894C887.465 316.353 887.095 316.725 886.639 316.725Z" fill="#23366C"/>
<path d="M887.384 330.427H878.677C878.22 330.427 877.851 330.056 877.851 329.598C877.851 329.138 878.22 328.768 878.677 328.768H887.384C887.841 328.768 888.211 329.138 888.211 329.598C888.211 330.056 887.841 330.427 887.384 330.427Z" fill="#23366C"/>
<path d="M888.213 343.963H878.512C878.054 343.963 877.686 343.593 877.686 343.134C877.686 342.675 878.054 342.305 878.512 342.305H888.213C888.671 342.305 889.041 342.675 889.041 343.134C889.041 343.593 888.671 343.963 888.213 343.963Z" fill="#23366C"/>
<path d="M912.173 343.547C911.715 343.547 911.345 343.176 911.345 342.717V308.581C911.345 269.752 879.807 238.159 841.04 238.159C802.273 238.159 770.734 269.752 770.734 308.581L770.655 326.11C770.655 326.571 770.283 326.938 769.828 326.938H769.824C769.367 326.938 768.998 326.565 769 326.106L769.08 308.579C769.08 268.834 801.361 236.5 841.04 236.5C880.719 236.5 913 268.834 913 308.581V342.717C913 343.176 912.631 343.547 912.173 343.547Z" fill="#23366C"/>
<path d="M909.727 316H1681V1L1 1V316H771.795" stroke="#23366C" stroke-linecap="round"/>
</svg>
