<svg width="77" height="73" viewBox="0 0 77 73" fill="none" xmlns="http://www.w3.org/2000/svg">
<g id="Icon">
<rect id="Rectangle 32" width="77" height="73" rx="4" fill="white"/>
<g id="Group 84">
<path id="Vector" d="M16 14.25C16 11.0875 18.5875 8.5 21.75 8.5H56.25C57.775 8.5 59.2375 9.1058 60.3159 10.1841C61.3942 11.2625 62 12.725 62 14.25V60.25C62 61.775 61.3942 63.2375 60.3159 64.3159C59.2375 65.3942 57.775 66 56.25 66H21.75C20.225 66 18.7625 65.3942 17.6841 64.3159C16.6058 63.2375 16 61.775 16 60.25V14.25ZM24.625 17.125V22.875H53.375V17.125H24.625ZM24.625 28.625V34.375H30.375V28.625H24.625ZM36.125 28.625V34.375H41.875V28.625H36.125ZM47.625 28.625V34.375H53.375V28.625H47.625ZM24.625 40.125V45.875H30.375V40.125H24.625ZM36.125 40.125V45.875H41.875V40.125H36.125ZM47.625 40.125V57.375H53.375V40.125H47.625ZM24.625 51.625V57.375H30.375V51.625H24.625ZM36.125 51.625V57.375H41.875V51.625H36.125Z" fill="#22366C"/>
</g>
</g>
</svg>
