<svg width="77" height="73" viewBox="0 0 77 73" fill="none" xmlns="http://www.w3.org/2000/svg">
<g id="Icon">
<rect id="Rectangle 32" width="77" height="73" rx="4" fill="white"/>
<g id="Group 96">
<path id="Vector" d="M21.7896 19.1601C24.3715 19.1601 26.4645 17.0702 26.4645 14.4922C26.4645 11.9141 24.3715 9.82422 21.7896 9.82422C19.2078 9.82422 17.1147 11.9141 17.1147 14.4922C17.1147 17.0702 19.2078 19.1601 21.7896 19.1601Z" fill="#059345"/>
<path id="Vector_2" d="M41.8248 19.1601C44.4066 19.1601 46.4996 17.0702 46.4996 14.4922C46.4996 11.9141 44.4066 9.82422 41.8248 9.82422C39.2429 9.82422 37.1499 11.9141 37.1499 14.4922C37.1499 17.0702 39.2429 19.1601 41.8248 19.1601Z" fill="#059345"/>
<path id="Vector_3" d="M59.8563 45.1607C61.7005 45.1607 63.1955 43.6679 63.1955 41.8264C63.1955 39.985 61.7005 38.4922 59.8563 38.4922C58.0121 38.4922 56.5171 39.985 56.5171 41.8264C56.5171 43.6679 58.0121 45.1607 59.8563 45.1607Z" fill="#059345"/>
<path id="Vector_4" d="M67.0688 53.964L64.7314 48.3625C63.93 47.2289 62.6611 46.362 61.2586 45.9619C60.8579 45.8952 60.3236 45.8285 59.8562 45.8285H56.517L53.7121 41.0939C53.7788 40.7605 53.8456 40.427 53.7788 40.0936L50.64 24.356C49.3711 22.9556 47.7683 21.8887 45.8984 21.2218C44.6295 20.755 43.227 20.4883 41.7578 20.4883C40.2885 20.4883 38.9528 20.755 37.6172 21.2218C35.814 21.8887 34.2112 22.9556 32.8755 24.356L31.807 30.2909L30.6049 24.356C29.336 22.9556 27.7332 21.8887 25.8632 21.2218C24.5943 20.755 23.1919 20.4883 21.7226 20.4883C20.2534 20.4883 18.9177 20.755 17.582 21.2218C15.7789 21.8887 14.1761 22.9556 12.8404 24.356L9.83512 40.0936C9.63477 41.1606 10.3026 42.2275 11.4379 42.4276C11.5047 42.4943 11.6383 42.4943 11.7719 42.4943C12.7068 42.4943 13.575 41.8274 13.7086 40.8938L16.4467 27.3568V63.1665H20.4537V42.4943H23.1251V63.1665H27.1321V27.3568L29.8703 40.8938C30.0038 41.8274 30.872 42.4943 31.807 42.4943C32.742 42.4943 33.6101 41.8274 33.7437 40.8938L36.4818 27.3568V34.6255L33.9441 47.2289H36.4818V63.1665H40.4889V47.1622H43.1602V63.1665H47.1672V47.2289H49.705L47.1672 34.6255V27.3568L49.9054 40.8938C50.0389 41.694 50.7068 42.2942 51.4414 42.4276L56.517 51.0299V63.1665H59.1883V55.1644H60.524V63.1665H63.1953V51.5634L64.6646 55.031C64.8649 55.5645 65.3992 55.8312 65.8667 55.8312C66.067 55.8312 66.2006 55.8312 66.401 55.6979C67.0688 55.4311 67.4027 54.6309 67.0688 53.964Z" fill="#22366C"/>
</g>
</g>
</svg>
