<svg width="77" height="73" viewBox="0 0 77 73" fill="none" xmlns="http://www.w3.org/2000/svg">
<g id="Icon">
<rect id="Rectangle 32" width="77" height="73" rx="4" fill="white"/>
<g id="Icon_2">
<path id="Vector" d="M39.5625 18.9062C42.5299 18.9062 44.9355 16.498 44.9355 13.5273C44.9355 10.5566 42.5299 8.14844 39.5625 8.14844C36.595 8.14844 34.1895 10.5566 34.1895 13.5273C34.1895 16.498 36.595 18.9062 39.5625 18.9062Z" fill="#059345"/>
<path id="Vector_2" d="M29.0889 47.1526L33.1036 44.4302V61.896C33.1036 63.5288 34.4259 64.8515 36.0559 64.8515C37.6865 64.8515 39.0087 63.5288 39.0087 61.896V40.3157H40.1155V61.896C40.1155 63.5288 41.4378 64.8515 43.0679 64.8515C44.6984 64.8515 46.0206 63.5288 46.0206 61.896V26.0961C46.3602 26.8104 46.7012 27.7839 46.9818 29.0935C47.0711 29.5109 47.1552 29.9582 47.2299 30.4466C47.2304 30.4492 47.2311 30.4513 47.2316 30.454C47.4869 32.1116 47.6478 34.1843 47.6474 36.7513C47.6478 38.0693 47.6058 39.5173 47.5122 41.1075C47.457 42.0546 48.1008 42.8792 48.9954 43.0824V43.5703V44.0599H48.0201C47.4926 44.0599 47.0649 44.488 47.0649 45.0161V54.7383C47.0649 55.2664 47.4926 55.6945 48.0201 55.6945H51.0448C51.5723 55.6945 52 55.2664 52 54.7383V45.0161C52 44.488 51.5723 44.0599 51.0448 44.0599H50.07V43.5191V43.0161C50.7654 42.7632 51.2805 42.1178 51.3266 41.3317C51.424 39.6736 51.4684 38.151 51.4684 36.7516C51.4684 34.0212 51.2982 31.7564 51.0066 29.8632V29.8637C51.0063 29.8632 51.0061 29.8628 51.0061 29.8623C50.9266 29.3478 50.8378 28.8606 50.741 28.398C50.0753 25.219 49.0183 23.2298 47.8023 21.9687C46.4142 20.515 44.8515 20.2322 44.1733 20.2508C44.0214 20.2508 43.907 20.2611 43.8351 20.27C43.8337 20.2702 43.8327 20.2704 43.8313 20.2707H35.292C35.2908 20.2704 35.2894 20.2702 35.2879 20.27C35.2163 20.2611 35.1024 20.2508 34.9503 20.2508C34.2716 20.2322 32.7096 20.5148 31.3212 21.9692C30.1052 23.23 29.0483 25.2192 28.3825 28.3985C28.2858 28.8613 28.1969 29.3488 28.1174 29.8635C28.1169 29.8654 28.1169 29.8671 28.1167 29.869C27.8254 31.7609 27.6556 34.0239 27.6556 36.7518C27.6556 38.1513 27.6998 39.6741 27.7974 41.332C27.8567 42.348 28.6987 43.1323 29.7031 43.1323C29.7403 43.1323 29.7781 43.1314 29.8165 43.129C30.8696 43.0673 31.6732 42.162 31.6118 41.1077C31.518 39.5177 31.4762 38.0695 31.4766 36.7516C31.4762 34.1814 31.6378 32.1068 31.8931 30.4482C31.8934 30.4478 31.8936 30.4473 31.8936 30.4468C31.9686 29.9584 32.0524 29.5102 32.1417 29.093C32.4225 27.782 32.7638 26.8073 33.1038 26.093V33.4585L32.0125 34.1984C31.9984 34.4896 31.9874 34.7865 31.9784 35.0879L33.0026 34.3935L37.2879 40.7271L29.2801 46.1565L24.9953 39.8225L27.1983 38.3289C27.1918 38.0401 27.1871 37.7547 27.1837 37.4721L24 39.6313L29.0889 47.1526ZM39.5622 37.6464L37.2936 34.7776L38.6001 25.1384C38.9101 25.2546 39.2358 25.3154 39.5618 25.3151H39.5622C39.5622 25.3151 39.5632 25.3151 39.5637 25.3151C39.8892 25.3151 40.2144 25.2544 40.5237 25.1382L41.8311 34.7776L39.5622 37.6464ZM38.6546 22.2269H39.5622H40.4695L40.9232 24.0199L40.8542 24.1289C40.4802 24.4411 40.0222 24.5975 39.5618 24.5979C39.1014 24.5975 38.6438 24.4413 38.2703 24.1301L38.2008 24.0199L38.6546 22.2269Z" fill="#22366C"/>
<path id="Vector_3" d="M32.4721 36.6871L32.0806 36.9609L34.7084 40.7255L35.0998 40.4516L32.4721 36.6871Z" fill="#059345"/>
<path id="Vector_4" d="M33.4262 41.5901L32.0146 39.5664C32.0268 39.8614 32.0404 40.1595 32.0562 40.4607L33.0348 41.8635L33.4262 41.5901Z" fill="#059345"/>
</g>
</g>
</svg>
