<svg width="57" height="59" viewBox="0 0 57 59" fill="none" xmlns="http://www.w3.org/2000/svg">
<path fill-rule="evenodd" clip-rule="evenodd" d="M44.4913 6.09969C42.9266 4.53499 40.7601 3.56582 38.3708 3.56582C35.9794 3.56582 33.8151 4.53511 32.2481 6.09969C30.6812 7.66439 29.712 9.83344 29.712 12.2204C29.712 14.6116 30.6812 16.7765 32.2481 18.3451C33.8151 19.9102 35.9794 20.8793 38.3708 20.8793C40.7601 20.8793 42.9266 19.9101 44.4913 18.3451C46.0583 16.7765 47.0275 14.6116 47.0275 12.2204C47.0275 9.83344 46.0583 7.66427 44.4913 6.09969ZM16.388 45.664L16.3818 45.6511L16.3755 45.6386L16.3504 45.5757L16.3213 45.5086L16.2918 45.4417L16.2583 45.3746L16.2269 45.303L16.195 45.2318L16.1596 45.1564L16.1238 45.0806L16.0863 45.0052L16.0486 44.9254L16.0106 44.8458L15.969 44.7621L15.929 44.6782L15.8869 44.5942L15.843 44.5102L15.7986 44.4223L15.7547 44.3344L15.7087 44.2419L15.6625 44.1538V44.1496L15.6141 44.0617L15.6118 44.0575L15.5658 43.9651H15.564L15.5156 43.8728V43.8686L15.4655 43.7764L15.4126 43.6799V43.6755L15.3602 43.579L15.31 43.4825H15.3077L15.2553 43.3821L15.2007 43.2812L15.1464 43.1765H15.1441L15.0895 43.0758L15.0331 42.9709L14.9762 42.8702L14.9739 42.866L14.9175 42.7613L14.8611 42.6562H14.8588L14.8001 42.5515L14.7415 42.4425H14.7393L14.6805 42.3377L14.6197 42.2285H14.6174L14.5587 42.1195L14.496 42.0105L14.4329 41.9016V41.8974L14.3701 41.7884L14.3069 41.6794L14.2443 41.5704V41.5662L14.1811 41.4571H14.1788L14.1139 41.3438L14.0512 41.2348L14.0489 41.2306L13.9379 41.0378L13.9191 41.0083L13.8537 40.8951H13.8519L13.7864 40.7818L13.7197 40.6729V40.6686L13.6526 40.5597V40.5553L13.5854 40.4464L13.5183 40.3329L13.4512 40.2196L13.3841 40.1063H13.3818L13.315 39.9931L13.2456 39.884V39.88L13.1785 39.7709L13.1114 39.6576H13.1096L13.0402 39.5486V39.5444L12.9731 39.4355L12.904 39.3265V39.3223L12.8471 39.2341L12.7925 39.1417L12.7361 39.0538H12.7338L12.6792 38.9656V38.9617L12.6228 38.8735L12.5659 38.7854L12.5118 38.6973V38.6933L12.4548 38.6093L12.4531 38.6051L12.3984 38.5212V38.5172L12.3438 38.4332L12.2874 38.3453H12.2851L12.2305 38.2571L12.1759 38.1732L12.1217 38.0895L12.1194 38.0853L12.0648 38.0013L12.0086 37.9157L11.954 37.8317L11.8994 37.7479L11.8448 37.6681V37.6639L11.7902 37.5842L11.736 37.5048V37.5004L11.6814 37.4208L11.6268 37.3411L11.5744 37.2613L11.5219 37.1858H11.5196L11.4672 37.1061L11.4126 37.0305L11.3624 36.9549V36.9507L11.31 36.8794L11.3077 36.8752L11.2575 36.804L11.2052 36.7283L11.1545 36.657H11.1528L11.1021 36.5855L11.052 36.5143L11.0014 36.4427L10.9513 36.3759V36.3716L10.9011 36.3045L10.8528 36.2374L10.8044 36.1705L10.7542 36.1076L10.7081 36.0447V36.0405L10.6597 35.9818H10.6574L10.6113 35.9189L10.5653 35.856L10.5191 35.797L10.473 35.7385L10.4269 35.6798L10.3807 35.625L10.3386 35.5707L10.2924 35.516L10.2087 35.4112L10.125 35.3147V35.3105L10.0829 35.2644L10.0408 35.2183L9.92353 35.0882C9.86037 35.0209 9.79771 34.958 9.73901 34.8995C9.20613 34.3918 8.77393 34.2156 8.41752 34.203C8.06278 34.1905 7.7296 34.3456 7.4444 34.4841L6.78966 34.7986C5.47264 35.4238 3.3078 36.4517 3.00589 37.0893C2.76229 37.6052 2.99338 38.4234 3.25319 39.3505L3.47573 40.1601C4.00415 42.2829 4.0127 44.758 4.02112 47.166C4.02916 49.6748 4.04179 52.1204 4.6543 53.9243C4.7255 54.1341 4.75906 54.2095 4.76761 54.2095C4.91053 54.2055 5.19981 54.0375 5.57727 53.8152C6.27987 53.4041 7.7 52.7455 9.31523 51.9988C12.4823 50.5346 16.434 48.7097 16.7448 48.0218C16.8537 47.7785 16.8787 47.4638 16.8246 47.0946C16.7655 46.6794 16.6147 46.2011 16.388 45.664ZM21.2313 29.9783C19.6773 30.2891 17.6679 31.1321 15.7024 32.0928C13.9612 32.9403 12.2497 33.8883 10.9093 34.656L10.9473 34.6981L10.9554 34.7063L11.0225 34.7902L11.0476 34.8194L11.0624 34.8363L11.0938 34.8739L11.1022 34.8824L11.1399 34.9328H11.1422L11.2196 35.0294L11.2389 35.0544L11.2594 35.0796L11.2867 35.1131L11.2993 35.1299L11.3351 35.176L11.3414 35.1844L11.3835 35.2388L11.3853 35.2431L11.4252 35.2892L11.4359 35.306L11.465 35.3481L11.4861 35.3731L11.5071 35.4023L11.589 35.5074L11.5931 35.5157L11.6773 35.6288L11.6916 35.65L11.7211 35.6877L11.744 35.7212L11.765 35.7462L11.7968 35.7926L11.8093 35.8092L11.8492 35.8681H11.8533L11.8954 35.9309L11.9035 35.9392L11.9415 35.9939L11.9581 36.0146L12.0105 36.0904L12.0293 36.1197L12.0651 36.1702L12.0755 36.1827L12.1597 36.3043L12.1659 36.3127L12.1763 36.3253L12.2121 36.3798L12.2309 36.4049L12.3044 36.5098L12.3419 36.5687L12.3505 36.5768L12.3965 36.6484L12.4426 36.7153L12.4533 36.7321L12.491 36.7825L12.5097 36.8119L12.537 36.8539L12.5661 36.8958L12.5831 36.9207L12.623 36.9838L12.6293 36.9922L12.7237 37.1347L12.7362 37.1516L12.7716 37.2061L12.7926 37.2396L12.8181 37.2775L12.8513 37.3279L12.8661 37.3487L12.9104 37.416L12.9145 37.4202L12.9606 37.4956L12.9646 37.5041L13.009 37.5669L13.0238 37.5921L13.057 37.6425L13.0825 37.6801L13.1054 37.718L13.1412 37.7684L13.1537 37.7893L13.1976 37.8607L13.1998 37.8649L13.25 37.9404L13.2544 37.9529L13.2962 38.0158L13.3131 38.0411L13.3445 38.0914L13.3718 38.1334L13.3929 38.1671L13.4305 38.2258L13.4412 38.2426L13.4891 38.318L13.5375 38.3978L13.5459 38.4104L13.5858 38.4732L13.6046 38.5028L13.6341 38.5489L13.6631 38.5949L13.6819 38.6286L13.7199 38.6914L13.7303 38.704L13.7786 38.7836L13.8413 38.8843L13.8498 38.8971L13.9045 38.985L13.9171 39.0101L13.9672 39.0898L13.9883 39.1233L14.0304 39.1906L14.0577 39.2366L14.0931 39.2913L14.1267 39.35L14.154 39.396L14.1962 39.4675L14.2172 39.5009L14.2651 39.5807L14.2777 39.6016L14.3368 39.694L14.3409 39.7069L14.4035 39.8073V39.8115L14.4667 39.9123L14.4729 39.925L14.5254 40.0172L14.5424 40.0381L14.5885 40.1179L14.6096 40.1555L14.6494 40.2228L14.6762 40.2689L14.7099 40.3274L14.7435 40.3864L14.7708 40.4282L14.8107 40.4994L14.8778 40.6129L14.8903 40.6338L14.945 40.7304L14.9512 40.7387L14.9552 40.7429L15.0708 40.9441L15.077 40.9569L15.1295 41.045L15.142 41.0698L15.1882 41.1496L15.2092 41.1833L15.3602 41.4518L15.4 41.519L15.4188 41.5526L15.4632 41.6322L15.4757 41.6534L15.5258 41.7413L15.5321 41.7538L15.6413 41.9512L15.6498 41.9637L15.9118 42.4378L15.9477 42.5049L15.9643 42.5341L16.0672 42.7228L16.1174 42.8152L16.1197 42.8194C16.3799 43.3019 16.6168 43.7549 16.8201 44.1661L16.8371 44.1998L16.8747 44.2752L16.9042 44.3381L16.9123 44.3506L16.984 44.5019H16.9858L17.0552 44.6445L17.0637 44.6655L17.0887 44.7158L17.0991 44.7409L17.1201 44.787C22.9809 42.6057 25.9909 43.5745 29.1771 44.6026C31.2663 45.2737 33.439 45.9702 36.6085 45.7351C39.1047 45.5507 44.8123 42.8658 49.5003 39.883C53.3806 37.4079 56.5312 34.7902 56.4263 33.3638L56.4138 33.217C56.3153 32.5163 55.8728 32.1053 55.296 31.8786C54.6393 31.6187 53.8043 31.5809 53.0537 31.6356C52.8624 31.6523 52.6738 31.6732 52.4975 31.6941C50.7568 31.9376 48.4388 32.6801 46.2198 33.6281C44.0779 34.5467 42.041 35.6586 40.7074 36.7032C40.2834 37.6388 39.2873 38.1338 38.0012 38.3351C34.9428 38.8176 30.1269 37.5172 28.2707 37.0178L27.8449 36.9045C27.5704 36.829 27.4064 36.548 27.4799 36.2752C27.5516 35.9985 27.8346 35.8348 28.1095 35.9103L28.535 36.0237C30.337 36.5061 35.0083 37.7689 37.8463 37.3199C39.1173 37.1186 39.9857 36.5396 39.8871 35.2936V35.2853V35.2726L39.8853 35.2644V35.256L39.883 35.2434V35.2351L39.8807 35.2226V35.2141L39.8784 35.2099V35.2016L39.8765 35.1931V35.1806L39.8742 35.1724L39.8719 35.1595V35.1512V35.147L39.8701 35.1388L39.8678 35.1304V35.1178L39.8655 35.1095L39.8637 35.0967V35.0842L39.8614 35.0801L39.8467 34.9963C39.4253 32.8819 35.9725 31.4555 32.0942 30.6289C28.0919 29.7774 23.6768 29.5886 21.5141 29.9284L21.2313 29.9783ZM11.5384 45.232C11.3789 45.1018 11.1672 45.0347 10.9473 45.0599C10.7287 45.085 10.5362 45.1984 10.4103 45.3578C10.2822 45.5172 10.2151 45.731 10.238 45.9494C10.2635 46.1716 10.3768 46.3606 10.5362 46.4904C10.6957 46.6121 10.9011 46.6793 11.1193 46.6582H11.1274C11.3499 46.6329 11.5407 46.5199 11.6688 46.3605C11.7923 46.205 11.8596 45.9954 11.8385 45.7771L11.8367 45.7689C11.8112 45.5508 11.6979 45.3578 11.5384 45.232ZM23.3123 58.6983C23.0289 58.6983 22.7982 58.4676 22.7982 58.1824C22.7982 57.8971 23.0289 57.6663 23.3123 57.6663H48.5564C48.8399 57.6663 49.0728 57.8971 49.0728 58.1824C49.0728 58.4676 48.8399 58.6983 48.5564 58.6983H23.3123ZM51.1408 58.6983C50.8556 58.6983 50.6248 58.4676 50.6248 58.1824C50.6248 57.8971 50.8556 57.6663 51.1408 57.6663H54.2954C54.5806 57.6663 54.8117 57.8971 54.8117 58.1824C54.8117 58.4676 54.5806 58.6983 54.2954 58.6983H51.1408ZM0.515911 58.6103C0.232881 58.6103 0 58.3795 0 58.0943C0 57.8089 0.232881 57.5783 0.515911 57.5783H12.4763C12.7615 57.5783 12.9921 57.8089 12.9921 58.0943C12.9921 58.3795 12.7615 58.6103 12.4763 58.6103H0.515911ZM37.0219 27.7969C37.2885 27.8934 37.4229 28.1912 37.3242 28.4556C37.2253 28.7199 36.9297 28.8583 36.6632 28.7574C36.634 28.7449 26.0393 24.8225 22.5506 25.6952C18.9809 26.5886 11.0771 31.0271 11.056 31.0357C10.8044 31.174 10.4941 31.0817 10.3556 30.8342C10.2191 30.5868 10.3095 30.2721 10.5589 30.1338C10.5822 30.121 18.5903 25.6239 22.3011 24.6969C26.0917 23.7486 36.9905 27.7844 37.0219 27.7969ZM7.94768 55.7323C7.66248 55.7323 7.43139 55.5017 7.43139 55.2164C7.43139 54.9354 7.66248 54.7045 7.94768 54.7045H38.4317C38.7147 54.7045 38.9476 54.9354 38.9476 55.2164C38.9476 55.5017 38.7147 55.7323 38.4317 55.7323H7.94768ZM46.1484 4.72793C44.1833 2.76471 41.4644 1.54786 38.463 1.54786C35.4612 1.54786 32.7428 2.76471 30.7773 4.72793C28.8139 6.69127 27.5954 9.40953 27.5954 12.4135C27.5954 15.4131 28.8139 18.1314 30.7773 20.0991C32.7428 22.0623 35.4612 23.2789 38.463 23.2789C41.4644 23.2789 44.1832 22.0623 46.1484 20.0991C48.1116 18.1314 49.3285 15.4131 49.3285 12.4135C49.3285 9.40953 48.1116 6.69114 46.1484 4.72793ZM38.463 0C41.8886 0 44.9907 1.38874 47.237 3.63728C49.4856 5.88582 50.8765 8.98601 50.8765 12.4134C50.8765 15.8365 49.4856 18.9409 47.2392 21.1853C44.9907 23.4338 41.8884 24.8265 38.463 24.8265C35.0375 24.8265 31.9354 23.4338 29.6885 21.1895C27.44 18.9409 26.0495 15.8365 26.0495 12.4134C26.0495 8.98601 27.44 5.88582 29.6846 3.63728C31.9354 1.38874 35.0375 0 38.463 0ZM10.834 44.0363C11.3329 43.9818 11.8134 44.1328 12.1806 44.4266C12.5456 44.716 12.8036 45.1525 12.86 45.6514L12.8623 45.6684C12.9147 46.1634 12.7615 46.6374 12.4722 47.0024C12.1806 47.3673 11.7463 47.6233 11.2451 47.6819H11.2282C10.7333 47.7366 10.259 47.5814 9.89635 47.2918C9.5291 47.0022 9.27338 46.5661 9.21647 46.0668C9.16006 45.5634 9.31102 45.0851 9.60477 44.7159C9.89622 44.3508 10.3306 44.0951 10.834 44.0363Z" fill="#22366C"/>
<circle cx="38.5" cy="12.5" r="9.5" fill="#059345"/>
<path d="M38.4584 19L35.0564 13.06V12.268H35.4524C36.0884 12.268 36.6224 12.208 37.0544 12.088C37.4984 11.968 37.8464 11.77 38.0984 11.494C38.3504 11.218 38.5004 10.84 38.5484 10.36H35.0564V9.208H38.5304C38.4464 8.764 38.2784 8.404 38.0264 8.128C37.7744 7.84 37.4324 7.63 37.0004 7.498C36.5804 7.366 36.0644 7.3 35.4524 7.3H35.0564V6.148H42.5084V7.3H39.1064C39.3824 7.528 39.6104 7.798 39.7904 8.11C39.9704 8.422 40.0844 8.788 40.1324 9.208H42.5084V10.36H40.1684C40.0844 11.236 39.7484 11.92 39.1604 12.412C38.5844 12.892 37.8164 13.198 36.8564 13.33L40.2944 19H38.4584Z" fill="white"/>
</svg>
