<svg width="56" height="60" viewBox="0 0 56 60" fill="none" xmlns="http://www.w3.org/2000/svg">
<path d="M36.9999 31.2313C32 31.2313 28 27.1218 28 21.9848C28 16.8479 32 12.7383 36.9999 12.7383C41.9999 12.7383 45.9999 16.8479 45.9999 21.9848C45.9999 27.1218 41.9999 31.2313 36.9999 31.2313Z" fill="#22366C"/>
<path d="M24.0015 21.9862C24.0015 14.589 29.8014 8.6301 37.0014 8.6301C39.2014 8.6301 41.2014 9.24653 43.0013 10.2739C43.8013 8.6301 43.6013 6.78079 42.2013 5.54792L38.0014 1.23287C36.4014 -0.410957 34.0014 -0.410957 32.4014 1.23287L30.4014 3.28766L30.2014 3.08218C29.4014 2.26026 28.2014 2.26026 27.4014 3.08218L13.2015 17.4657C11.4015 19.315 11.0015 22.1917 12.0015 24.4519L8.80155 27.7396C7.20157 29.3834 7.20157 31.8492 8.80155 33.493L11.6015 36.3697C12.4015 37.1916 13.4015 37.6026 14.4015 37.6026C15.4015 37.6026 16.4015 37.1916 17.2015 36.3697L20.4015 33.082C21.2015 33.493 22.0015 33.6985 23.0015 33.6985C24.6015 33.6985 26.0014 33.082 27.2014 31.8492L27.6014 31.4382C25.4014 28.9725 24.0015 25.6848 24.0015 21.9862Z" fill="#22366C"/>
<path d="M24.1998 47.6719H5.99996C2.59998 47.6719 0 50.3431 0 53.8362V57.9458C0 59.1787 0.799995 60.0006 1.99999 60.0006H33.7998L24.1998 47.6719Z" fill="#22366C"/>
<path d="M49.9983 21.9824C49.9983 26.9139 47.3983 31.229 43.5983 33.4892C43.9983 34.7221 44.3983 35.955 44.3983 37.3933C44.3983 43.1467 39.7984 47.6672 33.9984 47.6672H29.3984L38.5984 59.585C48.5983 57.3247 55.9983 48.2837 55.9983 37.3933C55.9983 31.6399 53.7983 26.092 49.9983 21.9824Z" fill="#22366C"/>
</svg>
