<svg width="203" height="405" viewBox="0 0 203 405" fill="none" xmlns="http://www.w3.org/2000/svg">
<g opacity="0.5">
<path fill-rule="evenodd" clip-rule="evenodd" d="M26.7656 371.018C22.0064 368.331 17.2261 365.67 12.5832 362.792C5.418 358.348 1.846 351.572 0.792715 343.404C0.493276 341.082 0.739859 338.688 0.78565 336.328C0.7927 336.092 1.1168 335.723 1.36338 335.655C2.50826 335.335 3.68134 335.099 4.77338 334.849C5.00588 336.926 5.10802 338.912 5.46735 340.849C6.87642 348.411 10.614 354.489 16.7717 359.25C23.0139 364.08 29.8691 367.849 36.7419 371.625C39.7785 373.294 42.8749 374.854 45.9115 376.524C46.7323 376.976 47.1128 376.881 47.6095 376.061C49.7583 372.531 52.0763 369.103 54.1652 365.539C56.9552 360.775 59.7804 356.012 62.2357 351.074C64.5924 346.338 66.5088 341.353 66.6145 335.956C66.6567 333.789 66.2305 331.595 65.8571 329.441C65.5612 327.718 65.1596 325.986 64.5572 324.348C63.9584 322.719 63.0495 321.204 62.1899 319.459C63.6061 319.036 64.8144 318.674 66.1142 318.286C68.0588 322.12 70.7751 325.516 71.7809 329.921C73.1621 335.971 72.5404 341.674 69.7602 347.102C67.6995 351.123 65.3181 354.983 63.0213 358.88C59.6853 364.545 56.2718 370.165 52.9358 375.831C51.4351 378.381 50.0401 380.994 48.7473 383.307C41.4941 379.255 34.1104 375.168 26.7656 371.018ZM8.54972 336.468C8.92664 334.561 9.69811 333.033 11.6286 332.093C16.969 329.498 21.3724 325.817 24.3667 320.115C24.4547 320.816 24.5569 321.148 24.5287 321.468C24.3666 323.271 24.1482 325.069 23.9968 326.873C23.7607 329.657 22.7779 332.158 21.0166 334.292C16.9796 339.176 13.5625 344.409 11.4524 350.574C9.49379 345.999 7.54926 341.541 8.54972 336.468ZM25.1733 345.035C23.7255 349.074 22.482 353.189 21.2244 357.295C20.9426 358.223 20.9884 359.252 20.851 360.547C18.755 358.825 16.7647 357.175 14.7602 355.542C12.2239 353.478 12.7241 350.703 13.8831 348.509C16.194 344.146 19.0474 340.069 21.707 335.894C22.5947 334.504 23.574 333.174 24.5604 331.748C27.2482 336.084 26.8079 340.486 25.1733 345.035ZM27.1742 315.192C27.6005 312.819 28.069 310.452 28.5023 308.167C31.2219 311.429 34.1386 314.724 36.8229 318.198C40.3985 322.825 41.7935 328.015 39.9088 333.739C39.5037 334.963 38.7076 336.108 37.8903 337.129C37.1365 338.068 36.0973 338.451 34.7903 337.936C29.693 335.922 27.3046 331.892 26.2759 326.79C25.4798 322.835 26.4803 319.026 27.1742 315.192ZM23.3803 281.019C26.0576 281.249 27.8506 282.867 28.9145 285.192C29.4922 286.457 29.6437 287.915 29.9889 289.285C29.7494 293.965 26.2196 296.858 21.6225 295.956C19.3997 295.521 18.4661 293.63 17.5291 291.914C16.1588 289.394 16.0108 286.694 17.4621 284.16C18.7303 281.948 20.77 280.795 23.3803 281.019ZM20.8193 303.201C17.677 302.772 14.5348 302.039 11.5264 301.045C8.31721 299.986 6.2987 297.453 4.40701 294.664C1.54658 290.448 1.15202 285.737 0.820873 280.952C0.803264 280.657 1.40214 280.158 1.80725 280.021C6.02746 278.589 10.1737 276.985 12.8967 273.207C14.1085 271.525 14.954 269.58 16.0601 267.585C16.9584 270.627 17.8391 273.606 18.7162 276.586C18.8395 277.009 18.8818 277.47 19.0756 277.856C19.7343 279.158 19.6146 280.021 18.2513 280.964C13.9078 283.967 13.1222 291.731 17.4481 296.024C21.4147 299.961 27.8859 298.763 30.4469 295.18C32.8423 291.828 33.5116 286.847 29.7176 282.817C27.9774 280.97 26.0083 279.677 23.4402 279.459C22.2108 279.354 21.7599 278.721 21.4921 277.508C20.7207 273.97 19.7519 270.474 18.8149 266.794C20.8686 268.006 22.6194 269.169 24.4829 270.11C27.5195 271.646 30.7956 271.449 34.0611 271.129C34.1703 271.118 34.269 271.06 34.3782 271.038C38.6723 270.145 38.6724 270.145 40.5006 274.198C42.5614 278.764 43.1497 283.454 42.0506 288.401C41.1911 292.274 38.6583 294.902 35.9035 297.401C34.6847 298.508 33.2967 299.433 31.9616 300.409C28.6291 302.847 24.8246 303.749 20.8193 303.201ZM1.72977 249.579C0.324202 245.921 0.377059 245.901 4.24852 244.591C5.11157 246.382 5.81961 248.252 6.85528 249.919C8.58845 252.703 10.9451 253.34 14.3481 252.231C16.585 251.502 18.0364 249.299 17.973 246.511C17.9307 244.654 17.7193 242.799 17.5855 240.944C18.755 240.765 19.8928 240.591 21.2491 240.384C22.1297 242.684 22.866 245.11 22.2354 247.622C21.323 251.237 19.7414 254.389 15.9439 255.988C9.5713 258.675 3.50874 254.213 1.72977 249.579ZM6.89055 241.815C8.03541 239.931 8.44755 237.6 9.19437 235.422C10.4308 237.914 12.5938 239.669 15.3345 240.75C15.5176 240.823 15.7325 241.031 15.7783 241.214C16.3948 243.72 17.1099 246.232 16.0038 248.785C15.2217 250.59 13.633 251.235 11.854 251.292C10.1208 251.347 8.84561 250.318 7.95788 248.902C7.4647 248.115 7.20755 247.182 6.76369 246.36C5.91472 244.802 5.85487 243.515 6.89055 241.815ZM6.6862 231.705C3.32201 231.175 0.570786 227.614 0.746918 224.156C0.764527 223.847 0.838502 223.393 1.04634 223.264C3.23042 221.899 3.39598 219.521 4.11813 217.292C5.80199 218.904 7.05258 220.888 9.61711 220.881C9.84961 220.88 10.1244 221.27 10.304 221.532C12.3296 224.516 11.699 229.129 8.87378 231.266C8.33481 231.675 7.38722 231.815 6.6862 231.705ZM1.0393 180.958C0.83498 180.827 0.768071 180.372 0.753972 180.061C0.57784 176.619 3.34316 173.072 6.69678 172.494C8.62018 172.163 9.57834 173.579 10.4696 174.877C11.9526 177.037 11.773 180.765 10.1878 182.843C10.0293 183.05 9.83904 183.293 9.61359 183.378C6.3727 184.582 6.36914 184.575 4.11814 186.931C3.40302 184.696 3.19872 182.336 1.0393 180.958ZM6.06267 161.06C5.91825 160.9 5.90066 160.492 5.99576 160.277C6.88349 158.288 7.5387 156.119 8.80335 154.396C10.0398 152.709 12.0724 152.479 14.0487 153.475C15.8206 154.368 16.5709 155.898 16.5216 157.801C16.4829 159.17 16.3067 160.538 16.1271 161.899C16.0002 162.854 15.5212 163.366 14.5489 163.912C12.8228 164.882 11.4031 166.405 9.89539 167.741C9.51493 168.08 9.27894 168.582 8.72939 169.358C8.72234 166.031 8.07767 163.308 6.06267 161.06ZM4.20974 159.712C3.88917 159.565 3.45238 159.358 3.01205 159.166C0.60604 158.119 0.775122 158.161 1.41625 155.49C2.41317 151.328 8.26086 146.796 12.5515 147.445C15.6374 147.912 18.3781 148.901 20.1747 151.682C22.7145 155.617 23.0774 159.387 21.2068 163.853C19.921 163.664 18.7339 163.489 17.5749 163.319C17.7123 161.415 17.9272 159.513 17.973 157.607C18.0364 154.892 16.4793 152.635 14.2354 151.978C10.8219 150.978 8.49688 151.619 6.86939 154.284C5.84429 155.963 5.12211 157.825 4.20974 159.712ZM16.733 118.247C16.0672 114.801 17.6489 110.396 20.1148 108.922C22.6546 107.399 25.0536 108.548 27.3575 109.521C29.7846 110.548 29.7564 112.85 29.7493 115.045C29.7458 119.044 27.6428 122.163 24.3596 123.037C21.006 123.929 17.3917 121.659 16.733 118.247ZM1.81785 124.185C1.41625 124.053 0.813852 123.571 0.827951 123.279C0.926584 121.36 1.16966 119.448 1.3634 117.534C1.7967 113.226 4.07237 109.785 6.65452 106.522C8.4053 104.31 10.9135 103.127 13.5379 102.426C16.1764 101.721 18.9171 101.31 21.6401 100.999C26.195 100.479 30.084 102.227 33.5926 104.952C36.5728 107.265 39.5037 109.676 41.0995 113.205C41.79 114.732 42.2761 116.419 42.4875 118.079C43.192 123.574 41.5821 128.575 38.7745 133.229C38.5561 133.591 37.6825 133.733 37.133 133.692C34.417 133.492 31.7045 132.988 28.9885 132.989C25.9766 132.99 23.3556 134.4 20.9391 136.138C20.3226 136.582 19.6991 137.022 18.7937 137.668C19.8153 133.5 20.7066 129.65 21.7528 125.841C21.8796 125.381 22.7956 124.938 23.4015 124.841C27.8718 124.128 30.9224 121.531 31.9194 117.292C33.2967 111.424 30.1968 105.745 22.9153 105.888C18.5683 105.973 16.3948 108.714 15.0562 111.94C13.7105 115.184 14.2741 118.697 16.5815 121.654C16.9197 122.086 17.2085 122.676 17.663 122.877C19.8471 123.851 19.5159 125.306 18.8712 127.16C17.8109 130.217 17.0394 133.375 16.0178 136.946C15.6339 136.072 15.3908 135.568 15.19 135.047C12.8192 128.86 7.66906 126.105 1.81785 124.185ZM30.1967 69.5403C31.4755 68.3181 33.029 67.3542 34.5508 66.428C35.981 65.5581 37.2316 66.1683 38.158 67.3852C40.6979 70.7214 41.1876 74.5048 40.4091 78.5114C39.5777 82.7858 36.9603 86.0864 34.2937 89.3247C32.3843 91.6427 30.3377 93.8468 28.4882 95.9509C27.6992 91.78 26.593 87.4106 26.1139 82.9733C25.582 78.0328 26.357 73.2186 30.1967 69.5403ZM17.3107 62.167C15.3767 59.1754 13.4287 56.1594 13.1222 52.3904C13.0024 50.9089 13.5168 49.9834 14.4925 49.1211C16.5428 47.3158 18.6035 45.5246 20.8968 43.5187C21.0271 49.2197 23.095 53.9881 25.0078 58.7918C26.2548 61.9295 26.9136 65.1329 26.2302 68.4628C25.9413 69.8778 25.2192 71.2049 24.6661 72.647C22.1086 69.0286 19.5829 65.6805 17.3107 62.167ZM11.0896 71.8588C8.73994 70.7094 8.27144 68.2407 8.37007 66.025C8.48985 63.2608 9.17679 60.5056 9.79678 57.7853C10.1103 56.4163 10.8183 55.1389 11.2164 54.1535C13.1469 57.6304 15.035 61.2658 17.1627 64.7554C18.5049 66.9576 20.224 68.9291 21.7458 71.024C23.3275 73.1978 23.9299 75.6669 24.0144 78.3305C24.0708 80.1168 24.342 81.8968 24.5181 83.6792C21.2491 78.2478 16.6343 74.5713 11.0896 71.8588ZM5.57655 62.6921C5.20666 64.8546 5.02702 67.0495 4.74872 69.3669C3.76236 69.1543 2.63156 68.9917 1.5677 68.6334C1.21896 68.5166 0.845565 67.9001 0.824431 67.4939C0.729308 65.7446 0.542617 63.9562 0.796264 62.2423C1.21898 59.376 1.74739 56.4938 2.60341 53.7312C4.61136 47.263 9.42337 43.1069 15.021 39.8587C22.7145 35.3894 30.5526 31.17 38.3166 26.8168C41.8217 24.8531 45.2915 22.8331 48.6029 20.9362C50.9983 24.9762 53.4924 29.2379 56.0428 33.475C59.6008 39.3872 63.282 45.2325 66.7519 51.2009C69.3904 55.7406 71.7288 60.4387 72.4062 65.7713C72.8402 69.1849 72.466 72.5535 71.2535 75.6929C69.8941 79.2082 68.0518 82.5369 66.3855 86.0248C64.7933 85.5525 63.5814 85.1936 62.2639 84.8022C62.3872 84.4025 62.4048 83.9907 62.6127 83.7296C64.987 80.745 65.4309 77.0467 66.2129 73.537C67.386 68.2699 66.2657 63.1756 64.36 58.2041C60.95 49.3252 55.7505 41.4248 50.8715 33.3483C49.8218 31.6098 48.6628 29.9382 47.6165 28.1927C47.1727 27.4537 46.8662 27.1863 45.9573 27.6895C41.9062 29.9277 37.7389 31.9582 33.723 34.2598C28.9814 36.973 24.2152 39.6898 19.7132 42.7726C15.803 45.4542 12.0266 48.4806 9.58186 52.6649C8.34892 54.7694 7.60916 57.1624 6.68974 59.4393C6.25996 60.5021 5.77029 61.5768 5.57655 62.6921ZM100.493 28.4391C103.791 41.5479 107.039 54.4562 110.337 67.5644C107.561 67.5644 105.2 67.6115 102.844 67.52C102.428 67.5038 101.765 66.9717 101.67 66.5709C99.5948 57.7888 97.5653 48.9945 95.5729 40.1931C95.0699 37.9725 95.0019 37.8704 92.7568 38.5672C85.2281 40.9004 77.7022 43.2441 70.1689 45.5668C69.0135 45.9222 67.8369 46.3551 66.6497 46.4361C66.0685 46.4748 65.216 45.9292 64.8708 45.3979C63.7576 43.6911 62.8241 41.8682 61.644 39.7707C74.3754 35.1959 87.4439 32.2363 100.493 28.4391ZM74.027 66.4491C74.0495 66.181 74.2993 65.8139 74.5413 65.7013C76.4235 64.8226 78.33 63.9952 80.4672 63.0464C80.668 65.1639 80.8068 66.8679 81.0002 68.5662C81.1178 69.6023 80.7567 70.1801 79.8327 70.7889C77.773 72.147 75.8767 73.7517 73.9075 75.2477C73.6997 75.4057 73.4503 75.5095 73.3298 75.5775C73.556 72.5292 73.7698 69.4872 74.027 66.4491ZM70.9228 55.6808C69.6581 53.3441 68.2807 50.8033 66.8294 48.1252C75.907 45.3556 84.8374 42.6248 93.8087 39.8869C95.9209 49.0121 98.0152 58.0563 100.144 67.2547C97.1264 67.4102 94.3287 67.5545 91.4834 67.7009C90.7496 63.2833 90.0222 58.8411 89.268 54.4069C89.1024 53.4321 88.7353 52.4784 88.6515 51.5001C88.5183 49.9482 87.7976 49.6209 86.4262 50.1171C81.3401 51.9576 76.2459 53.7735 70.9228 55.6808ZM87.0895 51.3629C87.6722 54.3471 88.2404 57.0674 88.7251 59.8018C89.0897 61.8612 89.3 63.9463 89.6685 66.0029C89.8897 67.2381 89.8274 67.9321 88.251 68.0838C86.404 68.2608 84.5972 68.8495 82.7577 69.2634C82.3237 66.6416 81.9076 64.1265 81.4437 61.322C79.8651 61.8703 78.6727 62.2409 77.5137 62.6973C76.3368 63.1608 75.1933 63.7091 73.9266 64.2683C73.1674 61.927 72.4301 59.654 71.6157 57.1448C76.6824 55.2515 81.7322 53.3653 87.0895 51.3629ZM111.741 69.2725C117.496 69.3503 123.25 69.489 129.005 69.533C130.358 69.5432 131.712 69.2771 133.002 69.1448C133.002 76.0494 132.936 82.9336 133.026 89.8156C133.081 93.9848 133.667 98.163 133.492 102.315C133.235 108.45 133.642 114.782 130.816 120.497C128.454 125.273 125.171 129.34 120.206 131.776C118.573 132.577 117.037 133.578 115.599 134.407C114.584 133.483 113.602 132.59 112.546 131.629C114.389 130.337 116.317 129.307 117.841 127.854C121.977 123.909 125.586 119.621 126.947 113.784C128.382 107.631 128.87 101.424 128.806 95.1454C128.747 89.1632 128.657 83.1809 128.552 77.1994C128.538 76.3791 128.418 75.549 128.233 74.7501C128.167 74.4658 127.796 74.1142 127.506 74.0477C126.812 73.8883 126.083 73.8274 125.367 73.8182C117.78 73.7183 110.192 73.5181 102.606 73.587C96.5977 73.6419 90.6319 74.3584 84.9791 76.5593C81.9238 77.7484 79.1666 79.4598 77.0368 82.0763C76.2537 83.0384 75.0486 83.6571 74.2641 84.6185C72.986 86.1856 71.8957 87.9054 70.5927 89.7491C69.644 88.6655 68.8056 87.708 67.696 86.4386C69.6511 83.5582 71.5336 80.1615 74.015 77.28C77.8089 72.8747 82.764 70.2632 88.6321 69.5604C93.5674 68.9692 98.4922 68.7091 103.469 69.2039C106.202 69.4759 108.983 69.2353 111.741 69.2725ZM134.359 113.356C134.443 113.001 135.153 112.494 135.499 112.546C140.551 113.307 145.59 114.152 151.031 115.041C149.012 120.439 147.115 125.512 145.211 130.603C142.717 129.815 140.47 129.104 138.153 128.372C139.093 125.984 140.023 123.619 141.136 120.79C138.187 120.328 135.662 119.934 133.12 119.536C133.506 117.536 133.864 115.43 134.359 113.356ZM134.742 91.9669C147.803 95.2362 160.765 98.4812 173.955 101.783C170.147 114.829 167.143 127.849 162.619 140.621C160.178 139.216 157.945 137.93 155.639 136.604C156.237 134.338 156.709 132.253 157.34 130.217C159.462 123.366 161.651 116.536 163.794 109.691C164.559 107.247 164.517 107.303 161.977 106.734C155.692 105.327 149.42 103.857 143.145 102.406C140.784 101.861 138.435 101.268 136.067 100.762C135.191 100.574 134.717 100.223 134.731 99.2617C134.764 96.9718 134.742 94.6815 134.742 91.9669ZM151.263 113.729C145.747 112.746 140.243 111.702 134.868 110.704L134.868 102.103C144.25 104.258 153.338 106.344 162.484 108.444C159.768 117.327 157.033 126.269 154.245 135.389C151.591 133.971 149.107 132.644 146.556 131.282C147.851 127.906 149.162 124.579 150.401 121.225C151.128 119.257 151.765 117.254 152.39 115.25C152.683 114.311 152.234 113.902 151.263 113.729ZM126.803 128.916C127.735 127.72 128.768 126.443 129.746 125.125C130.433 124.198 131.131 123.261 131.663 122.244C132.071 121.465 132.498 121.068 133.418 121.192C135.25 121.439 137.093 121.613 139.245 121.853C138.312 123.971 137.499 125.88 136.612 127.753C136.497 127.994 136 128.147 135.666 128.177C132.726 128.443 129.784 128.673 126.803 128.916ZM164.334 143.389C170.134 146.784 175.864 150.298 181.423 153.638C177.066 161.31 172.557 169.274 168.023 177.223C165.561 181.537 163.212 185.926 160.534 190.103C156.082 197.049 149.317 200.327 141.344 201.348C139.896 201.534 138.383 201.155 136.897 201.118C135.923 201.093 134.352 201.604 134.084 201.196C133.368 200.106 133.211 198.649 132.799 197.221C134.567 197.119 136.162 197.141 137.722 196.916C146.567 195.642 153.467 191.156 158.526 183.894C161.173 180.094 163.611 176.141 166 172.171C167.965 168.906 169.734 165.523 171.558 162.174C172.634 160.2 173.697 158.216 174.643 156.179C174.815 155.809 174.558 154.887 174.221 154.686C165.79 149.668 157.428 144.517 148.815 139.826C144.224 137.325 139.14 135.675 133.809 135.569C131.54 135.523 129.266 136.276 126.98 136.529C123.604 136.904 120.595 138.167 117.591 140.236C117.14 138.744 116.762 137.492 116.394 136.273C121.95 132.232 127.96 129.493 135.037 129.726C138.652 129.845 142.075 130.786 145.185 132.473C151.643 135.975 157.993 139.678 164.334 143.389ZM185.312 187.003C190.055 191.576 194.769 196.18 199.52 200.744C200.401 201.59 200.746 202.327 199.729 203.316C195.443 207.489 191.215 211.722 186.899 215.864C181.928 220.636 176.888 225.335 171.718 230.216C170.43 227.915 169.218 225.877 168.163 223.761C167.956 223.347 168.154 222.416 168.506 222.087C175.002 216.01 181.538 209.975 188.095 203.962C189.974 202.24 189.977 202 188.079 200.263C183.549 196.119 179.058 191.932 174.549 187.765C172.61 185.972 170.706 184.136 168.706 182.413C167.873 181.695 167.713 181.04 168.239 180.13C169.341 178.22 170.431 176.303 171.752 173.992C176.392 178.442 180.861 182.712 185.312 187.003ZM160.851 202.127C158.956 203.483 157.326 204.681 155.652 205.816C155.406 205.982 154.904 205.971 154.612 205.84C151.818 204.583 149.044 203.283 146.469 202.092C149.182 200.91 152.185 199.602 155.405 198.2C156.999 199.349 158.811 200.656 160.851 202.127ZM174.407 202.107C169.996 205.738 165.818 209.177 161.552 212.689C159.772 210.707 158.226 208.985 156.622 207.2C158.196 205.943 159.797 204.641 161.424 203.373C162.549 202.496 162.493 201.698 161.398 200.845C159.797 199.599 158.222 198.319 156.622 197.042C158.243 195.237 159.814 193.485 161.543 191.559C165.75 195.009 169.912 198.422 174.407 202.107ZM175.019 200.794C170.826 197.298 166.663 193.765 162.454 190.215C163.924 187.853 165.434 185.429 167.006 182.904C173.881 189.313 180.69 195.66 187.616 202.116C180.773 208.5 173.96 214.855 167.018 221.33C165.494 218.892 163.967 216.448 162.411 213.958C165.748 211.224 169.069 208.514 172.374 205.784C173.396 204.94 174.412 204.081 175.353 203.15C176.233 202.281 175.899 201.528 175.019 200.794ZM175.255 239.751C177.322 243.456 179.45 247.125 181.464 250.658C177.519 252.975 173.292 255.419 169.104 257.929C163.132 261.506 157.247 265.233 151.21 268.695C148.254 270.392 145.074 271.72 141.932 273.067C136.803 275.266 131.512 275.032 126.408 273.216C122.913 271.972 119.67 270.022 116.269 268.366C116.735 266.844 117.13 265.554 117.524 264.267C119.537 265.191 121.362 266.226 123.312 266.888C130.398 269.293 137.391 269.16 144.416 266.299C152.753 262.902 160.349 258.211 167.96 253.517C170.015 252.25 172.016 250.891 174.114 249.7C175.03 249.18 175.123 248.784 174.624 247.895C170.874 241.215 167.141 234.527 163.463 227.807C160.651 222.67 157.129 218.086 152.871 214.084C150.015 211.4 146.62 209.76 142.813 208.645C139.609 207.706 136.477 206.872 132.823 207.157C133.193 205.68 133.498 204.461 133.786 203.311C141.539 202.202 148.735 203.378 154.997 208.114C158.749 210.951 161.377 214.847 163.674 218.904C167.59 225.821 171.382 232.81 175.255 239.751ZM174.028 302.433C160.842 305.741 147.879 308.994 134.771 312.283L134.771 303.792C140.942 302.347 146.942 300.921 152.954 299.544C156.229 298.794 159.52 298.103 162.812 297.431C164.071 297.174 164.435 296.629 164.026 295.339C161.67 287.926 159.373 280.493 157.074 273.061C156.732 271.956 156.639 270.748 156.154 269.718C155.394 268.102 156.125 267.26 157.407 266.549C159.051 265.64 160.698 264.735 162.911 263.515C166.634 276.548 170.288 289.342 174.028 302.433ZM151.648 286.599C150.137 282.055 148.339 277.607 146.605 272.955C149.049 271.639 151.559 270.287 154.24 268.843C157.024 277.94 159.745 286.83 162.488 295.795C153.424 297.883 144.341 299.975 134.929 302.142L134.929 293.457C139.493 292.667 144.358 291.884 149.199 290.97C153.319 290.191 152.955 290.529 151.648 286.599ZM134.269 290.664C133.945 288.671 133.502 286.698 133.115 284.753C135.618 284.344 138.141 283.932 141.134 283.443C140.067 280.733 139.156 278.42 138.179 275.937C140.411 275.193 142.675 274.438 145.194 273.598C147.105 278.707 149.003 283.778 151.011 289.149C147.286 289.799 143.9 290.397 140.511 290.979C138.997 291.238 137.479 291.483 135.957 291.698C135.142 291.814 134.448 291.772 134.269 290.664ZM126.806 275.374C129.775 275.59 132.656 275.791 135.535 276.02C135.884 276.048 136.424 276.13 136.53 276.352C137.449 278.272 138.289 280.229 139.278 282.458C136.961 282.659 135.009 282.848 133.052 282.98C132.722 283.003 132.23 282.886 132.058 282.652C130.278 280.248 128.546 277.807 126.806 275.374ZM126.758 275.304C126.75 275.241 126.743 275.274 126.758 275.304V275.304ZM46.0278 300.521C48.3598 302.042 51.0159 302.775 53.8834 302.702C58.3678 302.588 60.964 299.274 61.9575 294.833C62.8029 291.041 62.3203 287.282 60.8725 283.545C63.0988 282.875 65.0856 282.277 67.2415 281.627C68.9113 285.319 70.028 289.011 69.5982 293.121C69.1226 297.644 67.9601 301.825 65.1913 305.555C62.1371 309.673 57.9874 310.857 53.2423 310.219C50.4347 309.842 47.6412 309.075 44.9639 308.143C40.8001 306.695 37.8727 303.618 35.3117 300.038C36.904 298.56 38.4786 297.101 39.9828 295.703C41.9978 297.33 43.886 299.121 46.0278 300.521ZM43.6182 289.343C45.0062 290.438 46.3483 291.62 47.8138 292.621C49.4307 293.725 51.3012 294.405 53.0837 293.178C54.7746 292.011 54.7077 289.976 54.6302 288.187C54.5633 286.624 54.0701 285.078 53.7566 283.463C55.6025 283.587 57.4519 283.711 59.3612 283.839C60.7456 287.656 61.5558 291.609 60.1749 295.581C58.248 301.112 55.0036 302.082 49.0679 300.3C45.7072 299.291 43.4491 296.752 41.1981 294.285C42.0224 292.603 42.8327 290.947 43.6182 289.343ZM49.5681 281.389C50.8504 282.146 51.9952 282.921 52.1784 284.538C52.3722 286.257 52.7949 287.991 52.6892 289.692C52.5835 291.48 51.2836 292.108 49.6103 291.563C46.2849 290.48 44.0445 287.364 43.974 283.931C43.9282 281.646 43.7063 279.364 43.5971 277.619C45.3338 278.723 47.4157 280.118 49.5681 281.389ZM57.4766 260.725C59.629 257.997 62.7606 257.496 66.0332 259.207C68.5802 260.539 69.9047 262.845 70.5983 265.447C70.8586 266.422 70.5733 267.848 69.9857 268.682C68.6471 270.589 67.164 272.53 64.4128 272.837C61.2177 272.223 58.5158 270.735 56.9904 267.695C55.8139 265.35 55.7293 262.937 57.4766 260.725ZM40.8142 268.329C43.1286 266.065 45.1365 263.437 45.9644 260.35C46.7464 257.434 46.7112 254.299 47.0459 251.145C49.7125 253.673 52.5483 256.319 55.3066 259.041C55.599 259.33 55.6588 260.156 55.4721 260.579C52.8336 266.609 55.8174 274.496 64.684 275.087C67.6079 275.283 70.0421 273.39 71.5695 270.869C73.6768 267.391 73.1688 262.888 70.5821 259.985C67.939 257.018 62.8874 255.467 58.7483 257.485C57.9345 257.881 57.4061 257.81 56.8812 257.26C54.2286 254.495 51.6042 251.707 48.8354 248.786C51.0688 248.786 53.0732 248.936 55.0424 248.739C56.61 248.582 58.308 248.304 59.6395 247.542C62.0174 246.182 64.2261 244.497 66.3679 242.78C67.1781 242.131 67.6607 241.992 68.4709 242.607C70.2323 243.937 72.1853 245.045 73.8008 246.525C77.2837 249.716 79.4667 253.75 80.1836 258.404C80.452 260.145 80.1336 262.069 79.6886 263.809C78.7435 267.505 77.4144 271.096 75.181 274.238C72.8011 277.587 69.2037 279.218 65.4872 280.507C63.2644 281.279 60.9288 281.784 58.6038 282.181C55.8773 282.647 53.3973 281.636 50.9631 280.5C46.3695 278.358 43.1321 274.854 40.5887 270.57C40.0321 269.634 40.0251 269.102 40.8142 268.329ZM24.8 262.861C27.9704 266.234 33.7969 266.716 37.0625 264.006C40.1378 261.453 41.2439 257.912 40.3245 254.152C39.62 251.276 38.063 248.609 36.8723 245.812C37.8199 245.25 39 244.548 40.1871 243.841C46.3589 248.857 46.8063 258.097 42.6847 263.5C40.9657 265.757 39.6024 268.289 36.6045 269.037C29.5627 270.796 24.0989 269.954 19.0967 264.361C17.5502 262.628 16.8598 260.129 15.7431 257.916C16.6942 257.409 17.3776 257.075 18.0293 256.688C18.6423 256.326 19.22 255.908 19.456 255.751C21.2385 258.162 22.792 260.726 24.8 262.861ZM23.3627 249.686C24.5639 252.114 25.6701 254.701 27.0932 257.099C28.1677 258.913 30.4257 259.643 31.9264 259.093C34.2831 258.229 35.4068 255.871 34.2619 253.407C33.3707 251.487 32.0074 249.781 30.8202 248.003C30.4046 247.383 29.8867 246.833 29.2949 246.1C31.1373 246.19 32.719 246.26 34.2972 246.357C34.4909 246.369 34.7445 246.477 34.8608 246.625C37.5486 250.04 39.7222 253.597 38.771 258.271C37.3831 265.1 29.9184 265.294 26.1386 262.076C23.7819 260.069 22.3834 257.493 21.2456 254.72C21.1258 254.424 21.1504 253.972 21.2913 253.682C21.9606 252.304 22.6969 250.956 23.3627 249.686ZM32.2681 252.586C33.4693 254.687 33.2051 256.788 31.8489 257.502C30.5772 258.17 28.8863 257.408 27.7132 255.322C25.8392 251.993 24.4759 248.475 24.5358 244.411C27.8224 246.592 30.3869 249.286 32.2681 252.586ZM24.9867 236.688C26.2725 237.647 27.4843 238.683 28.8194 239.528C33.2686 242.346 36.2135 240.539 38.373 236.914C39.3487 235.273 38.9577 233.215 37.8692 231.534C36.8864 230.011 35.7626 228.575 34.6494 227.027C35.5865 226.24 36.4707 225.497 37.3514 224.757C40.9727 226.588 43.2765 231.653 42.7375 236.381C42.3324 239.938 38.4082 244.176 34.896 244.635C29.9361 245.283 25.7053 243.978 22.6229 239.472C23.3944 238.565 24.1729 237.648 24.9867 236.688ZM13.0658 224.606C15.6233 226.427 18.2055 226.708 20.9602 225.98C21.3125 225.887 21.9572 226.108 22.1615 226.398C24.8775 230.217 25.6771 233.776 22.4257 237.299C19.9457 239.988 15.7924 240.197 12.9637 237.583C11.8118 236.517 10.9029 235.145 10.0786 233.793C9.83549 233.392 10.0574 232.424 10.4097 231.99C12.6607 229.198 12.9918 228.267 13.0658 224.606ZM7.55629 207.912C7.06664 207.332 6.68619 206.661 5.97814 205.629C10.385 205.671 13.9993 206.569 16.5885 209.909C16.9655 210.398 17.2755 211.535 17.0253 211.787C16.5357 212.284 15.5951 212.654 14.8976 212.578C11.7202 212.236 9.5114 210.231 7.55629 207.912ZM3.74828 208.215C6.96803 210.36 9.59242 212.69 10.4203 216.469C10.5365 217 10.6281 217.601 10.4943 218.106C10.2371 219.055 9.64882 219.769 8.56383 219.103C7.6761 218.558 6.76723 217.964 6.08031 217.199C4.45986 215.387 3.32555 210.942 3.74828 208.215ZM10.4696 187.361C10.0927 190.513 8.053 192.689 5.74915 194.637C5.17847 195.123 4.4986 195.484 3.51577 196.134C3.55452 191.84 4.42463 188.264 7.66199 185.675C8.18688 185.257 9.41278 184.867 9.64881 185.11C10.1666 185.644 10.5577 186.626 10.4696 187.361ZM14.0909 191.817C14.6757 191.682 15.3063 191.629 15.9016 191.681C17.0712 191.782 17.5643 192.612 16.9584 193.62C16.3983 194.549 15.7677 195.583 14.8941 196.145C12.3155 197.804 9.49732 198.878 5.98519 198.587C8.15869 195.356 10.3674 192.676 14.0909 191.817ZM24.4054 172.883C24.106 173.706 23.9897 174.603 23.6304 175.393C22.2847 178.362 22.2707 178.117 19.0826 177.983C17.0923 177.899 15.0667 178.65 13.0235 179.034C13.3758 176.397 12.0583 174.059 10.1631 171.928C9.94471 171.68 9.81789 171.116 9.94471 170.828C11.4876 167.317 14.6017 164.068 19.3574 165.044C22.0875 165.605 25.4129 170.101 24.4054 172.883ZM29.006 159.967C32.3597 159.193 35.6041 159.021 38.6301 161.314C45.133 166.241 43.2801 175.181 38.0841 179.129C37.8199 179.331 37.0907 179.186 36.7419 178.956C36.0127 178.476 35.3928 177.831 34.6248 177.167C35.6076 175.866 36.6222 174.628 37.5134 173.308C39.3945 170.53 39.0916 167.883 37.1541 165.617C34.5649 162.582 31.2007 163.087 29.0025 164.577C27.6392 165.499 26.357 166.534 25.0078 167.542C24.261 166.679 23.4719 165.771 22.5631 164.719C24.2434 162.524 26.1808 160.619 29.006 159.967ZM26.896 158.074C26.2161 158.686 25.4376 159.188 24.5111 159.889C24.6168 155.365 25.9554 151.492 28.372 147.992C29.0765 146.969 30.1298 146.286 31.4896 146.682C32.948 147.107 33.4905 148.635 32.7331 150.569C31.5354 153.628 29.2844 155.919 26.896 158.074ZM21.0729 149.888C22.7814 145.87 24.6485 141.899 29.2738 140.522C34.6389 138.923 38.4399 141.997 38.9718 147.175C39.3945 151.288 37.3302 154.501 34.9136 157.536C34.7657 157.721 34.4592 157.862 34.2197 157.878C32.6838 157.975 31.1443 158.031 29.4006 158.11C30.7921 156.288 32.1025 154.726 33.2298 153.042C33.8286 152.145 34.3218 151.074 34.505 150.02C34.9313 147.542 34.0365 145.953 32.0532 145.165C30.5455 144.567 28.2733 145.278 27.1637 147.051C26.0329 148.857 25.2121 150.859 24.2891 152.791C23.9897 153.416 23.7889 154.088 23.5177 154.811C22.6793 153.247 21.8973 151.802 21.1293 150.35C21.0624 150.22 21.0201 150.014 21.0729 149.888ZM40.9938 138.284C44.7385 142.831 46.5597 147.919 44.6716 153.66C43.8578 156.14 42.0612 158.298 40.6697 160.667C38.9577 159.667 37.7283 158.949 36.8441 158.434C38.0066 155.721 39.4756 153.047 40.3034 150.187C41.7054 145.337 38.3342 139.41 34.0752 138.764C29.538 138.076 25.7582 139.512 23.0069 143.197C21.7634 144.86 20.8264 146.752 19.7273 148.58C18.6176 147.935 17.3635 147.207 16.1059 146.474C17.5009 138.695 24.3913 134.358 30.2989 134.491C32.1448 134.533 34.0048 134.671 35.826 134.973C37.9749 135.33 39.6059 136.598 40.9938 138.284ZM56.0323 139.846C55.9654 136.047 60.6435 131.431 64.515 131.477C67.0407 131.507 70.7878 135.327 70.7618 137.848C70.7209 141.722 66.1812 146.221 62.3872 146.144C59.245 146.081 56.0887 142.951 56.0323 139.846ZM56.1133 122.132C57.9381 121.811 59.9742 122.15 61.8166 122.592C65.54 123.483 69.1332 124.843 72.2702 127.089C75.6044 129.476 77.2594 133.061 78.5223 136.79C79.2779 139.021 79.8162 141.35 80.1896 143.677C80.6151 146.332 79.6647 148.784 78.5568 151.169C76.4234 155.761 72.9254 159.008 68.633 161.554C67.629 162.15 67.083 162.117 66.234 161.311C63.4053 158.624 60.2736 156.261 56.3282 155.647C53.9715 155.281 51.5126 155.58 48.705 155.58C51.562 152.573 54.2005 149.791 56.8425 147.01C57.459 146.358 58.0613 146.446 58.868 146.808C64.994 149.545 72.8335 145.62 73.0188 137.405C73.1114 133.307 67.4282 128.164 62.5563 129.404C56.5994 130.919 53.739 136.749 54.7711 141.449C54.9226 142.145 55.0882 142.888 55.4616 143.473C55.9512 144.243 55.7822 144.809 55.2221 145.343C52.4532 147.987 49.6667 150.613 46.757 153.368C46.757 151.184 46.9613 149.207 46.6971 147.295C46.4435 145.476 45.9926 143.562 45.1013 141.985C43.8155 139.702 42.0295 137.702 40.5218 135.536C40.2787 135.187 40.1625 134.48 40.3527 134.142C43.8578 127.863 48.8565 123.411 56.1133 122.132ZM52.9464 116.136C52.7174 117.7 52.4215 119.308 51.7945 120.739C51.4211 121.588 50.4171 122.228 49.5822 122.795C47.4721 124.23 45.2986 125.572 43.6148 126.652C43.7169 124.58 43.9001 121.796 43.9776 119.008C44.0551 116.339 48.0463 112.43 50.7165 112.504C52.1291 112.543 53.2282 114.181 52.9464 116.136ZM49.4765 103.778C55.8843 101.907 59.6008 103.972 60.721 111.171C61.2283 114.437 60.6259 117.029 59.2873 120.492C58.3925 120.492 57.4554 120.443 56.5254 120.507C55.606 120.571 54.6937 120.75 53.9962 120.847C54.1864 118.585 54.5422 116.377 54.514 114.174C54.4682 111.129 52.1714 109.596 49.399 110.888C47.303 111.864 45.4677 113.397 43.5055 114.688C42.8256 113.285 42.0366 111.656 41.2158 109.96C43.4774 107.355 45.9397 104.81 49.4765 103.778ZM50.5474 94.3106C52.9288 93.8563 55.4792 94.0442 57.9275 94.2448C62.6373 94.6316 65.0751 97.9621 67.0583 101.754C69.2741 105.987 70.102 110.528 69.4996 115.216C69.1755 117.725 68.2068 120.152 67.5057 122.692C65.0751 121.956 63.0883 121.353 61.3023 120.813C61.6334 117.97 62.0632 115.216 62.2463 112.446C62.4718 109.023 61.2001 106.047 58.9138 103.539C57.0433 101.483 54.4893 101.502 52.0199 101.714C48.2365 102.04 45.052 103.729 42.4241 106.462C41.6949 107.221 40.9762 107.989 40.2364 108.766C38.5526 107.208 36.978 105.754 35.361 104.256C38.9154 98.5896 44.196 95.5226 50.5474 94.3106ZM97.3459 101.777C99.3947 101.901 100.454 102.934 100.563 105.004C100.82 109.89 98.8222 113.766 95.1674 116.881C91.7145 119.824 87.4629 121.082 83.2811 122.497C81.4056 123.13 79.5618 123.858 77.481 124.625C79.5988 119.46 81.294 114.179 83.8652 109.366C86.6076 104.232 91.2132 101.405 97.3459 101.777ZM93.3057 91.0825C92.8262 94.1706 91.6888 96.9387 89.7087 99.3043C88.7861 100.407 87.5172 101.22 86.2839 102.267C85.9245 99.3546 85.43 96.7712 85.3264 94.1724C85.1689 90.2175 85.1492 86.2447 85.3535 82.2941C85.4261 80.8882 86.1528 79.426 86.8859 78.1665C87.8617 76.4886 89.8534 76.6779 91.4584 76.2968C93.3649 75.8442 95.3383 75.6721 97.3755 75.3642C94.7197 80.2907 94.1374 85.726 93.3057 91.0825ZM114.179 75.4571C109.16 77.0048 106.234 80.8872 103.579 85.0222C101.221 88.6926 100.062 92.8495 98.9899 97.0253C98.6634 98.2975 97.9747 98.9795 96.5448 99.002C94.9628 99.0267 93.3846 99.2945 91.4291 99.4947C95.1759 94.8842 94.7482 89.3814 95.9815 84.3472C96.269 83.1753 96.4493 81.9711 96.8196 80.827C98.0021 77.1702 100.753 75.4195 104.409 75.2023C107.709 75.0059 111.031 75.1611 114.337 75.1611C114.318 75.1995 114.279 75.4261 114.179 75.4571ZM122.262 92.8407C118.524 96.8226 113.847 99.4194 108.528 100.754C107.045 101.125 105.51 101.429 103.99 101.475C101.89 101.539 100.573 100.386 100.868 98.3249C101.291 95.3611 101.958 92.3649 103.026 89.5749C104.897 84.6851 107.895 80.4293 112.523 77.8135C115.777 75.9744 119.479 75.1918 123.313 75.4585C124.407 75.5342 125.51 75.4701 126.714 75.4701C127.246 81.9278 126.821 87.9842 122.262 92.8407ZM126.696 99.949C126.242 103.4 123.517 105.005 120.4 105.748C117.677 106.397 114.874 106.705 112.122 107.239C108.947 107.856 105.704 108.317 102.842 110.897C103.02 108.552 102.962 106.702 103.386 104.97C103.56 104.258 104.688 103.5 105.521 103.273C110.938 101.802 116.221 100.088 120.605 96.3856C123.405 94.0217 126.038 91.521 127.013 87.7636C127.174 87.7967 127.334 87.8294 127.495 87.8625C127.25 91.8944 127.222 95.9544 126.696 99.949ZM121.081 116.689C117.362 117.041 113.596 117.116 109.86 116.994C106.689 116.892 103.533 116.359 100.267 116.004C102.002 112.456 105.064 110.486 108.722 109.565C112.651 108.576 116.704 108.089 120.662 107.199C122.789 106.721 124.829 105.856 127.036 105.123C126.45 108.08 126.02 111.131 125.2 114.074C124.686 115.917 122.676 116.538 121.081 116.689ZM111.688 127.714C110.056 128.199 108.52 128.175 106.984 127.127C103.492 124.745 99.6983 122.989 95.4714 122.352C93.8718 122.112 92.251 122.011 90.4646 121.828C95.9188 118.993 101.095 116.836 107.45 118.269C112.44 119.394 117.743 119.263 123.131 117.844C119.957 122.163 116.887 126.167 111.688 127.714ZM115.498 158.926C112.763 165.296 108.925 170.688 101.867 173.093C100.951 171.484 100.028 169.862 99.1453 168.311C101.054 166.43 103.187 164.713 104.837 162.617C107.724 158.95 109.327 154.648 109.768 149.994C109.944 148.14 109.91 146.233 109.695 144.382C108.976 138.182 104.636 135.069 99.3979 132.965C92.5906 130.229 85.7614 130.272 79.0458 133.537C78.0404 131.836 77.091 130.231 76.0941 128.545C79.3466 125.922 82.9172 124.156 87.1328 123.74C92.1168 123.249 96.9658 123.642 101.542 125.789C106.093 127.926 110.105 130.857 113.419 134.638C116.075 137.669 116.48 141.609 116.871 145.343C117.349 149.902 117.366 154.576 115.498 158.926ZM135.174 153.893C132.431 156.901 129.028 158.642 124.787 158.512C127.601 152.445 129.809 146.122 133.919 140.772C135.945 138.135 137.789 137.527 141.071 138.439C141.599 138.586 142.13 138.73 142.641 138.925C144.282 139.552 145.914 140.2 147.777 140.93C142.454 144.341 139.198 149.479 135.174 153.893ZM145.18 154.486C142.826 156.197 140.73 158.274 138.602 160.277C137.521 161.294 136.587 161.801 135.123 160.928C133.816 160.147 132.336 159.657 130.759 158.964C131.972 158.243 133.228 157.782 134.091 156.927C136.158 154.876 138.03 152.63 140 150.482C141.673 148.658 143.23 146.689 145.106 145.101C146.831 143.641 148.907 142.694 151.368 143.458C155.452 144.726 158.984 147.005 162.932 149.357C155.927 148.383 150.308 150.755 145.18 154.486ZM155.692 169.49C150.721 169.897 146.022 169.189 141.449 167.396C138.485 166.233 137.856 164.129 139.827 161.654C144.698 155.537 150.825 151.332 158.804 150.751C164.136 150.362 168.774 152.606 173.073 155.829C169.594 163.44 164.576 168.761 155.692 169.49ZM153.422 178.91C150.603 178.199 147.903 177.025 145.11 176.193C142.49 175.412 139.828 174.759 137.158 174.17C136.456 174.015 135.657 174.304 134.74 174.407C135.974 172.679 137.035 171.145 138.148 169.65C138.913 168.624 139.943 168.852 140.988 169.149C145.184 170.343 149.422 171.352 153.825 171.123C157.528 170.93 161.176 170.366 164.494 168.556C165.354 168.088 166.125 167.457 167.238 167.059C166.055 169.07 164.916 171.11 163.674 173.084C162.855 174.384 161.948 175.64 160.973 176.827C158.967 179.268 156.228 179.619 153.422 178.91ZM146.37 188.199C142.066 185.751 137.964 182.949 133.791 180.272C132.495 179.441 131.233 178.557 129.819 177.606C134.5 174.787 139.035 175.508 143.675 177.177C147.562 178.575 151.527 179.767 155.485 180.959C156.405 181.235 157.438 181.137 158.917 181.249C156.569 183.859 154.647 186.507 152.205 188.529C150.57 189.883 148.081 189.173 146.37 188.199ZM130.357 190.742C127.625 185.396 124.021 180.914 118.269 177.836C124.572 177.766 130.001 178.662 134.728 182.872C138.699 186.408 143.376 189.116 148.896 190.621C143.615 192.81 138.595 195.161 132.953 193.058C131.928 192.676 130.855 191.716 130.357 190.742ZM106.286 173.628C109.593 170.874 112.835 167.966 116.292 165.342C121.256 161.574 126.757 160.157 132.757 162.687C137.264 164.588 137.289 167.261 133.688 171.184C128.812 176.494 122.604 176.76 116.078 175.548C112.788 174.936 109.509 174.262 106.286 173.628ZM131.62 205.362C130.343 210.925 127.913 216.011 123.981 220.187C120.268 224.13 115.663 226.778 110.301 227.776C107.922 228.219 105.437 228.089 102.809 228.23C102.809 226.2 102.736 224.494 102.867 222.804C102.895 222.451 103.648 221.916 104.109 221.868C112.336 221.007 118.234 216.529 122.547 209.813C125.843 204.679 125.742 199.325 122.423 194.218C118.445 188.098 113.028 183.927 105.673 182.556C102.779 182.017 102.792 181.944 102.791 179.011C102.791 178.129 102.791 177.246 102.791 176.313C110.383 175.264 116.625 177.715 122.138 182.378C127.523 186.933 130.26 193.038 131.826 199.695C132.245 201.477 132.039 203.541 131.62 205.362ZM132.287 223.166C129.866 225.14 127.023 226.096 123.836 226.102C122.091 226.106 120.346 226.432 118.152 226.659C118.762 226.215 119.017 225.993 119.304 225.826C123.844 223.196 127.353 219.531 129.52 214.795C130.982 211.598 133.415 210.504 136.598 210.384C140.872 210.222 144.692 211.814 148.748 213.571C142.388 215.679 137.199 219.164 132.287 223.166ZM141.085 227.865C137.187 229.092 133.531 228.731 129.655 226.573C134.304 223.487 138.705 220.546 143.129 217.637C145.33 216.191 147.784 215.278 150.393 215.183C151.313 215.15 152.466 215.872 153.168 216.587C155.082 218.534 156.812 220.662 158.857 222.996C152.231 223.059 146.828 226.058 141.085 227.865ZM164.737 235.811C158.316 232.612 151.615 232.468 144.775 234.111C143.28 234.47 141.821 235.016 140.311 235.254C139.652 235.358 138.643 235.123 138.246 234.657C137.013 233.212 135.998 231.582 134.679 229.713C138.125 230.611 140.988 229.569 143.852 228.562C146.713 227.555 149.522 226.374 152.434 225.551C157.17 224.212 159.927 225.319 162.591 229.432C164.229 231.96 165.736 234.573 167.047 237.401C166.28 236.866 165.566 236.225 164.737 235.811ZM159.957 253.614C157.067 253.73 153.989 252.623 151.218 251.511C146.64 249.675 142.841 246.622 139.868 242.646C137.922 240.043 138.507 238.005 141.524 236.806C147.823 234.302 154.247 233.894 160.79 235.774C165.63 237.165 168.552 240.801 171.202 244.716C171.936 245.802 172.415 247.061 173.067 248.351C169.176 251.592 164.72 253.422 159.957 253.614ZM143.361 257.575C140.953 254.99 138.827 252.141 136.392 249.584C134.827 247.941 132.93 246.614 131.155 245.122C132.715 244.424 134.482 243.485 136.358 242.886C136.902 242.712 137.85 243.399 138.455 243.887C141.499 246.345 144.348 249.069 147.54 251.31C151.113 253.817 155.316 254.906 159.653 255.288C160.546 255.366 161.475 255.032 162.387 254.888C162.455 255.032 162.523 255.177 162.592 255.321C159.53 256.916 156.504 258.585 153.397 260.087C149.191 262.122 146.232 260.656 143.361 257.575ZM133.808 263.181C131.39 259.18 129.263 255.003 127.088 250.861C126.249 249.263 125.62 247.555 124.822 245.728C129.822 245.628 133.333 248.131 136.403 251.655C139.409 255.107 142.556 258.436 145.68 261.783C146.194 262.334 146.909 262.699 147.796 263.343C145.394 264.223 143.195 265.153 140.92 265.832C137.712 266.789 135.582 266.116 133.808 263.181ZM106.244 230.62C109.432 229.998 112.722 229.381 116.001 228.709C120.232 227.843 124.398 227.723 128.505 229.373C131.44 230.553 133.724 232.488 135.287 235.179C136.953 238.046 136.451 239.713 133.47 241.209C129.58 243.161 125.546 243.325 121.449 241.777C117.152 240.154 113.89 237.074 110.519 234.134C109.08 232.879 107.569 231.706 106.244 230.62ZM81.5176 262.982C82.4783 263.239 83.4646 263.511 84.4556 263.766C88.0216 264.684 91.5986 264.73 95.0223 263.33C100.739 260.993 101.874 256.704 99.7131 250.496C99.1431 248.859 98.2082 247.281 97.1475 245.9C96.1164 244.558 94.7084 243.505 93.4635 242.323C95.0868 240.574 96.5455 239.002 98.0458 237.385C104.246 241.486 107.408 247.349 108.25 254.547C108.439 256.159 108.365 257.826 108.208 259.448C107.736 264.361 104.489 267.097 100.401 269.152C96.1334 271.297 91.5971 272.128 86.9056 271.497C84.4404 271.166 82.0591 270.206 79.5661 269.51C80.2745 267.141 80.8695 265.149 81.5176 262.982ZM83.6552 246.078C84.4281 246.134 85.3373 246.426 85.8932 246.929C87.0289 247.958 88.1745 249.087 88.9167 250.4C89.4525 251.347 89.8728 253.047 89.3867 253.709C88.785 254.528 87.1818 254.972 86.0299 254.939C84.476 254.894 82.7037 254.587 81.4613 253.749C80.1934 252.893 79.4294 251.275 78.4899 249.959C77.4154 248.453 76.3907 246.911 75.5664 245.708C77.9523 245.808 80.8089 245.873 83.6552 246.078ZM91.508 251.787C90.6837 249.983 89.3232 248.417 88.1505 246.782C87.9085 246.444 87.4467 246.263 86.987 245.94C88.7984 244.986 90.2867 244.171 91.8106 243.429C92.0597 243.308 92.5853 243.386 92.7804 243.577C95.1438 245.901 97.3878 248.281 98.5827 251.508C100.49 256.66 97.9356 261.517 92.4958 262.542C88.8382 263.232 85.2521 262.743 81.8872 261.36C81.7392 259.444 81.5969 257.601 81.4553 255.77C82.9225 256.076 84.3974 256.505 85.9013 256.659C86.9739 256.769 88.1255 256.665 89.17 256.386C91.439 255.781 92.4902 253.936 91.508 251.787ZM78.9961 224.569C79.026 222.335 80.9068 219.822 83.1138 219.068C86.4184 217.938 90.8933 219.133 93.0827 221.83C93.5452 222.401 94.0349 223.278 93.9299 223.918C93.5966 225.952 93.2708 228.074 92.4119 229.916C91.4207 232.042 89.1196 231.763 87.4143 231.807C82.3698 231.808 78.9408 228.759 78.9961 224.569ZM46.7534 240.356C50.6672 242.645 54.6901 243.551 59.0336 241.446C63.0812 239.484 64.286 235.769 63.3419 231.586C62.3027 226.981 58.9279 224.507 54.9437 222.631C54.595 222.467 54.2427 222.309 53.8975 222.135C53.7636 222.066 53.6439 221.961 53.5523 221.895C54.2956 220.64 55.0213 219.414 55.754 218.179C63.9443 219.709 67.9425 226.994 67.7488 232.342C67.6819 234.2 67.5409 236.068 67.2345 237.899C66.9315 239.731 66.1037 241.402 64.5079 242.469C62.3168 243.938 60.1996 245.746 57.7654 246.581C52.5342 248.376 47.5426 247.603 43.3012 243.718C42.7834 243.241 42.2585 242.768 41.7653 242.319C42.5157 241.042 43.2061 239.858 43.9846 238.53C44.8653 239.115 45.7812 239.787 46.7534 240.356ZM54.3202 230.537C55.4369 231.359 56.1767 232.584 55.3524 233.99C54.5351 235.382 53.1225 235.331 51.8297 234.828C47.8455 233.278 45.0591 230.317 42.7305 226.786C47.0247 226.851 50.9102 228.032 54.3202 230.537ZM55.2432 229.307C52.8372 227.799 50.1846 226.688 47.687 225.431C48.9164 224.777 50.3114 224.02 51.7275 223.296C51.9389 223.187 52.2665 223.129 52.4743 223.213C55.6342 224.493 58.5404 226.109 60.64 228.931C62.1089 230.907 62.6162 235.682 60.9464 237.885C59.2168 240.165 55.5567 241.636 52.3369 240.971C49.4448 240.374 47.0071 238.897 44.7737 237.044C44.5482 236.857 44.3263 236.532 44.3017 236.255C44.1854 234.724 44.129 233.188 44.0375 231.339C45.2775 232.356 46.3096 233.313 47.4509 234.106C48.6205 234.919 49.8499 235.693 51.1498 236.268C53.4113 237.268 55.6201 236.612 56.6699 234.81C57.695 233.041 57.2581 230.568 55.2432 229.307ZM38.8978 219.682C40.8071 219.814 42.7164 220.018 44.6328 220.062C47.2642 220.122 49.4835 218.615 50.181 216.436C51.266 213.061 50.6637 210.709 48.0146 209.056C46.3026 207.99 44.3967 207.235 42.5156 206.309C42.9278 205.224 43.3646 204.061 43.7909 202.93C49.7724 203.588 52.9464 206.813 54.4153 211.465C55.6307 215.306 54.5175 219.125 51.2097 221.71C47.3453 224.733 43.0018 225.503 38.3342 223.256C38.535 221.978 38.7147 220.842 38.8978 219.682ZM34.195 211.842C33.9237 211.543 33.5398 211.345 32.8775 210.858C36.1888 210.964 38.7781 210.083 41.0467 208.247C41.2898 208.048 41.8322 207.995 42.1317 208.12C43.9564 208.879 45.8939 209.493 47.5108 210.575C49.2933 211.766 49.5752 213.763 48.7896 215.902C48.1801 217.562 46.5315 218.635 44.4531 218.61C43.1885 218.596 41.9133 218.516 40.6627 218.329C39.5848 218.169 38.8661 217.712 38.2179 216.544C37.2386 214.776 35.5865 213.376 34.195 211.842ZM21.2561 203.065C21.3266 202.95 21.5379 202.904 21.6929 202.863C24.8704 202.022 29.767 206.114 29.7388 209.382C29.7212 211.525 25.427 214.208 23.1055 213.59C22.0945 213.321 21.0906 213.034 20.1007 212.703C19.2729 212.427 19.0051 211.808 18.6388 210.978C17.9518 209.426 16.7154 208.113 15.6832 206.718C15.567 206.558 15.2992 206.507 14.9047 206.305C17.4763 205.532 19.8823 205.281 21.2561 203.065ZM18.3851 200.677C18.9382 200.936 19.6286 201.645 19.618 202.134C19.6075 202.641 18.9241 203.341 18.3675 203.599C14.3481 205.467 10.7021 203.943 6.66156 202.143C10.7268 200.242 14.3763 198.786 18.3851 200.677ZM29.1646 193.229C29.5873 193.749 29.7459 194.696 29.6507 195.395C29.2069 198.726 25.4129 201.642 22.0064 201.379C21.7458 201.358 21.3583 201.323 21.2561 201.156C19.8787 198.939 17.4304 198.758 15.2605 197.986C16.7435 196.358 18.7761 195.143 18.7937 192.591C18.7973 192.355 19.1495 192.07 19.3996 191.895C22.3693 189.836 26.8537 190.4 29.1646 193.229ZM41.9943 202.562C41.804 207.035 35.9845 210.814 31.8877 209.064C31.4579 208.881 31.1232 208.234 30.9506 207.732C29.9678 204.925 28.7242 203.463 25.9307 202.117C28.6115 200.918 30.2742 199.072 30.9189 196.454C31.1761 195.397 31.7678 195.08 32.6978 194.927C37.6719 194.109 42.1951 197.813 41.9943 202.562ZM42.107 185.801C42.9877 185.807 43.8684 185.667 44.7455 185.679C47.0318 185.711 48.4831 186.958 49.1348 189.387C49.5751 191.021 48.624 193.219 46.9261 194.143C45.672 194.825 44.3298 195.347 43.0088 195.893C42.114 196.262 41.3884 196.04 40.4478 195.581C38.1933 194.482 35.7485 193.772 33.8075 193.06C34.9348 191.786 36.7737 190.326 37.7565 188.424C38.7886 186.426 40.1061 185.788 42.107 185.801ZM50.4558 181.928C53.7002 183.92 55.4721 188.326 54.5915 192.003C53.2986 197.405 49.5928 200.511 43.8296 201.376C43.3787 200.21 42.9489 199.092 42.498 197.924C44.203 197.108 46.0031 196.412 47.6306 195.433C50.6284 193.63 51.2519 191.537 50.2339 187.912C49.5963 185.653 46.7394 183.828 44.2664 184.115C42.5227 184.318 40.7719 184.441 38.9049 184.611C38.7322 183.49 38.5491 182.321 38.3412 181.005C42.5368 178.976 46.5386 179.52 50.4558 181.928ZM50.1705 170.112C50.861 169.681 51.6606 169.337 52.4567 169.185C53.6474 168.957 55.0495 169.085 55.37 170.403C55.5814 171.286 55.2467 172.682 54.6197 173.323C52.1644 175.829 48.7755 176.515 45.5346 177.394C44.5905 177.65 43.5689 177.625 42.2972 177.758C44.4637 174.419 47.0987 172.031 50.1705 170.112ZM56.7579 169.534C55.8103 167.736 54.0279 167.047 51.2308 168.011C49.3638 168.654 47.7715 170.101 46.0877 171.232C45.4536 171.656 44.9076 172.203 44.284 172.723C43.4456 169.483 44.3615 167.177 47.0141 165.532C49.9063 163.739 52.8935 162.621 56.4057 163.43C62.9403 164.936 63.2609 171.901 60.2595 175.782C58.2974 178.32 55.5708 179.746 52.6822 180.922C52.4074 181.033 52.0023 181.075 51.7593 180.952C50.3396 180.246 48.9516 179.482 47.6799 178.803C50.1634 177.563 52.7632 176.469 55.141 175.015C57.1736 173.774 57.6879 171.304 56.7579 169.534ZM62.5035 182.913C60.6893 184.478 58.1917 185.255 55.9689 186.412C54.9966 184.771 54.2709 183.547 53.7531 182.672C56.1767 180.874 58.8011 179.321 60.9323 177.264C64.6488 173.685 64.5819 166.969 60.9852 164.04C57.7056 161.369 53.9046 160.964 50.0296 162.382C47.8878 163.167 45.9327 164.467 43.886 165.538C43.2307 164.428 42.5157 163.209 41.797 161.99C46.9226 155.806 55.997 155.422 61.3445 159.423C63.6519 161.15 66.2305 162.509 67.0196 165.573C68.7246 172.187 67.9073 178.258 62.5035 182.913ZM83.3459 173.182C84.5993 172.683 85.9851 172.516 87.3111 172.198C91.9748 172.429 94.9857 176.206 93.9408 180.708C93.4441 182.848 91.5767 183.705 89.9249 184.638C86.5237 186.56 81.3154 185.983 79.4248 181.521C78.169 178.557 79.8475 174.575 83.3459 173.182ZM56.2824 211.637C58.7166 211.637 60.9852 211.832 63.208 211.594C67.1746 211.17 71.0411 207.69 72.0028 204.234C73.3157 199.514 69.7426 195.013 66.0332 193.443C63.3313 192.299 60.4709 192.136 57.5717 192.571C57.2089 192.625 56.8319 192.578 56.388 192.578C56.3282 192.258 56.2965 192.15 56.293 192.04C56.1239 187.712 56.3176 187.477 60.7316 187.416C66.9597 187.329 71.6072 189.992 74.3507 195.622C75.2768 197.523 76.4742 199.615 76.4386 201.6C76.3403 207.102 73.686 211.46 69.0874 214.573C65.4555 217.034 61.4819 217.325 57.3392 216.343C56.9341 216.247 56.3669 215.753 56.3282 215.396C56.2014 214.206 56.2824 212.994 56.2824 211.637ZM52.1432 203.538C51.0864 203.256 50.1035 202.708 48.7367 202.135C53.045 200.161 57.0926 198.953 61.5136 199.68C62.8417 199.898 63.8492 200.575 63.9126 202.018C63.976 203.56 62.9262 204.27 61.5629 204.573C58.3115 205.296 55.222 204.362 52.1432 203.538ZM57.6915 206.211C59.4211 206.26 61.2036 206.108 62.8839 205.714C64.4163 205.356 65.6281 203.471 65.5365 202.062C65.4168 200.285 64.367 199.104 62.7888 198.45C60.5554 197.524 58.2586 197.798 55.9653 198.269C54.9508 198.477 53.9292 198.625 52.7984 198.82C53.7214 197.345 54.5527 195.995 55.4088 194.662C55.5461 194.448 55.7857 194.18 56.0041 194.156C60.0481 193.706 64.0429 193.451 67.5515 196.193C72.4981 200.061 71.4025 206.292 65.9452 209.119C62.817 210.739 59.4317 210.546 56.0675 210.047C55.7716 210.004 55.4757 209.617 55.2784 209.323C54.4576 208.089 53.672 206.83 52.7843 205.442C54.4506 205.719 56.0675 206.165 57.6915 206.211ZM105.591 212.869C109.98 211.224 113.388 208.502 114.889 203.869C115.911 200.713 114.309 198.217 112.468 196.023C110.147 193.26 107.108 191.456 103.482 190.77C102.683 190.618 101.913 190.319 101.13 190.087C101.531 188.254 101.968 186.557 102.251 184.834C102.394 183.964 102.714 183.759 103.557 183.844C107.95 184.287 111.834 185.804 115.317 188.611C119.429 191.925 122.399 195.886 123.366 201.123C123.572 202.24 123.348 203.539 122.987 204.643C120.106 213.441 113.793 218.366 104.942 220.32C104.212 220.481 103.416 220.341 102.506 220.341C102.065 218.389 101.607 216.361 101.109 214.156C102.574 213.742 104.125 213.418 105.591 212.869ZM95.5447 206.279C94.4963 206.295 93.4459 205.206 92.3708 204.671C90.4924 203.735 88.5941 202.839 87.2463 202.188C89.4888 200.992 92.2253 199.461 95.0388 198.089C95.6352 197.798 96.5941 197.882 97.2469 198.142C99.0988 198.88 100.97 199.652 102.654 200.699C103.721 201.362 103.625 202.557 102.732 203.532C100.799 205.643 98.1885 206.238 95.5447 206.279ZM103.396 205.392C106.382 203.541 106.371 200.668 103.361 198.814C101.572 197.713 99.5303 197.023 97.5935 196.144C98.3622 194.942 99.2523 193.512 100.195 192.116C100.344 191.894 100.758 191.668 100.995 191.716C105.362 192.592 109.408 194.091 112.054 197.974C114.709 201.872 114.067 204.357 110.411 208.217C107.956 210.809 104.545 211.841 101.1 212.543C100.83 212.598 100.36 212.352 100.19 212.104C99.2587 210.747 98.3921 209.345 97.6164 208.136C99.575 207.223 101.607 206.502 103.396 205.392ZM84.0839 149.534C85.2711 149.273 86.5833 149.312 87.7958 149.499C89.5927 149.775 90.175 150.957 89.5494 152.643C88.7487 154.8 87.2597 156.421 85.3733 157.65C84.8209 158.01 84.0318 158.091 83.3399 158.138C80.4996 158.332 77.655 158.463 75.5449 158.578C76.5777 157.013 78.1897 155.037 79.2659 152.804C80.3083 150.639 82.1038 149.968 84.0839 149.534ZM98.5697 156.168C100.53 153.212 101.145 149.822 100.446 146.344C99.766 142.969 95.0751 139.969 90.7271 139.929C89.1771 139.915 87.6066 139.864 86.082 140.083C84.5701 140.3 83.1043 140.835 81.5377 141.252C80.9047 139.18 80.3002 137.201 79.6397 135.038C82.9207 133.303 86.4177 132.326 90.0803 132.547C93.6491 132.762 97.1764 133.345 100.456 135.092C104.686 137.344 107.931 140.188 108.279 145.339C108.889 154.383 105.489 161.516 98.1078 166.902C96.5737 165.262 95.1125 163.699 93.7217 162.212C95.3552 160.201 97.1504 158.309 98.5697 156.168ZM88.395 147.733C87.2008 147.647 85.9834 147.606 84.7998 147.743C83.6739 147.873 82.5783 148.261 81.3401 148.568C81.4898 147.621 81.6892 146.725 81.7586 145.819C81.8298 144.888 81.7745 143.947 81.7745 142.903C85.7037 141.427 89.7171 140.758 93.8341 142.104C98.2142 143.536 99.8096 146.41 98.8698 151.326C98.3319 154.139 96.92 156.576 94.8567 158.598C94.0313 159.407 93.181 160.191 92.3218 161.005C90.5985 160.156 88.9787 159.359 87.253 158.51C88.1026 157.6 89.0911 156.739 89.8252 155.7C90.5481 154.677 91.1681 153.523 91.5584 152.337C92.3877 149.816 91.0483 147.924 88.395 147.733ZM69.1403 170.413C68.869 168.478 68.5731 166.545 68.404 164.601C68.3688 164.186 68.714 163.537 69.0769 163.318C74.6117 159.989 80.5827 158.65 86.8961 160.259C88.947 160.783 90.9437 162.082 92.5923 163.469C94.5182 165.089 96.1326 167.116 97.7115 169.101C101.212 173.503 102.038 178.559 100.86 183.951C100.311 186.465 99.6384 188.979 98.7232 191.38C97.6633 194.162 95.3319 195.836 92.9474 197.553C88.6997 200.611 83.8423 200.931 78.9545 201.33C78.6611 201.354 78.1235 200.953 78.0446 200.658C76.2283 193.865 72.7503 188.528 65.5682 186.097C69.3657 184.972 73.1568 183.812 76.979 182.771C77.3982 182.658 78.1697 183.102 78.5004 183.512C81.4 187.104 85.133 188.306 89.5681 187.405C92.9136 186.725 95.953 182.887 96.332 179.579C96.6241 177.03 95.8846 174.916 94.447 172.982C91.9248 169.59 85.6942 168.848 82.1376 171.429C79.6263 173.251 77.7554 175.481 77.4708 178.716C77.3545 180.039 76.6059 180.476 75.3522 180.733C72.224 181.373 69.1367 182.209 66.0297 182.96C65.7197 183.035 65.4027 183.066 64.765 183.17C65.5999 181.912 66.2869 180.895 66.9597 179.868C68.8479 176.985 69.6158 173.843 69.1403 170.413ZM25.9307 169.745C25.8849 169.326 26.0893 168.689 26.4063 168.453C27.8471 167.368 29.2914 166.246 30.8802 165.411C32.8388 164.381 34.4486 164.785 35.9599 166.319C37.3795 167.759 37.7741 169.401 36.7842 171.281C35.9493 172.869 34.8115 174.306 33.7406 175.759C33.5151 176.063 32.9515 176.365 32.6204 176.299C29.5943 175.704 26.8819 176.568 24.2117 177.938C25.7053 175.334 26.2478 172.644 25.9307 169.745ZM23.8629 181.272C23.7607 180.921 23.9757 180.261 24.268 180.038C27.5441 177.544 31.6305 176.434 35.1109 179.612C37.9291 182.186 38.1369 186.49 35.4033 189.333C34.3852 190.39 33.1135 191.242 31.8418 191.99C31.4086 192.245 30.4187 192.125 30.0277 191.784C27.9457 189.964 25.6559 188.82 22.482 189.165C24.3103 186.494 24.6661 183.982 23.8629 181.272ZM28.0021 226.204C27.3328 225.949 26.674 225.665 26.0364 225.347C23.641 224.156 23.6762 224.154 24.1764 221.47C24.5956 219.241 23.9016 217.233 22.4855 215.012C25.7335 215.473 28.0479 214.231 30.1333 212.349C30.394 212.111 30.8872 211.908 31.2042 211.982C35.4984 212.986 38.3694 218.141 36.904 222.224C36.0127 224.695 32.0884 227.766 28.0021 226.204ZM24.3561 226.426C27.0193 227.807 29.7071 228.395 32.6168 227.957C32.9691 227.904 33.5292 228.185 33.7476 228.487C34.8467 229.992 36.0092 231.479 36.8723 233.119C37.7917 234.878 37.2915 236.702 35.8366 238.059C34.4134 239.388 32.7507 239.879 30.9964 238.912C29.4217 238.041 27.9633 236.948 26.4979 235.888C26.1808 235.659 25.8391 235.122 25.8885 234.782C26.3147 231.841 25.7405 229.107 24.3561 226.426ZM65.0257 221.572C64.9623 221.5 64.9764 221.362 64.8919 220.981C68.8162 221.927 72.5647 222.775 76.2681 223.791C76.7789 223.931 77.3062 224.864 77.4095 225.498C78.1482 230.047 80.8135 233.034 85.1531 234.031C89.6551 235.065 94.5805 233.315 96.0713 228.072C98.092 220.965 91.4982 215.676 85.4476 216.646C82.4684 217.124 80.2509 218.617 78.3926 220.866C78.1048 221.214 77.4961 221.652 77.172 221.562C73.3185 220.489 69.4925 219.324 65.6035 218.168C67.629 217.01 69.6369 216.089 71.3874 214.814C75.0538 212.144 76.5897 208.087 78.0104 203.99C78.158 203.564 78.6287 202.886 78.8798 202.915C81.9886 203.28 85.238 203.301 88.1544 204.286C95.978 206.929 100.357 212.58 100.946 220.874C101.139 223.582 101.267 226.445 100.597 229.023C99.9414 231.547 98.4823 233.98 96.9224 236.124C94.8461 238.975 92.4623 241.7 89.083 243.119C87.4347 243.811 85.6487 244.328 83.8782 244.548C78.549 245.209 73.7029 243.586 69.1508 240.966C68.7633 240.743 68.3582 239.975 68.4533 239.583C70.0703 233.041 69.7074 226.907 65.0257 221.572ZM110.047 272.93C105.742 276.404 101.199 279.375 95.6303 280.282C88.5447 281.434 81.8826 280.564 76.0951 275.685C77.0663 274.052 78.0453 272.406 78.7703 271.187C82.4564 271.924 85.883 273.147 89.3201 273.178C95.2481 273.231 100.83 271.657 105.547 267.655C109.389 264.396 110.074 260.108 109.943 255.528C109.826 251.424 108.621 247.484 106.435 244.097C104.497 241.093 101.805 238.574 99.2992 235.671C99.9886 234.453 100.933 232.783 101.867 231.132C111.178 234.086 117.43 245.662 116.988 253.692C116.833 256.496 116.575 259.295 116.314 262.092C115.889 266.656 113.563 270.094 110.047 272.93ZM109.763 285.681C107.302 285.797 104.861 286.3 102.401 286.525C100.141 286.731 98.0627 286.107 96.0527 285.033C94.3096 284.102 92.4391 283.409 90.2726 282.455C92.2777 282.23 93.9641 282.095 95.6335 281.844C99.4626 281.269 102.988 279.835 106.107 277.583C108.468 275.878 110.847 275.98 113.278 277.057C117.579 278.962 120.315 282.551 123.171 286.426C118.472 285.127 114.103 285.475 109.763 285.681ZM111.241 295.299C107.973 294.811 105.099 293.519 102.624 291.409C101.646 290.575 100.96 289.398 99.8132 287.969C105.989 287.625 111.641 287.159 117.299 287.074C119.307 287.044 121.347 287.876 123.339 288.433C124.531 288.766 125.19 289.621 125.412 290.932C125.878 293.681 126.494 296.406 127.1 299.395C121.941 296.718 116.563 296.093 111.241 295.299ZM108.269 301.75C103.428 300.3 103.443 300.254 102.986 295.223C102.943 294.755 102.887 294.288 102.803 293.494C108.095 297.475 114.341 296.857 120.02 298.354C124.653 299.575 126.47 301.5 127.085 306.154C127.198 307.011 127.264 307.879 127.272 308.744C127.296 311.28 127.28 313.818 127.28 316.552C123.499 308.087 116.454 304.202 108.269 301.75ZM96.6043 322.591C95.9579 320.216 95.6183 317.755 95.197 315.323C94.5685 311.696 94.1754 307.998 91.4186 304.796C93.709 304.986 95.6655 304.994 97.5378 305.394C98.1392 305.523 98.7461 306.627 98.9607 307.393C100.483 312.834 102.167 318.193 105.936 322.587C108.281 325.322 110.718 327.973 114.465 328.877C114.435 329.068 114.405 329.26 114.375 329.451C110.616 329.209 106.855 328.992 103.099 328.717C99.2936 328.438 97.4994 325.881 96.6043 322.591ZM85.0639 312.781C85.1753 309.289 85.8301 305.814 86.2599 302.222C89.8323 303.988 91.7891 307.097 92.7505 310.823C93.5329 313.855 93.8492 317.005 94.5516 320.061C95.2343 323.033 96.1453 325.953 96.9654 328.931C94.1944 328.388 91.0768 328.097 88.228 327.066C87.0476 326.638 85.89 324.71 85.6818 323.32C85.1608 319.851 84.9523 316.291 85.0639 312.781ZM79.9151 285.781C79.2205 283.766 78.4828 281.766 77.7511 279.723C81.8699 281.242 85.983 282.653 90.0126 284.272C95.4084 286.438 99.1139 290.254 100.458 296.013C100.761 297.31 100.573 298.771 100.38 300.124C100.153 301.718 98.9571 302.403 97.4325 302.517C92.395 302.896 88.4619 300.785 85.2936 297.045C82.517 293.767 81.2816 289.741 79.9151 285.781ZM84.3242 325.037C80.1244 321.829 76.0007 318.848 74.536 313.568C74.0752 311.907 74.0833 310.428 75.1479 308.894C78.5688 303.965 80.3424 298.472 80.2593 292.14C83.1486 297.715 85.4891 302.873 84.0304 309.291C82.8943 314.289 83.143 319.588 84.3242 325.037ZM126.838 328.505C121.349 329.332 116.175 328.821 111.666 325.914C107.543 323.256 104.716 319.252 103.008 314.654C102.003 311.946 101.256 309.08 100.87 306.221C100.536 303.759 101.831 302.566 104.353 302.757C109.658 303.16 114.368 305.243 118.705 308.271C124.851 312.563 127.207 318.57 126.844 325.856C126.8 326.731 126.838 327.609 126.838 328.505ZM114.582 239.791C118.984 243.289 123.983 245.528 125.702 251.365C127.024 255.854 130.942 263.069 134.591 266.312C129.226 266.06 126.422 265.355 122.73 263.272C119.999 261.73 118.319 259.702 118.511 256.231C118.825 250.545 118.416 247.286 114.582 239.791ZM118.51 147.54C118.402 144.878 119.578 143.141 121.587 141.696C125.405 138.95 129.81 138.236 134.627 137.839C130.217 142.46 127.686 147.774 125.507 153.28C124.238 156.49 122.523 159.252 119.358 160.99C117.749 161.872 116.347 163.131 115.08 164.054C116.047 161.175 117.31 158.195 118.008 155.089C118.556 152.653 118.611 150.052 118.51 147.54ZM84.0512 95.947C84.4426 98.9242 84.9924 101.845 83.7803 104.709C82.7735 107.089 81.6082 109.403 80.7169 111.311C79.9095 108.017 79.1462 104.319 78.0569 100.719C77.5571 99.0678 76.5785 97.4902 75.5347 96.0892C73.4855 93.3376 74.2087 90.7609 75.5678 88.0701C77.5113 84.2208 80.9332 81.8771 84.2921 79.1951C83.1303 84.893 83.3269 90.4396 84.0512 95.947ZM48.1766 85.5733C53.5981 84.5601 58.9667 85.3555 64.1803 86.9845C65.5154 87.4008 66.8928 88.1426 67.8862 89.1097C72.8148 93.9151 76.9423 99.3064 78.2017 106.274C79.3487 112.619 78.9475 118.804 75.0253 124.314C74.6114 124.896 74.2362 125.506 73.7761 126.205C72.0236 125.17 70.4155 124.22 69.0381 123.406C69.7215 120.541 70.5176 117.85 70.9858 115.103C71.6364 111.286 70.884 107.551 69.6968 103.923C68.7281 100.951 67.0795 98.3739 64.9729 96.0333C62.8945 93.7233 60.2313 92.8114 57.3251 92.5546C47.8244 91.7135 40.1942 95.1601 34.4698 102.791C34.3712 102.921 34.2549 103.037 34.0752 103.241C32.4055 102.301 30.7357 101.361 28.992 100.379C32.5852 91.7395 39.3311 87.2259 48.1766 85.5733ZM50.3114 76.1398C55.4052 74.5506 60.1221 71.8384 64.3071 67.7473C64.0922 71.3745 63.666 74.6294 62.2534 77.6837C61.7707 78.7303 61.1754 79.7385 60.5272 80.6926C59.1005 82.7858 57.2546 84.016 54.5386 83.8193C48.7121 83.3974 43.1956 84.4633 38.1017 87.5704C41.2686 82.7921 44.2171 78.043 50.3114 76.1398ZM61.3656 54.3893C62.4718 57.6551 63.8773 60.5936 64.3635 63.6732C64.677 65.6693 62.8452 67.3366 61.1508 68.581C57.075 71.5786 52.58 73.788 47.8808 75.6246C46.5069 76.1623 45.1964 76.8676 43.6605 77.5879C43.5971 71.9313 46.6478 68.2249 50.7271 65.0418C54.595 62.0217 58.4664 58.9783 61.3656 54.3893ZM41.7829 63.8541C44.5165 60.6182 47.3875 57.4545 49.7478 53.9564C51.9776 50.652 53.0028 46.7598 53.1683 42.7269C53.2036 41.8259 52.964 40.9109 52.7949 39.5842C53.2916 40.2599 53.6298 40.6224 53.8517 41.0447C55.3489 43.8635 56.913 46.6471 58.2727 49.5293C59.9601 53.1189 58.5792 56.1313 55.9442 58.6017C53.1683 61.2024 50.1036 63.4951 47.3453 66.1123C45.746 67.6312 44.5025 69.5245 43.0758 71.2767C42.5157 69.9813 41.9978 68.4522 41.2122 67.0755C40.4478 65.733 40.9058 64.8929 41.7829 63.8541ZM34.1809 40.3057C35.7028 36.1144 39.1515 33.5383 42.6953 31.1594C43.7838 30.4274 45.0485 29.9593 46.373 29.2977C49.6597 33.7108 51.805 38.4581 51.4774 43.9022C51.3365 46.253 50.4911 48.6355 49.6034 50.8561C47.7856 55.4028 44.816 59.1789 40.9657 62.2025C37.9467 64.5744 36.0057 64.0536 34.6248 60.5056C32.0356 53.8403 31.7221 47.0625 34.1809 40.3057ZM26.0963 57.4756C25.2156 55.1002 24.2681 52.7388 23.567 50.3071C21.7106 43.8882 24.1166 42.0125 28.0197 39.359C30.2954 37.8176 32.7366 36.5226 35.3752 35.3437C34.9137 35.9419 34.35 36.4874 34.0048 37.1455C31.5072 41.9069 30.4786 46.9815 31.2606 52.3095C31.7291 55.5119 32.5112 58.6686 33.1593 61.8443C33.3742 62.8895 33.2545 63.6947 32.2047 64.3577C30.7357 65.2896 29.3936 66.4308 27.6569 67.7399C28.5798 63.8566 27.2799 60.6816 26.0963 57.4756ZM11.6708 184.614C11.5194 184.191 11.7272 183.509 11.9949 183.09C13.8408 180.193 16.8245 178.85 20.0619 179.76C21.0201 180.029 22.1403 181.12 22.4397 182.069C23.4226 185.184 21.7106 188.79 18.8149 190.36C18.5366 190.513 18.1068 190.721 17.892 190.615C15.5811 189.48 13.4075 190.415 11.0508 191.07C11.7765 188.833 12.4529 186.815 11.6708 184.614ZM11.0156 213.124C13.3159 213.921 15.4507 214.574 17.7264 213.703C18.0293 213.588 18.5437 213.699 18.8219 213.899C21.8409 216.09 23.4895 218.572 22.3869 222.362C22.1298 223.256 20.9919 224.269 20.0619 224.526C16.821 225.426 13.5343 223.909 11.8751 221C11.6567 220.614 11.5476 220.008 11.6849 219.603C12.4247 217.408 11.8047 215.379 11.0156 213.124ZM59.8861 318.337C53.4501 319.525 47.0881 319.511 41.1136 316.476C35.6745 313.713 31.0704 310.032 29.1082 303.801C30.7251 302.885 32.3949 301.941 33.7969 301.149C35.9704 303.235 37.8727 305.422 40.1308 307.145C43.5548 309.76 47.5566 311.251 51.8684 311.669C53.82 311.859 55.8209 311.814 57.7831 311.657C63.1657 311.224 66.1213 307.566 68.485 303.269C70.4155 299.765 70.9696 295.864 71.231 291.964C71.4628 288.498 70.426 285.203 69.1473 282.003C69.0275 281.705 68.9113 281.406 68.7563 281.016C70.4507 280.011 72.0909 279.039 73.7187 278.074C80.5091 285.954 80.1392 298.913 74.3775 307.199C72.7147 309.59 70.872 311.866 68.9888 314.092C66.6356 316.88 63.289 317.709 59.8861 318.337ZM48.24 327.167C45.4183 326.061 42.9841 324.416 41.4165 321.627C40.4584 319.921 39.1409 318.414 37.9009 316.702C40.1977 317.654 42.3184 318.63 44.5095 319.421C47.7398 320.587 51.1357 320.721 54.5034 320.459C57.7091 320.21 59.555 321.919 61.0803 324.345C62.7606 327.014 63.6131 329.954 63.9936 333.056C64.138 334.238 64.3 335.418 64.4586 336.633C59.8262 332.116 54.1405 329.478 48.24 327.167ZM49.8499 338.489C47.0388 336.293 45.1436 333.534 43.9987 330.246C43.6288 329.186 43.7204 327.965 43.6006 326.818C43.731 326.677 43.8613 326.535 43.9916 326.393C49.6104 329.397 55.2749 332.319 60.8126 335.464C62.0772 336.184 62.9896 337.609 63.9125 338.825C64.6558 339.805 64.4586 340.942 64.0358 342.084C63.1235 344.541 62.3097 347.033 61.3551 349.806C58.241 344.941 54.0102 341.733 49.8499 338.489ZM45.5733 344.37C44.2735 342.94 42.9348 341.541 41.5962 340.148C40.7824 339.305 40.5006 338.502 41.1383 337.342C41.9273 335.908 42.4804 334.344 43.3188 332.421C45.3373 337.886 50.1352 340.219 53.7707 343.676C55.0459 344.89 56.4197 346.044 57.4906 347.424C59.5021 350.019 59.3154 352.913 57.938 355.703C56.4761 358.653 54.824 361.508 53.1683 364.567C53.0309 362.292 53.1049 360.255 52.7491 358.296C51.7839 352.949 49.2088 348.37 45.5733 344.37ZM32.6802 352.642C32.9092 349.4 33.959 346.171 34.9629 343.041C35.745 340.594 37.8692 339.848 39.8137 341.282C46.7852 346.415 51.3752 353.095 51.4668 361.982C51.5197 366.764 49.3955 371.052 46.4258 374.83C35.8542 370.358 31.9158 363.561 32.6802 352.642ZM27.6357 336.552C29.4922 337.874 31.1303 338.821 32.4583 340.09C32.9973 340.603 33.11 341.857 32.9867 342.712C32.402 346.784 31.2289 350.822 31.1056 354.898C30.9576 359.81 31.8383 364.691 35.2518 368.668C35.3082 368.731 35.273 368.87 35.3187 369.466C31.8806 367.204 28.615 365.214 25.5327 362.976C22.954 361.107 22.4397 358.292 23.2112 355.387C23.9897 352.463 25.0888 349.623 26.0998 346.765C27.2412 343.546 28.6361 340.382 27.6357 336.552ZM133.025 306.947C132.866 314.345 132.753 321.745 132.708 329.145C132.696 331.109 132.985 333.074 133.128 334.936L112.355 334.936C110.134 334.936 107.912 334.896 105.692 334.947C104.152 334.983 102.616 335.217 101.076 335.234C98.2124 335.267 95.3383 335.342 92.4866 335.143C90.1923 334.983 87.9173 334.485 85.6473 334.066C81.5222 333.303 78.35 330.835 75.1863 328.282C71.5942 325.385 70.1971 321.054 67.8051 317.596C68.7457 316.559 69.6334 315.578 70.6092 314.504C71.895 316.344 72.936 318.236 74.351 319.787C79.2825 325.196 85.1974 328.663 92.648 329.786C98.6447 330.69 104.633 330.622 110.622 330.763C116.08 330.892 121.551 330.411 127.017 330.245C127.933 330.217 128.295 329.945 128.303 328.996C128.316 327.568 128.531 326.142 128.555 324.713C128.66 318.359 128.86 312.002 128.776 305.649C128.685 298.744 128.159 291.825 125.059 285.51C123.901 283.15 121.894 281.199 120.231 279.095C119.453 278.11 118.677 277.076 117.713 276.295C116.137 275.017 114.407 273.927 112.533 272.611C113.624 271.661 114.623 270.791 115.694 269.857C119.158 272.184 123.411 273.755 126.474 277.26C130.416 281.769 132.647 286.87 133.005 292.821C133.177 295.672 133.478 298.521 133.513 301.373C133.537 303.229 133.065 305.086 133.025 306.947ZM77.7247 351.043C80.6715 352.12 83.6415 353.136 86.5988 354.185C87.8102 354.615 88.4003 354.296 88.6204 352.931C89.0583 350.22 89.7273 347.547 90.1916 344.84C90.6555 342.138 90.9856 339.413 91.3921 336.572C94.286 336.701 97.1366 336.828 100.141 336.962C98.0243 346.127 95.9273 355.206 93.8122 364.361C84.8917 361.636 75.9641 358.909 66.8434 356.123C68.2349 353.525 69.5595 351.049 70.9583 348.439C73.2358 349.319 75.4667 350.217 77.7247 351.043ZM73.3287 328.687C74.7572 329.823 76.0775 331.43 77.7705 332.106C81.3714 333.543 81.1992 336.202 80.7289 339.15C80.6422 339.693 80.5408 340.233 80.3826 341.139C78.3173 340.22 76.3227 339.361 74.3665 338.422C74.1358 338.312 74.04 337.769 74.01 337.416C73.7673 334.531 73.5556 331.644 73.3287 328.687ZM73.9273 339.993C75.3043 340.607 76.6954 341.209 78.0717 341.843C81.034 343.207 81.3887 343.081 82.0277 339.942C82.3543 338.336 82.4423 336.682 82.6428 335.01C84.7166 335.431 86.7545 335.786 88.7536 336.296C89.1665 336.4 89.7741 337.13 89.7181 337.48C88.9266 342.421 88.0375 347.346 87.1621 352.273C87.1466 352.36 87.012 352.425 86.6964 352.725C81.7783 350.892 76.7274 349.009 71.6065 347.1C72.4248 344.594 73.141 342.402 73.9273 339.993ZM100.394 375.848C87.4266 372.162 74.586 368.511 61.4643 364.782C62.7641 362.49 63.7822 360.672 64.8214 358.868C65.4097 357.854 66.1142 357.511 67.4 357.914C75.8721 360.576 84.376 363.138 92.8734 365.72C94.9821 366.361 95.0807 366.239 95.5637 364.085C96.8657 358.283 98.2131 352.491 99.5475 346.697C100.215 343.797 100.924 340.906 101.549 337.997C101.736 337.132 101.995 336.602 103.011 336.624C105.213 336.673 107.417 336.639 110.017 336.639C107.531 349.955 103.666 362.647 100.394 375.848ZM1.46907 403.32C7.5704 397.055 13.7845 390.897 19.8787 384.623C22.8449 381.567 25.6771 378.375 28.4706 375.16C29.1716 374.356 29.6683 374.427 30.4363 374.853C32.5147 376.005 34.6389 377.072 36.6961 378.261C40.6592 380.554 44.9533 382.314 48.3422 385.544C49.1454 386.308 49.7195 385.786 50.0507 384.88C52.4813 378.217 56.9376 372.69 60.3933 366.6C60.5624 366.297 61.3128 366.057 61.6791 366.167C68.2278 368.128 74.7385 370.224 81.3024 372.135C87.5457 373.953 93.8425 375.585 100.112 377.313C101.022 377.564 101.56 377.396 101.813 376.374C102.473 373.701 103.224 371.051 103.926 368.388C105.192 363.585 106.532 358.8 107.686 353.97C108.978 348.563 110.109 343.118 111.28 337.683C111.484 336.736 111.993 336.449 112.913 336.464C115.356 336.503 117.801 336.434 120.244 336.475C124.632 336.549 129.024 336.582 133.404 336.825C134.819 336.904 135.049 336.552 134.892 335.293C134.62 333.109 134.325 330.91 134.313 328.715C134.294 324.635 134.495 320.553 134.559 316.471C134.602 313.714 134.577 313.753 137.263 313.112C143.955 311.515 150.649 309.915 157.323 308.245C162.987 306.828 168.622 305.299 174.276 303.847C175.208 303.607 175.826 303.261 175.493 302.157C175.063 300.733 174.628 299.31 174.228 297.877C172.672 292.301 171.178 286.707 169.568 281.147C167.914 275.429 166.202 269.727 164.391 264.058C164.082 263.093 164.157 262.658 164.983 262.205C171.072 258.866 176.523 254.386 183.179 252.054C184.139 251.717 184.299 251.058 183.616 250.254C183.331 249.919 183.004 249.605 182.785 249.23C179.468 243.561 176.147 237.894 172.905 232.183C172.711 231.842 173.001 230.949 173.353 230.62C176.143 228.015 179.086 225.569 181.824 222.913C188.379 216.556 194.846 210.107 201.353 203.702C202.965 202.115 202.969 202.131 201.288 200.478C195.37 194.657 189.489 188.795 183.526 183.021C180.305 179.903 177.005 176.859 173.608 173.936C172.613 173.08 172.457 172.49 173.13 171.498C173.374 171.138 173.525 170.715 173.752 170.342C177.076 164.872 179.335 158.764 183.671 153.897C184.382 153.099 184.027 152.485 183.085 152.149C176.392 149.762 170.871 145.288 164.774 141.841C164.456 141.661 164.174 140.918 164.282 140.558C166.304 133.741 168.457 126.962 170.437 120.134C172.048 114.577 173.456 108.962 174.974 103.379C175.675 100.804 175.687 100.855 173.208 100.208C166.437 98.4407 159.698 96.5481 152.907 94.8653C147.194 93.4499 141.42 92.2801 135.692 90.9252C135.244 90.8193 134.64 90.1243 134.618 89.677C134.461 86.648 134.339 83.6092 134.402 80.5778C134.486 76.6177 134.743 72.6604 134.944 68.7028C134.998 67.647 134.725 67.0815 133.511 67.4166C132.772 67.6203 131.997 67.7927 131.237 67.7966C125.033 67.8269 118.829 67.7956 112.626 67.8336C111.628 67.8396 111.443 67.274 111.288 66.5251C110.382 62.154 109.609 57.7501 108.52 53.4216C106.391 44.9756 104.054 36.5824 101.88 28.147C101.549 26.859 100.976 26.7147 99.8681 27.0314C95.4182 28.3124 90.9486 29.523 86.5016 30.811C78.293 33.19 70.0985 35.6182 61.8835 37.969C61.4291 38.0992 60.5308 37.8599 60.33 37.5115C56.8777 31.4832 52.4744 25.9863 50.0437 19.3843C49.5611 18.0716 48.9763 18.1139 47.9899 18.969C46.7429 20.0459 45.4395 21.1122 44.0128 21.9286C39.9335 24.2654 35.7908 26.5035 31.641 28.7206C29.3055 29.9664 29.2773 29.9065 27.5723 27.8021C27.3962 27.5874 27.1884 27.3974 26.9981 27.2003C22.3411 22.3826 17.6982 17.5578 13.0306 12.7542C9.13099 8.74586 5.18201 4.79033 1.30704 0.760908C0.820912 0.250623 0.412282 -0.00276425 0.000126889 0.000745231L0.000126683 2.35508C0.623647 2.35158 1.25071 2.98152 2.5224 4.25194C7.65146 9.38637 12.8545 14.4539 17.9095 19.6623C21.3301 23.1885 24.5464 26.9082 28.0691 30.7723C25.73 32.0392 23.6657 33.2075 21.545 34.2703C21.1963 34.4427 20.4283 34.3266 20.1641 34.0486C15.9932 29.6285 11.8716 25.1628 7.7395 20.7075C5.59066 18.3954 3.41713 16.1044 1.30704 13.7572C0.83852 13.2328 0.422855 12.9653 0.000125755 12.9688L0.000125595 14.7988L0.00365038 14.7953C6.40441 21.6365 12.77 28.432 19.2623 35.3683C16.7894 36.9026 14.334 38.4229 11.8646 39.9537C9.1451 36.6563 6.45372 33.38 3.74829 30.1177C2.90283 29.1007 2.05385 28.0802 1.13443 27.13C0.75397 26.7358 0.377062 26.5458 0.000124568 26.5493L0.000124422 28.2138C1.09921 29.4033 2.1666 30.4731 3.13182 31.6309C5.25249 34.1788 7.3062 36.783 9.40926 39.345C10.223 40.3338 10.7514 41.0764 9.2296 42.0793C7.7254 43.0753 6.49951 44.4935 5.10452 45.7674C3.78351 44.1169 2.49068 42.5368 1.24013 40.925C0.806825 40.3655 0.401719 40.1086 0.000123382 40.1156L0.000123261 41.4987C1.39511 43.4448 2.58579 45.0741 3.73065 46.7352C3.88214 46.9534 3.92793 47.3897 3.81873 47.629C2.51885 50.4514 1.18024 53.2561 0.00717158 55.7371L0.000122018 55.716L0.000120746 70.2674C1.6875 70.2903 3.36432 70.6228 5.0693 71.1517C9.94826 72.6653 14.3763 74.9574 18.1632 78.358C21.0483 80.9456 22.8906 84.3018 24.5111 87.7833C26.2302 91.4865 26.121 95.3854 25.9132 99.4141L20.1676 99.4141C19.7238 97.5592 19.3996 95.6085 18.7832 93.7546C15.9086 85.0785 10.0891 79.4239 1.12736 77.3553C0.746916 77.2684 0.373533 77.217 0.00012014 77.1931L0.000119992 78.8883C2.61044 78.8633 4.94598 79.9138 7.1653 81.2961C12.8686 84.8511 16.7682 89.8497 18.0047 96.6354C18.1808 97.601 18.3006 98.5766 18.4697 99.7189C16.2574 100.222 14.2283 100.682 12.0442 101.179C11.7906 100.24 11.5264 99.2969 11.2798 98.3503C10.1667 94.1227 8.0178 90.6247 4.0935 88.4639C2.67033 87.6788 1.31057 87.2551 0.000119266 87.19L0.000119136 88.6765C2.13136 88.6406 4.09701 89.8789 6.23529 92.0404C8.67653 94.5077 9.71925 97.7372 10.378 101.069C10.4449 101.404 10.1173 101.976 9.8038 102.201C8.51097 103.125 7.15121 103.958 6.02394 104.69C5.10452 102.699 4.38943 100.598 3.23399 98.7761C2.34274 97.3744 1.17318 96.6748 0.000118437 96.6762L0.000118245 98.8658C0.510906 98.8964 1.04991 99.166 1.55717 99.6594C3.55807 101.613 4.18512 104.171 4.16046 106.76C4.14636 107.921 2.95918 109.051 2.37089 110.23C1.49726 111.984 0.687068 113.768 0.0635476 115.086C0.0424142 115.047 0.0212503 115.004 0.000116838 114.964L0.000115887 125.849C4.64304 125.858 8.47929 128.2 11.4243 131.662C14.5736 135.359 15.4613 139.771 14.3657 144.576C14.1297 145.61 13.7985 146.002 12.7629 145.928C11.7765 145.858 10.7831 145.913 9.7263 145.913C9.7263 144.08 9.76153 142.488 9.72277 140.899C9.5854 135.281 6.16485 131.476 2.02567 130.219C1.34579 130.012 0.665902 129.92 0.000115531 129.92L0.000115389 131.537C2.73725 131.541 5.38635 133.247 6.87644 135.982C8.61666 139.186 8.47573 142.675 7.95084 146.156C7.9121 146.419 7.59858 146.696 7.34495 146.864C6.06269 147.713 4.75928 148.529 3.33611 149.438C3.61793 147.706 4.06885 146.064 4.11112 144.413C4.1534 142.686 3.99839 140.899 3.56863 139.231C3.18816 137.751 1.44091 136.715 0.000114935 136.736L0.000114791 138.38L0.00716435 138.38C0.746941 138.376 1.75794 139.234 2.15954 139.978C2.62806 140.843 2.74079 142.003 2.69852 143.022C2.55056 146.46 1.78614 149.775 0.274894 152.891C0.246711 152.948 0.165687 152.981 0.000113509 153.048L0.000112886 160.168C0.158636 160.165 0.31716 160.164 0.479193 160.17C3.79758 160.288 6.83768 163.456 6.99621 166.76C7.02439 167.358 7.20052 167.951 7.21813 168.549C7.25336 169.782 7.18291 170.873 5.59064 171.283C3.01203 171.944 1.15206 173.576 0.0142106 176.27L0.000111482 176.236L0.000110932 182.527L0.0247539 182.524C0.539067 182.538 1.24363 183.241 1.49726 183.808C3.29384 187.817 1.92351 191.449 0.000109804 195.422L0.00010863 208.856C0.0142078 208.823 0.0318164 208.791 0.0459003 208.758C1.74738 212.695 3.32556 216.191 1.60648 220.085C1.31058 220.756 0.584885 221.237 0.0564887 221.805L0.000107502 221.753L0.000106952 228.046L0.0247499 227.998C1.18372 230.753 3.18816 232.275 5.85132 233.107C6.36211 233.267 6.9962 233.989 7.04904 234.505C7.30972 237.107 6.6862 240.685 4.31895 242.545C3.03316 243.556 1.51135 244.036 0.000105555 244.026L0.000104934 251.131C0.197371 251.105 0.394636 251.079 0.595427 251.052C1.29997 254.192 2.13136 257.312 2.65271 260.482C2.85704 261.725 2.60692 263.179 2.11374 264.35C1.82487 265.037 0.775098 265.748 0.000103649 265.824L0.000103498 267.557C0.0564695 267.558 0.116345 267.56 0.172711 267.557C1.68396 267.486 3.44178 266.254 3.69189 264.536C4.00189 262.408 3.90677 260.211 3.85745 258.046C3.83279 256.974 3.51574 255.909 3.32551 254.809C4.68881 255.676 6.13313 256.344 7.22165 257.386C7.84166 257.982 8.04596 259.17 8.14108 260.122C8.56732 264.295 7.95791 268.138 4.46339 271.044C3.03317 272.234 1.49372 272.731 0.000103047 272.713L0.000102908 274.303C1.94816 274.359 3.68133 273.565 5.23837 272.382C8.30313 270.059 9.70515 266.842 9.72628 263.016C9.73686 261.53 9.72983 260.045 9.72983 258.326C10.9064 258.326 12.1675 258.261 13.411 258.371C13.7245 258.399 14.1543 258.94 14.253 259.319C16.2257 266.647 12.4458 273.817 6.50653 276.385C4.60427 277.207 2.6351 278.385 0.669429 278.443C0.443981 278.451 0.222042 278.446 0.000102546 278.442L0.000101592 289.355L0.0458932 289.271C0.912485 291.009 1.89883 293.333 3.20576 295.46C4.07939 296.883 4.54792 298.248 3.9244 299.762C3.24452 301.416 2.48361 303.072 1.49372 304.553C1.08509 305.166 0.556695 305.419 0.000100192 305.379L9.99985e-05 307.587C1.20487 307.583 2.40965 306.779 3.40305 305.175C4.481 303.434 5.1468 301.439 6.00633 299.541C7.32031 300.411 8.86677 301.437 10.5013 302.519C9.45507 307.883 7.60563 312.7 2.02918 315.114C1.31408 315.424 0.641228 315.562 9.93003e-05 315.574L9.91654e-05 317.117C2.39555 317.184 4.38938 315.844 6.24233 314.286C8.91254 312.042 10.6598 309.094 11.3256 305.587C11.4912 304.731 11.8082 303.904 12.0548 303.05C14.2318 303.562 16.2961 304.049 18.3992 304.544C17.825 313.127 13.4392 319.168 6.47835 323.432C4.29076 324.773 2.12781 325.37 9.84459e-05 325.347L9.83072e-05 326.934C2.65623 326.976 5.05518 325.96 7.26745 324.701C12.3859 321.792 16.2715 317.571 18.3534 311.963C19.0368 310.121 19.3503 308.132 19.7237 306.19C19.9175 305.188 20.1887 304.601 21.3829 304.687C22.8589 304.792 24.3525 304.712 25.7863 304.712C26.9312 312.188 24.5216 318.398 19.9386 323.903C15.3415 329.421 9.08869 332.134 2.3427 333.807C1.60294 333.99 0.806799 334.045 9.76876e-05 334.021L9.64216e-05 348.502L0.0106708 348.481C1.15555 350.926 2.45189 353.655 3.69541 356.409C3.84337 356.74 3.8469 357.307 3.65667 357.591C2.5611 359.232 1.38454 360.822 0.0212591 362.732L9.51801e-05 362.703L9.50507e-05 364.183C0.588382 364.19 1.17315 363.413 2.547 361.846C3.48404 360.775 4.22382 359.53 5.01995 358.416C6.84472 360.054 8.60253 361.635 10.5964 363.424C7.07015 367.694 3.64258 371.845 0.00714356 376.254L9.39961e-05 376.247L9.38615e-05 377.786C0.39464 377.789 0.782153 377.543 1.15908 377.095C4.70996 372.877 8.26435 368.658 11.9139 364.325C14.26 365.775 16.7154 367.294 19.2587 368.866C12.7805 375.795 6.43961 382.573 0.0106672 389.445L9.28432e-05 389.434L9.26785e-05 391.318C0.500322 391.319 0.99701 390.844 1.87769 389.887C6.03447 385.363 10.23 380.874 14.4115 376.371C16.2116 374.431 18.0504 372.523 19.7977 370.535C20.4388 369.804 20.9532 369.481 21.8867 370.037C23.8277 371.191 25.8145 372.26 28.2804 373.643C18.7726 383.431 9.50436 392.971 0.010666 402.746L9.16804e-05 402.736L9.15527e-05 404.195C0.454529 404.198 0.901917 403.901 1.46907 403.32Z" fill="url(#paint0_linear_1179_8248)"/>
</g>
<defs>
<linearGradient id="paint0_linear_1179_8248" x1="-227.274" y1="202.099" x2="218.154" y2="202.099" gradientUnits="userSpaceOnUse">
<stop stop-color="#BC945C"/>
<stop offset="0.2" stop-color="#A17A48"/>
<stop offset="0.3" stop-color="#9E7645"/>
<stop offset="0.5" stop-color="#DEAF70"/>
<stop offset="0.6" stop-color="#FAC883"/>
<stop offset="0.7" stop-color="#EEBC7B"/>
<stop offset="1" stop-color="#966F41"/>
</linearGradient>
</defs>
</svg>
