<svg width="503" height="76" viewBox="0 0 503 76" fill="none" xmlns="http://www.w3.org/2000/svg">
<path d="M198.554 19.256H194.225M198.554 19.256C199.968 19.5729 199.878 20.1733 199.878 20.1733C198.596 20.1733 198.241 20.6847 198.241 20.6847M198.554 19.256L198.554 18.702M194.225 19.256C192.81 19.5729 192.901 20.1733 192.901 20.1733C194.182 20.1733 194.539 20.6847 194.539 20.6847M194.225 19.256L194.225 18.702M194.539 20.6847H198.241M194.539 20.6847L194.042 34.0143H198.738L198.241 20.6847M194.955 13.1765H193.52V14.1071H194.955M194.955 13.1765V14.1071M194.955 13.1765H196.389M194.955 14.1071H196.389M196.389 13.1765V14.1071M196.389 13.1765H197.825M196.389 14.1071H197.825M197.825 13.1765V14.1071M197.825 13.1765H199.26V14.1071H197.825M196.389 9.33007C193.813 10.3357 194.225 13.1765 194.225 13.1765H198.554C198.554 13.1765 198.967 10.3357 196.389 9.33007ZM196.389 9.33007C196.12 9.43558 195.884 9.56233 195.675 9.70352H195.672C195.672 9.70352 195.649 8.55504 196.389 8.55504M196.389 9.33007C196.66 9.43558 196.896 9.56233 197.105 9.70352H197.108C197.108 9.70352 197.131 8.55504 196.389 8.55504M194.202 23.6373H198.578M196.389 8.55504C196.242 8.55504 196.126 8.60197 196.033 8.67527H196.03C196.03 8.67527 195.958 7.1608 196.389 6.73181M196.389 8.55504C196.537 8.55504 196.654 8.60197 196.747 8.67527H196.749C196.749 8.67527 196.821 7.1608 196.389 6.73181M196.389 6.73181C196.489 6.83036 196.561 6.98753 196.615 7.16891L196.389 1L196.165 7.16891C196.218 6.98753 196.291 6.83036 196.389 6.73181ZM198.307 15.7078V18.702H198.554M198.307 15.7078C198.307 15.3652 198.421 15.1177 198.554 14.9458M198.307 15.7078C198.307 15.349 198.414 15.1177 198.554 14.9458M198.554 14.9458V14.1072H194.225V14.745M198.554 14.9458V18.702M194.225 14.745C194.414 14.8998 194.675 15.2039 194.675 15.7078M194.225 14.745V18.702M194.225 14.745C194.414 14.8991 194.675 15.2039 194.675 15.7078M194.675 15.7078V18.702H194.225M193.989 35.4429C193.989 35.4429 193.634 34.9315 192.353 34.9315C192.353 34.9315 192.626 34.3299 194.041 34.0143H198.737C200.151 34.3299 200.426 34.9315 200.426 34.9315C199.145 34.9315 198.79 35.4429 198.79 35.4429M193.989 35.4429H198.79M193.989 35.4429L193.989 35.4416L193.399 51.2923C193.407 51.2897 193.415 51.2871 193.424 51.2858H199.381L198.791 35.4416L198.79 35.4429M192.637 52.7146C192.637 52.7146 192.049 51.9996 191 52.5806C191 52.5806 191.383 51.2859 193.496 51.2859H199.406C201.519 51.2859 201.902 52.5806 201.902 52.5806C200.853 51.9996 200.265 52.7146 200.265 52.7146M192.637 52.7146H200.265M192.637 52.7146L192.637 70.2836M200.265 52.7146L200.265 70.2837L192.637 70.2836M200.265 71.0592H192.515V74.9999H200.265M200.265 71.0592V74.9999M200.265 71.0592L200.695 71.0591M200.265 71.0592L200.265 73.0302M200.265 74.9999H238.1M200.265 74.9999L200.265 73.0302M200.695 71.0591V70.8324M200.695 71.0591H192.084V70.8324C192.084 70.5296 192.332 70.2836 192.637 70.2836M200.695 70.8324C200.695 70.5296 200.447 70.2836 200.142 70.2836H192.637M200.695 70.8324C200.695 70.5709 200.51 70.3532 200.265 70.2991V55.8643M199.141 52.7145V61.4991V70.2837M198.175 35.4429L198.613 51.2845M194.644 34.0117L195.013 20.6847M197.24 20.6847L197.467 34.0143M195.017 51.2858L195.288 35.4429M194.692 70.2837V52.7158M196.915 52.7145V70.2837M196.73 35.4429L196.815 51.2845M196.057 34.0143L196.127 20.6847M202.362 66.7332H200.265M202.362 66.7332C202.492 66.7332 202.596 66.8376 202.596 66.9664C202.596 67.0939 202.492 67.1983 202.362 67.1983M202.362 66.7332L202.019 66.7332L202.627 66.7332M200.265 66.7332V67.1983H202.362M200.265 66.7332V66.1741H202.627M200.265 66.7332L202.627 66.7332M202.362 67.1983L201.902 67.1983C201.85 67.4663 201.82 67.7523 201.82 68.0589V73.0302H207.302V68.0589C207.302 67.7523 207.271 67.4675 207.216 67.1983L206.761 67.1983M202.627 66.1741C202.782 66.1741 202.908 66.2991 202.908 66.4537C202.908 66.6083 202.782 66.7332 202.627 66.7332M202.627 66.1741L202.238 66.1741C203.006 64.5806 204.562 63.9493 204.562 63.9493C204.562 63.9493 206.096 64.6154 206.869 66.1741L206.496 66.1741M209.697 66.7332H206.761M209.697 66.7332C209.826 66.7332 209.931 66.8376 209.931 66.9664C209.931 67.0939 209.826 67.1983 209.697 67.1983M209.697 66.7332L209.353 66.7332L209.961 66.7332M206.761 66.7332C206.631 66.7332 206.526 66.8376 206.526 66.9664C206.526 67.0939 206.631 67.1983 206.761 67.1983M206.761 66.7332L207.094 66.7332L206.496 66.7332M206.761 67.1983H209.697M209.697 67.1983L209.236 67.1983C209.185 67.4663 209.155 67.7523 209.155 68.0589V73.0302H214.636V68.0589C214.636 67.7523 214.606 67.4675 214.552 67.1983L214.095 67.1983M209.961 66.1741H206.496M209.961 66.1741C210.117 66.1741 210.243 66.2991 210.243 66.4537C210.243 66.6083 210.117 66.7332 209.961 66.7332M209.961 66.1741L209.572 66.1741C210.34 64.5806 211.896 63.9493 211.896 63.9493C211.896 63.9493 213.43 64.6154 214.203 66.1741L213.831 66.1741M206.496 66.1741C206.341 66.1741 206.214 66.2991 206.214 66.4537C206.214 66.6083 206.341 66.7332 206.496 66.7332M206.496 66.7332H209.961M217.031 66.7332H214.095M217.031 66.7332C217.161 66.7332 217.266 66.8376 217.266 66.9664C217.266 67.0939 217.161 67.1983 217.031 67.1983M217.031 66.7332L216.688 66.7332L217.297 66.7332M214.095 66.7332C213.966 66.7332 213.861 66.8376 213.861 66.9664C213.861 67.0939 213.966 67.1983 214.095 67.1983M214.095 66.7332L214.43 66.7332L213.831 66.7332M214.095 67.1983H217.031M217.031 67.1983L216.572 67.1983C216.519 67.4663 216.491 67.7523 216.491 68.0589V73.0302H221.971V68.0589C221.971 67.7523 221.94 67.4675 221.886 67.1983L221.43 67.1983M217.297 66.1741H213.831M217.297 66.1741C217.451 66.1741 217.577 66.2991 217.577 66.4537C217.577 66.6083 217.451 66.7332 217.297 66.7332M217.297 66.1741L216.908 66.1741C217.675 64.5806 219.231 63.9493 219.231 63.9493C219.231 63.9493 220.765 64.6154 221.538 66.1741L221.165 66.1741M213.831 66.1741C213.675 66.1741 213.548 66.2991 213.548 66.4537C213.548 66.6083 213.675 66.7332 213.831 66.7332M213.831 66.7332H217.297M224.366 66.7332H221.43M224.366 66.7332C224.495 66.7332 224.599 66.8376 224.599 66.9664C224.599 67.0939 224.495 67.1983 224.366 67.1983M224.366 66.7332L224.022 66.7332L224.632 66.7332M221.43 66.7332C221.3 66.7332 221.197 66.8376 221.197 66.9664C221.197 67.0939 221.3 67.1983 221.43 67.1983M221.43 66.7332L221.765 66.7332L221.165 66.7332M221.43 67.1983H224.366M224.366 67.1983L223.907 67.1983C223.855 67.4663 223.824 67.7523 223.824 68.0589V73.0302H229.306V68.0589C229.306 67.7523 229.274 67.4675 229.221 67.1983L228.764 67.1983M224.632 66.1741H221.165M224.632 66.1741C224.786 66.1741 224.912 66.2991 224.912 66.4537C224.912 66.6083 224.786 66.7332 224.632 66.7332M224.632 66.1741L224.243 66.1741C225.009 64.5806 226.565 63.9493 226.565 63.9493C226.565 63.9493 228.099 64.6154 228.872 66.1741L228.5 66.1741M221.165 66.1741C221.01 66.1741 220.884 66.2991 220.884 66.4537C220.884 66.6083 221.01 66.7332 221.165 66.7332M221.165 66.7332H224.632M231.7 66.7332H228.764M231.7 66.7332C231.83 66.7332 231.935 66.8376 231.935 66.9664C231.935 67.0939 231.83 67.1983 231.7 67.1983M231.7 66.7332L231.357 66.7332L231.966 66.7332M228.764 66.7332C228.636 66.7332 228.531 66.8376 228.531 66.9664C228.531 67.0939 228.636 67.1983 228.764 67.1983M228.764 66.7332L229.099 66.7332L228.5 66.7332M228.764 67.1983H231.7M231.7 67.1983L231.241 67.1983C231.189 67.4663 231.16 67.7523 231.16 68.0589V73.0302H236.641V68.0589C236.641 67.7523 236.609 67.4675 236.555 67.1983L236.099 67.1983M231.966 66.1741H228.5M231.966 66.1741C232.122 66.1741 232.248 66.2991 232.248 66.4537C232.248 66.6083 232.122 66.7332 231.966 66.7332M231.966 66.1741L231.577 66.1741C232.345 64.5806 233.901 63.9493 233.901 63.9493C233.901 63.9493 235.435 64.6154 236.208 66.1741L235.834 66.1741M228.5 66.1741C228.346 66.1741 228.219 66.2991 228.219 66.4537C228.219 66.6083 228.346 66.7332 228.5 66.7332M228.5 66.7332H231.966M238.1 66.7332H236.099M238.1 66.7332V67.1983H236.099M238.1 66.7332L235.834 66.7332M238.1 66.7332L238.1 66.1741H235.834M236.099 66.7332C235.971 66.7332 235.866 66.8376 235.866 66.9664C235.866 67.0939 235.971 67.1983 236.099 67.1983M236.099 66.7332L236.434 66.7332L235.834 66.7332M235.834 66.1741C235.68 66.1741 235.553 66.2991 235.553 66.4537C235.553 66.6083 235.68 66.7332 235.834 66.7332M201.82 66.1742V63.1133H207.302V66.1742M209.155 66.1742V63.1133H214.636V66.1742M216.491 66.1742V63.1133H221.971V66.1742M223.824 66.1742V63.1133H229.306V66.1742M231.16 66.1742V63.1133H236.641V66.1742M201.841 55.8643V54.3428M201.841 55.8643H200.265M201.841 55.8643H203.418M201.841 54.3428C201.841 53.91 201.488 53.5596 201.053 53.5596C200.618 53.5596 200.265 53.91 200.265 54.3428V55.8643M201.841 54.3428C201.841 53.91 202.195 53.5596 202.629 53.5596C203.065 53.5596 203.418 53.91 203.418 54.3428M200.265 55.8643H238.1M203.418 55.8643V54.3428M203.418 55.8643H204.993M203.418 54.3428C203.418 53.91 203.771 53.5596 204.206 53.5596C204.641 53.5596 204.993 53.91 204.993 54.3428M204.993 55.8643V54.3428M204.993 55.8643H206.572M204.993 54.3428C204.993 53.91 205.347 53.5596 205.782 53.5596C206.218 53.5596 206.572 53.91 206.572 54.3428M206.572 55.8643V54.3428M206.572 55.8643H208.147M206.572 54.3428C206.572 53.91 206.923 53.5596 207.359 53.5596C207.794 53.5596 208.147 53.91 208.147 54.3428M208.147 55.8643V54.3428M208.147 55.8643H209.724M208.147 54.3428C208.147 53.91 208.5 53.5596 208.936 53.5596C209.371 53.5596 209.724 53.91 209.724 54.3428M209.724 55.8643V54.3428M209.724 55.8643H211.301M209.724 54.3428C209.724 53.91 210.077 53.5596 210.512 53.5596C210.947 53.5596 211.301 53.91 211.301 54.3428M211.301 55.8643V54.3428M211.301 55.8643H212.876M211.301 54.3428C211.301 53.91 211.652 53.5596 212.088 53.5596C212.524 53.5596 212.876 53.91 212.876 54.3428M212.876 55.8643V54.3428M212.876 55.8643H214.453M212.876 54.3428C212.876 53.91 213.229 53.5596 213.665 53.5596C214.099 53.5596 214.453 53.91 214.453 54.3428M214.453 55.8643V54.3428M214.453 55.8643H216.029M214.453 54.3428C214.453 53.91 214.806 53.5596 215.242 53.5596C215.676 53.5596 216.029 53.91 216.029 54.3428M216.029 55.8643V54.3428M216.029 55.8643H217.606M216.029 54.3428C216.029 53.91 216.383 53.5596 216.817 53.5596M217.606 55.8643V54.3428M217.606 55.8643H219.183M217.606 54.3428C217.606 53.91 217.253 53.5596 216.817 53.5596M217.606 54.3428C217.606 53.91 217.959 53.5596 218.394 53.5596C218.83 53.5596 219.183 53.91 219.183 54.3428M216.817 53.5596L216.817 53.0907M219.183 55.8643V54.3428M219.183 55.8643H220.758M219.183 54.3428C219.183 53.91 219.535 53.5596 219.97 53.5596C220.407 53.5596 220.758 53.91 220.758 54.3428M220.758 55.8643V54.3428M220.758 55.8643H222.335M220.758 54.3428C220.758 53.91 221.112 53.5596 221.548 53.5596C221.982 53.5596 222.335 53.91 222.335 54.3428M222.335 55.8643V54.3428M222.335 55.8643H223.911M222.335 54.3428C222.335 53.91 222.688 53.5596 223.124 53.5596C223.559 53.5596 223.911 53.91 223.911 54.3428M223.911 55.8643V54.3428M223.911 55.8643H225.489M223.911 54.3428C223.911 53.91 224.265 53.5596 224.7 53.5596C225.136 53.5596 225.489 53.91 225.489 54.3428M223.911 54.3428C223.911 53.9293 224.234 53.5918 224.642 53.5622C225.118 53.5132 225.489 53.9293 225.489 54.3428M225.489 55.8643V54.3428M225.489 55.8643H227.064M225.489 54.3428C225.489 53.91 225.84 53.5596 226.277 53.5596C226.712 53.5596 227.064 53.91 227.064 54.3428M227.064 55.8643V54.3428M227.064 55.8643H228.641M227.064 54.3428C227.064 53.91 227.418 53.5596 227.853 53.5596M227.064 54.3428C227.064 53.91 227.417 53.5596 227.853 53.5596M228.641 55.8643V54.3428M228.641 55.8643H230.218M228.641 54.3428C228.641 53.91 228.289 53.5596 227.853 53.5596M228.641 54.3428C228.641 53.91 228.994 53.5596 229.43 53.5596C229.864 53.5596 230.218 53.91 230.218 54.3428M230.218 55.8643V54.3428M230.218 55.8643H231.794M230.218 54.3428C230.218 53.91 230.571 53.5596 231.005 53.5596C231.441 53.5596 231.794 53.91 231.794 54.3428M231.794 55.8643V54.3428M231.794 55.8643H233.371M231.794 54.3428C231.794 53.91 232.148 53.5596 232.582 53.5596M233.371 55.8643V54.3428M233.371 55.8643H234.946M233.371 54.3428C233.371 53.91 233.018 53.5596 232.582 53.5596M233.371 54.3428C233.371 53.91 233.723 53.5596 234.159 53.5596C234.593 53.5596 234.946 53.91 234.946 54.3428M232.582 53.5596L232.582 53.0907M234.946 55.8643V54.3428M234.946 55.8643H236.524M234.946 54.3428C234.946 53.91 235.3 53.5596 235.735 53.5596C236.17 53.5596 236.524 53.91 236.524 54.3428M236.524 55.8643V54.3428M236.524 55.8643H238.1M236.524 54.3428C236.524 53.91 236.876 53.5596 237.311 53.5596C237.747 53.5596 238.1 53.91 238.1 54.3428V55.8643M238.1 55.8643L238.1 73.0302M220.859 43.9171C220.859 43.9171 222.349 43.0372 223.371 41.9847C224.183 41.1473 224.313 40.7209 224.545 40.6346V40.0626H224.419C224.419 40.0626 224.239 40.06 224.239 39.8977C224.239 39.7367 224.409 39.7341 224.409 39.7341H224.545V38.4806H224.497C224.497 38.4806 224.37 38.4794 224.37 38.3634C224.37 38.2488 224.489 38.2475 224.489 38.2475H224.545V36.9116C224.545 36.8175 224.615 36.7415 224.7 36.7415C224.786 36.7415 224.856 36.8175 224.856 36.9116V38.2475H224.91C224.91 38.2475 225.031 38.2488 225.031 38.3634C225.031 38.4794 224.903 38.4806 224.903 38.4806H224.856V39.7341H224.991C224.991 39.7341 225.161 39.7367 225.161 39.8977C225.161 40.06 224.981 40.0626 224.981 40.0626H224.856V40.6346C225.087 40.7209 225.217 41.1473 226.03 41.9847C227.05 43.0372 228.54 43.9171 228.54 43.9171M220.859 43.9171C220.859 43.9171 221.91 44.8008 224.734 44.8008C227.558 44.8008 228.54 43.9171 228.54 43.9171M220.859 43.9171C213.844 46.5425 217.04 52.3873 217.04 52.3873H232.359C232.359 52.3873 235.556 46.5425 228.54 43.9171M216.817 53.0907C216.622 53.0907 216.463 52.9335 216.463 52.739C216.463 52.5444 216.622 52.3873 216.817 52.3873H232.582C232.778 52.3873 232.936 52.5444 232.936 52.739C232.936 52.9335 232.778 53.0907 232.582 53.0907M216.817 53.0907H232.582M200.265 73.0302H238.1M238.1 73.0302L238.1 74.9999M239.675 41.8365V40.3151M239.675 41.8365H238.1M239.675 41.8365H241.254M239.675 40.3151C239.675 39.8835 239.324 39.5318 238.888 39.5318C238.453 39.5318 238.1 39.8835 238.1 40.3151M239.675 40.3151C239.675 39.8835 240.029 39.5318 240.464 39.5318C240.9 39.5318 241.254 39.8835 241.254 40.3151M238.1 40.3151V41.8365M238.1 40.3151L238.075 33.6806H241.778V39.5782C241.473 39.6864 241.254 39.9737 241.254 40.3151M238.1 41.8365H264.9M238.1 41.8365V74.9999M241.254 41.8365V40.3151M241.254 41.8365H242.829M241.254 40.3151C241.254 39.8835 241.605 39.5318 242.041 39.5318C242.476 39.5318 242.829 39.8835 242.829 40.3151M242.829 41.8365V40.3151M242.829 41.8365H244.406M242.829 40.3151C242.829 39.8835 243.182 39.5318 243.618 39.5318C244.053 39.5318 244.406 39.8835 244.406 40.3151M242.829 40.3151C242.829 40.0059 242.648 39.7379 242.384 39.6117C243.156 38.3428 244.547 37.137 246.933 36.2442M244.406 41.8365V40.3151M244.406 41.8365H245.983M244.406 40.3151C244.406 39.8835 244.758 39.5318 245.195 39.5318C245.629 39.5318 245.983 39.8835 245.983 40.3151M245.983 41.8365V40.3151M245.983 41.8365H247.558M245.983 40.3151C245.983 39.8835 246.336 39.5318 246.77 39.5318C247.206 39.5318 247.558 39.8835 247.558 40.3151M247.558 41.8365V40.3151M247.558 41.8365H249.135M247.558 40.3151C247.558 39.8835 247.911 39.5318 248.347 39.5318C248.781 39.5318 249.135 39.8835 249.135 40.3151M249.135 41.8365V40.3151M249.135 41.8365H250.711M249.135 40.3151C249.135 39.8835 249.488 39.5318 249.924 39.5318C250.36 39.5318 250.711 39.8835 250.711 40.3151M250.711 41.8365V40.3151M250.711 41.8365H252.288M250.711 40.3151C250.711 39.8835 251.065 39.5318 251.499 39.5318C251.935 39.5318 252.288 39.8835 252.288 40.3151M252.288 41.8365V40.3151M252.288 41.8365H253.865M252.288 40.3151C252.288 39.8835 252.641 39.5318 253.076 39.5318C253.512 39.5318 253.865 39.8835 253.865 40.3151M253.865 41.8365V40.3151M253.865 41.8365H255.44M253.865 40.3151C253.865 39.8835 254.217 39.5318 254.652 39.5318C255.089 39.5318 255.44 39.8835 255.44 40.3151M255.44 41.8365V40.3151M255.44 41.8365H257.017M255.44 40.3151C255.44 39.8835 255.794 39.5318 256.23 39.5318C256.664 39.5318 257.017 39.8835 257.017 40.3151M257.017 41.8365V40.3151M257.017 41.8365H258.593M257.017 40.3151C257.017 39.8835 257.37 39.5318 257.806 39.5318C258.241 39.5318 258.593 39.8835 258.593 40.3151M258.593 41.8365V40.3151M258.593 41.8365H260.171M258.593 40.3151C258.593 39.8835 258.947 39.5318 259.382 39.5318C259.817 39.5318 260.171 39.8835 260.171 40.3151M260.171 41.8365V40.3151M260.171 41.8365H261.746M260.171 40.3151C260.171 39.8835 260.524 39.5318 260.959 39.5318C261.394 39.5318 261.746 39.8835 261.746 40.3151M260.171 40.3151C260.171 40.0059 260.351 39.7379 260.614 39.6117C259.843 38.3428 258.453 37.137 256.065 36.2442M261.746 41.8365V40.3151M261.746 41.8365H263.323M261.746 40.3151C261.746 39.8835 262.1 39.5318 262.535 39.5318C262.971 39.5318 263.323 39.8835 263.323 40.3151M261.746 40.3151C261.746 39.9621 261.512 39.6633 261.188 39.5666V33.6806H264.89V40.1992C264.834 39.8217 264.507 39.5318 264.112 39.5318M263.323 41.8365V40.3151M263.323 41.8365H264.9M263.323 40.3151C263.323 39.8835 263.676 39.5318 264.112 39.5318M264.9 41.8365V40.3151C264.9 39.8835 264.546 39.5318 264.112 39.5318M264.9 41.8365L264.9 74.9999M264.9 74.9999H238.1M264.9 74.9999H302.735M264.9 74.9999L264.9 73.0302M264.9 74.9999L264.9 70.102H261.746L261.746 75M264.9 74.9999L261.746 75M238.1 74.9999L241.254 75M238.1 74.9999V70.102H241.254L241.254 75M261.746 75V44.7634H241.254V75M261.746 75H241.254M231.751 52.3873C231.751 52.3873 234.619 46.6907 228.479 44.0188M220.973 43.9956C214.765 46.6584 217.649 52.3872 217.649 52.3872M229.889 52.3873C229.889 52.3873 231.868 47.0462 227.892 44.2816M221.519 44.2739C217.529 47.0372 219.511 52.3873 219.511 52.3873M227.3 52.3873C227.3 52.3873 228.207 47.5022 226.543 44.6577M222.862 44.6488C221.19 47.492 222.099 52.3873 222.099 52.3873M225.81 52.3873C225.81 52.3873 226.188 47.6182 225.512 44.7596M223.885 44.7725C223.213 47.6311 223.59 52.3873 223.59 52.3873M304.446 19.256H308.774M304.446 19.256C303.032 19.5729 303.124 20.1733 303.124 20.1733C304.404 20.1733 304.759 20.6847 304.759 20.6847M304.446 19.256L304.446 18.702M308.774 19.256C310.19 19.5729 310.098 20.1733 310.098 20.1733C308.818 20.1733 308.462 20.6847 308.462 20.6847M308.774 19.256L308.774 18.702M308.462 20.6847H304.759M308.462 20.6847L308.958 34.0143H304.262L304.759 20.6847M308.045 13.1765H309.48V14.1071H308.045M308.045 13.1765V14.1071M308.045 13.1765H306.611M308.045 14.1071H306.611M306.611 13.1765V14.1071M306.611 13.1765H305.175M306.611 14.1071H305.175M305.175 13.1765V14.1071M305.175 13.1765H303.74V14.1071H305.175M306.611 9.33007C309.187 10.3357 308.774 13.1765 308.774 13.1765H304.446C304.446 13.1765 304.034 10.3357 306.611 9.33007ZM306.611 9.33007C306.882 9.43558 307.116 9.56233 307.325 9.70352H307.328C307.328 9.70352 307.352 8.55504 306.611 8.55504M306.611 9.33007C306.34 9.43558 306.104 9.56233 305.896 9.70352H305.892C305.892 9.70352 305.869 8.55504 306.611 8.55504M308.798 23.6373H304.422M306.611 8.55504C306.759 8.55504 306.875 8.60197 306.967 8.67527H306.969C306.969 8.67527 307.043 7.1608 306.611 6.73181M306.611 8.55504C306.463 8.55504 306.346 8.60197 306.253 8.67527H306.252C306.252 8.67527 306.179 7.1608 306.611 6.73181M306.611 6.73181C306.511 6.83036 306.44 6.98753 306.386 7.16891L306.611 1L306.835 7.16891C306.782 6.98753 306.709 6.83036 306.611 6.73181ZM304.446 18.702H304.693V15.7078M304.446 18.702V14.9458M308.774 18.702H308.326V15.7078M308.774 18.702V14.745M308.326 15.7078C308.326 15.2039 308.587 14.8998 308.774 14.745M308.326 15.7078C308.326 15.2039 308.587 14.8991 308.774 14.745M308.774 14.745V14.1072H304.446V14.9458M304.446 14.9458C304.579 15.1177 304.693 15.3652 304.693 15.7078M304.446 14.9458C304.586 15.1177 304.693 15.349 304.693 15.7078M309.011 35.4429C309.011 35.4429 309.366 34.9315 310.648 34.9315C310.648 34.9315 310.374 34.3299 308.959 34.0143H304.264C302.849 34.3299 302.574 34.9315 302.574 34.9315C303.855 34.9315 304.21 35.4429 304.21 35.4429M309.011 35.4429H304.21M309.011 35.4429L309.011 35.4416L309.602 51.2923C309.593 51.2897 309.585 51.2871 309.576 51.2858H303.619L304.209 35.4416L304.21 35.4429M310.363 52.7146C310.363 52.7146 310.951 51.9996 312 52.5806C312 52.5806 311.619 51.2859 309.505 51.2859H303.594C301.481 51.2859 301.098 52.5806 301.098 52.5806C302.147 51.9996 302.735 52.7146 302.735 52.7146M310.363 52.7146H302.735M310.363 52.7146L310.363 70.2836M302.735 52.7146L302.735 70.2837L310.363 70.2836M302.735 71.0592H310.485V74.9999H302.735M302.735 71.0592V74.9999M302.735 71.0592L302.305 71.0591M302.735 71.0592L302.735 73.0302M302.735 74.9999L302.735 73.0302M302.305 71.0591V70.8324M302.305 71.0591H310.916V70.8324C310.916 70.5296 310.67 70.2836 310.363 70.2836M302.305 70.8324C302.305 70.5296 302.553 70.2836 302.858 70.2836H310.363M302.305 70.8324C302.305 70.5709 302.49 70.3532 302.735 70.2991L302.735 55.8643M303.86 52.7145V70.2837M304.825 35.4429L304.385 51.2845M305.235 20.6847L304.865 34.0117M308.356 34.0117L307.986 20.6847M307.984 51.2858L307.713 35.4429M308.308 70.2837V52.7158M306.085 52.7145V70.2837M306.27 35.4429L306.187 51.2845M306.347 20.6847L306.277 34.0143M306.943 34.0143L306.873 20.6847M300.638 66.7332H302.735M300.638 66.7332C300.509 66.7332 300.404 66.8376 300.404 66.9664C300.404 67.0939 300.509 67.1983 300.638 67.1983M300.638 66.7332L300.981 66.7332L300.373 66.7332M302.735 66.7332V67.1983H300.638M302.735 66.7332L302.735 66.1741H300.373M302.735 66.7332L300.373 66.7332M300.638 67.1983L301.098 67.1983C301.15 67.4663 301.18 67.7523 301.18 68.0589V73.0302H295.698V68.0589C295.698 67.7523 295.73 67.4675 295.784 67.1983L296.239 67.1983M300.373 66.1741C300.218 66.1741 300.092 66.2991 300.092 66.4537C300.092 66.6083 300.218 66.7332 300.373 66.7332M300.373 66.1741L300.762 66.1741C299.995 64.5806 298.438 63.9493 298.438 63.9493C298.438 63.9493 296.904 64.6154 296.133 66.1741L296.504 66.1741M293.303 66.7332H296.239M293.303 66.7332C293.175 66.7332 293.069 66.8376 293.069 66.9664C293.069 67.0939 293.175 67.1983 293.303 67.1983M293.303 66.7332L293.647 66.7332L293.039 66.7332M296.239 66.7332C296.37 66.7332 296.474 66.8376 296.474 66.9664C296.474 67.0939 296.37 67.1983 296.239 67.1983M296.239 66.7332L295.905 66.7332L296.504 66.7332M296.239 67.1983H293.303M293.303 67.1983L293.764 67.1983C293.816 67.4663 293.845 67.7523 293.845 68.0589V73.0302H288.364V68.0589C288.364 67.7523 288.395 67.4675 288.448 67.1983L288.905 67.1983M293.039 66.1741H296.504M293.039 66.1741C292.883 66.1741 292.757 66.2991 292.757 66.4537C292.757 66.6083 292.883 66.7332 293.039 66.7332M293.039 66.1741L293.427 66.1741C292.66 64.5806 291.104 63.9493 291.104 63.9493C291.104 63.9493 289.57 64.6154 288.797 66.1741L289.169 66.1741M296.504 66.1741C296.661 66.1741 296.786 66.2991 296.786 66.4537C296.786 66.6083 296.661 66.7332 296.504 66.7332M296.504 66.7332H293.039M285.969 66.7332H288.905M285.969 66.7332C285.84 66.7332 285.735 66.8376 285.735 66.9664C285.735 67.0939 285.84 67.1983 285.969 67.1983M285.969 66.7332L286.312 66.7332L285.703 66.7332M288.905 66.7332C289.034 66.7332 289.138 66.8376 289.138 66.9664C289.138 67.0939 289.034 67.1983 288.905 67.1983M288.905 66.7332L288.57 66.7332L289.169 66.7332M288.905 67.1983H285.969M285.969 67.1983L286.429 67.1983C286.48 67.4663 286.511 67.7523 286.511 68.0589V73.0302H281.028V68.0589C281.028 67.7523 281.06 67.4675 281.114 67.1983L281.57 67.1983M285.703 66.1741H289.169M285.703 66.1741C285.549 66.1741 285.423 66.2991 285.423 66.4537C285.423 66.6083 285.549 66.7332 285.703 66.7332M285.703 66.1741L286.093 66.1741C285.325 64.5806 283.769 63.9493 283.769 63.9493C283.769 63.9493 282.235 64.6154 281.462 66.1741L281.835 66.1741M289.169 66.1741C289.325 66.1741 289.451 66.2991 289.451 66.4537C289.451 66.6083 289.325 66.7332 289.169 66.7332M289.169 66.7332H285.703M278.634 66.7332H281.57M278.634 66.7332C278.505 66.7332 278.401 66.8376 278.401 66.9664C278.401 67.0939 278.505 67.1983 278.634 67.1983M278.634 66.7332L278.978 66.7332L278.368 66.7332M281.57 66.7332C281.699 66.7332 281.804 66.8376 281.804 66.9664C281.804 67.0939 281.699 67.1983 281.57 67.1983M281.57 66.7332L281.235 66.7332L281.835 66.7332M281.57 67.1983H278.634M278.634 67.1983L279.095 67.1983C279.145 67.4663 279.175 67.7523 279.175 68.0589V73.0302H273.694V68.0589C273.694 67.7523 273.726 67.4675 273.779 67.1983L274.236 67.1983M278.368 66.1741H281.835M278.368 66.1741C278.214 66.1741 278.088 66.2991 278.088 66.4537C278.088 66.6083 278.214 66.7332 278.368 66.7332M278.368 66.1741L278.759 66.1741C277.991 64.5806 276.435 63.9493 276.435 63.9493C276.435 63.9493 274.9 64.6154 274.128 66.1741L274.5 66.1741M281.835 66.1741C281.99 66.1741 282.116 66.2991 282.116 66.4537C282.116 66.6083 281.99 66.7332 281.835 66.7332M281.835 66.7332H278.368M271.3 66.7332H274.236M271.3 66.7332C271.17 66.7332 271.065 66.8376 271.065 66.9664C271.065 67.0939 271.17 67.1983 271.3 67.1983M271.3 66.7332L271.642 66.7332L271.034 66.7332M274.236 66.7332C274.365 66.7332 274.469 66.8376 274.469 66.9664C274.469 67.0939 274.365 67.1983 274.236 67.1983M274.236 66.7332L273.901 66.7332L274.5 66.7332M274.236 67.1983H271.3M271.3 67.1983L271.76 67.1983C271.811 67.4663 271.84 67.7523 271.84 68.0589V73.0302H266.359V68.0589C266.359 67.7523 266.39 67.4675 266.445 67.1983L266.901 67.1983M271.034 66.1741H274.5M271.034 66.1741C270.878 66.1741 270.753 66.2991 270.753 66.4537C270.753 66.6083 270.878 66.7332 271.034 66.7332M271.034 66.1741L271.423 66.1741C270.655 64.5806 269.099 63.9493 269.099 63.9493C269.099 63.9493 267.565 64.6154 266.793 66.1741L267.166 66.1741M274.5 66.1741C274.656 66.1741 274.782 66.2991 274.782 66.4537C274.782 66.6083 274.656 66.7332 274.5 66.7332M274.5 66.7332H271.034M264.9 66.7332H266.901M264.9 66.7332V67.1983H266.901M264.9 66.7332L267.166 66.7332M264.9 66.7332V66.1741H267.166M266.901 66.7332C267.031 66.7332 267.134 66.8376 267.134 66.9664C267.134 67.0939 267.031 67.1983 266.901 67.1983M266.901 66.7332L266.567 66.7332L267.166 66.7332M267.166 66.1741C267.321 66.1741 267.447 66.2991 267.447 66.4537C267.447 66.6083 267.321 66.7332 267.166 66.7332M301.18 66.1742V63.1133H295.698V66.1742M293.845 66.1742V63.1133H288.364V66.1742M286.511 66.1742V63.1133H281.028V66.1742M279.175 66.1742V63.1133H273.694V66.1742M271.84 66.1742V63.1133H266.359V66.1742M301.159 55.8643V54.3428M301.159 55.8643H302.735M301.159 55.8643H299.582M301.159 54.3428C301.159 53.91 301.512 53.5596 301.948 53.5596C302.383 53.5596 302.735 53.91 302.735 54.3428V55.8643M301.159 54.3428C301.159 53.91 300.806 53.5596 300.371 53.5596C299.935 53.5596 299.582 53.91 299.582 54.3428M302.735 55.8643H264.9M299.582 55.8643V54.3428M299.582 55.8643H298.005M299.582 54.3428C299.582 53.91 299.229 53.5596 298.794 53.5596C298.359 53.5596 298.005 53.91 298.005 54.3428M298.005 55.8643V54.3428M298.005 55.8643H296.43M298.005 54.3428C298.005 53.91 297.653 53.5596 297.218 53.5596C296.782 53.5596 296.43 53.91 296.43 54.3428M296.43 55.8643V54.3428M296.43 55.8643H294.853M296.43 54.3428C296.43 53.91 296.077 53.5596 295.641 53.5596C295.206 53.5596 294.853 53.91 294.853 54.3428M294.853 55.8643V54.3428M294.853 55.8643H293.277M294.853 54.3428C294.853 53.91 294.5 53.5596 294.064 53.5596C293.629 53.5596 293.277 53.91 293.277 54.3428M293.277 55.8643V54.3428M293.277 55.8643H291.7M293.277 54.3428C293.277 53.91 292.923 53.5596 292.489 53.5596C292.053 53.5596 291.7 53.91 291.7 54.3428M291.7 55.8643V54.3428M291.7 55.8643H290.124M291.7 54.3428C291.7 53.91 291.348 53.5596 290.912 53.5596C290.476 53.5596 290.124 53.91 290.124 54.3428M290.124 55.8643V54.3428M290.124 55.8643H288.548M290.124 54.3428C290.124 53.91 289.771 53.5596 289.335 53.5596C288.899 53.5596 288.548 53.91 288.548 54.3428M288.548 55.8643V54.3428M288.548 55.8643H286.971M288.548 54.3428C288.548 53.91 288.194 53.5596 287.758 53.5596C287.324 53.5596 286.971 53.91 286.971 54.3428M286.971 55.8643V54.3428M286.971 55.8643H285.394M286.971 54.3428C286.971 53.91 286.618 53.5596 286.183 53.5596M285.394 55.8643V54.3428M285.394 55.8643H283.817M285.394 54.3428C285.394 53.91 285.747 53.5596 286.183 53.5596M285.394 54.3428C285.394 53.91 285.042 53.5596 284.606 53.5596C284.171 53.5596 283.817 53.91 283.817 54.3428M286.183 53.5596L286.183 53.0907M283.817 55.8643V54.3428M283.817 55.8643H282.242M283.817 54.3428C283.817 53.91 283.465 53.5596 283.029 53.5596C282.595 53.5596 282.242 53.91 282.242 54.3428M282.242 55.8643V54.3428M282.242 55.8643H280.665M282.242 54.3428C282.242 53.91 281.888 53.5596 281.453 53.5596C281.018 53.5596 280.665 53.91 280.665 54.3428M280.665 55.8643V54.3428M280.665 55.8643H279.088M280.665 54.3428C280.665 53.91 280.312 53.5596 279.877 53.5596C279.442 53.5596 279.088 53.91 279.088 54.3428M279.088 55.8643V54.3428M279.088 55.8643H277.513M279.088 54.3428C279.088 53.91 278.735 53.5596 278.301 53.5596C277.865 53.5596 277.513 53.91 277.513 54.3428M279.088 54.3428C279.088 53.9293 278.767 53.5918 278.358 53.5622C277.882 53.5132 277.513 53.9293 277.513 54.3428M277.513 55.8643V54.3428M277.513 55.8643H275.936M277.513 54.3428C277.513 53.91 277.158 53.5596 276.724 53.5596C276.288 53.5596 275.936 53.91 275.936 54.3428M275.936 55.8643V54.3428M275.936 55.8643H274.359M275.936 54.3428C275.936 53.91 275.583 53.5596 275.147 53.5596C274.712 53.5596 274.359 53.91 274.359 54.3428M274.359 55.8643V54.3428M274.359 55.8643H272.782M274.359 54.3428C274.359 53.91 274.006 53.5596 273.572 53.5596C273.136 53.5596 272.782 53.91 272.782 54.3428M272.782 55.8643V54.3428M272.782 55.8643H271.206M272.782 54.3428C272.782 53.91 272.43 53.5596 271.993 53.5596C271.559 53.5596 271.206 53.91 271.206 54.3428M271.206 55.8643V54.3428M271.206 55.8643H269.629M271.206 54.3428C271.206 53.91 270.854 53.5596 270.418 53.5596M269.629 55.8643V54.3428M269.629 55.8643H268.053M269.629 54.3428C269.629 53.91 269.982 53.5596 270.418 53.5596M269.629 54.3428C269.629 53.91 269.277 53.5596 268.841 53.5596C268.407 53.5596 268.053 53.91 268.053 54.3428M270.418 53.5596L270.418 53.0907M268.053 55.8643V54.3428M268.053 55.8643H266.477M268.053 54.3428C268.053 53.91 267.701 53.5596 267.266 53.5596C266.83 53.5596 266.477 53.91 266.477 54.3428M266.477 55.8643V54.3428M266.477 55.8643H264.9M266.477 54.3428C266.477 53.91 266.124 53.5596 265.689 53.5596C265.253 53.5596 264.9 53.91 264.9 54.3428V55.8643M264.9 55.8643V73.0302M282.142 43.9171C282.142 43.9171 280.651 43.0372 279.629 41.9847C278.817 41.1473 278.687 40.7209 278.455 40.6346V40.0626H278.581C278.581 40.0626 278.761 40.06 278.761 39.8977C278.761 39.7367 278.591 39.7341 278.591 39.7341H278.455V38.4806H278.503C278.503 38.4806 278.632 38.4794 278.632 38.3634C278.632 38.2488 278.511 38.2475 278.511 38.2475H278.455V36.9116C278.455 36.8175 278.387 36.7415 278.301 36.7415C278.214 36.7415 278.145 36.8175 278.145 36.9116V38.2475H278.09C278.09 38.2475 277.969 38.2488 277.969 38.3634C277.969 38.4794 278.097 38.4806 278.097 38.4806H278.145V39.7341H278.009C278.009 39.7341 277.839 39.7367 277.839 39.8977C277.839 40.06 278.02 40.0626 278.02 40.0626H278.145V40.6346C277.913 40.7209 277.784 41.1473 276.97 41.9847C275.95 43.0372 274.459 43.9171 274.459 43.9171M282.142 43.9171C282.142 43.9171 281.09 44.8008 278.266 44.8008C275.442 44.8008 274.459 43.9171 274.459 43.9171M282.142 43.9171C289.156 46.5425 285.96 52.3873 285.96 52.3873H270.641C270.641 52.3873 267.444 46.5425 274.459 43.9171M286.183 53.0907C286.379 53.0907 286.537 52.9335 286.537 52.739C286.537 52.5444 286.379 52.3873 286.183 52.3873H270.418C270.222 52.3873 270.064 52.5444 270.064 52.739C270.064 52.9335 270.222 53.0907 270.418 53.0907M286.183 53.0907H270.418M302.735 73.0302H264.9M271.249 52.3873C271.249 52.3873 268.381 46.6907 274.521 44.0188M282.028 43.9956C288.235 46.6584 285.351 52.3872 285.351 52.3872M273.111 52.3873C273.111 52.3873 271.132 47.0462 275.108 44.2816M281.481 44.2739C285.471 47.0372 283.489 52.3873 283.489 52.3873M275.7 52.3873C275.7 52.3873 274.793 47.5022 276.457 44.6577M280.138 44.6488C281.81 47.492 280.901 52.3873 280.901 52.3873M277.19 52.3873C277.19 52.3873 276.812 47.6182 277.489 44.7596M279.114 44.7725C279.787 47.6311 279.411 52.3873 279.411 52.3873M251.499 46.8182C251.499 48.6128 261.653 50.3081 260.586 54.4112C260.347 55.3297 259.635 55.1184 259.635 55.1184V56.3242H260.931V75H242.069V56.3242H243.363V55.1184C243.363 55.1184 242.653 55.3297 242.414 54.4112C241.347 50.3081 251.499 48.6128 251.499 46.8182ZM251.499 46.8182C251.499 48.824 258.021 50.2617 260.647 54.3725M251.499 46.8182C251.499 48.824 244.978 50.2617 242.352 54.3751M251.499 46.8182C251.499 49.3303 256.785 50.9497 256.785 58.044M251.499 46.8182C251.499 49.3303 246.215 50.9497 246.215 58.044M251.499 46.8182C251.499 49.3303 252.402 50.9497 252.402 58.044M251.499 46.8182C251.499 49.3303 250.598 50.9497 250.598 58.044M244.059 59.0025H243.153V75H244.059M258.94 59.0025H259.847V75H258.94M246.933 36.2442C246.933 36.2442 251.004 33.7682 251.315 31.944V31.2651H251.166C251.166 31.2651 250.952 31.2626 250.952 31.0706C250.952 30.8774 251.153 30.8761 251.153 30.8761H251.315V29.3843H251.258C251.258 29.3843 251.106 29.383 251.106 29.2451C251.106 29.1099 251.249 29.1073 251.249 29.1073H251.315L251.499 26.1405L251.684 29.1073H251.751C251.751 29.1073 251.894 29.1099 251.894 29.2451C251.894 29.383 251.741 29.3843 251.741 29.3843H251.684V30.8761H251.846C251.846 30.8761 252.048 30.8774 252.048 31.0706C252.048 31.2626 251.833 31.2651 251.833 31.2651H251.684V31.944C252.073 33.5531 256.065 36.2442 256.065 36.2442M246.933 36.2442C246.933 36.2442 248.182 37.2941 251.54 37.2941C254.898 37.2941 256.065 36.2442 256.065 36.2442M265.204 29.6316H260.875M265.204 29.6316C266.618 29.9485 266.528 30.5488 266.528 30.5488C265.246 30.5488 264.89 32.7492 264.89 32.7492H261.188C261.188 32.7492 260.832 30.5488 259.551 30.5488C259.551 30.5488 259.46 29.9485 260.875 29.6316M265.204 29.6316L265.204 29.0777M260.875 29.6316L260.875 29.0777M261.604 23.5523H260.168V24.4823H261.604M261.604 23.5523V24.4823M261.604 23.5523H263.039M261.604 24.4823H263.039M263.039 23.5523V24.4823M263.039 23.5523H264.475M263.039 24.4823H264.475M264.475 23.5523V24.4823M264.475 23.5523H265.909V24.4823H264.475M261.963 32.7492H260.887V33.6806H261.963M261.963 32.7492V33.6806M261.963 32.7492H263.039M261.963 33.6806H263.039M263.039 32.7492V33.6806M263.039 32.7492H264.116M263.039 33.6806H264.116M264.116 32.7492V33.6806M264.116 32.7492H265.192V33.6806H264.116M263.039 20.6165C260.643 20.6165 260.875 23.5524 260.875 23.5524H265.204C265.204 23.5524 265.436 20.6165 263.039 20.6165ZM263.039 20.6165C263.304 20.6165 263.535 20.6538 263.738 20.7182C263.696 20.3781 263.546 19.8409 263.039 19.8409M263.039 20.6165C262.775 20.6165 262.544 20.6538 262.339 20.7182C262.382 20.3781 262.532 19.8409 263.039 19.8409M263.039 19.8409C262.891 19.8409 262.775 19.8886 262.681 19.962H262.68C262.68 19.962 262.607 18.448 263.039 18.0183C263.471 18.448 263.397 19.962 263.397 19.962H263.396C263.303 19.8886 263.187 19.8409 263.039 19.8409ZM264.956 26.0825V29.0777H265.204M264.956 26.0825C264.956 25.7398 265.071 25.4925 265.204 25.3199M264.956 26.0825C264.956 25.7244 265.064 25.4925 265.204 25.3199M265.204 25.3199V24.4825H260.875V25.1189M265.204 25.3199V29.0777M260.875 25.1189C261.063 25.2748 261.324 25.5788 261.324 26.0825V29.0777H260.875M260.875 25.1189V29.0777M242.091 29.6316H237.763M242.091 29.6316C243.506 29.9485 243.414 30.5488 243.414 30.5488C242.134 30.5488 241.778 32.7492 241.778 32.7492H238.075C238.075 32.7492 237.719 30.5488 236.439 30.5488C236.439 30.5488 236.347 29.9485 237.763 29.6316M242.091 29.6316L242.091 29.0777M237.763 29.6316L237.763 29.0777M238.492 23.5523H237.056V24.4823H238.492M238.492 23.5523V24.4823M238.492 23.5523H239.927M238.492 24.4823H239.927M239.927 23.5523V24.4823M239.927 23.5523H241.363M239.927 24.4823H241.363M241.363 23.5523V24.4823M241.363 23.5523H242.797V24.4823H241.363M238.851 32.7492H237.774V33.6806H238.851M238.851 32.7492V33.6806M238.851 32.7492H239.927M238.851 33.6806H239.927M239.927 32.7492V33.6806M239.927 32.7492H241.003M239.927 33.6806H241.003M241.003 32.7492V33.6806M241.003 32.7492H242.078V33.6806H241.003M239.927 20.6165C237.531 20.6165 237.763 23.5524 237.763 23.5524H242.091C242.091 23.5524 242.323 20.6165 239.927 20.6165ZM239.927 20.6165C240.192 20.6165 240.422 20.6538 240.626 20.7182C240.583 20.3781 240.433 19.8409 239.927 19.8409M239.927 20.6165C239.663 20.6165 239.432 20.6538 239.227 20.7182C239.271 20.3781 239.42 19.8409 239.927 19.8409M239.927 19.8409C239.779 19.8409 239.662 19.8886 239.569 19.962H239.568C239.568 19.962 239.495 18.448 239.927 18.0183C240.359 18.448 240.286 19.962 240.286 19.962H240.284C240.19 19.8886 240.075 19.8409 239.927 19.8409ZM241.844 26.0825V29.0777H242.091M241.844 26.0825C241.844 25.7398 241.959 25.4925 242.091 25.3199M241.844 26.0825C241.844 25.7244 241.951 25.4925 242.091 25.3199M242.091 25.3199V24.4825H237.763V25.1189M242.091 25.3199V29.0777M237.763 25.1189C237.951 25.2748 238.211 25.5788 238.211 26.0825V29.0777H237.763M237.763 25.1189V29.0777M196.31 18.702H195.034V15.7078C195.034 14.8983 195.674 14.6176 195.674 14.6176C195.674 14.6176 196.31 14.9201 196.31 15.7078V18.702ZM197.947 18.702H196.671V15.7078C196.671 14.8983 197.309 14.6176 197.309 14.6176C197.309 14.6176 197.947 14.9201 197.947 15.7078V18.702ZM200.265 56.6797H238.1V58.044H200.265V56.6797ZM201.357 59.0025H207.765V62.2012H201.357V59.0025ZM208.692 59.0025H215.099V62.2012H208.692V59.0025ZM216.028 59.0025H222.434V62.2012H216.028V59.0025ZM223.362 59.0025H229.769V62.2012H223.362V59.0025ZM230.697 59.0025H237.104V62.2012H230.697V59.0025ZM306.69 18.702H307.966V15.7078C307.966 14.8983 307.328 14.6176 307.328 14.6176C307.328 14.6176 306.69 14.9201 306.69 15.7078V18.702ZM305.053 18.702H306.329V15.7078C306.329 14.8983 305.691 14.6176 305.691 14.6176C305.691 14.6176 305.053 14.9201 305.053 15.7078V18.702ZM264.9 56.6797H302.735V58.044H264.9V56.6797ZM295.235 59.0025H301.643V62.2012H295.235V59.0025ZM287.901 59.0025H294.308V62.2012H287.901V59.0025ZM280.566 59.0025H286.972V62.2012H280.566V59.0025ZM273.231 59.0025H279.638V62.2012H273.231V59.0025ZM265.896 59.0025H272.303V62.2012H265.896V59.0025ZM254.992 64.4285V63.8604C254.992 63.8604 255.327 63.9596 255.439 63.5267C255.942 61.5944 251.499 60.7956 251.499 59.9506C251.499 60.7956 247.058 61.5944 247.56 63.5267C247.673 63.9596 248.009 63.8604 248.009 63.8604V64.4285H247.058V74.9999H255.942V64.4285H254.992ZM242.041 58.044H260.959V59.0025H242.041V58.044ZM245.205 59.0025H246.111V75H245.205V59.0025ZM256.889 59.0025H257.794V67.0012V75H256.889V59.0025ZM262.959 29.0777H261.684V26.0825C261.684 25.2735 262.322 24.9926 262.322 24.9926C262.322 24.9926 262.959 25.2954 262.959 26.0825V29.0777ZM264.595 29.0777H263.319V26.0825C263.319 25.2735 263.957 24.9926 263.957 24.9926C263.957 24.9926 264.595 25.2954 264.595 26.0825V29.0777ZM239.847 29.0777H238.571V26.0825C238.571 25.2735 239.209 24.9926 239.209 24.9926C239.209 24.9926 239.847 25.2954 239.847 26.0825V29.0777ZM241.483 29.0777H240.207V26.0825C240.207 25.2735 240.845 24.9926 240.845 24.9926C240.845 24.9926 241.483 25.2954 241.483 26.0825V29.0777Z" stroke="#059345" stroke-width="0.5" stroke-miterlimit="2" stroke-linecap="round" stroke-linejoin="round"/>
<path d="M0 53H193" stroke="#059345" stroke-width="0.5"/>
<path d="M310 53L503 53" stroke="#059345" stroke-width="0.5"/>
</svg>
