<svg width="55" height="58" viewBox="0 0 55 58" fill="none" xmlns="http://www.w3.org/2000/svg">
<path d="M55 2.89474V8.68421C55 19.8753 45.9279 28.9474 34.7368 28.9474H31.8421V31.8421H46.3158V52.1053C46.3158 55.3039 43.725 57.8947 40.5263 57.8947H17.3684C14.1697 57.8947 11.5789 55.3039 11.5789 52.1053V31.8421H26.0526V23.1579C26.0526 11.9668 35.1247 2.89474 46.3158 2.89474H55ZM10.1316 0C17.4524 0 23.925 3.62132 27.8589 9.17342C24.9063 13.0553 23.1579 17.9039 23.1579 23.1579V26.0526H21.7105C9.72053 26.0526 0 16.3321 0 4.3421V0H10.1316Z" fill="#22366C"/>
</svg>
