<svg width="78" height="73" viewBox="0 0 78 73" fill="none" xmlns="http://www.w3.org/2000/svg">
<rect x="0.5" width="77" height="73" rx="4" fill="white"/>
<path d="M38.5008 11C24.7142 11 13.5 22.2158 13.5 36.0014C13.5 49.787 24.7142 61.0021 38.5008 61.0021C52.2864 61.0021 63.5014 49.787 63.5014 36.0014C63.5014 22.2159 52.2864 11 38.5008 11ZM38.5008 57.0586C26.8895 57.0586 17.4436 47.6119 17.4436 36.0014C17.4436 24.3903 26.8895 14.9444 38.5008 14.9444C50.112 14.9444 59.5579 24.3903 59.5579 36.0014C59.5579 47.6119 50.112 57.0586 38.5008 57.0586Z" fill="#22366C"/>
<path d="M50.3364 25.5691L34.3172 41.8903L26.3801 36.1428C25.373 35.4134 23.9636 35.6388 23.2327 36.646C22.5033 37.6546 22.7287 39.0631 23.7366 39.7934L33.2456 46.6785C33.6424 46.9661 34.1054 47.1066 34.5669 47.1066C35.1543 47.1066 35.738 46.8782 36.1751 46.432L53.5528 28.7265C54.4249 27.8384 54.412 26.4117 53.5225 25.5396C52.636 24.6683 51.2085 24.6812 50.3364 25.5691Z" fill="#059345"/>
</svg>
