<svg width="78" height="73" viewBox="0 0 78 73" fill="none" xmlns="http://www.w3.org/2000/svg">
<rect x="0.5" width="77" height="73" rx="4" fill="white"/>
<path d="M38.9698 6.01095C39.4111 6.10635 39.8404 6.20176 40.2816 6.29716C42.3805 6.71455 44.4913 7.12001 46.5902 7.5374C47.3176 7.68051 48.0451 7.82361 48.7725 7.96672C48.9395 8.00249 49.1064 8.05019 49.2615 8.10982C49.8697 8.36025 50.2274 8.82535 50.299 9.46932C50.3467 9.92248 50.3467 10.3876 50.3467 10.8407C50.3467 13.035 50.3586 15.2293 50.3467 17.4236C50.3228 20.9654 49.1184 24.0422 46.7094 26.6419C45.2784 28.1922 43.5611 29.3013 41.5934 30.0406C40.7944 30.3388 39.9835 30.625 39.1845 30.935C38.779 31.0901 38.3616 31.102 37.9562 30.947C37.0021 30.5892 36.0362 30.2553 35.0941 29.8737C30.9321 28.2041 27.8792 24.5073 27.0087 20.1068C26.8298 19.1885 26.7344 18.2583 26.7344 17.3162C26.7344 14.8238 26.7344 12.3314 26.7344 9.85093C26.7344 9.6482 26.7582 9.43354 26.8059 9.23081C26.9848 8.57491 27.426 8.15752 28.0819 8.01442C28.9406 7.82361 29.7992 7.65665 30.6578 7.4897C32.8521 7.06038 35.0583 6.63107 37.2526 6.20176C37.5746 6.14213 37.9085 6.07058 38.2305 5.99902C38.469 6.01095 38.7194 6.01095 38.9698 6.01095ZM27.4499 13.9652C27.4499 15.0743 27.4499 16.1833 27.4499 17.2805C27.4499 18.1391 27.5215 18.9977 27.6765 19.8444C28.4636 24.0541 31.3614 27.6079 35.3445 29.1939C36.2508 29.5636 37.181 29.8737 38.0993 30.2314C38.3974 30.3507 38.6836 30.3388 38.9818 30.2314C39.745 29.9333 40.5201 29.659 41.2834 29.3728C43.0483 28.7169 44.6106 27.739 45.9343 26.3795C48.3313 23.911 49.5715 20.9654 49.6073 17.519C49.6312 15.2531 49.6073 12.9754 49.6073 10.7096C49.6073 10.3995 49.6073 10.0775 49.5954 9.76745C49.5715 9.15926 49.3092 8.83727 48.7248 8.69417C48.4744 8.63454 48.224 8.58684 47.9735 8.53914C45.0637 7.96672 42.1539 7.3943 39.2561 6.82188C38.8864 6.75032 38.5167 6.70262 38.147 6.77417C37.8369 6.8338 37.5269 6.89343 37.2168 6.95306C35.1179 7.35852 33.0071 7.77591 30.9083 8.18137C30.0377 8.34833 29.1672 8.51528 28.2966 8.70609C27.76 8.81342 27.4618 9.18311 27.438 9.73168C27.438 9.80323 27.438 9.88671 27.438 9.95826C27.4499 11.2939 27.4499 12.6295 27.4499 13.9652Z" fill="#059345"/>
<path d="M30.3242 15.2078C30.3242 14.2776 30.3242 13.3594 30.3242 12.4292C30.3242 12.298 30.3242 12.1549 30.3481 12.0356C30.4554 11.5109 30.7655 11.1651 31.3021 11.0458C31.9461 10.9027 32.59 10.7835 33.234 10.6642C34.8678 10.3422 36.5135 10.0322 38.1473 9.7102C38.505 9.63864 38.8509 9.66249 39.1967 9.73405C41.3671 10.1634 43.5376 10.5807 45.708 11.0101C46.2208 11.1174 46.6024 11.3917 46.7336 11.9164C46.7574 12.0237 46.7694 12.143 46.7694 12.2503C46.7694 14.063 46.7932 15.8756 46.7574 17.6883C46.6978 21.6118 44.2769 25.1178 40.6397 26.5846C40.0911 26.8112 39.5306 26.9901 38.9821 27.1928C38.672 27.3121 38.3739 27.3002 38.0638 27.1809C37.5987 27.002 37.1336 26.847 36.6685 26.6681C34.5577 25.8214 32.8524 24.4858 31.6956 22.5062C30.8012 20.9559 30.3242 19.2863 30.3242 17.4856C30.3242 16.7343 30.3242 15.971 30.3242 15.2078Z" fill="#059345"/>
<path d="M68.5206 41.1657C68.5086 37.755 68.4967 34.3324 68.4848 30.9217C68.4848 30.3851 68.4848 29.8485 68.449 29.3237C68.4132 28.644 67.805 28.2862 67.1849 28.5486C67.0537 28.6082 66.9345 28.6798 66.8033 28.7513C63.8577 30.4686 60.9002 32.1858 57.9547 33.9031C56.1539 34.9525 54.3651 35.99 52.5763 37.0514C52.2066 37.2661 51.8369 37.3138 51.4315 37.1587C50.8113 36.9322 50.1912 36.7294 49.5711 36.5267C47.2099 35.7396 44.8248 35.6323 42.4159 36.2524C42.0342 36.3478 41.6526 36.479 41.2591 36.5982C41.1995 36.5386 41.1398 36.4909 41.0683 36.4313C38.23 33.8554 34.9028 32.8775 31.1344 33.4142C29.2741 33.6765 27.4256 34.0104 25.5772 34.3205C25.3625 34.3563 25.1717 34.3324 24.969 34.237C20.0438 31.9116 15.1067 29.598 10.1696 27.2845C9.96682 27.1891 9.75217 27.0818 9.54944 26.9983C9.17975 26.8552 8.84584 26.9744 8.63118 27.2964C8.5954 27.3561 8.5477 27.4157 8.5 27.4753C8.5 32.8417 8.5 38.1962 8.5 43.5627C8.52385 43.5985 8.55963 43.6223 8.57155 43.6581C8.70273 44.0993 9.03664 44.3259 9.43018 44.5167C12.5546 46.0312 15.6672 47.5577 18.7797 49.0722C19.2448 49.2988 19.6383 49.6089 19.9484 50.0143C20.9501 51.3023 22.1427 52.3756 23.4902 53.27C23.7287 53.4369 24.003 53.5562 24.2654 53.6993C24.325 53.735 24.3608 53.7827 24.4204 53.8185C24.814 54.1047 25.2075 54.3909 25.6964 54.4864C26.2092 55.7147 27.1633 56.2752 28.4631 56.2871C28.4274 56.5017 28.3797 56.6687 28.3677 56.8476C28.3558 57.0265 28.3439 57.2173 28.3677 57.3842C28.5705 59.0419 30.0254 60.0913 31.6711 59.7812C31.7307 59.7693 31.7903 59.7812 31.8619 59.7812C31.8499 59.9482 31.838 60.1032 31.8261 60.2463C31.7903 61.1169 32.1242 61.8324 32.792 62.369C33.4837 62.9295 34.2827 63.0726 35.1414 62.9295C35.2129 62.9176 35.2845 62.9176 35.3679 62.9057C35.356 62.9772 35.356 63.0249 35.356 63.0726C35.2368 64.5275 36.1312 65.7082 37.5622 65.9944C37.7053 66.0182 37.8365 66.0659 37.9677 66.1017C38.0631 66.1017 38.1585 66.1017 38.2539 66.1017C38.3016 66.0898 38.3374 66.0659 38.3851 66.054C39.041 65.9705 39.6015 65.6962 40.1023 65.255C40.2931 65.088 40.4839 64.9211 40.6867 64.7422C41.6169 65.6247 42.6901 65.887 43.8588 65.3027C45.0156 64.7303 45.5522 63.7524 45.4568 62.4287C46.4228 62.6552 47.2576 62.4644 47.985 61.8324C48.7125 61.1884 49.0583 60.3894 48.9748 59.3877C49.9408 59.6143 50.7994 59.4115 51.5269 58.7795C52.2782 58.1355 52.5882 57.3127 52.5047 56.3348C54.3293 56.7999 56.142 55.3092 56.0704 53.4488C56.1062 53.425 56.142 53.4011 56.1897 53.3892C56.7025 53.1507 57.1795 52.8526 57.6327 52.5067C58.7179 51.6839 59.6123 50.6941 60.3517 49.5612C60.4828 49.3584 60.6498 49.2272 60.8644 49.1199C63.1303 48.0109 65.408 46.9018 67.6739 45.8047C68.0793 45.6138 68.4013 45.3753 68.5444 44.9341C68.5444 43.7654 68.5444 42.6086 68.5444 41.44C68.5444 41.3565 68.5206 41.2611 68.5206 41.1657ZM43.4176 64.7422C42.6544 65.0523 41.8554 64.8972 41.271 64.2533C40.6986 63.6331 40.15 62.9772 39.6015 62.3333C38.5401 61.0572 39.6015 59.3281 40.8298 59.1253C41.271 59.0538 41.6884 59.0657 42.0819 59.2684C42.2012 59.3281 42.3204 59.4354 42.4039 59.5308C43.0598 60.2821 43.6919 61.0572 44.3716 61.7966C44.5863 62.0351 44.6936 62.2736 44.7413 62.5718C44.7532 62.6553 44.7532 62.7387 44.7532 62.7745C44.7652 63.657 44.2404 64.4202 43.4176 64.7422ZM47.6869 61.1526C47.2337 61.6058 46.7805 61.8085 46.1485 61.8205C45.6834 61.8085 45.1825 61.6297 44.8009 61.2003C44.2643 60.5802 43.7157 59.972 43.191 59.34C42.5947 58.6245 42.5351 57.742 43.024 57.0145C43.4295 56.4063 44.2524 55.7862 45.3256 56.0963C45.6715 56.1917 45.9696 56.3706 46.2081 56.6448C46.7448 57.265 47.2933 57.8732 47.8181 58.5052C48.4978 59.3281 48.4501 60.3894 47.6869 61.1526ZM51.5865 57.6227C51.2287 58.2548 50.6802 58.6483 49.9527 58.7556C49.5234 58.8153 49.1179 58.7079 48.7482 58.4814C48.6886 58.4456 48.6528 58.3979 48.6051 58.3502C47.8896 57.5273 47.186 56.7045 46.4705 55.8816C46.4109 55.822 46.3751 55.7385 46.3393 55.667C46.3035 55.5596 46.2678 55.4523 46.2439 55.3331C46.2201 55.2257 46.2201 55.1065 46.2201 54.9872C46.232 54.1644 46.8044 53.3892 47.6273 53.0672C48.3786 52.781 49.2014 52.9837 49.7619 53.6039C50.3224 54.2359 50.871 54.868 51.4076 55.5C51.8965 56.0963 51.9681 56.9668 51.5865 57.6227ZM52.4928 55.5358C52.3259 55.4523 52.1947 55.345 52.0754 55.2019C51.4076 54.4267 50.7279 53.6516 50.0362 52.8764C49.8812 52.7095 49.8335 52.5187 49.7858 52.3159C49.6903 51.8031 49.7738 51.3261 50.072 50.8968C50.5132 50.2528 51.3241 49.6923 52.3497 49.9666C52.7075 50.062 53.0175 50.2409 53.256 50.5271C53.8046 51.1592 54.3532 51.7912 54.9017 52.4233C55.1999 52.7691 55.343 53.1746 55.3311 53.6277C55.3907 54.9157 53.8523 56.1678 52.4928 55.5358Z" fill="#22366C"/>
</svg>
