<svg width="78" height="73" viewBox="0 0 78 73" fill="none" xmlns="http://www.w3.org/2000/svg">
<rect x="0.5" width="77" height="73" rx="4" fill="white"/>
<path d="M56.5 32.8381L54.75 32.9365V24.1865C54.75 15.5011 47.6855 8.43652 39 8.43652C30.3145 8.43652 23.25 15.5011 23.25 24.1865V32.9365L21.5 32.8381C17.6336 32.8381 14.5 35.9717 14.5 39.8381V57.3381C14.5 61.2034 17.6336 64.3381 21.5 64.3381H56.5C60.3664 64.3381 63.5 61.2034 63.5 57.3381V39.8381C63.5 36.0756 60.3609 32.8381 56.5 32.8381ZM30.25 24.1865C30.25 19.3609 34.1766 15.4365 39 15.4365C43.8234 15.4365 47.75 19.3609 47.75 24.1865V32.9365H30.25V24.1865Z" fill="#059345"/>
</svg>
