<svg width="1682" height="122" viewBox="0 0 1682 122" fill="none" xmlns="http://www.w3.org/2000/svg">
<path d="M907.695 117.431C904.871 117.431 902.592 115.17 902.389 112.172L902.142 107.51C902.116 107.05 902.469 106.661 902.923 106.635C903.423 106.635 903.773 106.963 903.797 107.417L904.045 112.07C904.19 114.209 905.725 115.772 907.695 115.772C909.742 115.772 911.345 114.164 911.345 112.114V107.219C911.345 106.761 911.715 106.39 912.174 106.39C912.631 106.39 913 106.761 913 107.219V112.114C913 115.048 910.62 117.431 907.695 117.431Z" fill="#23366C"/>
<path d="M773.558 108.294C771.044 108.294 769 106.211 769 103.645V83.0474C769 82.588 769.37 82.2169 769.827 82.2169C770.286 82.2169 770.655 82.588 770.655 83.0474V103.645C770.655 105.293 771.958 106.635 773.558 106.635C775.159 106.635 776.46 105.293 776.46 103.645L776.544 100.224C776.555 99.7638 776.856 99.4278 777.39 99.4147C777.848 99.4238 778.208 99.8039 778.197 100.263L778.115 103.665C778.115 106.211 776.071 108.294 773.558 108.294Z" fill="#23366C"/>
<path d="M777.288 104.059H777.263C776.805 104.044 776.446 103.662 776.46 103.205L776.956 87.7583C776.961 87.5186 777.069 87.305 777.237 87.1585C777.106 87.0051 777.033 86.8055 777.04 86.5889L777.62 70.8122C777.626 70.6187 777.7 70.4391 777.82 70.3017C777.691 70.1533 777.618 69.9597 777.62 69.7491L777.703 64.1867C777.709 63.7303 778.078 63.3682 778.531 63.3682H778.542C779 63.3733 779.366 63.7504 779.358 64.2097L779.276 69.7722C779.272 69.9748 779.198 70.1593 779.077 70.3017C779.207 70.4562 779.284 70.6558 779.276 70.8744L778.695 86.653C778.687 86.8897 778.579 87.0994 778.414 87.2448C778.542 87.3952 778.619 87.5958 778.61 87.8095L778.115 103.255C778.101 103.705 777.734 104.059 777.288 104.059ZM786.158 115.852C785.712 115.852 785.346 115.498 785.332 115.048L784.5 87.8095C784.492 87.5928 784.569 87.3952 784.697 87.2448C784.532 87.0974 784.424 86.8827 784.418 86.643L784.003 70.8664C783.997 70.6498 784.072 70.4532 784.203 70.3017C784.083 70.1623 784.01 69.9828 784.003 69.7862L783.839 64.2238C783.825 63.7644 784.182 63.3793 784.64 63.3682C785.118 63.4064 785.482 63.7133 785.494 64.1726L785.658 69.7351C785.667 69.9507 785.59 70.1503 785.459 70.3017C785.579 70.4411 785.653 70.6237 785.658 70.8203L786.073 86.5969C786.079 86.8105 786.005 87.0081 785.877 87.1585C786.042 87.307 786.15 87.5186 786.155 87.7583L786.987 114.997C787 115.455 786.642 115.838 786.184 115.852H786.158Z" fill="#23366C"/>
<path d="M778.531 63.8637C778.169 63.8637 777.837 63.628 777.734 63.2629C777.348 61.8969 777.684 59.914 779.904 58.8028C780.314 58.5971 780.811 58.7657 781.015 59.1759C781.22 59.5861 781.052 60.0855 780.643 60.2902C778.994 61.1136 779.219 62.4255 779.327 62.8066C779.452 63.2489 779.198 63.7072 778.758 63.8326C778.681 63.8557 778.605 63.8637 778.531 63.8637Z" fill="#23366C"/>
<path d="M780.188 60.3754C779.841 60.3754 779.517 60.1568 779.403 59.8087C779.259 59.3754 779.488 58.9081 779.92 58.7606C779.951 58.7486 780.487 58.549 780.893 58.0846C781.191 57.7376 781.719 57.7005 782.062 58.0074C782.406 58.3093 782.44 58.8338 782.139 59.1789C781.43 59.9883 780.55 60.3022 780.449 60.3333C780.365 60.3644 780.277 60.3754 780.188 60.3754Z" fill="#23366C"/>
<path d="M782.923 60.3754C782.798 60.3754 782.673 60.3503 782.554 60.2902C782.366 60.1969 781.41 59.7064 780.927 59.216C780.606 58.891 780.606 58.3665 780.933 58.0415C781.253 57.7226 781.784 57.7206 782.105 58.0475C782.321 58.2642 782.931 58.6202 783.293 58.8028C783.702 59.0084 783.87 59.5099 783.665 59.9181C783.517 60.2069 783.228 60.3754 782.923 60.3754Z" fill="#23366C"/>
<path d="M780.188 60.3754C779.878 60.3754 779.579 60.2029 779.437 59.9C779.243 59.4868 779.42 58.9913 779.835 58.7947C779.909 58.7576 781.657 57.9593 783.17 58.8258C783.569 59.0535 783.706 59.561 783.477 59.9602C783.249 60.3584 782.747 60.4928 782.346 60.2681C781.589 59.8318 780.552 60.2902 780.541 60.2992C780.427 60.3533 780.308 60.3754 780.188 60.3754Z" fill="#23366C"/>
<path d="M784.665 63.8637C784.609 63.8637 784.549 63.8597 784.492 63.8467C784.046 63.7504 783.76 63.3081 783.856 62.8608C784.214 61.1818 782.49 60.2992 782.473 60.2902C782.065 60.0855 781.897 59.5861 782.102 59.1759C782.306 58.7657 782.801 58.5971 783.213 58.8028C784.214 59.3042 785.977 60.8719 785.476 63.2088C785.394 63.5989 785.051 63.8637 784.665 63.8637Z" fill="#23366C"/>
<path d="M781.516 58.6312C781.058 58.6312 780.606 58.1759 780.606 57.7166C780.606 57.2582 781.058 56.8871 781.516 56.8871C781.974 56.8871 782.425 57.2582 782.425 57.7166C782.425 58.1759 781.974 58.6312 781.516 58.6312Z" fill="#23366C"/>
<path d="M781.515 58.9622C781.058 58.9622 780.521 58.5089 780.521 58.0505C780.521 57.8249 780.612 57.6082 780.771 57.4528C780.927 57.3033 781.3 57.1378 781.515 57.1378C781.735 57.1378 782.11 57.3063 782.267 57.4638C782.422 57.6203 782.508 57.8309 782.508 58.0505C782.508 58.5089 781.974 58.9622 781.515 58.9622Z" fill="#23366C"/>
<path d="M780.853 58.4668C780.853 58.8429 781.137 59.1287 781.515 59.1287C781.891 59.1287 782.175 58.8429 782.175 58.4668L781.515 58.543L781.518 58.4668H781.513L781.515 58.543L780.853 58.4668ZM781.515 59.3785C781.058 59.3785 780.521 58.9261 780.521 58.4668C780.521 57.9242 780.976 57.4698 781.515 57.4698C782.054 57.4698 782.508 57.9242 782.508 58.4668C782.508 58.9261 781.974 59.3785 781.515 59.3785Z" fill="#23366C"/>
<path d="M781.515 58.4668C781.058 58.4668 780.688 58.0957 780.688 57.6373V57.3033C780.688 56.845 781.058 56.4749 781.515 56.4749C781.974 56.4749 782.343 56.845 782.343 57.3033V57.6373C782.343 58.0957 781.974 58.4668 781.515 58.4668Z" fill="#23366C"/>
<path d="M823.879 76.9855C823.604 76.9855 823.333 76.8481 823.176 76.5943C813.845 61.5529 825.275 53.9725 832.839 48.9597C835.86 46.9557 838.467 45.2286 839.113 43.6209C839.28 43.1996 839.757 42.983 840.19 43.1625C840.614 43.333 840.819 43.8175 840.648 44.2427C839.809 46.3289 837.003 48.1904 833.753 50.3438C825.889 55.5572 816.103 62.0463 824.581 75.7177C824.823 76.1079 824.706 76.6204 824.316 76.8581C824.18 76.9443 824.029 76.9855 823.879 76.9855Z" fill="#23366C"/>
<path d="M855.881 76.9855C855.731 76.9855 855.58 76.9444 855.444 76.8581C855.053 76.6204 854.937 76.1079 855.178 75.7177C863.658 62.0464 853.871 55.5572 846.007 50.3438C842.757 48.1904 839.951 46.3289 839.113 44.2428C838.942 43.8175 839.147 43.3331 839.57 43.1626C839.996 42.983 840.48 43.1946 840.648 43.6209C841.292 45.2287 843.901 46.9558 846.919 48.9597C854.485 53.9725 865.915 61.5529 856.584 76.5943C856.427 76.8481 856.157 76.9855 855.881 76.9855Z" fill="#23366C"/>
<path d="M856.046 81.3865H824.376C823.919 81.3865 823.549 81.0144 823.549 80.556C823.549 80.0967 823.919 79.7276 824.376 79.7276H856.046C856.503 79.7276 856.873 80.0967 856.873 80.556C856.873 81.0144 856.503 81.3865 856.046 81.3865Z" fill="#23366C"/>
<path d="M823.961 121.169C823.503 121.169 823.134 120.799 823.134 120.34V76.3215C823.134 75.8612 823.503 75.4911 823.961 75.4911C824.419 75.4911 824.788 75.8612 824.788 76.3215V120.34C824.788 120.799 824.419 121.169 823.961 121.169Z" fill="#23366C"/>
<path d="M858.036 72.6657H821.892C821.433 72.6657 821.064 72.2946 821.064 71.8353C821.064 71.3759 821.433 71.0058 821.892 71.0058H858.036C858.493 71.0058 858.863 71.3759 858.863 71.8353C858.863 72.2946 858.493 72.6657 858.036 72.6657Z" fill="#23366C"/>
<path d="M855.881 77.15H855.878L823.958 77.0707C823.501 77.0707 823.131 76.6966 823.134 76.2383C823.134 75.7829 823.503 75.4128 823.961 75.4128H823.964L855.884 75.4911C856.342 75.4911 856.711 75.8662 856.708 76.3235C856.708 76.7799 856.339 77.15 855.881 77.15Z" fill="#23366C"/>
<path d="M856.046 121.169C855.588 121.169 855.218 120.799 855.218 120.34V76.3215C855.218 75.8612 855.588 75.4911 856.046 75.4911C856.503 75.4911 856.873 75.8612 856.873 76.3215V120.34C856.873 120.799 856.503 121.169 856.046 121.169Z" fill="#23366C"/>
<path d="M828.852 121.084C828.396 121.084 828.026 120.717 828.024 120.26L827.859 95.5975C827.859 87.5216 837.847 83.5569 839.852 82.8448C840.284 82.6904 840.753 82.916 840.909 83.3513C841.059 83.7826 840.835 84.258 840.404 84.4114C839.288 84.8076 829.513 88.4895 829.513 95.5925L829.678 120.249C829.681 120.708 829.315 121.081 828.858 121.084H828.852Z" fill="#23366C"/>
<path d="M851.485 121.5H851.482C851.025 121.5 850.656 121.127 850.659 120.669L850.741 95.5894C850.821 88.1816 840.313 84.5649 839.863 84.4144C839.431 84.27 839.198 83.7996 839.343 83.3633C839.491 82.928 839.956 82.6843 840.392 82.8418C840.884 83.0073 852.489 87.0051 852.396 95.6005L852.314 120.673C852.314 121.133 851.943 121.5 851.485 121.5Z" fill="#23366C"/>
<path d="M851.114 53.8441C844.943 49.7741 836.818 49.2756 829.985 52.8893L829.212 51.4189C836.564 47.5284 845.357 48.05 852.023 52.459L851.114 53.8441Z" fill="#23366C"/>
<path d="M839.88 44.7613C839.422 44.7613 839.052 44.3912 839.052 43.9328V39.6973C839.052 39.238 839.422 38.8679 839.88 38.8679C840.339 38.8679 840.707 39.238 840.707 39.6973V43.9328C840.707 44.3912 840.339 44.7613 839.88 44.7613Z" fill="#23366C"/>
<path d="M812.274 81.4707C811.994 81.4707 811.721 81.3313 811.564 81.0746C808.563 76.151 812.339 73.6215 814.593 72.1091C815.267 71.6587 816.106 71.0971 816.227 70.7872C816.395 70.3559 816.891 70.1483 817.3 70.3168C817.726 70.4853 817.936 70.9667 817.768 71.3899C817.459 72.1883 816.6 72.765 815.514 73.4912C812.756 75.3366 810.962 76.8992 812.98 80.208C813.219 80.5992 813.095 81.1117 812.705 81.3514C812.572 81.4336 812.421 81.4707 812.274 81.4707Z" fill="#23366C"/>
<path d="M821.723 81.4707C821.572 81.4707 821.422 81.4306 821.282 81.3454C820.896 81.1016 820.78 80.5901 821.021 80.199C823.093 76.8752 821.282 75.3156 818.501 73.4691C817.464 72.7841 816.571 72.1923 816.239 71.419C816.057 70.9968 816.247 70.5104 816.668 70.3278C817.09 70.1423 817.579 70.3358 817.757 70.7581C817.897 71.077 818.738 71.6357 819.412 72.083C821.695 73.5965 825.516 76.1269 822.426 81.0836C822.27 81.3343 821.999 81.4707 821.723 81.4707Z" fill="#23366C"/>
<path d="M810.781 81.7225C810.38 81.7225 810.026 81.4306 809.961 81.0234C809.89 80.5701 810.198 80.1458 810.65 80.0716C814.593 79.4387 818.832 79.4387 823.247 80.0716C823.703 80.1348 824.015 80.556 823.95 81.0084C823.888 81.4627 823.484 81.7706 823.014 81.7124C818.764 81.1117 814.695 81.1016 810.911 81.7124C810.869 81.7195 810.823 81.7225 810.781 81.7225Z" fill="#23366C"/>
<path d="M820.02 74.5202C819.159 73.9435 818.172 73.6617 816.999 73.6617C816.069 73.6617 815.196 73.8813 814.408 74.3086L813.618 72.8503C815.929 71.5956 818.903 71.7761 820.942 73.1401L820.02 74.5202Z" fill="#23366C"/>
<path d="M816.999 71.9185C816.54 71.9185 816.171 71.5474 816.171 71.0881V69.8464C816.171 69.387 816.54 69.0169 816.999 69.0169C817.456 69.0169 817.826 69.387 817.826 69.8464V71.0881C817.826 71.5474 817.456 71.9185 816.999 71.9185Z" fill="#23366C"/>
<path d="M811.278 88.7773C810.82 88.7773 810.451 88.4072 810.451 87.9479V80.8068C810.451 80.3474 810.82 79.9773 811.278 79.9773C811.735 79.9773 812.106 80.3474 812.106 80.8068V87.9479C812.106 88.4072 811.735 88.7773 811.278 88.7773Z" fill="#23366C"/>
<path d="M807.215 89.5235C806.795 89.5235 806.433 89.2046 806.39 88.7773C806.345 88.322 806.678 87.9138 807.133 87.8687L813.766 87.2077L823.714 87.2057C824.172 87.2057 824.541 87.5758 824.541 88.0342C824.541 88.4935 824.172 88.8636 823.714 88.8636H813.849L807.297 89.5215C807.27 89.5235 807.24 89.5235 807.215 89.5235Z" fill="#23366C"/>
<path d="M807.215 92.5164C806.798 92.5164 806.438 92.2045 806.39 91.7812C806.339 91.3259 806.669 90.9126 807.122 90.8605L813.754 90.1133L823.714 90.1103C824.172 90.1103 824.541 90.4824 824.541 90.9407C824.541 91.4001 824.172 91.7692 823.714 91.7692H813.849L807.309 92.5134C807.274 92.5164 807.243 92.5164 807.215 92.5164Z" fill="#23366C"/>
<path d="M807.133 121.169C806.674 121.169 806.305 120.799 806.305 120.34V88.7803C806.305 88.322 806.674 87.9509 807.133 87.9509C807.59 87.9509 807.959 88.322 807.959 88.7803V120.34C807.959 120.799 807.59 121.169 807.133 121.169Z" fill="#23366C"/>
<path d="M810.781 106.549C810.323 106.549 809.952 106.179 809.952 105.72V98.4128C809.952 94.9225 814.726 93.4742 814.775 93.4601C815.207 93.3318 815.673 93.5825 815.805 94.0248C815.932 94.4631 815.682 94.9255 815.241 95.0569C815.204 95.0639 811.607 96.2243 811.607 98.4128V105.72C811.607 106.179 811.238 106.549 810.781 106.549Z" fill="#23366C"/>
<path d="M819.153 106.549H819.145C818.687 106.547 818.32 106.172 818.326 105.711L818.408 98.4048C818.408 96.3647 815.117 95.1732 814.737 95.0438C814.305 94.8934 814.076 94.423 814.223 93.9877C814.374 93.5564 814.835 93.3318 815.278 93.4712C816.401 93.8593 820.063 95.3558 820.063 98.4128L819.98 105.729C819.977 106.185 819.605 106.549 819.153 106.549Z" fill="#23366C"/>
<path d="M823.299 106.549H807.88C807.423 106.549 807.054 106.179 807.054 105.72C807.054 105.261 807.423 104.891 807.88 104.891H823.299C823.756 104.891 824.126 105.261 824.126 105.72C824.126 106.179 823.756 106.549 823.299 106.549Z" fill="#23366C"/>
<path d="M810.781 120.502C810.323 120.502 809.952 120.133 809.952 119.674V112.948C809.952 109.745 814.584 108.385 814.78 108.331C815.233 108.191 815.682 108.459 815.805 108.901C815.929 109.343 815.676 109.801 815.236 109.927C814.294 110.195 811.607 111.327 811.607 112.948V119.674C811.607 120.133 811.238 120.502 810.781 120.502Z" fill="#23366C"/>
<path d="M819.153 120.502H819.142C818.685 120.497 818.32 120.121 818.326 119.663L818.408 112.936C818.408 111.612 816.518 110.506 814.746 109.918C814.314 109.772 814.078 109.303 814.22 108.867C814.366 108.434 814.82 108.198 815.27 108.34C816.71 108.818 820.063 110.226 820.063 112.948L819.98 119.684C819.974 120.137 819.605 120.502 819.153 120.502Z" fill="#23366C"/>
<path d="M785.579 64.4464H777.536C777.078 64.4464 776.709 64.0753 776.709 63.616C776.709 63.1566 777.078 62.7865 777.536 62.7865H785.579C786.036 62.7865 786.406 63.1566 786.406 63.616C786.406 64.0753 786.036 64.4464 785.579 64.4464Z" fill="#23366C"/>
<path d="M786.241 71.0911H777.202C776.746 71.0911 776.375 70.721 776.375 70.2626C776.375 69.8033 776.746 69.4322 777.202 69.4322H786.241C786.699 69.4322 787.069 69.8033 787.069 70.2626C787.069 70.721 786.699 71.0911 786.241 71.0911Z" fill="#23366C"/>
<path d="M786.99 88.1164H776.293C775.835 88.1164 775.465 87.7463 775.465 87.2879C775.465 86.8275 775.835 86.4575 776.293 86.4575H786.99C787.446 86.4575 787.816 86.8275 787.816 87.2879C787.816 87.7463 787.446 88.1164 786.99 88.1164Z" fill="#23366C"/>
<path d="M800.585 121.335C800.136 121.335 799.765 120.974 799.757 120.522L799.507 107.647C799.501 107.457 799.561 107.282 799.666 107.14C799.519 106.994 799.427 106.792 799.424 106.569L799.177 94.0299C799.174 93.8824 799.208 93.74 799.276 93.6166C799.163 93.4812 799.095 93.3057 799.092 93.1182L798.762 80.3344C798.756 80.1549 798.808 79.9894 798.899 79.853C798.817 79.7286 798.768 79.5812 798.762 79.4247L798.595 74.9384C798.578 74.4791 798.933 74.095 799.39 74.0789C799.828 74.0639 800.232 74.4169 800.249 74.8763L800.417 79.3625C800.426 79.542 800.375 79.7115 800.28 79.853C800.363 79.9773 800.414 80.1278 800.417 80.2872L800.746 93.073C800.753 93.2235 800.715 93.3649 800.647 93.4913C800.761 93.6287 800.829 93.8052 800.832 93.9967L801.079 106.535C801.085 106.726 801.025 106.9 800.92 107.042C801.068 107.189 801.159 107.39 801.162 107.613L801.412 120.488C801.42 120.947 801.06 121.325 800.601 121.335H800.585ZM793.038 121.335H793.013C792.555 121.32 792.197 120.936 792.211 120.48L792.627 107.604C792.632 107.407 792.707 107.231 792.823 107.09C792.695 106.94 792.618 106.741 792.627 106.524L793.042 93.9847C793.047 93.7992 793.113 93.6287 793.22 93.4953C793.152 93.3649 793.115 93.2175 793.121 93.064L793.622 80.2792C793.628 80.1197 793.676 79.9743 793.758 79.853C793.668 79.7156 793.619 79.5521 793.622 79.3776L793.704 74.8933C793.713 74.441 794.079 74.0789 794.532 74.0789H794.545C795.004 74.0869 795.368 74.462 795.359 74.9224L795.276 79.4076C795.273 79.5731 795.225 79.7246 795.141 79.853C795.234 79.9914 795.286 80.1629 795.276 80.3424L794.776 93.1262C794.771 93.3117 794.702 93.4812 794.597 93.6146C794.665 93.74 794.702 93.8844 794.696 94.0419L794.282 106.581C794.276 106.775 794.202 106.954 794.086 107.09C794.213 107.243 794.289 107.441 794.282 107.654L793.867 120.532C793.853 120.981 793.486 121.335 793.038 121.335Z" fill="#23366C"/>
<path d="M794.449 74.8251C794.052 74.8251 793.702 74.5403 793.634 74.1381C793.361 72.5534 794.008 71.2425 795.461 70.4442C795.854 70.2285 796.365 70.3699 796.588 70.7751C796.807 71.1763 796.659 71.6808 796.258 71.9035C795.43 72.3568 795.115 72.9787 795.266 73.8532C795.345 74.3056 795.04 74.7358 794.591 74.8131C794.543 74.8221 794.494 74.8251 794.449 74.8251Z" fill="#23366C"/>
<path d="M795.86 72.0038C795.498 72.0038 795.166 71.7671 795.064 71.402C794.938 70.9627 795.189 70.5074 795.624 70.379C795.652 70.3669 796.001 70.2416 796.303 69.8885C796.601 69.5355 797.122 69.4954 797.471 69.7953C797.821 70.0941 797.861 70.6187 797.565 70.9667C796.926 71.7189 796.169 71.9496 796.087 71.9717C796.01 71.9948 795.933 72.0038 795.86 72.0038Z" fill="#23366C"/>
<path d="M798.094 72.0038C797.992 72.0038 797.886 71.9867 797.787 71.9456C797.616 71.8774 796.735 71.5053 796.289 70.9466C796.001 70.5896 796.059 70.065 796.416 69.7812C796.773 69.4953 797.299 69.5465 797.58 69.9096C797.701 70.06 798.139 70.2997 798.402 70.401C798.824 70.5725 799.033 71.055 798.865 71.4812C798.734 71.8072 798.424 72.0038 798.094 72.0038Z" fill="#23366C"/>
<path d="M797.929 72.0038C797.776 72.0038 797.622 71.9626 797.483 71.8754C796.997 71.5584 796.231 71.9185 796.223 71.9205C795.813 72.1121 795.317 71.9456 795.118 71.5394C794.918 71.1282 795.084 70.6357 795.49 70.4311C796.073 70.1392 797.338 69.8143 798.375 70.4732C798.759 70.721 798.873 71.2345 798.629 71.6216C798.47 71.8694 798.202 72.0038 797.929 72.0038Z" fill="#23366C"/>
<path d="M799.504 74.8251C799.458 74.8251 799.41 74.8221 799.362 74.8131C798.91 74.7328 798.609 74.3036 798.689 73.8532C798.913 72.5674 797.656 71.9245 797.645 71.9185C797.235 71.7129 797.068 71.2144 797.272 70.8042C797.474 70.393 797.974 70.2285 798.385 70.4311C799.207 70.8403 800.667 72.1452 800.321 74.1381C800.249 74.5433 799.899 74.8251 799.504 74.8251Z" fill="#23366C"/>
<path d="M797.02 70.5896H796.934C796.476 70.5896 796.027 70.2195 796.027 69.7611C796.027 69.3018 796.476 68.8514 796.934 68.8514C797.392 68.8514 797.847 69.3018 797.847 69.7611C797.847 70.2195 797.477 70.5896 797.02 70.5896Z" fill="#23366C"/>
<path d="M796.934 70.9216C796.724 70.9216 796.357 70.7611 796.203 70.6187C796.035 70.4622 795.942 70.2416 795.942 70.0119C795.942 69.5525 796.476 69.0962 796.934 69.0962C797.392 69.0962 797.847 69.5525 797.847 70.0119C797.847 70.4692 797.392 70.9216 796.934 70.9216Z" fill="#23366C"/>
<path d="M796.934 71.2566C796.396 71.2566 795.942 70.8012 795.942 70.2626C795.942 70.043 796.027 69.8313 796.183 69.6749C796.339 69.5184 796.715 69.3469 796.934 69.3469C797.33 69.3469 797.6 69.5836 797.699 69.6829C797.847 69.8404 797.929 70.046 797.929 70.2626C797.929 70.8012 797.474 71.2566 796.934 71.2566Z" fill="#23366C"/>
<path d="M796.934 70.5104C796.476 70.5104 796.107 70.1393 796.107 69.6809V69.3439C796.107 68.8856 796.476 68.5155 796.934 68.5155C797.392 68.5155 797.761 68.8856 797.761 69.3439V69.6809C797.761 70.1393 797.392 70.5104 796.934 70.5104Z" fill="#23366C"/>
<path d="M800.17 75.2413H793.702C793.244 75.2413 792.874 74.8702 792.874 74.4119C792.874 73.9525 793.244 73.5824 793.702 73.5824H800.17C800.628 73.5824 800.997 73.9525 800.997 74.4119C800.997 74.8702 800.628 75.2413 800.17 75.2413Z" fill="#23366C"/>
<path d="M800.749 80.7245H793.369C792.911 80.7245 792.542 80.3534 792.542 79.8941C792.542 79.4367 792.911 79.0646 793.369 79.0646H800.749C801.207 79.0646 801.577 79.4367 801.577 79.8941C801.577 80.3534 801.207 80.7245 800.749 80.7245Z" fill="#23366C"/>
<path d="M801.33 94.427H792.624C792.166 94.427 791.797 94.0559 791.797 93.5976C791.797 93.1382 792.166 92.7681 792.624 92.7681H801.33C801.788 92.7681 802.157 93.1382 802.157 93.5976C802.157 94.0559 801.788 94.427 801.33 94.427Z" fill="#23366C"/>
<path d="M801.58 107.963H791.879C791.421 107.963 791.052 107.593 791.052 107.134C791.052 106.675 791.421 106.305 791.879 106.305H801.58C802.038 106.305 802.407 106.675 802.407 107.134C802.407 107.593 802.038 107.963 801.58 107.963Z" fill="#23366C"/>
<path d="M903.052 109.708C902.615 109.708 902.251 109.368 902.225 108.928L901.976 104.605C901.96 104.318 902.094 104.056 902.307 103.894C902.114 103.748 901.985 103.521 901.976 103.26L901.396 87.8145C901.389 87.5778 901.48 87.3591 901.633 87.2027C901.494 87.0582 901.406 86.8657 901.396 86.653L900.814 70.8744C900.806 70.6779 900.869 70.4963 900.977 70.3509C900.828 70.2024 900.735 69.9998 900.732 69.7722L900.65 64.2097C900.641 63.7504 901.008 63.3733 901.465 63.3682H901.477C901.929 63.3682 902.299 63.7303 902.304 64.1867L902.386 69.7491C902.389 69.9377 902.331 70.1142 902.225 70.2536C902.369 70.396 902.461 70.5926 902.469 70.8122L903.052 86.5889C903.061 86.8256 902.97 87.0452 902.817 87.2027C902.955 87.3441 903.043 87.5387 903.052 87.7513L903.631 103.198C903.642 103.48 903.512 103.737 903.302 103.894C903.489 104.035 903.618 104.254 903.631 104.509L903.88 108.83C903.905 109.289 903.555 109.681 903.1 109.708H903.052ZM893.934 121.335H893.912C893.456 121.323 893.096 120.942 893.106 120.483L893.518 104.534C893.524 104.272 893.652 104.041 893.849 103.894C893.641 103.737 893.51 103.487 893.518 103.208L893.934 87.7613C893.94 87.5437 894.028 87.3471 894.17 87.2027C894.017 87.0452 893.926 86.8276 893.934 86.5939L894.432 70.8183C894.437 70.6207 894.511 70.4411 894.631 70.3017C894.5 70.1503 894.423 69.9507 894.432 69.7351L894.596 64.1726C894.611 63.7133 894.977 63.4064 895.449 63.3682C895.908 63.3793 896.265 63.7644 896.251 64.2238L896.086 69.7862C896.08 69.9828 896.007 70.1623 895.887 70.3017C896.018 70.4532 896.094 70.6528 896.086 70.8694L895.59 86.647C895.584 86.8627 895.492 87.0582 895.352 87.2027C895.505 87.3561 895.598 87.5728 895.59 87.8065L895.173 103.252C895.168 103.514 895.039 103.746 894.844 103.894C895.051 104.05 895.182 104.301 895.173 104.581L894.761 120.528C894.75 120.978 894.384 121.335 893.934 121.335Z" fill="#23366C"/>
<path d="M901.56 63.8637C901.482 63.8637 901.406 63.8557 901.329 63.8326C900.889 63.7052 900.636 63.2459 900.763 62.8036C900.812 62.6411 901.173 61.1848 899.439 60.2851C899.033 60.0735 898.872 59.572 899.083 59.1638C899.293 58.7576 899.793 58.5972 900.2 58.8088C902.563 60.0364 902.665 62.1878 902.356 63.2659C902.251 63.63 901.92 63.8637 901.56 63.8637Z" fill="#23366C"/>
<path d="M899.819 60.3754C899.719 60.3754 899.622 60.3584 899.526 60.3243C899.441 60.2902 898.676 59.9883 897.906 59.222C897.582 58.897 897.582 58.3695 897.903 58.0445C898.227 57.7226 898.752 57.7226 899.077 58.0415C899.594 58.56 900.111 58.7687 900.117 58.7717C900.541 58.9402 900.752 59.4186 900.59 59.8458C900.461 60.1728 900.148 60.3754 899.819 60.3754Z" fill="#23366C"/>
<path d="M897.085 60.3754C896.78 60.3754 896.49 60.2069 896.342 59.9181C896.138 59.5099 896.306 59.0084 896.713 58.8028C897.077 58.6202 897.687 58.2642 897.903 58.0475C898.227 57.7206 898.756 57.7226 899.074 58.0415C899.402 58.3665 899.402 58.891 899.08 59.216C898.596 59.7064 897.642 60.1969 897.454 60.2902C897.338 60.3503 897.21 60.3754 897.085 60.3754Z" fill="#23366C"/>
<path d="M899.819 60.3754C899.703 60.3754 899.583 60.3533 899.47 60.2992C899.427 60.2821 898.42 59.8338 897.662 60.2681C897.26 60.4928 896.757 60.3584 896.529 59.9602C896.303 59.561 896.439 59.0535 896.836 58.8258C898.347 57.9593 900.098 58.7576 900.172 58.7947C900.587 58.9913 900.763 59.4868 900.57 59.9C900.426 60.2029 900.128 60.3754 899.819 60.3754Z" fill="#23366C"/>
<path d="M895.342 63.8637C894.946 63.8637 894.596 63.5819 894.526 63.1797C894.014 60.2872 896.672 58.868 896.785 58.8088C897.193 58.5972 897.692 58.7576 897.903 59.1638C898.113 59.569 897.954 60.0705 897.55 60.2821C897.461 60.3333 895.862 61.2229 896.158 62.8888C896.238 63.3392 895.935 63.7735 895.487 63.8527C895.439 63.8607 895.39 63.8637 895.342 63.8637Z" fill="#23366C"/>
<path d="M898.573 58.6312C898.116 58.6312 897.582 58.1759 897.582 57.7166C897.582 57.2582 897.951 56.8871 898.409 56.8871H898.658C899.118 56.8871 899.487 57.2582 899.487 57.7166C899.487 58.1759 899.033 58.6312 898.573 58.6312Z" fill="#23366C"/>
<path d="M898.491 58.9622C898.033 58.9622 897.582 58.5089 897.582 58.0505C897.582 57.5912 898.033 57.1378 898.491 57.1378C898.707 57.1378 899.08 57.3033 899.237 57.4528C899.395 57.6082 899.487 57.8249 899.487 58.0505C899.487 58.5089 898.95 58.9622 898.491 58.9622Z" fill="#23366C"/>
<path d="M897.833 58.4668C897.833 58.8429 898.116 59.1287 898.491 59.1287C898.871 59.1287 899.155 58.8429 899.155 58.4668L898.491 58.543L898.494 58.4668H898.488L898.491 58.543L897.833 58.4668ZM898.491 59.3785C898.033 59.3785 897.499 58.9261 897.499 58.4668C897.499 57.9242 897.954 57.4698 898.491 57.4698C899.033 57.4698 899.487 57.9242 899.487 58.4668C899.487 58.9261 898.95 59.3785 898.491 59.3785Z" fill="#23366C"/>
<path d="M898.491 58.4668C898.033 58.4668 897.665 58.0957 897.665 57.6373V57.3033C897.665 56.845 898.033 56.4749 898.491 56.4749C898.95 56.4749 899.319 56.845 899.319 57.3033V57.6373C899.319 58.0957 898.95 58.4668 898.491 58.4668Z" fill="#23366C"/>
<path d="M867.652 81.4707C867.504 81.4707 867.353 81.4336 867.22 81.3514C866.829 81.1117 866.705 80.5992 866.943 80.208C868.963 76.8992 867.169 75.3366 864.41 73.4912C863.324 72.765 862.466 72.1883 862.157 71.3899C861.989 70.9667 862.199 70.4853 862.626 70.3168C863.045 70.1453 863.528 70.3619 863.697 70.7872C863.82 71.0971 864.658 71.6587 865.332 72.1091C867.586 73.6215 871.361 76.151 868.36 81.0746C868.203 81.3313 867.931 81.4707 867.652 81.4707Z" fill="#23366C"/>
<path d="M858.201 81.4707C857.925 81.4707 857.655 81.3343 857.499 81.0836C854.409 76.1269 858.229 73.5965 860.513 72.083C861.185 71.6357 862.028 71.077 862.167 70.7581C862.35 70.3358 862.85 70.1423 863.256 70.3278C863.678 70.5104 863.867 71.0008 863.686 71.419C863.35 72.1923 862.458 72.7841 861.425 73.4691C858.642 75.3126 856.832 76.8752 858.904 80.199C859.145 80.5901 859.028 81.1016 858.642 81.3454C858.503 81.4306 858.352 81.4707 858.201 81.4707Z" fill="#23366C"/>
<path d="M869.228 81.7225C869.185 81.7225 869.142 81.7195 869.099 81.7124C865.24 81.1016 861.258 81.1017 856.904 81.7165C856.458 81.7706 856.034 81.4597 855.969 81.0064C855.907 80.553 856.222 80.1348 856.677 80.0686C861.184 79.4417 865.332 79.4387 869.354 80.0716C869.806 80.1428 870.117 80.5671 870.046 81.0204C869.98 81.4306 869.628 81.7225 869.228 81.7225Z" fill="#23366C"/>
<path d="M859.904 74.5202L858.983 73.1401C861.036 71.7641 864.336 71.6698 866.336 72.8663L865.488 74.2925C864.032 73.425 861.431 73.4932 859.904 74.5202Z" fill="#23366C"/>
<path d="M862.927 71.9185C862.469 71.9185 862.099 71.5474 862.099 71.0881V69.8464C862.099 69.387 862.469 69.0169 862.927 69.0169C863.384 69.0169 863.754 69.387 863.754 69.8464V71.0881C863.754 71.5474 863.384 71.9185 862.927 71.9185Z" fill="#23366C"/>
<path d="M868.647 88.7773C868.189 88.7773 867.819 88.4072 867.819 87.9479V80.8068C867.819 80.3474 868.189 79.9773 868.647 79.9773C869.105 79.9773 869.474 80.3474 869.474 80.8068V87.9479C869.474 88.4072 869.105 88.7773 868.647 88.7773Z" fill="#23366C"/>
<path d="M872.875 89.4443C872.847 89.4443 872.815 89.4443 872.784 89.4413L866.069 88.6961L856.051 88.7773H856.046C855.591 88.7773 855.221 88.4102 855.218 87.9539C855.213 87.4945 855.583 87.1225 856.04 87.1194L866.154 87.0402L872.967 87.7884C873.42 87.8406 873.748 88.2498 873.698 88.7061C873.651 89.1314 873.292 89.4443 872.875 89.4443Z" fill="#23366C"/>
<path d="M872.875 92.3509C872.85 92.3509 872.82 92.3509 872.792 92.3489L866.077 91.6819L856.046 91.6849C855.588 91.6849 855.218 91.3148 855.218 90.8555C855.218 90.3971 855.588 90.025 856.046 90.025H866.159L872.957 90.697C873.412 90.7421 873.746 91.1493 873.699 91.6047C873.657 92.0329 873.295 92.3509 872.875 92.3509Z" fill="#23366C"/>
<path d="M872.957 121.005C872.499 121.005 872.131 120.634 872.131 120.174V88.6961C872.131 88.2367 872.499 87.8646 872.957 87.8646C873.415 87.8646 873.784 88.2367 873.784 88.6961V120.174C873.784 120.634 873.415 121.005 872.957 121.005Z" fill="#23366C"/>
<path d="M869.145 106.549C868.686 106.549 868.316 106.179 868.316 105.72V98.4128C868.316 96.2243 864.72 95.0639 864.683 95.0569C864.243 94.9255 863.993 94.4631 864.121 94.0248C864.251 93.5825 864.709 93.3318 865.15 93.4601C865.199 93.4742 869.972 94.9225 869.972 98.4128V105.72C869.972 106.179 869.602 106.549 869.145 106.549Z" fill="#23366C"/>
<path d="M860.771 106.549C860.314 106.549 859.944 106.179 859.944 105.72V98.4128C859.847 95.3638 863.52 93.8593 864.647 93.4712C865.089 93.3318 865.554 93.5564 865.702 93.9877C865.849 94.423 865.62 94.8934 865.186 95.0438C864.812 95.1732 861.536 96.3547 861.598 98.3877V105.72C861.598 106.179 861.229 106.549 860.771 106.549Z" fill="#23366C"/>
<path d="M872.957 106.801H856.708C856.251 106.801 855.881 106.428 855.881 105.971C855.881 105.513 856.251 105.142 856.708 105.142H872.957C873.415 105.142 873.784 105.513 873.784 105.971C873.784 106.428 873.415 106.801 872.957 106.801Z" fill="#23366C"/>
<path d="M869.145 120.502C868.686 120.502 868.316 120.133 868.316 119.674V112.948C868.316 111.327 865.63 110.195 864.689 109.927C864.249 109.801 863.996 109.343 864.121 108.901C864.243 108.459 864.689 108.191 865.144 108.331C865.341 108.385 869.972 109.745 869.972 112.948V119.674C869.972 120.133 869.602 120.502 869.145 120.502Z" fill="#23366C"/>
<path d="M860.771 120.502C860.313 120.502 859.944 120.133 859.944 119.674V112.948C859.849 110.237 863.208 108.822 864.655 108.34C865.104 108.198 865.559 108.434 865.705 108.867C865.847 109.303 865.611 109.772 865.178 109.918C863.418 110.503 861.553 111.596 861.598 112.92V119.674C861.598 120.133 861.229 120.502 860.771 120.502Z" fill="#23366C"/>
<path d="M902.472 64.4464H894.514C894.056 64.4464 893.686 64.0753 893.686 63.616C893.686 63.1566 894.056 62.7865 894.514 62.7865H902.472C902.93 62.7865 903.299 63.1566 903.299 63.616C903.299 64.0753 902.93 64.4464 902.472 64.4464Z" fill="#23366C"/>
<path d="M902.888 71.0911H893.849C893.391 71.0911 893.022 70.721 893.022 70.2626C893.022 69.8033 893.391 69.4322 893.849 69.4322H902.888C903.344 69.4322 903.714 69.8033 903.714 70.2626C903.714 70.721 903.344 71.0911 902.888 71.0911Z" fill="#23366C"/>
<path d="M903.8 88.1164H893.103C892.647 88.1164 892.278 87.7463 892.278 87.2879C892.278 86.8275 892.647 86.4575 893.103 86.4575H903.8C904.258 86.4575 904.628 86.8275 904.628 87.2879C904.628 87.7463 904.258 88.1164 903.8 88.1164Z" fill="#23366C"/>
<path d="M904.792 104.806H892.771C892.313 104.806 891.943 104.435 891.943 103.977C891.943 103.517 892.313 103.147 892.771 103.147H904.792C905.249 103.147 905.62 103.517 905.62 103.977C905.62 104.435 905.249 104.806 904.792 104.806Z" fill="#23366C"/>
<path d="M879.426 121.335H879.405C878.948 121.323 878.587 120.942 878.597 120.485L878.927 107.61C878.93 107.41 879.005 107.231 879.125 107.09C878.996 106.94 878.923 106.744 878.927 106.53L879.26 93.9907C879.263 93.8313 879.314 93.6808 879.396 93.5534C879.306 93.415 879.255 93.2465 879.26 93.07L879.675 80.2852C879.681 80.1227 879.729 79.9773 879.811 79.8529C879.722 79.7155 879.673 79.5521 879.675 79.3775L879.758 74.8933C879.767 74.441 880.132 74.0789 880.586 74.0789H880.6C881.058 74.0869 881.42 74.462 881.413 74.9224L881.33 79.4076C881.327 79.5731 881.279 79.7246 881.194 79.8529C881.284 79.9914 881.335 80.1599 881.33 80.3374L880.915 93.1212C880.91 93.2826 880.862 93.4291 880.78 93.5534C880.87 93.6908 880.92 93.8563 880.915 94.0349L880.582 106.576C880.577 106.771 880.505 106.951 880.385 107.09C880.515 107.243 880.589 107.438 880.582 107.65L880.252 120.525C880.241 120.978 879.875 121.335 879.426 121.335ZM887.05 121.335C886.605 121.335 886.237 120.981 886.223 120.532L885.812 107.654C885.805 107.465 885.862 107.285 885.968 107.143C885.825 106.998 885.732 106.801 885.726 106.581L885.313 94.0419C885.307 93.8613 885.359 93.6938 885.449 93.5534C885.366 93.4301 885.319 93.2866 885.313 93.1262L884.815 80.3424C884.807 80.1629 884.858 79.9914 884.952 79.8529C884.867 79.7246 884.818 79.5731 884.815 79.4076L884.733 74.9224C884.725 74.462 885.088 74.0869 885.546 74.0789H885.56C886.013 74.0789 886.38 74.441 886.388 74.8933L886.47 79.3775C886.473 79.5521 886.425 79.7155 886.334 79.8529C886.417 79.9743 886.465 80.1197 886.47 80.2792L886.968 93.064C886.976 93.2445 886.925 93.415 886.831 93.5534C886.914 93.6808 886.962 93.8252 886.968 93.9847L887.38 106.524C887.386 106.717 887.329 106.897 887.224 107.04C887.367 107.184 887.46 107.382 887.465 107.604L887.878 120.48C887.893 120.938 887.535 121.32 887.075 121.335H887.05Z" fill="#23366C"/>
<path d="M885.561 74.8251C885.473 74.8251 885.385 74.8131 885.3 74.782C884.865 74.6395 884.63 74.1702 884.777 73.7329C884.862 73.4731 885.044 72.5795 883.767 71.9095C883.359 71.6979 883.203 71.1974 883.417 70.7892C883.63 70.379 884.131 70.2225 884.534 70.4391C886.607 71.5253 886.65 73.3517 886.345 74.2584C886.232 74.6054 885.908 74.8251 885.561 74.8251Z" fill="#23366C"/>
<path d="M884.233 72.0038C884.157 72.0038 884.082 71.9948 884.006 71.9717C883.924 71.9496 883.167 71.7189 882.528 70.9687C882.229 70.6207 882.269 70.0971 882.616 69.7973C882.959 69.4984 883.485 69.5385 883.784 69.8855C884.099 70.2566 884.469 70.379 884.472 70.379C884.903 70.5184 885.151 70.9778 885.018 71.413C884.91 71.7701 884.585 72.0038 884.233 72.0038Z" fill="#23366C"/>
<path d="M881.995 72.0038C881.68 72.0038 881.375 71.8212 881.239 71.5103C881.054 71.0911 881.242 70.6016 881.66 70.4161C881.892 70.3108 882.352 70.06 882.57 69.8404C882.894 69.5154 883.417 69.5154 883.742 69.8404C884.066 70.1653 884.066 70.6899 883.742 71.0148C883.232 71.5253 882.422 71.8924 882.331 71.9316C882.223 71.9807 882.11 72.0038 881.995 72.0038Z" fill="#23366C"/>
<path d="M884.233 72.0038C884.112 72.0038 883.986 71.9787 883.866 71.9185C883.841 71.9035 883.09 71.5585 882.605 71.8754C882.226 72.1201 881.711 72.0118 881.461 71.6186C881.216 71.2315 881.33 70.719 881.717 70.4733C882.746 69.8093 884.017 70.1393 884.602 70.4311C885.012 70.6357 885.18 71.1342 884.975 71.5444C884.83 71.8353 884.538 72.0038 884.233 72.0038Z" fill="#23366C"/>
<path d="M880.586 74.8251C880.204 74.8251 879.861 74.5593 879.775 74.1732C879.337 72.1542 880.855 70.8373 881.723 70.4241C882.127 70.2285 882.626 70.401 882.826 70.8183C883.022 71.2285 882.849 71.7249 882.439 71.9205C882.3 71.9927 881.131 72.6136 881.396 73.8191C881.493 74.2665 881.208 74.7078 880.762 74.808C880.702 74.8191 880.642 74.8251 880.586 74.8251Z" fill="#23366C"/>
<path d="M883.238 70.5896H883.156C882.698 70.5896 882.246 70.2195 882.246 69.7611C882.246 69.3018 882.698 68.8514 883.156 68.8514C883.612 68.8514 884.066 69.3018 884.066 69.7611C884.066 70.2195 883.696 70.5896 883.238 70.5896Z" fill="#23366C"/>
<path d="M883.156 70.9216C882.94 70.9216 882.57 70.7581 882.417 70.6096C882.255 70.4532 882.164 70.2365 882.164 70.0119C882.164 69.5525 882.698 69.0962 883.156 69.0962C883.612 69.0962 884.066 69.5525 884.066 70.0119C884.066 70.2365 883.975 70.4532 883.813 70.6096C883.659 70.7581 883.371 70.9216 883.156 70.9216Z" fill="#23366C"/>
<path d="M883.156 71.2566C882.619 71.2566 882.164 70.8012 882.164 70.2626C882.164 70.046 882.246 69.8404 882.394 69.6829C882.551 69.5244 882.931 69.3469 883.156 69.3469C883.667 69.3469 884.066 69.7491 884.066 70.2626C884.066 70.721 883.612 71.2566 883.156 71.2566Z" fill="#23366C"/>
<path d="M883.156 70.5104C882.698 70.5104 882.328 70.1393 882.328 69.6809V69.3439C882.328 68.8856 882.698 68.5155 883.156 68.5155C883.612 68.5155 883.984 68.8856 883.984 69.3439V69.6809C883.984 70.1393 883.612 70.5104 883.156 70.5104Z" fill="#23366C"/>
<path d="M886.306 75.2413H879.84C879.383 75.2413 879.013 74.8702 879.013 74.4119C879.013 73.9525 879.383 73.5824 879.84 73.5824H886.306C886.763 73.5824 887.133 73.9525 887.133 74.4119C887.133 74.8702 886.763 75.2413 886.306 75.2413Z" fill="#23366C"/>
<path d="M886.639 80.7245H879.343C878.886 80.7245 878.515 80.3534 878.515 79.8941C878.515 79.4367 878.886 79.0646 879.343 79.0646H886.639C887.095 79.0646 887.465 79.4367 887.465 79.8941C887.465 80.3534 887.095 80.7245 886.639 80.7245Z" fill="#23366C"/>
<path d="M887.384 94.427H878.677C878.22 94.427 877.851 94.0559 877.851 93.5976C877.851 93.1382 878.22 92.7681 878.677 92.7681H887.384C887.841 92.7681 888.211 93.1382 888.211 93.5976C888.211 94.0559 887.841 94.427 887.384 94.427Z" fill="#23366C"/>
<path d="M888.213 107.963H878.512C878.054 107.963 877.686 107.593 877.686 107.134C877.686 106.675 878.054 106.305 878.512 106.305H888.213C888.671 106.305 889.041 106.675 889.041 107.134C889.041 107.593 888.671 107.963 888.213 107.963Z" fill="#23366C"/>
<path d="M912.173 107.547C911.715 107.547 911.345 107.176 911.345 106.717V72.5815C911.345 33.7517 879.807 2.1587 841.04 2.1587C802.273 2.1587 770.734 33.7517 770.734 72.5815L770.655 90.1103C770.655 90.5706 770.283 90.9377 769.828 90.9377H769.824C769.367 90.9377 768.998 90.5646 769 90.1063L769.08 72.5795C769.08 32.834 801.361 0.5 841.04 0.5C880.719 0.5 913 32.834 913 72.5815V106.717C913 107.176 912.631 107.547 912.173 107.547Z" fill="#23366C"/>
<path d="M912 80H1681M1 80H770" stroke="#23366C" stroke-linecap="round"/>
</svg>
