<svg width="77" height="73" viewBox="0 0 77 73" fill="none" xmlns="http://www.w3.org/2000/svg">
<g id="Icon">
<rect id="Rectangle 32" width="77" height="73" rx="4" fill="white"/>
<g id="Group 86">
<path id="Vector" d="M59.5417 9H18.4583C16.2219 9.02204 14.0832 9.92025 12.5017 11.5017C10.9203 13.0832 10.022 15.2219 10 17.4583V48.875C10.0851 51.1877 10.9058 53.4129 12.3427 55.2271C13.7796 57.0412 15.7578 58.3497 17.9895 58.9622L44.9571 65.2963C45.9834 65.562 47.0564 65.5937 48.0967 65.3892C49.1369 65.1846 50.118 64.749 50.9673 64.1145C51.7887 63.4421 52.4443 62.5898 52.8835 61.6234C53.3227 60.6571 53.5336 59.6026 53.5 58.5417V35.1193C53.4961 32.8717 52.7575 30.687 51.3966 28.8982C50.0358 27.1094 48.1275 25.8145 45.9624 25.211L19.802 17.9972C19.5725 17.9338 19.3578 17.8257 19.1701 17.6793C18.9825 17.5328 18.8254 17.3509 18.7081 17.1437C18.5907 16.9366 18.5153 16.7084 18.4861 16.4721C18.457 16.2358 18.4746 15.9961 18.5381 15.7667C18.6016 15.5372 18.7096 15.3225 18.856 15.1348C19.0025 14.9471 19.1845 14.7901 19.3916 14.6727C19.5987 14.5554 19.827 14.48 20.0632 14.4508C20.2995 14.4216 20.5392 14.4393 20.7687 14.5027L29.3092 16.859H29.3382H59.5417C60.0224 16.859 60.4834 17.05 60.8233 17.3899C61.1632 17.7298 61.3542 18.1908 61.3542 18.6715C61.3542 19.1522 61.1632 19.6132 60.8233 19.9531C60.4834 20.293 60.0224 20.484 59.5417 20.484H46.8904C46.7441 20.4837 46.6027 20.5365 46.4923 20.6326C46.382 20.7287 46.3103 20.8615 46.2905 21.0065C46.2707 21.1514 46.3042 21.2987 46.3848 21.4208C46.4653 21.5429 46.5875 21.6317 46.7285 21.6706L46.9363 21.7286C49.6894 22.4932 52.1379 24.0923 53.9447 26.3058C54.0021 26.3744 54.0738 26.4296 54.1548 26.4676C54.2357 26.5056 54.3241 26.5254 54.4135 26.5257H59.5417C60.0224 26.5257 60.4834 26.7166 60.8233 27.0565C61.1632 27.3964 61.3542 27.8575 61.3542 28.3382C61.3542 28.8189 61.1632 29.2799 60.8233 29.6198C60.4834 29.9597 60.0224 30.1507 59.5417 30.1507H57.0332C56.9377 30.1501 56.8434 30.1722 56.7582 30.2153C56.6729 30.2583 56.5991 30.3211 56.5429 30.3983C56.4867 30.4755 56.4497 30.565 56.435 30.6594C56.4202 30.7537 56.4281 30.8502 56.458 30.9409C56.9023 32.2911 57.1315 33.7028 57.1371 35.1242V51.9007C57.1371 52.0609 57.2007 52.2146 57.314 52.3279C57.4273 52.4412 57.581 52.5048 57.7412 52.5048H59.5417C61.785 52.5048 63.9364 51.6137 65.5226 50.0274C67.1089 48.4412 68 46.2898 68 44.0465V17.4632C68.0006 16.352 67.7823 15.2516 67.3575 14.2248C66.9327 13.198 66.3098 12.265 65.5243 11.4791C64.7388 10.6932 63.8062 10.0697 62.7796 9.64431C61.7531 9.21894 60.6528 9 59.5417 9ZM47.4583 45.25C47.4583 46.2059 47.1749 47.1404 46.6438 47.9353C46.1127 48.7301 45.3578 49.3496 44.4746 49.7154C43.5915 50.0812 42.6196 50.177 41.6821 49.9905C40.7445 49.804 39.8833 49.3436 39.2073 48.6677C38.5314 47.9917 38.071 47.1305 37.8845 46.1929C37.698 45.2554 37.7938 44.2835 38.1596 43.4004C38.5254 42.5172 39.1449 41.7623 39.9397 41.2312C40.7346 40.7001 41.6691 40.4167 42.625 40.4167C43.9069 40.4167 45.1363 40.9259 46.0427 41.8323C46.9491 42.7387 47.4583 43.9681 47.4583 45.25Z" fill="#22366C"/>
</g>
</g>
</svg>
