<svg width="77" height="73" viewBox="0 0 77 73" fill="none" xmlns="http://www.w3.org/2000/svg">
<rect width="77" height="73" rx="4" fill="white"/>
<path fill-rule="evenodd" clip-rule="evenodd" d="M55.4913 14.0997C53.9266 12.535 51.7601 11.5658 49.3708 11.5658C46.9794 11.5658 44.8151 12.5351 43.2481 14.0997C41.6812 15.6644 40.712 17.8334 40.712 20.2204C40.712 22.6116 41.6812 24.7765 43.2481 26.3451C44.8151 27.9102 46.9794 28.8793 49.3708 28.8793C51.7601 28.8793 53.9266 27.9101 55.4913 26.3451C57.0583 24.7765 58.0275 22.6116 58.0275 20.2204C58.0275 17.8334 57.0583 15.6643 55.4913 14.0997ZM27.388 53.664L27.3818 53.6511L27.3755 53.6386L27.3504 53.5757L27.3213 53.5086L27.2918 53.4417L27.2583 53.3746L27.2269 53.303L27.195 53.2318L27.1596 53.1564L27.1238 53.0806L27.0863 53.0052L27.0486 52.9254L27.0106 52.8458L26.969 52.7621L26.929 52.6782L26.8869 52.5942L26.843 52.5102L26.7986 52.4223L26.7547 52.3344L26.7087 52.2419L26.6625 52.1538V52.1496L26.6141 52.0617L26.6118 52.0575L26.5658 51.9651H26.564L26.5156 51.8728V51.8686L26.4655 51.7764L26.4126 51.6799V51.6755L26.3602 51.579L26.31 51.4825H26.3077L26.2553 51.3821L26.2007 51.2812L26.1464 51.1765H26.1441L26.0895 51.0758L26.0331 50.9709L25.9762 50.8702L25.9739 50.866L25.9175 50.7613L25.8611 50.6562H25.8588L25.8001 50.5515L25.7415 50.4425H25.7393L25.6805 50.3377L25.6197 50.2285H25.6174L25.5587 50.1195L25.496 50.0105L25.4329 49.9016V49.8974L25.3701 49.7884L25.3069 49.6794L25.2443 49.5704V49.5662L25.1811 49.4571H25.1788L25.1139 49.3438L25.0512 49.2348L25.0489 49.2306L24.9379 49.0378L24.9191 49.0083L24.8537 48.8951H24.8519L24.7864 48.7818L24.7197 48.6729V48.6686L24.6526 48.5597V48.5553L24.5854 48.4464L24.5183 48.3329L24.4512 48.2196L24.3841 48.1063H24.3818L24.315 47.9931L24.2456 47.884V47.88L24.1785 47.7709L24.1114 47.6576H24.1096L24.0402 47.5486V47.5444L23.9731 47.4355L23.904 47.3265V47.3223L23.8471 47.2341L23.7925 47.1417L23.7361 47.0538H23.7338L23.6792 46.9656V46.9617L23.6228 46.8735L23.5659 46.7854L23.5118 46.6973V46.6933L23.4548 46.6093L23.4531 46.6051L23.3984 46.5212V46.5172L23.3438 46.4332L23.2874 46.3453H23.2851L23.2305 46.2571L23.1759 46.1732L23.1217 46.0895L23.1194 46.0853L23.0648 46.0013L23.0086 45.9157L22.954 45.8317L22.8994 45.7479L22.8448 45.6681V45.6639L22.7902 45.5842L22.736 45.5048V45.5004L22.6814 45.4208L22.6268 45.3411L22.5744 45.2613L22.5219 45.1858H22.5196L22.4672 45.1061L22.4126 45.0305L22.3624 44.9549V44.9507L22.31 44.8794L22.3077 44.8752L22.2575 44.804L22.2052 44.7283L22.1545 44.657H22.1528L22.1021 44.5855L22.052 44.5143L22.0014 44.4427L21.9513 44.3759V44.3716L21.9011 44.3045L21.8528 44.2374L21.8044 44.1705L21.7542 44.1076L21.7081 44.0447V44.0405L21.6597 43.9818H21.6574L21.6113 43.9189L21.5653 43.856L21.5191 43.797L21.473 43.7385L21.4269 43.6798L21.3807 43.625L21.3386 43.5707L21.2924 43.516L21.2087 43.4112L21.125 43.3147V43.3105L21.0829 43.2644L21.0408 43.2183L20.9235 43.0882C20.8604 43.0209 20.7977 42.958 20.739 42.8995C20.2061 42.3918 19.7739 42.2156 19.4175 42.203C19.0628 42.1905 18.7296 42.3456 18.4444 42.4841L17.7897 42.7986C16.4726 43.4238 14.3078 44.4517 14.0059 45.0893C13.7623 45.6052 13.9934 46.4234 14.2532 47.3505L14.4757 48.1601C15.0041 50.2829 15.0127 52.758 15.0211 55.166C15.0292 57.6748 15.0418 60.1204 15.6543 61.9243C15.7255 62.1341 15.7591 62.2095 15.7676 62.2095C15.9105 62.2055 16.1998 62.0375 16.5773 61.8152C17.2799 61.4041 18.7 60.7455 20.3152 59.9988C23.4823 58.5346 27.434 56.7097 27.7448 56.0218C27.8537 55.7785 27.8787 55.4638 27.8246 55.0946C27.7655 54.6794 27.6147 54.2011 27.388 53.664ZM32.2313 37.9783C30.6773 38.2891 28.6679 39.1321 26.7024 40.0928C24.9612 40.9403 23.2497 41.8883 21.9093 42.656L21.9473 42.6981L21.9554 42.7063L22.0225 42.7902L22.0476 42.8194L22.0624 42.8363L22.0938 42.8739L22.1022 42.8824L22.1399 42.9328H22.1422L22.2196 43.0294L22.2389 43.0544L22.2594 43.0796L22.2867 43.1131L22.2993 43.1299L22.3351 43.176L22.3414 43.1844L22.3835 43.2388L22.3853 43.2431L22.4252 43.2892L22.4359 43.306L22.465 43.3481L22.4861 43.3731L22.5071 43.4023L22.589 43.5074L22.5931 43.5157L22.6773 43.6288L22.6916 43.65L22.7211 43.6877L22.744 43.7212L22.765 43.7462L22.7968 43.7926L22.8093 43.8092L22.8492 43.8681H22.8533L22.8954 43.9309L22.9035 43.9392L22.9415 43.9939L22.9581 44.0146L23.0105 44.0904L23.0293 44.1197L23.0651 44.1702L23.0755 44.1827L23.1597 44.3043L23.1659 44.3127L23.1763 44.3253L23.2121 44.3798L23.2309 44.4049L23.3044 44.5098L23.3419 44.5687L23.3505 44.5768L23.3965 44.6484L23.4426 44.7153L23.4533 44.7321L23.491 44.7825L23.5097 44.8119L23.537 44.8539L23.5661 44.8958L23.5831 44.9207L23.623 44.9838L23.6293 44.9922L23.7237 45.1347L23.7362 45.1516L23.7716 45.2061L23.7926 45.2396L23.8181 45.2775L23.8513 45.3279L23.8661 45.3487L23.9104 45.416L23.9145 45.4202L23.9606 45.4956L23.9646 45.5041L24.009 45.5669L24.0238 45.5921L24.057 45.6425L24.0825 45.6801L24.1054 45.718L24.1412 45.7684L24.1537 45.7893L24.1976 45.8607L24.1998 45.8649L24.25 45.9404L24.2544 45.9529L24.2962 46.0158L24.3131 46.0411L24.3445 46.0914L24.3718 46.1334L24.3929 46.1671L24.4305 46.2258L24.4412 46.2426L24.4891 46.318L24.5375 46.3978L24.5459 46.4104L24.5858 46.4732L24.6046 46.5028L24.6341 46.5489L24.6631 46.5949L24.6819 46.6286L24.7199 46.6914L24.7303 46.704L24.7786 46.7836L24.8413 46.8843L24.8498 46.8971L24.9045 46.985L24.9171 47.0101L24.9672 47.0898L24.9883 47.1233L25.0304 47.1906L25.0577 47.2366L25.0931 47.2913L25.1267 47.35L25.154 47.396L25.1962 47.4675L25.2172 47.5009L25.2651 47.5807L25.2777 47.6016L25.3368 47.694L25.3409 47.7069L25.4035 47.8073V47.8115L25.4667 47.9123L25.4729 47.925L25.5254 48.0172L25.5424 48.0381L25.5885 48.1179L25.6096 48.1555L25.6494 48.2228L25.6762 48.2689L25.7099 48.3274L25.7435 48.3864L25.7708 48.4282L25.8107 48.4994L25.8778 48.6129L25.8903 48.6338L25.945 48.7304L25.9512 48.7387L25.9552 48.7429L26.0708 48.9441L26.077 48.9569L26.1295 49.045L26.142 49.0698L26.1882 49.1496L26.2092 49.1833L26.3602 49.4518L26.4 49.519L26.4188 49.5526L26.4632 49.6322L26.4757 49.6534L26.5258 49.7413L26.5321 49.7538L26.6413 49.9512L26.6498 49.9637L26.9118 50.4378L26.9477 50.5049L26.9643 50.5341L27.0672 50.7228L27.1174 50.8152L27.1197 50.8194C27.3799 51.3019 27.6168 51.7549 27.8201 52.1661L27.8371 52.1998L27.8747 52.2752L27.9042 52.3381L27.9123 52.3506L27.984 52.5019H27.9858L28.0552 52.6445L28.0637 52.6655L28.0887 52.7158L28.0991 52.7409L28.1201 52.787C33.9809 50.6057 36.9909 51.5745 40.1771 52.6026C42.2663 53.2737 44.439 53.9702 47.6085 53.7351C50.1047 53.5507 55.8123 50.8658 60.5003 47.883C64.3806 45.4079 67.5312 42.7902 67.4263 41.3638L67.4138 41.217C67.3153 40.5163 66.8728 40.1053 66.296 39.8786C65.6393 39.6187 64.8043 39.5809 64.0537 39.6356C63.8624 39.6523 63.6738 39.6732 63.4975 39.6941C61.7568 39.9376 59.4388 40.6801 57.2198 41.6281C55.0779 42.5467 53.041 43.6586 51.7074 44.7032C51.2834 45.6388 50.2873 46.1338 49.0012 46.3351C45.9428 46.8176 41.1269 45.5172 39.2707 45.0178L38.8449 44.9045C38.5704 44.829 38.4064 44.548 38.4799 44.2752C38.5516 43.9985 38.8346 43.8348 39.1095 43.9103L39.535 44.0237C41.337 44.5061 46.0083 45.7689 48.8463 45.3199C50.1173 45.1186 50.9857 44.5396 50.8871 43.2936V43.2853V43.2726L50.8853 43.2644V43.256L50.883 43.2434V43.2351L50.8807 43.2226V43.2141L50.8784 43.2099V43.2016L50.8765 43.1931V43.1806L50.8742 43.1724L50.8719 43.1595V43.1512V43.147L50.8701 43.1388L50.8678 43.1304V43.1178L50.8655 43.1095L50.8637 43.0967V43.0842L50.8614 43.0801L50.8467 42.9963C50.4253 40.8819 46.9725 39.4555 43.0942 38.6289C39.0919 37.7774 34.6768 37.5886 32.5141 37.9284L32.2313 37.9783ZM22.5384 53.232C22.3789 53.1018 22.1672 53.0347 21.9473 53.0599C21.7287 53.085 21.5362 53.1984 21.4103 53.3578C21.2822 53.5172 21.2151 53.731 21.238 53.9494C21.2635 54.1716 21.3768 54.3606 21.5362 54.4904C21.6957 54.6121 21.9011 54.6793 22.1193 54.6582H22.1274C22.3499 54.6329 22.5407 54.5199 22.6688 54.3605C22.7923 54.205 22.8596 53.9954 22.8385 53.7771L22.8367 53.7689C22.8112 53.5508 22.6979 53.3578 22.5384 53.232ZM34.3123 66.6983C34.0289 66.6983 33.7982 66.4676 33.7982 66.1824C33.7982 65.8971 34.0289 65.6663 34.3123 65.6663H59.5564C59.8399 65.6663 60.0728 65.8971 60.0728 66.1824C60.0728 66.4676 59.8399 66.6983 59.5564 66.6983H34.3123ZM62.1408 66.6983C61.8556 66.6983 61.6248 66.4676 61.6248 66.1824C61.6248 65.8971 61.8556 65.6663 62.1408 65.6663H65.2954C65.5806 65.6663 65.8117 65.8971 65.8117 66.1824C65.8117 66.4676 65.5806 66.6983 65.2954 66.6983H62.1408ZM11.5159 66.6103C11.2329 66.6103 11 66.3795 11 66.0943C11 65.8089 11.2329 65.5783 11.5159 65.5783H23.4763C23.7615 65.5783 23.9921 65.8089 23.9921 66.0943C23.9921 66.3795 23.7615 66.6103 23.4763 66.6103H11.5159ZM48.0219 35.7969C48.2885 35.8934 48.4229 36.1912 48.3242 36.4556C48.2253 36.7199 47.9297 36.8583 47.6632 36.7574C47.634 36.7449 37.0393 32.8225 33.5506 33.6952C29.9809 34.5886 22.0771 39.0271 22.056 39.0357C21.8044 39.174 21.4941 39.0817 21.3556 38.8342C21.2191 38.5868 21.3095 38.2721 21.5589 38.1338C21.5822 38.121 29.5903 33.6239 33.3011 32.6969C37.0917 31.7486 47.9905 35.7844 48.0219 35.7969ZM18.9477 63.7323C18.6625 63.7323 18.4314 63.5017 18.4314 63.2164C18.4314 62.9354 18.6625 62.7045 18.9477 62.7045H49.4317C49.7147 62.7045 49.9476 62.9354 49.9476 63.2164C49.9476 63.5017 49.7147 63.7323 49.4317 63.7323H18.9477ZM57.1484 12.7279C55.1833 10.7647 52.4644 9.54786 49.463 9.54786C46.4612 9.54786 43.7428 10.7647 41.7773 12.7279C39.8139 14.6913 38.5954 17.4095 38.5954 20.4135C38.5954 23.4131 39.8139 26.1314 41.7773 28.0991C43.7428 30.0623 46.4612 31.2789 49.463 31.2789C52.4644 31.2789 55.1832 30.0623 57.1484 28.0991C59.1116 26.1314 60.3285 23.4131 60.3285 20.4135C60.3285 17.4095 59.1116 14.6911 57.1484 12.7279ZM49.463 8C52.8886 8 55.9907 9.38874 58.237 11.6373C60.4856 13.8858 61.8765 16.986 61.8765 20.4134C61.8765 23.8365 60.4856 26.9409 58.2392 29.1853C55.9907 31.4338 52.8884 32.8265 49.463 32.8265C46.0375 32.8265 42.9354 31.4338 40.6885 29.1895C38.44 26.9409 37.0495 23.8365 37.0495 20.4134C37.0495 16.986 38.44 13.8858 40.6846 11.6373C42.9354 9.38874 46.0375 8 49.463 8ZM21.834 52.0363C22.3329 51.9818 22.8134 52.1328 23.1806 52.4266C23.5456 52.716 23.8036 53.1525 23.86 53.6514L23.8623 53.6684C23.9147 54.1634 23.7615 54.6374 23.4722 55.0024C23.1806 55.3673 22.7463 55.6233 22.2451 55.6819H22.2282C21.7333 55.7366 21.259 55.5814 20.8964 55.2918C20.5291 55.0022 20.2734 54.5661 20.2165 54.0668C20.1601 53.5634 20.311 53.0851 20.6048 52.7159C20.8962 52.3508 21.3306 52.0951 21.834 52.0363Z" fill="#22366C"/>
<circle cx="49.5" cy="20.5" r="9.5" fill="#059345"/>
<path d="M49.4584 27L46.0564 21.06V20.268H46.4524C47.0884 20.268 47.6224 20.208 48.0544 20.088C48.4984 19.968 48.8464 19.77 49.0984 19.494C49.3504 19.218 49.5004 18.84 49.5484 18.36H46.0564V17.208H49.5304C49.4464 16.764 49.2784 16.404 49.0264 16.128C48.7744 15.84 48.4324 15.63 48.0004 15.498C47.5804 15.366 47.0644 15.3 46.4524 15.3H46.0564V14.148H53.5084V15.3H50.1064C50.3824 15.528 50.6104 15.798 50.7904 16.11C50.9704 16.422 51.0844 16.788 51.1324 17.208H53.5084V18.36H51.1684C51.0844 19.236 50.7484 19.92 50.1604 20.412C49.5844 20.892 48.8164 21.198 47.8564 21.33L51.2944 27H49.4584Z" fill="white"/>
</svg>
