<svg width="77" height="73" viewBox="0 0 77 73" fill="none" xmlns="http://www.w3.org/2000/svg">
<rect width="77" height="73" rx="4" fill="white"/>
<path d="M35.6118 28.6197C35.6118 30.5593 36.1799 32.4555 37.2442 34.0682C38.3085 35.681 39.8213 36.938 41.5912 37.6803C43.3611 38.4226 45.3086 38.6168 47.1876 38.2384C49.0665 37.86 50.7924 36.9259 52.147 35.5544C53.5016 34.1828 54.4241 32.4354 54.7979 30.5329C55.1716 28.6305 54.9798 26.6586 54.2467 24.8666C53.5136 23.0746 52.2721 21.5429 50.6792 20.4653C49.0863 19.3877 47.2136 18.8125 45.2979 18.8125C42.7298 18.8153 40.2677 19.8494 38.4518 21.688C36.6359 23.5266 35.6146 26.0195 35.6118 28.6197ZM45.2979 20.6735C46.8501 20.6738 48.3673 21.14 49.6577 22.0133C50.9482 22.8865 51.9539 24.1276 52.5477 25.5796C53.1415 27.0316 53.2968 28.6293 52.9939 30.1706C52.6909 31.7119 51.9434 33.1277 50.8457 34.2388C49.7481 35.35 48.3497 36.1067 46.8274 36.4132C45.3051 36.7197 43.7271 36.5623 42.2932 35.9608C40.8592 35.3594 39.6336 34.3409 38.7713 33.0342C37.909 31.7275 37.4487 30.1912 37.4487 28.6197C37.4512 26.5126 38.2791 24.4925 39.7509 23.0028C41.2226 21.5131 43.218 20.6754 45.2991 20.6735H45.2979Z" fill="#059345"/>
<path d="M40.9677 36.52L40.5668 29.6865L40.9195 28.9774L41.2741 29.1537C41.8435 29.4369 42.3484 29.621 42.7886 29.7059C43.2396 29.7962 43.6394 29.7739 43.9879 29.639C44.3364 29.5041 44.6391 29.2324 44.8958 28.824L41.7691 27.269L42.2821 26.2375L45.3927 27.7845C45.5152 27.3496 45.5251 26.9524 45.4223 26.5931C45.325 26.223 45.1123 25.8827 44.7842 25.5721C44.467 25.2669 44.0343 24.978 43.4864 24.7055L43.1318 24.5292L43.6448 23.4977L50.3171 26.8161L49.8041 27.8476L46.7581 26.3327C46.9037 26.6597 46.9876 27.003 47.0098 27.3625C47.032 27.722 46.9711 28.1005 46.8271 28.4979L48.9545 29.556L48.4415 30.5875L46.3463 29.5454C45.881 30.2924 45.2756 30.7552 44.53 30.9339C43.8005 31.1072 42.9766 31.0391 42.0582 30.7298L42.6116 37.3376L40.9677 36.52Z" fill="#059345"/>
<path d="M30.3037 28.6884L26.6338 27.6914L26.3227 27.3802L26.4782 27.2247C26.7281 26.9748 26.9143 26.7415 27.0369 26.5246C27.1641 26.3031 27.2231 26.0886 27.2136 25.8812C27.2042 25.6738 27.1146 25.4663 26.9449 25.2589L25.5731 26.6307L25.1206 26.1782L26.4853 24.8134C26.2779 24.672 26.0705 24.5966 25.8631 24.5872C25.6509 24.573 25.4341 24.6249 25.2125 24.7427C24.9957 24.8559 24.767 25.0326 24.5266 25.2731L24.3711 25.4286L23.9185 24.9761L26.8459 22.0487L27.2985 22.5012L25.9621 23.8376C26.16 23.8188 26.3557 23.8353 26.549 23.8871C26.7422 23.939 26.9308 24.038 27.1146 24.1841L28.048 23.2507L28.5006 23.7033L27.5813 24.6225C27.8925 24.9996 28.0292 25.4003 27.9915 25.8246C27.9537 26.2394 27.7723 26.6614 27.447 27.0903L31.0249 27.9671L30.3037 28.6884Z" fill="#059345"/>
<path d="M26.6889 30.4962C27.811 30.4962 28.9078 30.1593 29.8408 29.5281C30.7738 28.897 31.5009 27.9998 31.9303 26.9502C32.3597 25.9006 32.4721 24.7456 32.2532 23.6314C32.0343 22.5171 31.4939 21.4936 30.7005 20.6903C29.9071 19.8869 28.8962 19.3398 27.7957 19.1182C26.6952 18.8965 25.5545 19.0103 24.5178 19.4451C23.4812 19.8798 22.5951 20.6161 21.9717 21.5607C21.3484 22.5053 21.0156 23.6159 21.0156 24.752C21.0172 26.275 21.6154 27.7352 22.679 28.8121C23.7426 29.889 25.1847 30.4947 26.6889 30.4962ZM26.6889 20.8677C27.4477 20.8674 28.1896 21.0951 28.8206 21.5217C29.4516 21.9484 29.9435 22.555 30.2341 23.2647C30.5246 23.9745 30.6008 24.7555 30.4529 25.5091C30.305 26.2627 29.9397 26.9549 29.4032 27.4982C28.8667 28.0416 28.1831 28.4117 27.4389 28.5616C26.6947 28.7116 25.9233 28.6347 25.2222 28.3408C24.5211 28.0468 23.9219 27.549 23.5003 26.9102C23.0787 26.2714 22.8537 25.5203 22.8537 24.752C22.8549 23.7224 23.2593 22.7353 23.9783 22.0071C24.6972 21.279 25.672 20.8692 26.6889 20.8677Z" fill="#059345"/>
<path d="M34.6018 18.2444C35.5047 18.2444 36.3874 17.9733 37.1381 17.4654C37.8889 16.9574 38.474 16.2355 38.8195 15.3908C39.165 14.5461 39.2553 13.6167 39.0791 12.72C38.9029 11.8234 38.468 10.9998 37.8294 10.3534C37.1908 9.70702 36.3773 9.26689 35.4917 9.08867C34.606 8.91046 33.6881 9.00216 32.854 9.35218C32.0198 9.70221 31.3069 10.2948 30.8054 11.0551C30.3039 11.8154 30.0364 12.7091 30.0366 13.6234C30.0381 14.8487 30.5196 16.0233 31.3755 16.8897C32.2313 17.756 33.3916 18.2432 34.6018 18.2444ZM34.6018 10.8622C35.1411 10.8622 35.6684 11.0241 36.1169 11.3275C36.5653 11.6309 36.9149 12.0622 37.1213 12.5667C37.3277 13.0713 37.3817 13.6264 37.2765 14.1621C37.1712 14.6977 36.9115 15.1897 36.5301 15.5758C36.1487 15.962 35.6628 16.225 35.1338 16.3315C34.6048 16.438 34.0565 16.3834 33.5582 16.1744C33.0598 15.9654 32.6339 15.6115 32.3343 15.1574C32.0346 14.7033 31.8747 14.1695 31.8747 13.6234C31.8753 12.8913 32.1628 12.1893 32.6741 11.6716C33.1854 11.1539 33.8787 10.8628 34.6018 10.8622Z" fill="#059345"/>
<path d="M59.5052 39.1366C59.4303 37.181 57.8505 35.6212 55.8672 35.7321C55.4072 35.7505 54.9553 35.8604 54.5372 36.0556C54.1192 36.2509 53.7433 36.5276 53.4309 36.87C53.1185 37.2124 52.8759 37.6138 52.7168 38.0512C52.5576 38.4886 52.4852 38.9534 52.5036 39.4192C52.8807 49.1785 45.7003 52.3658 42.7921 53.2566C42.4923 53.3734 41.9711 53.4609 41.3277 53.5286C42.8342 52.7693 44.0431 51.517 44.7583 49.9747C45.4736 48.4324 45.6532 46.6906 45.268 45.032C44.8828 43.3734 43.9555 41.8952 42.6364 40.8372C41.3173 39.7793 39.6838 39.2036 38.001 39.2036C36.3182 39.2036 34.6847 39.7793 33.3656 40.8372C32.0465 41.8952 31.1191 43.3734 30.734 45.032C30.3488 46.6906 30.5284 48.4324 31.2436 49.9747C31.9589 51.517 33.1678 52.7693 34.6743 53.5286C34.0285 53.4609 33.505 53.371 33.2052 53.2566C30.3893 52.3845 23.1248 49.1901 23.4961 39.4192C23.5319 38.4793 23.1978 37.5635 22.5671 36.873C21.9363 36.1825 21.0607 35.7739 20.1325 35.7368C18.1929 35.6282 16.5705 37.1857 16.4944 39.1413C16.0908 49.7575 22.087 55.7516 27.6438 58.605C26.7868 60.2707 26.3387 62.1208 26.3373 63.9989H49.6623C49.661 62.1208 49.2128 60.2707 48.3559 58.605C53.9127 55.7504 59.9146 49.7575 59.5052 39.1366Z" fill="#22366C"/>
</svg>
