<svg width="54" height="54" viewBox="0 0 54 54" fill="none" xmlns="http://www.w3.org/2000/svg">
<path d="M53.5504 11.5066C53.3142 10.5542 52.1223 10.2315 51.4284 10.9255L43.5856 18.7682L36.4263 17.5753L35.2335 10.416L43.0762 2.57331C43.7744 1.8751 43.438 0.685397 42.4793 0.447036C37.4821 -0.791179 31.9797 0.543013 28.0742 4.4475C23.8934 8.62832 22.7427 14.6886 24.483 19.9726L1.97677 42.4788C-0.658922 45.1145 -0.658922 49.3882 1.97677 52.0238C4.61245 54.6595 8.88609 54.6595 11.5218 52.0238L34.009 29.5366C39.2951 31.299 45.3438 30.1357 49.5521 25.9275C53.4618 22.0177 54.7939 16.5069 53.5504 11.5066ZM6.75033 49.7816C5.35285 49.7816 4.21905 48.6478 4.21905 47.2503C4.21905 45.8518 5.35285 44.719 6.75033 44.719C8.1478 44.719 9.2816 45.8518 9.2816 47.2503C9.2816 48.6478 8.1478 49.7816 6.75033 49.7816Z" fill="#22366C"/>
</svg>
