<svg width="1919" height="178" viewBox="0 0 1919 178" fill="none" xmlns="http://www.w3.org/2000/svg">
<path d="M100.041 44.4197H89.7029M100.041 44.4197C103.421 45.1735 103.204 46.6013 103.204 46.6013C100.144 46.6013 99.295 47.8176 99.295 47.8176M100.041 44.4197L100.041 43.102M89.7029 44.4197C86.3238 45.1735 86.5406 46.6013 86.5406 46.6013C89.6007 46.6013 90.4524 47.8176 90.4524 47.8176M89.7029 44.4197L89.7028 43.102M90.4524 47.8176H99.295M90.4524 47.8176L89.266 79.5204H100.481L99.295 47.8176M91.4466 29.9603H88.018V32.1737H91.4466M91.4466 29.9603V32.1737M91.4466 29.9603H94.8721M91.4466 32.1737H94.8721M94.8721 29.9603V32.1737M94.8721 29.9603H98.3008M94.8721 32.1737H98.3008M98.3008 29.9603V32.1737M98.3008 29.9603H101.73V32.1737H98.3008M94.8721 20.8121C88.7179 23.2038 89.7028 29.9604 89.7028 29.9604H100.041C100.041 29.9604 101.029 23.2038 94.8721 20.8121ZM94.8721 20.8121C94.2279 21.063 93.6643 21.3645 93.1656 21.7003H93.1594C93.1594 21.7003 93.1036 18.9688 94.8722 18.9688M94.8721 20.8121C95.5194 21.063 96.0832 21.3645 96.5818 21.7003H96.588C96.588 21.7003 96.6438 18.9688 94.8722 18.9688M89.647 54.8402H100.1M94.8722 18.9688C94.5191 18.9688 94.2434 19.0804 94.0204 19.2547H94.0142C94.0142 19.2547 93.8407 15.6527 94.8721 14.6324M94.8722 18.9688C95.2252 18.9688 95.504 19.0804 95.727 19.2547H95.7301C95.7301 19.2547 95.9035 15.6527 94.8721 14.6324M94.8721 14.6324C95.1106 14.8668 95.2809 15.2406 95.411 15.672L94.8721 1L94.3363 15.672C94.4632 15.2406 94.6367 14.8668 94.8721 14.6324ZM99.4529 35.9808V43.102H100.041M99.4529 35.9808C99.4529 35.1658 99.7255 34.5772 100.041 34.1685M99.4529 35.9808C99.4529 35.1275 99.7069 34.5772 100.041 34.1685M100.041 34.1685V32.1738H89.7028V33.6908M100.041 34.1685V43.102M89.7028 33.6908C90.155 34.0591 90.7776 34.7822 90.7776 35.9808M89.7028 33.6908V43.102M89.7028 33.6908C90.155 34.0572 90.7776 34.7822 90.7776 35.9808M90.7776 35.9808V43.102H89.7028M89.1392 82.9183C89.1392 82.9183 88.2905 81.7019 85.2305 81.7019C85.2305 81.7019 85.884 80.2711 89.263 79.5204H100.478C103.857 80.2711 104.514 81.7019 104.514 81.7019C101.454 81.7019 100.605 82.9183 100.605 82.9183M89.1392 82.9183H100.605M89.1392 82.9183L89.1391 82.9153L87.7299 120.614C87.7484 120.608 87.767 120.602 87.7887 120.599H102.017L100.608 82.9153L100.605 82.9183M85.9087 123.997C85.9087 123.997 84.5057 122.296 82 123.678C82 123.678 82.9137 120.599 87.9622 120.599H102.076C107.125 120.599 108.038 123.678 108.038 123.678C105.533 122.296 104.13 123.997 104.13 123.997M85.9087 123.997H104.13M85.9087 123.997L85.9087 165.783M104.13 123.997L104.13 165.783L85.9087 165.783M104.13 167.627H85.6175V177H104.13M104.13 167.627V177M104.13 167.627L105.155 167.627M104.13 167.627L104.13 172.315M104.13 177H194.495M104.13 177L104.13 172.315M105.155 167.627V167.088M105.155 167.627H84.5893V167.088C84.5893 166.368 85.1808 165.783 85.9087 165.783M105.155 167.088C105.155 166.368 104.563 165.783 103.835 165.783H85.9087M105.155 167.088C105.155 166.466 104.715 165.948 104.13 165.82V131.488M101.445 123.997V144.89V165.783M99.137 82.9182L100.184 120.596M90.7032 79.5143L91.5859 47.8177M96.9038 47.8177L97.4458 79.5204M91.5952 120.599L92.2425 82.9182M90.8178 165.783V124M96.1265 123.997V165.783M95.6867 82.9182L95.888 120.596M94.0793 79.5204L94.2465 47.8177M109.138 157.338H104.13M109.138 157.338C109.448 157.338 109.696 157.587 109.696 157.893C109.696 158.196 109.448 158.445 109.138 158.445M109.138 157.338L108.317 157.339L109.77 157.339M104.13 157.338V158.445H109.138M104.13 157.338V156.009H109.77M104.13 157.338L109.77 157.339M109.138 158.445L108.039 158.445C107.915 159.082 107.843 159.762 107.843 160.491V172.315H120.935V160.491C120.935 159.762 120.861 159.085 120.731 158.445L119.644 158.445M109.77 156.009C110.142 156.009 110.442 156.306 110.442 156.674C110.442 157.041 110.142 157.339 109.77 157.339M109.77 156.009L108.841 156.009C110.674 152.219 114.391 150.717 114.391 150.717C114.391 150.717 118.055 152.301 119.901 156.009L119.012 156.009M126.656 157.338H119.644M126.656 157.338C126.966 157.338 127.217 157.587 127.217 157.893C127.217 158.196 126.966 158.445 126.656 158.445M126.656 157.338L125.835 157.339L127.288 157.339M119.644 157.338C119.334 157.338 119.083 157.587 119.083 157.893C119.083 158.196 119.334 158.445 119.644 158.445M119.644 157.338L120.44 157.339L119.012 157.339M119.644 158.445H126.656M126.656 158.445L125.556 158.445C125.433 159.082 125.361 159.762 125.361 160.491V172.315H138.453V160.491C138.453 159.762 138.382 159.085 138.252 158.445L137.162 158.445M127.288 156.009H119.012M127.288 156.009C127.66 156.009 127.96 156.306 127.96 156.674C127.96 157.041 127.66 157.339 127.288 157.339M127.288 156.009L126.359 156.009C128.192 152.219 131.909 150.717 131.909 150.717C131.909 150.717 135.573 152.301 137.419 156.009L136.53 156.009M119.012 156.009C118.64 156.009 118.337 156.306 118.337 156.674C118.337 157.041 118.64 157.339 119.012 157.339M119.012 157.339H127.288M144.174 157.338H137.162M144.174 157.338C144.484 157.338 144.735 157.587 144.735 157.893C144.735 158.196 144.484 158.445 144.174 158.445M144.174 157.338L143.353 157.339L144.809 157.339M137.162 157.338C136.852 157.338 136.601 157.587 136.601 157.893C136.601 158.196 136.852 158.445 137.162 158.445M137.162 157.338L137.961 157.339L136.53 157.339M137.162 158.445H144.174M144.174 158.445L143.078 158.445C142.951 159.082 142.882 159.762 142.882 160.491V172.315H155.971V160.491C155.971 159.762 155.897 159.085 155.77 158.445L154.68 158.445M144.809 156.009H136.53M144.809 156.009C145.177 156.009 145.478 156.306 145.478 156.674C145.478 157.041 145.177 157.339 144.809 157.339M144.809 156.009L143.88 156.009C145.71 152.219 149.427 150.717 149.427 150.717C149.427 150.717 153.091 152.301 154.937 156.009L154.048 156.009M136.53 156.009C136.158 156.009 135.855 156.306 135.855 156.674C135.855 157.041 136.158 157.339 136.53 157.339M136.53 157.339H144.809M161.692 157.338H154.68M161.692 157.338C162.002 157.338 162.249 157.587 162.249 157.893C162.249 158.196 162.002 158.445 161.692 158.445M161.692 157.338L160.871 157.339L162.327 157.339M154.68 157.338C154.37 157.338 154.122 157.587 154.122 157.893C154.122 158.196 154.37 158.445 154.68 158.445M154.68 157.338L155.479 157.339L154.048 157.339M154.68 158.445H161.692M161.692 158.445L160.595 158.445C160.472 159.082 160.397 159.762 160.397 160.491V172.315H173.492V160.491C173.492 159.762 173.415 159.085 173.288 158.445L172.198 158.445M162.327 156.009H154.048M162.327 156.009C162.695 156.009 162.996 156.306 162.996 156.674C162.996 157.041 162.695 157.339 162.327 157.339M162.327 156.009L161.398 156.009C163.228 152.219 166.945 150.717 166.945 150.717C166.945 150.717 170.609 152.301 172.455 156.009L171.566 156.009M154.048 156.009C153.676 156.009 153.376 156.306 153.376 156.674C153.376 157.041 153.676 157.339 154.048 157.339M154.048 157.339H162.327M179.21 157.338H172.198M179.21 157.338C179.52 157.338 179.771 157.587 179.771 157.893C179.771 158.196 179.52 158.445 179.21 158.445M179.21 157.338L178.389 157.339L179.845 157.339M172.198 157.338C171.891 157.338 171.64 157.587 171.64 157.893C171.64 158.196 171.891 158.445 172.198 158.445M172.198 157.338L172.997 157.339L171.566 157.339M172.198 158.445H179.21M179.21 158.445L178.114 158.445C177.99 159.082 177.918 159.762 177.918 160.491V172.315H191.01V160.491C191.01 159.762 190.933 159.085 190.806 158.445L189.716 158.445M179.845 156.009H171.566M179.845 156.009C180.216 156.009 180.517 156.306 180.517 156.674C180.517 157.041 180.216 157.339 179.845 157.339M179.845 156.009L178.916 156.009C180.749 152.219 184.466 150.717 184.466 150.717C184.466 150.717 188.13 152.301 189.976 156.009L189.084 156.009M171.566 156.009C171.197 156.009 170.894 156.306 170.894 156.674C170.894 157.041 171.197 157.339 171.566 157.339M171.566 157.339H179.845M194.495 157.338H189.716M194.495 157.338V158.445H189.716M194.495 157.338L189.084 157.339M194.495 157.338L194.495 156.009H189.084M189.716 157.338C189.409 157.338 189.158 157.587 189.158 157.893C189.158 158.196 189.409 158.445 189.716 158.445M189.716 157.338L190.515 157.339L189.084 157.339M189.084 156.009C188.715 156.009 188.412 156.306 188.412 156.674C188.412 157.041 188.715 157.339 189.084 157.339M107.843 156.009V148.729H120.935V156.009M125.361 156.009V148.729H138.453V156.009M142.882 156.009V148.729H155.971V156.009M160.397 156.009V148.729H173.492V156.009M177.918 156.009V148.729H191.01V156.009M107.893 131.488V127.869M107.893 131.488H104.13M107.893 131.488H111.659M107.893 127.869C107.893 126.84 107.05 126.007 106.01 126.007C104.972 126.007 104.13 126.84 104.13 127.869V131.488M107.893 127.869C107.893 126.84 108.738 126.007 109.776 126.007C110.817 126.007 111.659 126.84 111.659 127.869M104.13 131.488H194.495M111.659 131.488V127.869M111.659 131.488H115.422M111.659 127.869C111.659 126.84 112.502 126.007 113.542 126.007C114.58 126.007 115.422 126.84 115.422 127.869M115.422 131.488V127.869M115.422 131.488H119.192M115.422 127.869C115.422 126.84 116.268 126.007 117.305 126.007C118.346 126.007 119.192 126.84 119.192 127.869M119.192 131.488V127.869M119.192 131.488H122.955M119.192 127.869C119.192 126.84 120.031 126.007 121.072 126.007C122.112 126.007 122.955 126.84 122.955 127.869M122.955 131.488V127.869M122.955 131.488H126.721M122.955 127.869C122.955 126.84 123.797 126.007 124.838 126.007C125.879 126.007 126.721 126.84 126.721 127.869M126.721 131.488V127.869M126.721 131.488H130.487M126.721 127.869C126.721 126.84 127.563 126.007 128.604 126.007C129.642 126.007 130.487 126.84 130.487 127.869M130.487 131.488V127.869M130.487 131.488H134.25M130.487 127.869C130.487 126.84 131.327 126.007 132.367 126.007C133.408 126.007 134.25 126.84 134.25 127.869M134.25 131.488V127.869M134.25 131.488H138.017M134.25 127.869C134.25 126.84 135.093 126.007 136.134 126.007C137.171 126.007 138.017 126.84 138.017 127.869M138.017 131.488V127.869M138.017 131.488H141.78M138.017 127.869C138.017 126.84 138.859 126.007 139.9 126.007C140.937 126.007 141.78 126.84 141.78 127.869M141.78 131.488V127.869M141.78 131.488H145.546M141.78 127.869C141.78 126.84 142.625 126.007 143.663 126.007M145.546 131.488V127.869M145.546 131.488H149.312M145.546 127.869C145.546 126.84 144.703 126.007 143.663 126.007M145.546 127.869C145.546 126.84 146.389 126.007 147.429 126.007C148.47 126.007 149.312 126.84 149.312 127.869M143.663 126.007L143.663 124.891M149.312 131.488V127.869M149.312 131.488H153.076M149.312 127.869C149.312 126.84 150.155 126.007 151.192 126.007C152.236 126.007 153.076 126.84 153.076 127.869M153.076 131.488V127.869M153.076 131.488H156.842M153.076 127.869C153.076 126.84 153.921 126.007 154.962 126.007C155.999 126.007 156.842 126.84 156.842 127.869M156.842 131.488V127.869M156.842 131.488H160.605M156.842 127.869C156.842 126.84 157.684 126.007 158.725 126.007C159.765 126.007 160.605 126.84 160.605 127.869M160.605 131.488V127.869M160.605 131.488H164.374M160.605 127.869C160.605 126.84 161.45 126.007 162.491 126.007C163.532 126.007 164.374 126.84 164.374 127.869M160.605 127.869C160.605 126.886 161.376 126.083 162.352 126.013C163.488 125.896 164.374 126.886 164.374 127.869M164.374 131.488V127.869M164.374 131.488H168.137M164.374 127.869C164.374 126.84 165.214 126.007 166.257 126.007C167.295 126.007 168.137 126.84 168.137 127.869M168.137 131.488V127.869M168.137 131.488H171.904M168.137 127.869C168.137 126.84 168.983 126.007 170.02 126.007M168.137 127.869C168.137 126.84 168.98 126.007 170.02 126.007M171.904 131.488V127.869M171.904 131.488H175.67M171.904 127.869C171.904 126.84 171.061 126.007 170.02 126.007M171.904 127.869C171.904 126.84 172.746 126.007 173.787 126.007C174.824 126.007 175.67 126.84 175.67 127.869M175.67 131.488V127.869M175.67 131.488H179.433M175.67 127.869C175.67 126.84 176.512 126.007 177.55 126.007C178.59 126.007 179.433 126.84 179.433 127.869M179.433 131.488V127.869M179.433 131.488H183.199M179.433 127.869C179.433 126.84 180.279 126.007 181.316 126.007M183.199 131.488V127.869M183.199 131.488H186.962M183.199 127.869C183.199 126.84 182.357 126.007 181.316 126.007M183.199 127.869C183.199 126.84 184.042 126.007 185.082 126.007C186.12 126.007 186.962 126.84 186.962 127.869M181.316 126.007L181.316 124.891M186.962 131.488V127.869M186.962 131.488H190.732M186.962 127.869C186.962 126.84 187.808 126.007 188.845 126.007C189.886 126.007 190.732 126.84 190.732 127.869M190.732 131.488V127.869M190.732 131.488H194.495M190.732 127.869C190.732 126.84 191.571 126.007 192.612 126.007C193.652 126.007 194.495 126.84 194.495 127.869V131.488M194.495 131.488L194.495 172.315M153.317 103.073C153.317 103.073 156.876 100.98 159.316 98.4771C161.255 96.4855 161.565 95.4714 162.119 95.2661V93.9057H161.819C161.819 93.9057 161.388 93.8995 161.388 93.5135C161.388 93.1305 161.794 93.1244 161.794 93.1244H162.119V90.1431H162.005C162.005 90.1431 161.701 90.1401 161.701 89.8643C161.701 89.5917 161.986 89.5886 161.986 89.5886H162.119V86.4113C162.119 86.1876 162.287 86.0068 162.491 86.0068C162.696 86.0068 162.863 86.1876 162.863 86.4113V89.5886H162.993C162.993 89.5886 163.281 89.5917 163.281 89.8643C163.281 90.1401 162.974 90.1431 162.974 90.1431H162.863V93.1244H163.185C163.185 93.1244 163.591 93.1305 163.591 93.5135C163.591 93.8995 163.16 93.9057 163.16 93.9057H162.863V95.2661C163.414 95.4714 163.724 96.4855 165.666 98.4771C168.103 100.98 171.662 103.073 171.662 103.073M153.317 103.073C153.317 103.073 155.826 105.175 162.572 105.175C169.317 105.175 171.662 103.073 171.662 103.073M153.317 103.073C136.561 109.317 144.196 123.218 144.196 123.218H180.783C180.783 123.218 188.418 109.317 171.662 103.073M143.663 124.891C143.195 124.891 142.817 124.517 142.817 124.055C142.817 123.592 143.195 123.218 143.663 123.218H181.316C181.784 123.218 182.162 123.592 182.162 124.055C182.162 124.517 181.784 124.891 181.316 124.891M143.663 124.891H181.316M104.13 172.315H194.495M194.495 172.315L194.495 177M198.258 98.1246V94.5061M198.258 98.1246H194.495M198.258 98.1246H202.027M198.258 94.5061C198.258 93.4797 197.419 92.6432 196.378 92.6432C195.337 92.6432 194.495 93.4797 194.495 94.5061M198.258 94.5061C198.258 93.4797 199.103 92.6432 200.141 92.6432C201.182 92.6432 202.027 93.4797 202.027 94.5061M194.495 94.5061V98.1246M194.495 94.5061L194.436 78.7269H203.279V92.7536C202.551 93.011 202.027 93.6942 202.027 94.5061M194.495 98.1246H258.505M194.495 98.1246V177M202.027 98.1246V94.5061M202.027 98.1246H205.79M202.027 94.5061C202.027 93.4797 202.867 92.6432 203.907 92.6432C204.948 92.6432 205.79 93.4797 205.79 94.5061M205.79 98.1246V94.5061M205.79 98.1246H209.557M205.79 94.5061C205.79 93.4797 206.633 92.6432 207.674 92.6432C208.714 92.6432 209.557 93.4797 209.557 94.5061M205.79 94.5061C205.79 93.7708 205.357 93.1335 204.728 92.8332C206.571 89.8152 209.894 86.9474 215.593 84.8241M209.557 98.1246V94.5061M209.557 98.1246H213.323M209.557 94.5061C209.557 93.4797 210.396 92.6432 211.44 92.6432C212.477 92.6432 213.323 93.4797 213.323 94.5061M213.323 98.1246V94.5061M213.323 98.1246H217.086M213.323 94.5061C213.323 93.4797 214.165 92.6432 215.203 92.6432C216.243 92.6432 217.086 93.4797 217.086 94.5061M217.086 98.1246V94.5061M217.086 98.1246H220.852M217.086 94.5061C217.086 93.4797 217.928 92.6432 218.969 92.6432C220.007 92.6432 220.852 93.4797 220.852 94.5061M220.852 98.1246V94.5061M220.852 98.1246H224.615M220.852 94.5061C220.852 93.4797 221.695 92.6432 222.735 92.6432C223.776 92.6432 224.615 93.4797 224.615 94.5061M224.615 98.1246V94.5061M224.615 98.1246H228.382M224.615 94.5061C224.615 93.4797 225.461 92.6432 226.499 92.6432C227.539 92.6432 228.382 93.4797 228.382 94.5061M228.382 98.1246V94.5061M228.382 98.1246H232.148M228.382 94.5061C228.382 93.4797 229.224 92.6432 230.265 92.6432C231.305 92.6432 232.148 93.4797 232.148 94.5061M232.148 98.1246V94.5061M232.148 98.1246H235.911M232.148 94.5061C232.148 93.4797 232.99 92.6432 234.028 92.6432C235.072 92.6432 235.911 93.4797 235.911 94.5061M235.911 98.1246V94.5061M235.911 98.1246H239.677M235.911 94.5061C235.911 93.4797 236.757 92.6432 237.797 92.6432C238.835 92.6432 239.677 93.4797 239.677 94.5061M239.677 98.1246V94.5061M239.677 98.1246H243.441M239.677 94.5061C239.677 93.4797 240.52 92.6432 241.561 92.6432C242.601 92.6432 243.441 93.4797 243.441 94.5061M243.441 98.1246V94.5061M243.441 98.1246H247.21M243.441 94.5061C243.441 93.4797 244.286 92.6432 245.327 92.6432C246.364 92.6432 247.21 93.4797 247.21 94.5061M247.21 98.1246V94.5061M247.21 98.1246H250.973M247.21 94.5061C247.21 93.4797 248.052 92.6432 249.093 92.6432C250.131 92.6432 250.973 93.4797 250.973 94.5061M247.21 94.5061C247.21 93.7708 247.64 93.1335 248.269 92.8332C246.426 89.8152 243.106 86.9474 237.404 84.8241M250.973 98.1246V94.5061M250.973 98.1246H254.739M250.973 94.5061C250.973 93.4797 251.818 92.6432 252.856 92.6432C253.897 92.6432 254.739 93.4797 254.739 94.5061M250.973 94.5061C250.973 93.6666 250.412 92.9559 249.638 92.7261V78.7269H258.481V94.2305C258.347 93.3327 257.567 92.6432 256.622 92.6432M254.739 98.1246V94.5061M254.739 98.1246H258.505M254.739 94.5061C254.739 93.4797 255.582 92.6432 256.622 92.6432M258.505 98.1246V94.5061C258.505 93.4797 257.66 92.6432 256.622 92.6432M258.505 98.1246L258.505 177M258.505 177H194.495M258.505 177H348.87M258.505 177L258.505 172.315M258.505 177L258.505 165.351H250.973L250.973 177M258.505 177L250.973 177M194.495 177L202.027 177M194.495 177V165.351H202.027L202.027 177M250.973 177V105.086H202.027V177M250.973 177H202.027M179.331 123.218C179.331 123.218 186.182 109.67 171.516 103.315M153.59 103.26C138.76 109.593 145.648 123.218 145.648 123.218M174.883 123.218C174.883 123.218 179.609 110.515 170.113 103.94M154.893 103.922C145.363 110.494 150.096 123.218 150.096 123.218M168.701 123.218C168.701 123.218 170.866 111.6 166.892 104.835M158.099 104.813C154.107 111.575 156.278 123.219 156.278 123.219M165.142 123.219C165.142 123.219 166.044 111.876 164.43 105.077M160.543 105.107C158.938 111.906 159.84 123.218 159.84 123.218M352.959 44.4197H363.294M352.959 44.4197C349.58 45.1735 349.8 46.6013 349.8 46.6013C352.857 46.6013 353.705 47.8176 353.705 47.8176M352.959 44.4197L352.959 43.102M363.294 44.4197C366.676 45.1735 366.457 46.6013 366.457 46.6013C363.4 46.6013 362.551 47.8176 362.551 47.8176M363.294 44.4197L363.294 43.102M362.551 47.8176H353.705M362.551 47.8176L363.734 79.5204H352.519L353.705 47.8176M361.553 29.9603H364.982V32.1737H361.553M361.553 29.9603V32.1737M361.553 29.9603H358.128M361.553 32.1737H358.128M358.128 29.9603V32.1737M358.128 29.9603H354.699M358.128 32.1737H354.699M354.699 29.9603V32.1737M354.699 29.9603H351.271V32.1737H354.699M358.128 20.8121C364.282 23.2038 363.294 29.9604 363.294 29.9604H352.959C352.959 29.9604 351.974 23.2038 358.128 20.8121ZM358.128 20.8121C358.775 21.063 359.336 21.3645 359.835 21.7003H359.841C359.841 21.7003 359.9 18.9688 358.128 18.9688M358.128 20.8121C357.481 21.063 356.917 21.3645 356.421 21.7003H356.412C356.412 21.7003 356.356 18.9688 358.128 18.9688M363.353 54.8402H352.9M358.128 18.9688C358.481 18.9688 358.76 19.0804 358.98 19.2547H358.983C358.983 19.2547 359.159 15.6527 358.128 14.6324M358.128 18.9688C357.775 18.9688 357.496 19.0804 357.273 19.2547H357.27C357.27 19.2547 357.097 15.6527 358.128 14.6324M358.128 14.6324C357.89 14.8668 357.719 15.2406 357.592 15.672L358.128 1L358.664 15.672C358.537 15.2406 358.364 14.8668 358.128 14.6324ZM352.959 43.102H353.547V35.9808M352.959 43.102V34.1685M363.294 43.102H362.226V35.9808M363.294 43.102V33.6908M362.226 35.9808C362.226 34.7822 362.848 34.0591 363.294 33.6908M362.226 35.9808C362.226 34.7822 362.848 34.0572 363.294 33.6908M363.294 33.6908V32.1738H352.959V34.1685M352.959 34.1685C353.275 34.5772 353.547 35.1658 353.547 35.9808M352.959 34.1685C353.293 34.5772 353.547 35.1275 353.547 35.9808M363.861 82.9183C363.861 82.9183 364.71 81.7019 367.77 81.7019C367.77 81.7019 367.116 80.2711 363.737 79.5204H352.522C349.143 80.2711 348.486 81.7019 348.486 81.7019C351.546 81.7019 352.395 82.9183 352.395 82.9183M363.861 82.9183H352.395M363.861 82.9183L363.861 82.9153L365.273 120.614C365.252 120.608 365.233 120.602 365.211 120.599H350.983L352.392 82.9153L352.395 82.9183M367.091 123.997C367.091 123.997 368.494 122.296 371 123.678C371 123.678 370.089 120.599 365.041 120.599H350.924C345.875 120.599 344.962 123.678 344.962 123.678C347.467 122.296 348.87 123.997 348.87 123.997M367.091 123.997H348.87M367.091 123.997L367.091 165.783M348.87 123.997L348.87 165.783L367.091 165.783M348.87 167.627H367.383V177H348.87M348.87 167.627V177M348.87 167.627L347.845 167.627M348.87 167.627L348.87 172.315M348.87 177L348.87 172.315M347.845 167.627V167.088M347.845 167.627H368.411V167.088C368.411 166.368 367.822 165.783 367.091 165.783M347.845 167.088C347.845 166.368 348.437 165.783 349.165 165.783H367.091M347.845 167.088C347.845 166.466 348.285 165.948 348.87 165.82L348.87 131.488M351.559 123.997V165.783M353.863 82.9182L352.813 120.596M354.842 47.8177L353.959 79.5143M362.297 79.5143L361.414 47.8177M361.408 120.599L360.761 82.9182M362.182 165.783V124M356.874 123.997V165.783M357.313 82.9182L357.115 120.596M357.499 47.8177L357.332 79.5204M358.921 79.5204L358.754 47.8177M343.862 157.338H348.87M343.862 157.338C343.556 157.338 343.305 157.587 343.305 157.893C343.305 158.196 343.556 158.445 343.862 158.445M343.862 157.338L344.683 157.339L343.23 157.339M348.87 157.338V158.445H343.862M348.87 157.338L348.87 156.009H343.23M348.87 157.338L343.23 157.339M343.862 158.445L344.962 158.445C345.086 159.082 345.157 159.762 345.157 160.491V172.315H332.065V160.491C332.065 159.762 332.139 159.085 332.269 158.445L333.356 158.445M343.23 156.009C342.859 156.009 342.558 156.306 342.558 156.674C342.558 157.041 342.859 157.339 343.23 157.339M343.23 156.009L344.16 156.009C342.326 152.219 338.609 150.717 338.609 150.717C338.609 150.717 334.945 152.301 333.102 156.009L333.988 156.009M326.344 157.338H333.356M326.344 157.338C326.038 157.338 325.784 157.587 325.784 157.893C325.784 158.196 326.038 158.445 326.344 158.445M326.344 157.338L327.165 157.339L325.712 157.339M333.356 157.338C333.669 157.338 333.917 157.587 333.917 157.893C333.917 158.196 333.669 158.445 333.356 158.445M333.356 157.338L332.557 157.339L333.988 157.339M333.356 158.445H326.344M326.344 158.445L327.444 158.445C327.568 159.082 327.639 159.762 327.639 160.491V172.315H314.547V160.491C314.547 159.762 314.621 159.085 314.748 158.445L315.838 158.445M325.712 156.009H333.988M325.712 156.009C325.341 156.009 325.04 156.306 325.04 156.674C325.04 157.041 325.341 157.339 325.712 157.339M325.712 156.009L326.639 156.009C324.808 152.219 321.091 150.717 321.091 150.717C321.091 150.717 317.427 152.301 315.581 156.009L316.47 156.009M333.988 156.009C334.363 156.009 334.663 156.306 334.663 156.674C334.663 157.041 334.363 157.339 333.988 157.339M333.988 157.339H325.712M308.826 157.338H315.838M308.826 157.338C308.519 157.338 308.269 157.587 308.269 157.893C308.269 158.196 308.519 158.445 308.826 158.445M308.826 157.338L309.647 157.339L308.191 157.339M315.838 157.338C316.148 157.338 316.396 157.587 316.396 157.893C316.396 158.196 316.148 158.445 315.838 158.445M315.838 157.338L315.039 157.339L316.47 157.339M315.838 158.445H308.826M308.826 158.445L309.926 158.445C310.046 159.082 310.121 159.762 310.121 160.491V172.315H297.026V160.491C297.026 159.762 297.103 159.085 297.23 158.445L298.32 158.445M308.191 156.009H316.47M308.191 156.009C307.823 156.009 307.522 156.306 307.522 156.674C307.522 157.041 307.823 157.339 308.191 157.339M308.191 156.009L309.123 156.009C307.29 152.219 303.573 150.717 303.573 150.717C303.573 150.717 299.909 152.301 298.063 156.009L298.952 156.009M316.47 156.009C316.842 156.009 317.142 156.306 317.142 156.674C317.142 157.041 316.842 157.339 316.47 157.339M316.47 157.339H308.191M291.308 157.338H298.32M291.308 157.338C290.999 157.338 290.751 157.587 290.751 157.893C290.751 158.196 290.999 158.445 291.308 158.445M291.308 157.338L292.129 157.339L290.673 157.339M298.32 157.338C298.627 157.338 298.878 157.587 298.878 157.893C298.878 158.196 298.627 158.445 298.32 158.445M298.32 157.338L297.521 157.339L298.952 157.339M298.32 158.445H291.308M291.308 158.445L292.408 158.445C292.529 159.082 292.6 159.762 292.6 160.491V172.315H279.508V160.491C279.508 159.762 279.585 159.085 279.712 158.445L280.802 158.445M290.673 156.009H298.952M290.673 156.009C290.305 156.009 290.004 156.306 290.004 156.674C290.004 157.041 290.305 157.339 290.673 157.339M290.673 156.009L291.606 156.009C289.772 152.219 286.055 150.717 286.055 150.717C286.055 150.717 282.388 152.301 280.545 156.009L281.434 156.009M298.952 156.009C299.324 156.009 299.624 156.306 299.624 156.674C299.624 157.041 299.324 157.339 298.952 157.339M298.952 157.339H290.673M273.79 157.338H280.802M273.79 157.338C273.48 157.338 273.23 157.587 273.23 157.893C273.23 158.196 273.48 158.445 273.79 158.445M273.79 157.338L274.608 157.339L273.155 157.339M280.802 157.338C281.112 157.338 281.36 157.587 281.36 157.893C281.36 158.196 281.112 158.445 280.802 158.445M280.802 157.338L280.003 157.339L281.434 157.339M280.802 158.445H273.79M273.79 158.445L274.89 158.445C275.011 159.082 275.082 159.762 275.082 160.491V172.315H261.99V160.491C261.99 159.762 262.064 159.085 262.194 158.445L263.284 158.445M273.155 156.009H281.434M273.155 156.009C272.784 156.009 272.483 156.306 272.483 156.674C272.483 157.041 272.784 157.339 273.155 157.339M273.155 156.009L274.085 156.009C272.251 152.219 268.534 150.717 268.534 150.717C268.534 150.717 264.87 152.301 263.027 156.009L263.916 156.009M281.434 156.009C281.806 156.009 282.106 156.306 282.106 156.674C282.106 157.041 281.806 157.339 281.434 157.339M281.434 157.339H273.155M258.505 157.338H263.284M258.505 157.338V158.445H263.284M258.505 157.338L263.916 157.339M258.505 157.338V156.009H263.916M263.284 157.338C263.594 157.338 263.842 157.587 263.842 157.893C263.842 158.196 263.594 158.445 263.284 158.445M263.284 157.338L262.485 157.339L263.916 157.339M263.916 156.009C264.288 156.009 264.588 156.306 264.588 156.674C264.588 157.041 264.288 157.339 263.916 157.339M345.157 156.009V148.729H332.065V156.009M327.639 156.009V148.729H314.547V156.009M310.121 156.009V148.729H297.026V156.009M292.6 156.009V148.729H279.508V156.009M275.082 156.009V148.729H261.99V156.009M345.107 131.488V127.869M345.107 131.488H348.87M345.107 131.488H341.341M345.107 127.869C345.107 126.84 345.95 126.007 346.99 126.007C348.031 126.007 348.87 126.84 348.87 127.869V131.488M345.107 127.869C345.107 126.84 344.265 126.007 343.224 126.007C342.183 126.007 341.341 126.84 341.341 127.869M348.87 131.488H258.505M341.341 131.488V127.869M341.341 131.488H337.575M341.341 127.869C341.341 126.84 340.498 126.007 339.458 126.007C338.42 126.007 337.575 126.84 337.575 127.869M337.575 131.488V127.869M337.575 131.488H333.811M337.575 127.869C337.575 126.84 336.732 126.007 335.695 126.007C334.654 126.007 333.811 126.84 333.811 127.869M333.811 131.488V127.869M333.811 131.488H330.045M333.811 127.869C333.811 126.84 332.969 126.007 331.929 126.007C330.888 126.007 330.045 126.84 330.045 127.869M330.045 131.488V127.869M330.045 131.488H326.282M330.045 127.869C330.045 126.84 329.203 126.007 328.162 126.007C327.122 126.007 326.282 126.84 326.282 127.869M326.282 131.488V127.869M326.282 131.488H322.516M326.282 127.869C326.282 126.84 325.437 126.007 324.399 126.007C323.358 126.007 322.516 126.84 322.516 127.869M322.516 131.488V127.869M322.516 131.488H318.75M322.516 127.869C322.516 126.84 321.673 126.007 320.633 126.007C319.592 126.007 318.75 126.84 318.75 127.869M318.75 131.488V127.869M318.75 131.488H314.987M318.75 127.869C318.75 126.84 317.907 126.007 316.867 126.007C315.826 126.007 314.987 126.84 314.987 127.869M314.987 131.488V127.869M314.987 131.488H311.22M314.987 127.869C314.987 126.84 314.141 126.007 313.1 126.007C312.063 126.007 311.22 126.84 311.22 127.869M311.22 131.488V127.869M311.22 131.488H307.454M311.22 127.869C311.22 126.84 310.378 126.007 309.337 126.007M307.454 131.488V127.869M307.454 131.488H303.688M307.454 127.869C307.454 126.84 308.297 126.007 309.337 126.007M307.454 127.869C307.454 126.84 306.612 126.007 305.571 126.007C304.533 126.007 303.688 126.84 303.688 127.869M309.337 126.007L309.337 124.891M303.688 131.488V127.869M303.688 131.488H299.925M303.688 127.869C303.688 126.84 302.846 126.007 301.805 126.007C300.767 126.007 299.925 126.84 299.925 127.869M299.925 131.488V127.869M299.925 131.488H296.159M299.925 127.869C299.925 126.84 299.079 126.007 298.042 126.007C297.001 126.007 296.159 126.84 296.159 127.869M296.159 131.488V127.869M296.159 131.488H292.392M296.159 127.869C296.159 126.84 295.316 126.007 294.275 126.007C293.238 126.007 292.392 126.84 292.392 127.869M292.392 131.488V127.869M292.392 131.488H288.629M292.392 127.869C292.392 126.84 291.55 126.007 290.512 126.007C289.472 126.007 288.629 126.84 288.629 127.869M292.392 127.869C292.392 126.886 291.624 126.083 290.649 126.013C289.512 125.896 288.629 126.886 288.629 127.869M288.629 131.488V127.869M288.629 131.488H284.863M288.629 127.869C288.629 126.84 287.784 126.007 286.746 126.007C285.705 126.007 284.863 126.84 284.863 127.869M284.863 131.488V127.869M284.863 131.488H281.097M284.863 127.869C284.863 126.84 284.02 126.007 282.98 126.007C281.939 126.007 281.097 126.84 281.097 127.869M281.097 131.488V127.869M281.097 131.488H277.33M281.097 127.869C281.097 126.84 280.254 126.007 279.217 126.007C278.176 126.007 277.33 126.84 277.33 127.869M277.33 131.488V127.869M277.33 131.488H273.567M277.33 127.869C277.33 126.84 276.491 126.007 275.447 126.007C274.41 126.007 273.567 126.84 273.567 127.869M273.567 131.488V127.869M273.567 131.488H269.801M273.567 127.869C273.567 126.84 272.725 126.007 271.684 126.007M269.801 131.488V127.869M269.801 131.488H266.035M269.801 127.869C269.801 126.84 270.643 126.007 271.684 126.007M269.801 127.869C269.801 126.84 268.959 126.007 267.918 126.007C266.88 126.007 266.035 126.84 266.035 127.869M271.684 126.007L271.684 124.891M266.035 131.488V127.869M266.035 131.488H262.272M266.035 127.869C266.035 126.84 265.195 126.007 264.155 126.007C263.114 126.007 262.272 126.84 262.272 127.869M262.272 131.488V127.869M262.272 131.488H258.505M262.272 127.869C262.272 126.84 261.429 126.007 260.388 126.007C259.348 126.007 258.505 126.84 258.505 127.869V131.488M258.505 131.488V172.315M299.686 103.073C299.686 103.073 296.124 100.98 293.684 98.4771C291.745 96.4855 291.435 95.4714 290.881 95.2661V93.9057H291.181C291.181 93.9057 291.612 93.8995 291.612 93.5135C291.612 93.1305 291.206 93.1244 291.206 93.1244H290.881V90.1431H290.995C290.995 90.1431 291.302 90.1401 291.302 89.8643C291.302 89.5917 291.014 89.5886 291.014 89.5886H290.881V86.4113C290.881 86.1876 290.717 86.0068 290.512 86.0068C290.305 86.0068 290.14 86.1876 290.14 86.4113V89.5886H290.007C290.007 89.5886 289.719 89.5917 289.719 89.8643C289.719 90.1401 290.026 90.1431 290.026 90.1431H290.14V93.1244H289.815C289.815 93.1244 289.41 93.1305 289.41 93.5135C289.41 93.8995 289.84 93.9057 289.84 93.9057H290.14V95.2661C289.586 95.4714 289.276 96.4855 287.334 98.4771C284.897 100.98 281.335 103.073 281.335 103.073M299.686 103.073C299.686 103.073 297.174 105.175 290.428 105.175C283.683 105.175 281.335 103.073 281.335 103.073M299.686 103.073C316.439 109.317 308.805 123.218 308.805 123.218H272.217C272.217 123.218 264.582 109.317 281.335 103.073M309.337 124.891C309.805 124.891 310.183 124.517 310.183 124.055C310.183 123.592 309.805 123.218 309.337 123.218H271.684C271.216 123.218 270.839 123.592 270.839 124.055C270.839 124.517 271.216 124.891 271.684 124.891M309.337 124.891H271.684M348.87 172.315H258.505M273.669 123.218C273.669 123.218 266.818 109.67 281.484 103.315M299.414 103.26C314.24 109.593 307.352 123.218 307.352 123.218M278.117 123.218C278.117 123.218 273.391 110.515 282.887 103.94M298.107 103.922C307.637 110.494 302.904 123.218 302.904 123.218M284.299 123.218C284.299 123.218 282.134 111.6 286.108 104.835M294.901 104.813C298.893 111.575 296.722 123.219 296.722 123.219M287.858 123.219C287.858 123.219 286.957 111.876 288.573 105.077M292.454 105.107C294.062 111.906 293.163 123.218 293.163 123.218M226.499 109.973C226.499 114.241 250.75 118.273 248.201 128.032C247.631 130.217 245.931 129.714 245.931 129.714V132.582H249.025V177H203.975V132.582H207.066V129.714C207.066 129.714 205.369 130.217 204.799 128.032C202.25 118.273 226.499 114.241 226.499 109.973ZM226.499 109.973C226.499 114.744 242.075 118.163 248.346 127.94M226.499 109.973C226.499 114.744 210.923 118.163 204.651 127.946M226.499 109.973C226.499 115.948 239.123 119.799 239.123 136.672M226.499 109.973C226.499 115.948 213.877 119.799 213.877 136.672M226.499 109.973C226.499 115.948 228.654 119.799 228.654 136.672M226.499 109.973C226.499 115.948 224.346 119.799 224.346 136.672M208.727 138.952H206.565V177H208.727M244.27 138.952H246.435V177H244.27M215.593 84.8241C215.593 84.8241 225.315 78.9352 226.059 74.5966V72.9819H225.703C225.703 72.9819 225.192 72.9758 225.192 72.5193C225.192 72.0597 225.672 72.0566 225.672 72.0566H226.059V68.5085H225.923C225.923 68.5085 225.56 68.5055 225.56 68.1777C225.56 67.8559 225.901 67.8498 225.901 67.8498H226.059L226.499 60.7935L226.938 67.8498H227.099C227.099 67.8498 227.44 67.8559 227.44 68.1777C227.44 68.5055 227.075 68.5085 227.075 68.5085H226.938V72.0566H227.326C227.326 72.0566 227.809 72.0597 227.809 72.5193C227.809 72.9758 227.295 72.9819 227.295 72.9819H226.938V74.5966C227.868 78.4235 237.404 84.8241 237.404 84.8241M215.593 84.8241C215.593 84.8241 218.576 87.3212 226.595 87.3212C234.616 87.3212 237.404 84.8241 237.404 84.8241M259.23 69.0968H248.892M259.23 69.0968C262.609 69.8505 262.392 71.2783 262.392 71.2783C259.332 71.2783 258.481 76.5115 258.481 76.5115H249.638C249.638 76.5115 248.789 71.2783 245.729 71.2783C245.729 71.2783 245.512 69.8505 248.892 69.0968M259.23 69.0968L259.23 67.7793M248.892 69.0968L248.892 67.7793M250.632 54.638H247.204V56.8499H250.632M250.632 54.638V56.8499M250.632 54.638H254.061M250.632 56.8499H254.061M254.061 54.638V56.8499M254.061 54.638H257.49M254.061 56.8499H257.49M257.49 54.638V56.8499M257.49 54.638H260.915V56.8499H257.49M251.49 76.5115H248.919V78.7268H251.49M251.49 76.5115V78.7268M251.49 76.5115H254.061M251.49 78.7268H254.061M254.061 76.5115V78.7268M254.061 76.5115H256.632M254.061 78.7268H256.632M256.632 76.5115V78.7268M256.632 76.5115H259.202V78.7268H256.632M254.061 47.6553C248.337 47.6553 248.891 54.6381 248.891 54.6381H259.23C259.23 54.6381 259.785 47.6553 254.061 47.6553ZM254.061 47.6553C254.693 47.6553 255.244 47.7441 255.73 47.8973C255.628 47.0884 255.272 45.8109 254.061 45.8109M254.061 47.6553C253.429 47.6553 252.878 47.7441 252.388 47.8973C252.491 47.0884 252.85 45.8109 254.061 45.8109M254.061 45.8109C253.708 45.8109 253.429 45.9243 253.206 46.0989H253.203C253.203 46.0989 253.029 42.4978 254.061 41.476C255.092 42.4978 254.916 46.0989 254.916 46.0989H254.913C254.69 45.9243 254.414 45.8109 254.061 45.8109ZM258.639 60.6557V67.7793H259.23M258.639 60.6557C258.639 59.8407 258.914 59.2524 259.23 58.8418M258.639 60.6557C258.639 59.8039 258.896 59.2524 259.23 58.8418M259.23 58.8418V56.8503H248.892V58.3638M259.23 58.8418V67.7793M248.892 58.3638C249.341 58.7346 249.963 59.4577 249.963 60.6557V67.7793H248.892M248.892 58.3638V67.7793M204.028 69.0968H193.69M204.028 69.0968C207.407 69.8505 207.187 71.2783 207.187 71.2783C204.13 71.2783 203.279 76.5115 203.279 76.5115H194.436C194.436 76.5115 193.584 71.2783 190.527 71.2783C190.527 71.2783 190.307 69.8505 193.69 69.0968M204.028 69.0968L204.028 67.7793M193.69 69.0968L193.689 67.7793M195.43 54.638H192.002V56.8499H195.43M195.43 54.638V56.8499M195.43 54.638H198.859M195.43 56.8499H198.859M198.859 54.638V56.8499M198.859 54.638H202.288M198.859 56.8499H202.288M202.288 54.638V56.8499M202.288 54.638H205.713V56.8499H202.288M196.288 76.5115H193.717V78.7268H196.288M196.288 76.5115V78.7268M196.288 76.5115H198.859M196.288 78.7268H198.859M198.859 76.5115V78.7268M198.859 76.5115H201.43M198.859 78.7268H201.43M201.43 76.5115V78.7268M201.43 76.5115H203.997V78.7268H201.43M198.859 47.6553C193.135 47.6553 193.69 54.6381 193.69 54.6381H204.028C204.028 54.6381 204.583 47.6553 198.859 47.6553ZM198.859 47.6553C199.491 47.6553 200.042 47.7441 200.528 47.8973C200.426 47.0884 200.067 45.8109 198.859 45.8109M198.859 47.6553C198.227 47.6553 197.676 47.7441 197.186 47.8973C197.292 47.0884 197.648 45.8109 198.859 45.8109M198.859 45.8109C198.506 45.8109 198.227 45.9243 198.004 46.0989H198.001C198.001 46.0989 197.827 42.4978 198.859 41.476C199.89 42.4978 199.717 46.0989 199.717 46.0989H199.711C199.488 45.9243 199.212 45.8109 198.859 45.8109ZM203.436 60.6557V67.7793H204.028M203.436 60.6557C203.436 59.8407 203.712 59.2524 204.028 58.8418M203.436 60.6557C203.436 59.8039 203.694 59.2524 204.028 58.8418M204.028 58.8418V56.8503H193.689V58.3638M204.028 58.8418V67.7793M193.689 58.3638C194.139 58.7346 194.761 59.4577 194.761 60.6557V67.7793H193.689M193.689 58.3638V67.7793M94.6832 43.102H91.6355V35.9808C91.6355 34.0554 93.1625 33.3878 93.1625 33.3878C93.1625 33.3878 94.6832 34.1072 94.6832 35.9808V43.102ZM98.5919 43.102H95.5443V35.9808C95.5443 34.0554 97.0681 33.3878 97.0681 33.3878C97.0681 33.3878 98.5919 34.1072 98.5919 35.9808V43.102ZM104.13 133.427H194.495V136.672H104.13V133.427ZM106.738 138.952H122.041V146.56H106.738V138.952ZM124.256 138.952H139.559V146.56H124.256V138.952ZM141.777 138.952H157.077V146.56H141.777V138.952ZM159.295 138.952H174.598V146.56H159.295V138.952ZM176.813 138.952H192.116V146.56H176.813V138.952ZM358.317 43.102H361.365V35.9808C361.365 34.0554 359.841 33.3878 359.841 33.3878C359.841 33.3878 358.317 34.1072 358.317 35.9808V43.102ZM354.408 43.102H357.456V35.9808C357.456 34.0554 355.932 33.3878 355.932 33.3878C355.932 33.3878 354.408 34.1072 354.408 35.9808V43.102ZM258.505 133.427H348.87V136.672H258.505V133.427ZM330.959 138.952H346.263V146.56H330.959V138.952ZM313.441 138.952H328.744V146.56H313.441V138.952ZM295.923 138.952H311.223V146.56H295.923V138.952ZM278.402 138.952H293.705V146.56H278.402V138.952ZM260.884 138.952H276.188V146.56H260.884V138.952ZM234.839 151.857V150.506C234.839 150.506 235.642 150.742 235.908 149.712C237.11 145.116 226.499 143.217 226.499 141.207C226.499 143.217 215.891 145.116 217.089 149.712C217.359 150.742 218.161 150.506 218.161 150.506V151.857H215.891V177H237.11V151.857H234.839ZM203.907 136.672H249.093V138.952H203.907V136.672ZM211.464 138.952H213.629V177H211.464V138.952ZM239.371 138.952H241.533V157.976V177H239.371V138.952ZM253.869 67.7794H250.824V60.6557C250.824 58.7315 252.348 58.0636 252.348 58.0636C252.348 58.0636 253.869 58.7836 253.869 60.6557V67.7794ZM257.778 67.7794H254.73V60.6557C254.73 58.7315 256.254 58.0636 256.254 58.0636C256.254 58.0636 257.778 58.7836 257.778 60.6557V67.7794ZM198.667 67.7794H195.619V60.6557C195.619 58.7315 197.143 58.0636 197.143 58.0636C197.143 58.0636 198.667 58.7836 198.667 60.6557V67.7794ZM202.575 67.7794H199.528V60.6557C199.528 58.7315 201.052 58.0636 201.052 58.0636C201.052 58.0636 202.575 58.7836 202.575 60.6557V67.7794Z" stroke="#059345" stroke-width="0.5" stroke-miterlimit="2" stroke-linecap="round" stroke-linejoin="round"/>
<path d="M0 124H86" stroke="#059345" stroke-width="0.5"/>
<path d="M367 124L1919 124" stroke="#059345" stroke-width="0.5"/>
</svg>
