<svg width="623" height="234" viewBox="0 0 623 234" fill="none" xmlns="http://www.w3.org/2000/svg">
<g opacity="0.3">
<mask id="mask0_1041_8658" style="mask-type:alpha" maskUnits="userSpaceOnUse" x="0" y="0" width="623" height="234">
<rect width="623" height="234" fill="#D9D9D9"/>
</mask>
<g mask="url(#mask0_1041_8658)">
<path fill-rule="evenodd" clip-rule="evenodd" d="M571.45 267.831C567.312 275.001 563.213 282.203 558.78 289.198C551.935 299.992 541.498 305.373 528.918 306.96C525.342 307.411 521.654 307.04 518.019 306.971C517.656 306.96 517.088 306.472 516.984 306.1C516.49 304.376 516.126 302.608 515.741 300.963C518.94 300.613 521.999 300.459 524.982 299.918C536.63 297.795 545.992 292.164 553.324 282.888C560.763 273.483 566.569 263.156 572.384 252.802C574.955 248.227 577.357 243.562 579.93 238.988C580.626 237.751 580.48 237.178 579.218 236.43C573.78 233.192 568.501 229.7 563.012 226.553C555.673 222.35 548.338 218.094 540.732 214.395C533.437 210.845 525.76 207.958 517.446 207.798C514.108 207.735 510.73 208.377 507.412 208.939C504.758 209.385 502.09 209.99 499.568 210.898C497.059 211.8 494.725 213.169 492.037 214.464C491.385 212.331 490.828 210.51 490.231 208.552C496.135 205.622 501.367 201.53 508.152 200.015C517.469 197.934 526.253 198.871 534.614 203.059C540.806 206.164 546.752 209.751 552.754 213.211C561.479 218.237 570.137 223.38 578.863 228.406C582.79 230.666 586.815 232.768 590.377 234.716C584.137 245.643 577.841 256.766 571.45 267.831ZM518.235 295.274C515.297 294.706 512.944 293.544 511.497 290.636C507.499 282.59 501.83 275.957 493.048 271.446C494.127 271.313 494.638 271.159 495.132 271.201C497.909 271.446 500.679 271.775 503.457 272.003C507.744 272.358 511.597 273.839 514.883 276.493C522.405 282.574 530.466 287.722 539.961 290.901C532.915 293.852 526.049 296.781 518.235 295.274ZM531.431 270.23C537.652 272.411 543.99 274.285 550.313 276.179C551.743 276.604 553.328 276.535 555.322 276.742C552.67 279.9 550.129 282.898 547.614 285.918C544.434 289.739 540.16 288.985 536.781 287.239C530.061 283.758 523.782 279.459 517.351 275.452C515.21 274.115 513.162 272.64 510.966 271.154C517.644 267.104 524.424 267.768 531.431 270.23ZM485.465 267.216C481.81 266.574 478.165 265.868 474.646 265.215C479.669 261.118 484.745 256.724 490.095 252.68C497.222 247.293 505.216 245.192 514.031 248.031C515.916 248.641 517.681 249.841 519.254 251.072C520.7 252.208 521.29 253.773 520.495 255.742C517.394 263.421 511.187 267.02 503.328 268.569C497.237 269.769 491.371 268.261 485.465 267.216ZM432.831 272.932C433.186 268.898 435.678 266.197 439.259 264.594C441.206 263.724 443.452 263.496 445.563 262.976C452.771 263.336 457.227 268.654 455.838 275.58C455.167 278.928 452.254 280.335 449.612 281.746C445.731 283.811 441.573 284.034 437.669 281.847C434.262 279.937 432.486 276.864 432.831 272.932ZM466.997 276.79C466.336 281.524 465.207 286.258 463.676 290.79C462.045 295.624 458.142 298.665 453.847 301.515C447.354 305.825 440.098 306.419 432.727 306.918C432.274 306.944 431.505 306.042 431.295 305.432C429.089 299.074 426.618 292.828 420.799 288.725C418.208 286.9 415.212 285.626 412.14 283.96C416.825 282.606 421.413 281.279 426.003 279.958C426.654 279.772 427.365 279.709 427.959 279.417C429.965 278.424 431.294 278.605 432.746 280.659C437.372 287.202 449.331 288.386 455.942 281.869C462.007 275.893 460.162 266.144 454.642 262.286C449.479 258.677 441.808 257.669 435.6 263.384C432.755 266.006 430.765 268.972 430.429 272.841C430.267 274.693 429.292 275.373 427.424 275.776C421.974 276.938 416.589 278.398 410.921 279.809C412.789 276.715 414.58 274.078 416.03 271.27C418.395 266.696 418.091 261.76 417.598 256.841C417.582 256.676 417.492 256.528 417.458 256.363C416.082 249.894 416.083 249.894 422.325 247.139C429.359 244.035 436.582 243.148 444.201 244.804C450.167 246.099 454.214 249.915 458.063 254.065C459.767 255.901 461.192 257.992 462.697 260.004C466.452 265.024 467.84 270.756 466.997 276.79ZM384.406 305.549C378.772 307.666 378.741 307.586 376.723 301.754C379.482 300.454 382.362 299.387 384.93 297.827C389.218 295.216 390.199 291.665 388.491 286.539C387.368 283.169 383.974 280.982 379.682 281.078C376.82 281.141 373.964 281.46 371.107 281.662C370.831 279.9 370.564 278.186 370.244 276.142C373.786 274.816 377.523 273.706 381.393 274.656C386.96 276.031 391.815 278.414 394.278 284.135C398.417 293.735 391.544 302.868 384.406 305.549ZM372.448 297.774C369.546 296.049 365.956 295.428 362.602 294.303C366.439 292.44 369.143 289.182 370.808 285.053C370.92 284.777 371.241 284.453 371.523 284.384C375.382 283.455 379.252 282.378 383.183 284.044C385.964 285.223 386.957 287.616 387.045 290.296C387.13 292.907 385.544 294.828 383.364 296.166C382.151 296.909 380.714 297.296 379.449 297.965C377.049 299.244 375.067 299.334 372.448 297.774ZM356.876 298.082C356.06 303.15 350.575 307.295 345.249 307.029C344.773 307.003 344.075 306.891 343.875 306.578C341.774 303.288 338.111 303.038 334.677 301.95C337.16 299.414 340.215 297.53 340.205 293.666C340.203 293.316 340.805 292.902 341.207 292.631C345.804 289.58 352.909 290.53 356.2 294.786C356.831 295.598 357.046 297.025 356.876 298.082ZM278.715 306.589C278.512 306.897 277.812 306.997 277.333 307.019C272.031 307.284 266.569 303.118 265.679 298.066C265.168 295.168 267.35 293.724 269.349 292.382C272.675 290.148 278.418 290.418 281.618 292.806C281.937 293.045 282.311 293.332 282.442 293.671C284.296 298.554 284.286 298.559 287.914 301.95C284.472 303.028 280.837 303.336 278.715 306.589ZM248.068 299.021C247.821 299.238 247.193 299.265 246.861 299.122C243.798 297.784 240.457 296.797 237.803 294.892C235.205 293.029 234.851 289.967 236.385 286.99C237.759 284.32 240.116 283.19 243.048 283.264C245.156 283.323 247.264 283.588 249.359 283.859C250.83 284.05 251.619 284.771 252.46 286.236C253.954 288.837 256.301 290.975 258.358 293.247C258.879 293.82 259.654 294.176 260.848 295.003C255.723 295.014 251.529 295.985 248.068 299.021ZM245.991 301.812C245.765 302.295 245.445 302.953 245.15 303.617C243.537 307.241 243.602 306.987 239.488 306.021C233.077 304.519 226.098 295.709 227.098 289.245C227.817 284.596 229.339 280.467 233.623 277.761C239.684 273.935 245.49 273.388 252.369 276.206C252.078 278.143 251.809 279.931 251.547 281.678C248.614 281.471 245.684 281.147 242.749 281.078C238.567 280.982 235.091 283.328 234.078 286.709C232.539 291.851 233.526 295.354 237.631 297.806C240.216 299.35 243.085 300.438 245.991 301.812ZM182.126 282.946C176.818 283.949 170.033 281.566 167.763 277.851C165.418 274.025 167.188 270.411 168.686 266.94C170.268 263.283 173.813 263.326 177.194 263.336C183.354 263.342 188.158 266.51 189.503 271.456C190.877 276.508 187.38 281.953 182.126 282.946ZM191.272 305.416C191.069 306.021 190.326 306.928 189.875 306.907C186.92 306.759 183.975 306.392 181.027 306.1C174.392 305.448 169.093 302.019 164.067 298.129C160.66 295.492 158.837 291.713 157.758 287.759C156.672 283.784 156.038 279.655 155.56 275.553C154.76 268.691 157.451 262.832 161.649 257.546C165.211 253.057 168.924 248.641 174.36 246.237C176.711 245.197 179.31 244.465 181.867 244.146C190.331 243.085 198.034 245.51 205.201 249.74C205.759 250.069 205.977 251.385 205.915 252.213C205.606 256.305 204.829 260.391 204.832 264.483C204.833 269.02 207.005 272.969 209.682 276.609C210.366 277.538 211.043 278.477 212.038 279.841C205.619 278.302 199.689 276.96 193.822 275.383C193.114 275.192 192.431 273.812 192.282 272.9C191.184 266.165 187.183 261.569 180.655 260.067C171.616 257.992 162.87 262.662 163.089 273.632C163.221 280.181 167.443 283.455 172.411 285.472C177.409 287.499 182.819 286.65 187.373 283.174C188.039 282.665 188.947 282.229 189.258 281.545C190.758 278.254 192.999 278.753 195.853 279.725C200.563 281.322 205.427 282.484 210.926 284.023C209.58 284.602 208.804 284.968 208.002 285.27C198.471 288.842 194.229 296.601 191.272 305.416ZM107.106 262.662C105.224 260.736 103.739 258.396 102.313 256.103C100.973 253.948 101.913 252.064 103.787 250.669C108.926 246.842 114.753 246.105 120.924 247.277C127.507 248.53 132.591 252.473 137.579 256.49C141.149 259.367 144.544 262.45 147.785 265.236C141.361 266.425 134.631 268.092 127.796 268.813C120.187 269.615 112.772 268.447 107.106 262.662ZM95.7499 282.076C91.1421 284.989 86.4969 287.924 80.6918 288.386C78.4098 288.566 76.9843 287.791 75.6564 286.321C72.8757 283.232 70.1168 280.128 67.0273 276.673C75.8082 276.477 83.1526 273.361 90.5513 270.48C95.384 268.601 100.318 267.609 105.447 268.638C107.626 269.073 109.67 270.161 111.892 270.994C106.318 274.847 101.161 278.652 95.7499 282.076ZM110.677 291.448C108.907 294.988 105.105 295.693 101.692 295.545C97.4345 295.364 93.191 294.329 89.0011 293.395C86.8926 292.923 84.925 291.856 83.4073 291.257C88.7626 288.348 94.3617 285.504 99.7365 282.298C103.129 280.276 106.165 277.687 109.392 275.394C112.74 273.011 116.543 272.104 120.645 271.976C123.397 271.891 126.138 271.483 128.884 271.217C120.518 276.142 114.855 283.094 110.677 291.448ZM96.5586 299.753C99.8893 300.31 103.27 300.581 106.839 301C106.512 302.486 106.261 304.19 105.71 305.793C105.53 306.318 104.58 306.881 103.955 306.912C101.26 307.056 98.5056 307.337 95.8659 306.955C91.451 306.318 87.0118 305.522 82.7569 304.232C72.7944 301.207 66.3931 293.958 61.3901 285.525C54.5063 273.935 48.0075 262.126 41.3025 250.43C38.2781 245.149 35.1667 239.922 32.2452 234.933C38.4677 231.324 45.0317 227.567 51.5577 223.725C60.6638 218.365 69.6669 212.819 78.8597 207.591C85.8519 203.616 93.0879 200.094 101.301 199.073C106.559 198.419 111.747 198.983 116.583 200.809C121.997 202.857 127.124 205.633 132.496 208.143C131.769 210.542 131.216 212.368 130.613 214.353C129.997 214.167 129.363 214.14 128.961 213.827C124.364 210.25 118.668 209.581 113.262 208.403C105.15 206.636 97.3033 208.324 89.6461 211.195C75.9707 216.332 63.8022 224.165 51.3626 231.515C48.685 233.097 46.1103 234.843 43.4219 236.419C42.2836 237.088 41.8717 237.55 42.6468 238.919C46.0941 245.022 49.2215 251.3 52.7664 257.35C56.9455 264.493 61.13 271.674 65.8782 278.456C70.0084 284.347 74.6698 290.036 81.1146 293.719C84.3559 295.577 88.0417 296.691 91.5486 298.076C93.1855 298.724 94.8409 299.461 96.5586 299.753ZM43.8013 156.76C63.9919 151.791 83.8735 146.898 104.063 141.929C104.063 146.111 104.136 149.668 103.995 153.217C103.97 153.844 103.15 154.844 102.533 154.986C89.0065 158.113 75.4612 161.17 61.9051 164.172C58.4849 164.93 58.3277 165.032 59.4009 168.414C62.9946 179.756 66.6044 191.094 70.1818 202.444C70.7292 204.184 71.396 205.957 71.5207 207.745C71.5803 208.621 70.7401 209.905 69.9216 210.425C67.2928 212.102 64.4851 213.509 61.2546 215.287C54.2082 196.106 49.6498 176.418 43.8013 156.76ZM102.345 196.631C101.932 196.597 101.367 196.221 101.193 195.856C99.84 193.021 98.5657 190.149 97.1044 186.929C100.366 186.626 102.99 186.417 105.606 186.126C107.202 185.949 108.092 186.493 109.03 187.885C111.121 190.988 113.593 193.845 115.897 196.811C116.14 197.124 116.3 197.5 116.405 197.681C111.71 197.341 107.025 197.019 102.345 196.631ZM85.7598 201.308C82.1607 203.213 78.2472 205.288 74.1224 207.475C69.8566 193.799 65.6505 180.345 61.4335 166.83C75.4883 163.648 89.4185 160.493 103.586 157.285C103.826 161.831 104.048 166.046 104.273 170.333C97.4692 171.438 90.6272 172.534 83.7976 173.67C82.2962 173.92 80.8273 174.473 79.3205 174.599C76.9301 174.8 76.426 175.886 77.1903 177.952C80.0251 185.614 82.822 193.288 85.7598 201.308ZM79.1091 176.952C83.7055 176.074 87.8954 175.218 92.1069 174.488C95.2789 173.939 98.4904 173.622 101.658 173.067C103.561 172.734 104.629 172.828 104.863 175.203C105.136 177.985 106.042 180.707 106.68 183.478C102.642 184.132 98.7679 184.759 94.4485 185.458C95.293 187.836 95.8637 189.632 96.5667 191.378C97.2806 193.151 98.1251 194.874 98.9863 196.783C95.3802 197.926 91.8793 199.037 88.0146 200.264C85.0984 192.631 82.1932 185.023 79.1091 176.952ZM106.694 139.814C106.814 131.144 107.027 122.476 107.095 113.806C107.111 111.768 106.701 109.727 106.497 107.785C117.132 107.785 127.735 107.883 138.335 107.747C144.756 107.666 151.192 106.783 157.587 107.045C167.035 107.433 176.789 106.819 185.592 111.078C192.947 114.635 199.211 119.582 202.964 127.061C204.197 129.522 205.739 131.835 207.015 134.002C205.593 135.531 204.217 137.01 202.737 138.601C200.747 135.824 199.161 132.92 196.923 130.624C190.847 124.394 184.243 118.957 175.251 116.906C165.775 114.745 156.214 114.009 146.544 114.105C137.33 114.195 128.116 114.33 118.903 114.488C117.64 114.51 116.361 114.69 115.131 114.969C114.693 115.067 114.151 115.627 114.049 116.064C113.803 117.11 113.709 118.207 113.695 119.286C113.541 130.716 113.233 142.148 113.339 153.576C113.424 162.628 114.527 171.616 117.917 180.132C119.749 184.734 122.385 188.888 126.415 192.097C127.897 193.277 128.849 195.092 130.33 196.274C132.744 198.199 135.393 199.842 138.233 201.805C136.564 203.234 135.089 204.497 133.134 206.169C128.697 203.224 123.465 200.388 119.027 196.649C112.242 190.934 108.22 183.469 107.137 174.628C106.227 167.193 105.826 159.774 106.588 152.276C107.007 148.159 106.637 143.97 106.694 139.814ZM174.593 105.74C174.045 105.612 173.265 104.544 173.345 104.022C174.517 96.4111 175.818 88.8194 177.188 80.6227C185.502 83.6642 193.315 86.5231 201.156 89.3915C199.943 93.1478 198.848 96.5327 197.72 100.024C194.043 98.6082 190.399 97.2067 186.042 95.5297C185.332 99.9727 184.723 103.777 184.111 107.606C181.031 107.025 177.787 106.485 174.593 105.74ZM141.648 105.163C146.684 85.4855 151.682 65.9588 156.767 46.0877C176.862 51.8241 196.915 56.3499 216.587 63.1652C214.422 66.8425 212.442 70.2077 210.399 73.6811C206.91 72.7795 203.698 72.0694 200.562 71.1189C190.01 67.9214 179.491 64.6231 168.948 61.3958C165.183 60.2426 165.269 60.3063 164.393 64.1322C162.225 73.601 159.961 83.0496 157.727 92.5041C156.887 96.0598 155.975 99.5991 155.194 103.166C154.905 104.487 154.365 105.2 152.884 105.179C149.357 105.129 145.83 105.163 141.648 105.163ZM175.166 80.274C173.653 88.5833 172.045 96.875 170.507 104.972L157.261 104.972C160.579 90.8382 163.792 77.1482 167.027 63.369C180.709 67.4613 194.482 71.5811 208.528 75.7817C206.344 79.78 204.301 83.5219 202.203 87.3653C197.002 85.4134 191.878 83.4381 186.713 81.5727C183.681 80.4773 180.596 79.5167 177.51 78.5753C176.064 78.1343 175.433 78.8104 175.166 80.274ZM198.558 117.122C196.717 115.719 194.75 114.163 192.719 112.69C191.292 111.655 189.848 110.603 188.282 109.801C187.082 109.187 186.47 108.544 186.662 107.158C187.042 104.397 187.31 101.622 187.679 98.379C190.942 99.7848 193.882 101.009 196.767 102.346C197.139 102.518 197.373 103.267 197.42 103.771C197.83 108.2 198.184 112.633 198.558 117.122ZM220.85 60.5812C226.079 51.8437 231.491 43.2118 236.636 34.8368C248.453 41.4011 260.719 48.193 272.961 55.0248C279.606 58.7328 286.366 62.2726 292.8 66.3059C303.498 73.013 308.548 83.2051 310.12 95.217C310.406 97.3977 309.822 99.6781 309.765 101.916C309.728 103.383 310.514 105.751 309.886 106.154C308.206 107.232 305.962 107.469 303.764 108.09C303.606 105.426 303.64 103.023 303.293 100.674C301.331 87.3489 294.423 76.9534 283.237 69.3315C277.384 65.3438 271.296 61.6708 265.181 58.0715C260.152 55.1118 254.941 52.4461 249.784 49.6981C246.743 48.0779 243.686 46.4762 240.55 45.0507C239.98 44.7923 238.559 45.1786 238.249 45.6865C230.522 58.3884 222.587 70.9857 215.362 83.9614C211.509 90.8786 208.969 98.5366 208.805 106.569C208.734 109.987 209.894 113.412 210.284 116.857C210.861 121.943 212.807 126.476 215.994 131.001C213.695 131.681 211.768 132.25 209.89 132.805C203.666 124.434 199.447 115.381 199.806 104.718C199.99 99.2727 201.439 94.1153 204.036 89.4297C209.431 79.7014 215.134 70.135 220.85 60.5812ZM288.026 28.9784C295.069 21.8325 302.16 14.7311 309.19 7.57301C310.493 6.24572 311.628 5.72669 313.151 7.25777C319.578 13.7154 326.098 20.0854 332.478 26.587C339.827 34.0763 347.065 41.6696 354.582 49.4577C351.039 51.3985 347.9 53.2241 344.642 54.8136C344.004 55.1246 342.569 54.8274 342.063 54.2972C332.702 44.5105 323.407 34.6633 314.146 24.7853C311.493 21.9551 311.124 21.9498 308.449 24.8097C302.066 31.634 295.618 38.4005 289.198 45.1924C286.437 48.1145 283.61 50.9819 280.956 53.9952C279.85 55.2503 278.841 55.4918 277.439 54.6994C274.498 53.0383 271.545 51.3964 267.986 49.4057C274.839 42.4169 281.416 35.6828 288.026 28.9784ZM311.319 65.8293C313.408 68.6835 315.253 71.1401 317.001 73.662C317.258 74.0325 317.24 74.7882 317.038 75.2276C315.103 79.4371 313.101 83.617 311.265 87.4959C309.445 83.4079 307.431 78.8847 305.272 74.033C307.042 71.6315 309.054 68.9016 311.319 65.8293ZM311.289 45.4068C316.882 52.0518 322.178 58.3454 327.587 64.7727C324.534 67.4544 321.883 69.7842 319.133 72.1994C317.198 69.8288 315.192 67.4172 313.239 64.9659C311.888 63.2703 310.66 63.3552 309.345 65.0052C307.426 67.4162 305.455 69.7889 303.488 72.1999C300.707 69.7587 298.01 67.3912 295.043 64.7865C300.357 58.4478 305.613 52.1781 311.289 45.4068ZM309.267 44.485C303.882 50.8014 298.441 57.0728 292.973 63.4141C289.335 61.199 285.602 58.9249 281.713 56.5564C291.583 46.1992 301.359 35.9418 311.304 25.5076C321.135 35.8165 330.923 46.0798 340.897 56.5383C337.142 58.8336 333.378 61.1348 329.543 63.4794C325.331 58.4521 321.158 53.4481 316.953 48.4701C315.652 46.93 314.329 45.3989 312.895 43.9808C311.556 42.6562 310.397 43.1582 309.267 44.485ZM369.27 44.1294C374.975 41.0158 380.627 37.8093 386.068 34.7753C389.638 40.7181 393.401 47.0865 397.267 53.396C402.777 62.392 408.516 71.2579 413.85 80.3531C416.463 84.8068 418.508 89.5969 420.583 94.3308C423.97 102.058 423.609 110.03 420.812 117.718C418.897 122.983 415.893 127.87 413.342 132.993C410.998 132.291 409.011 131.696 407.029 131.102C408.452 128.069 410.047 125.321 411.066 122.382C414.77 111.707 414.566 101.172 410.158 90.5888C404.927 78.0281 397.702 66.5851 390.472 55.1192C388.52 52.0237 386.427 49.0082 384.593 45.8478C383.792 44.4675 383.181 44.3285 381.812 45.0799C371.525 50.7298 361.222 56.3531 350.873 61.8942C342.961 66.1308 335.9 71.4368 329.737 77.8509C325.603 82.1533 323.076 87.2687 321.358 93.004C319.913 97.8302 318.627 102.549 319.066 108.054C316.792 107.497 314.915 107.037 313.143 106.603C311.435 94.9236 313.246 84.0813 320.541 74.6475C324.911 68.9955 330.912 65.036 337.159 61.5763C347.814 55.6765 358.578 49.9645 369.27 44.1294ZM465.813 45.9773C470.909 65.8421 475.918 85.3709 480.985 105.119L467.906 105.119C465.682 95.8221 463.485 86.7826 461.364 77.7267C460.208 72.7917 459.144 67.8349 458.109 62.8744C457.713 60.9787 456.874 60.4289 454.888 61.0461C443.469 64.5955 432.021 68.0557 420.574 71.5196C418.872 72.0349 417.012 72.175 415.425 72.9052C412.936 74.05 411.639 72.9493 410.545 71.017C409.144 68.5402 407.749 66.0597 405.87 62.7253C425.945 57.1168 445.65 51.6113 465.813 45.9773ZM441.425 79.6929C434.427 81.9691 427.576 84.6784 420.411 87.2905C418.384 83.6085 416.301 79.8277 414.077 75.7886C428.088 71.5949 441.781 67.4958 455.59 63.3627C458.805 77.0177 462.027 90.7024 465.365 104.882L451.989 104.882C450.772 98.0054 449.566 90.6753 448.157 83.3834C446.958 77.1758 447.478 77.724 441.425 79.6929ZM447.686 105.876C444.617 106.363 441.578 107.031 438.582 107.614C437.952 103.843 437.317 100.043 436.564 95.5328C432.391 97.1409 428.828 98.5133 425.004 99.9854C423.858 96.6229 422.695 93.2115 421.402 89.4159C429.27 86.5369 437.081 83.6785 445.353 80.6524C446.354 86.2646 447.276 91.3658 448.171 96.4711C448.571 98.7531 448.948 101.039 449.28 103.332C449.458 104.56 449.393 105.605 447.686 105.876ZM424.136 117.119C424.469 112.645 424.778 108.305 425.131 103.968C425.174 103.443 425.301 102.628 425.643 102.469C428.6 101.084 431.614 99.8199 435.048 98.3297C435.358 101.82 435.649 104.761 435.852 107.708C435.886 108.207 435.706 108.947 435.347 109.207C431.644 111.889 427.884 114.496 424.136 117.119ZM424.029 117.191C423.931 117.203 423.982 117.213 424.029 117.191V117.191ZM462.868 238.813C465.212 235.299 466.34 231.298 466.227 226.978C466.052 220.222 460.948 216.311 454.107 214.814C448.267 213.541 442.477 214.268 436.722 216.449C435.69 213.095 434.768 210.102 433.767 206.854C439.454 204.338 445.14 202.656 451.471 203.303C458.438 204.02 464.877 205.771 470.623 209.942C476.964 214.544 478.789 220.795 477.806 227.944C477.225 232.174 476.043 236.382 474.608 240.415C472.377 246.688 467.639 251.098 462.124 254.957C459.848 252.558 457.6 250.186 455.448 247.919C457.954 244.884 460.712 242.039 462.868 238.813ZM445.652 242.443C447.338 240.352 449.159 238.33 450.701 236.122C452.402 233.686 453.448 230.868 451.558 228.183C449.762 225.635 446.628 225.736 443.872 225.853C441.464 225.954 439.083 226.697 436.595 227.169C436.786 224.388 436.977 221.602 437.174 218.726C443.053 216.64 449.142 215.419 455.26 217.5C463.78 220.403 465.273 225.29 462.528 234.233C460.974 239.296 457.063 242.697 453.263 246.089C450.673 244.847 448.122 243.626 445.652 242.443ZM433.402 233.479C434.566 231.547 435.76 229.823 438.252 229.547C440.899 229.255 443.569 228.618 446.19 228.777C448.944 228.936 449.911 230.895 449.072 233.415C447.404 238.425 442.604 241.801 437.317 241.907C433.797 241.976 430.282 242.31 427.594 242.474C429.295 239.858 431.444 236.722 433.402 233.479ZM401.574 221.565C397.372 218.322 396.601 213.604 399.236 208.674C401.287 204.837 404.839 202.842 408.847 201.797C410.349 201.404 412.545 201.834 413.83 202.72C416.766 204.736 419.755 206.97 420.229 211.115C419.283 215.929 416.992 219.999 412.309 222.297C408.697 224.07 404.981 224.197 401.574 221.565ZM413.286 246.667C409.798 243.18 405.752 240.155 400.997 238.908C396.505 237.73 391.676 237.783 386.818 237.279C390.712 233.261 394.787 228.989 398.981 224.834C399.424 224.393 400.698 224.303 401.349 224.584C410.637 228.559 422.785 224.064 423.695 210.707C423.996 206.302 421.08 202.635 417.198 200.333C411.841 197.159 404.905 197.924 400.434 201.821C395.864 205.803 393.475 213.413 396.583 219.649C397.194 220.875 397.085 221.671 396.237 222.462C391.978 226.458 387.684 230.412 383.185 234.583C383.185 231.218 383.416 228.199 383.112 225.232C382.87 222.87 382.442 220.312 381.269 218.306C379.174 214.724 376.579 211.396 373.934 208.17C372.935 206.949 372.721 206.222 373.668 205.002C375.716 202.348 377.422 199.406 379.703 196.972C384.618 191.725 390.831 188.436 397.998 187.356C400.681 186.952 403.644 187.432 406.324 188.102C412.016 189.526 417.547 191.528 422.387 194.893C427.544 198.478 430.057 203.898 432.043 209.497C433.231 212.845 434.009 216.364 434.621 219.867C435.339 223.974 433.781 227.71 432.032 231.377C428.733 238.298 423.336 243.175 416.737 247.007C415.295 247.845 414.476 247.856 413.286 246.667ZM404.864 270.793C410.059 266.016 410.802 257.239 406.627 252.319C402.695 247.686 397.241 246.02 391.45 247.405C387.021 248.466 382.913 250.812 378.605 252.606C377.738 251.178 376.658 249.4 375.569 247.612C383.294 238.314 397.526 237.64 405.848 243.849C409.325 246.439 413.224 248.493 414.376 253.009C417.085 263.618 415.789 271.849 407.174 279.385C404.505 281.715 400.656 282.755 397.247 284.437C396.467 283.004 395.952 281.975 395.357 280.993C394.798 280.069 394.155 279.199 393.913 278.844C397.626 276.158 401.575 273.818 404.864 270.793ZM384.571 272.958C388.311 271.148 392.295 269.482 395.99 267.338C398.783 265.719 399.908 262.317 399.06 260.057C397.73 256.506 394.098 254.813 390.303 256.538C387.345 257.881 384.718 259.935 381.98 261.723C381.025 262.349 380.176 263.129 379.047 264.021C379.187 261.245 379.294 258.863 379.444 256.485C379.462 256.193 379.628 255.811 379.857 255.636C385.116 251.587 390.595 248.312 397.795 249.745C408.313 251.836 408.611 263.082 403.654 268.776C400.563 272.327 396.596 274.433 392.324 276.148C391.869 276.328 391.173 276.291 390.727 276.079C388.603 275.07 386.527 273.961 384.571 272.958ZM389.038 259.542C392.275 257.732 395.51 258.13 396.61 260.173C397.638 262.089 396.466 264.637 393.251 266.404C388.125 269.227 382.706 271.281 376.447 271.191C379.806 266.239 383.955 262.376 389.038 259.542ZM364.551 270.511C366.029 268.574 367.625 266.749 368.926 264.737C373.266 258.035 370.483 253.598 364.9 250.345C362.372 248.875 359.202 249.464 356.613 251.104C354.267 252.584 352.055 254.277 349.672 255.954C348.459 254.543 347.314 253.211 346.174 251.884C348.995 246.428 356.797 242.957 364.079 243.769C369.556 244.38 376.084 250.292 376.791 255.583C377.79 263.055 375.78 269.429 368.839 274.073C367.443 272.91 366.03 271.737 364.551 270.511ZM345.942 288.471C348.747 284.618 349.18 280.728 348.058 276.577C347.916 276.047 348.256 275.076 348.703 274.768C354.585 270.676 360.066 269.471 365.492 274.37C369.634 278.106 369.956 284.363 365.929 288.624C364.287 290.36 362.175 291.729 360.093 292.971C359.475 293.337 357.984 293.003 357.315 292.472C353.015 289.081 351.582 288.582 345.942 288.471ZM320.23 296.771C319.337 297.508 318.304 298.082 316.714 299.148C316.779 292.509 318.161 287.064 323.306 283.164C324.059 282.596 325.81 282.129 326.199 282.505C326.964 283.243 327.533 284.66 327.417 285.711C326.89 290.498 323.802 293.825 320.23 296.771ZM320.696 302.508C324.001 297.657 327.59 293.703 333.41 292.456C334.227 292.281 335.154 292.143 335.932 292.345C337.392 292.732 338.492 293.618 337.467 295.253C336.628 296.59 335.712 297.959 334.534 298.994C331.743 301.436 324.897 303.144 320.696 302.508ZM288.577 292.382C293.431 292.95 296.783 296.022 299.784 299.493C300.531 300.353 301.087 301.377 302.09 302.858C295.475 302.8 289.968 301.489 285.98 296.611C285.335 295.821 284.736 293.974 285.11 293.618C285.932 292.838 287.444 292.249 288.577 292.382ZM295.439 286.926C295.232 286.045 295.151 285.095 295.23 284.198C295.387 282.436 296.665 281.693 298.217 282.606C299.648 283.45 301.241 284.4 302.106 285.716C304.661 289.601 306.316 293.847 305.868 299.138C300.891 295.863 296.762 292.536 295.439 286.926ZM266.278 271.387C267.545 271.838 268.927 272.013 270.144 272.555C274.717 274.582 274.339 274.603 274.132 279.406C274.003 282.405 275.16 285.456 275.751 288.534C271.69 288.003 268.088 289.988 264.806 292.844C264.424 293.173 263.556 293.364 263.112 293.173C257.704 290.848 252.7 286.157 254.203 278.992C255.067 274.879 261.993 269.869 266.278 271.387ZM246.384 264.456C245.192 259.404 244.927 254.516 248.458 249.957C256.047 240.161 269.817 242.952 275.898 250.78C276.208 251.178 275.985 252.277 275.63 252.802C274.892 253.9 273.899 254.835 272.876 255.991C270.871 254.511 268.965 252.982 266.931 251.64C262.653 248.806 258.577 249.262 255.086 252.181C250.412 256.082 251.189 261.15 253.485 264.462C254.904 266.515 256.498 268.447 258.051 270.48C256.721 271.605 255.323 272.794 253.704 274.163C250.322 271.631 247.388 268.712 246.384 264.456ZM243.467 267.635C244.411 268.659 245.185 269.832 246.263 271.228C239.296 271.069 233.33 269.052 227.94 265.411C226.364 264.35 225.312 262.763 225.923 260.715C226.577 258.518 228.93 257.7 231.909 258.841C236.621 260.646 240.149 264.037 243.467 267.635ZM230.86 276.408C224.671 273.834 218.556 271.021 216.434 264.053C213.971 255.97 218.707 250.244 226.681 249.443C233.016 248.806 237.964 251.916 242.64 255.556C242.925 255.779 243.142 256.241 243.166 256.602C243.316 258.916 243.402 261.235 243.524 263.862C240.718 261.766 238.311 259.791 235.718 258.093C234.336 257.191 232.687 256.448 231.063 256.172C227.246 255.53 224.799 256.878 223.585 259.866C222.664 262.137 223.76 265.56 226.491 267.232C229.271 268.935 232.356 270.172 235.332 271.562C236.294 272.013 237.33 272.316 238.442 272.725C236.034 273.988 233.809 275.166 231.572 276.323C231.371 276.424 231.053 276.487 230.86 276.408ZM212.987 246.396C219.991 240.755 227.827 238.011 236.669 240.856C240.49 242.082 243.813 244.788 247.462 246.885C245.922 249.464 244.817 251.316 244.023 252.648C239.845 250.897 235.726 248.684 231.321 247.437C223.851 245.324 214.721 250.403 213.726 256.819C212.667 263.655 214.879 269.349 220.554 273.494C223.116 275.367 226.03 276.779 228.846 278.435C227.852 280.107 226.73 281.996 225.602 283.891C213.62 281.789 206.941 271.408 207.146 262.508C207.21 259.728 207.423 256.926 207.888 254.182C208.437 250.945 210.39 248.487 212.987 246.396ZM215.394 223.741C209.541 223.841 202.432 216.794 202.503 210.961C202.549 207.156 208.432 201.511 212.315 201.55C218.282 201.612 225.212 208.451 225.094 214.167C224.996 218.901 220.175 223.656 215.394 223.741ZM188.11 223.619C187.615 220.87 188.137 217.802 188.817 215.027C190.191 209.417 192.285 204.004 195.745 199.278C199.421 194.255 204.942 191.762 210.687 189.859C214.122 188.721 217.71 187.91 221.294 187.347C225.383 186.706 229.16 188.138 232.833 189.807C239.906 193.021 244.907 198.291 248.828 204.757C249.746 206.27 249.696 207.092 248.454 208.371C244.315 212.633 240.675 217.351 239.731 223.295C239.166 226.845 239.627 230.55 239.627 234.779C234.995 230.475 230.71 226.5 226.427 222.52C225.423 221.591 225.559 220.684 226.115 219.468C230.331 210.24 224.286 198.429 211.634 198.15C205.322 198.011 197.4 206.572 199.31 213.912C201.644 222.886 210.623 227.196 217.862 225.641C218.934 225.412 220.079 225.163 220.98 224.6C222.165 223.863 223.037 224.117 223.86 224.961C227.931 229.133 231.977 233.33 236.219 237.714C232.856 237.714 229.811 237.406 226.866 237.804C224.065 238.186 221.116 238.866 218.688 240.208C215.171 242.145 212.091 244.836 208.754 247.107C208.217 247.474 207.128 247.649 206.608 247.362C196.937 242.082 190.079 234.551 188.11 223.619ZM178.874 228.39C181.283 228.735 183.76 229.18 185.964 230.125C187.272 230.688 188.258 232.2 189.131 233.458C191.342 236.637 193.408 239.911 195.071 242.448C191.879 242.294 187.591 242.018 183.298 241.901C179.188 241.785 173.166 235.772 173.28 231.749C173.34 229.621 175.863 227.965 178.874 228.39ZM159.839 233.617C156.959 223.964 160.139 218.365 171.227 216.677C176.257 215.913 180.25 216.82 185.584 218.837C185.584 220.185 185.508 221.597 185.606 222.998C185.705 224.383 185.98 225.757 186.131 226.808C182.646 226.522 179.245 225.986 175.853 226.028C171.162 226.097 168.802 229.557 170.791 233.734C172.294 236.891 174.655 239.656 176.644 242.612C174.483 243.637 171.974 244.825 169.362 246.062C165.35 242.655 161.429 238.945 159.839 233.617ZM145.258 232.004C144.559 228.416 144.848 224.574 145.157 220.885C145.753 213.79 150.882 210.117 156.723 207.13C163.243 203.792 170.237 202.544 177.458 203.452C181.322 203.94 185.06 205.4 188.971 206.456C187.838 210.117 186.91 213.111 186.077 215.801C181.699 215.302 177.458 214.655 173.191 214.379C167.918 214.039 163.336 215.955 159.472 219.399C156.306 222.218 156.335 226.065 156.661 229.785C157.163 235.485 159.765 240.283 163.973 244.242C165.143 245.34 166.325 246.423 167.523 247.537C165.123 250.074 162.883 252.446 160.577 254.882C151.849 249.528 147.125 241.572 145.258 232.004ZM156.758 161.501C156.949 158.414 158.54 156.818 161.728 156.654C169.254 156.267 175.224 159.277 180.022 164.783C184.555 169.985 186.493 176.39 188.671 182.69C189.647 185.515 190.768 188.293 191.95 191.428C183.994 188.237 175.86 185.683 168.446 181.81C160.539 177.678 156.185 170.74 156.758 161.501ZM140.286 167.587C145.043 168.31 149.306 170.023 152.95 173.006C154.648 174.396 155.9 176.308 157.512 178.166C153.027 178.707 149.048 179.452 145.045 179.608C138.954 179.846 132.835 179.875 126.75 179.568C124.585 179.458 122.333 178.363 120.393 177.259C117.808 175.789 118.1 172.788 117.513 170.37C116.816 167.498 116.551 164.525 116.077 161.456C123.664 165.457 132.036 166.334 140.286 167.587ZM116.22 136.141C118.603 143.703 124.583 148.11 130.952 152.111C136.605 155.663 143.008 157.41 149.44 159.024C151.399 159.516 152.449 160.554 152.484 162.708C152.522 165.091 152.935 167.469 153.243 170.415C146.142 164.77 137.666 165.414 129.912 163.556C128.107 163.123 126.253 162.851 124.49 162.294C118.858 160.512 116.162 156.367 115.827 150.86C115.525 145.888 115.764 140.884 115.764 135.904C115.823 135.932 116.172 135.991 116.22 136.141ZM142.994 123.964C149.127 129.595 153.127 136.641 155.182 144.655C155.754 146.888 156.222 149.201 156.293 151.491C156.392 154.655 154.615 156.639 151.441 156.195C146.876 155.558 142.261 154.552 137.964 152.944C130.433 150.125 123.878 145.608 119.849 138.635C117.016 133.734 115.811 128.156 116.222 122.381C116.338 120.733 116.24 119.071 116.24 117.257C126.186 116.455 135.514 117.096 142.994 123.964ZM153.943 117.284C159.258 117.968 161.731 122.074 162.874 126.77C163.874 130.872 164.348 135.094 165.171 139.24C166.121 144.023 166.832 148.909 170.806 153.22C167.193 152.953 164.344 153.04 161.676 152.402C160.58 152.14 159.411 150.44 159.063 149.185C156.796 141.025 154.156 133.065 148.454 126.46C144.813 122.242 140.962 118.276 135.174 116.807C135.225 116.565 135.276 116.323 135.327 116.08C141.537 116.449 147.79 116.491 153.943 117.284ZM179.726 125.744C180.269 131.346 180.383 137.019 180.196 142.648C180.039 147.425 179.217 152.18 178.671 157.1C173.206 154.487 170.172 149.873 168.754 144.363C167.229 138.444 166.48 132.337 165.109 126.375C164.372 123.17 163.041 120.097 161.912 116.773C166.466 117.655 171.165 118.303 175.698 119.538C178.537 120.312 179.494 123.34 179.726 125.744ZM196.707 139.894C197.454 142.353 197.417 144.667 195.804 146.981C192.134 152.241 189.429 157.957 188.449 164.325C188.078 166.735 187.923 169.176 187.642 171.868C183.275 163.651 179.953 155.853 182.159 146.279C183.892 138.761 183.691 130.772 181.505 122.655C188.157 127.436 194.325 132.061 196.707 139.894ZM244.781 134.154C254.592 138.275 262.897 144.057 266.601 154.69C264.122 156.07 261.624 157.46 259.235 158.79C256.339 155.915 253.694 152.702 250.465 150.215C244.818 145.866 238.191 143.452 231.024 142.787C228.168 142.522 225.23 142.573 222.379 142.896C212.83 143.98 208.036 150.518 204.794 158.409C200.58 168.665 200.647 178.953 205.676 189.07C203.056 190.585 200.583 192.015 197.987 193.517C193.947 188.617 191.227 183.238 190.587 176.887C189.829 169.379 190.435 162.073 193.743 155.179C197.033 148.322 201.548 142.278 207.372 137.286C212.04 133.285 218.109 132.675 223.859 132.086C230.881 131.366 238.081 131.34 244.781 134.154ZM237.029 104.512C241.661 108.644 244.343 113.77 244.143 120.16C234.798 115.921 225.059 112.595 216.819 106.402C212.758 103.35 211.822 100.572 213.226 95.6283C213.452 94.8328 213.675 94.033 213.975 93.263C214.939 90.791 215.939 88.3312 217.062 85.5259C222.316 93.5448 230.23 98.449 237.029 104.512ZM237.941 89.4382C240.577 92.9839 243.777 96.1421 246.861 99.347C248.428 100.976 249.209 102.383 247.863 104.588C246.662 106.557 245.907 108.788 244.839 111.163C243.728 109.335 243.019 107.444 241.701 106.144C238.543 103.03 235.083 100.21 231.774 97.2412C228.966 94.7203 225.933 92.3757 223.487 89.5486C221.238 86.9508 219.78 83.8223 220.956 80.1154C222.909 73.9629 226.419 68.641 230.042 62.6945C228.542 73.247 232.196 81.7128 237.941 89.4382ZM261.051 73.6004C261.679 81.0897 260.589 88.1699 257.826 95.0584C256.035 99.5243 252.794 100.471 248.982 97.5017C239.56 90.1637 233.083 80.9337 232.189 68.9122C231.591 60.8795 235.046 53.8933 240.011 47.4156C251.732 52.6568 259.928 60.2177 261.051 73.6004ZM275.561 77.0203C274.465 81.2675 272.657 85.3348 271.375 89.5428C270.172 93.4902 269.167 97.5012 268.26 101.523C268.021 102.58 268.466 103.784 268.625 105.165C265.963 103.307 263.6 101.709 261.298 100.031C259.717 98.8789 260.069 97.3277 260.527 95.7536C262.366 89.4324 263.92 83.0464 263.566 76.4132C263.27 70.8344 262.4 65.3401 259.613 60.3403C258.891 59.0454 257.92 57.8842 257.307 56.2072C260.405 57.9893 263.546 59.7045 266.588 61.5768C268.589 62.8096 270.524 64.1757 272.352 65.6458C276.112 68.667 276.652 72.7938 275.561 77.0203ZM289.868 87.6444C286.098 94.1286 281.781 100.309 277.659 106.595C276.378 108.547 275.017 110.449 273.552 112.579C269.21 105.527 270.321 98.6947 272.891 91.7054C275.044 85.8485 276.881 79.876 278.716 73.913C279.142 72.5274 278.99 70.9703 279.163 68.7419C283.184 72.2806 287.262 75.1761 290.375 78.8544C292.46 81.3169 291.367 85.0674 289.868 87.6444ZM293.784 111.769C285.55 115.884 278.646 121.314 273.906 129.98C273.798 120.484 275.178 112.305 281.663 105.184C287.109 99.2021 291.279 92.1549 293.598 83.8398C296.97 91.7956 300.59 99.3576 297.351 107.858C296.763 109.403 295.285 111.018 293.784 111.769ZM267.425 148.032C263.183 143.05 258.704 138.167 254.663 132.959C248.86 125.48 246.677 117.192 250.574 108.153C253.502 101.363 257.619 101.326 263.66 106.751C271.839 114.096 272.249 123.449 270.382 133.28C269.439 138.237 268.401 143.176 267.425 148.032ZM316.302 109.866C324.87 111.79 332.704 115.451 339.136 121.375C345.209 126.968 349.287 133.906 350.825 141.984C351.507 145.568 351.307 149.311 351.524 153.271C348.398 153.271 345.771 153.381 343.167 153.183C342.623 153.141 341.799 152.006 341.725 151.311C340.399 138.917 333.502 130.033 323.158 123.535C315.251 118.569 307.004 118.721 299.138 123.722C289.712 129.715 283.288 137.876 281.176 148.956C280.346 153.316 280.233 153.296 275.716 153.297C274.357 153.298 272.997 153.297 271.561 153.297C269.944 141.86 273.72 132.456 280.902 124.152C287.918 116.038 297.321 111.915 307.573 109.556C310.319 108.925 313.498 109.236 316.302 109.866ZM343.725 108.861C346.764 112.509 348.238 116.792 348.247 121.593C348.252 124.222 348.756 126.851 349.105 130.155C348.421 129.237 348.078 128.853 347.821 128.42C343.77 121.58 338.126 116.294 330.831 113.03C325.907 110.827 324.222 107.162 324.037 102.367C323.788 95.9282 326.24 90.1733 328.947 84.0617C332.193 93.6435 337.561 101.462 343.725 108.861ZM350.962 95.6066C352.851 101.479 352.296 106.986 348.972 112.826C344.219 105.823 339.689 99.192 335.209 92.5269C332.981 89.2122 331.575 85.5153 331.429 81.5843C331.378 80.1982 332.49 78.4606 333.591 77.403C336.59 74.5207 339.867 71.9144 343.462 68.8331C343.56 78.8151 348.178 86.9556 350.962 95.6066ZM363.201 59.9746C358.273 69.6483 358.051 79.7434 360.582 90.0475C361.135 92.3003 361.977 94.498 362.343 96.7736C362.503 97.766 362.141 99.2865 361.423 99.8846C359.198 101.741 356.688 103.27 353.808 105.257C355.192 100.066 353.587 95.7536 352.035 91.439C350.485 87.1286 348.666 82.8957 347.398 78.5089C345.335 71.3752 347.041 67.2203 353.376 63.2072C357.27 60.7404 361.293 58.469 365.65 56.4943C364.825 57.6502 363.838 58.7264 363.201 59.9746ZM390.621 67.1752C390.8 71.5302 389.094 76.1669 387.383 80.342C384.555 87.2379 379.852 92.9616 373.727 97.4402C369.72 100.372 366.579 99.4913 364.732 94.9448C360.876 85.4553 360.249 75.7774 363.144 65.9206C365.286 58.6288 370.886 54.2266 376.916 50.2357C378.589 49.1287 380.528 48.4074 382.515 47.4246C387.506 53.2867 390.325 60.0001 390.621 67.1752ZM396.722 92.1777C392.741 95.8061 388.353 99.0089 384.414 102.677C381.883 105.034 379.84 107.892 377.542 110.567C376.467 108.217 375.021 105.554 374.097 102.728C373.83 101.908 374.888 100.481 375.64 99.5694C379.425 94.9825 383.622 90.6907 387.073 85.882C390.935 80.5001 392.611 74.1683 393.199 67.6332C393.32 66.2884 392.805 64.8889 392.583 63.5144C392.805 63.412 393.028 63.3096 393.25 63.2066C395.707 67.8195 398.277 72.3783 400.591 77.0591C403.725 83.3957 401.467 87.8535 396.722 92.1777ZM405.356 106.57C399.195 110.212 392.761 113.418 386.381 116.694C383.92 117.958 381.289 118.905 378.475 120.108C378.321 112.575 382.177 107.285 387.604 102.661C392.92 98.1322 398.048 93.3909 403.203 88.6846C404.052 87.9098 404.615 86.8336 405.606 85.4962C406.961 89.1156 408.395 92.4287 409.44 95.855C410.914 100.689 409.877 103.898 405.356 106.57ZM355.205 148.095C354.247 143.292 353.297 138.336 352.263 133.396C350.927 127.022 350.743 120.747 353.285 114.559C355.102 110.137 358.083 106.697 362.227 104.342C366.644 101.832 369.211 102.589 371.515 107.079C374.522 112.939 374.774 119.016 372.39 125.189C369.89 131.663 365.147 136.576 360.618 141.655C358.685 143.823 356.877 146.099 355.205 148.095ZM405.05 185.346C405.445 183.899 405.865 182.413 406.258 180.92C407.671 175.548 407.743 170.159 405.587 165.001C401.987 156.39 395.38 154.68 385.818 157.935C383.297 158.793 380.866 160.202 378.741 161.8C376.673 163.353 375.051 165.474 373.23 167.35C370.536 164.904 368.115 162.707 365.626 160.446C371.941 151.105 380.971 146.342 392.058 145.073C394.541 144.789 397.109 144.901 399.607 145.136C407.173 145.848 411.388 150.74 414.552 156.897C417.857 163.328 419.136 170.161 418.166 177.229C417.656 180.943 416.177 184.531 415.104 188.286C411.455 187.219 408.387 186.323 405.05 185.346ZM379.015 182.126C379.101 180.962 379.55 179.592 380.326 178.755C381.91 177.044 383.649 175.318 385.67 174.2C387.13 173.392 389.748 172.759 390.768 173.492C392.028 174.398 392.713 176.813 392.662 178.549C392.592 180.89 392.121 183.56 390.83 185.431C389.511 187.341 387.019 188.492 384.991 189.908C382.671 191.526 380.297 193.07 378.445 194.312C378.598 190.718 378.699 186.414 379.015 182.126ZM387.808 170.296C385.028 171.537 382.617 173.587 380.098 175.354C379.578 175.718 379.299 176.414 378.802 177.107C377.332 174.378 376.077 172.136 374.935 169.84C374.748 169.465 374.867 168.673 375.163 168.379C378.742 164.818 382.408 161.438 387.377 159.638C395.312 156.764 402.794 160.612 404.373 168.808C405.434 174.318 404.682 179.72 402.553 184.79C399.601 185.013 396.762 185.227 393.941 185.44C394.414 183.23 395.074 181.008 395.312 178.742C395.481 177.126 395.32 175.391 394.891 173.818C393.959 170.4 391.117 168.816 387.808 170.296ZM345.886 189.145C342.445 189.1 338.575 186.267 337.413 182.942C335.672 177.963 337.513 171.222 341.667 167.923C342.546 167.227 343.896 166.489 344.882 166.647C348.016 167.149 351.285 167.64 354.121 168.934C357.396 170.427 356.966 173.894 357.034 176.463C357.035 184.063 352.339 189.228 345.886 189.145ZM370.201 237.719C373.726 231.823 375.123 225.763 371.88 219.219C368.858 213.121 363.137 211.306 356.692 212.729C349.601 214.294 345.79 219.378 342.901 225.381C342.648 225.906 342.405 226.437 342.136 226.957C342.03 227.158 341.868 227.339 341.767 227.477C339.834 226.357 337.946 225.264 336.043 224.16C338.401 211.821 349.621 205.798 357.858 206.089C360.719 206.19 363.597 206.403 366.416 206.864C369.238 207.321 371.812 208.568 373.455 210.972C375.718 214.273 378.503 217.462 379.789 221.13C382.553 229.011 381.363 236.531 375.38 242.92C374.645 243.7 373.915 244.491 373.225 245.234C371.257 244.104 369.434 243.064 367.388 241.891C368.29 240.564 369.324 239.184 370.201 237.719ZM355.078 226.32C356.343 224.638 358.23 223.523 360.396 224.765C362.54 225.996 362.462 228.124 361.687 230.072C359.3 236.074 354.738 240.272 349.3 243.78C349.401 237.311 351.22 231.457 355.078 226.32ZM353.182 224.929C350.861 228.554 349.15 232.55 347.212 236.313C346.206 234.461 345.04 232.359 343.924 230.226C343.756 229.907 343.668 229.414 343.797 229.101C345.768 224.34 348.257 219.962 352.603 216.799C355.647 214.586 363.002 213.822 366.395 216.337C369.907 218.943 372.172 224.457 371.148 229.308C370.229 233.665 367.954 237.337 365.099 240.702C364.811 241.042 364.311 241.376 363.885 241.413C361.527 241.588 359.161 241.673 356.313 241.811C357.88 239.943 359.353 238.388 360.575 236.669C361.827 234.907 363.019 233.055 363.904 231.096C365.444 227.689 364.435 224.362 361.659 222.78C358.934 221.236 355.125 221.894 353.182 224.929ZM338.359 249.554C338.562 246.678 338.876 243.801 338.943 240.914C339.036 236.95 336.714 233.606 333.359 232.556C328.16 230.921 324.538 231.829 321.992 235.819C320.349 238.399 319.187 241.27 317.761 244.104C316.09 243.483 314.298 242.825 312.557 242.183C313.57 233.171 318.537 228.39 325.703 226.177C331.619 224.346 337.5 226.023 341.482 231.006C346.138 236.828 347.325 243.371 343.864 250.403C341.895 250.101 340.145 249.83 338.359 249.554ZM326.284 256.639C325.823 257.048 325.518 257.626 324.768 258.624C324.931 253.635 323.574 249.734 320.745 246.317C320.439 245.951 320.358 245.133 320.551 244.682C321.72 241.933 322.664 239.014 324.331 236.578C326.166 233.893 329.243 233.468 332.536 234.652C335.093 235.57 336.746 238.054 336.708 241.185C336.685 243.09 336.562 245.011 336.275 246.895C336.028 248.519 335.324 249.602 333.526 250.578C330.801 252.054 328.646 254.543 326.284 256.639ZM312.764 276.132C312.588 276.026 312.516 275.707 312.453 275.474C311.158 270.687 317.461 263.31 322.495 263.352C325.795 263.379 329.927 269.848 328.975 273.346C328.561 274.869 328.118 276.381 327.609 277.872C327.184 279.119 326.231 279.523 324.953 280.075C322.562 281.11 320.54 282.972 318.391 284.527C318.144 284.703 318.066 285.106 317.755 285.7C316.564 281.826 316.178 278.201 312.764 276.132ZM309.086 280.457C309.485 279.624 310.578 278.584 311.33 278.599C312.112 278.615 313.19 279.645 313.588 280.483C316.464 286.539 314.117 292.032 311.344 298.119C308.417 291.994 306.173 286.496 309.086 280.457ZM297.615 264.217C298.416 263.581 299.874 263.342 300.951 263.485C306.082 264.154 310.573 269.869 310.167 275.001C310.136 275.394 310.081 275.978 309.825 276.132C306.41 278.207 306.131 281.895 304.941 285.164C302.434 282.93 300.563 279.868 296.632 279.841C296.269 279.836 295.83 279.305 295.561 278.928C292.388 274.455 293.257 267.699 297.615 264.217ZM311.989 244.889C318.879 245.176 324.7 253.943 322.005 260.115C321.722 260.762 320.726 261.267 319.952 261.527C315.63 263.007 313.377 264.881 311.305 269.089C309.458 265.051 306.615 262.546 302.582 261.574C300.953 261.187 300.466 260.296 300.23 258.894C298.971 251.401 304.676 244.587 311.989 244.889ZM286.175 244.719C286.184 243.393 285.967 242.066 285.986 240.744C286.036 237.3 287.956 235.114 291.697 234.132C294.214 233.468 297.599 234.901 299.023 237.459C300.073 239.349 300.878 241.371 301.718 243.361C302.286 244.709 301.944 245.802 301.238 247.219C299.544 250.615 298.45 254.299 297.355 257.223C295.392 255.524 293.144 252.754 290.214 251.273C287.136 249.719 286.153 247.734 286.175 244.719ZM280.208 232.142C283.277 227.254 290.063 224.584 295.726 225.911C304.047 227.859 308.831 233.442 310.164 242.124C308.367 242.803 306.646 243.451 304.847 244.13C303.589 241.562 302.517 238.85 301.009 236.398C298.232 231.882 295.008 230.942 289.426 232.476C285.946 233.437 283.135 237.741 283.578 241.466C283.889 244.093 284.08 246.731 284.341 249.543C282.614 249.804 280.814 250.079 278.787 250.393C275.662 244.072 276.5 238.043 280.208 232.142ZM262.009 232.572C261.346 231.531 260.816 230.327 260.582 229.127C260.23 227.333 260.427 225.221 262.457 224.738C263.818 224.42 265.967 224.924 266.955 225.869C270.814 229.568 271.872 234.673 273.225 239.556C273.619 240.978 273.58 242.517 273.786 244.433C268.644 241.169 264.964 237.199 262.009 232.572ZM261.119 222.647C258.349 224.075 257.289 226.76 258.774 230.974C259.763 233.787 261.993 236.186 263.735 238.722C264.387 239.678 265.229 240.5 266.031 241.44C261.041 242.703 257.489 241.323 254.955 237.327C252.193 232.97 250.471 228.469 251.718 223.178C254.037 213.334 264.765 212.851 270.742 217.372C274.651 220.328 276.848 224.436 278.659 228.788C278.83 229.202 278.894 229.812 278.706 230.178C277.619 232.317 276.441 234.408 275.396 236.324C273.486 232.582 271.801 228.666 269.562 225.083C267.649 222.021 263.846 221.246 261.119 222.647ZM281.726 213.992C284.136 216.725 285.333 220.487 287.114 223.836C284.588 225.301 282.702 226.394 281.354 227.174C278.585 223.523 276.194 219.569 273.025 216.359C267.512 210.76 257.168 210.86 252.657 216.279C248.543 221.22 247.919 226.946 250.104 232.784C251.312 236.01 253.315 238.956 254.964 242.039C253.254 243.026 251.377 244.104 249.499 245.186C239.976 237.465 239.383 223.794 245.546 215.738C248.206 212.262 250.299 208.377 255.019 207.188C265.206 204.619 274.556 205.851 281.726 213.992ZM266.738 182.592C265.97 180.704 265.713 178.616 265.222 176.618C265.577 169.592 271.396 165.057 278.329 166.631C281.625 167.379 282.945 170.192 284.383 172.681C287.344 177.805 286.454 185.651 279.581 188.499C275.017 190.391 268.884 187.862 266.738 182.592ZM325.967 223.364C325.967 219.697 326.268 216.279 325.901 212.93C325.247 206.955 319.889 201.13 314.564 199.681C307.295 197.703 300.362 203.086 297.944 208.674C296.182 212.744 295.931 217.054 296.601 221.421C296.685 221.968 296.612 222.536 296.612 223.205C296.119 223.295 295.952 223.343 295.783 223.348C289.118 223.603 288.756 223.311 288.661 216.661C288.527 207.278 292.63 200.277 301.301 196.144C304.229 194.748 307.45 192.944 310.508 192.998C318.982 193.146 325.695 197.145 330.489 204.073C334.28 209.544 334.727 215.531 333.216 221.772C333.068 222.382 332.307 223.236 331.756 223.295C329.924 223.486 328.057 223.364 325.967 223.364ZM313.493 229.6C313.059 231.192 312.215 232.672 311.332 234.732C308.291 228.241 306.432 222.143 307.551 215.483C307.887 213.482 308.93 211.964 311.151 211.869C313.526 211.773 314.621 213.355 315.087 215.409C316.201 220.307 314.763 224.961 313.493 229.6ZM317.61 221.241C317.686 218.635 317.452 215.95 316.845 213.418C316.293 211.11 313.39 209.284 311.219 209.422C308.483 209.603 306.664 211.184 305.656 213.562C304.23 216.926 304.652 220.387 305.377 223.841C305.697 225.37 305.927 226.909 306.226 228.613C303.954 227.222 301.875 225.97 299.822 224.68C299.493 224.473 299.08 224.112 299.043 223.783C298.349 217.691 297.957 211.672 302.181 206.387C308.137 198.935 317.735 200.585 322.089 208.807C324.585 213.519 324.286 218.619 323.519 223.688C323.451 224.133 322.856 224.579 322.404 224.876C320.503 226.113 318.563 227.296 316.426 228.634C316.852 226.124 317.538 223.688 317.61 221.241ZM327.864 149.079C325.331 142.467 321.139 137.334 314.003 135.072C309.142 133.532 305.297 135.945 301.919 138.719C297.662 142.216 294.884 146.793 293.827 152.257C293.594 153.46 293.132 154.62 292.776 155.8C289.952 155.196 287.338 154.537 284.684 154.111C283.345 153.896 283.029 153.413 283.159 152.144C283.842 145.526 286.178 139.674 290.503 134.426C295.607 128.233 301.707 123.758 309.773 122.302C311.494 121.991 313.494 122.328 315.195 122.873C328.745 127.212 336.331 136.723 339.341 150.058C339.589 151.156 339.374 152.356 339.374 153.727C336.366 154.392 333.243 155.081 329.847 155.832C329.21 153.625 328.71 151.289 327.864 149.079ZM317.715 164.214C317.74 165.794 316.063 167.376 315.238 168.996C313.796 171.826 312.416 174.686 311.413 176.716C309.571 173.338 307.214 169.215 305.1 164.976C304.652 164.078 304.782 162.633 305.182 161.65C306.319 158.86 307.507 156.04 309.12 153.504C310.142 151.897 311.983 152.042 313.484 153.386C316.735 156.298 317.651 160.231 317.715 164.214ZM316.349 152.385C313.497 147.887 309.073 147.904 306.217 152.44C304.521 155.133 303.458 158.21 302.105 161.128C300.254 159.97 298.051 158.629 295.901 157.209C295.559 156.983 295.21 156.36 295.284 156.003C296.633 149.424 298.943 143.328 304.923 139.343C310.927 135.343 314.755 136.31 320.7 141.819C324.692 145.517 326.281 150.655 327.362 155.845C327.447 156.252 327.068 156.96 326.687 157.216C324.596 158.619 322.437 159.925 320.574 161.093C319.169 158.143 318.059 155.082 316.349 152.385ZM230.314 181.48C229.913 179.692 229.973 177.715 230.26 175.888C230.686 173.181 232.507 172.304 235.103 173.246C238.426 174.453 240.922 176.696 242.815 179.538C243.37 180.37 243.495 181.559 243.567 182.601C243.866 186.88 244.068 191.166 244.244 194.344C241.833 192.788 238.79 190.36 235.351 188.739C232.017 187.168 230.983 184.463 230.314 181.48ZM240.533 159.657C235.979 156.704 230.758 155.777 225.402 156.831C220.204 157.855 215.583 164.922 215.522 171.472C215.5 173.807 215.421 176.173 215.757 178.47C216.092 180.748 216.916 182.956 217.558 185.316C214.366 186.27 211.319 187.18 207.988 188.176C205.315 183.233 203.811 177.964 204.151 172.447C204.483 167.07 205.381 161.756 208.07 156.815C211.539 150.443 215.92 145.554 223.854 145.03C237.784 144.11 248.77 149.234 257.066 160.353C254.539 162.664 252.132 164.865 249.841 166.961C246.745 164.5 243.83 161.795 240.533 159.657ZM227.541 174.985C227.409 176.785 227.345 178.619 227.556 180.402C227.756 182.098 228.355 183.748 228.827 185.614C227.369 185.388 225.989 185.088 224.593 184.983C223.159 184.876 221.709 184.96 220.101 184.96C217.828 179.04 216.798 172.994 218.871 166.791C221.076 160.193 225.504 157.789 233.075 159.205C237.408 160.015 241.161 162.142 244.276 165.251C245.521 166.494 246.728 167.775 247.983 169.07C246.675 171.666 245.448 174.106 244.139 176.706C242.738 175.426 241.413 173.937 239.812 172.831C238.236 171.742 236.459 170.808 234.631 170.22C230.749 168.97 227.835 170.988 227.541 174.985ZM262.473 203.993C259.493 204.402 256.515 204.848 253.521 205.102C252.883 205.155 251.883 204.635 251.546 204.089C246.417 195.75 244.355 186.755 246.834 177.244C247.64 174.154 249.642 171.146 251.777 168.662C254.272 165.761 257.394 163.329 260.453 160.95C267.232 155.676 275.02 154.432 283.325 156.206C287.197 157.033 291.07 158.047 294.767 159.426C299.053 161.023 301.63 164.535 304.274 168.127C308.984 174.526 309.477 181.844 310.092 189.208C310.129 189.65 309.512 190.46 309.057 190.579C298.594 193.315 290.375 198.555 286.63 209.375C284.898 203.654 283.11 197.942 281.508 192.184C281.333 191.552 282.018 190.39 282.649 189.892C288.182 185.524 290.033 179.9 288.644 173.218C287.597 168.178 281.686 163.599 276.59 163.028C272.665 162.588 269.409 163.702 266.431 165.868C261.205 169.668 260.063 179.054 264.039 184.412C266.845 188.196 270.28 191.014 275.262 191.443C277.299 191.618 277.973 192.746 278.368 194.635C279.354 199.347 280.641 203.998 281.798 208.679C281.913 209.146 281.961 209.624 282.122 210.585C280.184 209.327 278.618 208.292 277.036 207.278C272.595 204.434 267.756 203.277 262.473 203.993ZM261.444 269.089C260.798 269.158 259.818 268.85 259.454 268.373C257.784 266.202 256.054 264.026 254.768 261.633C253.182 258.682 253.805 256.257 256.167 253.98C258.385 251.841 260.915 251.247 263.81 252.738C266.256 253.996 268.469 255.71 270.707 257.324C271.175 257.663 271.641 258.512 271.539 259.011C270.623 263.57 271.953 267.656 274.064 271.679C270.052 269.429 265.909 268.612 261.444 269.089ZM279.198 272.204C278.657 272.358 277.641 272.035 277.298 271.594C273.456 266.659 271.747 260.502 276.642 255.259C280.606 251.013 287.235 250.7 291.615 254.819C293.243 256.352 294.554 258.268 295.707 260.184C296.099 260.837 295.915 262.328 295.389 262.917C292.586 266.054 290.824 269.503 291.356 274.285C287.241 271.531 283.372 270.994 279.198 272.204ZM348.403 265.969C348.01 266.977 347.573 267.969 347.083 268.93C345.249 272.539 345.247 272.486 341.112 271.732C337.679 271.101 334.586 272.146 331.166 274.28C331.876 269.386 329.962 265.9 327.064 262.758C326.697 262.365 326.384 261.622 326.499 261.145C328.045 254.675 335.985 250.35 342.273 252.558C346.08 253.901 350.809 259.813 348.403 265.969ZM348.745 271.461C350.872 267.449 351.779 263.4 351.104 259.016C351.022 258.486 351.455 257.642 351.92 257.313C354.238 255.657 356.528 253.906 359.055 252.606C361.764 251.22 364.573 251.974 366.664 254.166C368.709 256.31 369.466 258.815 367.976 261.458C366.636 263.83 364.951 266.027 363.32 268.235C362.966 268.712 362.14 269.227 361.616 269.153C357.086 268.511 352.875 269.376 348.745 271.461ZM341.269 210.192C341.158 210.287 340.945 210.266 340.358 210.393C341.816 204.481 343.122 198.834 344.687 193.255C344.903 192.485 346.34 191.691 347.316 191.535C354.323 190.423 358.924 186.407 360.459 179.87C362.051 173.087 359.355 165.667 351.281 163.421C340.334 160.377 332.188 170.311 333.682 179.426C334.418 183.914 336.718 187.255 340.181 190.054C340.718 190.488 341.393 191.405 341.254 191.893C339.602 197.699 337.807 203.462 336.026 209.321C334.243 206.27 332.824 203.245 330.861 200.608C326.749 195.084 320.499 192.77 314.189 190.63C313.533 190.408 312.489 189.699 312.534 189.32C313.095 184.637 313.128 179.742 314.646 175.348C318.716 163.562 327.42 156.965 340.194 156.077C344.366 155.787 348.776 155.593 352.746 156.602C356.633 157.591 360.381 159.789 363.683 162.139C368.074 165.267 372.271 168.858 374.456 173.949C375.522 176.432 376.318 179.123 376.657 181.79C377.676 189.819 375.176 197.12 371.14 203.977C370.798 204.561 369.614 205.171 369.01 205.028C358.935 202.592 349.486 203.139 341.269 210.192ZM420.373 142.366C425.723 148.853 430.3 155.695 431.695 164.085C433.471 174.76 432.13 184.797 424.615 193.516C422.1 192.052 419.565 190.578 417.688 189.485C418.823 183.932 420.707 178.77 420.755 173.592C420.836 164.661 418.411 156.252 412.247 149.146C407.228 143.358 400.623 142.325 393.569 142.522C387.248 142.699 381.179 144.515 375.963 147.807C371.337 150.728 367.456 154.783 362.985 158.558C361.109 157.52 358.538 156.097 355.994 154.689C360.543 140.662 378.373 131.243 390.742 131.91C395.061 132.142 399.372 132.532 403.68 132.925C410.709 133.566 416.004 137.069 420.373 142.366ZM440.011 142.794C440.19 146.502 440.966 150.179 441.311 153.885C441.628 157.29 440.668 160.421 439.014 163.449C437.58 166.075 436.512 168.893 435.043 172.157C434.697 169.136 434.488 166.596 434.102 164.081C433.216 158.312 431.008 153.001 427.538 148.302C424.912 144.745 425.069 141.161 426.729 137.498C429.663 131.02 435.19 126.897 441.159 122.594C439.159 129.675 439.695 136.256 440.011 142.794ZM454.825 140.567C454.073 145.491 452.083 149.82 448.834 153.549C447.55 155.023 445.737 156.056 443.536 157.784C443.005 148.48 442.289 139.964 442.157 131.441C442.111 128.415 443.393 125.342 444.25 122.342C444.763 120.546 446.081 119.552 448.099 119.218C452.334 118.516 456.53 117.588 461.135 116.676C457.012 124.447 456.049 132.549 454.825 140.567ZM464.762 145.044C462.528 152.338 462.458 152.316 454.708 153.004C453.988 153.068 453.269 153.152 452.045 153.279C458.177 145.307 457.225 135.897 459.531 127.342C461.411 120.362 464.376 117.624 471.545 116.698C472.865 116.527 474.202 116.429 475.533 116.417C479.44 116.38 483.348 116.404 487.561 116.404C474.523 122.1 468.539 132.714 464.762 145.044ZM496.861 162.618C493.203 163.592 489.412 164.103 485.667 164.738C480.08 165.685 474.385 166.277 469.453 170.43C469.746 166.98 469.758 164.032 470.374 161.212C470.573 160.306 472.273 159.391 473.454 159.068C481.834 156.774 490.087 154.238 496.856 148.56C501.068 145.027 505.151 141.355 506.542 135.71C506.838 135.755 507.133 135.801 507.428 135.847C507.054 141.509 506.72 147.175 506.296 152.834C505.868 158.567 501.928 161.269 496.861 162.618ZM481.752 180.004C476.373 179.836 471.021 178.85 465.489 178.202C468.209 172.82 472.997 169.872 478.736 168.424C483.406 167.245 488.258 166.769 492.965 165.71C497.543 164.682 502.04 163.309 506.627 162.074C505.791 166.249 505.342 170.945 503.753 175.237C503.095 177.015 500.125 178.759 497.985 179.073C492.64 179.858 487.157 180.172 481.752 180.004ZM440.166 187.761C437.062 188.807 433.982 189.918 430.835 191.021C433.174 184.816 435.347 178.619 437.841 172.548C441.178 164.42 447.056 158.837 455.925 156.813C457.924 156.356 460.173 156.639 462.257 156.93C464.712 157.272 465.767 159.073 465.943 161.37C466.527 168.959 463.275 174.885 457.514 179.658C452.466 183.841 446.265 185.702 440.166 187.761ZM500.628 181.118C495.688 187.445 491.096 193.658 482.964 195.864C480.405 196.559 478.128 196.546 475.765 194.943C468.174 189.789 459.713 187.117 449.96 187.242C458.547 182.889 466.491 179.363 476.376 181.561C484.074 183.272 492.236 182.898 500.628 181.118ZM505.97 117.07C507.243 125.339 506.457 133.134 501.979 139.928C497.885 146.138 491.719 150.397 484.636 152.97C480.465 154.485 476.052 155.61 471.648 156.192C467.856 156.694 466.019 154.744 466.313 150.945C466.933 142.952 470.141 135.856 474.806 129.323C481.417 120.064 490.668 116.515 501.89 117.061C503.237 117.127 504.591 117.07 505.97 117.07ZM369.331 135.535C374.718 128.902 378.168 121.371 387.157 118.781C394.072 116.79 405.184 110.888 410.178 105.391C409.791 113.472 408.705 117.697 405.496 123.258C403.121 127.373 399.998 129.904 394.652 129.616C385.894 129.142 380.875 129.758 369.331 135.535ZM227.243 129.617C223.143 129.779 220.468 128.007 218.243 124.982C214.014 119.229 212.914 112.592 212.301 105.336C219.42 111.98 227.603 115.792 236.084 119.075C241.028 120.988 245.283 123.571 247.959 128.339C249.318 130.763 251.258 132.875 252.679 134.784C248.244 133.327 243.654 131.425 238.87 130.373C235.118 129.548 231.112 129.464 227.243 129.617ZM147.779 181.53C152.364 180.94 156.863 180.112 161.274 181.938C164.94 183.454 168.504 185.21 171.442 186.553C166.369 187.769 160.673 188.919 155.129 190.56C152.585 191.313 150.156 192.787 147.998 194.36C143.76 197.447 139.791 196.357 135.646 194.31C129.718 191.382 126.108 186.227 121.977 181.167C130.753 182.917 139.296 182.621 147.779 181.53ZM131.801 235.575C130.24 227.408 131.465 219.32 133.974 211.465C134.616 209.454 135.758 207.379 137.248 205.882C144.649 198.457 152.953 192.239 163.685 190.342C173.458 188.614 182.983 189.218 191.47 195.127C192.366 195.751 193.306 196.316 194.383 197.009C192.788 199.649 191.326 202.072 190.072 204.147C185.658 203.118 181.514 201.918 177.284 201.213C171.405 200.233 165.652 201.366 160.063 203.155C155.485 204.614 151.517 207.098 147.912 210.271C144.354 213.403 142.949 217.415 142.554 221.793C141.258 236.106 146.567 247.601 158.32 256.225C158.52 256.374 158.698 256.549 159.013 256.819C157.565 259.335 156.118 261.85 154.605 264.477C141.298 259.064 134.346 248.901 131.801 235.575ZM117.271 232.359C114.823 224.685 110.646 217.579 104.345 211.274C109.932 211.598 114.945 212.24 119.649 214.368C121.261 215.095 122.814 215.992 124.283 216.969C127.507 219.118 129.402 221.899 129.099 225.991C128.449 234.769 130.091 243.079 134.877 250.753C127.517 245.982 120.202 241.54 117.271 232.359ZM83.7705 215.706C88.8005 214.039 93.3265 211.922 98.0698 211.189C101.144 210.717 103.712 213.477 105.629 216.03C110.246 222.17 113.649 228.942 116.478 236.021C117.306 238.091 118.392 240.065 119.502 242.379C110.789 242.474 105.08 237.879 100.178 231.733C95.526 225.906 90.8386 220.074 83.7705 215.706ZM98.3484 245.208C93.3644 241.089 88.4916 236.764 83.1038 233.208C78.0142 229.849 72.0193 228.305 65.8077 228.055C64.4201 228.002 63.0108 228.363 60.9673 228.618C62.008 227.87 62.5663 227.36 63.2168 227.026C67.5584 224.77 71.8458 222.414 76.2851 220.365C81.8138 217.823 86.4535 219.904 90.2586 223.873C94.2642 228.055 97.7955 232.672 101.827 236.828C104.166 239.237 107.082 241.111 109.781 243.26C107.786 244.104 105.431 244.884 103.31 246.067C101.242 247.219 99.9484 246.529 98.3484 245.208ZM62.0785 256.66C55.623 254.367 51.6553 249.172 47.9912 243.833C46.8638 242.193 46.1429 240.288 45.1238 238.293C51.9209 233.341 59.2328 230.109 67.618 230.603C71.2388 230.815 74.9083 232.089 78.3285 233.426C85.3315 236.164 91.1475 240.638 95.8046 246.439C99.4579 250.987 98.6557 253.911 93.191 255.991C82.9249 259.892 72.4855 260.364 62.0785 256.66ZM88.5241 268.84C84.8654 270.167 81.2284 271.594 77.483 272.65C67.5964 275.447 64.7074 271.822 60.6205 265.942C58.2464 262.514 56.2517 258.836 54.4359 254.861C55.3573 255.556 56.1975 256.405 57.2111 256.925C64.5448 260.688 72.3608 262.238 80.5671 261.06C85.4996 260.354 90.3616 259.176 95.2529 258.199C96.8627 257.875 98.1028 258.056 99.124 259.637C100.559 261.85 102.317 263.872 104.333 266.489C98.3522 265.098 93.462 267.057 88.5241 268.84ZM284.345 290.572C283.694 290.8 282.644 290.487 281.999 290.084C277.537 287.303 275.468 282.808 276.869 277.931C277.284 276.487 278.964 274.8 280.426 274.349C285.223 272.868 290.778 275.447 293.196 279.809C293.431 280.229 293.753 280.876 293.588 281.2C291.84 284.681 293.28 287.956 294.29 291.506C290.845 290.413 287.736 289.394 284.345 290.572ZM328.258 291.559C329.485 288.094 330.491 284.878 329.15 281.449C328.971 280.993 329.143 280.218 329.452 279.799C332.825 275.251 336.649 272.767 342.486 274.428C343.863 274.816 345.424 276.53 345.82 277.931C347.206 282.813 344.868 287.765 340.389 290.264C339.794 290.593 338.86 290.758 338.237 290.551C334.855 289.436 331.731 290.37 328.258 291.559ZM490.309 217.935C492.139 227.631 492.117 237.215 487.444 246.216C483.187 254.41 477.517 261.346 467.921 264.302C466.51 261.866 465.056 259.351 463.835 257.239C467.049 253.964 470.417 251.098 473.071 247.697C477.099 242.538 479.395 236.509 480.039 230.014C480.331 227.073 480.263 224.059 480.02 221.103C479.353 212.994 473.719 208.541 467.102 204.98C461.705 202.072 455.696 201.237 449.689 200.843C444.35 200.494 439.275 202.056 434.347 203.983C433.888 204.163 433.428 204.338 432.826 204.572C431.279 202.019 429.781 199.548 428.295 197.096C440.432 186.866 460.392 187.423 473.154 196.103C476.837 198.608 480.342 201.384 483.771 204.221C488.065 207.766 489.342 212.808 490.309 217.935ZM503.91 235.48C502.206 239.731 499.673 243.398 495.377 245.76C492.748 247.203 490.428 249.188 487.791 251.056C489.258 247.596 490.761 244.401 491.979 241.1C493.775 236.233 493.98 231.117 493.578 226.044C493.194 221.215 495.826 218.434 499.563 216.136C503.674 213.604 508.203 212.32 512.979 211.747C514.8 211.529 516.618 211.285 518.489 211.046C511.532 218.025 507.469 226.591 503.91 235.48ZM521.347 233.054C517.966 237.29 513.717 240.145 508.652 241.869C507.019 242.427 505.139 242.289 503.372 242.469C503.154 242.273 502.936 242.076 502.718 241.88C507.344 233.415 511.845 224.882 516.689 216.539C517.797 214.634 519.993 213.259 521.866 211.869C523.375 210.749 525.125 211.046 526.884 211.683C530.669 213.058 534.508 214.284 538.779 215.722C531.285 220.413 526.345 226.787 521.347 233.054ZM530.406 239.497C528.204 241.456 526.048 243.472 523.904 245.489C522.604 246.715 521.368 247.139 519.582 246.179C517.372 244.99 514.964 244.157 512.002 242.894C520.418 239.853 524.012 232.625 529.337 227.148C531.206 225.227 532.984 223.157 535.11 221.544C539.106 218.513 543.564 218.795 547.861 220.87C552.405 223.072 556.802 225.561 561.513 228.055C558.009 228.262 554.873 228.151 551.856 228.687C543.62 230.141 536.567 234.02 530.406 239.497ZM543.146 258.921C538.153 258.576 533.18 256.995 528.359 255.482C524.589 254.304 523.441 251.104 525.649 248.174C533.555 237.672 543.844 230.757 557.532 230.619C564.897 230.539 571.502 233.739 577.321 238.213C570.434 254.139 559.965 260.073 543.146 258.921ZM518.365 266.521C520.401 263.724 521.859 261.256 523.814 259.255C524.604 258.443 526.535 258.274 527.852 258.459C534.125 259.34 540.344 261.107 546.621 261.293C554.186 261.516 561.704 260.189 567.83 255.047C567.928 254.962 568.141 255.015 569.06 254.946C565.575 260.126 562.51 265.045 559.064 269.689C556.185 273.574 551.85 274.349 547.375 273.186C542.871 272.013 538.497 270.358 534.095 268.835C529.136 267.115 524.263 265.013 518.365 266.521ZM472.766 107.75C484.161 107.989 495.559 108.159 506.956 108.227C509.981 108.246 513.008 107.81 515.876 107.595L515.876 138.889C515.875 142.235 515.813 145.582 515.893 148.927C515.948 151.247 516.308 153.562 516.334 155.881C516.385 160.195 516.501 164.525 516.195 168.821C515.948 172.278 515.181 175.705 514.535 179.125C513.361 185.339 509.559 190.118 505.628 194.885C501.164 200.296 494.494 202.401 489.167 206.005C487.57 204.588 486.06 203.25 484.405 201.78C487.239 199.843 490.153 198.275 492.543 196.143C500.873 188.714 506.213 179.803 507.943 168.578C509.335 159.544 509.231 150.522 509.448 141.5C509.646 133.278 508.905 125.036 508.65 116.8C508.608 115.42 508.188 114.876 506.727 114.863C504.527 114.844 502.33 114.52 500.13 114.484C490.343 114.325 480.552 114.024 470.767 114.15C460.131 114.287 449.475 115.08 439.748 119.75C436.113 121.495 433.108 124.519 429.868 127.024C428.35 128.197 426.758 129.365 425.555 130.818C423.587 133.192 421.908 135.797 419.881 138.621C418.418 136.978 417.077 135.472 415.64 133.859C419.223 128.64 421.643 122.234 427.041 117.619C433.986 111.679 441.843 108.319 451.009 107.779C455.4 107.521 459.788 107.067 464.181 107.014C467.039 106.979 469.899 107.69 472.766 107.75ZM540.683 191.06C542.343 186.621 543.907 182.147 545.524 177.692C546.186 175.866 545.694 174.978 543.592 174.646C539.417 173.986 535.3 172.978 531.13 172.279C526.968 171.58 522.771 171.083 518.396 170.47C518.594 166.111 518.79 161.816 518.997 157.29C533.113 160.479 547.096 163.638 561.196 166.824C556.999 180.263 552.8 193.713 548.508 207.453C544.507 205.357 540.692 203.362 536.673 201.254C538.028 197.823 539.412 194.462 540.683 191.06ZM506.25 197.683C508.001 195.531 510.475 193.542 511.516 190.991C513.73 185.567 517.825 185.826 522.366 186.535C523.202 186.665 524.034 186.818 525.43 187.056C524.014 190.168 522.691 193.173 521.245 196.12C521.075 196.467 520.239 196.612 519.695 196.657C515.252 197.022 510.806 197.341 506.25 197.683ZM523.664 196.781C524.609 194.707 525.538 192.611 526.514 190.538C528.615 186.075 528.42 185.541 523.586 184.578C521.112 184.086 518.564 183.953 515.99 183.651C516.637 180.527 517.185 177.457 517.97 174.445C518.131 173.823 519.255 172.908 519.794 172.992C527.404 174.185 534.989 175.524 542.578 176.843C542.712 176.866 542.812 177.069 543.275 177.545C540.451 184.954 537.55 192.563 534.61 200.278C530.752 199.045 527.374 197.966 523.664 196.781ZM578.89 156.909C573.212 176.444 567.589 195.789 561.845 215.557C558.315 213.599 555.514 212.065 552.736 210.5C551.175 209.613 550.646 208.552 551.267 206.615C555.367 193.851 559.313 181.04 563.29 168.239C564.277 165.062 564.089 164.913 560.772 164.186C551.835 162.224 542.915 160.194 533.99 158.184C529.523 157.178 525.071 156.11 520.59 155.168C519.257 154.887 518.441 154.497 518.476 152.966C518.551 149.648 518.499 146.328 518.499 142.411C539.008 146.157 558.556 151.98 578.89 156.909ZM621.202 305.941C611.552 296.749 602.069 287.388 592.405 278.207C587.698 273.738 582.78 269.471 577.829 265.263C576.592 264.207 576.701 263.458 577.356 262.302C579.131 259.17 580.774 255.97 582.606 252.871C586.138 246.901 588.848 240.431 593.824 235.326C595.001 234.116 594.195 233.251 592.8 232.752C582.538 229.09 574.025 222.377 564.645 217.171C564.178 216.916 563.808 215.785 563.977 215.234C566.999 205.368 570.227 195.559 573.17 185.671C575.97 176.265 578.484 166.779 581.146 157.334C581.532 155.962 581.274 155.153 579.699 154.772C575.582 153.776 571.5 152.645 567.399 151.587C560.002 149.68 552.631 147.661 545.192 145.923C536.865 143.976 528.478 142.272 520.106 140.509C518.648 140.202 518.206 139.434 518.229 138.049C518.289 134.369 518.183 130.685 518.246 127.005C518.359 120.394 518.411 113.777 518.785 107.179C518.906 105.046 518.365 104.7 516.425 104.936C513.061 105.347 509.674 105.791 506.294 105.808C500.009 105.838 493.722 105.534 487.435 105.438C483.189 105.373 483.249 105.411 482.262 101.365C479.801 91.2824 477.338 81.1991 474.765 71.1433C472.582 62.6117 470.228 54.1215 467.991 45.6032C467.622 44.2 467.089 43.2681 465.388 43.7707C463.195 44.4187 461.003 45.0741 458.796 45.6759C450.208 48.0206 441.592 50.2718 433.028 52.6966C424.222 55.1888 415.439 57.7675 406.707 60.4963C405.221 60.9607 404.551 60.8487 403.854 59.6047C398.711 50.4305 391.811 42.2189 388.218 32.1913C387.7 30.7446 386.684 30.5042 385.447 31.5337C384.931 31.9625 384.447 32.455 383.869 32.7857C375.138 37.7828 366.409 42.7852 357.612 47.6698C357.087 47.9617 355.712 47.5249 355.206 46.9942C351.193 42.7915 347.426 38.358 343.335 34.2324C333.543 24.357 323.611 14.6155 313.745 4.81124C311.302 2.38327 311.326 2.3769 308.78 4.90942C299.814 13.8258 290.786 22.6848 281.892 31.6691C277.09 36.5213 272.401 41.4929 267.899 46.611C266.581 48.1087 265.673 48.3437 264.145 47.3301C263.59 46.9623 262.939 46.7357 262.364 46.394C253.939 41.3862 244.53 37.9818 237.035 31.4504C235.805 30.3784 234.861 30.9139 234.342 32.3335C230.666 42.4169 223.775 50.734 218.465 59.9194C218.188 60.3987 217.045 60.8222 216.49 60.6609C205.99 57.6136 195.549 54.3704 185.031 51.3879C176.473 48.961 167.825 46.8397 159.226 44.5519C155.259 43.4963 155.338 43.4788 154.342 47.2128C151.62 57.4129 148.705 67.5658 146.113 77.7973C143.932 86.4037 142.131 95.1019 140.044 103.732C139.881 104.406 138.81 105.316 138.121 105.35C133.456 105.586 128.776 105.771 124.107 105.675C118.007 105.549 111.912 105.161 105.816 104.859C104.19 104.778 103.319 105.188 103.835 107.018C104.149 108.13 104.415 109.299 104.421 110.443C104.467 119.789 104.419 129.135 104.478 138.481C104.487 139.984 103.616 140.263 102.462 140.496C95.7299 141.862 88.9469 143.026 82.28 144.667C69.2712 147.874 56.3438 151.395 43.3514 154.67C41.3675 155.169 41.1454 156.032 41.6332 157.701C43.6062 164.405 45.4708 171.138 47.4546 177.838C51.1187 190.204 54.8587 202.55 58.4794 214.926C58.68 215.61 58.3115 216.964 57.7748 217.266C48.4899 222.467 40.0234 229.101 29.8549 232.763C27.8331 233.49 27.8982 234.371 29.2153 235.857C30.8739 237.735 32.5163 239.699 33.7738 241.848C37.3729 247.994 40.8201 254.235 44.2349 260.487C46.1537 264.005 46.0616 264.048 42.8202 266.616C42.4896 266.882 42.1969 267.195 41.8934 267.481C34.473 274.497 27.0417 281.492 19.6431 288.524C13.4693 294.398 7.37694 300.348 1.1707 306.185C0.384752 306.918 -0.00550676 307.533 -7.46585e-05 308.154L3.62609 308.154C3.62071 307.215 4.59093 306.27 6.54766 304.354C14.4559 296.627 22.261 288.789 30.2831 281.173C35.7142 276.02 41.4435 271.175 47.3949 265.868C49.3463 269.392 51.1458 272.502 52.7827 275.696C53.0483 276.222 52.8694 277.379 52.4412 277.777C45.6333 284.06 38.7551 290.27 31.8929 296.495C28.3318 299.732 24.8032 303.006 21.1879 306.185C20.3802 306.891 19.9682 307.517 19.9737 308.154L22.7923 308.154L22.7869 308.149C33.3239 298.506 43.7905 288.916 54.4739 279.135C56.8371 282.861 59.1786 286.56 61.5365 290.28C56.4577 294.377 51.4114 298.432 46.3868 302.508C44.8204 303.781 43.2485 305.06 41.785 306.445C41.1779 307.019 40.8852 307.586 40.8906 308.154L43.4544 308.154C45.2865 306.498 46.9342 304.89 48.7175 303.436C52.6418 300.241 56.6528 297.148 60.5988 293.979C62.1219 292.753 63.2656 291.957 64.8104 294.25C66.3443 296.516 68.5287 298.363 70.4908 300.464C67.9487 302.455 65.515 304.402 63.0325 306.286C62.1706 306.939 61.7749 307.549 61.7858 308.154L63.916 308.154C66.9134 306.053 69.423 304.259 71.9814 302.534C72.3174 302.306 72.9895 302.237 73.3581 302.401C77.7052 304.36 82.0251 306.376 85.8465 308.144L85.814 308.154L108.226 308.154C108.262 305.612 108.774 303.086 109.588 300.517C111.92 293.167 115.45 286.496 120.688 280.791C124.673 276.445 129.842 273.669 135.205 271.228C140.908 268.638 146.914 268.803 153.119 269.116L153.119 277.772C150.262 278.44 147.257 278.928 144.402 279.857C131.039 284.188 122.329 292.955 119.143 306.456C119.009 307.029 118.93 307.592 118.893 308.154L121.504 308.154C121.466 304.222 123.084 300.703 125.213 297.36C130.689 288.768 138.388 282.893 148.839 281.03C150.326 280.765 151.829 280.584 153.588 280.329C154.363 283.662 155.072 286.719 155.837 290.01C154.391 290.392 152.938 290.79 151.48 291.161C144.969 292.838 139.581 296.075 136.253 301.987C135.044 304.132 134.391 306.18 134.291 308.154L136.58 308.154C136.525 304.944 138.433 301.982 141.762 298.761C145.562 295.083 150.536 293.512 155.668 292.52C156.184 292.419 157.064 292.913 157.411 293.385C158.834 295.333 160.117 297.381 161.245 299.079C158.178 300.464 154.943 301.542 152.136 303.282C149.977 304.625 148.9 306.387 148.902 308.154L152.274 308.154C152.321 307.385 152.737 306.573 153.497 305.809C156.505 302.794 160.445 301.849 164.433 301.887C166.221 301.908 167.962 303.696 169.777 304.583C172.479 305.899 175.227 307.119 177.257 308.059C177.196 308.091 177.131 308.122 177.069 308.154L193.834 308.154C193.849 301.16 197.456 295.38 202.788 290.944C208.482 286.199 215.277 284.862 222.679 286.512C224.271 286.868 224.875 287.367 224.761 288.927C224.653 290.413 224.738 291.909 224.738 293.502C221.914 293.502 219.463 293.448 217.014 293.507C208.362 293.714 202.501 298.867 200.565 305.103C200.247 306.127 200.105 307.151 200.104 308.154L202.595 308.154C202.602 304.031 205.228 300.04 209.442 297.795C214.376 295.173 219.75 295.386 225.111 296.176C225.517 296.235 225.944 296.707 226.203 297.089C227.511 299.021 228.766 300.985 230.166 303.129C227.499 302.704 224.971 302.025 222.427 301.961C219.767 301.897 217.015 302.131 214.446 302.778C212.166 303.351 210.57 305.984 210.603 308.154L213.136 308.154L213.135 308.144C213.129 307.029 214.45 305.506 215.597 304.901C216.929 304.195 218.715 304.025 220.284 304.089C225.581 304.312 230.686 305.464 235.486 307.74C235.572 307.783 235.624 307.905 235.727 308.154L246.694 308.154C246.689 307.915 246.687 307.677 246.696 307.433C246.878 302.433 251.758 297.853 256.846 297.615C257.768 297.572 258.681 297.307 259.603 297.28C261.502 297.227 263.182 297.333 263.813 299.732C264.83 303.617 267.345 306.419 271.494 308.133L271.442 308.154L281.131 308.154L281.126 308.117C281.149 307.342 282.231 306.281 283.104 305.899C289.279 303.192 294.874 305.257 300.992 308.154L321.684 308.154C321.634 308.133 321.584 308.107 321.533 308.085C327.596 305.522 332.982 303.144 338.979 305.734C340.012 306.18 340.753 307.273 341.629 308.069L341.548 308.154L351.241 308.154L351.168 308.117C355.41 306.371 357.755 303.351 359.036 299.339C359.282 298.57 360.395 297.615 361.189 297.535C365.197 297.142 370.708 298.082 373.572 301.648C375.13 303.585 375.868 305.878 375.854 308.154L386.796 308.154C386.756 307.857 386.716 307.56 386.675 307.257C391.511 306.196 396.317 304.944 401.2 304.158C403.114 303.85 405.353 304.227 407.157 304.97C408.215 305.405 409.31 306.987 409.428 308.154L412.097 308.154C412.098 308.069 412.101 307.979 412.097 307.894C411.988 305.618 410.089 302.969 407.444 302.593C404.167 302.126 400.782 302.269 397.448 302.343C395.797 302.38 394.155 302.858 392.462 303.144C393.797 301.091 394.826 298.915 396.431 297.275C397.348 296.341 399.179 296.033 400.645 295.89C407.072 295.248 412.991 296.166 417.468 301.43C419.301 303.585 420.066 305.904 420.038 308.154L422.487 308.154C422.574 305.22 421.35 302.608 419.529 300.263C415.951 295.646 410.995 293.533 405.102 293.502C402.814 293.486 400.527 293.496 397.879 293.496C397.879 291.724 397.779 289.824 397.949 287.95C397.991 287.478 398.824 286.831 399.408 286.682C410.694 283.71 421.739 289.405 425.693 298.352C426.96 301.218 428.775 304.185 428.864 307.146C428.875 307.486 428.868 307.82 428.862 308.154L445.67 308.154L445.541 308.085C448.217 306.78 451.797 305.294 455.074 303.325C457.265 302.009 459.368 301.303 461.699 302.242C464.247 303.267 466.798 304.413 469.079 305.904C470.023 306.52 470.413 307.316 470.351 308.154L473.752 308.154C473.746 306.339 472.507 304.524 470.037 303.028C467.356 301.404 464.283 300.401 461.359 299.106C462.7 297.126 464.279 294.796 465.946 292.334C474.207 293.91 481.628 296.696 485.345 305.097C485.823 306.175 486.035 307.188 486.053 308.154L488.429 308.154C488.533 304.546 486.47 301.542 484.07 298.75C480.613 294.728 476.072 292.095 470.671 291.092C469.352 290.843 468.078 290.365 466.763 289.994C467.553 286.714 468.302 283.604 469.065 280.436C482.284 281.301 491.589 287.908 498.157 298.395C500.222 301.69 501.142 304.949 501.106 308.154L503.55 308.154C503.615 304.153 502.05 300.539 500.111 297.206C495.63 289.495 489.129 283.641 480.491 280.505C477.655 279.475 474.592 279.003 471.6 278.44C470.057 278.148 469.153 277.74 469.285 275.941C469.448 273.717 469.324 271.467 469.324 269.307C480.838 267.582 490.404 271.212 498.882 278.117C507.382 285.042 511.559 294.462 514.136 304.625C514.418 305.74 514.504 306.939 514.466 308.154L536.77 308.154L536.738 308.138C540.503 306.414 544.707 304.461 548.949 302.587C549.458 302.364 550.332 302.359 550.769 302.646C553.297 304.296 555.745 306.069 558.688 308.122L558.643 308.154L560.922 308.154C560.933 307.268 559.737 306.387 557.323 304.317C555.673 302.906 553.756 301.791 552.04 300.592C554.563 297.843 556.998 295.195 559.753 292.191C566.329 297.503 572.724 302.667 579.514 308.144L579.503 308.154L581.875 308.154C581.879 307.56 581.5 306.976 580.81 306.408C574.312 301.059 567.815 295.704 561.141 290.206C563.375 286.671 565.714 282.972 568.136 279.141C578.807 288.9 589.247 298.453 599.831 308.138L599.815 308.154L602.717 308.154C602.718 307.401 601.987 306.652 600.513 305.326C593.544 299.063 586.63 292.743 579.695 286.443C576.706 283.731 573.768 280.961 570.705 278.329C569.58 277.363 569.082 276.588 569.938 275.182C571.715 272.258 573.363 269.264 575.492 265.549C590.568 279.873 605.263 293.836 620.318 308.138L620.302 308.154L622.55 308.154C622.555 307.47 622.097 306.796 621.202 305.941Z" fill="url(#paint0_linear_1041_8658)"/>
</g>
</g>
<defs>
<linearGradient id="paint0_linear_1041_8658" x1="311.276" y1="650.548" x2="311.276" y2="-20.4996" gradientUnits="userSpaceOnUse">
<stop stop-color="#BC945C"/>
<stop offset="0.2" stop-color="#A17A48"/>
<stop offset="0.3" stop-color="#9E7645"/>
<stop offset="0.5" stop-color="#DEAF70"/>
<stop offset="0.6" stop-color="#FAC883"/>
<stop offset="0.7" stop-color="#EEBC7B"/>
<stop offset="1" stop-color="#966F41"/>
</linearGradient>
</defs>
</svg>
