<svg width="773" height="428" viewBox="0 0 773 428" fill="none" xmlns="http://www.w3.org/2000/svg">
<mask id="mask0_1360_8333" style="mask-type:alpha" maskUnits="userSpaceOnUse" x="0" y="0" width="773" height="428">
<rect y="0.0639648" width="773" height="427.623" fill="#23366C"/>
</mask>
<g mask="url(#mask0_1360_8333)">
<path fill-rule="evenodd" clip-rule="evenodd" d="M207.157 240.268L199.455 242.087V214.677H207.157V240.268Z" stroke="#23366C" stroke-width="1.5" stroke-miterlimit="2" stroke-linecap="round" stroke-linejoin="round"/>
<path d="M49.6478 104.311H21.0952V130.124H49.6478V104.311Z" stroke="#23366C" stroke-width="1.5" stroke-miterlimit="2" stroke-linecap="round" stroke-linejoin="round"/>
<path fill-rule="evenodd" clip-rule="evenodd" d="M41.9288 87.38C37.6994 85.2631 35.3714 80.3997 35.3714 80.3997C35.3714 80.3997 33.0433 85.2631 28.8148 87.38C24.5855 89.4961 20.1482 91.404 20.1482 100.292H50.5954C50.5954 91.404 46.1581 89.4961 41.9288 87.38Z" stroke="#23366C" stroke-width="1.5" stroke-miterlimit="2" stroke-linecap="round" stroke-linejoin="round"/>
<path fill-rule="evenodd" clip-rule="evenodd" d="M56.9386 102.299C56.9386 103.409 56.0425 104.311 54.9334 104.311H15.8087C14.6996 104.311 13.8035 103.409 13.8035 102.299C13.8035 101.194 14.6996 100.292 15.8087 100.292H54.9334C56.0425 100.292 56.9386 101.194 56.9386 102.299Z" stroke="#23366C" stroke-width="1.5" stroke-miterlimit="2" stroke-linecap="round" stroke-linejoin="round"/>
<path fill-rule="evenodd" clip-rule="evenodd" d="M56.9386 132.137C56.9386 133.242 56.0425 134.143 54.9334 134.143H15.8087C14.6996 134.143 13.8035 133.242 13.8035 132.137C13.8035 131.026 14.6996 130.124 15.8087 130.124H54.9334C56.0425 130.124 56.9386 131.026 56.9386 132.137Z" stroke="#23366C" stroke-width="1.5" stroke-miterlimit="2" stroke-linecap="round" stroke-linejoin="round"/>
<path fill-rule="evenodd" clip-rule="evenodd" d="M44.1788 126.673H36.5647V114.538C36.5647 111.937 37.6472 111.015 38.4709 110.222C39.8455 108.898 40.3721 108.006 40.3721 108.006C40.3721 108.006 40.8922 108.898 42.2725 110.222C43.0954 111.015 44.1788 111.937 44.1788 114.538V126.673ZM33.9604 126.673H26.3405V114.538C26.3405 111.937 27.4238 111.015 28.2517 110.222C29.6271 108.898 30.1479 108.006 30.1479 108.006C30.1479 108.006 30.6738 108.898 32.0541 110.222C32.877 111.015 33.9604 111.937 33.9604 114.538V126.673ZM46.9287 126.673V114.538C46.9287 111.937 47.7058 111.015 48.2933 110.222C49.2726 108.898 49.6478 108.006 49.6478 108.006V104.311H21.0952V108.006C21.0952 108.006 21.5021 108.898 22.5646 110.222C23.1995 111.015 24.0332 111.937 24.0332 114.538V126.673H21.0952V130.124H49.6478V126.673H46.9287Z" stroke="#23366C" stroke-width="1.5" stroke-miterlimit="2" stroke-linecap="round" stroke-linejoin="round"/>
<path d="M17.9072 134.144H15.699V137.011H17.9072V134.144Z" stroke="#23366C" stroke-width="1.5" stroke-miterlimit="2" stroke-linecap="round" stroke-linejoin="round"/>
<path d="M22.032 134.144H19.8237V137.011H22.032V134.144Z" stroke="#23366C" stroke-width="1.5" stroke-miterlimit="2" stroke-linecap="round" stroke-linejoin="round"/>
<path d="M26.1581 134.144H23.9548V137.011H26.1581V134.144Z" stroke="#23366C" stroke-width="1.5" stroke-miterlimit="2" stroke-linecap="round" stroke-linejoin="round"/>
<path d="M30.2831 134.144H28.0798V137.011H30.2831V134.144Z" stroke="#23366C" stroke-width="1.5" stroke-miterlimit="2" stroke-linecap="round" stroke-linejoin="round"/>
<path d="M34.4139 134.144H32.2048V137.011H34.4139V134.144Z" stroke="#23366C" stroke-width="1.5" stroke-miterlimit="2" stroke-linecap="round" stroke-linejoin="round"/>
<path d="M38.5381 134.144H36.3298V137.011H38.5381V134.144Z" stroke="#23366C" stroke-width="1.5" stroke-miterlimit="2" stroke-linecap="round" stroke-linejoin="round"/>
<path d="M42.6632 134.144H40.46V137.011H42.6632V134.144Z" stroke="#23366C" stroke-width="1.5" stroke-miterlimit="2" stroke-linecap="round" stroke-linejoin="round"/>
<path d="M46.7931 134.144H44.584V137.011H46.7931V134.144Z" stroke="#23366C" stroke-width="1.5" stroke-miterlimit="2" stroke-linecap="round" stroke-linejoin="round"/>
<path d="M50.9177 134.144H48.7095V137.011H50.9177V134.144Z" stroke="#23366C" stroke-width="1.5" stroke-miterlimit="2" stroke-linecap="round" stroke-linejoin="round"/>
<path d="M55.0432 134.144H52.835V137.011H55.0432V134.144Z" stroke="#23366C" stroke-width="1.5" stroke-miterlimit="2" stroke-linecap="round" stroke-linejoin="round"/>
<path d="M307.048 201.526H254.345V232.308H307.048V201.526Z" stroke="#23366C" stroke-width="1.5" stroke-miterlimit="2" stroke-linecap="round" stroke-linejoin="round"/>
<path fill-rule="evenodd" clip-rule="evenodd" d="M292.804 172.578C284.991 168.669 280.7 159.687 280.7 159.687C280.7 159.687 276.402 168.669 268.595 172.578C260.788 176.483 252.591 180.001 252.591 196.412H308.803C308.803 180.001 300.606 176.483 292.804 172.578Z" stroke="#23366C" stroke-width="1.5" stroke-miterlimit="2" stroke-linecap="round" stroke-linejoin="round"/>
<path d="M313.704 196.412H247.694V201.526H313.704V196.412Z" stroke="#23366C" stroke-width="1.5" stroke-miterlimit="2" stroke-linecap="round" stroke-linejoin="round"/>
<path fill-rule="evenodd" clip-rule="evenodd" d="M259.761 220.412V232.308H264.027V220.412C264.027 215.611 266.021 213.911 267.548 212.446C270.09 209.996 271.058 208.349 271.058 208.349C271.058 208.349 272.022 209.996 274.569 212.446C276.09 213.911 278.084 215.611 278.084 220.412V232.308H282.897V220.412C282.897 215.611 284.897 213.911 286.412 212.446C288.96 209.996 289.923 208.349 289.923 208.349C289.923 208.349 290.892 209.996 293.434 212.446C294.954 213.911 296.954 215.611 296.954 220.412V232.308H302.042V220.412C302.042 215.611 303.463 213.911 304.548 212.446C306.36 209.996 307.048 208.349 307.048 208.349V201.526H254.345V208.349C254.345 208.349 255.089 209.996 257.053 212.446C258.225 213.911 259.761 215.611 259.761 220.412Z" stroke="#23366C" stroke-width="1.5" stroke-miterlimit="2" stroke-linecap="round" stroke-linejoin="round"/>
<path fill-rule="evenodd" clip-rule="evenodd" d="M58.949 220.349C58.949 221.46 58.0479 222.362 56.9388 222.362H13.8037C12.6946 222.362 11.7935 221.46 11.7935 220.349C11.7935 219.243 12.6946 218.342 13.8037 218.342H56.9388C58.0479 218.342 58.949 219.243 58.949 220.349Z" stroke="#23366C" stroke-width="1.5" stroke-miterlimit="2" stroke-linecap="round" stroke-linejoin="round"/>
<path d="M15.6992 222.362H13.491V225.228H15.6992V222.362Z" stroke="#23366C" stroke-width="1.5" stroke-miterlimit="2" stroke-linecap="round" stroke-linejoin="round"/>
<path d="M19.8244 222.362H17.6211V225.228H19.8244V222.362Z" stroke="#23366C" stroke-width="1.5" stroke-miterlimit="2" stroke-linecap="round" stroke-linejoin="round"/>
<path d="M23.9548 222.362H21.7466V225.228H23.9548V222.362Z" stroke="#23366C" stroke-width="1.5" stroke-miterlimit="2" stroke-linecap="round" stroke-linejoin="round"/>
<path d="M28.0797 222.362H25.8765V225.228H28.0797V222.362Z" stroke="#23366C" stroke-width="1.5" stroke-miterlimit="2" stroke-linecap="round" stroke-linejoin="round"/>
<path d="M32.204 222.362H30.0007V225.228H32.204V222.362Z" stroke="#23366C" stroke-width="1.5" stroke-miterlimit="2" stroke-linecap="round" stroke-linejoin="round"/>
<path d="M36.3295 222.362H34.1262V225.228H36.3295V222.362Z" stroke="#23366C" stroke-width="1.5" stroke-miterlimit="2" stroke-linecap="round" stroke-linejoin="round"/>
<path d="M40.46 222.362H38.2517V225.228H40.46V222.362Z" stroke="#23366C" stroke-width="1.5" stroke-miterlimit="2" stroke-linecap="round" stroke-linejoin="round"/>
<path d="M44.5838 222.362H42.3755V225.228H44.5838V222.362Z" stroke="#23366C" stroke-width="1.5" stroke-miterlimit="2" stroke-linecap="round" stroke-linejoin="round"/>
<path d="M48.7102 222.362H46.502V225.228H48.7102V222.362Z" stroke="#23366C" stroke-width="1.5" stroke-miterlimit="2" stroke-linecap="round" stroke-linejoin="round"/>
<path d="M52.8351 222.362H50.6318V225.228H52.8351V222.362Z" stroke="#23366C" stroke-width="1.5" stroke-miterlimit="2" stroke-linecap="round" stroke-linejoin="round"/>
<path d="M56.9604 222.362H54.7563V225.228H56.9604V222.362Z" stroke="#23366C" stroke-width="1.5" stroke-miterlimit="2" stroke-linecap="round" stroke-linejoin="round"/>
<path fill-rule="evenodd" clip-rule="evenodd" d="M61.5845 298.376C61.5845 299.481 60.6834 300.383 59.5735 300.383H11.907C10.7979 300.383 9.90259 299.481 9.90259 298.376C9.90259 297.265 10.7979 296.369 11.907 296.369H59.5735C60.6834 296.369 61.5845 297.265 61.5845 298.376Z" stroke="#23366C" stroke-width="1.5" stroke-miterlimit="2" stroke-linecap="round" stroke-linejoin="round"/>
<path d="M14.1885 300.382H11.9802V303.249H14.1885V300.382Z" stroke="#23366C" stroke-width="0.5" stroke-miterlimit="2" stroke-linecap="round" stroke-linejoin="round"/>
<path d="M18.3137 300.382H16.1055V303.249H18.3137V300.382Z" stroke="#23366C" stroke-width="0.5" stroke-miterlimit="2" stroke-linecap="round" stroke-linejoin="round"/>
<path d="M22.4393 300.382H20.2302V303.249H22.4393V300.382Z" stroke="#23366C" stroke-width="0.5" stroke-miterlimit="2" stroke-linecap="round" stroke-linejoin="round"/>
<path d="M26.5637 300.382H24.3555V303.249H26.5637V300.382Z" stroke="#23366C" stroke-width="0.5" stroke-miterlimit="2" stroke-linecap="round" stroke-linejoin="round"/>
<path d="M30.6888 300.382H28.4863V303.249H30.6888V300.382Z" stroke="#23366C" stroke-width="0.5" stroke-miterlimit="2" stroke-linecap="round" stroke-linejoin="round"/>
<path d="M34.8183 300.382H32.6108V303.249H34.8183V300.382Z" stroke="#23366C" stroke-width="0.5" stroke-miterlimit="2" stroke-linecap="round" stroke-linejoin="round"/>
<path d="M38.9443 300.382H36.7361V303.249H38.9443V300.382Z" stroke="#23366C" stroke-width="0.5" stroke-miterlimit="2" stroke-linecap="round" stroke-linejoin="round"/>
<path d="M43.0692 300.382H40.866V303.249H43.0692V300.382Z" stroke="#23366C" stroke-width="0.5" stroke-miterlimit="2" stroke-linecap="round" stroke-linejoin="round"/>
<path d="M47.1986 300.382H44.9912V303.249H47.1986V300.382Z" stroke="#23366C" stroke-width="0.5" stroke-miterlimit="2" stroke-linecap="round" stroke-linejoin="round"/>
<path d="M51.3237 300.382H49.1155V303.249H51.3237V300.382Z" stroke="#23366C" stroke-width="0.5" stroke-miterlimit="2" stroke-linecap="round" stroke-linejoin="round"/>
<path d="M55.449 300.382H53.2407V303.249H55.449V300.382Z" stroke="#23366C" stroke-width="0.5" stroke-miterlimit="2" stroke-linecap="round" stroke-linejoin="round"/>
<path d="M59.5738 300.382H57.3713V303.249H59.5738V300.382Z" stroke="#23366C" stroke-width="0.5" stroke-miterlimit="2" stroke-linecap="round" stroke-linejoin="round"/>
<path fill-rule="evenodd" clip-rule="evenodd" d="M385.053 249.286C375.954 265.263 341.72 261.437 341.72 300.367V380.416H428.375V300.367C428.375 261.437 394.147 265.263 385.053 249.286Z" stroke="#23366C" stroke-width="1.5" stroke-miterlimit="2" stroke-linecap="round" stroke-linejoin="round"/>
<path fill-rule="evenodd" clip-rule="evenodd" d="M284.522 263.001C280.136 260.806 275.881 257.454 275.881 257.454C275.881 257.454 271.626 260.806 267.24 263.001C262.856 265.195 256.413 267.651 256.413 284.682V312.299H295.35V284.682C295.35 267.651 288.906 265.195 284.522 263.001Z" stroke="#23366C" stroke-width="1.5" stroke-miterlimit="2" stroke-linecap="round" stroke-linejoin="round"/>
<path fill-rule="evenodd" clip-rule="evenodd" d="M284.522 331.123C280.136 328.923 275.881 325.572 275.881 325.572C275.881 325.572 271.626 328.923 267.24 331.123C262.856 333.313 256.413 335.767 256.413 352.798V380.417H295.35V352.798C295.35 335.767 288.906 333.313 284.522 331.123Z" stroke="#23366C" stroke-width="1.5" stroke-miterlimit="2" stroke-linecap="round" stroke-linejoin="round"/>
<path fill-rule="evenodd" clip-rule="evenodd" d="M225.304 263.001C222.652 260.806 220.079 257.454 220.079 257.454C220.079 257.454 217.507 260.806 214.855 263.001C212.21 265.195 208.308 267.651 208.308 284.682V312.299H231.85V284.682C231.85 267.651 227.95 265.195 225.304 263.001Z" stroke="#23366C" stroke-width="1.5" stroke-miterlimit="2" stroke-linecap="round" stroke-linejoin="round"/>
<path fill-rule="evenodd" clip-rule="evenodd" d="M225.304 331.123C222.652 328.923 220.079 325.572 220.079 325.572C220.079 325.572 217.507 328.923 214.855 331.123C212.21 333.313 208.308 335.767 208.308 352.798V380.417H231.85V352.798C231.85 335.767 227.95 333.313 225.304 331.123Z" stroke="#23366C" stroke-width="1.5" stroke-miterlimit="2" stroke-linecap="round" stroke-linejoin="round"/>
<path d="M460.719 207.328H309.376V380.416H460.719V207.328Z" stroke="#23366C" stroke-width="1.5" stroke-miterlimit="2" stroke-linecap="round" stroke-linejoin="round"/>
<path d="M309.376 232.308H240.877V380.416H309.376V232.308Z" stroke="#23366C" stroke-width="1.5" stroke-miterlimit="2" stroke-linecap="round" stroke-linejoin="round"/>
<path fill-rule="evenodd" clip-rule="evenodd" d="M240.877 380.416H199.455V242.087L240.877 232.308V380.416Z" stroke="#23366C" stroke-width="1.5" stroke-miterlimit="2" stroke-linecap="round" stroke-linejoin="round"/>
<path d="M309.376 238.246H240.877V243.724H309.376V238.246Z" stroke="#23366C" stroke-width="1.5" stroke-miterlimit="2" stroke-linecap="round" stroke-linejoin="round"/>
<path fill-rule="evenodd" clip-rule="evenodd" d="M199.455 248.019V253.498L240.877 243.724V238.246L199.455 248.019Z" stroke="#23366C" stroke-width="1.5" stroke-miterlimit="2" stroke-linecap="round" stroke-linejoin="round"/>
<path d="M436.558 232.308H333.542V380.416H436.558V232.308Z" stroke="#23366C" stroke-width="1.5" stroke-miterlimit="2" stroke-linecap="round" stroke-linejoin="round"/>
<path fill-rule="evenodd" clip-rule="evenodd" d="M53.2411 303.249V300.383H55.4493V303.249H53.2411ZM52.835 225.229H50.6318V222.362H52.835V225.229ZM51.3241 303.249H49.1158V300.383H51.3241V303.249ZM48.7098 225.229H46.5015V222.362H48.7098V225.229ZM47.1987 303.249H44.9913V300.383H47.1987V303.249ZM44.5844 225.229H42.3762V222.362H44.5844V225.229ZM43.0693 303.249H40.866V300.383H43.0693V303.249ZM40.46 225.229H38.2517V222.362H40.46V225.229ZM38.944 303.249H36.7357V300.383H38.944V303.249ZM36.3297 225.229H34.1264V222.362H36.3297V225.229ZM34.8187 303.249H32.6112V300.383H34.8187V303.249ZM32.2044 225.229H30.0011V222.362H32.2044V225.229ZM30.6884 303.249H28.4859V300.383H30.6884V303.249ZM28.0799 225.229H25.8766V222.362H28.0799V225.229ZM26.5639 303.249H24.3557V300.383H26.5639V303.249ZM23.9546 225.229H21.7463V222.362H23.9546V225.229ZM22.4394 303.249H20.2303V300.383H22.4394V303.249ZM19.8243 225.229H17.621V222.362H19.8243V225.229ZM18.3141 303.249H16.1059V300.383H18.3141V303.249ZM49.9287 137.011H48.7098V134.144H46.7935V137.011H44.5844V134.144H42.6632V137.011H40.46V134.144H38.5379V137.011H36.3297V134.144H34.4135V137.011H32.2044V134.144H30.2832V137.011H28.0799V134.144H26.1579V137.011H23.9546V134.144H22.0326V137.011H20.8145L14.163 300.383H14.1888V303.249H14.0482L10.9072 380.417H59.8351L49.9287 137.011Z" stroke="#23366C" stroke-width="1.5" stroke-miterlimit="2" stroke-linecap="round" stroke-linejoin="round"/>
<path d="M152.688 170.253H130.959V189.906H152.688V170.253Z" stroke="#23366C" stroke-width="1.5" stroke-miterlimit="2" stroke-linecap="round" stroke-linejoin="round"/>
<path fill-rule="evenodd" clip-rule="evenodd" d="M146.814 157.367C143.596 155.756 141.824 152.055 141.824 152.055C141.824 152.055 140.054 155.756 136.834 157.367C133.616 158.977 130.23 160.426 130.23 167.193H153.408C153.408 160.426 150.032 158.977 146.814 157.367Z" stroke="#23366C" stroke-width="1.5" stroke-miterlimit="2" stroke-linecap="round" stroke-linejoin="round"/>
<path fill-rule="evenodd" clip-rule="evenodd" d="M158.241 168.72C158.241 169.565 157.553 170.253 156.709 170.253H126.933C126.09 170.253 125.407 169.565 125.407 168.72C125.407 167.877 126.09 167.193 126.933 167.193H156.709C157.553 167.193 158.241 167.877 158.241 168.72Z" stroke="#23366C" stroke-width="1.5" stroke-miterlimit="2" stroke-linecap="round" stroke-linejoin="round"/>
<path fill-rule="evenodd" clip-rule="evenodd" d="M158.241 191.434C158.241 192.279 157.553 192.961 156.709 192.961H126.933C126.09 192.961 125.407 192.279 125.407 191.434C125.407 190.588 126.09 189.906 126.933 189.906H156.709C157.553 189.906 158.241 190.588 158.241 191.434Z" stroke="#23366C" stroke-width="1.5" stroke-miterlimit="2" stroke-linecap="round" stroke-linejoin="round"/>
<path fill-rule="evenodd" clip-rule="evenodd" d="M148.522 187.279H142.73V178.042C142.73 176.06 143.553 175.362 144.178 174.757C145.225 173.746 145.626 173.068 145.626 173.068C145.626 173.068 146.022 173.746 147.074 174.757C147.699 175.362 148.522 176.06 148.522 178.042V187.279ZM140.746 187.279H134.949V178.042C134.949 176.06 135.772 175.362 136.397 174.757C137.449 173.746 137.846 173.068 137.846 173.068C137.846 173.068 138.246 173.746 139.293 174.757C139.918 175.362 140.746 176.06 140.746 178.042V187.279ZM150.621 187.279V178.042C150.621 176.06 151.21 175.362 151.658 174.757C152.402 173.746 152.688 173.068 152.688 173.068V170.253H130.959V173.068C130.959 173.068 131.262 173.746 132.074 174.757C132.559 175.362 133.189 176.06 133.189 178.042V187.279H130.959V189.906H152.688V187.279H150.621Z" stroke="#23366C" stroke-width="1.5" stroke-miterlimit="2" stroke-linecap="round" stroke-linejoin="round"/>
<path d="M128.528 192.961H126.851V195.145H128.528V192.961Z" stroke="#23366C" stroke-width="1.5" stroke-miterlimit="2" stroke-linecap="round" stroke-linejoin="round"/>
<path d="M131.669 192.961H129.991V195.145H131.669V192.961Z" stroke="#23366C" stroke-width="1.5" stroke-miterlimit="2" stroke-linecap="round" stroke-linejoin="round"/>
<path d="M134.808 192.961H133.132V195.145H134.808V192.961Z" stroke="#23366C" stroke-width="1.5" stroke-miterlimit="2" stroke-linecap="round" stroke-linejoin="round"/>
<path d="M137.95 192.961H136.272V195.145H137.95V192.961Z" stroke="#23366C" stroke-width="1.5" stroke-miterlimit="2" stroke-linecap="round" stroke-linejoin="round"/>
<path d="M141.09 192.961H139.412V195.145H141.09V192.961Z" stroke="#23366C" stroke-width="1.5" stroke-miterlimit="2" stroke-linecap="round" stroke-linejoin="round"/>
<path d="M144.23 192.961H142.553V195.145H144.23V192.961Z" stroke="#23366C" stroke-width="1.5" stroke-miterlimit="2" stroke-linecap="round" stroke-linejoin="round"/>
<path d="M147.372 192.961H145.693V195.145H147.372V192.961Z" stroke="#23366C" stroke-width="1.5" stroke-miterlimit="2" stroke-linecap="round" stroke-linejoin="round"/>
<path d="M150.51 192.961H148.835V195.145H150.51V192.961Z" stroke="#23366C" stroke-width="1.5" stroke-miterlimit="2" stroke-linecap="round" stroke-linejoin="round"/>
<path d="M153.653 192.961H151.975V195.145H153.653V192.961Z" stroke="#23366C" stroke-width="1.5" stroke-miterlimit="2" stroke-linecap="round" stroke-linejoin="round"/>
<path d="M156.793 192.961H155.115V195.145H156.793V192.961Z" stroke="#23366C" stroke-width="1.5" stroke-miterlimit="2" stroke-linecap="round" stroke-linejoin="round"/>
<path fill-rule="evenodd" clip-rule="evenodd" d="M159.767 258.581C159.767 259.424 159.086 260.108 158.241 260.108H125.408C124.565 260.108 123.877 259.424 123.877 258.581C123.877 257.736 124.565 257.053 125.408 257.053H158.241C159.086 257.053 159.767 257.736 159.767 258.581Z" stroke="#23366C" stroke-width="1.5" stroke-miterlimit="2" stroke-linecap="round" stroke-linejoin="round"/>
<path d="M126.851 260.109H125.167V262.292H126.851V260.109Z" stroke="#23366C" stroke-width="1.5" stroke-miterlimit="2" stroke-linecap="round" stroke-linejoin="round"/>
<path d="M129.991 260.109H128.309V262.292H129.991V260.109Z" stroke="#23366C" stroke-width="1.5" stroke-miterlimit="2" stroke-linecap="round" stroke-linejoin="round"/>
<path d="M133.132 260.109H131.449V262.292H133.132V260.109Z" stroke="#23366C" stroke-width="1.5" stroke-miterlimit="2" stroke-linecap="round" stroke-linejoin="round"/>
<path d="M136.272 260.109H134.594V262.292H136.272V260.109Z" stroke="#23366C" stroke-width="1.5" stroke-miterlimit="2" stroke-linecap="round" stroke-linejoin="round"/>
<path d="M139.412 260.109H137.73V262.292H139.412V260.109Z" stroke="#23366C" stroke-width="1.5" stroke-miterlimit="2" stroke-linecap="round" stroke-linejoin="round"/>
<path d="M142.553 260.109H140.871V262.292H142.553V260.109Z" stroke="#23366C" stroke-width="1.5" stroke-miterlimit="2" stroke-linecap="round" stroke-linejoin="round"/>
<path d="M145.693 260.109H144.012V262.292H145.693V260.109Z" stroke="#23366C" stroke-width="1.5" stroke-miterlimit="2" stroke-linecap="round" stroke-linejoin="round"/>
<path d="M148.835 260.109H147.158V262.292H148.835V260.109Z" stroke="#23366C" stroke-width="1.5" stroke-miterlimit="2" stroke-linecap="round" stroke-linejoin="round"/>
<path d="M151.976 260.109H150.293V262.292H151.976V260.109Z" stroke="#23366C" stroke-width="1.5" stroke-miterlimit="2" stroke-linecap="round" stroke-linejoin="round"/>
<path d="M155.116 260.109H153.439V262.292H155.116V260.109Z" stroke="#23366C" stroke-width="1.5" stroke-miterlimit="2" stroke-linecap="round" stroke-linejoin="round"/>
<path d="M158.257 260.109H156.579V262.292H158.257V260.109Z" stroke="#23366C" stroke-width="1.5" stroke-miterlimit="2" stroke-linecap="round" stroke-linejoin="round"/>
<path fill-rule="evenodd" clip-rule="evenodd" d="M161.772 317.966C161.772 318.815 161.09 319.498 160.246 319.498H123.966C123.116 319.498 122.434 318.815 122.434 317.966C122.434 317.126 123.116 316.443 123.966 316.443H160.246C161.09 316.443 161.772 317.126 161.772 317.966Z" stroke="#23366C" stroke-width="1.5" stroke-miterlimit="2" stroke-linecap="round" stroke-linejoin="round"/>
<path d="M125.699 319.498H124.017V321.683H125.699V319.498Z" stroke="#23366C" stroke-width="1.5" stroke-miterlimit="2" stroke-linecap="round" stroke-linejoin="round"/>
<path d="M128.839 319.498H127.158V321.683H128.839V319.498Z" stroke="#23366C" stroke-width="1.5" stroke-miterlimit="2" stroke-linecap="round" stroke-linejoin="round"/>
<path d="M131.98 319.498H130.298V321.683H131.98V319.498Z" stroke="#23366C" stroke-width="1.5" stroke-miterlimit="2" stroke-linecap="round" stroke-linejoin="round"/>
<path d="M135.115 319.498H133.438V321.683H135.115V319.498Z" stroke="#23366C" stroke-width="1.5" stroke-miterlimit="2" stroke-linecap="round" stroke-linejoin="round"/>
<path d="M138.262 319.498H136.579V321.683H138.262V319.498Z" stroke="#23366C" stroke-width="1.5" stroke-miterlimit="2" stroke-linecap="round" stroke-linejoin="round"/>
<path d="M141.397 319.498H139.72V321.683H141.397V319.498Z" stroke="#23366C" stroke-width="1.5" stroke-miterlimit="2" stroke-linecap="round" stroke-linejoin="round"/>
<path d="M144.542 319.498H142.861V321.683H144.542V319.498Z" stroke="#23366C" stroke-width="1.5" stroke-miterlimit="2" stroke-linecap="round" stroke-linejoin="round"/>
<path d="M147.684 319.498H146.001V321.683H147.684V319.498Z" stroke="#23366C" stroke-width="1.5" stroke-miterlimit="2" stroke-linecap="round" stroke-linejoin="round"/>
<path d="M150.824 319.498H149.142V321.683H150.824V319.498Z" stroke="#23366C" stroke-width="1.5" stroke-miterlimit="2" stroke-linecap="round" stroke-linejoin="round"/>
<path d="M153.96 319.498H152.282V321.683H153.96V319.498Z" stroke="#23366C" stroke-width="1.5" stroke-miterlimit="2" stroke-linecap="round" stroke-linejoin="round"/>
<path d="M157.106 319.498H155.428V321.683H157.106V319.498Z" stroke="#23366C" stroke-width="1.5" stroke-miterlimit="2" stroke-linecap="round" stroke-linejoin="round"/>
<path d="M160.245 319.498H158.569V321.683H160.245V319.498Z" stroke="#23366C" stroke-width="1.5" stroke-miterlimit="2" stroke-linecap="round" stroke-linejoin="round"/>
<path fill-rule="evenodd" clip-rule="evenodd" d="M155.428 321.682V319.498H157.106V321.682H155.428ZM155.115 262.292H153.439V260.109H155.115V262.292ZM153.96 321.682H152.282V319.498H153.96V321.682ZM151.975 262.292H150.293V260.109H151.975V262.292ZM150.824 321.682H149.142V319.498H150.824V321.682ZM148.835 262.292H147.158V260.109H148.835V262.292ZM147.683 321.682H146V319.498H147.683V321.682ZM145.693 262.292H144.012V260.109H145.693V262.292ZM144.542 321.682H142.861V319.498H144.542V321.682ZM142.553 262.292H140.871V260.109H142.553V262.292ZM141.396 321.682H139.72V319.498H141.396V321.682ZM139.412 262.292H137.73V260.109H139.412V262.292ZM138.262 321.682H136.579V319.498H138.262V321.682ZM136.272 262.292H134.594V260.109H136.272V262.292ZM135.115 321.682H133.439V319.498H135.115V321.682ZM133.132 262.292H131.449V260.109H133.132V262.292ZM131.98 321.682H130.298V319.498H131.98V321.682ZM129.991 262.292H128.308V260.109H129.991V262.292ZM128.839 321.682H127.158V319.498H128.839V321.682ZM152.902 195.145H151.975V192.961H150.511V195.145H148.835V192.961H147.371V195.145H145.693V192.961H144.23V195.145H142.553V192.961H141.089V195.145H139.412V192.961H137.949V195.145H136.272V192.961H134.808V195.145H133.132V192.961H131.668V195.145H130.741L125.679 319.498H125.699V321.682H125.59L123.199 380.417H160.444L152.902 195.145Z" stroke="#23366C" stroke-width="1.5" stroke-miterlimit="2" stroke-linecap="round" stroke-linejoin="round"/>
<path fill-rule="evenodd" clip-rule="evenodd" d="M205.074 210.112C203.933 209.538 203.304 208.224 203.304 208.224C203.304 208.224 202.679 209.538 201.538 210.112C200.397 210.679 199.199 211.195 199.199 213.593H207.413C207.413 211.195 206.215 210.679 205.074 210.112Z" stroke="#23366C" stroke-width="1.5" stroke-miterlimit="2" stroke-linecap="round" stroke-linejoin="round"/>
<path fill-rule="evenodd" clip-rule="evenodd" d="M207.954 214.136C207.954 214.433 207.709 214.678 207.413 214.678H199.199C198.897 214.678 198.657 214.433 198.657 214.136C198.657 213.833 198.897 213.593 199.199 213.593H207.413C207.709 213.593 207.954 213.833 207.954 214.136Z" stroke="#23366C" stroke-width="1.5" stroke-miterlimit="2" stroke-linecap="round" stroke-linejoin="round"/>
<path fill-rule="evenodd" clip-rule="evenodd" d="M244.725 232.307H241.266L237.027 233.22V204.199H244.725V232.307Z" stroke="#23366C" stroke-width="1.5" stroke-miterlimit="2" stroke-linecap="round" stroke-linejoin="round"/>
<path fill-rule="evenodd" clip-rule="evenodd" d="M242.641 199.634C241.501 199.06 240.876 197.746 240.876 197.746C240.876 197.746 240.251 199.06 239.106 199.634C237.965 200.201 236.772 200.717 236.772 203.115H244.98C244.98 200.717 243.782 200.201 242.641 199.634Z" stroke="#23366C" stroke-width="1.5" stroke-miterlimit="2" stroke-linecap="round" stroke-linejoin="round"/>
<path fill-rule="evenodd" clip-rule="evenodd" d="M245.523 203.658C245.523 203.955 245.283 204.2 244.98 204.2H236.772C236.47 204.2 236.23 203.955 236.23 203.658C236.23 203.355 236.47 203.115 236.772 203.115H244.98C245.283 203.115 245.523 203.355 245.523 203.658Z" stroke="#23366C" stroke-width="1.5" stroke-miterlimit="2" stroke-linecap="round" stroke-linejoin="round"/>
<path d="M65.8349 380.417H3.86548V427.077H65.8349V380.417Z" stroke="#23366C" stroke-width="1.5" stroke-miterlimit="2" stroke-linecap="round" stroke-linejoin="round"/>
<path d="M65.8349 384.93H3.86548V388.016H65.8349V384.93Z" stroke="#23366C" stroke-width="1.5" stroke-miterlimit="2" stroke-linecap="round" stroke-linejoin="round"/>
<path d="M704.253 380.417H65.835V427.077H704.253V380.417Z" stroke="#23366C" stroke-width="1.5" stroke-miterlimit="2" stroke-linecap="round" stroke-linejoin="round"/>
<path d="M704.253 384.93H65.835V388.016H704.253V384.93Z" stroke="#23366C" stroke-width="1.5" stroke-miterlimit="2" stroke-linecap="round" stroke-linejoin="round"/>
<path fill-rule="evenodd" clip-rule="evenodd" d="M395.684 380.416V352.642C395.684 346.766 390.924 342.003 385.054 342.003C379.178 342.003 374.418 346.766 374.418 352.642V380.416H395.684Z" stroke="#23366C" stroke-width="1.5" stroke-miterlimit="2" stroke-linecap="round" stroke-linejoin="round"/>
<path fill-rule="evenodd" clip-rule="evenodd" d="M281.865 380.417V364.793C281.865 361.488 279.183 358.803 275.882 358.803C272.579 358.803 269.898 361.488 269.898 364.793V380.417H281.865Z" stroke="#23366C" stroke-width="1.5" stroke-miterlimit="2" stroke-linecap="round" stroke-linejoin="round"/>
<path fill-rule="evenodd" clip-rule="evenodd" d="M281.865 312.461V296.833C281.865 293.528 279.183 290.849 275.882 290.849C272.579 290.849 269.898 293.528 269.898 296.833V312.461H281.865Z" stroke="#23366C" stroke-width="1.5" stroke-miterlimit="2" stroke-linecap="round" stroke-linejoin="round"/>
<path fill-rule="evenodd" clip-rule="evenodd" d="M562.933 240.268L570.631 242.087V214.677H562.933V240.268Z" stroke="#23366C" stroke-width="1.5" stroke-miterlimit="2" stroke-linecap="round" stroke-linejoin="round"/>
<path d="M748.992 104.311H720.445V130.124H748.992V104.311Z" stroke="#23366C" stroke-width="1.5" stroke-miterlimit="2" stroke-linecap="round" stroke-linejoin="round"/>
<path fill-rule="evenodd" clip-rule="evenodd" d="M728.158 87.38C732.393 85.2631 734.723 80.3997 734.723 80.3997C734.723 80.3997 737.045 85.2631 741.271 87.38C745.498 89.4961 749.941 91.404 749.941 100.292H719.488C719.488 91.404 723.931 89.4961 728.158 87.38Z" stroke="#23366C" stroke-width="1.5" stroke-miterlimit="2" stroke-linecap="round" stroke-linejoin="round"/>
<path fill-rule="evenodd" clip-rule="evenodd" d="M713.148 102.299C713.148 103.409 714.047 104.311 715.154 104.311H754.285C755.383 104.311 756.29 103.409 756.29 102.299C756.29 101.194 755.383 100.292 754.285 100.292H715.154C714.047 100.292 713.148 101.194 713.148 102.299Z" stroke="#23366C" stroke-width="1.5" stroke-miterlimit="2" stroke-linecap="round" stroke-linejoin="round"/>
<path fill-rule="evenodd" clip-rule="evenodd" d="M713.148 132.137C713.148 133.242 714.047 134.143 715.154 134.143H754.285C755.383 134.143 756.29 133.242 756.29 132.137C756.29 131.026 755.383 130.124 754.285 130.124H715.154C714.047 130.124 713.148 131.026 713.148 132.137Z" stroke="#23366C" stroke-width="1.5" stroke-miterlimit="2" stroke-linecap="round" stroke-linejoin="round"/>
<path fill-rule="evenodd" clip-rule="evenodd" d="M725.911 114.538C725.911 111.937 726.993 111.015 727.816 110.222C729.198 108.898 729.722 108.006 729.722 108.006C729.722 108.006 730.246 108.898 731.619 110.222C732.443 111.015 733.524 111.937 733.524 114.538V126.673H725.911V114.538ZM736.129 114.538C736.129 111.937 737.21 111.015 738.034 110.222C739.415 108.898 739.939 108.006 739.939 108.006C739.939 108.006 740.464 108.898 741.837 110.222C742.66 111.015 743.75 111.937 743.75 114.538V126.673H736.129V114.538ZM720.445 126.673V130.124H748.992V126.673H746.055V114.538C746.055 111.937 746.887 111.015 747.528 110.222C748.593 108.898 748.992 108.006 748.992 108.006V104.311H720.445V108.006C720.445 108.006 720.819 108.898 721.792 110.222C722.383 111.015 723.157 111.937 723.157 114.538V126.673H720.445Z" stroke="#23366C" stroke-width="1.5" stroke-miterlimit="2" stroke-linecap="round" stroke-linejoin="round"/>
<path d="M754.385 134.144H752.18V137.011H754.385V134.144Z" stroke="#23366C" stroke-width="1.5" stroke-miterlimit="2" stroke-linecap="round" stroke-linejoin="round"/>
<path d="M750.258 134.144H748.053V137.011H750.258V134.144Z" stroke="#23366C" stroke-width="1.5" stroke-miterlimit="2" stroke-linecap="round" stroke-linejoin="round"/>
<path d="M746.138 134.144H743.925V137.011H746.138V134.144Z" stroke="#23366C" stroke-width="1.5" stroke-miterlimit="2" stroke-linecap="round" stroke-linejoin="round"/>
<path d="M742.012 134.144H739.798V137.011H742.012V134.144Z" stroke="#23366C" stroke-width="1.5" stroke-miterlimit="2" stroke-linecap="round" stroke-linejoin="round"/>
<path d="M737.885 134.144H735.68V137.011H737.885V134.144Z" stroke="#23366C" stroke-width="1.5" stroke-miterlimit="2" stroke-linecap="round" stroke-linejoin="round"/>
<path d="M733.758 134.144H731.553V137.011H733.758V134.144Z" stroke="#23366C" stroke-width="1.5" stroke-miterlimit="2" stroke-linecap="round" stroke-linejoin="round"/>
<path d="M729.631 134.144H727.426V137.011H729.631V134.144Z" stroke="#23366C" stroke-width="1.5" stroke-miterlimit="2" stroke-linecap="round" stroke-linejoin="round"/>
<path d="M725.504 134.144H723.299V137.011H725.504V134.144Z" stroke="#23366C" stroke-width="1.5" stroke-miterlimit="2" stroke-linecap="round" stroke-linejoin="round"/>
<path d="M721.376 134.144H719.172V137.011H721.376V134.144Z" stroke="#23366C" stroke-width="1.5" stroke-miterlimit="2" stroke-linecap="round" stroke-linejoin="round"/>
<path d="M717.25 134.144H715.045V137.011H717.25V134.144Z" stroke="#23366C" stroke-width="1.5" stroke-miterlimit="2" stroke-linecap="round" stroke-linejoin="round"/>
<path d="M515.74 201.526H463.042V232.308H515.74V201.526Z" stroke="#23366C" stroke-width="1.5" stroke-miterlimit="2" stroke-linecap="round" stroke-linejoin="round"/>
<path fill-rule="evenodd" clip-rule="evenodd" d="M477.288 172.578C485.094 168.669 489.391 159.687 489.391 159.687C489.391 159.687 493.689 168.669 501.495 172.578C509.303 176.483 517.501 180.001 517.501 196.412H461.282C461.282 180.001 469.48 176.483 477.288 172.578Z" stroke="#23366C" stroke-width="1.5" stroke-miterlimit="2" stroke-linecap="round" stroke-linejoin="round"/>
<path d="M522.397 196.412H456.386V201.526H522.397V196.412Z" stroke="#23366C" stroke-width="1.5" stroke-miterlimit="2" stroke-linecap="round" stroke-linejoin="round"/>
<path fill-rule="evenodd" clip-rule="evenodd" d="M510.324 220.412V232.308H506.063V220.412C506.063 215.611 504.063 213.911 502.543 212.446C500 209.996 499.032 208.349 499.032 208.349C499.032 208.349 498.063 209.996 495.522 212.446C494.001 213.911 492.001 215.611 492.001 220.412V232.308H487.194V220.412C487.194 215.611 485.194 213.911 483.673 212.446C481.131 209.996 480.163 208.349 480.163 208.349C480.163 208.349 479.198 209.996 476.652 212.446C475.137 213.911 473.136 215.611 473.136 220.412V232.308H468.048V220.412C468.048 215.611 466.62 213.911 465.543 212.446C463.73 209.996 463.042 208.349 463.042 208.349V201.526H515.74V208.349C515.74 208.349 515.001 209.996 513.038 212.446C511.865 213.911 510.324 215.611 510.324 220.412Z" stroke="#23366C" stroke-width="1.5" stroke-miterlimit="2" stroke-linecap="round" stroke-linejoin="round"/>
<path fill-rule="evenodd" clip-rule="evenodd" d="M711.143 220.349C711.143 221.46 712.041 222.362 713.148 222.362H756.29C757.396 222.362 758.295 221.46 758.295 220.349C758.295 219.243 757.396 218.342 756.29 218.342H713.148C712.041 218.342 711.143 219.243 711.143 220.349Z" stroke="#23366C" stroke-width="1.5" stroke-miterlimit="2" stroke-linecap="round" stroke-linejoin="round"/>
<path d="M756.598 222.362H754.385V225.228H756.598V222.362Z" stroke="#23366C" stroke-width="1.5" stroke-miterlimit="2" stroke-linecap="round" stroke-linejoin="round"/>
<path d="M752.471 222.362H750.258V225.228H752.471V222.362Z" stroke="#23366C" stroke-width="1.5" stroke-miterlimit="2" stroke-linecap="round" stroke-linejoin="round"/>
<path d="M748.344 222.362H746.139V225.228H748.344V222.362Z" stroke="#23366C" stroke-width="1.5" stroke-miterlimit="2" stroke-linecap="round" stroke-linejoin="round"/>
<path d="M744.217 222.362H742.012V225.228H744.217V222.362Z" stroke="#23366C" stroke-width="1.5" stroke-miterlimit="2" stroke-linecap="round" stroke-linejoin="round"/>
<path d="M740.089 222.362H737.885V225.228H740.089V222.362Z" stroke="#23366C" stroke-width="1.5" stroke-miterlimit="2" stroke-linecap="round" stroke-linejoin="round"/>
<path d="M735.964 222.362H733.758V225.228H735.964V222.362Z" stroke="#23366C" stroke-width="1.5" stroke-miterlimit="2" stroke-linecap="round" stroke-linejoin="round"/>
<path d="M731.836 222.362H729.631V225.228H731.836V222.362Z" stroke="#23366C" stroke-width="1.5" stroke-miterlimit="2" stroke-linecap="round" stroke-linejoin="round"/>
<path d="M727.708 222.362H725.504V225.228H727.708V222.362Z" stroke="#23366C" stroke-width="1.5" stroke-miterlimit="2" stroke-linecap="round" stroke-linejoin="round"/>
<path d="M723.582 222.362H721.376V225.228H723.582V222.362Z" stroke="#23366C" stroke-width="1.5" stroke-miterlimit="2" stroke-linecap="round" stroke-linejoin="round"/>
<path d="M719.463 222.362H717.25V225.228H719.463V222.362Z" stroke="#23366C" stroke-width="1.5" stroke-miterlimit="2" stroke-linecap="round" stroke-linejoin="round"/>
<path d="M715.336 222.362H713.123V225.228H715.336V222.362Z" stroke="#23366C" stroke-width="1.5" stroke-miterlimit="2" stroke-linecap="round" stroke-linejoin="round"/>
<path fill-rule="evenodd" clip-rule="evenodd" d="M708.505 298.376C708.505 299.481 709.404 300.383 710.511 300.383H758.179C759.294 300.383 760.192 299.481 760.192 298.376C760.192 297.265 759.294 296.369 758.179 296.369H710.511C709.404 296.369 708.505 297.265 708.505 298.376Z" stroke="#23366C" stroke-width="1.5" stroke-miterlimit="2" stroke-linecap="round" stroke-linejoin="round"/>
<path d="M758.111 300.382H755.898V303.249H758.111V300.382Z" stroke="#23366C" stroke-width="1.5" stroke-miterlimit="2" stroke-linecap="round" stroke-linejoin="round"/>
<path d="M753.977 300.382H751.772V303.249H753.977V300.382Z" stroke="#23366C" stroke-width="1.5" stroke-miterlimit="2" stroke-linecap="round" stroke-linejoin="round"/>
<path d="M749.858 300.382H747.653V303.249H749.858V300.382Z" stroke="#23366C" stroke-width="1.5" stroke-miterlimit="2" stroke-linecap="round" stroke-linejoin="round"/>
<path d="M745.731 300.382H743.517V303.249H745.731V300.382Z" stroke="#23366C" stroke-width="1.5" stroke-miterlimit="2" stroke-linecap="round" stroke-linejoin="round"/>
<path d="M741.604 300.382H739.399V303.249H741.604V300.382Z" stroke="#23366C" stroke-width="1.5" stroke-miterlimit="2" stroke-linecap="round" stroke-linejoin="round"/>
<path d="M737.477 300.382H735.272V303.249H737.477V300.382Z" stroke="#23366C" stroke-width="1.5" stroke-miterlimit="2" stroke-linecap="round" stroke-linejoin="round"/>
<path d="M733.352 300.382H731.146V303.249H733.352V300.382Z" stroke="#23366C" stroke-width="1.5" stroke-miterlimit="2" stroke-linecap="round" stroke-linejoin="round"/>
<path d="M729.223 300.382H727.018V303.249H729.223V300.382Z" stroke="#23366C" stroke-width="1.5" stroke-miterlimit="2" stroke-linecap="round" stroke-linejoin="round"/>
<path d="M725.096 300.382H722.9V303.249H725.096V300.382Z" stroke="#23366C" stroke-width="1.5" stroke-miterlimit="2" stroke-linecap="round" stroke-linejoin="round"/>
<path d="M720.97 300.382H718.765V303.249H720.97V300.382Z" stroke="#23366C" stroke-width="1.5" stroke-miterlimit="2" stroke-linecap="round" stroke-linejoin="round"/>
<path d="M716.842 300.382H714.637V303.249H716.842V300.382Z" stroke="#23366C" stroke-width="1.5" stroke-miterlimit="2" stroke-linecap="round" stroke-linejoin="round"/>
<path d="M712.715 300.382H710.51V303.249H712.715V300.382Z" stroke="#23366C" stroke-width="1.5" stroke-miterlimit="2" stroke-linecap="round" stroke-linejoin="round"/>
<path fill-rule="evenodd" clip-rule="evenodd" d="M485.569 263.001C489.954 260.806 494.209 257.454 494.209 257.454C494.209 257.454 498.464 260.806 502.844 263.001C507.23 265.195 513.678 267.651 513.678 284.682V312.299H474.741V284.682C474.741 267.651 481.183 265.195 485.569 263.001Z" stroke="#23366C" stroke-width="1.5" stroke-miterlimit="2" stroke-linecap="round" stroke-linejoin="round"/>
<path fill-rule="evenodd" clip-rule="evenodd" d="M485.569 331.123C489.954 328.923 494.209 325.572 494.209 325.572C494.209 325.572 498.464 328.923 502.844 331.123C507.23 333.313 513.678 335.767 513.678 352.798V380.417H474.741V352.798C474.741 335.767 481.183 333.313 485.569 331.123Z" stroke="#23366C" stroke-width="1.5" stroke-miterlimit="2" stroke-linecap="round" stroke-linejoin="round"/>
<path fill-rule="evenodd" clip-rule="evenodd" d="M544.787 263.001C547.438 260.806 550.011 257.454 550.011 257.454C550.011 257.454 552.584 260.806 555.23 263.001C557.881 265.195 561.781 267.651 561.781 284.682V312.299H538.239V284.682C538.239 267.651 542.136 265.195 544.787 263.001Z" stroke="#23366C" stroke-width="1.5" stroke-miterlimit="2" stroke-linecap="round" stroke-linejoin="round"/>
<path fill-rule="evenodd" clip-rule="evenodd" d="M544.787 331.123C547.438 328.923 550.011 325.572 550.011 325.572C550.011 325.572 552.584 328.923 555.23 331.123C557.881 333.313 561.781 335.767 561.781 352.798V380.417H538.239V352.798C538.239 335.767 542.136 333.313 544.787 331.123Z" stroke="#23366C" stroke-width="1.5" stroke-miterlimit="2" stroke-linecap="round" stroke-linejoin="round"/>
<path d="M529.209 232.308H460.709V380.416H529.209V232.308Z" stroke="#23366C" stroke-width="1.5" stroke-miterlimit="2" stroke-linecap="round" stroke-linejoin="round"/>
<path fill-rule="evenodd" clip-rule="evenodd" d="M529.209 380.416H570.631V242.087L529.209 232.308V380.416Z" stroke="#23366C" stroke-width="1.5" stroke-miterlimit="2" stroke-linecap="round" stroke-linejoin="round"/>
<path d="M529.209 238.246H460.709V243.724H529.209V238.246Z" stroke="#23366C" stroke-width="1.5" stroke-miterlimit="2" stroke-linecap="round" stroke-linejoin="round"/>
<path fill-rule="evenodd" clip-rule="evenodd" d="M570.631 248.019V253.498L529.209 243.724V238.246L570.631 248.019Z" stroke="#23366C" stroke-width="1.5" stroke-miterlimit="2" stroke-linecap="round" stroke-linejoin="round"/>
<path fill-rule="evenodd" clip-rule="evenodd" d="M714.638 303.249V300.383H716.843V303.249H714.638ZM717.25 222.362H719.464V225.229H717.25V222.362ZM718.765 300.383H720.97V303.249H718.765V300.383ZM721.377 222.362H723.582V225.229H721.377V222.362ZM722.9 300.383H725.097V303.249H722.9V300.383ZM725.504 222.362H727.709V225.229H725.504V222.362ZM727.019 300.383H729.224V303.249H727.019V300.383ZM729.631 222.362H731.836V225.229H729.631V222.362ZM731.146 300.383H733.351V303.249H731.146V300.383ZM733.758 222.362H735.963V225.229H733.758V222.362ZM735.273 300.383H737.478V303.249H735.273V300.383ZM737.885 222.362H740.09V225.229H737.885V222.362ZM739.4 300.383H741.605V303.249H739.4V300.383ZM742.012 222.362H744.217V225.229H742.012V222.362ZM743.518 300.383H745.731V303.249H743.518V300.383ZM746.139 222.362H748.344V225.229H746.139V222.362ZM747.654 300.383H749.858V303.249H747.654V300.383ZM750.258 222.362H752.471V225.229H750.258V222.362ZM751.772 300.383H753.977V303.249H751.772V300.383ZM710.253 380.417H759.186L756.041 303.249H755.899V300.383H755.932L749.276 137.011H748.053V134.144H746.139V137.011H743.926V134.144H742.012V137.011H739.799V134.144H737.885V137.011H735.68V134.144H733.758V137.011H731.553V134.144H729.631V137.011H727.426V134.144H725.504V137.011H723.299V134.144H721.377V137.011H720.163L710.253 380.417Z" stroke="#23366C" stroke-width="1.5" stroke-miterlimit="2" stroke-linecap="round" stroke-linejoin="round"/>
<path d="M639.131 170.253H617.402V189.906H639.131V170.253Z" stroke="#23366C" stroke-width="1.5" stroke-miterlimit="2" stroke-linecap="round" stroke-linejoin="round"/>
<path fill-rule="evenodd" clip-rule="evenodd" d="M623.277 157.367C626.496 155.756 628.266 152.055 628.266 152.055C628.266 152.055 630.038 155.756 633.256 157.367C636.474 158.977 639.854 160.426 639.854 167.193H616.677C616.677 160.426 620.058 158.977 623.277 157.367Z" stroke="#23366C" stroke-width="1.5" stroke-miterlimit="2" stroke-linecap="round" stroke-linejoin="round"/>
<path fill-rule="evenodd" clip-rule="evenodd" d="M611.849 168.72C611.849 169.565 612.532 170.253 613.375 170.253H643.157C644 170.253 644.683 169.565 644.683 168.72C644.683 167.877 644 167.193 643.157 167.193H613.375C612.532 167.193 611.849 167.877 611.849 168.72Z" stroke="#23366C" stroke-width="1.5" stroke-miterlimit="2" stroke-linecap="round" stroke-linejoin="round"/>
<path fill-rule="evenodd" clip-rule="evenodd" d="M611.849 191.434C611.849 192.279 612.532 192.961 613.375 192.961H643.157C644 192.961 644.683 192.279 644.683 191.434C644.683 190.588 644 189.906 643.157 189.906H613.375C612.532 189.906 611.849 190.588 611.849 191.434Z" stroke="#23366C" stroke-width="1.5" stroke-miterlimit="2" stroke-linecap="round" stroke-linejoin="round"/>
<path fill-rule="evenodd" clip-rule="evenodd" d="M621.564 178.042C621.564 176.06 622.386 175.362 623.011 174.757C624.063 173.746 624.459 173.068 624.459 173.068C624.459 173.068 624.86 173.746 625.913 174.757C626.538 175.362 627.36 176.06 627.36 178.042V187.279H621.564V178.042ZM629.345 178.042C629.345 176.06 630.168 175.362 630.793 174.757C631.844 173.746 632.24 173.068 632.24 173.068C632.24 173.068 632.641 173.746 633.688 174.757C634.313 175.362 635.141 176.06 635.141 178.042V187.279H629.345V178.042ZM617.402 187.279V189.906H639.131V187.279H636.897V178.042C636.897 176.06 637.531 175.362 638.016 174.757C638.824 173.746 639.131 173.068 639.131 173.068V170.253H617.402V173.068C617.402 173.068 617.689 173.746 618.433 174.757C618.881 175.362 619.469 176.06 619.469 178.042V187.279H617.402Z" stroke="#23366C" stroke-width="1.5" stroke-miterlimit="2" stroke-linecap="round" stroke-linejoin="round"/>
<path d="M643.24 192.961H641.557V195.145H643.24V192.961Z" stroke="#23366C" stroke-width="1.5" stroke-miterlimit="2" stroke-linecap="round" stroke-linejoin="round"/>
<path d="M640.1 192.961H638.417V195.145H640.1V192.961Z" stroke="#23366C" stroke-width="1.5" stroke-miterlimit="2" stroke-linecap="round" stroke-linejoin="round"/>
<path d="M636.959 192.961H635.282V195.145H636.959V192.961Z" stroke="#23366C" stroke-width="1.5" stroke-miterlimit="2" stroke-linecap="round" stroke-linejoin="round"/>
<path d="M633.819 192.961H632.137V195.145H633.819V192.961Z" stroke="#23366C" stroke-width="1.5" stroke-miterlimit="2" stroke-linecap="round" stroke-linejoin="round"/>
<path d="M630.678 192.961H628.996V195.145H630.678V192.961Z" stroke="#23366C" stroke-width="1.5" stroke-miterlimit="2" stroke-linecap="round" stroke-linejoin="round"/>
<path d="M627.537 192.961H625.855V195.145H627.537V192.961Z" stroke="#23366C" stroke-width="1.5" stroke-miterlimit="2" stroke-linecap="round" stroke-linejoin="round"/>
<path d="M624.396 192.961H622.714V195.145H624.396V192.961Z" stroke="#23366C" stroke-width="1.5" stroke-miterlimit="2" stroke-linecap="round" stroke-linejoin="round"/>
<path d="M621.256 192.961H619.573V195.145H621.256V192.961Z" stroke="#23366C" stroke-width="1.5" stroke-miterlimit="2" stroke-linecap="round" stroke-linejoin="round"/>
<path d="M618.114 192.961H616.433V195.145H618.114V192.961Z" stroke="#23366C" stroke-width="1.5" stroke-miterlimit="2" stroke-linecap="round" stroke-linejoin="round"/>
<path d="M614.975 192.961H613.293V195.145H614.975V192.961Z" stroke="#23366C" stroke-width="1.5" stroke-miterlimit="2" stroke-linecap="round" stroke-linejoin="round"/>
<path fill-rule="evenodd" clip-rule="evenodd" d="M610.323 258.581C610.323 259.424 611.007 260.108 611.849 260.108H644.683C645.527 260.108 646.209 259.424 646.209 258.581C646.209 257.736 645.527 257.053 644.683 257.053H611.849C611.007 257.053 610.323 257.736 610.323 258.581Z" stroke="#23366C" stroke-width="1.5" stroke-miterlimit="2" stroke-linecap="round" stroke-linejoin="round"/>
<path d="M644.917 260.109H643.24V262.292H644.917V260.109Z" stroke="#23366C" stroke-width="1.5" stroke-miterlimit="2" stroke-linecap="round" stroke-linejoin="round"/>
<path d="M641.777 260.109H640.101V262.292H641.777V260.109Z" stroke="#23366C" stroke-width="1.5" stroke-miterlimit="2" stroke-linecap="round" stroke-linejoin="round"/>
<path d="M638.636 260.109H636.958V262.292H638.636V260.109Z" stroke="#23366C" stroke-width="1.5" stroke-miterlimit="2" stroke-linecap="round" stroke-linejoin="round"/>
<path d="M635.496 260.109H633.819V262.292H635.496V260.109Z" stroke="#23366C" stroke-width="1.5" stroke-miterlimit="2" stroke-linecap="round" stroke-linejoin="round"/>
<path d="M632.355 260.109H630.678V262.292H632.355V260.109Z" stroke="#23366C" stroke-width="1.5" stroke-miterlimit="2" stroke-linecap="round" stroke-linejoin="round"/>
<path d="M629.219 260.109H627.538V262.292H629.219V260.109Z" stroke="#23366C" stroke-width="1.5" stroke-miterlimit="2" stroke-linecap="round" stroke-linejoin="round"/>
<path d="M626.074 260.109H624.396V262.292H626.074V260.109Z" stroke="#23366C" stroke-width="1.5" stroke-miterlimit="2" stroke-linecap="round" stroke-linejoin="round"/>
<path d="M622.933 260.109H621.251V262.292H622.933V260.109Z" stroke="#23366C" stroke-width="1.5" stroke-miterlimit="2" stroke-linecap="round" stroke-linejoin="round"/>
<path d="M619.793 260.109H618.115V262.292H619.793V260.109Z" stroke="#23366C" stroke-width="1.5" stroke-miterlimit="2" stroke-linecap="round" stroke-linejoin="round"/>
<path d="M616.652 260.109H614.975V262.292H616.652V260.109Z" stroke="#23366C" stroke-width="1.5" stroke-miterlimit="2" stroke-linecap="round" stroke-linejoin="round"/>
<path d="M613.511 260.109H611.834V262.292H613.511V260.109Z" stroke="#23366C" stroke-width="1.5" stroke-miterlimit="2" stroke-linecap="round" stroke-linejoin="round"/>
<path fill-rule="evenodd" clip-rule="evenodd" d="M608.312 317.966C608.312 318.815 609 319.498 609.843 319.498H646.126C646.969 319.498 647.652 318.815 647.652 317.966C647.652 317.126 646.969 316.443 646.126 316.443H609.843C609 316.443 608.312 317.126 608.312 317.966Z" stroke="#23366C" stroke-width="1.5" stroke-miterlimit="2" stroke-linecap="round" stroke-linejoin="round"/>
<path d="M646.074 319.498H644.392V321.683H646.074V319.498Z" stroke="#23366C" stroke-width="1.5" stroke-miterlimit="2" stroke-linecap="round" stroke-linejoin="round"/>
<path d="M642.928 319.498H641.251V321.683H642.928V319.498Z" stroke="#23366C" stroke-width="1.5" stroke-miterlimit="2" stroke-linecap="round" stroke-linejoin="round"/>
<path d="M639.787 319.498H638.11V321.683H639.787V319.498Z" stroke="#23366C" stroke-width="1.5" stroke-miterlimit="2" stroke-linecap="round" stroke-linejoin="round"/>
<path d="M636.647 319.498H634.97V321.683H636.647V319.498Z" stroke="#23366C" stroke-width="1.5" stroke-miterlimit="2" stroke-linecap="round" stroke-linejoin="round"/>
<path d="M633.511 319.498H631.829V321.683H633.511V319.498Z" stroke="#23366C" stroke-width="1.5" stroke-miterlimit="2" stroke-linecap="round" stroke-linejoin="round"/>
<path d="M630.365 319.498H628.688V321.683H630.365V319.498Z" stroke="#23366C" stroke-width="1.5" stroke-miterlimit="2" stroke-linecap="round" stroke-linejoin="round"/>
<path d="M627.23 319.498H625.548V321.683H627.23V319.498Z" stroke="#23366C" stroke-width="1.5" stroke-miterlimit="2" stroke-linecap="round" stroke-linejoin="round"/>
<path d="M624.083 319.498H622.407V321.683H624.083V319.498Z" stroke="#23366C" stroke-width="1.5" stroke-miterlimit="2" stroke-linecap="round" stroke-linejoin="round"/>
<path d="M620.949 319.498H619.266V321.683H620.949V319.498Z" stroke="#23366C" stroke-width="1.5" stroke-miterlimit="2" stroke-linecap="round" stroke-linejoin="round"/>
<path d="M617.802 319.498H616.126V321.683H617.802V319.498Z" stroke="#23366C" stroke-width="1.5" stroke-miterlimit="2" stroke-linecap="round" stroke-linejoin="round"/>
<path d="M614.663 319.498H612.985V321.683H614.663V319.498Z" stroke="#23366C" stroke-width="1.5" stroke-miterlimit="2" stroke-linecap="round" stroke-linejoin="round"/>
<path d="M611.523 319.498H609.844V321.683H611.523V319.498Z" stroke="#23366C" stroke-width="1.5" stroke-miterlimit="2" stroke-linecap="round" stroke-linejoin="round"/>
<path fill-rule="evenodd" clip-rule="evenodd" d="M612.985 321.682V319.498H614.663V321.682H612.985ZM614.975 260.109H616.652V262.292H614.975V260.109ZM616.126 319.498H617.803V321.682H616.126V319.498ZM618.115 260.109H619.793V262.292H618.115V260.109ZM619.267 319.498H620.95V321.682H619.267V319.498ZM621.251 260.109H622.933V262.292H621.251V260.109ZM622.408 319.498H624.084V321.682H622.408V319.498ZM624.396 260.109H626.074V262.292H624.396V260.109ZM625.549 319.498H627.231V321.682H625.549V319.498ZM627.538 260.109H629.22V262.292H627.538V260.109ZM628.689 319.498H630.366V321.682H628.689V319.498ZM630.678 260.109H632.356V262.292H630.678V260.109ZM631.83 319.498H633.511V321.682H631.83V319.498ZM633.819 260.109H635.496V262.292H633.819V260.109ZM634.97 319.498H636.647V321.682H634.97V319.498ZM636.959 260.109H638.637V262.292H636.959V260.109ZM638.111 319.498H639.787V321.682H638.111V319.498ZM640.1 260.109H641.777V262.292H640.1V260.109ZM641.251 319.498H642.928V321.682H641.251V319.498ZM609.647 380.417H646.886L644.501 321.682H644.392V319.498H644.407L639.345 195.145H638.418V192.961H636.959V195.145H635.283V192.961H633.819V195.145H632.137V192.961H630.678V195.145H628.997V192.961H627.538V195.145H625.856V192.961H624.396V195.145H622.715V192.961H621.257V195.145H619.574V192.961H618.115V195.145H617.189L609.647 380.417Z" stroke="#23366C" stroke-width="1.5" stroke-miterlimit="2" stroke-linecap="round" stroke-linejoin="round"/>
<path fill-rule="evenodd" clip-rule="evenodd" d="M565.012 210.112C566.157 209.538 566.782 208.224 566.782 208.224C566.782 208.224 567.413 209.538 568.553 210.112C569.688 210.679 570.886 211.195 570.886 213.593H562.679C562.679 211.195 563.876 210.679 565.012 210.112Z" stroke="#23366C" stroke-width="1.5" stroke-miterlimit="2" stroke-linecap="round" stroke-linejoin="round"/>
<path fill-rule="evenodd" clip-rule="evenodd" d="M562.136 214.136C562.136 214.433 562.375 214.678 562.678 214.678H570.886C571.188 214.678 571.427 214.433 571.427 214.136C571.427 213.833 571.188 213.593 570.886 213.593H562.678C562.375 213.593 562.136 213.833 562.136 214.136Z" stroke="#23366C" stroke-width="1.5" stroke-miterlimit="2" stroke-linecap="round" stroke-linejoin="round"/>
<path fill-rule="evenodd" clip-rule="evenodd" d="M525.366 232.307H528.824L533.063 233.22V204.199H525.366V232.307Z" stroke="#23366C" stroke-width="1.5" stroke-miterlimit="2" stroke-linecap="round" stroke-linejoin="round"/>
<path fill-rule="evenodd" clip-rule="evenodd" d="M527.443 199.634C528.584 199.06 529.209 197.746 529.209 197.746C529.209 197.746 529.84 199.06 530.98 199.634C532.12 200.201 533.323 200.717 533.323 203.115H525.104C525.104 200.717 526.303 200.201 527.443 199.634Z" stroke="#23366C" stroke-width="1.5" stroke-miterlimit="2" stroke-linecap="round" stroke-linejoin="round"/>
<path fill-rule="evenodd" clip-rule="evenodd" d="M524.563 203.658C524.563 203.955 524.808 204.2 525.105 204.2H533.324C533.621 204.2 533.86 203.955 533.86 203.658C533.86 203.355 533.621 203.115 533.324 203.115H525.105C524.808 203.115 524.563 203.355 524.563 203.658Z" stroke="#23366C" stroke-width="1.5" stroke-miterlimit="2" stroke-linecap="round" stroke-linejoin="round"/>
<path d="M766.217 380.417H704.254V427.077H766.217V380.417Z" stroke="#23366C" stroke-width="1.5" stroke-miterlimit="2" stroke-linecap="round" stroke-linejoin="round"/>
<path d="M766.217 384.93H704.254V388.016H766.217V384.93Z" stroke="#23366C" stroke-width="1.5" stroke-miterlimit="2" stroke-linecap="round" stroke-linejoin="round"/>
<path fill-rule="evenodd" clip-rule="evenodd" d="M488.225 380.417V364.793C488.225 361.488 490.902 358.803 494.209 358.803C497.511 358.803 500.188 361.488 500.188 364.793V380.417H488.225Z" stroke="#23366C" stroke-width="1.5" stroke-miterlimit="2" stroke-linecap="round" stroke-linejoin="round"/>
<path fill-rule="evenodd" clip-rule="evenodd" d="M488.225 312.461V296.833C488.225 293.528 490.902 290.849 494.209 290.849C497.511 290.849 500.188 293.528 500.188 296.833V312.461H488.225Z" stroke="#23366C" stroke-width="1.5" stroke-miterlimit="2" stroke-linecap="round" stroke-linejoin="round"/>
<path fill-rule="evenodd" clip-rule="evenodd" d="M395.684 314.854V297.802C395.684 291.922 390.924 287.157 385.054 287.157C379.178 287.157 374.418 291.922 374.418 297.802V314.854H395.684Z" stroke="#23366C" stroke-width="1.5" stroke-miterlimit="2" stroke-linecap="round" stroke-linejoin="round"/>
<path d="M379.959 288.451V314.854" stroke="#23366C" stroke-width="1.5" stroke-miterlimit="2" stroke-linecap="round" stroke-linejoin="round"/>
<path d="M389.96 288.451V314.854" stroke="#23366C" stroke-width="1.5" stroke-miterlimit="2" stroke-linecap="round" stroke-linejoin="round"/>
<path d="M385.053 287.157V314.854" stroke="#23366C" stroke-width="1.5" stroke-miterlimit="2" stroke-linecap="round" stroke-linejoin="round"/>
<path d="M374.418 303.553H395.684" stroke="#23366C" stroke-width="1.5" stroke-miterlimit="2" stroke-linecap="round" stroke-linejoin="round"/>
<path d="M374.418 309.849H395.684" stroke="#23366C" stroke-width="1.5" stroke-miterlimit="2" stroke-linecap="round" stroke-linejoin="round"/>
<path d="M374.48 297.176H395.615" stroke="#23366C" stroke-width="1.5" stroke-miterlimit="2" stroke-linecap="round" stroke-linejoin="round"/>
<path d="M376.225 291.86H393.876" stroke="#23366C" stroke-width="1.5" stroke-miterlimit="2" stroke-linecap="round" stroke-linejoin="round"/>
<path fill-rule="evenodd" clip-rule="evenodd" d="M390.902 41.5161C390.902 44.7531 388.283 47.3756 385.054 47.3756C381.814 47.3756 379.199 44.7531 379.199 41.5161C379.199 38.2841 381.814 35.6567 385.054 35.6567C388.283 35.6567 390.902 38.2841 390.902 41.5161Z" stroke="#23366C" stroke-width="1.5" stroke-miterlimit="2" stroke-linecap="round" stroke-linejoin="round"/>
<path fill-rule="evenodd" clip-rule="evenodd" d="M389.606 32.0809C389.606 34.5992 387.569 36.642 385.054 36.642C382.533 36.642 380.492 34.5992 380.492 32.0809C380.492 29.5584 382.533 27.5139 385.054 27.5139C387.569 27.5139 389.606 29.5584 389.606 32.0809Z" stroke="#23366C" stroke-width="1.5" stroke-miterlimit="2" stroke-linecap="round" stroke-linejoin="round"/>
<path fill-rule="evenodd" clip-rule="evenodd" d="M389.606 17.8287C389.606 20.3512 387.569 22.3948 385.054 22.3948C382.533 22.3948 380.492 20.3512 380.492 17.8287C380.492 15.3112 382.533 13.2676 385.054 13.2676C387.569 13.2676 389.606 15.3112 389.606 17.8287Z" stroke="#23366C" stroke-width="1.5" stroke-miterlimit="2" stroke-linecap="round" stroke-linejoin="round"/>
<path fill-rule="evenodd" clip-rule="evenodd" d="M385.073 13.2677C385.699 13.2677 386.298 13.3984 386.84 13.6274V1.89775C386.84 1.89775 386.658 0.0639648 385.022 0.0639648C383.392 0.0639648 383.262 1.89775 383.262 1.89775V13.6482C383.814 13.4084 384.428 13.2677 385.073 13.2677Z" stroke="#23366C" stroke-width="1.5" stroke-miterlimit="2" stroke-linecap="round" stroke-linejoin="round"/>
<path fill-rule="evenodd" clip-rule="evenodd" d="M383.262 22.01V27.9002C383.814 27.6554 384.428 27.5138 385.073 27.5138C385.699 27.5138 386.298 27.6446 386.84 27.8744V22.0358C386.298 22.2648 385.699 22.3948 385.073 22.3948C384.428 22.3948 383.814 22.2548 383.262 22.01Z" stroke="#23366C" stroke-width="1.5" stroke-miterlimit="2" stroke-linecap="round" stroke-linejoin="round"/>
<path fill-rule="evenodd" clip-rule="evenodd" d="M385.073 47.376H386.84V47.1045C386.283 47.2819 385.689 47.376 385.073 47.376Z" stroke="#23366C" stroke-width="1.5" stroke-miterlimit="2" stroke-linecap="round" stroke-linejoin="round"/>
<path fill-rule="evenodd" clip-rule="evenodd" d="M383.262 47.3755H385.073C384.439 47.3755 383.834 47.2714 383.262 47.084V47.3755Z" stroke="#23366C" stroke-width="1.5" stroke-miterlimit="2" stroke-linecap="round" stroke-linejoin="round"/>
<path fill-rule="evenodd" clip-rule="evenodd" d="M385.054 162.038C321.272 162.038 316.814 168.413 316.814 168.413V186.601C316.814 186.601 322.351 179.828 385.054 179.828C447.752 179.828 453.288 186.601 453.288 186.601V168.413C453.288 168.413 448.824 162.038 385.054 162.038Z" stroke="#23366C" stroke-width="1.5" stroke-miterlimit="2" stroke-linecap="round" stroke-linejoin="round"/>
<path fill-rule="evenodd" clip-rule="evenodd" d="M458.303 112.192C438.219 79.7115 404.641 67.732 386.652 47.1566C386.147 47.2923 385.621 47.3756 385.073 47.3756C384.512 47.3756 383.97 47.2923 383.46 47.1458C365.47 67.7262 331.887 79.7057 311.793 112.192C291.085 145.675 316.814 168.413 316.814 168.413C316.814 168.413 321.272 162.038 385.053 162.038C448.824 162.038 453.287 168.413 453.287 168.413C453.287 168.413 479.017 145.675 458.303 112.192Z" stroke="#23366C" stroke-width="1.5" stroke-miterlimit="2" stroke-linecap="round" stroke-linejoin="round"/>
<path fill-rule="evenodd" clip-rule="evenodd" d="M385.054 179.829C322.351 179.829 316.814 186.601 316.814 186.601V207.328H453.288V186.601C453.288 186.601 447.752 179.829 385.054 179.829Z" stroke="#23366C" stroke-width="1.5" stroke-miterlimit="2" stroke-linecap="round" stroke-linejoin="round"/>
</g>
</svg>
