<svg width="1682" height="622" viewBox="0 0 1682 622" fill="none" xmlns="http://www.w3.org/2000/svg">
<path d="M222.115 258.941V279.982" stroke="#059345" stroke-width="1.5" stroke-linecap="round" stroke-linejoin="round"/>
<path d="M271.526 400.318C286.449 406.614 298.466 416.346 307.224 430.044C309.775 434.025 311.103 438.67 314.066 442.415" stroke="#059345" stroke-width="1.5" stroke-linecap="round" stroke-linejoin="round"/>
<path d="M177.732 238.342C177.732 235.289 177.865 232.237 177.703 229.185C177.526 225.793 178.646 224.437 182.318 224.525C192.079 224.776 201.841 224.614 211.602 224.614H271.084C284.812 224.614 298.54 224.732 312.253 224.525C315.91 224.466 317.045 225.808 316.868 229.185C316.706 232.222 316.839 235.289 316.839 238.342" stroke="#059345" stroke-width="1.5" stroke-linecap="round" stroke-linejoin="round"/>
<path d="M276.555 223.7C276.555 220.19 276.466 216.681 276.584 213.171C276.673 210.208 275.788 208.94 272.441 208.969C255.97 209.146 239.5 209.131 223.03 208.969C219.491 208.94 218.134 210.06 218.4 213.614C218.636 216.799 218.444 220.013 218.444 223.213" stroke="#059345" stroke-width="1.5" stroke-linecap="round" stroke-linejoin="round"/>
<path d="M432.116 363.72C430.509 362.393 428.607 362.29 426.631 362.334C420.689 362.482 414.732 362.157 408.789 362.172C301.12 362.408 193.451 362.378 85.7958 362.246C79.8535 362.246 73.8964 362.54 67.9541 362.334C65.9782 362.275 64.0761 362.393 62.4689 363.72" stroke="#059345" stroke-width="1.5" stroke-linecap="round" stroke-linejoin="round"/>
<path d="M258.256 397.118C256.678 402.972 256.737 409.062 255.587 414.974C255.115 417.393 256.457 418.469 259.141 419.206C275.67 423.748 288.203 433.583 296.21 448.844C301.076 458.119 302.639 468.205 302.639 478.57C302.639 544.157 302.543 549.4 302.558 614.972C302.558 616.653 302.233 618.378 303 620" stroke="#059345" stroke-width="1.5" stroke-linecap="round" stroke-linejoin="round"/>
<path d="M272.441 259.855C273.325 266.549 272.721 273.273 272.898 279.982" stroke="#059345" stroke-width="1.5" stroke-linecap="round" stroke-linejoin="round"/>
<path d="M239.043 260.769V279.068" stroke="#059345" stroke-width="1.5" stroke-linecap="round" stroke-linejoin="round"/>
<path d="M115.979 299.667C113.207 301.23 110.199 300.493 107.28 300.552C102.104 300.655 96.899 300.714 91.7234 300.537C88.5827 300.419 87.4768 301.569 87.5505 304.71C87.7127 311.729 87.6095 318.747 87.6095 325.751" stroke="#059345" stroke-width="1.5" stroke-linecap="round" stroke-linejoin="round"/>
<path d="M256.427 260.769C255.41 266.387 256.236 272.064 255.97 277.697" stroke="#059345" stroke-width="1.5" stroke-linecap="round" stroke-linejoin="round"/>
<path d="M337.172 269.469C336.685 262.008 331.657 256.98 324.594 256.626C318.593 256.331 311.265 260.843 310.439 269.012C309.805 275.411 314.582 282.15 321.852 283.167C329.446 284.229 335.933 279.451 336.951 272.211C337.054 271.445 337.246 270.693 337.408 269.926" stroke="#059345" stroke-width="1.5" stroke-linecap="round" stroke-linejoin="round"/>
<path d="M218.916 397.575C217.471 395.894 215.642 395.26 213.43 395.26C200.322 395.304 187.199 395.29 174.09 395.26C172.778 395.26 171.495 395.231 170.433 396.189" stroke="#059345" stroke-width="1.5" stroke-linecap="round" stroke-linejoin="round"/>
<path d="M318.652 397.118C318.652 409.784 318.593 422.435 318.696 435.102C318.726 438.287 318.328 441.206 316.367 443.801" stroke="#059345" stroke-width="1.5" stroke-linecap="round" stroke-linejoin="round"/>
<path d="M397.347 539.424H335.58" stroke="#059345" stroke-width="1.5" stroke-linecap="round" stroke-linejoin="round"/>
<path d="M169.504 256.655C159.684 259.707 157.517 265.487 158.504 271.754C159.463 277.932 162.692 281.574 168.59 282.725C175.388 284.066 180.018 282.223 183.217 276.767C185.798 272.373 185.827 268.038 183.276 263.482C180.283 258.144 175.727 256.345 169.961 256.64" stroke="#059345" stroke-width="1.5" stroke-linecap="round" stroke-linejoin="round"/>
<path d="M407.404 326.194C408.568 327.403 410.102 327.24 411.517 327.078C415.086 326.665 416.236 328.125 416.162 331.694C415.956 341.293 416.089 350.907 416.089 360.52" stroke="#059345" stroke-width="1.5" stroke-linecap="round" stroke-linejoin="round"/>
<path d="M318.072 399.913C318.22 404.484 318.559 409.07 318.5 413.641C317.63 480.599 318.264 547.557 318.072 614.515C318.072 616.358 317.866 618.216 318.529 620" stroke="#059345" stroke-width="1.5" stroke-linecap="round" stroke-linejoin="round"/>
<path d="M397.347 472.613H335.58" stroke="#059345" stroke-width="1.5" stroke-linecap="round" stroke-linejoin="round"/>
<path d="M234.472 418.631C235.327 423.305 238.247 424.809 242.714 424.146C243.909 423.969 245.162 423.998 246.371 424.146C250.868 424.677 254.791 424.19 256.442 419.088" stroke="#059345" stroke-width="1.5" stroke-linecap="round" stroke-linejoin="round"/>
<path d="M153.491 539.424H91.7234" stroke="#059345" stroke-width="1.5" stroke-linecap="round" stroke-linejoin="round"/>
<path d="M232.643 397.118C233.41 403.06 234.206 409.003 234.914 414.96C235.15 416.906 234.693 418.174 232.201 418.69C210.304 423.276 196.739 437.505 188.909 457.573C186.889 462.734 186.388 468.632 186.388 474.427C186.461 540.781 186.432 547.161 186.432 613.515C186.432 615.358 186.638 617.216 185.975 619" stroke="#059345" stroke-width="1.5" stroke-linecap="round" stroke-linejoin="round"/>
<path d="M76.1672 395.289H169.755C170.802 399.536 170.389 402.913 170.404 406.275C170.463 416.641 170.463 427.021 170.404 437.387C170.404 439.849 170.669 442.12 172.719 443.786" stroke="#059345" stroke-width="1.5" stroke-linecap="round" stroke-linejoin="round"/>
<path d="M200.617 254.827C198.508 255.535 198.789 257.319 198.789 258.941C198.789 266.254 198.848 273.583 198.759 280.896C198.73 283.86 199.555 285.113 202.902 285.099C232.481 284.966 262.075 284.966 291.654 285.099C295.001 285.113 295.841 283.86 295.797 280.896C295.709 273.583 295.635 266.254 295.827 258.941C295.915 255.402 294.337 254.753 291.197 254.768C261.161 254.856 231.11 254.827 201.074 254.827" stroke="#059345" stroke-width="1.5" stroke-linecap="round" stroke-linejoin="round"/>
<path d="M412.431 375.162V394.597C410.19 395.481 408.332 395.29 406.489 395.29C379.491 395.29 352.507 395.127 325.509 395.437C320.156 395.496 314.833 395.245 309.495 395.275C304.01 395.319 298.51 395.275 293.025 395.275C287.54 395.275 282.349 395.334 277.012 395.245C274.416 395.201 271.954 395.334 270.155 397.56" stroke="#059345" stroke-width="1.5" stroke-linecap="round" stroke-linejoin="round"/>
<path d="M412.432 395.289C413.759 396.897 413.818 398.814 413.818 400.775C413.803 442.563 414.186 484.365 413.67 526.138C413.316 555.275 413.597 584.397 413.375 613.533C413.361 615.524 412.741 617.662 414.245 619.49C414.924 620.331 412 620.084 404.5 620C390.299 619.841 409.5 620 398.5 620" stroke="#059345" stroke-width="1.5" stroke-linecap="round" stroke-linejoin="round"/>
<path d="M170.5 620C170.5 620 170.419 532.715 170.419 465.3C170.419 461.761 170.64 458.252 171.333 454.772" stroke="#059345" stroke-width="1.5" stroke-linecap="round" stroke-linejoin="round"/>
<path d="M90.8092 472.613C89.895 474.339 89.8803 476.197 89.8803 478.099C89.9097 496.397 89.4969 514.711 90.0867 532.995C90.3226 540.5 89.4821 547.932 89.8213 555.423C90.1604 562.721 89.895 570.064 89.895 577.378V599.806C89.895 607.119 89.8065 612.686 89.8213 620" stroke="#059345" stroke-width="1.5" stroke-linecap="round" stroke-linejoin="round"/>
<path d="M350.5 620C354.85 619.543 359.5 620 377 620C387.5 620 374.5 619.997 395 620C407.5 620 409 620 399 620C398.484 619.056 398.733 621.209 398.733 620V478.585C398.733 472.024 398.6 465.462 398.792 458.915C398.881 456.04 398.055 454.757 395.076 454.772C376.173 454.831 357.255 454.816 338.351 454.772C335.461 454.772 334.031 456.025 334.252 458.9C334.591 463.324 333.721 467.748 334.945 472.23C335.417 473.941 334.223 476.374 334.223 478.585C334.252 495.513 334.238 512.44 334.238 529.368C334.238 569.932 334.164 559.766 334.326 600.33C334.341 605.373 334.194 610.401 334.238 615.429C334.253 617.007 333.987 618.658 335.152 620" stroke="#059345" stroke-width="1.5" stroke-linecap="round" stroke-linejoin="round"/>
<path d="M120.093 407.646C110.936 409.519 105.097 417.009 105.392 425.031C105.687 432.964 110.642 439.938 118.751 441.634C126.994 443.359 133.777 439.997 137.493 433.259C144.497 420.548 134.706 406.024 120.565 407.631" stroke="#059345" stroke-width="1.5" stroke-linecap="round" stroke-linejoin="round"/>
<path d="M175.447 441.501C179.634 432.801 184.544 424.603 191.43 417.687C197.623 411.465 204.627 406.466 212.487 402.588C214.079 401.807 215.539 400.775 217.072 399.861" stroke="#059345" stroke-width="1.5" stroke-linecap="round" stroke-linejoin="round"/>
<path d="M234.929 395.747C242.095 396.012 249.276 395.186 256.427 396.204" stroke="#059345" stroke-width="1.5" stroke-linecap="round" stroke-linejoin="round"/>
<path d="M104.537 492.298C102.34 492.814 101.75 494.348 101.78 496.412C101.839 501.897 101.868 507.397 101.78 512.882C101.735 515.876 103.062 516.643 105.923 516.613C116.908 516.466 127.879 516.436 138.864 516.613C142.417 516.672 143.671 515.522 143.509 511.968C143.258 506.94 143.214 501.897 143.509 496.869C143.73 493.198 142.24 492.21 138.864 492.239C127.584 492.357 116.289 492.283 105.009 492.283" stroke="#059345" stroke-width="1.5" stroke-linecap="round" stroke-linejoin="round"/>
<path d="M367.149 407.646C355.53 410.61 351.475 419.899 353.421 428.688C355.043 436.016 361.59 443.138 372.634 441.899C381.393 440.911 387.91 432.551 387.32 423.659C386.701 414.385 379.107 408.251 371.72 407.661C370.363 407.558 368.977 407.646 367.606 407.646" stroke="#059345" stroke-width="1.5" stroke-linecap="round" stroke-linejoin="round"/>
<path d="M74.796 375.162V606.234V620" stroke="#059345" stroke-width="1.5" stroke-linecap="round" stroke-linejoin="round"/>
<path d="M78.9099 360.978C78.9099 351.216 78.9984 341.455 78.8657 331.693C78.8215 328.317 79.8684 327.152 83.4809 326.931C86.8871 326.71 90.2048 327.137 93.5519 327.137C196.031 327.123 298.51 327.137 401.004 327.137C407.33 327.137 407.404 327.063 407.404 320.738C407.404 315.71 407.418 310.667 407.404 305.639C407.374 300.611 407.359 300.611 402.375 300.611C308.891 300.611 215.406 300.596 121.922 300.655C116.731 300.655 115.449 300.729 115.493 294.196C115.581 277.873 115.508 261.551 115.537 245.242C115.537 240.244 116.024 239.757 121.022 239.757C137.036 239.742 153.049 239.757 169.062 239.757H309.982C331.023 239.757 352.08 239.757 373.121 239.757C378.754 239.757 379.063 240.067 379.063 245.699C379.063 263.703 379.063 281.693 379.063 299.696" stroke="#059345" stroke-width="1.5" stroke-linecap="round" stroke-linejoin="round"/>
<path d="M347.936 492.298C345.739 492.814 345.149 494.348 345.179 496.412C345.238 501.897 345.267 507.397 345.179 512.883C345.135 515.876 346.462 516.643 349.322 516.613C360.602 516.466 371.897 516.421 383.177 516.628C386.524 516.687 387.38 515.389 387.321 512.425C387.217 507.397 387.158 502.355 387.335 497.326C387.468 493.581 385.994 492.195 382.263 492.239C370.983 492.387 359.688 492.298 348.408 492.298" stroke="#059345" stroke-width="1.5" stroke-linecap="round" stroke-linejoin="round"/>
<path d="M153.491 472.613C134.116 472.613 114.755 472.613 95.3802 472.613C90.588 472.613 89.9687 471.994 89.895 467.128C89.8508 464.533 89.9835 461.938 89.8655 459.357C89.7033 456.04 91.1483 454.698 94.466 454.742C103.003 454.86 111.541 454.786 120.093 454.786C129.854 454.786 139.616 454.772 149.377 454.786C154.376 454.786 154.862 455.273 154.862 460.272C154.862 484.527 154.862 508.769 154.862 533.024C154.862 572.527 154.671 603.073 154.671 603.073L153.933 620" stroke="#059345" stroke-width="1.5" stroke-linecap="round" stroke-linejoin="round"/>
<path d="M435.773 362.349C433.989 362.511 432.293 362.659 432.043 365.091C431.969 365.814 431.497 366.699 431.128 367.347C428.533 371.874 425.098 373.968 419.303 373.953C306.458 373.732 193.598 373.806 80.753 373.703C78.4085 373.703 76.2557 374.455 73.8817 374.337C67.9836 374.027 64.9903 370.429 62.9113 365.563C61.9528 363.307 60.1097 362.541 57.8684 362.364" stroke="#059345" stroke-width="1.5" stroke-linecap="round" stroke-linejoin="round"/>
<path d="M740.404 619.975C1037.43 619.975 1334.46 619.975 1631.47 620C1654.17 620 1670.22 613.783 1678.87 601.02C1680.36 598.821 1681 596.431 1681 593.939C1680.94 404.977 1680.94 216.015 1680.94 27.0526C1680.94 12.4711 1660.83 1.77971 1638.72 1.01695C1637.61 0.978812 1636.53 1.01695 1635.42 1.01695C1105.56 1.01695 575.723 1.01695 45.8612 1.01695C23.2009 1.01695 2.9001 11.9499 1.56088 25.489C1.28454 28.2603 1.02945 31.019 1.02945 33.7777C1.02945 166.715 0.923149 299.665 1.11447 432.602C1.13572 452.141 1.11447 466.428 1.11443 508.146" stroke="#059345" stroke-width="1.5" stroke-linecap="round" stroke-linejoin="round"/>
<path d="M1 462.5V620H500.5V219.5" stroke="#059345" stroke-width="1.5"/>
</svg>
